<svg width="158" height="36" viewBox="0 0 158 36" fill="none" xmlns="http://www.w3.org/2000/svg">
<g opacity="0.3">
<path d="M155.705 22.1729C156.651 22.1729 157.416 22.892 157.416 23.7798C157.416 24.6667 156.651 25.3867 155.705 25.3867C154.758 25.3867 153.994 24.6667 153.994 23.7798C153.994 22.892 154.758 22.1729 155.705 22.1729Z" fill="#D5DCFF"/>
<path d="M72.5481 13.1734C72.9293 13.1734 73.2326 13.4615 73.2326 13.8162C73.2326 14.171 72.9293 14.459 72.5481 14.459C72.1669 14.459 71.8638 14.171 71.8638 13.8162C71.8638 13.4615 72.1669 13.1734 72.5481 13.1734Z" fill="#D5DCFF"/>
<path d="M16.9393 34.3844C17.4157 34.3844 17.7948 34.6724 17.7948 35.0272C17.7948 35.3819 17.4157 35.6699 16.9393 35.6699C16.4628 35.6699 16.0837 35.3819 16.0837 35.0272C16.0837 34.6724 16.4628 34.3844 16.9393 34.3844Z" fill="#D5DCFF"/>
</g>
</svg>
