<svg width="191" height="161" viewBox="0 0 191 161" fill="none" xmlns="http://www.w3.org/2000/svg">
<g clip-path="url(#clip0_8617_56655)">
<g opacity="0.3">
<path d="M179.705 142.503C180.651 142.503 181.416 143.222 181.416 144.11C181.416 144.997 180.651 145.717 179.705 145.717C178.758 145.717 177.994 144.997 177.994 144.11C177.994 143.222 178.758 142.503 179.705 142.503Z" fill="#D5DCFF"/>
<path d="M161.568 93.3297C161.949 93.3297 162.252 93.6177 162.252 93.9725C162.252 94.3272 161.949 94.6152 161.568 94.6152C161.186 94.6152 160.883 94.3272 160.883 93.9725C160.883 93.6177 161.186 93.3297 161.568 93.3297Z" fill="#D5DCFF"/>
<path d="M96.5481 133.504C96.9293 133.504 97.2326 133.792 97.2326 134.146C97.2326 134.501 96.9293 134.789 96.5481 134.789C96.1669 134.789 95.8637 134.501 95.8637 134.146C95.8637 133.792 96.1669 133.504 96.5481 133.504Z" fill="#D5DCFF"/>
<path d="M24.6844 104.58C25.0656 104.58 25.3688 104.868 25.3688 105.222C25.3688 105.577 25.0656 105.865 24.6844 105.865C24.3032 105.865 24 105.577 24 105.222C24 104.868 24.3032 104.58 24.6844 104.58Z" fill="#D5DCFF"/>
<path d="M65.7494 93.9723C66.1306 93.9723 66.4338 94.2603 66.4338 94.6151C66.4338 94.9698 66.1306 95.2578 65.7494 95.2578C65.3681 95.2578 65.065 94.9698 65.065 94.6151C65.065 94.2603 65.3681 93.9723 65.7494 93.9723Z" fill="#D5DCFF"/>
<path d="M40.9393 154.714C41.4158 154.714 41.7948 155.002 41.7948 155.357C41.7948 155.712 41.4158 156 40.9393 156C40.4629 156 40.0838 155.712 40.0838 155.357C40.0838 155.002 40.4629 154.714 40.9393 154.714Z" fill="#D5DCFF"/>
</g>
<g filter="url(#filter0_d_8617_56655)">
<g clip-path="url(#clip1_8617_56655)">
<rect x="90" y="22" width="91" height="91" rx="45.5" fill="#D5DCFF"/>
<g clip-path="url(#clip2_8617_56655)">
<path d="M147.748 57.8373L135.497 50.7468L123.25 57.8373V50.7468L135.499 43.6562L147.75 50.7468V57.8373H147.748Z" fill="#A435F0"/>
<path d="M123.25 63.791H129.667V79.4214C129.667 83.4596 132.674 85.428 135.499 85.428C138.348 85.428 141.333 83.4072 141.333 79.3672V63.791H147.75V79.7937C147.75 83.5138 146.583 86.3842 144.251 88.3527C141.916 90.3194 139 91.2773 135.445 91.2773C131.893 91.2773 128.976 90.3211 126.697 88.3528C124.417 86.3859 123.25 83.6221 123.25 79.9527V63.791Z" fill="#BDC6F5"/>
</g>
<path d="M187.583 60.0408C187.583 60.0408 183.753 65.2431 182.719 66.2575C181.685 67.2719 175.168 68.1996 174.864 68.295C174.559 68.3904 169.482 69.847 169.38 70.4279C169.279 71.0089 169.177 71.2083 170.211 71.9886C171.245 72.7689 170.931 78.6994 170.414 79.5665C169.897 80.4335 167.414 81.3006 167.313 82.1676C167.211 83.0346 167.211 82.4624 166.39 85.0808C165.568 87.6993 167.627 85.0808 164.424 88.679C161.221 92.2772 163.593 92.5634 166.39 97.1326C169.187 101.702 169.491 103.635 169.491 103.635C169.491 103.635 177.66 105.578 180.974 104.026C184.288 102.474 185.59 99.3176 187.593 99.7771C189.596 100.237 190.177 100.401 194.977 100.471C199.777 100.54 203.977 98.4939 206.46 97.1326C208.943 95.7714 215.774 95.4766 211.999 93.4391C208.223 91.4015 204.965 91.2368 205.177 89.1039C205.39 86.971 203.109 85.393 204.965 83.0346C206.82 80.6763 209.211 83.4335 207.245 79.5665C205.279 75.6995 201.448 71.7632 201.245 71.5031C201.042 71.2429 198.762 71.8932 199.076 67.3239C199.39 62.7547 201.448 58.8703 199.482 58.4802C197.516 58.09 191.719 55.7663 191.257 56.2519L187.583 60.0408Z" fill="#BDC6F5"/>
<path d="M91.2599 42.2903H95.8106C95.8106 42.2903 97.3891 41.7094 98.1553 44.1024C98.9214 46.4954 99.3921 46.8249 99.3921 46.8249L101.46 47.8567V50.5185C101.46 50.5185 102.291 53.4924 102.291 53.7525C101.986 54.5502 101.617 55.3219 101.211 56.0762C101.211 56.0762 94.186 50.978 91.2599 46.6341C88.3337 42.2903 91.2599 42.2903 91.2599 42.2903Z" fill="#BDC6F5"/>
<path d="M111.582 104.447C111.582 104.447 105.212 100.693 105.36 100.303C105.508 99.9128 106.966 95.8378 107.585 95.517C108.203 95.1962 113.123 96.0979 113.308 96.8695C113.492 97.6412 113.585 102.835 113.585 102.835C113.585 102.835 118.412 103.546 119.123 103.606C119.834 103.667 121.819 102.315 121.892 104.473C121.883 105.835 121.2 107.118 120.046 107.942C120.046 107.942 118.117 107.681 117.277 108.852C116.437 110.022 113.132 109.823 113.132 109.823C113.132 109.823 109.625 107.881 109.44 107.881C109.256 107.881 107.234 108.271 107.926 107.361C108.619 106.45 109.514 105.158 109.514 105.158L111.582 104.447Z" fill="#BDC6F5"/>
</g>
</g>
<g opacity="0.3">
<path d="M179.705 42.503C180.651 42.503 181.416 43.222 181.416 44.1099C181.416 44.9968 180.651 45.7168 179.705 45.7168C178.758 45.7168 177.994 44.9968 177.994 44.1099C177.994 43.222 178.758 42.503 179.705 42.503Z" fill="#D5DCFF"/>
<path d="M96.5481 33.5035C96.9293 33.5035 97.2326 33.7916 97.2326 34.1463C97.2326 34.501 96.9293 34.7891 96.5481 34.7891C96.1669 34.7891 95.8637 34.501 95.8637 34.1463C95.8637 33.7916 96.1669 33.5035 96.5481 33.5035Z" fill="#D5DCFF"/>
<path d="M24.6844 4.5797C25.0656 4.5797 25.3688 4.86768 25.3688 5.22245C25.3688 5.57723 25.0656 5.86523 24.6844 5.86523C24.3032 5.86523 24 5.57723 24 5.22245C24 4.86768 24.3032 4.5797 24.6844 4.5797Z" fill="#D5DCFF"/>
<path d="M40.9393 54.7145C41.4158 54.7145 41.7948 55.0025 41.7948 55.3572C41.7948 55.712 41.4158 56 40.9393 56C40.4629 56 40.0838 55.712 40.0838 55.3572C40.0838 55.0025 40.4629 54.7145 40.9393 54.7145Z" fill="#D5DCFF"/>
</g>
<path d="M213.112 -13.0592C211.678 -8.86196 214.937 2.84909 206.903 16.9143C198.869 30.9796 202.155 35.3237 194.491 45.9419C186.826 56.5602 190.835 54.4072 182.437 66.265C174.039 78.1229 167.738 95.6732 157.373 96.0374C147.009 96.4017 131.076 98.2122 122.064 96.4017C113.053 94.5912 84.2136 89.8774 68.4008 94.9338C52.588 99.9901 49.4645 101.045 42.0008 107.314C36.9055 111.522 31.5983 115.469 26.1065 119.139L17.0349 121.575L0.195343 123.597H11.505L30.0393 121.259L37.6442 117.6L35.6344 125.723L15.8344 138.641L35.2596 132.709C35.2596 132.709 41.1968 127.43 42.5603 125.968C43.9238 124.505 52.8813 110.983 53.2724 109.885C53.6635 108.787 74.3326 105.536 77.983 105.177C81.6334 104.818 107.615 105.541 107.615 105.541C107.615 105.541 117.072 110.293 119.071 111.022C121.07 111.75 135.275 115.773 135.275 115.773L149.127 123.124C149.127 123.124 172.703 119.96 173.599 118.862C174.495 117.763 195.751 113.256 195.751 113.256L216.393 102.263L226.23 88.1648L224.058 136.608L222.661 153.913L304.909 152.891L307.196 96.7932C307.196 96.7932 307.804 4.66501 308.543 -0.837121C309.282 -6.33926 214.546 -17.2565 213.112 -13.0592Z" fill="#1A1D36"/>
<path d="M161.474 96.2447C163.647 95.8804 212.482 58.5018 215.035 53.6032C203.595 51.5589 197.386 51.5589 197.386 51.5589L247.541 -5.78402L216.377 13.0929L222.966 2.76278L211.265 8.36278L213.112 -13.0586C213.112 -13.0586 210.461 -11.3895 209.005 -7.19218C207.55 -2.99489 211.298 2.53442 203.264 16.5997C195.23 30.6649 198.516 35.009 190.846 45.6272C183.176 56.2455 187.195 54.0925 178.792 65.9558C170.389 77.8191 164.093 95.3585 153.734 95.7228C148.258 95.9185 141.24 96.5166 134.488 96.7721C134.488 96.7721 159.285 96.6144 161.474 96.2447Z" fill="url(#paint0_linear_8617_56655)"/>
<path d="M213.025 96.9944L193.214 104.78L199.733 98.2829L211.097 83.5C211.097 83.5 188.374 103.317 186.913 104.78C185.452 106.243 176.049 109.168 173.767 109.004C171.486 108.841 158.666 113.555 158.666 113.555V110.951L147.465 115.665L142.228 112.903L127.236 105.987H118.153L109.853 99.7074L103.514 98.8483L70.1227 98.6091L54.7988 102.616L71.9751 99.8977L102.808 100.121L115.714 105.764L131.918 110.516L145.786 117.856L170.231 113.593L192.388 107.988L213.025 96.9944Z" fill="url(#paint1_linear_8617_56655)"/>
<mask id="mask0_8617_56655" style="mask-type:luminance" maskUnits="userSpaceOnUse" x="59" y="9" width="60" height="88">
<path d="M118.42 9.37891H59.7529V96.9129H118.42V9.37891Z" fill="white"/>
</mask>
<g mask="url(#mask0_8617_56655)">
<path d="M99.6955 84.716C99.6955 84.716 98.6461 76.8891 103.867 75.6886C109.306 74.437 117.674 71.3543 118.36 68.4472C119.045 65.5401 113.559 59.3518 117.397 56.2392C116.965 54.6935 115.285 52.7852 115.285 52.7852C115.285 52.7852 111.753 56.7242 114.733 64.512C118.55 74.5142 104.124 73.9347 101.683 74.4697C97.8861 75.3048 98.1517 80.2306 98.1517 80.2306L99.6955 84.716Z" fill="#24284A"/>
<path d="M99.6119 82.3086C99.7428 79.9011 100.53 76.4677 103.841 75.7038C109.279 74.4522 117.648 71.3728 118.333 68.4657C118.607 67.2978 117.886 65.5972 117.174 63.7812C117.644 65.2943 118.068 67.1907 117.555 67.9427C116.968 68.7658 116.16 69.4052 115.225 69.7858L114.906 70.1957C113.571 73.647 105.146 74.6159 105.143 74.6159C102.556 74.8535 100.041 75.7544 99.4478 77.6747C98.8546 79.595 99.6119 82.3118 99.6119 82.3118V82.3086Z" fill="#ABB9FF"/>
<path d="M98.9774 72.3621L100.202 74.0149C100.202 74.0149 96.0299 77.302 96.0299 77.7451C96.0299 78.1882 100.899 82.6704 101.215 82.385C101.531 82.1001 108.347 78.4198 108.26 75.5274C108.174 72.6355 100.727 65.3262 100.727 65.3262C100.727 65.3262 88.9791 69.9872 82.378 81.3123C75.9051 92.4231 78.3251 95.6309 78.3251 95.6309C78.3251 95.6309 81.0368 94.1743 82.026 95.1133C82.9201 94.519 83.8142 95.1698 83.8142 95.1698C83.8142 95.1698 85.4297 94.3108 86.1837 95.2503C86.9377 96.1892 90.6538 96.1419 90.6538 96.1419C90.6538 96.1419 91.7505 94.2483 93.1509 95.1459C93.8842 94.5783 95.0255 94.6974 95.1776 95.1073C95.6095 94.6202 96.924 94.6201 97.5618 95.7315C98.727 95.6722 103.123 94.8132 105.426 94.1118C105.17 92.8423 102.83 84.3352 103.203 80.9763C101.796 82.1235 101.203 81.987 101.203 81.987C101.203 81.987 96.5932 78.5063 96.5541 77.6978C96.5155 76.8894 100.428 73.8985 100.428 73.8985L98.9774 72.3621Z" fill="#2F2E5E"/>
<path d="M77.8481 71.8404L77.2163 73.6623C77.2163 73.6623 81.3556 77.1191 81.3556 77.5622C81.3556 78.0053 76.4982 82.9572 76.1821 82.6718C75.8659 82.3864 69.5185 78.4212 69.6049 75.5381C69.6912 72.6549 74.2031 64.207 74.2031 64.207C74.2031 64.207 82.3866 65.6929 89.3152 72.9131C82.008 81.2365 77.4429 93.0992 78.5005 95.0793C76.4325 94.8445 73.1694 94.3774 72.4986 94.1871C72.7577 92.9182 74.7904 84.5209 74.4177 81.162C75.0408 81.6703 75.4428 82.0063 75.6991 82.2233C75.9409 82.4282 76.2983 82.4282 76.5395 82.2233C77.7617 81.2185 81.1677 78.3587 81.1916 77.7052C81.2214 76.8995 77.2223 73.6683 77.2223 73.6683L77.8481 71.8404Z" fill="#2F2E5E"/>
<path opacity="0.38" d="M85.8258 73.2095C85.8258 73.2095 74.3016 69.6423 72.5851 69.8979C70.8685 70.1539 70.171 72.9893 69.7332 74.2827C69.2802 75.6468 69.6735 77.2018 71.5215 78.7176C73.3689 80.2334 75.0974 80.8635 75.6933 80.7983C76.2898 80.733 78.9716 78.1614 79.1443 77.6982C79.3171 77.2344 74.2717 74.9928 74.1555 73.676C74.0392 72.3591 75.646 72.4869 76.4983 72.7843C76.8645 72.2553 78.0063 71.5121 78.0063 71.5121L77.6157 73.0284L79.4724 74.7372L81.9755 77.0441C81.9755 77.0441 81.2813 78.0994 81.1977 78.8927C81.1145 79.6864 76.6412 85.3582 76.4983 85.7535C76.3549 86.1487 74.4863 87.7331 74.4863 87.7331L72.8621 94.0078L77.2165 94.1301C77.2165 94.1301 81.0102 82.9828 83.7426 78.9704C86.4755 74.9574 86.5412 74.6807 86.5412 74.6807L85.8258 73.2095Z" fill="#353F73"/>
<path opacity="0.38" d="M89.5032 76.4768C89.5032 76.4768 85.0152 79.6335 82.0173 85.8756C80.0948 89.8826 79.5527 92.7418 79.3979 94.0798C79.3561 94.4213 79.5972 94.7306 79.9373 94.7725C80.0025 94.7812 80.0715 94.7779 80.1367 94.7665C81.7907 94.4392 85.5009 93.7645 86.5319 94.1212C87.2685 94.368 87.9774 94.6888 88.6482 95.0786C88.6482 95.0786 90.1681 95.3075 90.3675 95.0786C90.5674 94.8497 93.014 92.9354 94.2683 93.3306C95.5231 93.7259 97.5107 94.1212 97.5107 94.1212C97.5107 94.1212 100.619 93.1996 99.6922 92.2753C98.7655 91.3511 95.4068 82.3144 95.2221 80.9296C95.0374 79.5443 94.9239 76.6399 95.2221 76.4708C95.5204 76.3012 95.0521 73.5991 93.926 73.7953C92.7994 73.9916 89.5032 76.4768 89.5032 76.4768Z" fill="#353F73"/>
<path opacity="0.38" d="M101.081 72.8646C101.081 72.8646 101.91 73.1261 101.99 73.5719C102.071 74.0177 99.5104 75.9321 98.9829 76.2262C98.4554 76.5209 97.3946 77.4658 97.4929 77.5311C97.5912 77.5968 100.536 80.3849 101.048 80.6464C101.561 80.9079 102.684 79.8885 103.215 78.9996C103.745 78.1112 105.084 76.0957 104.705 74.5114C104.326 72.9271 102.953 71.9729 102.342 71.9071C101.731 71.8419 99.7135 72.0055 99.6119 72.2045C99.5104 72.4035 101.081 72.8646 101.081 72.8646Z" fill="#353F73"/>
<path d="M86.0017 84.4876C86.477 84.4876 86.8627 84.1027 86.8627 83.6286C86.8627 83.1539 86.477 82.7695 86.0017 82.7695C85.5258 82.7695 85.1401 83.1539 85.1401 83.6286C85.1401 84.1027 85.5258 84.4876 86.0017 84.4876Z" fill="#353F6E"/>
<path d="M93.452 84.4935C93.9278 84.4935 94.3135 84.1085 94.3135 83.6344C94.3135 83.1598 93.9278 82.7754 93.452 82.7754C92.9766 82.7754 92.591 83.1598 92.591 83.6344C92.591 84.1085 92.9766 84.4935 93.452 84.4935Z" fill="#353F6E"/>
<path d="M85.3821 90.5038C85.8574 90.5038 86.2431 90.1188 86.2431 89.6447C86.2431 89.1701 85.8574 88.7852 85.3821 88.7852C84.9062 88.7852 84.5205 89.1701 84.5205 89.6447C84.5205 90.1188 84.9062 90.5038 85.3821 90.5038Z" fill="#353F6E"/>
<path d="M93.8485 90.5038C94.3244 90.5038 94.7095 90.1188 94.7095 89.6447C94.7095 89.1701 94.3244 88.7852 93.8485 88.7852C93.3726 88.7852 92.987 89.1701 92.987 89.6447C92.987 90.1188 93.3726 90.5038 93.8485 90.5038Z" fill="#353F6E"/>
<path d="M85.7661 84.2649C86.242 84.2649 86.6276 83.88 86.6276 83.4059C86.6276 82.9313 86.242 82.5469 85.7661 82.5469C85.2908 82.5469 84.9051 82.9313 84.9051 83.4059C84.9051 83.88 85.2908 84.2649 85.7661 84.2649Z" fill="#7C8BD1"/>
<path d="M93.2167 84.2708C93.692 84.2708 94.0777 83.8859 94.0777 83.4118C94.0777 82.9371 93.692 82.5527 93.2167 82.5527C92.7408 82.5527 92.3552 82.9371 92.3552 83.4118C92.3552 83.8859 92.7408 84.2708 93.2167 84.2708Z" fill="#7C8BD1"/>
<path d="M85.1463 90.2811C85.6221 90.2811 86.0078 89.8962 86.0078 89.4215C86.0078 88.9474 85.6221 88.5625 85.1463 88.5625C84.671 88.5625 84.2853 88.9474 84.2853 89.4215C84.2853 89.8962 84.671 90.2811 85.1463 90.2811Z" fill="#7C8BD1"/>
<path d="M93.6127 90.2811C94.0886 90.2811 94.4742 89.8962 94.4742 89.4215C94.4742 88.9474 94.0886 88.5625 93.6127 88.5625C93.1374 88.5625 92.7517 88.9474 92.7517 89.4215C92.7517 89.8962 93.1374 90.2811 93.6127 90.2811Z" fill="#7C8BD1"/>
<path d="M105.325 70.3809C105.325 70.3809 108.558 74.1769 108.337 75.7492C108.135 77.1791 106.97 78.8407 103.271 81.284C104.347 87.0123 104.857 91.0459 105.441 94.1221C103.558 94.7289 101.617 95.1535 99.6536 95.3917L102.446 93.1234L103.042 92.2018C103.352 91.4352 103.456 90.6001 103.34 89.7797C103.119 88.5368 103.188 88.9413 103.188 88.9413C103.188 88.9413 102.744 85.2883 102.431 85.5465C102.118 85.8053 101.537 84.2982 101.567 83.9209C101.498 83.3973 101.376 82.883 101.203 82.3866L97.4868 83.692C97.4868 83.692 104.118 78.689 105.632 75.535C106.687 73.3179 105.325 70.3809 105.325 70.3809Z" fill="#ABB9FF"/>
<path d="M96.626 94.6629C96.1643 94.5798 95.69 94.6869 95.3087 94.9603C94.9871 94.657 94.558 94.4906 94.1169 94.5026C93.6579 94.4939 93.2135 94.6749 92.8947 95.0022C92.5014 94.7048 91.9826 94.6216 91.5149 94.782C90.7669 94.9989 90.296 95.6291 90.4573 96.188C90.6181 96.7469 91.3509 97.0264 92.1081 96.8094C92.3944 96.729 92.6535 96.5746 92.8621 96.3636C93.1837 96.7143 93.64 96.9073 94.1169 96.8953C94.5993 96.9073 95.0616 96.7083 95.3831 96.3484C95.6575 96.5653 95.9883 96.7023 96.3338 96.7469C97.1594 96.8567 97.8955 96.4794 97.9731 95.8998C98.0503 95.3203 97.4484 94.776 96.626 94.6629Z" fill="#7E92EB"/>
<path d="M85.2836 94.6685C84.8034 94.5826 84.3091 94.7104 83.9305 95.0165C83.6116 94.6892 83.1705 94.5081 82.7148 94.5201C82.3269 94.5141 81.9515 94.6392 81.6446 94.8768C81.2541 94.6212 80.7684 94.5554 80.3246 94.7011C79.5826 94.9154 79.1116 95.5428 79.2724 96.1011C79.4332 96.6601 80.1666 96.9335 80.9146 96.7199C81.1318 96.6601 81.3345 96.5589 81.5105 96.4225C81.8293 96.7432 82.2644 96.9188 82.7175 96.9101C83.2151 96.9216 83.692 96.7019 84.0049 96.3154C84.2879 96.5562 84.6339 96.7079 85.0033 96.7525C85.8257 96.8623 86.5558 96.485 86.6335 95.9108C86.7106 95.3373 86.106 94.7783 85.2836 94.6685Z" fill="#7E92EB"/>
<path d="M89.2681 56.4576V56.5554C87.3729 56.3206 71.5155 54.7721 62.1044 67.4765C70.2069 66.8192 83.2629 70.1874 87.3397 76.293C93.3628 69.1408 108.797 66.8192 116.909 67.4765C106.893 53.9457 89.2681 56.4576 89.2681 56.4576Z" fill="#C5CCEB"/>
<path d="M117.993 40.2476C117.618 33.6903 102.985 19.4788 100.619 17.2346C98.2527 14.9903 94.2835 9.27726 93.127 9.37828C91.8933 9.47641 93.8277 20.9918 93.9733 29.2227C94.1194 37.4535 92.2959 40.2952 91.6668 40.1377C91.0378 39.9801 88.8867 39.6799 88.8867 39.6799C88.8867 39.6799 86.735 39.9772 86.106 40.1377C85.4769 40.2982 83.6501 37.4624 83.7995 29.2227C83.9484 20.9829 85.8854 9.47641 84.6485 9.37828C83.4926 9.28617 79.5201 15.0023 77.1539 17.2435C74.7877 19.4848 60.1672 33.6992 59.7826 40.2566C59.4843 45.4495 61.4991 46.9446 65.9154 49.0286C70.3323 51.112 71.712 51.7421 71.3959 52.8926C71.0802 54.043 68.2371 54.5068 68.079 57.3008C67.9215 60.0948 68.5978 64.5476 76.3461 67.9098C84.0945 71.2714 86.6394 72.2196 88.8867 72.2196C91.1334 72.2196 93.6783 71.2714 101.427 67.9098C109.175 64.5476 109.532 59.108 109.375 56.3167C109.217 53.526 106.693 54.037 106.377 52.8958C106.061 51.7541 107.444 51.112 111.86 49.0313C116.277 46.9506 118.288 45.4408 117.993 40.2476Z" fill="#7E92EB"/>
<path d="M68.2848 56.3819C68.4396 53.7064 70.9428 54.1968 71.2649 53.1121C71.2708 53.0882 71.2768 53.0616 71.2795 53.0376L76.6052 51.611L86.9642 50.541L87.8045 54.5061C87.8045 54.5061 81.6983 59.7288 76.93 59.5592C72.1617 59.3901 70.6929 55.9241 69.1219 57.9482C68.2517 59.0721 70.5288 64.2681 74.7843 65.5757C79.0398 66.8838 82.4431 68.2512 84.6545 68.8633C87.1397 69.4788 89.7297 69.5707 92.254 69.1368C94.7392 68.6491 103.799 66.0753 103.987 66.0188C103.051 66.5983 102.068 67.0947 101.045 67.5047C93.3594 70.7271 90.8351 71.6367 88.6063 71.6367C86.377 71.6367 83.8527 70.7271 76.1673 67.5047C68.4815 64.2828 68.1268 59.0601 68.2848 56.3819Z" fill="#40469E"/>
<path d="M104.806 55.1737C104.806 55.1737 103.018 59.4988 94.3758 58.7555C85.7333 58.0123 86.5231 52.5575 86.6274 48.233C86.7317 43.9079 92.373 40.207 92.373 40.207L104.806 55.1737Z" fill="#40469E"/>
<path d="M106.406 61.0999C105.119 62.1552 103.001 61.7572 100.745 61.1537C100.619 60.9514 100.119 60.7285 99.6804 60.6067C99.2426 60.4996 98.7923 60.467 98.3425 60.5056C97.9639 60.4077 98.4495 61.2782 98.0801 61.201C94.7307 60.4849 89.6463 60.2767 89.6463 60.2767C87.4115 60.1457 85.1762 60.4969 83.0903 61.3054C79.9043 62.4944 75.154 62.7054 73.1989 61.1031C72.603 60.6035 72.0218 60.3778 71.6823 59.5574C71.5601 59.26 72.031 56.808 73.25 58.4276C74.0339 59.4623 74.2957 60.7671 75.6575 60.8237C80.6616 61.0319 82.9707 58.6598 84.8307 56.4986C85.5162 55.6988 86.5712 55.1432 87.0894 54.4505C87.7331 53.5975 88.0938 52.2508 88.7673 52.248C89.8076 52.248 89.7685 53.4371 90.9788 54.6914C91.4285 55.1639 92.1439 55.4493 92.7904 55.9696C95.0257 57.7741 98.1013 59.926 103.176 60.7258C104.523 60.9395 104.902 60.4284 105.769 59.4563C106.687 58.4428 108.198 58.8946 107.688 59.8102C107.283 60.5948 107.012 60.6007 106.406 61.0999Z" fill="#91A6FF"/>
<path d="M88.6004 53.1731C88.6004 53.0007 88.4098 52.9355 88.3261 53.0779C88.0279 53.5803 87.7688 54.7248 87.2294 55.1972C86.5292 55.8127 85.6709 56.5739 85.9746 57.3731C86.2788 58.1729 87.1457 57.6172 87.8253 57.0762C88.1235 56.8414 88.2995 56.7016 88.4217 56.6212C88.5407 56.532 88.6091 56.3895 88.6064 56.2406L88.6004 53.1731Z" fill="#40469E"/>
<path d="M89.1871 53.0746C89.1871 52.899 89.3783 52.8365 89.4614 52.9794C89.7597 53.4818 90.0188 54.623 90.5582 55.0987C91.2584 55.7109 92.1166 56.4748 91.813 57.2719C91.5088 58.0684 90.6418 57.5182 89.9623 56.9745C89.664 56.7363 89.4853 56.5999 89.3664 56.5194C89.2469 56.4302 89.1784 56.2878 89.1811 56.1361L89.1871 53.0746Z" fill="#40469E"/>
<path d="M98.715 61.0664C98.715 61.0664 98.715 64.1105 98.527 64.6096C99.3614 64.4226 101.176 62.9215 101.587 61.8243C100.726 61.2926 98.715 61.0664 98.715 61.0664Z" fill="#40469E"/>
<path d="M98.3809 60.9102C98.3809 60.9102 98.2767 63.2371 98.0827 63.7395C98.9176 63.5492 100.396 62.6608 100.807 61.5609C99.9394 61.0319 98.3809 60.9102 98.3809 60.9102Z" fill="#F3F3F3"/>
<path d="M106.406 61.6682C105.119 62.7262 103 62.325 100.744 61.7247C100.619 61.5225 100.119 61.2996 99.6803 61.1778C99.2484 61.0707 98.7981 61.0348 98.3543 61.0734C97.9757 60.9755 97.5618 60.9842 97.2309 60.8032C94.4828 59.302 89.7982 59.3167 89.7982 59.3167C89.7982 59.3167 85.7366 59.2961 82.5062 60.8298C79.4305 62.2891 75.1717 63.2818 73.2167 61.6769C72.591 61.1033 72.1113 60.39 71.8163 59.5962C71.6941 59.2988 72.0787 59.0639 72.2482 59.3347C72.931 60.4345 73.9202 60.8983 75.2641 61.1359C78.9269 61.7867 83.403 58.7578 89.8134 58.7578C96.2233 58.7578 101.033 60.708 104.359 61.1359C105.712 61.3083 106.693 60.4345 107.375 59.3347C107.545 59.0639 107.929 59.2961 107.807 59.5962C107.512 60.3867 107.033 61.0973 106.406 61.6682Z" fill="#40469E"/>
<path d="M86.9016 62.4607C86.4215 62.128 87.3873 61.3848 89.521 61.3848C91.5146 61.3848 92.2925 62.0328 92.1854 62.3123C91.9883 62.8206 90.4716 62.1965 89.4645 62.1965C88.4569 62.1965 87.384 62.7907 86.9016 62.4607Z" fill="#40469E"/>
<path d="M83.6834 67.0627C82.6909 65.9329 84.6845 63.4004 89.0981 63.4004C93.2194 63.4004 94.8289 65.6029 94.6084 66.5543C94.1999 68.2903 90.8445 68.0821 88.758 68.0821C86.6721 68.0821 84.6785 68.1919 83.6834 67.0627Z" fill="#91A6FF"/>
<path d="M93.467 10.4609C93.2014 10.4609 93.2638 12.3574 93.2405 12.72C93.2166 13.0827 95.3264 29.8921 94.2682 35.4269C94.0808 36.4049 95.9375 33.4859 95.1624 21.7267C95.076 20.4009 94.7153 14.3668 95.6512 14.1825C96.5872 13.9982 95.4367 12.1017 95.2786 11.7867C95.1205 11.4716 93.9108 10.458 93.467 10.4609Z" fill="#D5DCFF"/>
<path d="M83.3586 10.8477C83.3586 10.8477 76.6054 19.6968 73.4406 22.8536C70.2754 26.0104 63.7731 34.2442 62.4499 36.5419C61.1266 38.8397 59.422 44.1547 64.3185 47.213C61.8719 41.2683 66.5652 39.5322 68.0884 39.8028C69.611 40.0732 69.4562 45.4503 69.4562 45.4503L71.8849 48.6162L80.825 48.004L85.7422 40.7806L83.9306 39.122C82.0799 37.6893 79.8717 36.7946 77.5441 36.5359C73.6878 36.1228 72.2543 36.2387 72.2543 36.2387C72.2543 36.2387 72.8029 32.6539 76.8406 33.2662C75.6548 31.5541 75.2463 22.4077 83.3586 10.8477Z" fill="#40469E"/>
<path d="M96.0952 17.1074C96.0952 17.1074 97.0849 23.8936 97.1387 27.9481C97.1919 32.0026 98.1279 38.2864 96.3548 39.951C94.5812 41.6154 97.4304 42.2874 97.4304 42.2874L108.337 49.0258C108.337 49.0258 111.07 48.574 112.373 47.6916C113.675 46.8087 115.785 45.3788 116.175 43.6401C114.405 45.4234 112.871 46.782 111.672 45.3016C110.474 43.8211 111.279 36.7556 106.773 33.2986C107.53 34.8829 106.592 37.5076 104.821 37.1955C103.051 36.8834 100.262 32.7011 99.5581 29.1163C98.8552 25.5315 96.0952 17.1074 96.0952 17.1074Z" fill="#40469E"/>
<path d="M73.9622 34.7341C73.9622 34.5855 74.2598 34.2139 74.8563 34.0623C75.4522 33.9107 76.6945 33.8483 77.279 34.642C77.863 35.4356 76.2746 34.642 75.8813 34.5736C74.6026 34.315 73.9622 34.8798 73.9622 34.7341Z" fill="#D5DCFF"/>
<path d="M84.3744 10.7188C83.8708 12.5349 83.4596 14.375 83.144 16.2327C82.9354 17.6774 82.2499 22.7722 82.1662 24.8827C82.0831 26.9932 81.0668 34.6592 80.7148 35.3013C80.3633 35.9433 80.4796 36.5111 80.8522 36.7043C81.2249 36.8975 82.2705 37.1175 82.8963 37.596C83.5221 38.0746 83.4477 36.4814 82.7268 35.545C82.0054 34.6087 82.1304 32.9917 82.2439 31.7254C82.3569 30.4591 82.4259 25.4831 82.974 22.1659C83.5221 18.8485 84.3744 10.7188 84.3744 10.7188Z" fill="#D5DCFF"/>
<path d="M103.334 32.6172C102.836 31.8711 103.233 35.2419 104.386 35.5897C105.539 35.9375 106.338 34.8674 105.876 34.0291C105.414 33.1909 104.037 33.6695 103.334 32.6172Z" fill="#D5DCFF"/>
<path d="M68.6783 42.7836L63.9904 38.6548C63.1441 37.8968 63.0724 36.5949 63.8323 35.7507C64.5895 34.9065 65.8916 34.8322 66.7412 35.5902H66.7439L71.3661 39.6595C70.2221 40.462 69.2981 41.5352 68.6783 42.7836Z" fill="#F3F3F3"/>
<path d="M68.0465 47.9046C68.0465 47.6697 68.0644 47.4408 68.0791 47.2119C68.3056 44.195 69.876 41.4363 72.3585 39.6977C74.0365 38.5295 76.0333 37.9052 78.0774 37.9142C83.6383 37.932 88.1295 42.4411 88.1116 47.9878V48.0204C88.1116 53.5378 83.6502 58.0199 78.1193 58.0585H78.0774C72.5253 58.0412 68.0406 53.5438 68.0492 48.0057V47.9878C68.0492 47.9699 68.0465 47.9312 68.0465 47.9046Z" fill="#F3F3F3"/>
<path d="M78.1131 56.3235C82.6375 56.3235 86.3058 52.665 86.3058 48.1518C86.3058 43.6387 82.6375 39.9805 78.1131 39.9805C73.5887 39.9805 69.921 43.6387 69.921 48.1518C69.921 52.665 73.5887 56.3235 78.1131 56.3235Z" fill="url(#paint2_linear_8617_56655)"/>
<path opacity="0.47" d="M86.2581 47.2725C85.7752 42.7871 81.7402 39.5409 77.243 40.0195C75.175 40.2394 73.2678 41.2381 71.9087 42.8137L82.7234 44.2104L74.0544 49.9741L83.6654 46.4254L80.1638 49.5375L86.2581 47.2725Z" fill="#DBD4F3"/>
<path d="M69.1372 42.2869C69.1372 42.2869 64.8367 38.4227 64.7057 38.2741C64.4254 37.8491 64.3988 37.308 64.634 36.8562C64.9083 36.4698 64.6905 37.1535 64.8931 37.5963C65.0963 38.0393 70.1742 40.8663 70.1742 40.8663L69.1372 42.2869Z" fill="#40469E"/>
<path d="M109.113 42.6919L113.687 38.661C114.509 37.9209 114.578 36.6575 113.839 35.8342C113.097 35.0078 111.828 34.9394 110.999 35.6766L106.49 39.6479C107.605 40.4296 108.508 41.4762 109.115 42.6919H109.113Z" fill="#F3F3F3"/>
<path d="M109.965 47.9046C109.965 47.6697 109.947 47.4408 109.929 47.2119C109.703 44.195 108.129 41.4363 105.646 39.6976C103.972 38.5294 101.978 37.9082 99.9335 37.9141C94.3759 37.9319 89.8846 42.441 89.9026 47.985V48.0204C89.9026 53.5377 94.3667 58.0199 99.8982 58.0585H99.9335C105.486 58.0411 109.974 53.5404 109.965 48.003V47.9046Z" fill="#F3F3F3"/>
<path d="M99.8503 56.3235C104.375 56.3235 108.042 52.665 108.042 48.1518C108.042 43.6387 104.375 39.9805 99.8503 39.9805C95.3259 39.9805 91.6576 43.6387 91.6576 48.1518C91.6576 52.665 95.3259 56.3235 99.8503 56.3235Z" fill="url(#paint3_linear_8617_56655)"/>
<path opacity="0.47" d="M107.849 46.3627C106.865 41.9572 102.488 39.181 98.0712 40.1619C95.5497 40.7209 93.4398 42.4356 92.3822 44.7844L104.741 42.9679L95.4128 49.1627L105.024 45.6135L101.528 48.7256L107.849 46.3627Z" fill="#DBD4F3"/>
<path d="M108.949 42.5012C108.949 42.5012 113.249 38.6368 113.38 38.4882C113.66 38.0631 113.687 37.5221 113.451 37.0703C113.174 36.6809 113.392 37.3676 113.19 37.8105C112.987 38.2533 107.912 41.08 107.912 41.08L108.949 42.5012Z" fill="#40469E"/>
</g>
</g>
<defs>
<filter id="filter0_d_8617_56655" x="60" y="-6.25" width="151" height="151" filterUnits="userSpaceOnUse" color-interpolation-filters="sRGB">
<feFlood flood-opacity="0" result="BackgroundImageFix"/>
<feColorMatrix in="SourceAlpha" type="matrix" values="0 0 0 0 0 0 0 0 0 0 0 0 0 0 0 0 0 0 127 0" result="hardAlpha"/>
<feOffset dy="1.75"/>
<feGaussianBlur stdDeviation="15"/>
<feComposite in2="hardAlpha" operator="out"/>
<feColorMatrix type="matrix" values="0 0 0 0 0.643137 0 0 0 0 0.207843 0 0 0 0 0.941176 0 0 0 0.6 0"/>
<feBlend mode="normal" in2="BackgroundImageFix" result="effect1_dropShadow_8617_56655"/>
<feBlend mode="normal" in="SourceGraphic" in2="effect1_dropShadow_8617_56655" result="shape"/>
</filter>
<linearGradient id="paint0_linear_8617_56655" x1="172.713" y1="41.0113" x2="213.953" y2="51.0908" gradientUnits="userSpaceOnUse">
<stop offset="0.11" stop-color="#9EAAF0"/>
<stop offset="0.77" stop-color="#373F7D" stop-opacity="0.2"/>
</linearGradient>
<linearGradient id="paint1_linear_8617_56655" x1="124.21" y1="117.812" x2="151.022" y2="68.1334" gradientUnits="userSpaceOnUse">
<stop offset="0.11" stop-color="#9EAAF0"/>
<stop offset="0.77" stop-color="#373F7D" stop-opacity="0.2"/>
</linearGradient>
<linearGradient id="paint2_linear_8617_56655" x1="77.7019" y1="57.456" x2="79.2969" y2="21.2177" gradientUnits="userSpaceOnUse">
<stop stop-color="#696DB8"/>
<stop offset="0.77" stop-color="#040B38"/>
</linearGradient>
<linearGradient id="paint3_linear_8617_56655" x1="99.394" y1="58.4102" x2="100.989" y2="22.1719" gradientUnits="userSpaceOnUse">
<stop stop-color="#696DB8"/>
<stop offset="0.77" stop-color="#040B38"/>
</linearGradient>
<clipPath id="clip0_8617_56655">
<rect width="191" height="161" fill="white" transform="matrix(-1 0 0 1 191 0)"/>
</clipPath>
<clipPath id="clip1_8617_56655">
<rect x="90" y="22" width="91" height="91" rx="45.5" fill="white"/>
</clipPath>
<clipPath id="clip2_8617_56655">
<rect width="24.5" height="47.6875" fill="white" transform="translate(123.25 43.6562)"/>
</clipPath>
</defs>
</svg>
