<svg width="308" height="260" viewBox="0 0 308 260" fill="none" xmlns="http://www.w3.org/2000/svg">
<g clip-path="url(#clip0_8617_57782)">
<g filter="url(#filter0_d_8617_57782)">
<g clip-path="url(#clip1_8617_57782)">
<rect x="134" y="65.8359" width="119.326" height="119.326" rx="59.6632" fill="#D5DCFF"/>
<g clip-path="url(#clip2_8617_57782)">
<path d="M209.724 112.828L193.66 103.53L177.6 112.828V103.53L193.662 94.2324L209.726 103.53V112.828H209.724Z" fill="#A435F0"/>
<path d="M177.6 120.635H186.014V141.131C186.014 146.426 189.958 149.007 193.662 149.007C197.398 149.007 201.312 146.357 201.312 141.059V120.635H209.726V141.619C209.726 146.497 208.197 150.261 205.137 152.842C202.076 155.421 198.253 156.677 193.591 156.677C188.934 156.677 185.108 155.423 182.12 152.842C179.13 150.263 177.6 146.639 177.6 141.827V120.635Z" fill="#BDC6F5"/>
</g>
<path d="M261.959 115.721C261.959 115.721 256.936 122.542 255.58 123.873C254.225 125.203 245.679 126.419 245.28 126.544C244.88 126.669 238.223 128.579 238.09 129.341C237.957 130.103 237.824 130.364 239.179 131.388C240.535 132.411 240.123 140.187 239.445 141.324C238.768 142.461 235.512 143.598 235.379 144.735C235.245 145.872 235.245 145.122 234.168 148.555C233.091 151.989 235.79 148.555 231.59 153.273C227.39 157.992 230.501 158.367 234.168 164.358C237.836 170.35 238.235 172.885 238.235 172.885C238.235 172.885 248.947 175.432 253.293 173.397C257.638 171.362 259.345 167.223 261.971 167.826C264.598 168.429 265.36 168.645 271.654 168.736C277.948 168.827 283.456 166.143 286.712 164.358C289.968 162.573 298.925 162.187 293.974 159.515C289.024 156.843 284.751 156.627 285.029 153.83C285.308 151.034 282.318 148.964 284.751 145.872C287.184 142.78 290.319 146.395 287.741 141.324C285.162 136.254 280.139 131.092 279.873 130.751C279.607 130.41 276.617 131.263 277.029 125.271C277.44 119.279 280.139 114.186 277.561 113.674C274.983 113.163 267.382 110.116 266.776 110.752L261.959 115.721Z" fill="#BDC6F5"/>
<path d="M135.652 92.4424H141.619C141.619 92.4424 143.689 91.6807 144.694 94.8186C145.698 97.9565 146.316 98.3885 146.316 98.3885L149.027 99.7415V103.232C149.027 103.232 150.116 107.132 150.116 107.473C149.717 108.519 149.233 109.53 148.7 110.52C148.7 110.52 139.489 103.834 135.652 98.1384C131.815 92.4424 135.652 92.4424 135.652 92.4424Z" fill="#BDC6F5"/>
<path d="M162.3 173.948C162.3 173.948 153.948 169.025 154.142 168.513C154.335 168.002 156.248 162.658 157.059 162.238C157.87 161.817 164.321 162.999 164.563 164.011C164.805 165.023 164.926 171.833 164.926 171.833C164.926 171.833 171.257 172.765 172.189 172.845C173.121 172.925 175.723 171.151 175.82 173.982C175.808 175.767 174.912 177.45 173.399 178.53C173.399 178.53 170.869 178.189 169.768 179.723C168.666 181.258 164.333 180.997 164.333 180.997C164.333 180.997 159.734 178.45 159.492 178.45C159.249 178.45 156.599 178.962 157.506 177.768C158.414 176.574 159.588 174.88 159.588 174.88L162.3 173.948Z" fill="#BDC6F5"/>
</g>
</g>
<mask id="mask0_8617_57782" style="mask-type:luminance" maskUnits="userSpaceOnUse" x="81" y="61" width="80" height="119">
<path d="M160.709 61.2461H81.1578V179.94H160.709V61.2461Z" fill="white"/>
</mask>
<g mask="url(#mask0_8617_57782)">
<path d="M135.319 163.403C135.319 163.403 133.896 152.79 140.976 151.162C148.35 149.465 159.698 145.285 160.627 141.343C161.557 137.401 154.117 129.01 159.322 124.789C158.736 122.693 156.457 120.105 156.457 120.105C156.457 120.105 151.668 125.447 155.71 136.007C160.886 149.57 141.324 148.784 138.014 149.509C132.865 150.642 133.226 157.321 133.226 157.321L135.319 163.403Z" fill="#24284A"/>
<path d="M135.205 160.138C135.383 156.874 136.45 152.218 140.94 151.182C148.314 149.485 159.661 145.31 160.591 141.368C160.963 139.784 159.985 137.478 159.019 135.016C159.657 137.067 160.232 139.639 159.536 140.658C158.74 141.775 157.645 142.642 156.376 143.158L155.944 143.713C154.133 148.393 142.71 149.707 142.705 149.707C139.198 150.029 135.787 151.251 134.983 153.855C134.179 156.459 135.205 160.143 135.205 160.143V160.138Z" fill="#ABB9FF"/>
<path d="M134.345 146.65L136.005 148.891C136.005 148.891 130.348 153.348 130.348 153.949C130.348 154.55 136.951 160.628 137.38 160.241C137.808 159.854 147.05 154.864 146.933 150.942C146.815 147.021 136.717 137.109 136.717 137.109C136.717 137.109 120.788 143.43 111.837 158.786C103.06 173.852 106.341 178.202 106.341 178.202C106.341 178.202 110.018 176.227 111.359 177.5C112.572 176.694 113.784 177.577 113.784 177.577C113.784 177.577 115.975 176.412 116.997 177.686C118.02 178.959 123.058 178.895 123.058 178.895C123.058 178.895 124.546 176.327 126.445 177.544C127.439 176.775 128.986 176.936 129.193 177.492C129.778 176.831 131.561 176.831 132.426 178.338C134.006 178.258 139.966 177.093 143.09 176.142C142.742 174.421 139.57 162.885 140.075 158.331C138.167 159.886 137.364 159.701 137.364 159.701C137.364 159.701 131.112 154.981 131.059 153.885C131.007 152.789 136.313 148.733 136.313 148.733L134.345 146.65Z" fill="#2F2E5E"/>
<path d="M105.694 145.943L104.838 148.413C104.838 148.413 110.45 153.1 110.45 153.701C110.45 154.302 103.864 161.017 103.435 160.63C103.006 160.243 94.3994 154.866 94.5166 150.956C94.6337 147.047 100.752 135.592 100.752 135.592C100.752 135.592 111.848 137.607 121.243 147.397C111.335 158.683 105.145 174.769 106.579 177.454C103.775 177.136 99.35 176.502 98.4403 176.244C98.7917 174.524 101.548 163.137 101.043 158.582C101.888 159.272 102.433 159.727 102.78 160.021C103.108 160.299 103.593 160.299 103.92 160.021C105.577 158.659 110.195 154.781 110.228 153.895C110.268 152.802 104.846 148.421 104.846 148.421L105.694 145.943Z" fill="#2F2E5E"/>
<path opacity="0.38" d="M116.512 147.801C116.512 147.801 100.885 142.964 98.5577 143.311C96.2301 143.658 95.2843 147.503 94.6906 149.257C94.0763 151.106 94.6096 153.215 97.1155 155.27C99.6206 157.326 101.964 158.18 102.772 158.091C103.581 158.003 107.218 154.516 107.452 153.888C107.686 153.259 100.845 150.219 100.687 148.434C100.53 146.648 102.708 146.821 103.864 147.225C104.36 146.507 105.909 145.5 105.909 145.5L105.379 147.556L107.897 149.873L111.291 153.001C111.291 153.001 110.35 154.432 110.236 155.507C110.123 156.584 104.058 164.275 103.864 164.811C103.67 165.347 101.136 167.495 101.136 167.495L98.9333 176.003L104.838 176.169C104.838 176.169 109.982 161.054 113.687 155.613C117.393 150.171 117.482 149.796 117.482 149.796L116.512 147.801Z" fill="#353F73"/>
<path opacity="0.38" d="M121.498 152.23C121.498 152.23 115.413 156.51 111.347 164.974C108.741 170.408 108.006 174.285 107.796 176.099C107.739 176.562 108.066 176.982 108.527 177.039C108.615 177.05 108.709 177.046 108.797 177.03C111.04 176.587 116.071 175.672 117.469 176.155C118.468 176.49 119.429 176.925 120.339 177.454C120.339 177.454 122.4 177.764 122.67 177.454C122.941 177.143 126.259 174.547 127.96 175.083C129.661 175.619 132.356 176.155 132.356 176.155C132.356 176.155 136.571 174.906 135.314 173.652C134.058 172.399 129.503 160.146 129.253 158.268C129.003 156.389 128.849 152.451 129.253 152.222C129.657 151.992 129.023 148.328 127.496 148.594C125.968 148.86 121.498 152.23 121.498 152.23Z" fill="#353F73"/>
<path opacity="0.38" d="M137.198 147.334C137.198 147.334 138.321 147.688 138.43 148.293C138.539 148.897 135.068 151.493 134.353 151.892C133.637 152.292 132.199 153.573 132.332 153.661C132.466 153.751 136.459 157.531 137.153 157.886C137.849 158.24 139.372 156.858 140.091 155.653C140.81 154.448 142.625 151.715 142.112 149.567C141.598 147.418 139.736 146.125 138.907 146.035C138.079 145.947 135.343 146.169 135.206 146.439C135.068 146.708 137.198 147.334 137.198 147.334Z" fill="#353F73"/>
<path d="M116.75 163.091C117.395 163.091 117.918 162.569 117.918 161.927C117.918 161.283 117.395 160.762 116.75 160.762C116.105 160.762 115.582 161.283 115.582 161.927C115.582 162.569 116.105 163.091 116.75 163.091Z" fill="#353F6E"/>
<path d="M126.853 163.101C127.498 163.101 128.021 162.579 128.021 161.936C128.021 161.293 127.498 160.771 126.853 160.771C126.208 160.771 125.685 161.293 125.685 161.936C125.685 162.579 126.208 163.101 126.853 163.101Z" fill="#353F6E"/>
<path d="M115.91 171.25C116.555 171.25 117.078 170.728 117.078 170.085C117.078 169.442 116.555 168.92 115.91 168.92C115.265 168.92 114.742 169.442 114.742 170.085C114.742 170.728 115.265 171.25 115.91 171.25Z" fill="#353F6E"/>
<path d="M127.391 171.25C128.036 171.25 128.558 170.728 128.558 170.085C128.558 169.442 128.036 168.92 127.391 168.92C126.745 168.92 126.222 169.442 126.222 170.085C126.222 170.728 126.745 171.25 127.391 171.25Z" fill="#353F6E"/>
<path d="M116.431 162.791C117.076 162.791 117.599 162.269 117.599 161.626C117.599 160.982 117.076 160.461 116.431 160.461C115.786 160.461 115.263 160.982 115.263 161.626C115.263 162.269 115.786 162.791 116.431 162.791Z" fill="#7C8BD1"/>
<path d="M126.534 162.798C127.178 162.798 127.701 162.276 127.701 161.634C127.701 160.99 127.178 160.469 126.534 160.469C125.889 160.469 125.366 160.99 125.366 161.634C125.366 162.276 125.889 162.798 126.534 162.798Z" fill="#7C8BD1"/>
<path d="M115.59 170.948C116.236 170.948 116.759 170.426 116.759 169.782C116.759 169.139 116.236 168.617 115.59 168.617C114.946 168.617 114.423 169.139 114.423 169.782C114.423 170.426 114.946 170.948 115.59 170.948Z" fill="#7C8BD1"/>
<path d="M127.071 170.948C127.716 170.948 128.239 170.426 128.239 169.782C128.239 169.139 127.716 168.617 127.071 168.617C126.426 168.617 125.903 169.139 125.903 169.782C125.903 170.426 126.426 170.948 127.071 170.948Z" fill="#7C8BD1"/>
<path d="M142.952 143.965C142.952 143.965 147.336 149.112 147.037 151.244C146.762 153.183 145.183 155.436 140.168 158.749C141.626 166.517 142.318 171.986 143.11 176.158C140.556 176.98 137.925 177.556 135.262 177.879L139.048 174.803L139.856 173.554C140.277 172.514 140.418 171.382 140.261 170.269C139.962 168.584 140.054 169.132 140.054 169.132C140.054 169.132 139.453 164.179 139.028 164.529C138.604 164.88 137.816 162.837 137.856 162.325C137.764 161.615 137.598 160.917 137.364 160.244L132.324 162.015C132.324 162.015 141.315 155.23 143.368 150.954C144.799 147.947 142.952 143.965 142.952 143.965Z" fill="#ABB9FF"/>
<path d="M131.157 176.89C130.531 176.777 129.888 176.923 129.37 177.293C128.934 176.882 128.353 176.656 127.754 176.673C127.132 176.661 126.529 176.906 126.097 177.35C125.564 176.947 124.86 176.834 124.226 177.052C123.212 177.346 122.573 178.2 122.792 178.958C123.01 179.716 124.004 180.095 125.031 179.801C125.419 179.692 125.77 179.482 126.053 179.196C126.489 179.672 127.108 179.933 127.754 179.917C128.409 179.933 129.035 179.664 129.471 179.176C129.843 179.47 130.292 179.656 130.76 179.716C131.88 179.865 132.878 179.353 132.983 178.567C133.088 177.781 132.272 177.044 131.157 176.89Z" fill="#7E92EB"/>
<path d="M115.777 176.897C115.125 176.781 114.455 176.954 113.942 177.369C113.509 176.925 112.911 176.68 112.293 176.696C111.767 176.688 111.258 176.858 110.842 177.18C110.313 176.833 109.654 176.744 109.052 176.942C108.046 177.232 107.408 178.083 107.626 178.84C107.844 179.598 108.838 179.969 109.852 179.679C110.147 179.598 110.422 179.461 110.66 179.276C111.093 179.711 111.683 179.949 112.297 179.937C112.972 179.952 113.618 179.655 114.043 179.13C114.426 179.457 114.896 179.663 115.397 179.723C116.512 179.872 117.502 179.36 117.607 178.582C117.712 177.804 116.892 177.046 115.777 176.897Z" fill="#7E92EB"/>
<path d="M121.18 125.086V125.218C118.61 124.9 97.1074 122.8 84.3461 140.027C95.3329 139.136 113.037 143.703 118.565 151.982C126.732 142.284 147.66 139.136 158.66 140.027C145.078 121.68 121.18 125.086 121.18 125.086Z" fill="#C5CCEB"/>
<path d="M160.131 103.104C159.621 94.2126 139.78 74.9421 136.571 71.8989C133.363 68.8558 127.98 61.109 126.412 61.2459C124.739 61.379 127.362 76.9937 127.56 88.1545C127.758 99.3154 125.285 103.169 124.432 102.955C123.579 102.741 120.662 102.334 120.662 102.334C120.662 102.334 117.745 102.737 116.892 102.955C116.039 103.173 113.562 99.3275 113.764 88.1545C113.966 76.9816 116.593 61.379 114.916 61.2459C113.348 61.121 107.961 68.8719 104.753 71.911C101.544 74.9501 81.7193 94.2247 81.1978 103.116C80.7934 110.158 83.5254 112.185 89.5138 115.011C95.5029 117.836 97.3738 118.69 96.9452 120.25C96.5172 121.81 92.6619 122.439 92.4476 126.228C92.234 130.017 93.151 136.055 103.658 140.614C114.164 145.172 117.615 146.458 120.662 146.458C123.709 146.458 127.16 145.172 137.666 140.614C148.173 136.055 148.658 128.678 148.444 124.894C148.23 121.109 144.807 121.802 144.379 120.255C143.95 118.707 145.825 117.836 151.814 115.015C157.803 112.193 160.531 110.146 160.131 103.104Z" fill="#7E92EB"/>
<path d="M92.7266 124.983C92.9365 121.355 96.3307 122.02 96.7675 120.549C96.7756 120.516 96.7837 120.48 96.7874 120.448L104.009 118.513L118.055 117.062L119.195 122.439C119.195 122.439 110.915 129.521 104.449 129.291C97.9836 129.062 95.9919 124.362 93.8617 127.107C92.6817 128.63 95.7694 135.676 101.54 137.449C107.31 139.223 111.925 141.077 114.924 141.907C118.293 142.742 121.805 142.866 125.228 142.278C128.598 141.617 140.883 138.127 141.138 138.05C139.869 138.836 138.535 139.509 137.149 140.065C126.727 144.434 123.304 145.668 120.282 145.668C117.259 145.668 113.836 144.434 103.415 140.065C92.9932 135.696 92.5123 128.614 92.7266 124.983Z" fill="#40469E"/>
<path d="M142.249 123.343C142.249 123.343 139.825 129.208 128.106 128.2C116.386 127.192 117.457 119.796 117.599 113.932C117.74 108.067 125.39 103.049 125.39 103.049L142.249 123.343Z" fill="#40469E"/>
<path d="M144.419 131.38C142.673 132.811 139.8 132.271 136.741 131.453C136.571 131.179 135.893 130.876 135.298 130.711C134.705 130.566 134.094 130.522 133.484 130.574C132.971 130.441 133.629 131.622 133.128 131.517C128.587 130.546 121.692 130.264 121.692 130.264C118.662 130.086 115.631 130.562 112.802 131.659C108.482 133.271 102.041 133.557 99.39 131.384C98.582 130.707 97.7939 130.401 97.3335 129.288C97.1678 128.885 97.8064 125.56 99.4593 127.756C100.522 129.159 100.877 130.929 102.724 131.005C109.509 131.288 112.64 128.071 115.162 125.141C116.092 124.056 117.522 123.303 118.225 122.363C119.098 121.207 119.587 119.381 120.5 119.377C121.911 119.377 121.858 120.989 123.499 122.69C124.109 123.331 125.079 123.718 125.956 124.423C128.987 126.87 133.157 129.788 140.038 130.873C141.865 131.162 142.378 130.469 143.554 129.151C144.799 127.777 146.848 128.39 146.156 129.631C145.607 130.695 145.239 130.703 144.419 131.38Z" fill="#91A6FF"/>
<path d="M120.274 120.631C120.274 120.397 120.016 120.309 119.902 120.502C119.498 121.183 119.147 122.735 118.415 123.376C117.466 124.21 116.302 125.243 116.714 126.326C117.126 127.411 118.302 126.657 119.223 125.924C119.628 125.605 119.866 125.416 120.032 125.307C120.193 125.186 120.286 124.993 120.282 124.791L120.274 120.631Z" fill="#40469E"/>
<path d="M121.07 120.498C121.07 120.26 121.329 120.175 121.442 120.369C121.846 121.05 122.197 122.598 122.929 123.243C123.878 124.073 125.042 125.109 124.63 126.189C124.218 127.269 123.042 126.523 122.121 125.786C121.716 125.463 121.474 125.278 121.313 125.169C121.151 125.048 121.058 124.855 121.062 124.649L121.07 120.498Z" fill="#40469E"/>
<path d="M133.989 131.334C133.989 131.334 133.989 135.462 133.734 136.139C134.866 135.885 137.327 133.849 137.884 132.362C136.717 131.641 133.989 131.334 133.989 131.334Z" fill="#40469E"/>
<path d="M133.536 131.121C133.536 131.121 133.395 134.276 133.132 134.958C134.264 134.7 136.268 133.495 136.826 132.004C135.65 131.286 133.536 131.121 133.536 131.121Z" fill="#F3F3F3"/>
<path d="M144.419 132.15C142.673 133.584 139.8 133.04 136.741 132.226C136.571 131.952 135.893 131.65 135.298 131.485C134.713 131.339 134.102 131.291 133.5 131.343C132.987 131.21 132.426 131.222 131.977 130.977C128.251 128.941 121.899 128.961 121.899 128.961C121.899 128.961 116.391 128.933 112.011 131.013C107.84 132.991 102.065 134.338 99.4144 132.161C98.5658 131.384 97.9154 130.416 97.5155 129.34C97.3498 128.937 97.8712 128.618 98.1011 128.985C99.0269 130.477 100.368 131.106 102.191 131.428C107.157 132.31 113.227 128.203 121.919 128.203C130.611 128.203 137.133 130.848 141.643 131.428C143.477 131.661 144.807 130.477 145.732 128.985C145.963 128.618 146.484 128.933 146.318 129.34C145.918 130.412 145.268 131.375 144.419 132.15Z" fill="#40469E"/>
<path d="M117.971 133.225C117.319 132.773 118.629 131.766 121.522 131.766C124.226 131.766 125.28 132.644 125.135 133.023C124.868 133.713 122.811 132.866 121.446 132.866C120.079 132.866 118.625 133.672 117.971 133.225Z" fill="#40469E"/>
<path d="M113.607 139.464C112.261 137.932 114.964 134.498 120.949 134.498C126.538 134.498 128.72 137.485 128.421 138.775C127.867 141.129 123.317 140.846 120.488 140.846C117.66 140.846 114.956 140.995 113.607 139.464Z" fill="#91A6FF"/>
<path d="M126.873 62.7149C126.513 62.7149 126.598 65.2864 126.566 65.7781C126.534 66.2699 129.395 89.0632 127.96 96.5682C127.706 97.8943 130.223 93.9362 129.172 77.991C129.055 76.1933 128.566 68.0111 129.835 67.7612C131.104 67.5113 129.544 64.9397 129.33 64.5125C129.115 64.0853 127.475 62.7108 126.873 62.7149Z" fill="#C0C8CA"/>
<path d="M113.166 63.2383C113.166 63.2383 104.009 75.2375 99.7178 79.5181C95.4257 83.7987 86.6089 94.9635 84.8145 98.0792C83.0202 101.195 80.7088 108.402 87.3484 112.549C84.0308 104.488 90.3949 102.134 92.4603 102.501C94.5249 102.868 94.315 110.159 94.315 110.159L97.6082 114.452L109.731 113.622L116.398 103.827L113.942 101.578C111.432 99.635 108.438 98.4218 105.282 98.0711C100.053 97.5109 98.1091 97.6681 98.1091 97.6681C98.1091 97.6681 98.8531 92.8071 104.328 93.6374C102.72 91.3158 102.166 78.9135 113.166 63.2383Z" fill="#40469E"/>
<path d="M130.437 71.7266C130.437 71.7266 131.779 80.9285 131.852 86.4263C131.924 91.9241 133.193 100.445 130.789 102.702C128.384 104.959 132.247 105.87 132.247 105.87L147.037 115.007C147.037 115.007 150.743 114.395 152.509 113.198C154.275 112.001 157.136 110.062 157.665 107.704C155.265 110.122 153.184 111.965 151.559 109.957C149.935 107.95 151.026 98.3691 144.916 93.6815C145.943 95.8298 144.67 99.3888 142.269 98.9657C139.869 98.5424 136.086 92.8713 135.133 88.0103C134.179 83.1494 130.437 71.7266 130.437 71.7266Z" fill="#40469E"/>
<path d="M100.425 95.6277C100.425 95.4261 100.829 94.9223 101.637 94.7168C102.445 94.5111 104.13 94.4265 104.923 95.5027C105.714 96.5789 103.561 95.5027 103.027 95.41C101.293 95.0594 100.425 95.8252 100.425 95.6277Z" fill="#C0C8CA"/>
<path d="M114.544 63.0645C113.861 65.5272 113.303 68.0222 112.875 70.5413C112.593 72.5002 111.663 79.4087 111.55 82.2705C111.437 85.1322 110.059 95.5273 109.581 96.3979C109.105 97.2685 109.262 98.0384 109.768 98.3004C110.273 98.5623 111.691 98.8606 112.54 99.5095C113.388 100.159 113.287 97.9981 112.31 96.7284C111.332 95.4587 111.501 93.2661 111.655 91.549C111.808 89.832 111.902 83.0847 112.645 78.5865C113.388 74.0883 114.544 63.0645 114.544 63.0645Z" fill="#C0C8CA"/>
<path d="M140.253 92.7571C139.578 91.7454 140.116 96.3161 141.679 96.7876C143.243 97.2593 144.326 95.8082 143.7 94.6716C143.074 93.535 141.206 94.1839 140.253 92.7571Z" fill="#C0C8CA"/>
<path d="M93.2602 106.542L86.9035 100.944C85.7559 99.9161 85.6586 98.1507 86.6891 97.006C87.7159 95.8613 89.4815 95.7605 90.6335 96.7883H90.6372L96.9048 102.306C95.3535 103.394 94.1006 104.85 93.2602 106.542Z" fill="#F3F3F3"/>
<path d="M92.4036 113.488C92.4036 113.17 92.4279 112.86 92.4478 112.549C92.7549 108.458 94.8844 104.718 98.2505 102.36C100.526 100.776 103.234 99.9294 106.005 99.9415C113.546 99.9657 119.636 106.08 119.611 113.601V113.645C119.611 121.127 113.562 127.205 106.062 127.257H106.005C98.4767 127.233 92.3955 121.135 92.4073 113.626V113.601C92.4073 113.577 92.4036 113.525 92.4036 113.488Z" fill="#F3F3F3"/>
<path d="M106.054 124.903C112.189 124.903 117.163 119.942 117.163 113.822C117.163 107.703 112.189 102.742 106.054 102.742C99.9187 102.742 94.9453 107.703 94.9453 113.822C94.9453 119.942 99.9187 124.903 106.054 124.903Z" fill="url(#paint0_linear_8617_57782)"/>
<path opacity="0.47" d="M117.098 112.629C116.443 106.547 110.972 102.145 104.874 102.794C102.07 103.092 99.4834 104.446 97.6405 106.583L112.305 108.477L100.55 116.292L113.582 111.48L108.834 115.7L117.098 112.629Z" fill="#DBD4F3"/>
<path d="M93.8826 105.868C93.8826 105.868 88.0511 100.628 87.8736 100.427C87.4935 99.8505 87.4574 99.1169 87.7763 98.5042C88.1483 97.9803 87.8529 98.9073 88.1277 99.5078C88.4032 100.108 95.2887 103.942 95.2887 103.942L93.8826 105.868Z" fill="#40469E"/>
<path d="M148.089 106.42L154.291 100.954C155.407 99.9504 155.499 98.2373 154.498 97.1209C153.491 96.0003 151.77 95.9076 150.647 96.9072L144.532 102.292C146.044 103.352 147.268 104.771 148.092 106.42H148.089Z" fill="#F3F3F3"/>
<path d="M149.244 113.488C149.244 113.17 149.22 112.859 149.195 112.549C148.888 108.458 146.754 104.717 143.388 102.36C141.117 100.776 138.414 99.9334 135.642 99.9415C128.106 99.9656 122.016 106.08 122.04 113.597V113.645C122.04 121.127 128.093 127.205 135.594 127.257H135.642C143.17 127.233 149.256 121.13 149.244 113.622V113.488Z" fill="#F3F3F3"/>
<path d="M135.529 124.903C141.664 124.903 146.637 119.942 146.637 113.822C146.637 107.703 141.664 102.742 135.529 102.742C129.394 102.742 124.42 107.703 124.42 113.822C124.42 119.942 129.394 124.903 135.529 124.903Z" fill="url(#paint1_linear_8617_57782)"/>
<path opacity="0.47" d="M146.375 111.394C145.041 105.42 139.105 101.656 133.116 102.986C129.697 103.744 126.836 106.069 125.402 109.254L142.16 106.791L129.512 115.191L142.544 110.378L137.804 114.598L146.375 111.394Z" fill="#DBD4F3"/>
<path d="M147.866 106.159C147.866 106.159 153.697 100.919 153.875 100.718C154.255 100.141 154.291 99.4076 153.972 98.7949C153.596 98.2669 153.891 99.198 153.617 99.7985C153.342 100.399 146.46 104.232 146.46 104.232L147.866 106.159Z" fill="#40469E"/>
</g>
<path d="M302.206 243.228C303.751 243.228 305 244.402 305 245.851C305 247.299 303.751 248.475 302.206 248.475C300.661 248.475 299.413 247.299 299.413 245.851C299.413 244.402 300.661 243.228 302.206 243.228Z" fill="#C0C8CA"/>
<path d="M272.596 162.946C273.218 162.946 273.713 163.416 273.713 163.996C273.713 164.575 273.218 165.045 272.596 165.045C271.973 165.045 271.479 164.575 271.479 163.996C271.479 163.416 271.973 162.946 272.596 162.946Z" fill="#C0C8CA"/>
<path d="M166.443 228.534C167.066 228.534 167.561 229.004 167.561 229.583C167.561 230.163 167.066 230.633 166.443 230.633C165.821 230.633 165.326 230.163 165.326 229.583C165.326 229.004 165.821 228.534 166.443 228.534Z" fill="#C0C8CA"/>
<path d="M49.1173 181.311C49.7397 181.311 50.2348 181.782 50.2348 182.361C50.2348 182.94 49.7397 183.41 49.1173 183.41C48.4949 183.41 48 182.94 48 182.361C48 181.782 48.4949 181.311 49.1173 181.311Z" fill="#C0C8CA"/>
<path d="M116.161 163.995C116.783 163.995 117.278 164.465 117.278 165.044C117.278 165.624 116.783 166.094 116.161 166.094C115.538 166.094 115.043 165.624 115.043 165.044C115.043 164.465 115.538 163.995 116.161 163.995Z" fill="#C0C8CA"/>
<path d="M244.724 84.9972C246.139 84.9972 247.282 86.072 247.282 87.399C247.282 88.7247 246.139 89.8008 244.724 89.8008C243.31 89.8008 242.167 88.7247 242.167 87.399C242.167 86.072 243.31 84.9972 244.724 84.9972Z" fill="#C0C8CA"/>
<path d="M217.616 11.5004C218.185 11.5004 218.639 11.931 218.639 12.4612C218.639 12.9914 218.185 13.4219 217.616 13.4219C217.046 13.4219 216.593 12.9914 216.593 12.4612C216.593 11.931 217.046 11.5004 217.616 11.5004Z" fill="#C0C8CA"/>
<path d="M120.434 71.5454C121.004 71.5454 121.457 71.9759 121.457 72.5061C121.457 73.0363 121.004 73.4668 120.434 73.4668C119.864 73.4668 119.411 73.0363 119.411 72.5061C119.411 71.9759 119.864 71.5454 120.434 71.5454Z" fill="#C0C8CA"/>
<path d="M13.0229 28.3149C13.5927 28.3149 14.0459 28.7453 14.0459 29.2756C14.0459 29.8059 13.5927 30.2363 13.0229 30.2363C12.4531 30.2363 12 29.8059 12 29.2756C12 28.7453 12.4531 28.3149 13.0229 28.3149Z" fill="#C0C8CA"/>
<path d="M74.4006 12.4614C74.9703 12.4614 75.4236 12.8919 75.4236 13.4221C75.4236 13.9524 74.9703 14.3828 74.4006 14.3828C73.8308 14.3828 73.3777 13.9524 73.3777 13.4221C73.3777 12.8919 73.8308 12.4614 74.4006 12.4614Z" fill="#C0C8CA"/>
<path d="M37.3183 103.248C38.0304 103.248 38.597 103.679 38.597 104.209C38.597 104.739 38.0304 105.17 37.3183 105.17C36.6061 105.17 36.0396 104.739 36.0396 104.209C36.0396 103.679 36.6061 103.248 37.3183 103.248Z" fill="#C0C8CA"/>
<path fill-rule="evenodd" clip-rule="evenodd" d="M66.9254 224.508C68.0129 224.508 69.0109 224.687 69.9193 225.045C70.8277 225.403 71.6157 225.905 72.2833 226.552C72.9509 227.199 73.4704 227.963 73.8421 228.844C74.2137 229.724 74.3996 230.688 74.3996 231.734C74.3996 232.78 74.2137 233.74 73.8421 234.614C73.4704 235.488 72.9473 236.252 72.273 236.906C71.5985 237.56 70.8002 238.066 69.8779 238.424C68.9557 238.781 67.9508 238.96 66.8635 238.96H61V224.508H66.9254ZM66.9875 236.875C67.6895 236.875 68.3397 236.751 68.9385 236.504C69.5373 236.256 70.0602 235.901 70.5076 235.44C70.955 234.979 71.3061 234.435 71.5607 233.809C71.8153 233.183 71.9426 232.498 71.9426 231.755C71.9426 230.998 71.8118 230.306 71.5502 229.68C71.2887 229.054 70.9308 228.506 70.4768 228.038C70.0225 227.57 69.4891 227.213 68.8766 226.965C68.264 226.717 67.5999 226.593 66.8843 226.593H63.4364V236.875H66.9875ZM77.001 224.508H79.4371V238.96H77.001V224.508ZM95.2523 237.226C94.7705 237.598 94.2166 237.928 93.5903 238.217C92.964 238.506 92.3136 238.73 91.6393 238.888C90.9647 239.046 90.2971 239.126 89.6365 239.126C88.563 239.126 87.5684 238.936 86.6531 238.558C85.7378 238.179 84.9326 237.653 84.2375 236.978C83.5424 236.304 83.0021 235.516 82.6168 234.614C82.2313 233.713 82.0386 232.746 82.0386 231.713C82.0386 230.681 82.2349 229.721 82.6271 228.833C83.0193 227.945 83.5665 227.164 84.2685 226.49C84.9705 225.816 85.7929 225.292 86.7357 224.921C87.6785 224.549 88.6937 224.363 89.781 224.363C90.4693 224.363 91.1472 224.446 91.8148 224.611C92.4822 224.776 93.1188 225.01 93.7245 225.313C94.3301 225.616 94.867 225.981 95.3349 226.407L93.9517 228.08C93.4011 227.557 92.7576 227.147 92.0212 226.851C91.2848 226.555 90.5381 226.407 89.781 226.407C89.0378 226.407 88.3495 226.545 87.7165 226.82C87.0833 227.096 86.5258 227.474 86.044 227.956C85.5622 228.438 85.1872 228.999 84.9187 229.638C84.6505 230.279 84.5162 230.97 84.5162 231.713C84.5162 232.457 84.6505 233.152 84.9187 233.799C85.1872 234.446 85.5622 235.014 86.044 235.502C86.5258 235.991 87.0866 236.373 87.7268 236.648C88.3667 236.923 89.0584 237.061 89.8017 237.061C90.4763 237.061 91.1747 236.923 91.8973 236.648C92.3331 236.482 92.7425 236.281 93.1257 236.045V231.899H95.2523V237.226ZM98.7002 224.508H101.529L106.525 234.315L111.48 224.508H114.309V238.96H112.058L112.038 227.915L107.289 237.453H105.741L100.951 227.915V238.96H98.7002V224.508ZM127.963 236.912L127.419 235.616H120.167L118.769 238.96H116.229L122.609 224.508H125.107L130.53 236.912C131.321 238.723 130.269 240.981 129.273 242.079C129.242 240.85 128.975 239.318 127.963 236.912ZM126.552 233.551L123.786 226.965L121.031 233.551H126.552Z" fill="black"/>
<path d="M148.32 240.1L163.436 224.984" stroke="#2C2E33"/>
<path d="M163.436 240.1L148.32 224.984" stroke="#2C2E33"/>
<g clip-path="url(#clip3_8617_57782)">
<path d="M190.611 224.134L183.999 220.317L177.388 224.134V220.317L184 216.5L190.612 220.317V224.134H190.611Z" fill="#A435F0"/>
<path d="M177.388 227.34H180.852V235.754C180.852 237.928 182.475 238.987 184 238.987C185.537 238.987 187.148 237.899 187.148 235.725V227.34H190.612V235.954C190.612 237.957 189.982 239.502 188.723 240.562C187.463 241.621 185.889 242.136 183.97 242.136C182.053 242.136 180.479 241.621 179.249 240.562C178.018 239.503 177.388 238.015 177.388 236.04V227.34ZM220.552 237.797C219.504 238.73 218.309 239.188 216.948 239.188C214.463 239.188 212.797 237.772 212.609 235.58H223.799C223.799 235.58 223.874 234.873 223.874 234.209C223.874 232.148 223.215 230.43 221.869 229.028C220.554 227.626 218.837 226.939 216.747 226.939C214.544 226.939 212.74 227.626 211.309 229.028C209.906 230.43 209.191 232.261 209.191 234.552V234.665C209.191 236.926 209.906 238.729 211.309 240.075C212.711 241.42 214.571 242.107 216.833 242.107C219.462 242.107 221.554 241.07 223.124 239.282L220.552 237.797ZM213.97 230.773C214.742 230.172 215.687 229.858 216.746 229.858C217.747 229.858 218.577 230.172 219.294 230.803C219.977 231.377 220.346 232.082 220.378 232.892H212.698C212.809 232.054 213.232 231.349 213.971 230.774L213.97 230.773ZM255.413 244.051C254.008 247.368 252.538 248.497 250.284 248.497H248.722V245.427H249.985C250.76 245.427 251.481 245.135 252.168 243.551L252.855 241.964L246.93 227.34H250.451L254.658 237.872L258.981 227.34H262.5L255.414 244.051L255.413 244.051ZM204.093 221.816V228.646C202.958 227.629 201.193 227.024 199.486 227.024C197.453 227.024 195.737 227.739 194.334 229.198C192.96 230.629 192.273 232.404 192.273 234.55C192.273 236.698 192.96 238.472 194.334 239.931C195.737 241.362 197.454 242.079 199.486 242.079C201.829 242.079 203.31 241.157 204.093 240.436V241.764H207.528V221.817H204.093V221.816ZM203.063 237.7C202.233 238.53 201.174 238.96 199.943 238.96C198.712 238.96 197.711 238.53 196.881 237.7C196.081 236.87 195.679 235.811 195.679 234.552C195.679 233.292 196.08 232.233 196.881 231.403C197.711 230.573 198.712 230.144 199.943 230.144C201.174 230.144 202.233 230.573 203.063 231.403C203.921 232.233 204.352 233.292 204.352 234.552C204.352 235.811 203.921 236.87 203.063 237.7ZM241.591 227.053C238.982 227.053 237.626 228.136 236.697 229.178C236.325 228.47 235.279 227.053 232.834 227.053C230.767 227.053 229.55 228.098 228.941 228.841V227.341H225.537V241.765H228.941V233.465C228.941 231.519 230.144 230.117 231.746 230.117C233.379 230.117 234.322 231.348 234.322 233.322V241.764H237.728V233.464C237.728 231.49 238.901 230.116 240.589 230.116C242.221 230.116 243.165 231.347 243.165 233.32V241.764H246.6V232.834C246.6 229.074 244.578 227.054 241.591 227.054V227.053Z" fill="black"/>
</g>
</g>
<defs>
<filter id="filter0_d_8617_57782" x="68.6" y="2.73068" width="250.126" height="250.126" filterUnits="userSpaceOnUse" color-interpolation-filters="sRGB">
<feFlood flood-opacity="0" result="BackgroundImageFix"/>
<feColorMatrix in="SourceAlpha" type="matrix" values="0 0 0 0 0 0 0 0 0 0 0 0 0 0 0 0 0 0 127 0" result="hardAlpha"/>
<feOffset dy="2.29474"/>
<feGaussianBlur stdDeviation="32.7"/>
<feComposite in2="hardAlpha" operator="out"/>
<feColorMatrix type="matrix" values="0 0 0 0 0.643137 0 0 0 0 0.207843 0 0 0 0 0.941176 0 0 0 1 0"/>
<feBlend mode="normal" in2="BackgroundImageFix" result="effect1_dropShadow_8617_57782"/>
<feBlend mode="normal" in="SourceGraphic" in2="effect1_dropShadow_8617_57782" result="shape"/>
</filter>
<linearGradient id="paint0_linear_8617_57782" x1="105.496" y1="126.439" x2="107.659" y2="77.3003" gradientUnits="userSpaceOnUse">
<stop stop-color="#696DB8"/>
<stop offset="0.77" stop-color="#040B38"/>
</linearGradient>
<linearGradient id="paint1_linear_8617_57782" x1="134.91" y1="127.733" x2="137.073" y2="78.5941" gradientUnits="userSpaceOnUse">
<stop stop-color="#696DB8"/>
<stop offset="0.77" stop-color="#040B38"/>
</linearGradient>
<clipPath id="clip0_8617_57782">
<rect width="308" height="259" fill="white" transform="translate(0 0.5)"/>
</clipPath>
<clipPath id="clip1_8617_57782">
<rect x="134" y="65.8359" width="119.326" height="119.326" rx="59.6632" fill="white"/>
</clipPath>
<clipPath id="clip2_8617_57782">
<rect width="32.1263" height="62.5316" fill="white" transform="translate(177.6 94.2324)"/>
</clipPath>
<clipPath id="clip3_8617_57782">
<rect width="85.1119" height="32.0832" fill="white" transform="translate(177.388 216.5)"/>
</clipPath>
</defs>
</svg>
