<svg width="308" height="259" viewBox="0 0 308 259" fill="none" xmlns="http://www.w3.org/2000/svg">
<g clip-path="url(#clip0_8617_57146)">
<g filter="url(#filter0_d_8617_57146)">
<g clip-path="url(#clip1_8617_57146)">
<rect x="134" y="65.3359" width="119.326" height="119.326" rx="59.6632" fill="#D5DCFF"/>
<g clip-path="url(#clip2_8617_57146)">
<path d="M209.724 112.328L193.66 103.03L177.6 112.328V103.03L193.662 93.7324L209.726 103.03V112.328H209.724Z" fill="#A435F0"/>
<path d="M177.6 120.135H186.014V140.631C186.014 145.926 189.958 148.507 193.662 148.507C197.398 148.507 201.312 145.857 201.312 140.559V120.135H209.726V141.119C209.726 145.997 208.197 149.761 205.137 152.342C202.076 154.921 198.253 156.177 193.591 156.177C188.934 156.177 185.108 154.923 182.12 152.342C179.13 149.763 177.6 146.139 177.6 141.327V120.135Z" fill="#BDC6F5"/>
</g>
<path d="M261.959 115.221C261.959 115.221 256.936 122.042 255.58 123.373C254.225 124.703 245.679 125.919 245.28 126.044C244.88 126.169 238.223 128.079 238.09 128.841C237.957 129.603 237.824 129.864 239.179 130.888C240.535 131.911 240.123 139.687 239.445 140.824C238.768 141.961 235.512 143.098 235.379 144.235C235.245 145.372 235.245 144.622 234.168 148.055C233.091 151.489 235.79 148.055 231.59 152.773C227.39 157.492 230.501 157.867 234.168 163.858C237.836 169.85 238.235 172.385 238.235 172.385C238.235 172.385 248.947 174.932 253.293 172.897C257.638 170.862 259.345 166.723 261.971 167.326C264.598 167.929 265.36 168.145 271.654 168.236C277.948 168.327 283.456 165.643 286.712 163.858C289.968 162.073 298.925 161.687 293.974 159.015C289.024 156.343 284.751 156.127 285.029 153.33C285.308 150.534 282.318 148.464 284.751 145.372C287.184 142.28 290.319 145.895 287.741 140.824C285.162 135.754 280.139 130.592 279.873 130.251C279.607 129.91 276.617 130.763 277.029 124.771C277.44 118.779 280.139 113.686 277.561 113.174C274.983 112.663 267.382 109.616 266.776 110.252L261.959 115.221Z" fill="#BDC6F5"/>
<path d="M135.652 91.9424H141.619C141.619 91.9424 143.689 91.1807 144.694 94.3186C145.698 97.4565 146.316 97.8885 146.316 97.8885L149.027 99.2415V102.732C149.027 102.732 150.116 106.632 150.116 106.973C149.717 108.019 149.233 109.03 148.7 110.02C148.7 110.02 139.489 103.334 135.652 97.6384C131.815 91.9424 135.652 91.9424 135.652 91.9424Z" fill="#BDC6F5"/>
<path d="M162.3 173.448C162.3 173.448 153.948 168.525 154.142 168.013C154.335 167.502 156.248 162.158 157.059 161.738C157.87 161.317 164.321 162.499 164.563 163.511C164.805 164.523 164.926 171.333 164.926 171.333C164.926 171.333 171.257 172.265 172.189 172.345C173.121 172.425 175.723 170.651 175.82 173.482C175.808 175.267 174.912 176.95 173.399 178.03C173.399 178.03 170.869 177.689 169.768 179.223C168.666 180.758 164.333 180.497 164.333 180.497C164.333 180.497 159.734 177.95 159.492 177.95C159.249 177.95 156.599 178.462 157.506 177.268C158.414 176.074 159.588 174.38 159.588 174.38L162.3 173.448Z" fill="#BDC6F5"/>
</g>
</g>
<mask id="mask0_8617_57146" style="mask-type:luminance" maskUnits="userSpaceOnUse" x="81" y="60" width="80" height="120">
<path d="M160.709 60.7461H81.1579V179.44H160.709V60.7461Z" fill="white"/>
</mask>
<g mask="url(#mask0_8617_57146)">
<path d="M135.319 162.903C135.319 162.903 133.896 152.29 140.976 150.662C148.351 148.965 159.698 144.785 160.627 140.843C161.557 136.901 154.117 128.51 159.322 124.289C158.736 122.193 156.457 119.605 156.457 119.605C156.457 119.605 151.668 124.947 155.71 135.507C160.886 149.07 141.324 148.284 138.014 149.009C132.865 150.142 133.226 156.821 133.226 156.821L135.319 162.903Z" fill="#24284A"/>
<path d="M135.206 159.638C135.383 156.374 136.45 151.718 140.94 150.682C148.315 148.985 159.662 144.81 160.591 140.868C160.963 139.284 159.985 136.978 159.019 134.516C159.657 136.567 160.232 139.139 159.536 140.158C158.74 141.275 157.645 142.142 156.376 142.658L155.944 143.213C154.134 147.893 142.71 149.207 142.705 149.207C139.198 149.529 135.787 150.751 134.983 153.355C134.179 155.959 135.206 159.643 135.206 159.643V159.638Z" fill="#ABB9FF"/>
<path d="M134.345 146.15L136.005 148.391C136.005 148.391 130.349 152.848 130.349 153.449C130.349 154.05 136.951 160.128 137.38 159.741C137.808 159.354 147.05 154.364 146.933 150.442C146.816 146.521 136.717 136.609 136.717 136.609C136.717 136.609 120.788 142.93 111.837 158.286C103.06 173.352 106.341 177.702 106.341 177.702C106.341 177.702 110.018 175.727 111.359 177C112.572 176.194 113.784 177.077 113.784 177.077C113.784 177.077 115.975 175.912 116.997 177.186C118.02 178.459 123.059 178.395 123.059 178.395C123.059 178.395 124.546 175.827 126.445 177.044C127.439 176.275 128.987 176.436 129.193 176.992C129.778 176.331 131.561 176.331 132.426 177.838C134.006 177.758 139.966 176.593 143.09 175.642C142.742 173.921 139.57 162.385 140.075 157.831C138.167 159.386 137.364 159.201 137.364 159.201C137.364 159.201 131.112 154.481 131.059 153.385C131.007 152.289 136.313 148.233 136.313 148.233L134.345 146.15Z" fill="#2F2E5E"/>
<path d="M105.694 145.443L104.838 147.913C104.838 147.913 110.45 152.6 110.45 153.201C110.45 153.802 103.864 160.517 103.435 160.13C103.006 159.743 94.3994 154.366 94.5166 150.456C94.6337 146.547 100.752 135.092 100.752 135.092C100.752 135.092 111.848 137.107 121.243 146.897C111.335 158.183 105.145 174.269 106.579 176.954C103.775 176.636 99.35 176.002 98.4403 175.744C98.7917 174.024 101.548 162.637 101.043 158.082C101.888 158.772 102.433 159.227 102.78 159.521C103.108 159.799 103.593 159.799 103.92 159.521C105.577 158.159 110.195 154.281 110.228 153.395C110.268 152.302 104.846 147.921 104.846 147.921L105.694 145.443Z" fill="#2F2E5E"/>
<path opacity="0.38" d="M116.512 147.301C116.512 147.301 100.885 142.464 98.5577 142.811C96.2301 143.158 95.2844 147.003 94.6907 148.757C94.0764 150.606 94.6097 152.715 97.1155 154.77C99.6206 156.826 101.964 157.68 102.772 157.591C103.581 157.503 107.218 154.016 107.452 153.388C107.686 152.759 100.845 149.719 100.687 147.934C100.53 146.148 102.708 146.321 103.864 146.725C104.361 146.007 105.909 145 105.909 145L105.379 147.056L107.897 149.373L111.291 152.501C111.291 152.501 110.35 153.932 110.236 155.007C110.124 156.084 104.058 163.775 103.864 164.311C103.67 164.847 101.136 166.995 101.136 166.995L98.9334 175.503L104.838 175.669C104.838 175.669 109.982 160.554 113.687 155.113C117.393 149.671 117.482 149.296 117.482 149.296L116.512 147.301Z" fill="#353F73"/>
<path opacity="0.38" d="M121.498 151.73C121.498 151.73 115.413 156.01 111.348 164.474C108.741 169.908 108.006 173.785 107.796 175.599C107.739 176.062 108.066 176.482 108.527 176.539C108.616 176.55 108.709 176.546 108.798 176.53C111.04 176.087 116.071 175.172 117.469 175.655C118.468 175.99 119.429 176.425 120.339 176.954C120.339 176.954 122.4 177.264 122.67 176.954C122.941 176.643 126.259 174.047 127.96 174.583C129.661 175.119 132.356 175.655 132.356 175.655C132.356 175.655 136.571 174.406 135.315 173.152C134.058 171.899 129.504 159.646 129.253 157.768C129.003 155.889 128.849 151.951 129.253 151.722C129.658 151.492 129.023 147.828 127.496 148.094C125.968 148.36 121.498 151.73 121.498 151.73Z" fill="#353F73"/>
<path opacity="0.38" d="M137.198 146.834C137.198 146.834 138.321 147.188 138.43 147.793C138.539 148.397 135.068 150.993 134.353 151.392C133.637 151.792 132.199 153.073 132.332 153.161C132.466 153.251 136.459 157.031 137.153 157.386C137.849 157.74 139.372 156.358 140.091 155.153C140.81 153.948 142.625 151.215 142.112 149.067C141.598 146.918 139.736 145.625 138.907 145.535C138.079 145.447 135.343 145.669 135.206 145.939C135.068 146.208 137.198 146.834 137.198 146.834Z" fill="#353F73"/>
<path d="M116.75 162.591C117.395 162.591 117.918 162.069 117.918 161.427C117.918 160.783 117.395 160.262 116.75 160.262C116.105 160.262 115.582 160.783 115.582 161.427C115.582 162.069 116.105 162.591 116.75 162.591Z" fill="#353F6E"/>
<path d="M126.853 162.601C127.498 162.601 128.021 162.079 128.021 161.436C128.021 160.793 127.498 160.271 126.853 160.271C126.208 160.271 125.685 160.793 125.685 161.436C125.685 162.079 126.208 162.601 126.853 162.601Z" fill="#353F6E"/>
<path d="M115.91 170.75C116.555 170.75 117.078 170.228 117.078 169.585C117.078 168.942 116.555 168.42 115.91 168.42C115.265 168.42 114.742 168.942 114.742 169.585C114.742 170.228 115.265 170.75 115.91 170.75Z" fill="#353F6E"/>
<path d="M127.391 170.75C128.036 170.75 128.558 170.228 128.558 169.585C128.558 168.942 128.036 168.42 127.391 168.42C126.745 168.42 126.222 168.942 126.222 169.585C126.222 170.228 126.745 170.75 127.391 170.75Z" fill="#353F6E"/>
<path d="M116.431 162.291C117.076 162.291 117.599 161.769 117.599 161.126C117.599 160.482 117.076 159.961 116.431 159.961C115.787 159.961 115.264 160.482 115.264 161.126C115.264 161.769 115.787 162.291 116.431 162.291Z" fill="#7C8BD1"/>
<path d="M126.534 162.298C127.178 162.298 127.701 161.776 127.701 161.134C127.701 160.49 127.178 159.969 126.534 159.969C125.889 159.969 125.366 160.49 125.366 161.134C125.366 161.776 125.889 162.298 126.534 162.298Z" fill="#7C8BD1"/>
<path d="M115.591 170.448C116.236 170.448 116.759 169.926 116.759 169.282C116.759 168.639 116.236 168.117 115.591 168.117C114.946 168.117 114.423 168.639 114.423 169.282C114.423 169.926 114.946 170.448 115.591 170.448Z" fill="#7C8BD1"/>
<path d="M127.071 170.448C127.716 170.448 128.239 169.926 128.239 169.282C128.239 168.639 127.716 168.117 127.071 168.117C126.426 168.117 125.903 168.639 125.903 169.282C125.903 169.926 126.426 170.448 127.071 170.448Z" fill="#7C8BD1"/>
<path d="M142.952 143.465C142.952 143.465 147.336 148.612 147.037 150.744C146.763 152.683 145.183 154.936 140.168 158.249C141.626 166.017 142.318 171.486 143.11 175.658C140.556 176.48 137.925 177.056 135.262 177.379L139.048 174.303L139.856 173.054C140.277 172.014 140.418 170.882 140.261 169.769C139.962 168.084 140.055 168.632 140.055 168.632C140.055 168.632 139.453 163.679 139.028 164.029C138.604 164.38 137.816 162.337 137.857 161.825C137.764 161.115 137.598 160.417 137.364 159.744L132.324 161.515C132.324 161.515 141.316 154.73 143.368 150.454C144.799 147.447 142.952 143.465 142.952 143.465Z" fill="#ABB9FF"/>
<path d="M131.157 176.39C130.531 176.277 129.888 176.423 129.37 176.793C128.934 176.382 128.353 176.156 127.754 176.173C127.132 176.161 126.529 176.406 126.097 176.85C125.564 176.447 124.86 176.334 124.226 176.552C123.212 176.846 122.573 177.7 122.792 178.458C123.01 179.216 124.004 179.595 125.031 179.301C125.419 179.192 125.77 178.982 126.053 178.696C126.489 179.172 127.108 179.433 127.754 179.417C128.409 179.433 129.035 179.164 129.471 178.676C129.843 178.97 130.292 179.156 130.76 179.216C131.88 179.365 132.878 178.853 132.983 178.067C133.088 177.281 132.272 176.544 131.157 176.39Z" fill="#7E92EB"/>
<path d="M115.777 176.397C115.126 176.281 114.455 176.454 113.942 176.869C113.509 176.425 112.911 176.18 112.293 176.196C111.767 176.188 111.258 176.358 110.842 176.68C110.313 176.333 109.654 176.244 109.052 176.442C108.046 176.732 107.408 177.583 107.626 178.34C107.844 179.098 108.838 179.469 109.852 179.179C110.147 179.098 110.422 178.961 110.66 178.776C111.093 179.211 111.683 179.449 112.297 179.437C112.972 179.452 113.618 179.155 114.043 178.63C114.426 178.957 114.896 179.163 115.397 179.223C116.512 179.372 117.502 178.86 117.607 178.082C117.712 177.304 116.892 176.546 115.777 176.397Z" fill="#7E92EB"/>
<path d="M121.18 124.586V124.718C118.61 124.4 97.1074 122.3 84.3461 139.527C95.3329 138.636 113.037 143.203 118.565 151.482C126.732 141.784 147.66 138.636 158.66 139.527C145.078 121.18 121.18 124.586 121.18 124.586Z" fill="#C5CCEB"/>
<path d="M160.131 102.604C159.621 93.7126 139.78 74.4421 136.571 71.3989C133.363 68.3558 127.98 60.609 126.412 60.7459C124.739 60.879 127.362 76.4937 127.56 87.6545C127.758 98.8154 125.285 102.669 124.432 102.455C123.579 102.241 120.662 101.834 120.662 101.834C120.662 101.834 117.745 102.237 116.892 102.455C116.039 102.673 113.562 98.8275 113.764 87.6545C113.966 76.4816 116.593 60.879 114.916 60.7459C113.348 60.621 107.962 68.3719 104.753 71.411C101.544 74.4501 81.7193 93.7247 81.1978 102.616C80.7934 109.658 83.5254 111.685 89.5138 114.511C95.503 117.336 97.3739 118.19 96.9452 119.75C96.5173 121.31 92.662 121.939 92.4476 125.728C92.234 129.517 93.1511 135.555 103.658 140.114C114.164 144.672 117.615 145.958 120.662 145.958C123.709 145.958 127.16 144.672 137.666 140.114C148.173 135.555 148.658 128.178 148.444 124.394C148.23 120.609 144.807 121.302 144.379 119.755C143.95 118.207 145.826 117.336 151.814 114.515C157.803 111.693 160.531 109.646 160.131 102.604Z" fill="#7E92EB"/>
<path d="M92.7267 124.483C92.9366 120.855 96.3308 121.52 96.7676 120.049C96.7757 120.016 96.7838 119.98 96.7875 119.948L104.009 118.013L118.056 116.562L119.195 121.939C119.195 121.939 110.915 129.021 104.449 128.791C97.9837 128.562 95.992 123.862 93.8618 126.607C92.6818 128.13 95.7695 135.176 101.54 136.949C107.31 138.723 111.925 140.577 114.924 141.407C118.293 142.242 121.806 142.366 125.228 141.778C128.598 141.117 140.883 137.627 141.138 137.55C139.869 138.336 138.535 139.009 137.149 139.565C126.727 143.934 123.304 145.168 120.282 145.168C117.259 145.168 113.836 143.934 103.415 139.565C92.9934 135.196 92.5124 128.114 92.7267 124.483Z" fill="#40469E"/>
<path d="M142.249 122.843C142.249 122.843 139.825 128.708 128.106 127.7C116.387 126.692 117.458 119.296 117.599 113.432C117.74 107.567 125.39 102.549 125.39 102.549L142.249 122.843Z" fill="#40469E"/>
<path d="M144.419 130.88C142.673 132.311 139.8 131.771 136.741 130.953C136.571 130.679 135.893 130.376 135.298 130.211C134.705 130.066 134.094 130.022 133.484 130.074C132.971 129.941 133.629 131.122 133.129 131.017C128.587 130.046 121.692 129.764 121.692 129.764C118.662 129.586 115.631 130.062 112.803 131.159C108.482 132.771 102.041 133.057 99.3901 130.884C98.5821 130.207 97.7939 129.901 97.3336 128.788C97.1678 128.385 97.8064 125.06 99.4593 127.256C100.522 128.659 100.877 130.429 102.724 130.505C109.509 130.788 112.64 127.571 115.163 124.641C116.092 123.556 117.523 122.803 118.225 121.863C119.098 120.707 119.587 118.881 120.501 118.877C121.911 118.877 121.858 120.489 123.499 122.19C124.109 122.831 125.079 123.218 125.956 123.923C128.987 126.37 133.157 129.288 140.038 130.373C141.865 130.662 142.378 129.969 143.554 128.651C144.799 127.277 146.848 127.89 146.156 129.131C145.607 130.195 145.239 130.203 144.419 130.88Z" fill="#91A6FF"/>
<path d="M120.274 120.131C120.274 119.897 120.016 119.809 119.902 120.002C119.498 120.683 119.147 122.235 118.415 122.876C117.466 123.71 116.302 124.743 116.714 125.826C117.126 126.911 118.302 126.157 119.223 125.424C119.628 125.105 119.866 124.916 120.032 124.807C120.193 124.686 120.286 124.493 120.282 124.291L120.274 120.131Z" fill="#40469E"/>
<path d="M121.07 119.998C121.07 119.76 121.329 119.675 121.442 119.869C121.846 120.55 122.198 122.098 122.929 122.743C123.878 123.573 125.042 124.609 124.63 125.689C124.218 126.769 123.042 126.023 122.121 125.286C121.717 124.963 121.474 124.778 121.313 124.669C121.151 124.548 121.058 124.355 121.062 124.149L121.07 119.998Z" fill="#40469E"/>
<path d="M133.989 130.834C133.989 130.834 133.989 134.962 133.735 135.639C134.866 135.385 137.327 133.349 137.885 131.862C136.717 131.141 133.989 130.834 133.989 130.834Z" fill="#40469E"/>
<path d="M133.536 130.621C133.536 130.621 133.395 133.776 133.132 134.458C134.264 134.2 136.268 132.995 136.826 131.504C135.65 130.786 133.536 130.621 133.536 130.621Z" fill="#F3F3F3"/>
<path d="M144.419 131.65C142.673 133.084 139.8 132.54 136.741 131.726C136.571 131.452 135.893 131.15 135.298 130.985C134.713 130.839 134.102 130.791 133.5 130.843C132.987 130.71 132.426 130.722 131.977 130.477C128.251 128.441 121.899 128.461 121.899 128.461C121.899 128.461 116.391 128.433 112.011 130.513C107.84 132.491 102.065 133.838 99.4144 131.661C98.5658 130.884 97.9154 129.916 97.5155 128.84C97.3498 128.437 97.8712 128.118 98.1011 128.485C99.0269 129.977 100.368 130.606 102.191 130.928C107.157 131.81 113.227 127.703 121.919 127.703C130.611 127.703 137.133 130.348 141.643 130.928C143.477 131.161 144.807 129.977 145.732 128.485C145.963 128.118 146.484 128.433 146.318 128.84C145.918 129.912 145.268 130.875 144.419 131.65Z" fill="#40469E"/>
<path d="M117.971 132.725C117.32 132.273 118.629 131.266 121.522 131.266C124.226 131.266 125.281 132.144 125.135 132.523C124.868 133.213 122.812 132.366 121.446 132.366C120.08 132.366 118.625 133.172 117.971 132.725Z" fill="#40469E"/>
<path d="M113.607 138.964C112.261 137.432 114.964 133.998 120.949 133.998C126.538 133.998 128.72 136.985 128.421 138.275C127.867 140.629 123.317 140.346 120.488 140.346C117.66 140.346 114.956 140.495 113.607 138.964Z" fill="#91A6FF"/>
<path d="M126.873 62.2149C126.513 62.2149 126.598 64.7864 126.566 65.2781C126.534 65.7699 129.395 88.5632 127.96 96.0682C127.706 97.3943 130.223 93.4362 129.172 77.491C129.055 75.6933 128.566 67.5111 129.835 67.2612C131.104 67.0113 129.544 64.4397 129.33 64.0125C129.115 63.5853 127.475 62.2108 126.873 62.2149Z" fill="#D5DCFF"/>
<path d="M113.166 62.7383C113.166 62.7383 104.009 74.7375 99.7179 79.0181C95.4259 83.2987 86.609 94.4635 84.8147 97.5792C83.0204 100.695 80.709 107.902 87.3485 112.049C84.0309 103.988 90.395 101.634 92.4604 102.001C94.525 102.368 94.3151 109.659 94.3151 109.659L97.6084 113.952L109.731 113.122L116.399 103.327L113.942 101.078C111.433 99.135 108.438 97.9218 105.282 97.5711C100.053 97.0109 98.1092 97.1681 98.1092 97.1681C98.1092 97.1681 98.8532 92.3071 104.328 93.1374C102.72 90.8158 102.166 78.4135 113.166 62.7383Z" fill="#40469E"/>
<path d="M130.437 71.2266C130.437 71.2266 131.779 80.4285 131.852 85.9263C131.924 91.4241 133.193 99.9449 130.789 102.202C128.384 104.459 132.247 105.37 132.247 105.37L147.037 114.507C147.037 114.507 150.743 113.895 152.509 112.698C154.275 111.501 157.136 109.562 157.665 107.204C155.265 109.622 153.184 111.465 151.559 109.457C149.935 107.45 151.026 97.8691 144.916 93.1815C145.943 95.3298 144.67 98.8888 142.269 98.4657C139.869 98.0424 136.087 92.3713 135.133 87.5103C134.18 82.6494 130.437 71.2266 130.437 71.2266Z" fill="#40469E"/>
<path d="M100.425 95.1277C100.425 94.9261 100.829 94.4223 101.637 94.2168C102.445 94.0111 104.13 93.9265 104.923 95.0027C105.714 96.0789 103.561 95.0027 103.027 94.91C101.293 94.5594 100.425 95.3252 100.425 95.1277Z" fill="#D5DCFF"/>
<path d="M114.544 62.5645C113.861 65.0272 113.303 67.5222 112.875 70.0413C112.593 72.0002 111.663 78.9087 111.55 81.7705C111.437 84.6322 110.059 95.0273 109.581 95.8979C109.105 96.7685 109.262 97.5384 109.768 97.8004C110.273 98.0623 111.691 98.3606 112.54 99.0095C113.388 99.6585 113.287 97.4981 112.31 96.2284C111.332 94.9587 111.501 92.7661 111.655 91.049C111.808 89.332 111.902 82.5847 112.645 78.0865C113.388 73.5883 114.544 62.5645 114.544 62.5645Z" fill="#D5DCFF"/>
<path d="M140.253 92.2571C139.578 91.2454 140.116 95.8161 141.679 96.2876C143.243 96.7593 144.326 95.3082 143.7 94.1716C143.074 93.035 141.206 93.6839 140.253 92.2571Z" fill="#D5DCFF"/>
<path d="M93.2602 106.042L86.9035 100.444C85.7559 99.4161 85.6587 97.6507 86.6892 96.506C87.716 95.3613 89.4816 95.2605 90.6336 96.2883H90.6373L96.9048 101.806C95.3536 102.894 94.1007 104.35 93.2602 106.042Z" fill="#F3F3F3"/>
<path d="M92.4036 112.988C92.4036 112.67 92.4279 112.36 92.4478 112.049C92.7549 107.958 94.8844 104.218 98.2505 101.86C100.526 100.276 103.234 99.4294 106.005 99.4415C113.546 99.4657 119.636 105.58 119.611 113.101V113.145C119.611 120.627 113.562 126.705 106.062 126.757H106.005C98.4767 126.733 92.3955 120.635 92.4073 113.126V113.101C92.4073 113.077 92.4036 113.025 92.4036 112.988Z" fill="#F3F3F3"/>
<path d="M106.054 124.403C112.189 124.403 117.163 119.442 117.163 113.322C117.163 107.203 112.189 102.242 106.054 102.242C99.9188 102.242 94.9454 107.203 94.9454 113.322C94.9454 119.442 99.9188 124.403 106.054 124.403Z" fill="url(#paint0_linear_8617_57146)"/>
<path opacity="0.47" d="M117.098 112.129C116.443 106.047 110.972 101.645 104.874 102.294C102.07 102.592 99.4835 103.946 97.6406 106.083L112.305 107.977L100.55 115.792L113.582 110.98L108.834 115.2L117.098 112.129Z" fill="#DBD4F3"/>
<path d="M93.8826 105.368C93.8826 105.368 88.0511 100.128 87.8736 99.9269C87.4935 99.3505 87.4574 98.6169 87.7764 98.0042C88.1484 97.4803 87.853 98.4073 88.1277 99.0078C88.4032 99.6085 95.2888 103.442 95.2888 103.442L93.8826 105.368Z" fill="#40469E"/>
<path d="M148.089 105.92L154.291 100.454C155.407 99.4504 155.499 97.7373 154.498 96.6209C153.491 95.5003 151.77 95.4076 150.647 96.4072L144.532 101.792C146.044 102.852 147.268 104.271 148.092 105.92H148.089Z" fill="#F3F3F3"/>
<path d="M149.244 112.988C149.244 112.67 149.22 112.359 149.196 112.049C148.888 107.958 146.755 104.217 143.388 101.86C141.117 100.276 138.414 99.4334 135.642 99.4415C128.106 99.4656 122.016 105.58 122.04 113.097V113.145C122.04 120.627 128.093 126.705 135.594 126.757H135.642C143.17 126.733 149.256 120.63 149.244 113.122V112.988Z" fill="#F3F3F3"/>
<path d="M135.529 124.403C141.664 124.403 146.637 119.442 146.637 113.322C146.637 107.203 141.664 102.242 135.529 102.242C129.394 102.242 124.42 107.203 124.42 113.322C124.42 119.442 129.394 124.403 135.529 124.403Z" fill="url(#paint1_linear_8617_57146)"/>
<path opacity="0.47" d="M146.375 110.894C145.041 104.92 139.105 101.156 133.117 102.486C129.697 103.244 126.836 105.569 125.402 108.754L142.16 106.291L129.512 114.691L142.544 109.878L137.804 114.098L146.375 110.894Z" fill="#DBD4F3"/>
<path d="M147.866 105.659C147.866 105.659 153.697 100.419 153.875 100.218C154.255 99.6411 154.291 98.9076 153.972 98.2949C153.596 97.7669 153.891 98.698 153.617 99.2985C153.342 99.8991 146.46 103.732 146.46 103.732L147.866 105.659Z" fill="#40469E"/>
</g>
<g opacity="0.3">
<path d="M302.206 242.728C303.751 242.728 305 243.902 305 245.351C305 246.799 303.751 247.975 302.206 247.975C300.661 247.975 299.413 246.799 299.413 245.351C299.413 243.902 300.661 242.728 302.206 242.728Z" fill="#D5DCFF"/>
<path d="M272.596 162.446C273.218 162.446 273.713 162.916 273.713 163.496C273.713 164.075 273.218 164.545 272.596 164.545C271.973 164.545 271.478 164.075 271.478 163.496C271.478 162.916 271.973 162.446 272.596 162.446Z" fill="#D5DCFF"/>
<path d="M166.443 228.034C167.066 228.034 167.561 228.504 167.561 229.083C167.561 229.663 167.066 230.133 166.443 230.133C165.821 230.133 165.326 229.663 165.326 229.083C165.326 228.504 165.821 228.034 166.443 228.034Z" fill="#D5DCFF"/>
<path d="M49.1172 180.811C49.7395 180.811 50.2347 181.282 50.2347 181.861C50.2347 182.44 49.7395 182.91 49.1172 182.91C48.4948 182.91 47.9999 182.44 47.9999 181.861C47.9999 181.282 48.4948 180.811 49.1172 180.811Z" fill="#D5DCFF"/>
<path d="M116.161 163.495C116.783 163.495 117.278 163.965 117.278 164.544C117.278 165.124 116.783 165.594 116.161 165.594C115.538 165.594 115.043 165.124 115.043 164.544C115.043 163.965 115.538 163.495 116.161 163.495Z" fill="#D5DCFF"/>
</g>
<g opacity="0.3">
<path d="M244.724 84.4972C246.139 84.4972 247.282 85.572 247.282 86.899C247.282 88.2247 246.139 89.3008 244.724 89.3008C243.31 89.3008 242.167 88.2247 242.167 86.899C242.167 85.572 243.31 84.4972 244.724 84.4972Z" fill="#D5DCFF"/>
<path d="M217.616 11.0004C218.185 11.0004 218.639 11.431 218.639 11.9612C218.639 12.4914 218.185 12.9219 217.616 12.9219C217.046 12.9219 216.593 12.4914 216.593 11.9612C216.593 11.431 217.046 11.0004 217.616 11.0004Z" fill="#D5DCFF"/>
<path d="M120.434 71.0454C121.004 71.0454 121.457 71.4759 121.457 72.0061C121.457 72.5363 121.004 72.9668 120.434 72.9668C119.864 72.9668 119.411 72.5363 119.411 72.0061C119.411 71.4759 119.864 71.0454 120.434 71.0454Z" fill="#D5DCFF"/>
<path d="M13.0229 27.8149C13.5927 27.8149 14.0459 28.2453 14.0459 28.7756C14.0459 29.3059 13.5927 29.7363 13.0229 29.7363C12.4531 29.7363 12 29.3059 12 28.7756C12 28.2453 12.4531 27.8149 13.0229 27.8149Z" fill="#D5DCFF"/>
<path d="M74.4006 11.9614C74.9703 11.9614 75.4236 12.3919 75.4236 12.9221C75.4236 13.4524 74.9703 13.8828 74.4006 13.8828C73.8308 13.8828 73.3777 13.4524 73.3777 12.9221C73.3777 12.3919 73.8308 11.9614 74.4006 11.9614Z" fill="#D5DCFF"/>
<path d="M37.3183 102.748C38.0304 102.748 38.597 103.179 38.597 103.709C38.597 104.239 38.0304 104.67 37.3183 104.67C36.6061 104.67 36.0396 104.239 36.0396 103.709C36.0396 103.179 36.6061 102.748 37.3183 102.748Z" fill="#D5DCFF"/>
</g>
<path fill-rule="evenodd" clip-rule="evenodd" d="M66.9254 224.008C68.0129 224.008 69.0109 224.187 69.9193 224.545C70.8277 224.903 71.6157 225.405 72.2833 226.052C72.9509 226.699 73.4704 227.463 73.8421 228.344C74.2137 229.224 74.3996 230.188 74.3996 231.234C74.3996 232.28 74.2137 233.24 73.8421 234.114C73.4704 234.988 72.9473 235.752 72.273 236.406C71.5985 237.06 70.8002 237.566 69.8779 237.924C68.9557 238.281 67.9508 238.46 66.8635 238.46H61V224.008H66.9254ZM66.9875 236.375C67.6895 236.375 68.3397 236.251 68.9385 236.004C69.5373 235.756 70.0602 235.401 70.5076 234.94C70.955 234.479 71.3061 233.935 71.5607 233.309C71.8153 232.683 71.9426 231.998 71.9426 231.255C71.9426 230.498 71.8118 229.806 71.5502 229.18C71.2887 228.554 70.9308 228.006 70.4768 227.538C70.0225 227.07 69.4891 226.713 68.8766 226.465C68.264 226.217 67.5999 226.093 66.8843 226.093H63.4364V236.375H66.9875ZM77.001 224.008H79.4371V238.46H77.001V224.008ZM95.2523 236.726C94.7705 237.098 94.2166 237.428 93.5903 237.717C92.964 238.006 92.3136 238.23 91.6393 238.388C90.9647 238.546 90.2971 238.626 89.6365 238.626C88.563 238.626 87.5684 238.436 86.6531 238.058C85.7378 237.679 84.9326 237.153 84.2375 236.478C83.5424 235.804 83.0021 235.016 82.6168 234.114C82.2313 233.213 82.0386 232.246 82.0386 231.213C82.0386 230.181 82.2349 229.221 82.6271 228.333C83.0193 227.445 83.5665 226.664 84.2685 225.99C84.9705 225.316 85.7929 224.792 86.7357 224.421C87.6785 224.049 88.6937 223.863 89.781 223.863C90.4693 223.863 91.1472 223.946 91.8148 224.111C92.4822 224.276 93.1188 224.51 93.7245 224.813C94.3301 225.116 94.867 225.481 95.3349 225.907L93.9517 227.58C93.4011 227.057 92.7576 226.647 92.0212 226.351C91.2848 226.055 90.5381 225.907 89.781 225.907C89.0378 225.907 88.3495 226.045 87.7165 226.32C87.0833 226.596 86.5258 226.974 86.044 227.456C85.5622 227.938 85.1872 228.499 84.9187 229.138C84.6505 229.779 84.5162 230.47 84.5162 231.213C84.5162 231.957 84.6505 232.652 84.9187 233.299C85.1872 233.946 85.5622 234.514 86.044 235.002C86.5258 235.491 87.0866 235.873 87.7268 236.148C88.3667 236.423 89.0584 236.561 89.8017 236.561C90.4763 236.561 91.1747 236.423 91.8973 236.148C92.3331 235.982 92.7425 235.781 93.1257 235.545V231.399H95.2523V236.726ZM98.7002 224.008H101.529L106.525 233.815L111.48 224.008H114.309V238.46H112.058L112.038 227.415L107.289 236.953H105.741L100.951 227.415V238.46H98.7002V224.008ZM127.963 236.412L127.419 235.116H120.167L118.769 238.46H116.229L122.609 224.008H125.107L130.53 236.412C131.321 238.223 130.269 240.481 129.273 241.579C129.242 240.35 128.975 238.818 127.963 236.412ZM126.552 233.051L123.786 226.465L121.031 233.051H126.552Z" fill="#F0F1F7"/>
<path d="M148.32 239.6L163.436 224.484" stroke="#828599"/>
<path d="M163.436 239.6L148.32 224.484" stroke="#828599"/>
<g clip-path="url(#clip3_8617_57146)">
<path d="M190.611 223.634L183.999 219.817L177.388 223.634V219.817L184 216L190.612 219.817V223.634H190.611Z" fill="#A435F0"/>
<path d="M177.388 226.84H180.852V235.254C180.852 237.428 182.475 238.487 184 238.487C185.537 238.487 187.148 237.399 187.148 235.225V226.84H190.612V235.454C190.612 237.457 189.982 239.002 188.723 240.062C187.463 241.121 185.889 241.636 183.97 241.636C182.053 241.636 180.479 241.121 179.249 240.062C178.018 239.003 177.388 237.515 177.388 235.54V226.84ZM220.552 237.297C219.504 238.23 218.309 238.688 216.948 238.688C214.463 238.688 212.797 237.272 212.609 235.08H223.799C223.799 235.08 223.874 234.373 223.874 233.709C223.874 231.648 223.215 229.93 221.869 228.528C220.554 227.126 218.837 226.439 216.747 226.439C214.544 226.439 212.74 227.126 211.309 228.528C209.906 229.93 209.191 231.761 209.191 234.052V234.165C209.191 236.426 209.906 238.229 211.309 239.575C212.711 240.92 214.571 241.607 216.833 241.607C219.462 241.607 221.554 240.57 223.124 238.782L220.552 237.297ZM213.97 230.273C214.742 229.672 215.687 229.358 216.746 229.358C217.747 229.358 218.577 229.672 219.294 230.303C219.977 230.877 220.346 231.582 220.378 232.392H212.698C212.809 231.554 213.232 230.849 213.971 230.274L213.97 230.273ZM255.413 243.551C254.008 246.868 252.538 247.997 250.284 247.997H248.722V244.927H249.985C250.76 244.927 251.481 244.635 252.168 243.051L252.855 241.464L246.93 226.84H250.451L254.658 237.372L258.981 226.84H262.5L255.414 243.551L255.413 243.551ZM204.093 221.316V228.146C202.958 227.129 201.193 226.524 199.486 226.524C197.453 226.524 195.737 227.239 194.334 228.698C192.96 230.129 192.273 231.904 192.273 234.05C192.273 236.198 192.96 237.972 194.334 239.431C195.737 240.862 197.454 241.579 199.486 241.579C201.829 241.579 203.31 240.657 204.093 239.936V241.264H207.528V221.317H204.093V221.316ZM203.063 237.2C202.233 238.03 201.174 238.46 199.943 238.46C198.712 238.46 197.711 238.03 196.881 237.2C196.081 236.37 195.679 235.311 195.679 234.052C195.679 232.792 196.08 231.733 196.881 230.903C197.711 230.073 198.712 229.644 199.943 229.644C201.174 229.644 202.233 230.073 203.063 230.903C203.921 231.733 204.352 232.792 204.352 234.052C204.352 235.311 203.921 236.37 203.063 237.2ZM241.591 226.553C238.982 226.553 237.626 227.636 236.697 228.678C236.325 227.97 235.279 226.553 232.834 226.553C230.767 226.553 229.55 227.598 228.941 228.341V226.841H225.537V241.265H228.941V232.965C228.941 231.019 230.144 229.617 231.746 229.617C233.379 229.617 234.322 230.848 234.322 232.822V241.264H237.728V232.964C237.728 230.99 238.901 229.616 240.589 229.616C242.221 229.616 243.165 230.847 243.165 232.82V241.264H246.6V232.334C246.6 228.574 244.578 226.554 241.591 226.554V226.553Z" fill="#F0F1F7"/>
</g>
</g>
<defs>
<filter id="filter0_d_8617_57146" x="68.6" y="2.23068" width="250.126" height="250.126" filterUnits="userSpaceOnUse" color-interpolation-filters="sRGB">
<feFlood flood-opacity="0" result="BackgroundImageFix"/>
<feColorMatrix in="SourceAlpha" type="matrix" values="0 0 0 0 0 0 0 0 0 0 0 0 0 0 0 0 0 0 127 0" result="hardAlpha"/>
<feOffset dy="2.29474"/>
<feGaussianBlur stdDeviation="32.7"/>
<feComposite in2="hardAlpha" operator="out"/>
<feColorMatrix type="matrix" values="0 0 0 0 0.643137 0 0 0 0 0.207843 0 0 0 0 0.941176 0 0 0 1 0"/>
<feBlend mode="normal" in2="BackgroundImageFix" result="effect1_dropShadow_8617_57146"/>
<feBlend mode="normal" in="SourceGraphic" in2="effect1_dropShadow_8617_57146" result="shape"/>
</filter>
<linearGradient id="paint0_linear_8617_57146" x1="105.496" y1="125.939" x2="107.659" y2="76.8003" gradientUnits="userSpaceOnUse">
<stop stop-color="#696DB8"/>
<stop offset="0.77" stop-color="#040B38"/>
</linearGradient>
<linearGradient id="paint1_linear_8617_57146" x1="134.91" y1="127.233" x2="137.074" y2="78.0941" gradientUnits="userSpaceOnUse">
<stop stop-color="#696DB8"/>
<stop offset="0.77" stop-color="#040B38"/>
</linearGradient>
<clipPath id="clip0_8617_57146">
<rect width="308" height="259" fill="white"/>
</clipPath>
<clipPath id="clip1_8617_57146">
<rect x="134" y="65.3359" width="119.326" height="119.326" rx="59.6632" fill="white"/>
</clipPath>
<clipPath id="clip2_8617_57146">
<rect width="32.1263" height="62.5316" fill="white" transform="translate(177.6 93.7324)"/>
</clipPath>
<clipPath id="clip3_8617_57146">
<rect width="85.1119" height="32.0832" fill="white" transform="translate(177.388 216)"/>
</clipPath>
</defs>
</svg>
