<svg width="308" height="265" viewBox="0 0 308 265" fill="none" xmlns="http://www.w3.org/2000/svg">
<ellipse opacity="0.2" cx="154.5" cy="119.5" rx="144.5" ry="51.5" fill="url(#paint0_radial_8617_57382)"/>
<rect x="88" y="54" width="132" height="132" rx="66" fill="#233332"/>
<g clip-path="url(#clip0_8617_57382)">
<path d="M125.84 116.982L146.635 141.119L182.16 98.8789" stroke="#6EBD9C" stroke-width="5.28" stroke-linecap="round" stroke-linejoin="round"/>
</g>
<g opacity="0.3">
<path d="M302.206 242.728C303.751 242.728 305 243.902 305 245.351C305 246.799 303.751 247.975 302.206 247.975C300.661 247.975 299.413 246.799 299.413 245.351C299.413 243.902 300.661 242.728 302.206 242.728Z" fill="#D5DCFF"/>
<path d="M272.596 162.446C273.218 162.446 273.713 162.916 273.713 163.496C273.713 164.075 273.218 164.545 272.596 164.545C271.973 164.545 271.479 164.075 271.479 163.496C271.479 162.916 271.973 162.446 272.596 162.446Z" fill="#D5DCFF"/>
<path d="M166.443 228.034C167.066 228.034 167.561 228.504 167.561 229.083C167.561 229.663 167.066 230.133 166.443 230.133C165.821 230.133 165.326 229.663 165.326 229.083C165.326 228.504 165.821 228.034 166.443 228.034Z" fill="#D5DCFF"/>
<path d="M49.1173 180.811C49.7397 180.811 50.2348 181.282 50.2348 181.861C50.2348 182.44 49.7397 182.91 49.1173 182.91C48.4949 182.91 48 182.44 48 181.861C48 181.282 48.4949 180.811 49.1173 180.811Z" fill="#D5DCFF"/>
<path d="M116.161 163.495C116.783 163.495 117.278 163.965 117.278 164.544C117.278 165.124 116.783 165.594 116.161 165.594C115.538 165.594 115.043 165.124 115.043 164.544C115.043 163.965 115.538 163.495 116.161 163.495Z" fill="#D5DCFF"/>
<path d="M75.6553 262.663C76.4332 262.663 77.052 263.133 77.052 263.712C77.052 264.292 76.4332 264.762 75.6553 264.762C74.8774 264.762 74.2585 264.292 74.2585 263.712C74.2585 263.133 74.8774 262.663 75.6553 262.663Z" fill="#D5DCFF"/>
</g>
<g opacity="0.3">
<path d="M244.724 84.4972C246.139 84.4972 247.282 85.572 247.282 86.899C247.282 88.2247 246.139 89.3008 244.724 89.3008C243.31 89.3008 242.167 88.2247 242.167 86.899C242.167 85.572 243.31 84.4972 244.724 84.4972Z" fill="#D5DCFF"/>
<path d="M217.616 11.0004C218.185 11.0004 218.639 11.431 218.639 11.9612C218.639 12.4914 218.185 12.9219 217.616 12.9219C217.046 12.9219 216.593 12.4914 216.593 11.9612C216.593 11.431 217.046 11.0004 217.616 11.0004Z" fill="#D5DCFF"/>
<path d="M120.434 71.0454C121.004 71.0454 121.457 71.4759 121.457 72.0061C121.457 72.5363 121.004 72.9668 120.434 72.9668C119.864 72.9668 119.411 72.5363 119.411 72.0061C119.411 71.4759 119.864 71.0454 120.434 71.0454Z" fill="#D5DCFF"/>
<path d="M13.0229 27.8149C13.5927 27.8149 14.0459 28.2453 14.0459 28.7756C14.0459 29.3059 13.5927 29.7363 13.0229 29.7363C12.4531 29.7363 12 29.3059 12 28.7756C12 28.2453 12.4531 27.8149 13.0229 27.8149Z" fill="#D5DCFF"/>
<path d="M74.4006 11.9614C74.9703 11.9614 75.4236 12.3919 75.4236 12.9221C75.4236 13.4524 74.9703 13.8828 74.4006 13.8828C73.8308 13.8828 73.3777 13.4524 73.3777 12.9221C73.3777 12.3919 73.8308 11.9614 74.4006 11.9614Z" fill="#D5DCFF"/>
<path d="M37.3183 102.748C38.0304 102.748 38.597 103.179 38.597 103.709C38.597 104.239 38.0304 104.67 37.3183 104.67C36.6061 104.67 36.0396 104.239 36.0396 103.709C36.0396 103.179 36.6061 102.748 37.3183 102.748Z" fill="#D5DCFF"/>
</g>
<path fill-rule="evenodd" clip-rule="evenodd" d="M66.9254 224.508C68.0129 224.508 69.0109 224.687 69.9193 225.045C70.8277 225.403 71.6157 225.905 72.2833 226.552C72.9509 227.199 73.4704 227.963 73.8421 228.844C74.2137 229.724 74.3996 230.688 74.3996 231.734C74.3996 232.78 74.2137 233.74 73.8421 234.614C73.4704 235.488 72.9473 236.252 72.273 236.906C71.5985 237.56 70.8002 238.066 69.8779 238.424C68.9557 238.781 67.9508 238.96 66.8635 238.96H61V224.508H66.9254ZM66.9875 236.875C67.6895 236.875 68.3397 236.751 68.9385 236.504C69.5373 236.256 70.0602 235.901 70.5076 235.44C70.955 234.979 71.3061 234.435 71.5607 233.809C71.8153 233.183 71.9426 232.498 71.9426 231.755C71.9426 230.998 71.8118 230.306 71.5502 229.68C71.2887 229.054 70.9308 228.506 70.4768 228.038C70.0225 227.57 69.4891 227.213 68.8766 226.965C68.264 226.717 67.5999 226.593 66.8843 226.593H63.4364V236.875H66.9875ZM77.001 224.508H79.4371V238.96H77.001V224.508ZM95.2523 237.226C94.7705 237.598 94.2166 237.928 93.5903 238.217C92.964 238.506 92.3136 238.73 91.6393 238.888C90.9647 239.046 90.2971 239.126 89.6365 239.126C88.563 239.126 87.5684 238.936 86.6531 238.558C85.7378 238.179 84.9326 237.653 84.2375 236.978C83.5424 236.304 83.0021 235.516 82.6168 234.614C82.2313 233.713 82.0386 232.746 82.0386 231.713C82.0386 230.681 82.2349 229.721 82.6271 228.833C83.0193 227.945 83.5665 227.164 84.2685 226.49C84.9705 225.816 85.7929 225.292 86.7357 224.921C87.6785 224.549 88.6937 224.363 89.781 224.363C90.4693 224.363 91.1472 224.446 91.8148 224.611C92.4822 224.776 93.1188 225.01 93.7245 225.313C94.3301 225.616 94.867 225.981 95.3349 226.407L93.9517 228.08C93.4011 227.557 92.7576 227.147 92.0212 226.851C91.2848 226.555 90.5381 226.407 89.781 226.407C89.0378 226.407 88.3495 226.545 87.7165 226.82C87.0833 227.096 86.5258 227.474 86.044 227.956C85.5622 228.438 85.1872 228.999 84.9187 229.638C84.6505 230.279 84.5162 230.97 84.5162 231.713C84.5162 232.457 84.6505 233.152 84.9187 233.799C85.1872 234.446 85.5622 235.014 86.044 235.502C86.5258 235.991 87.0866 236.373 87.7268 236.648C88.3667 236.923 89.0584 237.061 89.8017 237.061C90.4763 237.061 91.1747 236.923 91.8973 236.648C92.3331 236.482 92.7425 236.281 93.1257 236.045V231.899H95.2523V237.226ZM98.7002 224.508H101.529L106.525 234.315L111.48 224.508H114.309V238.96H112.058L112.038 227.915L107.289 237.453H105.741L100.951 227.915V238.96H98.7002V224.508ZM127.963 236.912L127.419 235.616H120.167L118.769 238.96H116.229L122.609 224.508H125.107L130.53 236.912C131.321 238.723 130.269 240.981 129.273 242.079C129.242 240.85 128.975 239.318 127.963 236.912ZM126.552 233.551L123.786 226.965L121.031 233.551H126.552Z" fill="#F0F1F7"/>
<path d="M148.32 240.1L163.436 224.984" stroke="#828599"/>
<path d="M163.436 240.1L148.32 224.984" stroke="#828599"/>
<g clip-path="url(#clip1_8617_57382)">
<path d="M190.611 224.134L183.999 220.317L177.388 224.134V220.317L184 216.5L190.612 220.317V224.134H190.611Z" fill="#A435F0"/>
<path d="M177.388 227.34H180.852V235.754C180.852 237.928 182.475 238.987 184 238.987C185.537 238.987 187.148 237.899 187.148 235.725V227.34H190.612V235.954C190.612 237.957 189.982 239.502 188.723 240.562C187.463 241.621 185.889 242.136 183.97 242.136C182.053 242.136 180.479 241.621 179.249 240.562C178.018 239.503 177.388 238.015 177.388 236.04V227.34ZM220.552 237.797C219.504 238.73 218.309 239.188 216.948 239.188C214.463 239.188 212.797 237.772 212.609 235.58H223.799C223.799 235.58 223.874 234.873 223.874 234.209C223.874 232.148 223.215 230.43 221.869 229.028C220.554 227.626 218.837 226.939 216.747 226.939C214.544 226.939 212.74 227.626 211.309 229.028C209.906 230.43 209.191 232.261 209.191 234.552V234.665C209.191 236.926 209.906 238.729 211.309 240.075C212.711 241.42 214.571 242.107 216.833 242.107C219.462 242.107 221.554 241.07 223.124 239.282L220.552 237.797ZM213.97 230.773C214.742 230.172 215.687 229.858 216.746 229.858C217.747 229.858 218.577 230.172 219.294 230.803C219.977 231.377 220.346 232.082 220.378 232.892H212.698C212.809 232.054 213.232 231.349 213.971 230.774L213.97 230.773ZM255.413 244.051C254.008 247.368 252.538 248.497 250.284 248.497H248.722V245.427H249.985C250.76 245.427 251.481 245.135 252.168 243.551L252.855 241.964L246.93 227.34H250.451L254.658 237.872L258.981 227.34H262.5L255.414 244.051L255.413 244.051ZM204.093 221.816V228.646C202.958 227.629 201.193 227.024 199.486 227.024C197.453 227.024 195.737 227.739 194.334 229.198C192.96 230.629 192.273 232.404 192.273 234.55C192.273 236.698 192.96 238.472 194.334 239.931C195.737 241.362 197.454 242.079 199.486 242.079C201.829 242.079 203.31 241.157 204.093 240.436V241.764H207.528V221.817H204.093V221.816ZM203.063 237.7C202.233 238.53 201.174 238.96 199.943 238.96C198.712 238.96 197.711 238.53 196.881 237.7C196.081 236.87 195.679 235.811 195.679 234.552C195.679 233.292 196.08 232.233 196.881 231.403C197.711 230.573 198.712 230.144 199.943 230.144C201.174 230.144 202.233 230.573 203.063 231.403C203.921 232.233 204.352 233.292 204.352 234.552C204.352 235.811 203.921 236.87 203.063 237.7ZM241.591 227.053C238.982 227.053 237.626 228.136 236.697 229.178C236.325 228.47 235.279 227.053 232.834 227.053C230.767 227.053 229.55 228.098 228.941 228.841V227.341H225.537V241.765H228.941V233.465C228.941 231.519 230.144 230.117 231.746 230.117C233.379 230.117 234.322 231.348 234.322 233.322V241.764H237.728V233.464C237.728 231.49 238.901 230.116 240.589 230.116C242.221 230.116 243.165 231.347 243.165 233.32V241.764H246.6V232.834C246.6 229.074 244.578 227.054 241.591 227.054V227.053Z" fill="#F0F1F7"/>
</g>
<defs>
<radialGradient id="paint0_radial_8617_57382" cx="0" cy="0" r="1" gradientUnits="userSpaceOnUse" gradientTransform="translate(154.5 119.5) rotate(90) scale(51.5 144.5)">
<stop stop-color="#6EBD9C"/>
<stop offset="1" stop-color="#6EBD9C" stop-opacity="0"/>
</radialGradient>
<clipPath id="clip0_8617_57382">
<rect width="84.48" height="84.48" fill="white" transform="translate(111.76 77.7598)"/>
</clipPath>
<clipPath id="clip1_8617_57382">
<rect width="85.1119" height="32.0832" fill="white" transform="translate(177.388 216.5)"/>
</clipPath>
</defs>
</svg>
