<svg xmlns="http://www.w3.org/2000/svg" fill="none" viewBox="0 0 1118 390">
    <g clip-path="url(#clip0_5503_119191)">
        <path fill="#28293E" d="M0 0h1118v390H0z"/>
        <g clip-path="url(#clip1_5503_119191)" opacity=".5" style="mix-blend-mode:luminosity">
            <mask id="mask0_5503_119191" width="1109" height="853" x="12" y="-185" maskUnits="userSpaceOnUse"
                  style="mask-type:luminance">
                <path fill="#fff" d="M1120.12-184.84H12.19v852.26h1107.93v-852.25Z"/>
            </mask>
            <g mask="url(#mask0_5503_119191)">
                <path fill="url(#paint0_linear_5503_119191)"
                      d="M1134 20.29s-2.78 10.17-13.15 23.2c-4.17-3.45-14.67-7.5-14.67-7.5s3.44-3.03 8.45-11.3c3.56-5.9 5.79-10.83 5.79-10.83l13.58 6.49v-.06Z"/>
                <path fill="url(#paint1_linear_5503_119191)"
                      d="M882.5 39.15s-8.27-8.27-24.99-16.6c-1.8 4.46-9.05 11.54-9.05 11.54s4.83 1.6 14.06 7.43a168.24 168.24 0 0 1 11.35 7.92l8.63-10.24v-.05Z"/>
                <path fill="url(#paint2_linear_5503_119191)"
                      d="M121.29 201.61s3.01-13.86 14.48-33.43c4.64 3.27 16.47 5.6 16.47 5.6s-3.86 4.81-9.35 16.83c-3.92 8.5-6.4 15.52-6.4 15.52l-15.2-4.58v.06Z"/>
                <path fill="url(#paint3_linear_5503_119191)"
                      d="M793.01 18.32s-6.76-9.22-12.55-26.47c4.4-.95 11.95-6.66 11.95-6.66s.9 4.88 5.25 14.51c3.07 6.9 6.03 12.08 6.03 12.08l-10.68 6.48v.06Z"/>
                <path fill="url(#paint4_linear_5503_119191)"
                      d="M415.51 4.64s-13.45-6.25-28.96-23.38c5.8-4.76 14.06-17.97 14.06-17.97s3.32 5.42 13.57 14.16a160 160 0 0 0 13.64 10.47l-12.3 16.72Z"/>
                <path fill="url(#paint5_linear_5503_119191)"
                      d="M331.15 89.53s-10.07-6.78-21.78-22.19c4.29-2.61 10.32-11.24 10.32-11.24s2.53 4.58 10.26 12.79c5.49 5.83 10.26 10 10.26 10l-9.06 10.58v.06Z"/>
                <path fill="url(#paint6_linear_5503_119191)"
                      d="M286.62 37s-6.76-9.22-12.55-26.47c4.4-.95 11.95-6.66 11.95-6.66s.9 4.88 5.25 14.51c3.08 6.9 6.03 12.08 6.03 12.08l-10.68 6.48V37Z"/>
                <path fill="url(#paint7_linear_5503_119191)"
                      d="M1018.51 238.56s6.39 9.63 11.4 27.3c-4.52.78-12.43 6.13-12.43 6.13s-.66-4.94-4.59-14.93c-2.77-7.08-5.49-12.5-5.49-12.5l11.11-6.06v.06Z"/>
                <path fill="url(#paint8_linear_5503_119191)"
                      d="M914.54 108.8s-7.49 6.5-14.12 20.41c4.64 1.97 12.43 8.93 12.43 8.93s1.08-4.1 6.03-11.66c3.5-5.36 6.76-9.28 6.76-9.28l-11.1-8.45v.06Z"/>
                <path fill="url(#paint9_linear_5503_119191)"
                      d="M978.5 85.49s-.18-11.54-6.15-28.91c-4.17 1.84-13.76 1.78-13.76 1.78s2.23 4.46 4.7 14.87a170.5 170.5 0 0 1 2.6 13.39l12.67-1.2-.06.07Z"/>
                <path fill="url(#paint10_linear_5503_119191)"
                      d="M51.41 136.89s3.02-10.6 14.06-23.98c4.28 3.7 15.2 8.03 15.2 8.03s-3.67 3.1-8.98 11.66a117.2 117.2 0 0 0-6.22 11.25l-14.06-6.96Z"/>
                <path fill="url(#paint11_linear_5503_119191)"
                      d="M809.9 162.17s-3.01-11.72-13.4-28.02c-3.8 2.86-13.5 5.06-13.5 5.06s3.37 4.04 8.44 14.1a162.7 162.7 0 0 1 5.91 13.03l12.55-4.17Z"/>
                <path fill="url(#paint12_linear_5503_119191)"
                      d="M621.52 7.02s3.5-13.5 1.87-35.63c-5.67.89-17.26-2.03-17.26-2.03s1.33 5.9.9 18.86a174.4 174.4 0 0 1-1.2 16.42l15.69 2.44v-.06Z"/>
                <path fill="url(#paint13_linear_5503_119191)"
                      d="M923.59 50.39s-9.3 10.83-17.92 31.77c5.49 1.6 14.6 9.4 14.6 9.4s1.5-5.95 7.78-17.61c4.4-8.27 8.57-14.52 8.57-14.52l-12.97-9.04h-.06Z"/>
                <path fill="url(#paint14_linear_5503_119191)"
                      d="M975.66 145.75c12.07 4.58 26.61-3.98 27.7-12.25 0 0 1.75 2.97 1.99 5.65.36 3.33-4.83 9.81-4.83 9.81s-10.01 12.02-26.3 7.44l1.44-10.65Z"/>
                <path fill="url(#paint15_linear_5503_119191)"
                      d="m1038.48 56.64.96-8.57c.37-2.62.67-5.65-.96-7.74-10.92-13.62-41.21-6.48-51.3-27-.41-.84-1.68-.66-1.8.3l-1.33 9.57c-.18 1.49 1.09 3.1 2.54 4.76 14.24 16.84 51.71 5.3 51.95 28.68h-.06Z"/>
                <path fill="url(#paint16_linear_5503_119191)"
                      d="M1000.52 148.96s4.71-3.33 6.04-13.02c3.86-28.8-29.2-22.9-34.52-52.83 0 0-.84 1.3-2.05 4.76-1.45 4.22-.9 10.35 1.15 14.33.18.36.36.72.54 1.02 10.08 14.99 29.81 13.2 31.86 33.13.3 3.22-1.08 8.75-3.02 12.73v-.12Z"/>
                <path fill="url(#paint17_linear_5503_119191)"
                      d="M970.3 100.24s-1.27-2.2-1.15-7.38c.24-9.22 4.46-12.55 7.24-15.64 19-21.6 51.83-10.89 63.24-33.97 0 0 .24 1.07.06 2.91a394 394 0 0 1-1.33 11.55c-.3 2.26-2.11 3.39-3.8 4.76-11.23 8.98-29.63 7.9-45.2 16.89-5.85 3.4-12.8 6.6-17.26 13.5-1.2 1.85-1.87 3.75-1.87 7.44l.06-.06Z"/>
                <path fill="url(#paint18_linear_5503_119191)"
                      d="m1067.68 2.97-1.75 11.01c-15.44-13.33-42.96-18.74-60.82-9.93-12.67 6.24-19.91 10.47-21.06 19.1l1.33-9.7c.3-2.5 1.57-6.31 3.08-8.27 17.68-23.15 50.56-21.24 79.22-2.2Z"/>
                <path fill="url(#paint19_linear_5503_119191)"
                      d="m29.27 15.17 4.52 7.38c1.33 2.32 3.38 8.15 6.04 8.68C57.26 34.5 77.78 8.21 98.84 17.5c.84.36 1.39-3.87.9-4.7l-4.82-8.45c-.73-1.3-2.78-1.72-5.01-2.08-22.15-3.5-45.86 31.11-60.58 12.91h-.06Z"/>
                <path fill="url(#paint20_linear_5503_119191)"
                      d="M58.47-65.74s2.41.9 5.5 5.06c5.54 7.44 5.66 16.06 5.36 20.4-2.29 30-37.35 42.78-32.46 68.73 0 0-1.03-1.67-2.05-3.22-1.45-2.2-6.04-11-6.04-11-1.14-2.02-.36-4.1.18-6.3 3.68-14.7 19.5-26.48 26.74-44.15 2.71-6.66 6.45-13.98 5.85-22.37-.18-2.26-.79-4.22-3.08-7.14Z"/>
                <path fill="url(#paint21_linear_5503_119191)"
                      d="m38.74 79.6-7.18-14.28c20.94 0 49.48-10.83 58.77-29.98 6.58-13.57 8.87-23.44 4.47-31l4.94 8.51c1.27 2.2 2.9 8.33 2.9 10.95-.24 30.28-28.54 51.28-63.9 55.8Z"/>
                <path fill="url(#paint22_linear_5503_119191)"
                      d="M22.2 93.46s-9.05-.6-22.2-6.3c1.87-3.52 2.78-11.73 2.78-11.73s3.31 2.09 11.28 4.58a127.58 127.58 0 0 0 10.32 2.68L22.2 93.46Z"/>
                <path fill="url(#paint23_linear_5503_119191)"
                      d="M192.43 29.45s6.4 9.75 11.04 27.66c-4.82.77-13.4 6.25-13.4 6.25s-.54-5-4.28-15.11a168.79 168.79 0 0 0-5.37-12.67l12-6.13Z"/>
            </g>
        </g>
        <g clip-path="url(#clip2_5503_119191)" opacity=".2">
            <path fill="url(#paint24_radial_5503_119191)"
                  d="m598.84 446.86 1464.34 178.86c22.89-87.47 35.23-174.08 37.82-259.03L598.84 446.86Z"/>
            <path fill="url(#paint25_radial_5503_119191)"
                  d="M-695.68-227.23C-753.28-154.96-803.58-77.9-845.45 3.2l2.12-3.12L525.26 432.66-695.68-227.23Z"/>
            <path fill="url(#paint26_radial_5503_119191)"
                  d="M522.14 446.86-946.18 265.21C-969 352.7-981.4 439.3-984 524.25l1506.14-77.46v.07Z"/>
            <path fill="url(#paint27_radial_5503_119191)"
                  d="m602.1 419.52 1259.75-767 3.46 2.58c-51.63-66.1-110.95-127.49-177.24-183.24L602.1 419.52Z"/>
            <path fill="url(#paint28_radial_5503_119191)"
                  d="M8.01-737.46 548.55 407.11 285.3-824A1857.92 1857.92 0 0 0 3.1-736.4l4.9-1.06Z"/>
            <path fill="url(#paint29_radial_5503_119191)"
                  d="m597.78-866.48-29 1271 328.8-1261.04a1786.77 1786.77 0 0 0-304.97-10.02h5.17v.06Z"/>
            <path fill="url(#paint30_radial_5503_119191)"
                  d="M-265.44-602.2a1720.47 1720.47 0 0 0-230.65 167.7l3.98-2.19L533.22 418.27-265.44-602.2Z"/>
            <path fill="url(#paint31_radial_5503_119191)"
                  d="m2076.51 104.87 1.6 3.32a1082.54 1082.54 0 0 0-78.63-234.54l-1393.4 561.2 1470.37-329.98h.06Z"/>
            <path fill="url(#paint32_radial_5503_119191)"
                  d="m588.7 408.04 867.72-1091.88 4.58 1.66c-79.89-43.2-166.02-79.7-257.52-108.77L588.69 408.04Z"/>
        </g>
    </g>
    <defs>
        <linearGradient id="paint0_linear_5503_119191" x1="1112.38" x2="1125.01" y1="46.4" y2="15.86"
                        gradientUnits="userSpaceOnUse">
            <stop stop-color="#F9A000"/>
            <stop offset=".17" stop-color="#F9A402"/>
            <stop offset=".37" stop-color="#FAB20B"/>
            <stop offset=".57" stop-color="#FCC818"/>
            <stop offset=".72" stop-color="#FFDE26"/>
            <stop offset=".98" stop-color="#FFE42D"/>
        </linearGradient>
        <linearGradient id="paint1_linear_5503_119191" x1="855.74" x2="882.3" y1="27.29" y2="52.88"
                        gradientUnits="userSpaceOnUse">
            <stop stop-color="#F9A000"/>
            <stop offset=".17" stop-color="#F9A402"/>
            <stop offset=".37" stop-color="#FAB20B"/>
            <stop offset=".57" stop-color="#FCC818"/>
            <stop offset=".72" stop-color="#FFDE26"/>
            <stop offset=".98" stop-color="#FFE42D"/>
        </linearGradient>
        <linearGradient id="paint2_linear_5503_119191" x1="136.89" x2="127.07" y1="179.18" y2="222.74"
                        gradientUnits="userSpaceOnUse">
            <stop stop-color="#F9A000"/>
            <stop offset=".17" stop-color="#F9A402"/>
            <stop offset=".37" stop-color="#FAB20B"/>
            <stop offset=".57" stop-color="#FCC818"/>
            <stop offset=".72" stop-color="#FFDE26"/>
            <stop offset=".98" stop-color="#FFE42D"/>
        </linearGradient>
        <linearGradient id="paint3_linear_5503_119191" x1="769.39" x2="790.3" y1="-11.35" y2="18.1"
                        gradientUnits="userSpaceOnUse">
            <stop stop-color="#C1272D"/>
            <stop offset=".49" stop-color="#C1272D"/>
            <stop offset=".69" stop-color="#E12815"/>
            <stop offset=".87" stop-color="#F72905"/>
            <stop offset=".98" stop-color="#FF2A00"/>
        </linearGradient>
        <linearGradient id="paint4_linear_5503_119191" x1="384.12" x2="422.88" y1="-30.7" y2="-5.34"
                        gradientUnits="userSpaceOnUse">
            <stop stop-color="#F9A000"/>
            <stop offset=".17" stop-color="#F9A402"/>
            <stop offset=".37" stop-color="#FAB20B"/>
            <stop offset=".57" stop-color="#FCC818"/>
            <stop offset=".72" stop-color="#FFDE26"/>
            <stop offset=".98" stop-color="#FFE42D"/>
        </linearGradient>
        <linearGradient id="paint5_linear_5503_119191" x1="316.85" x2="347.66" y1="50.19" y2="73.1"
                        gradientUnits="userSpaceOnUse">
            <stop stop-color="#C1272D"/>
            <stop offset=".49" stop-color="#C1272D"/>
            <stop offset=".69" stop-color="#E12815"/>
            <stop offset=".87" stop-color="#F72905"/>
            <stop offset=".98" stop-color="#FF2A00"/>
        </linearGradient>
        <linearGradient id="paint6_linear_5503_119191" x1="264.51" x2="285.42" y1="6.68" y2="36.13"
                        gradientUnits="userSpaceOnUse">
            <stop stop-color="#C1272D"/>
            <stop offset=".49" stop-color="#C1272D"/>
            <stop offset=".69" stop-color="#E12815"/>
            <stop offset=".87" stop-color="#F72905"/>
            <stop offset=".98" stop-color="#FF2A00"/>
        </linearGradient>
        <linearGradient id="paint7_linear_5503_119191" x1="1022.94" x2="1003.26" y1="276.56" y2="245.86"
                        gradientUnits="userSpaceOnUse">
            <stop stop-color="#0091E5"/>
            <stop offset=".28" stop-color="#008CE1"/>
            <stop offset=".6" stop-color="#007ED8"/>
            <stop offset=".93" stop-color="#0068C8"/>
            <stop offset="1" stop-color="#0063C4"/>
        </linearGradient>
        <linearGradient id="paint8_linear_5503_119191" x1="901.14" x2="921.16" y1="137.37" y2="113.79"
                        gradientUnits="userSpaceOnUse">
            <stop stop-color="#F9A000"/>
            <stop offset=".17" stop-color="#F9A402"/>
            <stop offset=".37" stop-color="#FAB20B"/>
            <stop offset=".57" stop-color="#FCC818"/>
            <stop offset=".72" stop-color="#FFDE26"/>
            <stop offset=".98" stop-color="#FFE42D"/>
        </linearGradient>
        <linearGradient id="paint9_linear_5503_119191" x1="965.59" x2="966.45" y1="50.25" y2="86.55"
                        gradientUnits="userSpaceOnUse">
            <stop stop-color="#C1272D"/>
            <stop offset=".49" stop-color="#C1272D"/>
            <stop offset=".69" stop-color="#E12815"/>
            <stop offset=".87" stop-color="#F72905"/>
            <stop offset=".98" stop-color="#FF2A00"/>
        </linearGradient>
        <linearGradient id="paint10_linear_5503_119191" x1="74.36" x2="60.76" y1="109.94" y2="141.66"
                        gradientUnits="userSpaceOnUse">
            <stop stop-color="#0091E5"/>
            <stop offset=".28" stop-color="#008CE1"/>
            <stop offset=".6" stop-color="#007ED8"/>
            <stop offset=".93" stop-color="#0068C8"/>
            <stop offset="1" stop-color="#0063C4"/>
        </linearGradient>
        <linearGradient id="paint11_linear_5503_119191" x1="792.57" x2="802.07" y1="126.86" y2="163.85"
                        gradientUnits="userSpaceOnUse">
            <stop stop-color="#F9A000"/>
            <stop offset=".17" stop-color="#F9A402"/>
            <stop offset=".37" stop-color="#FAB20B"/>
            <stop offset=".57" stop-color="#FCC818"/>
            <stop offset=".72" stop-color="#FFDE26"/>
            <stop offset=".98" stop-color="#FFE42D"/>
        </linearGradient>
        <linearGradient id="paint12_linear_5503_119191" x1="617.96" x2="608.23" y1="-34.29" y2="8.61"
                        gradientUnits="userSpaceOnUse">
            <stop stop-color="#F9A000"/>
            <stop offset=".17" stop-color="#F9A402"/>
            <stop offset=".37" stop-color="#FAB20B"/>
            <stop offset=".57" stop-color="#FCC818"/>
            <stop offset=".72" stop-color="#FFDE26"/>
            <stop offset=".98" stop-color="#FFE42D"/>
        </linearGradient>
        <linearGradient id="paint13_linear_5503_119191" x1="913.96" x2="942.08" y1="78.51" y2="43.55"
                        gradientUnits="userSpaceOnUse">
            <stop stop-color="#0091E5"/>
            <stop offset=".28" stop-color="#008CE1"/>
            <stop offset=".6" stop-color="#007ED8"/>
            <stop offset=".93" stop-color="#0068C8"/>
            <stop offset="1" stop-color="#0063C4"/>
        </linearGradient>
        <linearGradient id="paint14_linear_5503_119191" x1="1002.3" x2="974.46" y1="143.09" y2="151.25"
                        gradientUnits="userSpaceOnUse">
            <stop stop-color="#F9A000"/>
            <stop offset=".17" stop-color="#F9A402"/>
            <stop offset=".37" stop-color="#FAB20B"/>
            <stop offset=".57" stop-color="#FCC818"/>
            <stop offset=".72" stop-color="#FFDE26"/>
            <stop offset=".98" stop-color="#FFE42D"/>
        </linearGradient>
        <linearGradient id="paint15_linear_5503_119191" x1="983.21" x2="1040.32" y1="17.95" y2="50.55"
                        gradientUnits="userSpaceOnUse">
            <stop stop-color="#F9A000"/>
            <stop offset=".17" stop-color="#F9A402"/>
            <stop offset=".37" stop-color="#FAB20B"/>
            <stop offset=".57" stop-color="#FCC818"/>
            <stop offset=".72" stop-color="#FFDE26"/>
            <stop offset=".98" stop-color="#FFE42D"/>
        </linearGradient>
        <linearGradient id="paint16_linear_5503_119191" x1="967.85" x2="1006.48" y1="95.4" y2="140.06"
                        gradientUnits="userSpaceOnUse">
            <stop stop-color="#F9A000"/>
            <stop offset=".17" stop-color="#F9A402"/>
            <stop offset=".37" stop-color="#FAB20B"/>
            <stop offset=".57" stop-color="#FCC818"/>
            <stop offset=".72" stop-color="#FFDE26"/>
            <stop offset=".98" stop-color="#FFE42D"/>
        </linearGradient>
        <linearGradient id="paint17_linear_5503_119191" x1="1035.85" x2="972.35" y1="75.75" y2="67.25"
                        gradientUnits="userSpaceOnUse">
            <stop stop-color="#F9A000"/>
            <stop offset=".17" stop-color="#F9A402"/>
            <stop offset=".37" stop-color="#FAB20B"/>
            <stop offset=".57" stop-color="#FCC818"/>
            <stop offset=".72" stop-color="#FFDE26"/>
            <stop offset=".98" stop-color="#FFE42D"/>
        </linearGradient>
        <linearGradient id="paint18_linear_5503_119191" x1="1066.16" x2="986.63" y1="13.51" y2="2.86"
                        gradientUnits="userSpaceOnUse">
            <stop stop-color="#F9A000"/>
            <stop offset=".17" stop-color="#F9A402"/>
            <stop offset=".37" stop-color="#FAB20B"/>
            <stop offset=".57" stop-color="#FCC818"/>
            <stop offset=".72" stop-color="#FFDE26"/>
            <stop offset=".98" stop-color="#FFE42D"/>
        </linearGradient>
        <linearGradient id="paint19_linear_5503_119191" x1="99.64" x2="32.62" y1="10.4" y2="21.84"
                        gradientUnits="userSpaceOnUse">
            <stop stop-color="#F9A000"/>
            <stop offset=".17" stop-color="#F9A402"/>
            <stop offset=".37" stop-color="#FAB20B"/>
            <stop offset=".57" stop-color="#FCC818"/>
            <stop offset=".72" stop-color="#FFDE26"/>
            <stop offset=".98" stop-color="#FFE42D"/>
        </linearGradient>
        <linearGradient id="paint20_linear_5503_119191" x1="26.54" x2="60.92" y1="19.49" y2="-43.08"
                        gradientUnits="userSpaceOnUse">
            <stop stop-color="#F9A000"/>
            <stop offset=".17" stop-color="#F9A402"/>
            <stop offset=".37" stop-color="#FAB20B"/>
            <stop offset=".57" stop-color="#FCC818"/>
            <stop offset=".72" stop-color="#FFDE26"/>
            <stop offset=".98" stop-color="#FFE42D"/>
        </linearGradient>
        <linearGradient id="paint21_linear_5503_119191" x1="32.3" x2="109.8" y1="67.42" y2="19.38"
                        gradientUnits="userSpaceOnUse">
            <stop stop-color="#F9A000"/>
            <stop offset=".17" stop-color="#F9A402"/>
            <stop offset=".37" stop-color="#FAB20B"/>
            <stop offset=".57" stop-color="#FCC818"/>
            <stop offset=".72" stop-color="#FFDE26"/>
            <stop offset=".98" stop-color="#FFE42D"/>
        </linearGradient>
        <linearGradient id="paint22_linear_5503_119191" x1="-12.05" x2="16.31" y1="90.96" y2="94.74"
                        gradientUnits="userSpaceOnUse">
            <stop stop-color="#F9A000"/>
            <stop offset=".17" stop-color="#F9A402"/>
            <stop offset=".37" stop-color="#FAB20B"/>
            <stop offset=".57" stop-color="#FCC818"/>
            <stop offset=".72" stop-color="#FFDE26"/>
            <stop offset=".98" stop-color="#FFE42D"/>
        </linearGradient>
        <linearGradient id="paint23_linear_5503_119191" x1="200.27" x2="181.45" y1="62.81" y2="31.32"
                        gradientUnits="userSpaceOnUse">
            <stop stop-color="#C1272D"/>
            <stop offset=".49" stop-color="#C1272D"/>
            <stop offset=".69" stop-color="#E12815"/>
            <stop offset=".87" stop-color="#F72905"/>
            <stop offset=".98" stop-color="#FF2A00"/>
        </linearGradient>
        <radialGradient id="paint24_radial_5503_119191" cx="0" cy="0" r="1"
                        gradientTransform="matrix(1388 87 -193 3076 632.71 449.5)" gradientUnits="userSpaceOnUse">
            <stop stop-color="#28293E"/>
            <stop offset=".53" stop-color="#6063F6"/>
            <stop offset="1" stop-color="#28293E"/>
            <stop offset="1" stop-color="#28293E"/>
        </radialGradient>
        <radialGradient id="paint25_radial_5503_119191" cx="0" cy="0" r="1"
                        gradientTransform="matrix(-1196 -544 1500 -3302 477.1 397.61)" gradientUnits="userSpaceOnUse">
            <stop stop-color="#28293E"/>
            <stop offset=".53" stop-color="#6063F6"/>
            <stop offset="1" stop-color="#28293E"/>
            <stop offset="1" stop-color="#28293E"/>
        </radialGradient>
        <radialGradient id="paint26_radial_5503_119191" cx="0" cy="0" r="1"
                        gradientTransform="matrix(-1432 -93 205 -3170 522.6 449.5)" gradientUnits="userSpaceOnUse">
            <stop stop-color="#28293E"/>
            <stop offset=".53" stop-color="#6063F6"/>
            <stop offset="1" stop-color="#28293E"/>
            <stop offset="1" stop-color="#28293E"/>
        </radialGradient>
        <radialGradient id="paint27_radial_5503_119191" cx="0" cy="0" r="1"
                        gradientTransform="rotate(116 176.25 387.57) scale(961 2166)" gradientUnits="userSpaceOnUse">
            <stop stop-color="#28293E"/>
            <stop offset=".53" stop-color="#6063F6"/>
            <stop offset="1" stop-color="#28293E"/>
            <stop offset="1" stop-color="#28293E"/>
        </radialGradient>
        <radialGradient id="paint28_radial_5503_119191" cx="0" cy="0" r="1"
                        gradientTransform="matrix(-373 -1147 1037 -337 548.42 406.15)" gradientUnits="userSpaceOnUse">
            <stop stop-color="#28293E"/>
            <stop offset=".53" stop-color="#6063F6"/>
            <stop offset="1" stop-color="#28293E"/>
            <stop offset="1" stop-color="#28293E"/>
        </radialGradient>
        <radialGradient id="paint29_radial_5503_119191" cx="0" cy="0" r="1"
                        gradientTransform="rotate(95 113.03 446.9) scale(1166 624)" gradientUnits="userSpaceOnUse">
            <stop stop-color="#28293E"/>
            <stop offset=".53" stop-color="#6063F6"/>
            <stop offset="1" stop-color="#28293E"/>
            <stop offset="1" stop-color="#28293E"/>
        </radialGradient>
        <radialGradient id="paint30_radial_5503_119191" cx="0" cy="0" r="1"
                        gradientTransform="matrix(-907 -986 1832 -1684 533.76 417.57)" gradientUnits="userSpaceOnUse">
            <stop stop-color="#28293E"/>
            <stop offset=".53" stop-color="#6063F6"/>
            <stop offset="1" stop-color="#28293E"/>
            <stop offset="1" stop-color="#28293E"/>
        </radialGradient>
        <radialGradient id="paint31_radial_5503_119191" cx="0" cy="0" r="1"
                        gradientTransform="matrix(-1377 434 -1244 -3944 2078.66 -42.15)" gradientUnits="userSpaceOnUse">
            <stop stop-color="#28293E"/>
            <stop offset=".64" stop-color="#6063F6"/>
            <stop offset="1" stop-color="#28293E"/>
        </radialGradient>
        <radialGradient id="paint32_radial_5503_119191" cx="0" cy="0" r="1"
                        gradientTransform="matrix(-290 1093 -1554 -412 588.46 381.41)" gradientUnits="userSpaceOnUse">
            <stop stop-color="#28293E"/>
            <stop offset=".53" stop-color="#6063F6"/>
            <stop offset="1" stop-color="#28293E"/>
            <stop offset="1" stop-color="#28293E"/>
        </radialGradient>
        <clipPath id="clip0_5503_119191">
            <path fill="#fff" d="M0 0h1118v390H0z"/>
        </clipPath>
        <clipPath id="clip1_5503_119191">
            <path fill="#fff" d="M0 0h1134v258H0z"/>
        </clipPath>
        <clipPath id="clip2_5503_119191">
            <path fill="#fff" d="M-984-869h3085v2629H-984z"/>
        </clipPath>
    </defs>
</svg>