<svg width="87" height="30" viewBox="0 0 87 30" fill="none" xmlns="http://www.w3.org/2000/svg">
<g id="Group">
<g id="Digma-white1">
<g id="Group_2">
<g id="Group_3">
<path id="Vector" d="M25.8219 14.7957C25.6787 12.292 20.0996 6.85227 19.1947 5.99594C18.2898 5.13919 16.7768 2.95568 16.3336 2.98623C15.8665 3.02892 16.6035 7.42817 16.6604 10.5752C16.7178 13.7226 16.0205 14.8099 15.779 14.7509C15.5375 14.6919 14.7184 14.5722 14.7184 14.5722C14.7184 14.5722 13.8977 14.6902 13.6583 14.7509C13.4184 14.8116 12.7157 13.7242 12.7785 10.5752C12.8408 7.4265 13.5725 3.02892 13.102 2.98623C12.6621 2.95233 11.1474 5.13208 10.2409 5.99594C9.33432 6.85938 3.76063 12.2866 3.61749 14.7957C3.5049 16.7804 4.27208 17.3526 5.95629 18.1503C7.64091 18.9476 8.16827 19.1874 8.04857 19.6235C7.92886 20.0601 6.84317 20.2405 6.78248 21.3098C6.7218 22.3792 6.9792 24.0797 9.93534 25.3655C12.8911 26.6512 13.8692 27.0145 14.7184 27.0145C15.5681 27.0145 16.5462 26.6567 19.5019 25.3655C22.4581 24.0747 22.5941 22 22.5422 20.9327C22.4903 19.865 21.5193 20.0601 21.3996 19.6235C21.2794 19.1874 21.8051 18.9476 23.4898 18.1503C25.1744 17.3526 25.9344 16.7804 25.8219 14.7957Z" fill="#6271B6"/>
</g>
<g id="Group_4">
<path id="Vector_2" d="M22.4045 20.965C22.3455 19.9421 21.3904 20.1296 21.2707 19.7132C21.2695 19.7036 21.2695 19.6939 21.2707 19.6847L19.2391 19.1482L15.435 18.6602C15.435 18.6602 14.51 19.2532 14.785 19.2716C15.2601 19.3034 15.2919 19.8342 15.6066 20.1485C15.9218 20.4628 17.2921 22.2525 19.1161 22.1918C20.9401 22.1307 21.4942 20.8022 22.0931 21.5749C22.4259 22.0039 21.557 23.9907 19.9314 24.4912C18.3058 24.9918 17.0096 25.5141 16.1654 25.7431C15.217 25.9787 14.2296 26.0147 13.2666 25.8485C12.319 25.6698 8.86395 24.6771 8.79614 24.6557C9.15399 24.8754 9.52942 25.0646 9.91908 25.2207C12.8501 26.4529 13.814 26.7999 14.6632 26.7999C15.5129 26.7999 16.4713 26.4546 19.3986 25.2153C22.3259 23.9764 22.4636 21.9842 22.4045 20.965Z" fill="#353F6E"/>
</g>
<g id="Group_5">
<path id="Vector_3" d="M8.47437 20.5034C8.47437 20.5034 9.15575 22.1558 12.4497 21.8733C12.8607 21.8382 12.9247 21.4079 13.036 21.1091C13.2156 20.6252 13.5341 20.4712 13.8417 20.1493C14.141 19.8367 14.3528 19.3345 14.7822 19.2633C15.3702 19.1662 15.4142 18.3907 15.3983 17.8482C15.3501 16.1942 13.2097 14.7778 13.2097 14.7778L8.47437 20.5034Z" fill="#353F6E"/>
</g>
<g id="Group_6">
<path id="Vector_4" d="M14.6097 19.7382C14.6097 19.6721 14.5364 19.647 14.5059 19.7022C14.395 19.8935 14.2933 20.33 14.0874 20.5125C13.8195 20.7465 13.4922 21.0382 13.6081 21.3437C13.7245 21.6497 14.0555 21.437 14.3234 21.2261C14.4343 21.1349 14.5025 21.083 14.549 21.047C14.5712 21.0298 14.5892 21.0076 14.6013 20.9821C14.6135 20.9566 14.6193 20.9285 14.6185 20.9005L14.6097 19.7382Z" fill="#353F6E"/>
</g>
<g id="Group_7">
<path id="Vector_5" d="M14.8349 19.6968C14.8349 19.6307 14.9065 19.6056 14.9387 19.6613C15.0496 19.8525 15.1513 20.2907 15.3573 20.4711C15.6234 20.7055 15.9507 20.9968 15.8365 21.3028C15.7218 21.6083 15.3895 21.3974 15.1212 21.1864C15.0103 21.0952 14.9425 21.0416 14.896 21.0077C14.8734 20.9905 14.8554 20.9684 14.8433 20.9428C14.8312 20.9173 14.8253 20.8893 14.8261 20.8612L14.8349 19.6968Z" fill="#353F6E"/>
</g>
<g id="Group_8">
<path id="Vector_6" d="M18.4686 22.7568C18.4686 22.7568 18.4686 23.9208 18.3954 24.1121C18.7135 24.0405 19.4074 23.4667 19.5648 23.0393C19.2304 22.8443 18.4686 22.7568 18.4686 22.7568Z" fill="#4F5DA3"/>
</g>
<g id="Group_9">
<path id="Vector_7" d="M18.3397 22.6995C18.3284 23.0594 18.2919 23.4177 18.2308 23.7726C18.5489 23.701 19.1123 23.3612 19.2697 22.941C18.9775 22.8033 18.6619 22.7216 18.3397 22.6995Z" fill="#F3F3F3"/>
</g>
<g id="Group_10">
<path id="Vector_8" d="M21.4014 22.9853C20.9096 23.3913 20.1031 23.2377 19.243 23.0088C19.13 22.9021 18.9893 22.8292 18.837 22.7978C18.6717 22.7572 18.5009 22.7439 18.331 22.7585C18.1845 22.7409 18.0405 22.7066 17.902 22.6564C16.854 22.0809 15.0676 22.0842 15.0676 22.0842C15.0676 22.0842 13.5174 22.0842 12.2869 22.6618C11.1066 23.2197 9.49728 23.5935 8.74266 22.9853C8.50325 22.7669 8.31909 22.494 8.20609 22.1897C8.15963 22.0738 8.30612 21.9859 8.37057 22.0897C8.63174 22.5099 9.00927 22.6869 9.5203 22.7782C10.9191 23.0268 12.6267 21.8733 15.0639 21.8733C17.5014 21.8733 19.343 22.6191 20.6074 22.7782C21.1243 22.8443 21.5014 22.5099 21.7572 22.0897C21.8216 21.9859 21.9681 22.0738 21.9216 22.1897C21.8145 22.4931 21.6362 22.766 21.4014 22.9853Z" fill="#353F6E"/>
</g>
<g id="Group_11">
<path id="Vector_9" d="M13.9676 23.2896C13.7889 23.1628 14.1463 22.8782 14.9671 22.8782C15.7272 22.8782 16.0243 23.1251 15.9829 23.236C15.908 23.4311 15.3287 23.1929 14.9441 23.1929C14.5594 23.1929 14.1463 23.4147 13.9676 23.2896Z" fill="#353F6E"/>
</g>
<g id="Group_12">
<path id="Vector_10" d="M12.6104 3.55298C12.6104 3.55298 10.0334 6.93644 8.82843 8.1435C7.62304 9.35057 5.14277 12.5068 4.63508 13.3777C4.12697 14.2483 3.48158 16.2887 5.35036 17.4581C4.41702 15.1854 6.2067 14.5204 6.78093 14.6258C7.35475 14.7313 7.30285 16.7859 7.30285 16.7859L8.22908 17.9984L11.6268 17.7623L13.5152 15.01L12.8251 14.3663C12.1198 13.8197 11.2777 13.4778 10.3913 13.3777C8.92135 13.2204 8.37431 13.2685 8.37431 13.2685C8.37431 13.2685 8.58358 11.8986 10.123 12.1364C9.67597 11.4713 9.51693 7.97358 12.6104 3.55298Z" fill="#353F6E"/>
</g>
<g id="Group_13">
<path id="Vector_11" d="M17.4691 5.94019C17.4691 5.94019 17.8462 8.53638 17.8659 10.0871C17.8856 11.6373 18.2434 14.0406 17.5692 14.6755C16.8949 15.3104 17.9785 15.5695 17.9785 15.5695L22.1379 18.1464C22.1379 18.1464 23.1805 17.9677 23.6777 17.6367C24.1746 17.306 24.9794 16.7535 25.128 16.0864C24.4537 16.7732 23.8761 17.2897 23.4095 16.723C22.9428 16.1563 23.2663 13.4542 21.5424 12.1329C21.8303 12.7389 21.4729 13.7422 20.7969 13.6241C20.121 13.5061 19.0587 11.9039 18.7959 10.5395C18.5331 9.17507 17.4691 5.94019 17.4691 5.94019Z" fill="#353F6E"/>
</g>
<g id="Group_14">
<path id="Vector_12" d="M7.01148 15.7646L5.22306 14.1859C5.0682 14.0465 4.97445 13.8515 4.96315 13.6431C4.95143 13.4351 5.02342 13.2308 5.16238 13.0751C5.23143 12.9977 5.31556 12.9349 5.4089 12.8897C5.50265 12.8449 5.60393 12.819 5.70773 12.8131C5.81153 12.8077 5.91533 12.8223 6.01327 12.8571C6.1112 12.8914 6.20119 12.945 6.2782 13.0144L8.03984 14.5701C7.60204 14.8761 7.2488 15.2867 7.01148 15.7646Z" fill="#F3F3F3"/>
</g>
<g id="Group_15">
<path id="Vector_13" d="M14.42 17.7656V17.7799C14.42 18.7923 14.0186 19.7633 13.3042 20.4803C12.5893 21.1972 11.6196 21.6015 10.6075 21.6049C11.6212 21.5978 12.5906 21.1905 13.305 20.4711C14.0191 19.752 14.42 18.7793 14.42 17.7656Z" fill="#CCCCCC"/>
</g>
<g id="Group_16">
<path id="Vector_14" d="M6.77002 17.7229C6.77002 17.6334 6.77002 17.5438 6.78258 17.458C6.77713 17.5459 6.77002 17.6334 6.77002 17.7229Z" fill="#CCCCCC"/>
</g>
<g id="Group_17">
<path id="Vector_15" d="M10.595 21.6049C9.58048 21.6049 8.60738 21.2023 7.88958 20.4849C7.1722 19.7676 6.76873 18.7949 6.76831 17.7799V17.7603C6.76706 18.7773 7.16886 19.7533 7.88665 20.4741C8.60403 21.1952 9.57797 21.6016 10.595 21.6049Z" fill="#CCCCCC"/>
</g>
<g id="Group_18">
<path id="Vector_16" d="M6.76999 17.7226C6.76999 17.6335 6.76999 17.5439 6.78254 17.4581C6.82649 16.8901 6.996 16.3394 7.2781 15.8446C7.56061 15.3499 7.9486 14.9239 8.41527 14.597C9.0527 14.1462 9.81403 13.903 10.595 13.9014C11.6129 13.9051 12.5877 14.3132 13.3051 15.0352C14.0224 15.7576 14.4234 16.7353 14.4201 17.7532V17.7657C14.4201 18.7794 14.0191 19.7517 13.3051 20.4712C12.591 21.1902 11.6213 21.5979 10.6076 21.605H10.595C9.57797 21.6016 8.60403 21.1948 7.88665 20.4741C7.16886 19.7534 6.76706 18.7773 6.76831 17.7603C6.76831 17.7423 6.76999 17.7335 6.76999 17.7226Z" fill="#F3F3F3"/>
</g>
<g id="Group_19">
<path id="Vector_17" d="M10.6093 20.9432C12.3358 20.9432 13.7354 19.544 13.7354 17.8175C13.7354 16.0911 12.3358 14.6919 10.6093 14.6919C8.88324 14.6919 7.48364 16.0911 7.48364 17.8175C7.48364 19.544 8.88324 20.9432 10.6093 20.9432Z" fill="#353F6E"/>
</g>
<g id="Group_20">
<path id="Vector_18" d="M7.78198 15.7252L13.7353 16.489L13.1309 15.7252C13.1309 15.7252 12.2796 14.9295 12.2239 14.9099C12.1687 14.8902 11.3534 14.4737 10.983 14.4737C10.613 14.4737 9.742 14.159 9.37369 14.3448C9.00537 14.5307 7.78408 15.6218 7.78408 15.6218L7.78198 15.7252Z" fill="#F3F3F3"/>
</g>
<g id="Group_21">
<path id="Vector_19" d="M13.1377 15.8005L9.06067 18.5131L12.7283 17.1579L11.3944 18.3469L14.025 17.365L13.1377 15.8005Z" fill="#F3F3F3"/>
</g>
<g id="Group_22">
<path id="Vector_20" d="M7.192 15.5755C7.192 15.5755 5.55048 14.0947 5.50068 14.0411C5.4492 13.962 5.4199 13.8708 5.41529 13.7766C5.41027 13.6824 5.43078 13.5883 5.47389 13.5046C5.57936 13.356 5.49524 13.6117 5.57225 13.7871C5.64884 13.9624 7.58752 15.0389 7.58752 15.0389L7.192 15.5755Z" fill="#353F6E"/>
</g>
<g id="Group_23">
<path id="Vector_21" d="M22.4331 15.7253L24.1784 14.186C24.3299 14.0495 24.4215 13.8591 24.4324 13.6552C24.4437 13.4518 24.3734 13.2522 24.2374 13.1003C24.1014 12.9492 23.9109 12.8579 23.7079 12.8471C23.5045 12.8362 23.3053 12.9061 23.1538 13.0413L21.4336 14.5597C21.8588 14.8585 22.2025 15.2595 22.4331 15.7253Z" fill="#F3F3F3"/>
</g>
<g id="Group_24">
<path id="Vector_22" d="M15.1069 17.7656V17.7799C15.1069 18.7923 15.5079 19.7633 16.2228 20.4803C16.9372 21.1972 17.907 21.6015 18.9194 21.6049C17.9057 21.5978 16.936 21.1905 16.2219 20.4711C15.5075 19.752 15.1069 18.7793 15.1069 17.7656Z" fill="#CCCCCC"/>
</g>
<g id="Group_25">
<path id="Vector_23" d="M22.7565 17.7229C22.7565 17.6334 22.7565 17.5438 22.7444 17.458C22.7515 17.5459 22.7565 17.6334 22.7565 17.7229Z" fill="#CCCCCC"/>
</g>
<g id="Group_26">
<path id="Vector_24" d="M18.9336 21.6049C19.9477 21.6049 20.9208 21.2019 21.6382 20.4849C22.3556 19.7676 22.7586 18.7945 22.7586 17.7799V17.7603C22.7603 18.7773 22.3585 19.7533 21.6415 20.4741C20.9242 21.1948 19.9502 21.6016 18.9336 21.6049Z" fill="#CCCCCC"/>
</g>
<g id="Group_27">
<path id="Vector_25" d="M22.7565 17.723C22.7565 17.6334 22.7565 17.5439 22.7443 17.4581C22.7 16.8905 22.5309 16.3393 22.2488 15.8446C21.9663 15.3499 21.5779 14.9238 21.1116 14.5969C20.4738 14.1487 19.7129 13.9084 18.9335 13.9084C18.4292 13.9101 17.9303 14.0114 17.4653 14.2056C16.9999 14.4002 16.5776 14.6844 16.2222 15.0418C15.8669 15.3997 15.5856 15.8237 15.394 16.2903C15.2027 16.7566 15.1052 17.2563 15.1068 17.7603V17.7728C15.1068 18.7865 15.5074 19.7592 16.2218 20.4782C16.9359 21.1977 17.9056 21.6049 18.9193 21.6121H18.9335C19.9502 21.6087 20.9241 21.2023 21.6415 20.4812C22.3585 19.7604 22.7603 18.7844 22.7586 17.7678C22.7586 17.7427 22.7565 17.7335 22.7565 17.723Z" fill="#F3F3F3"/>
</g>
<g id="Group_28">
<path id="Vector_26" d="M18.9014 20.9432C20.6279 20.9432 22.0271 19.544 22.0271 17.8175C22.0271 16.0911 20.6279 14.6919 18.9014 14.6919C17.1749 14.6919 15.7758 16.0911 15.7758 17.8175C15.7758 19.544 17.1749 20.9432 18.9014 20.9432Z" fill="#353F6E"/>
</g>
<g id="Group_29">
<path id="Vector_27" d="M21.5211 15.7252L15.6556 16.5962L16.0135 15.8076C16.0135 15.8076 17.0238 14.9295 17.0862 14.9136C17.149 14.8973 17.9501 14.4737 18.3201 14.4737C18.6905 14.4737 19.5615 14.159 19.9298 14.3448C20.2981 14.5307 21.5194 15.6218 21.5194 15.6218L21.5211 15.7252Z" fill="#F3F3F3"/>
</g>
<g id="Group_30">
<path id="Vector_28" d="M21.4227 15.575L17.3474 18.2896L21.0134 16.9323L19.6791 18.1234L22.3096 17.1415L21.4227 15.575Z" fill="#F3F3F3"/>
</g>
<g id="Group_31">
<path id="Vector_29" d="M22.3724 15.6575C22.3724 15.6575 24.0139 14.1768 24.0641 14.1232C24.1152 14.0441 24.1445 13.9528 24.1495 13.8587C24.1541 13.7645 24.134 13.6707 24.0909 13.5866C23.9854 13.4385 24.0692 13.6942 23.9905 13.8712C23.9118 14.0483 21.9773 15.1226 21.9773 15.1226L22.3724 15.6575Z" fill="#353F6E"/>
</g>
</g>
<g id="Digma">
<path id="Vector_30" fill-rule="evenodd" clip-rule="evenodd" d="M37.8091 11.8236C38.5868 11.8236 39.3005 11.9517 39.9502 12.2076C40.5998 12.4635 41.1634 12.8227 41.6408 13.2855C42.1183 13.7481 42.4898 14.2944 42.7556 14.9244C43.0214 15.5544 43.1543 16.2435 43.1543 16.9917C43.1543 17.7397 43.0214 18.4263 42.7556 19.0515C42.4898 19.6765 42.1157 20.2228 41.6335 20.6904C41.1511 21.1579 40.5802 21.5197 39.9206 21.7756C39.2611 22.0315 38.5424 22.1596 37.7648 22.1596H33.5714V11.8236H37.8091ZM37.8535 20.6682C38.3555 20.6682 38.8205 20.5797 39.2488 20.4025C39.677 20.2252 40.051 19.9717 40.3709 19.642C40.6909 19.3123 40.942 18.9234 41.1241 18.4755C41.3062 18.0277 41.3972 17.538 41.3972 17.0064C41.3972 16.465 41.3036 15.9703 41.1166 15.5224C40.9295 15.0745 40.6736 14.6832 40.3489 14.3485C40.024 14.0139 39.6425 13.758 39.2045 13.5808C38.7664 13.4035 38.2915 13.315 37.7797 13.315H35.3138V20.6682H37.8535ZM45.0148 11.8236H46.757V22.1596H45.0148V11.8236ZM58.0675 20.9193C57.723 21.1851 57.3268 21.4213 56.8789 21.628C56.431 21.8347 55.9659 21.9946 55.4836 22.1079C55.0012 22.2211 54.5237 22.2777 54.0512 22.2777C53.2835 22.2777 52.5722 22.1424 51.9176 21.8716C51.263 21.6009 50.6872 21.2244 50.1901 20.7421C49.693 20.2597 49.3066 19.6962 49.031 19.0515C48.7553 18.4066 48.6175 17.7151 48.6175 16.9768C48.6175 16.2385 48.7579 15.552 49.0384 14.917C49.3189 14.2821 49.7102 13.7235 50.2123 13.2411C50.7143 12.7588 51.3025 12.3847 51.9767 12.1189C52.651 11.8531 53.377 11.7202 54.1546 11.7202C54.6469 11.7202 55.1317 11.7793 55.6091 11.8975C56.0864 12.0156 56.5417 12.183 56.9749 12.3996C57.408 12.616 57.792 12.8769 58.1266 13.1821L57.1374 14.3781C56.7436 14.004 56.2834 13.7112 55.7567 13.4995C55.2301 13.2879 54.6961 13.1821 54.1546 13.1821C53.6231 13.1821 53.1308 13.2805 52.6781 13.4773C52.2253 13.6743 51.8266 13.945 51.482 14.2896C51.1375 14.634 50.8693 15.0352 50.6773 15.4929C50.4854 15.9507 50.3894 16.4452 50.3894 16.9768C50.3894 17.5084 50.4854 18.0055 50.6773 18.4681C50.8693 18.9309 51.1375 19.3369 51.482 19.6863C51.8266 20.0358 52.2277 20.3089 52.6855 20.5059C53.1431 20.7027 53.6378 20.8011 54.1694 20.8011C54.6518 20.8011 55.1513 20.7027 55.6681 20.5059C55.9798 20.3871 56.2726 20.2434 56.5466 20.0745V17.1097H58.0675V20.9193ZM60.5334 11.8236H62.5563L66.1296 18.8373L69.6733 11.8236H71.6962V22.1596H70.0867L70.072 14.26L66.6759 21.0817H65.5684L62.1429 14.26V22.1596H60.5334V11.8236ZM81.4611 20.6943L81.0718 19.7676H75.886L74.8855 22.1596H73.0695L77.632 11.8236H79.4187L83.2966 20.6949C83.8626 21.9901 83.1105 23.6049 82.3983 24.3897C82.3761 23.5113 82.185 22.4155 81.4611 20.6943ZM80.4517 18.291L78.4737 13.5808L76.5036 18.291H80.4517Z" fill="white"/>
</g>
</g>
</g>
</svg>
