<svg xmlns="http://www.w3.org/2000/svg" xmlns:xlink="http://www.w3.org/1999/xlink" fill="none" viewBox="0 0 218 114">
  <defs>
    <path id="reuse-0" fill="#fff" d="M0 0h218v114H0z"/>
  </defs>
  <g clip-path="url(#clip0_6132_116062)">
    <use xlink:href="#reuse-0"/>
    <path fill="#F0F1F7" d="M-199-25h803v245.64h-803z"/>
    <g clip-path="url(#clip1_6132_116062)">
      <mask id="path-1-inside-1_6132_116062" fill="#fff">
        <path d="M-199 41.01h803v179.63h-803V41.01Z"/>
      </mask>
      <path fill="#828599" d="M4.8 62.69V56.1h4.07v.74H5.62v2.1H8.7v.74H5.62v2.26h3.25v.74H4.8Zm5.46 0v-4.92h.79v.74h.07c.25-.52.71-.82 1.43-.82 1.1 0 1.72.65 1.72 1.82v3.18h-.79v-3c0-.88-.36-1.3-1.15-1.3-.78 0-1.28.53-1.28 1.39v2.9h-.8Zm6.66 0-1.82-4.92h.84l1.34 4.05h.08l1.34-4.05h.84l-1.82 4.92h-.8ZM21 56.82a.55.55 0 0 1-.55-.54c0-.3.25-.55.55-.55a.55.55 0 0 1 0 1.1Zm-.4 5.87v-4.92h.79v4.92h-.8Zm2.29 0v-4.92h.79v.73h.07c.19-.51.65-.81 1.31-.81.15 0 .32.01.4.03v.77a2.85 2.85 0 0 0-.49-.05c-.75 0-1.3.48-1.3 1.2v3.05h-.78Zm5.43.08c-1.4 0-2.26-.96-2.26-2.54s.86-2.54 2.26-2.54 2.27.96 2.27 2.54-.87 2.54-2.27 2.54Zm0-.7c.93 0 1.46-.68 1.46-1.84 0-1.17-.53-1.84-1.46-1.84-.93 0-1.45.67-1.45 1.84 0 1.16.52 1.84 1.45 1.84Zm3.5.62v-4.92h.8v.74h.07c.24-.52.7-.82 1.43-.82 1.1 0 1.72.65 1.72 1.82v3.18h-.8v-3c0-.88-.36-1.3-1.14-1.3-.79 0-1.29.53-1.29 1.39v2.9h-.79Zm5.45 0v-4.92h.8v.75h.07c.22-.53.68-.83 1.33-.83.66 0 1.13.35 1.36.86h.07c.26-.52.82-.86 1.5-.86 1 0 1.57.57 1.57 1.6v3.4h-.8v-3.22c0-.72-.33-1.08-1.02-1.08a1.1 1.1 0 0 0-1.14 1.14v3.16h-.8v-3.34c0-.58-.4-.96-1.01-.96-.64 0-1.13.56-1.13 1.25v3.05h-.8Zm10.13.08c-1.4 0-2.25-.98-2.25-2.52 0-1.52.87-2.56 2.2-2.56 1.34 0 2.15.99 2.15 2.46v.3h-3.54c.03 1.02.59 1.62 1.46 1.62.67 0 1.08-.32 1.21-.61l.02-.04h.8l-.02.03c-.17.67-.87 1.32-2.03 1.32Zm-.05-4.38c-.73 0-1.29.5-1.37 1.43h2.71c-.08-.97-.62-1.43-1.34-1.43Zm3.38 4.3v-4.92h.8v.74h.07c.25-.52.7-.82 1.43-.82 1.1 0 1.72.65 1.72 1.82v3.18h-.8v-3c0-.88-.36-1.3-1.14-1.3-.79 0-1.28.53-1.28 1.39v2.9h-.8Zm7.2.03c-1.01 0-1.43-.37-1.43-1.3v-3h-.78v-.65h.78V56.5h.82v1.27h1.07v.66h-1.07v2.78c0 .58.2.81.7.81.15 0 .23 0 .37-.02v.68c-.15.03-.3.04-.46.04Zm4.37-.03V56.1h.82v6.58h-.82Zm2.5 0V56.1h2.26c1.95 0 3.1 1.22 3.1 3.28v.01c0 2.07-1.14 3.29-3.1 3.29H64.8Zm.82-.74H67c1.47 0 2.32-.94 2.32-2.54v-.01c0-1.6-.86-2.55-2.32-2.55h-1.38v5.1Z" opacity=".35"/>
      <rect width="126.28" height="19.28" x="79.83" y="50.05" stroke="#4B4DB4" stroke-width=".72" rx="2.51"/>
      <path fill="#6063F6" d="M86 63v-6.08h3.76v.68h-3v1.95h2.84v.68h-2.85v2.08h3V63H86Zm5.13 0v-6.08h.74l3.3 4.73h.06v-4.73h.75V63h-.74l-3.3-4.71h-.06v4.7h-.75Zm8.15 0-2.24-6.08h.8l1.78 5.1h.07l1.78-5.1h.8L100.03 63h-.75Zm2.6 1.1v-.68h5.04v.68h-5.03Zm5.81-1.1v-6.08h.74l3.3 4.73h.06v-4.73h.75V63h-.73l-3.3-4.71h-.07v4.7h-.75Zm5.92 0 2.24-6.08h.75l2.23 6.08h-.79l-.61-1.74H115l-.6 1.74h-.8Zm2.58-5.1-.95 2.71h1.97l-.95-2.7h-.07Zm3.71 5.1v-6.08h.88l2.08 5.07h.07l2.07-5.07h.88V63h-.7v-4.64h-.05L123.21 63h-.64l-1.92-4.64h-.04V63h-.71Zm7.53 0v-6.08h3.76v.68h-3v1.95h2.85v.68h-2.85v2.08h3V63h-3.76Zm5.73 0h-.6l.35-1.7h-1l.13-.6h1l.3-1.54h-1.04l.12-.6h1.05l.33-1.64h.6l-.34 1.64h1.39l.34-1.64h.6l-.34 1.64h1.05l-.12.6h-1.05l-.32 1.53h1.1l-.12.61h-1.1l-.35 1.7h-.6l.35-1.7h-1.38l-.35 1.7Zm.47-2.3h1.39l.3-1.54h-1.38l-.3 1.53ZM138 63v-6.08h.75V63H138Zm2.3 0v-6.08h2.09c1.8 0 2.86 1.13 2.86 3.03v.01c0 1.91-1.06 3.04-2.86 3.04h-2.09Zm.76-.69h1.28c1.35 0 2.14-.86 2.14-2.34 0-1.49-.8-2.37-2.14-2.37h-1.28v4.71Zm6.1.69h-.6l.34-1.7h-.98l.11-.6h1l.31-1.54h-1.04l.12-.6h1.05l.33-1.64h.6l-.34 1.64h1.39l.33-1.64h.6l-.33 1.64h1.05l-.12.6h-1.05l-.32 1.53h1.1l-.12.61h-1.1l-.35 1.7h-.6l.35-1.7h-1.39l-.34 1.7Zm.47-2.3H149l.31-1.54h-1.38l-.31 1.53Zm5.75 2.3v-5.23h-.06l-1.55 1.11v-.8l1.62-1.16h.75V63h-.76Zm2.52 0v-.53l2.05-2.22c.77-.84 1-1.15 1-1.68v-.01c0-.64-.43-1.12-1.15-1.12-.73 0-1.21.48-1.21 1.2h-.73c0-1.09.83-1.86 2-1.86 1.05 0 1.86.72 1.86 1.7 0 .7-.3 1.2-1.4 2.34l-1.37 1.43v.06h2.88V63h-3.94Zm7.26.1c-1.25 0-2.06-.7-2.14-1.66v-.05h.72v.04c.06.6.61 1.01 1.42 1.01.8 0 1.34-.45 1.34-1.09 0-.75-.53-1.17-1.38-1.17h-.77v-.64h.73c.73 0 1.23-.45 1.23-1.05v-.01c0-.64-.41-1-1.16-1-.71 0-1.22.38-1.28 1v.03h-.74v-.04c.1-.99.89-1.65 2.02-1.65 1.16 0 1.92.65 1.92 1.57 0 .76-.53 1.27-1.28 1.43v.02c.88.07 1.48.62 1.48 1.49 0 1.02-.9 1.77-2.1 1.77Zm6.11-.1v-1.26h-2.96v-.7a95.55 95.55 0 0 1 2.6-4.12h1.1v4.14h.87v.68H170V63h-.74Zm-2.18-1.94h2.19v-3.43h-.05a77.06 77.06 0 0 0-2.14 3.38v.05Zm6.95 2.08c-1.13 0-1.94-.73-2.03-1.7v-.05h.73v.04c.07.58.6 1.04 1.31 1.04.8 0 1.36-.58 1.36-1.4 0-.81-.56-1.39-1.35-1.39a1.42 1.42 0 0 0-1.28.73h-.66l.32-3.49h3.38v.68h-2.78l-.21 2.05h.07c.27-.4.74-.63 1.3-.63 1.13 0 1.95.86 1.95 2.03v.01c0 1.22-.88 2.08-2.1 2.08Zm3.94-.1a.55.55 0 0 1-.55-.55c0-.3.25-.55.55-.55a.55.55 0 1 1 0 1.1Zm2.19 0a.55.55 0 0 1-.55-.55c0-.3.25-.55.54-.55a.55.55 0 1 1 0 1.1Zm2.18 0a.55.55 0 0 1-.54-.55c0-.3.25-.55.54-.55a.55.55 0 1 1 0 1.1Z"/>
      <g stroke="#4C4E59" stroke-linecap="round" stroke-linejoin="round" stroke-width=".72" clip-path="url(#clip2_6132_116062)">
        <path d="M197.77 61.04h1.61v-4.31h-4.3v1.61"/>
        <path d="M197.77 58.34h-4.31v4.31h4.3v-4.3Z"/>
      </g>
      <g filter="url(#filter0_d_6132_116062)">
        <rect width="388.57" height="130.78" x="-190.38" y="81.24" fill="#fff" rx="5.75"/>
        <rect width="387.85" height="130.07" x="-190.02" y="81.6" stroke="#C3C6D9" stroke-width=".72" rx="5.39"/>
        <path fill="#828599" d="M-178.77 119.12c-1.44 0-2.37-.76-2.46-1.83v-.05h.81v.05c.07.66.75 1.07 1.7 1.07.9 0 1.54-.45 1.54-1.13 0-.55-.37-.92-1.28-1.12l-.73-.16c-1.31-.3-1.88-.9-1.88-1.85 0-1.1.95-1.87 2.31-1.87 1.31 0 2.23.78 2.3 1.76v.06h-.82V114c-.1-.58-.64-1-1.5-1-.82 0-1.46.4-1.46 1.08 0 .53.37.89 1.26 1.08l.73.16c1.37.31 1.91.86 1.91 1.81 0 1.24-.96 2-2.43 2Zm5.7-.07c-1.4 0-2.25-.98-2.25-2.52 0-1.53.87-2.56 2.2-2.56 1.34 0 2.15.99 2.15 2.46v.3h-3.53c.02 1.02.58 1.62 1.46 1.62.66 0 1.07-.32 1.2-.61l.02-.05h.8l-.01.04c-.17.67-.88 1.32-2.03 1.32Zm-.05-4.38c-.73 0-1.28.5-1.37 1.43h2.72c-.08-.97-.62-1.43-1.35-1.43Zm5.13 4.33c-1.01 0-1.44-.37-1.44-1.31v-2.98h-.77v-.66h.77v-1.27h.83v1.27h1.07v.66h-1.07v2.78c0 .58.2.81.7.81.15 0 .23 0 .37-.02v.68c-.15.03-.3.04-.46.04Zm5.92.05c-1.12 0-1.7-.65-1.7-1.82v-3.18h.8v3c0 .88.32 1.3 1.1 1.3.87 0 1.33-.53 1.33-1.39v-2.9h.8v4.9h-.8v-.73h-.07c-.24.53-.74.82-1.46.82Zm3.8 1.56v-6.56h.8v.79h.07c.3-.55.85-.88 1.53-.88 1.25 0 2.06 1.01 2.06 2.55 0 1.55-.8 2.54-2.06 2.54a1.7 1.7 0 0 1-1.53-.86h-.07v2.42h-.8Zm2.22-2.26c.9 0 1.43-.7 1.43-1.84 0-1.15-.53-1.84-1.43-1.84-.9 0-1.44.7-1.44 1.83v.01c0 1.14.55 1.84 1.44 1.84Zm7.86.65c-1.02 0-1.44-.37-1.44-1.31v-2.98h-.77v-.66h.77v-1.27h.82v1.27h1.08v.66h-1.08v2.78c0 .58.2.81.71.81.14 0 .22 0 .37-.02v.68c-.16.03-.3.04-.46.04Zm1.69-.03v-6.87h.8v2.7h.06c.25-.53.71-.83 1.44-.83 1.1 0 1.71.65 1.71 1.81v3.19h-.79v-3c0-.88-.36-1.3-1.15-1.3-.78 0-1.28.53-1.28 1.39v2.9h-.8Zm7.46.08c-1.4 0-2.25-.98-2.25-2.52 0-1.53.86-2.56 2.2-2.56 1.33 0 2.15.99 2.15 2.46v.3h-3.54c.02 1.02.58 1.62 1.46 1.62.66 0 1.07-.32 1.2-.61l.02-.05h.8l-.01.04c-.17.67-.87 1.32-2.03 1.32Zm-.06-4.38c-.73 0-1.28.5-1.37 1.43h2.72c-.08-.97-.62-1.43-1.35-1.43Zm6.34 4.3v-4.26h-.82v-.66h.82v-.55c0-.97.5-1.44 1.43-1.44.19 0 .36 0 .53.04v.63a2.2 2.2 0 0 0-.37-.02c-.57 0-.8.28-.8.82v.52h1.12v.66h-1.12v4.26h-.79Zm4.86.08c-1.4 0-2.26-.96-2.26-2.54s.87-2.55 2.27-2.55 2.26.97 2.26 2.55c0 1.58-.87 2.54-2.27 2.54Zm0-.7c.94 0 1.46-.68 1.46-1.84 0-1.17-.53-1.84-1.45-1.84-.93 0-1.46.67-1.46 1.83v.01c0 1.16.53 1.84 1.45 1.84Zm3.55.62v-6.87h.79v6.87h-.8Zm2.36 0v-6.87h.8v6.87h-.8Zm4.33.08c-1.4 0-2.26-.96-2.26-2.54s.86-2.55 2.27-2.55c1.4 0 2.26.97 2.26 2.55 0 1.58-.87 2.54-2.27 2.54Zm0-.7c.94 0 1.46-.68 1.46-1.84 0-1.17-.52-1.84-1.45-1.84-.93 0-1.46.67-1.46 1.83v.01c0 1.16.53 1.84 1.45 1.84Zm4.27.62-1.38-4.92h.8l.96 3.93h.07l1.1-3.93h.75l1.1 3.93h.08l.96-3.93h.8l-1.38 4.92h-.8l-1.1-3.8h-.07l-1.1 3.8h-.8Zm6.7-5.87a.55.55 0 0 1-.55-.54c0-.3.25-.55.55-.55.3 0 .55.25.55.55 0 .3-.25.54-.55.54Zm-.4 5.87v-4.92h.8v4.92h-.8Zm2.29 0v-4.92h.79v.74h.07c.25-.52.71-.83 1.44-.83 1.1 0 1.71.66 1.71 1.82v3.19h-.79v-3c0-.88-.36-1.3-1.15-1.3-.78 0-1.28.53-1.28 1.39v2.9h-.8Zm7.47 1.73c-1.18 0-1.94-.53-2.06-1.34h.83c.09.37.53.64 1.23.64.88 0 1.4-.42 1.4-1.14v-1h-.06a1.7 1.7 0 0 1-1.55.85c-1.27 0-2.06-.98-2.06-2.36 0-1.39.8-2.38 2.08-2.38.7 0 1.23.34 1.53.9h.06v-.82h.8v4.85c0 1.1-.86 1.8-2.2 1.8Zm-.03-2.7c.9 0 1.46-.67 1.46-1.65 0-.98-.56-1.68-1.46-1.68-.91 0-1.42.7-1.42 1.67v.01c0 .98.5 1.66 1.42 1.66Zm8.33 1.05c-1.4 0-2.25-.98-2.25-2.52 0-1.53.87-2.56 2.2-2.56 1.34 0 2.15.99 2.15 2.46v.3h-3.54c.02 1.02.58 1.62 1.46 1.62.67 0 1.08-.32 1.2-.61l.03-.05h.79v.04c-.18.67-.88 1.32-2.04 1.32Zm-.05-4.38c-.73 0-1.29.5-1.38 1.43h2.72c-.08-.97-.62-1.43-1.34-1.43Zm3.38 4.3v-4.92h.8v.74h.07c.24-.52.7-.83 1.43-.83 1.1 0 1.72.66 1.72 1.82v3.19h-.8v-3c0-.88-.36-1.3-1.15-1.3-.78 0-1.28.53-1.28 1.39v2.9h-.79Zm6.66 0-1.82-4.92h.84l1.35 4.05h.07l1.34-4.05h.84l-1.82 4.92h-.8Zm4.1-5.87a.55.55 0 0 1-.56-.54c0-.3.25-.55.55-.55.3 0 .55.25.55.55 0 .3-.25.54-.55.54Zm-.41 5.87v-4.92h.8v4.92h-.8Zm2.29 0v-4.92h.8v.73h.06c.2-.51.65-.81 1.32-.81.15 0 .32.01.4.03v.77a2.79 2.79 0 0 0-.5-.05c-.75 0-1.29.48-1.29 1.2v3.05h-.8Zm5.44.08c-1.4 0-2.27-.96-2.27-2.54s.87-2.55 2.27-2.55 2.26.97 2.26 2.55c0 1.58-.86 2.54-2.26 2.54Zm0-.7c.93 0 1.45-.68 1.45-1.84 0-1.17-.52-1.84-1.45-1.84-.93 0-1.46.67-1.46 1.83v.01c0 1.16.53 1.84 1.46 1.84Zm3.5.62v-4.92h.79v.74h.07c.25-.52.7-.83 1.43-.83 1.1 0 1.72.66 1.72 1.82v3.19h-.8v-3c0-.88-.36-1.3-1.14-1.3-.79 0-1.28.53-1.28 1.39v2.9h-.8Zm5.45 0v-4.92h.79v.75h.07c.22-.53.69-.83 1.33-.83.67 0 1.13.35 1.36.86h.07c.27-.52.83-.86 1.5-.86 1 0 1.57.57 1.57 1.6v3.4h-.8v-3.22c0-.72-.33-1.08-1.02-1.08a1.1 1.1 0 0 0-1.13 1.14v3.16h-.8v-3.34c0-.58-.4-.96-1.02-.96-.64 0-1.13.56-1.13 1.25v3.05h-.8Zm10.13.08c-1.4 0-2.26-.98-2.26-2.52 0-1.53.87-2.56 2.2-2.56 1.34 0 2.15.99 2.15 2.46v.3h-3.53c.02 1.02.58 1.62 1.46 1.62.66 0 1.07-.32 1.2-.61l.02-.05h.8l-.01.04c-.17.67-.87 1.32-2.03 1.32Zm-.06-4.38c-.73 0-1.28.5-1.37 1.43h2.72c-.08-.97-.62-1.43-1.35-1.43Zm3.39 4.3v-4.92h.79v.74h.07c.25-.52.7-.83 1.43-.83 1.1 0 1.72.66 1.72 1.82v3.19h-.8v-3c0-.88-.36-1.3-1.14-1.3-.78 0-1.28.53-1.28 1.39v2.9h-.8Zm7.2.03c-1.02 0-1.44-.37-1.44-1.31v-2.98h-.78v-.66h.78v-1.27h.82v1.27h1.07v.66h-1.07v2.78c0 .58.2.81.71.81.14 0 .22 0 .36-.02v.68c-.15.03-.3.04-.46.04Zm5.66-.03-1.82-4.92h.84l1.34 4.05h.07l1.35-4.05h.84l-1.82 4.92h-.8Zm4.83.08c-.93 0-1.64-.56-1.64-1.46 0-.88.65-1.39 1.8-1.45l1.4-.1v-.44c0-.6-.37-.93-1.1-.93-.59 0-.98.22-1.1.6v.01h-.8v-.02c.13-.78.88-1.3 1.93-1.3 1.2 0 1.87.62 1.87 1.64v3.37h-.8v-.73h-.07c-.3.53-.82.81-1.49.81Zm-.83-1.47c0 .5.43.78 1 .78.8 0 1.4-.52 1.4-1.23v-.44l-1.32.08c-.75.05-1.08.3-1.08.8Zm4.64 1.39v-4.92h.79v.73h.07c.19-.51.65-.81 1.32-.81.15 0 .32.01.4.03v.77a2.79 2.79 0 0 0-.5-.05c-.75 0-1.29.48-1.29 1.2v3.05h-.8Zm3.97-5.87a.55.55 0 0 1-.54-.54c0-.3.24-.55.54-.55.3 0 .55.25.55.55 0 .3-.25.54-.55.54Zm-.4 5.87v-4.92h.8v4.92h-.8Zm3.64.08c-.94 0-1.64-.56-1.64-1.46 0-.88.65-1.39 1.79-1.45l1.4-.1v-.44c0-.6-.36-.93-1.1-.93-.58 0-.97.22-1.1.6v.01h-.8v-.02c.14-.78.88-1.3 1.93-1.3 1.2 0 1.87.62 1.87 1.64v3.37h-.8v-.73H-15c-.31.53-.83.81-1.5.81Zm-.83-1.47c0 .5.42.78 1 .78.8 0 1.39-.52 1.39-1.23v-.44l-1.31.08c-.75.05-1.08.3-1.08.8Zm7.08 1.47c-.69 0-1.24-.32-1.54-.87h-.07v.79h-.8v-6.87h.8v2.73h.07a1.7 1.7 0 0 1 1.54-.86c1.24 0 2.06 1 2.06 2.53v.01c0 1.54-.82 2.54-2.06 2.54Zm-.19-.7c.9 0 1.43-.7 1.43-1.84 0-1.15-.53-1.84-1.43-1.84-.9 0-1.44.7-1.44 1.83v.01c0 1.14.55 1.84 1.44 1.84Zm3.52.62v-6.87h.8v6.87h-.8Zm4.32.08c-1.4 0-2.25-.98-2.25-2.52 0-1.53.87-2.56 2.2-2.56 1.34 0 2.15.99 2.15 2.46v.3h-3.54c.03 1.02.59 1.62 1.46 1.62.67 0 1.08-.32 1.21-.61l.02-.05h.8l-.02.04c-.17.67-.87 1.32-2.03 1.32Zm-.05-4.38c-.73 0-1.29.5-1.37 1.43h2.71c-.08-.97-.62-1.43-1.34-1.43Zm5.07 4.38c-1.1 0-1.85-.52-1.94-1.34h.81c.14.41.53.68 1.16.68.66 0 1.13-.31 1.13-.76 0-.34-.25-.57-.86-.72l-.76-.18c-.92-.22-1.34-.62-1.34-1.33 0-.82.79-1.44 1.83-1.44 1.03 0 1.75.52 1.86 1.32h-.78c-.1-.39-.49-.65-1.08-.65-.59 0-1.01.3-1.01.73v.01c0 .33.24.54.82.68l.76.19c.92.22 1.37.62 1.37 1.32v.01c0 .88-.85 1.48-1.97 1.48Zm6.77-.08-1.37-4.92h.8l.96 3.93h.07l1.1-3.93h.75l1.1 3.93h.07l.97-3.93h.79l-1.38 4.92h-.8l-1.1-3.8h-.07l-1.1 3.8H9.2Zm6.33 0v-6.87h.8v2.7h.07c.25-.53.7-.83 1.43-.83 1.1 0 1.72.65 1.72 1.81v3.19h-.8v-3c0-.88-.36-1.3-1.14-1.3-.79 0-1.28.53-1.28 1.39v2.9h-.8Zm7.46.08c-1.4 0-2.25-.98-2.25-2.52 0-1.53.87-2.56 2.2-2.56 1.34 0 2.15.99 2.15 2.46v.3h-3.54c.02 1.02.58 1.62 1.46 1.62.67 0 1.08-.32 1.2-.61l.03-.05h.79v.04c-.18.67-.88 1.32-2.04 1.32Zm-.05-4.38c-.73 0-1.29.5-1.38 1.43h2.72c-.08-.97-.62-1.43-1.34-1.43Zm3.38 4.3v-4.92h.8v.74h.07c.24-.52.7-.83 1.43-.83 1.1 0 1.72.66 1.72 1.82v3.19h-.8v-3c0-.88-.36-1.3-1.15-1.3-.78 0-1.28.53-1.28 1.39v2.9h-.79Zm8.08 0v-4.92h.8v.73h.07c.18-.51.64-.81 1.3-.81.16 0 .33.01.4.03v.77a2.8 2.8 0 0 0-.48-.05c-.76 0-1.3.48-1.3 1.2v3.05h-.8Zm5.2.08c-1.12 0-1.7-.65-1.7-1.82v-3.18h.8v3c0 .88.32 1.3 1.1 1.3.87 0 1.33-.53 1.33-1.39v-2.9h.8v4.9h-.8v-.73h-.07c-.24.53-.74.82-1.46.82Zm3.8-.08v-4.92h.8v.74h.07c.25-.52.71-.83 1.44-.83 1.1 0 1.71.66 1.71 1.82v3.19h-.79v-3c0-.88-.36-1.3-1.15-1.3-.78 0-1.28.53-1.28 1.39v2.9h-.8Zm5.46 0v-4.92h.8v.74h.07c.24-.52.7-.83 1.43-.83 1.1 0 1.72.66 1.72 1.82v3.19h-.8v-3c0-.88-.36-1.3-1.15-1.3-.78 0-1.28.53-1.28 1.39v2.9h-.79Zm5.87-5.87a.55.55 0 0 1-.54-.54c0-.3.24-.55.54-.55.3 0 .55.25.55.55 0 .3-.25.54-.55.54Zm-.4 5.87v-4.92h.8v4.92h-.8Zm2.29 0v-4.92h.8v.74h.07c.24-.52.7-.83 1.43-.83 1.1 0 1.72.66 1.72 1.82v3.19h-.8v-3c0-.88-.36-1.3-1.15-1.3-.78 0-1.28.53-1.28 1.39v2.9h-.79Zm7.48 1.73c-1.19 0-1.94-.53-2.07-1.34h.83c.1.37.53.64 1.24.64.88 0 1.4-.42 1.4-1.14v-1h-.07a1.7 1.7 0 0 1-1.54.85c-1.27 0-2.06-.98-2.06-2.36 0-1.39.79-2.38 2.08-2.38.69 0 1.23.34 1.53.9h.05v-.82h.8v4.85c0 1.1-.85 1.8-2.2 1.8Zm-.04-2.7c.91 0 1.46-.67 1.46-1.65 0-.98-.55-1.68-1.46-1.68-.91 0-1.42.7-1.42 1.67v.01c0 .98.5 1.66 1.42 1.66Zm6.75 2.69c-.1 0-.24 0-.35-.03v-.65c.1.02.22.02.33.02.45 0 .72-.2.9-.77l.09-.29-1.82-4.92h.85l1.35 4.05h.07l1.35-4.05h.83l-1.92 5.22c-.4 1.1-.81 1.42-1.68 1.42Zm6.49-1.64c-1.4 0-2.27-.96-2.27-2.54s.87-2.55 2.27-2.55 2.26.97 2.26 2.55c0 1.58-.86 2.54-2.26 2.54Zm0-.7c.93 0 1.45-.68 1.45-1.84 0-1.17-.52-1.84-1.45-1.84-.93 0-1.46.67-1.46 1.83v.01c0 1.16.53 1.84 1.46 1.84Zm5.14.7c-1.12 0-1.7-.65-1.7-1.82v-3.18h.8v3c0 .88.32 1.3 1.1 1.3.87 0 1.33-.53 1.33-1.39v-2.9h.8v4.9h-.8v-.73h-.07c-.24.53-.74.82-1.46.82Zm3.8-.08v-4.92h.8v.73h.07c.19-.51.65-.81 1.32-.81.15 0 .31.01.4.03v.77a2.79 2.79 0 0 0-.5-.05c-.75 0-1.3.48-1.3 1.2v3.05h-.78Zm8.2.08c-1.38 0-2.26-1-2.26-2.55v-.01c0-1.53.88-2.52 2.25-2.52 1.2 0 1.91.68 2.06 1.56v.03h-.78v-.02c-.13-.48-.57-.87-1.28-.87-.88 0-1.44.7-1.44 1.82 0 1.14.57 1.86 1.44 1.86.67 0 1.08-.29 1.27-.84v-.03h.79v.05c-.2.89-.87 1.52-2.05 1.52Zm5.23 0c-1.4 0-2.26-.96-2.26-2.54s.86-2.55 2.26-2.55 2.27.97 2.27 2.55c0 1.58-.87 2.54-2.27 2.54Zm0-.7c.93 0 1.46-.68 1.46-1.84 0-1.17-.53-1.84-1.46-1.84-.93 0-1.45.67-1.45 1.83v.01c0 1.16.52 1.84 1.45 1.84Zm5.31.7c-1.24 0-2.06-1-2.06-2.54 0-1.55.81-2.55 2.06-2.55.68 0 1.27.34 1.54.87h.07v-2.73h.8v6.87h-.8v-.79h-.07c-.3.55-.85.87-1.54.87Zm.19-.7c.89 0 1.44-.7 1.44-1.84 0-1.14-.55-1.84-1.44-1.84-.9 0-1.44.69-1.44 1.83v.01c0 1.15.54 1.84 1.44 1.84Zm5.74.7c-1.4 0-2.25-.98-2.25-2.52 0-1.53.86-2.56 2.2-2.56 1.34 0 2.15.99 2.15 2.46v.3h-3.54c.02 1.02.58 1.62 1.46 1.62.66 0 1.08-.32 1.2-.61l.03-.05h.79l-.01.04c-.17.67-.87 1.32-2.03 1.32Zm-.05-4.38c-.73 0-1.29.5-1.38 1.43h2.72c-.08-.97-.62-1.43-1.34-1.43Zm7.75 4.33c-1.01 0-1.43-.37-1.43-1.31v-2.98h-.78v-.66h.78v-1.27h.82v1.27h1.07v.66H118v2.78c0 .58.2.81.7.81.15 0 .23 0 .37-.02v.68c-.15.03-.3.04-.46.04Zm3.6.05c-1.4 0-2.27-.96-2.27-2.54s.86-2.55 2.26-2.55 2.27.97 2.27 2.55c0 1.58-.87 2.54-2.27 2.54Zm0-.7c.92 0 1.45-.68 1.45-1.84 0-1.17-.53-1.84-1.46-1.84-.93 0-1.45.67-1.45 1.83v.01c0 1.16.52 1.84 1.45 1.84Zm7.86.65c-1 0-1.43-.37-1.43-1.31v-2.98h-.78v-.66h.78v-1.27h.82v1.27h1.07v.66h-1.07v2.78c0 .58.2.81.7.81.15 0 .23 0 .37-.02v.68c-.15.03-.3.04-.46.04Zm3 .05c-.94 0-1.64-.56-1.64-1.46 0-.88.65-1.39 1.79-1.45l1.4-.1v-.44c0-.6-.36-.93-1.1-.93-.58 0-.97.22-1.1.6v.01h-.8v-.02c.14-.78.88-1.3 1.93-1.3 1.2 0 1.87.62 1.87 1.64v3.37h-.8v-.73h-.07c-.3.53-.82.81-1.48.81Zm-.83-1.47c0 .5.42.78 1 .78.8 0 1.39-.52 1.39-1.23v-.44l-1.31.08c-.75.05-1.08.3-1.08.8Zm6.66 3.12c-1.19 0-1.95-.53-2.07-1.34h.83c.1.37.53.64 1.23.64.88 0 1.41-.42 1.41-1.14v-1h-.07a1.7 1.7 0 0 1-1.54.85c-1.28 0-2.06-.98-2.06-2.36 0-1.39.79-2.38 2.07-2.38.7 0 1.24.34 1.54.9h.05v-.82h.8v4.85c0 1.1-.85 1.8-2.2 1.8Zm-.04-2.7c.91 0 1.46-.67 1.46-1.65 0-.98-.55-1.68-1.46-1.68-.91 0-1.42.7-1.42 1.67v.01c0 .98.5 1.66 1.42 1.66Zm8.07 1c-1 0-1.43-.37-1.43-1.31v-2.98h-.78v-.66h.78v-1.27h.82v1.27h1.07v.66h-1.07v2.78c0 .58.2.81.7.81.15 0 .23 0 .37-.02v.68c-.15.03-.3.04-.46.04Zm1.7-.03v-6.87h.79v2.7h.07c.25-.53.7-.83 1.43-.83 1.1 0 1.72.65 1.72 1.81v3.19h-.8v-3c0-.88-.36-1.3-1.14-1.3-.78 0-1.28.53-1.28 1.39v2.9h-.8Zm7.45.08c-1.4 0-2.25-.98-2.25-2.52 0-1.53.87-2.56 2.2-2.56 1.34 0 2.15.99 2.15 2.46v.3h-3.54c.03 1.02.59 1.62 1.46 1.62.67 0 1.08-.32 1.21-.61l.02-.05h.8l-.02.04c-.17.67-.87 1.32-2.03 1.32Zm-.05-4.38c-.73 0-1.29.5-1.37 1.43h2.71c-.08-.97-.62-1.43-1.34-1.43ZM-179 131.05c-1.4 0-2.27-.96-2.27-2.54s.87-2.54 2.27-2.54 2.26.96 2.26 2.53v.01c0 1.58-.86 2.54-2.26 2.54Zm0-.7c.93 0 1.45-.68 1.45-1.84 0-1.17-.52-1.84-1.45-1.84-.93 0-1.46.67-1.46 1.83v.01c0 1.16.53 1.84 1.46 1.84Zm5.94.7c-.69 0-1.23-.32-1.53-.87h-.08v.79h-.8v-6.87h.8v2.73h.07a1.7 1.7 0 0 1 1.54-.86c1.25 0 2.06 1 2.06 2.53v.01c0 1.54-.82 2.54-2.06 2.54Zm-.19-.7c.9 0 1.44-.7 1.44-1.84 0-1.15-.54-1.84-1.44-1.84-.89 0-1.44.7-1.44 1.83v.01c0 1.14.55 1.84 1.44 1.84Zm5.16.7c-1.09 0-1.84-.53-1.93-1.34h.8c.14.41.53.68 1.16.68.66 0 1.13-.31 1.13-.76 0-.34-.25-.57-.85-.72l-.76-.18c-.93-.22-1.34-.62-1.34-1.33 0-.82.78-1.44 1.83-1.44 1.03 0 1.74.52 1.85 1.32h-.78c-.1-.39-.48-.65-1.08-.65-.58 0-1 .3-1 .73v.01c0 .33.24.54.82.68l.75.19c.93.22 1.38.62 1.38 1.32v.01c0 .88-.86 1.48-1.97 1.48Zm5.21 0c-1.4 0-2.25-.98-2.25-2.52 0-1.53.87-2.56 2.2-2.56 1.34 0 2.15.99 2.15 2.46v.3h-3.54c.02 1.02.58 1.62 1.46 1.62.67 0 1.08-.32 1.2-.61l.03-.05h.79v.04c-.18.67-.88 1.32-2.04 1.32Zm-.05-4.38c-.73 0-1.29.5-1.38 1.43h2.72c-.08-.97-.62-1.43-1.34-1.43Zm3.38 4.3v-4.92h.8v.73h.07c.18-.51.64-.81 1.31-.81.15 0 .32.01.4.03v.77a2.78 2.78 0 0 0-.5-.05c-.75 0-1.29.48-1.29 1.2v3.05h-.79Zm5 0-1.83-4.92h.84l1.35 4.05h.07l1.34-4.05h.84l-1.81 4.92h-.8Zm4.83.08c-.94 0-1.64-.56-1.64-1.46 0-.88.65-1.39 1.79-1.45l1.4-.1v-.44c0-.6-.36-.93-1.1-.93-.58 0-.97.22-1.1.6v.01h-.8v-.02c.14-.78.88-1.3 1.93-1.3 1.2 0 1.87.62 1.87 1.64v3.37h-.8v-.73h-.06c-.31.53-.83.81-1.49.81Zm-.83-1.47c0 .5.42.78 1 .78.8 0 1.39-.52 1.39-1.23v-.44l-1.31.08c-.75.04-1.08.3-1.08.8Zm7.08 1.47c-.69 0-1.24-.32-1.54-.87h-.07v.79h-.8v-6.87h.8v2.73h.07a1.7 1.7 0 0 1 1.54-.86c1.25 0 2.06 1 2.06 2.53v.01c0 1.54-.82 2.54-2.06 2.54Zm-.19-.7c.9 0 1.44-.7 1.44-1.84 0-1.15-.54-1.84-1.44-1.84-.89 0-1.44.7-1.44 1.83v.01c0 1.14.55 1.84 1.44 1.84Zm3.9-5.25a.55.55 0 0 1-.55-.54c0-.3.25-.55.55-.55a.55.55 0 0 1 0 1.1Zm-.4 5.87v-4.92h.79v4.92h-.8Zm2.33 0v-6.87h.8v6.87h-.8Zm2.74-5.87a.55.55 0 0 1-.55-.54.55.55 0 0 1 1.1 0c0 .3-.25.54-.55.54Zm-.4 5.87v-4.92h.79v4.92h-.8Zm4.03.03c-1.01 0-1.44-.37-1.44-1.31v-2.98h-.77v-.66h.77v-1.27h.82v1.27h1.08v.66h-1.08v2.78c0 .58.2.81.72.81.14 0 .21 0 .36-.02v.68c-.16.03-.3.04-.46.04Zm2.06 1.69c-.1 0-.24 0-.35-.03v-.65c.1.02.22.02.33.02.45 0 .73-.2.9-.77l.1-.29-1.82-4.92h.84l1.35 4.05h.08l1.34-4.05h.84l-1.92 5.22c-.4 1.1-.81 1.42-1.69 1.42Zm9.1-1.64c-1.25 0-2.06-1-2.06-2.54 0-1.55.8-2.54 2.06-2.54.67 0 1.26.33 1.53.86h.07v-2.73h.8v6.87h-.8v-.79h-.07c-.3.55-.85.87-1.53.87Zm.18-.7c.9 0 1.44-.7 1.44-1.84 0-1.14-.55-1.84-1.44-1.84-.9 0-1.43.69-1.43 1.83v.01c0 1.15.53 1.84 1.43 1.84Zm5.09.7c-.94 0-1.64-.56-1.64-1.46 0-.88.64-1.39 1.79-1.45l1.4-.1v-.44c0-.6-.36-.93-1.1-.93-.59 0-.97.22-1.1.6v.01h-.8v-.02c.13-.78.88-1.3 1.93-1.3 1.2 0 1.87.62 1.87 1.64v3.37h-.8v-.73h-.07c-.3.53-.82.81-1.48.81Zm-.83-1.47c0 .5.42.78.99.78.8 0 1.4-.52 1.4-1.23v-.44l-1.32.08c-.74.04-1.07.3-1.07.8Zm6.38 1.42c-1.02 0-1.44-.37-1.44-1.31v-2.98h-.78v-.66h.78v-1.27h.82v1.27h1.07v.66h-1.07v2.78c0 .58.2.81.71.81.14 0 .22 0 .36-.02v.68c-.15.03-.3.04-.45.04Zm2.99.05c-.94 0-1.64-.56-1.64-1.46 0-.88.65-1.39 1.8-1.45l1.4-.1v-.44c0-.6-.37-.93-1.1-.93-.6 0-.98.22-1.1.6l-.01.01h-.8v-.02c.14-.78.88-1.3 1.93-1.3 1.2 0 1.87.62 1.87 1.64v3.37h-.8v-.73h-.06c-.31.53-.83.81-1.49.81Zm-.83-1.47c0 .5.42.78 1 .78.8 0 1.39-.52 1.39-1.23v-.44l-1.31.08c-.75.04-1.08.3-1.08.8Zm8.2 1.39-1.37-4.92h.8l.96 3.93h.07l1.1-3.93h.75l1.1 3.93h.08l.96-3.93h.8l-1.39 4.92h-.8l-1.1-3.8h-.07l-1.09 3.8h-.8Zm6.7-5.87a.55.55 0 0 1-.54-.54c0-.3.25-.55.55-.55.3 0 .55.25.55.55 0 .3-.25.54-.55.54Zm-.4 5.87v-4.92h.8v4.92h-.8Zm4.04.03c-1.01 0-1.43-.37-1.43-1.31v-2.98H-91v-.66h.78v-1.27h.82v1.27h1.07v.66h-1.07v2.78c0 .58.2.81.7.81.15 0 .23 0 .37-.02v.68c-.15.03-.3.04-.46.04Zm1.7-.03v-6.87h.79v2.7h.07c.25-.53.7-.83 1.43-.83 1.1 0 1.72.65 1.72 1.81v3.19h-.8v-3c0-.88-.36-1.3-1.14-1.3-.79 0-1.28.53-1.28 1.39v2.9h-.8Zm9.82.03c-1.01 0-1.44-.37-1.44-1.31v-2.98h-.77v-.66h.77v-1.27h.82v1.27h1.08v.66h-1.08v2.78c0 .58.2.81.71.81.15 0 .22 0 .37-.02v.68c-.16.03-.3.04-.46.04Zm1.69-.03v-6.87h.8v2.7h.07c.24-.53.7-.83 1.43-.83 1.1 0 1.72.65 1.72 1.81v3.19h-.8v-3c0-.88-.36-1.3-1.15-1.3-.78 0-1.28.53-1.28 1.39v2.9h-.79Zm5.87-5.87a.55.55 0 0 1-.54-.54c0-.3.24-.55.54-.55.3 0 .55.25.55.55 0 .3-.25.54-.55.54Zm-.4 5.87v-4.92h.8v4.92h-.8Zm3.98.08c-1.1 0-1.85-.53-1.94-1.34h.81c.13.41.53.68 1.15.68.67 0 1.14-.31 1.14-.76 0-.34-.26-.57-.86-.72l-.76-.18c-.92-.22-1.34-.62-1.34-1.33 0-.82.78-1.44 1.83-1.44 1.03 0 1.75.52 1.85 1.32h-.78c-.1-.39-.48-.65-1.08-.65-.58 0-1 .3-1 .73v.01c0 .33.24.54.82.68l.75.19c.93.22 1.38.62 1.38 1.32v.01c0 .88-.86 1.48-1.97 1.48Zm5.82-.08v-4.92h.8v.73h.07c.19-.51.65-.81 1.31-.81.15 0 .32.01.4.03v.77a2.79 2.79 0 0 0-.49-.05c-.76 0-1.3.48-1.3 1.2v3.05h-.79Zm5.2.08c-1.11 0-1.69-.65-1.69-1.82v-3.18h.8v3c0 .88.32 1.3 1.1 1.3.87 0 1.33-.53 1.33-1.39v-2.9h.8v4.9h-.8v-.73h-.08c-.24.53-.73.82-1.45.82Zm3.81-.08v-4.92h.8v.74h.07c.25-.52.7-.83 1.43-.83 1.1 0 1.72.66 1.72 1.82v3.19h-.8v-3c0-.88-.36-1.3-1.14-1.3-.79 0-1.28.53-1.28 1.39v2.9h-.8Zm10.1.08c-1.38 0-2.26-1-2.26-2.55v-.01c0-1.53.87-2.53 2.25-2.53 1.2 0 1.9.7 2.05 1.57v.03h-.78v-.02c-.13-.48-.57-.87-1.27-.87-.89 0-1.44.7-1.44 1.82 0 1.14.56 1.86 1.44 1.86.66 0 1.08-.29 1.26-.84l.01-.02h.78v.04c-.2.89-.87 1.52-2.05 1.52Zm5.23 0c-1.4 0-2.27-.96-2.27-2.54s.87-2.54 2.27-2.54 2.26.96 2.26 2.53v.01c0 1.58-.86 2.54-2.26 2.54Zm0-.7c.93 0 1.45-.68 1.45-1.84 0-1.17-.52-1.84-1.45-1.84-.93 0-1.46.67-1.46 1.83v.01c0 1.16.53 1.84 1.46 1.84Zm3.5.62v-4.92h.79v.74h.07c.25-.52.7-.83 1.43-.83 1.1 0 1.72.66 1.72 1.82v3.19h-.8v-3c0-.88-.36-1.3-1.14-1.3-.79 0-1.28.53-1.28 1.39v2.9h-.8Zm5.77 0v-4.26h-.81v-.66h.81v-.55c0-.97.5-1.44 1.43-1.44.2 0 .37 0 .53.04v.63a2.2 2.2 0 0 0-.37-.02c-.56 0-.8.28-.8.82v.52h1.12v.66h-1.11v4.26h-.8Zm3.48-5.87a.55.55 0 0 1-.55-.54c0-.3.25-.55.55-.55.3 0 .55.25.55.55 0 .3-.25.54-.55.54Zm-.4 5.87v-4.92h.79v4.92h-.8Zm4.31 1.73c-1.19 0-1.94-.53-2.07-1.34h.83c.1.37.53.64 1.24.64.88 0 1.4-.42 1.4-1.14v-1h-.07a1.7 1.7 0 0 1-1.54.85c-1.27 0-2.06-.98-2.06-2.36 0-1.39.8-2.38 2.08-2.38.7 0 1.23.34 1.53.9h.05v-.82h.8v4.85c0 1.1-.85 1.8-2.19 1.8Zm-.04-2.7c.92 0 1.46-.68 1.46-1.65 0-.98-.55-1.68-1.46-1.68-.9 0-1.42.7-1.42 1.67v.01c0 .97.51 1.66 1.42 1.66Zm4.35-2.52a.6.6 0 0 1-.59-.59c0-.33.27-.6.6-.6a.6.6 0 1 1 0 1.2Zm0 3.53a.6.6 0 0 1-.59-.59c0-.33.27-.6.6-.6a.6.6 0 1 1 0 1.2Z"/>
      </g>
      <g filter="url(#filter1_d_6132_116062)">
        <rect width="388.57" height="130.78" x="206.81" y="81.24" fill="#fff" rx="5.75"/>
        <rect width="387.85" height="130.07" x="207.17" y="81.6" stroke="#C3C6D9" stroke-width=".72" rx="5.39"/>
        <rect width="14.36" height="14.36" x="215.43" y="92.73" fill="#4B4DB4" rx="7.18"/>
        <path fill="#828599" d="M216.27 118.97v-6.58h2.5c1.28 0 2.1.77 2.1 1.95v.01c0 .92-.49 1.63-1.31 1.89l1.52 2.73h-.97l-1.4-2.6h-1.62v2.6h-.82Zm.82-3.34h1.62c.84 0 1.32-.45 1.32-1.25s-.51-1.26-1.36-1.26h-1.58v2.51Zm6.82 3.42c-1.11 0-1.69-.65-1.69-1.82v-3.18h.8v3c0 .88.31 1.3 1.1 1.3.87 0 1.32-.53 1.32-1.39v-2.9h.8v4.9h-.8v-.73h-.07c-.24.53-.74.82-1.46.82Zm3.81-.08v-4.92h.8v.74h.07c.24-.52.7-.83 1.43-.83 1.1 0 1.72.66 1.72 1.82v3.19h-.8v-3c0-.88-.36-1.3-1.15-1.3-.78 0-1.28.53-1.28 1.39v2.9h-.79Zm5.45 0v-4.92h.8v.74h.07c.25-.52.7-.83 1.43-.83 1.1 0 1.72.66 1.72 1.82v3.19h-.8v-3c0-.88-.36-1.3-1.14-1.3-.79 0-1.28.53-1.28 1.39v2.9h-.8Zm5.88-5.87a.55.55 0 0 1-.55-.54c0-.3.24-.55.54-.55.3 0 .55.25.55.55 0 .3-.24.54-.55.54Zm-.4 5.87v-4.92h.79v4.92h-.8Zm2.28 0v-4.92h.8v.74h.07c.24-.52.7-.83 1.43-.83 1.1 0 1.72.66 1.72 1.82v3.19h-.8v-3c0-.88-.36-1.3-1.14-1.3-.79 0-1.28.53-1.28 1.39v2.9h-.8Zm7.48 1.73c-1.19 0-1.94-.53-2.07-1.34h.83c.1.37.53.64 1.24.64.88 0 1.4-.42 1.4-1.14v-1h-.07a1.7 1.7 0 0 1-1.54.85c-1.27 0-2.06-.98-2.06-2.36 0-1.39.8-2.38 2.08-2.38.7 0 1.23.34 1.53.9h.06v-.82h.79v4.85c0 1.1-.85 1.8-2.19 1.8Zm-.04-2.7c.91 0 1.46-.67 1.46-1.65 0-.98-.55-1.68-1.46-1.68-.9 0-1.42.7-1.42 1.67v.01c0 .98.51 1.66 1.42 1.66Zm6.75 2.69c-.1 0-.24 0-.35-.03v-.65c.1.02.22.02.33.02.45 0 .72-.2.9-.77l.1-.29-1.83-4.92h.85l1.35 4.05h.07l1.35-4.05h.83l-1.92 5.22c-.4 1.1-.8 1.42-1.68 1.42Zm6.49-1.64c-1.4 0-2.27-.96-2.27-2.54s.87-2.55 2.27-2.55 2.26.97 2.26 2.55c0 1.58-.86 2.54-2.26 2.54Zm0-.7c.93 0 1.45-.68 1.45-1.84 0-1.17-.52-1.84-1.45-1.84-.93 0-1.46.67-1.46 1.83v.01c0 1.16.53 1.84 1.46 1.84Zm5.14.7c-1.12 0-1.69-.65-1.69-1.82v-3.18h.8v3c0 .88.31 1.3 1.1 1.3.86 0 1.32-.53 1.32-1.39v-2.9h.8v4.9h-.8v-.73h-.07c-.24.53-.74.82-1.46.82Zm3.8-.08v-4.92h.8v.73h.07c.2-.51.65-.81 1.32-.81.15 0 .32.01.4.03v.77a2.8 2.8 0 0 0-.5-.05c-.75 0-1.29.48-1.29 1.2v3.05h-.8Zm7.54.08c-.94 0-1.64-.56-1.64-1.46 0-.88.65-1.39 1.79-1.45l1.4-.1v-.44c0-.6-.36-.93-1.1-.93-.58 0-.97.22-1.1.6v.01h-.8v-.02c.14-.78.88-1.3 1.93-1.3 1.2 0 1.87.62 1.87 1.64v3.37h-.8v-.73h-.06c-.31.53-.83.81-1.49.81Zm-.83-1.47c0 .5.42.78 1 .78.8 0 1.39-.52 1.39-1.23v-.44l-1.31.08c-.75.05-1.08.3-1.08.8Zm4.63 3.03v-6.56h.8v.79h.07c.3-.55.85-.88 1.53-.88 1.25 0 2.06 1.01 2.06 2.55 0 1.55-.81 2.54-2.06 2.54-.67 0-1.26-.33-1.53-.86h-.07v2.42h-.8Zm2.22-2.26c.9 0 1.43-.7 1.43-1.84 0-1.15-.53-1.84-1.43-1.84-.9 0-1.44.7-1.44 1.83v.01c0 1.14.54 1.84 1.44 1.84Zm3.48 2.26v-6.56h.8v.79h.07c.3-.55.85-.88 1.53-.88 1.24 0 2.06 1.01 2.06 2.55 0 1.55-.81 2.54-2.06 2.54a1.7 1.7 0 0 1-1.53-.86h-.07v2.42h-.8Zm2.22-2.26c.9 0 1.43-.7 1.43-1.84 0-1.15-.54-1.84-1.43-1.84-.9 0-1.44.7-1.44 1.83v.01c0 1.14.54 1.84 1.44 1.84Zm7.06.62-1.38-4.92h.8l.96 3.93h.07l1.1-3.93h.75l1.1 3.93h.07l.97-3.93h.79l-1.38 4.92h-.8l-1.1-3.8h-.07l-1.1 3.8h-.78Zm6.7-5.87a.55.55 0 0 1-.55-.54c0-.3.25-.55.55-.55a.55.55 0 0 1 0 1.1Zm-.4 5.87v-4.92h.79v4.92h-.8Zm2.33 0v-6.87h.8v6.87h-.8Zm2.36 0v-6.87h.8v6.87h-.8Zm5.36-5.87a.55.55 0 0 1-.54-.54c0-.3.24-.55.54-.55.3 0 .55.25.55.55 0 .3-.25.54-.55.54Zm-.4 5.87v-4.92h.8v4.92h-.8Zm2.29 0v-4.92h.8v.74h.07c.24-.52.7-.83 1.43-.83 1.1 0 1.72.66 1.72 1.82v3.19h-.8v-3c0-.88-.36-1.3-1.14-1.3-.79 0-1.29.53-1.29 1.39v2.9h-.79Zm7.2.03c-1.01 0-1.44-.37-1.44-1.31v-2.98h-.77v-.66h.77v-1.27h.82v1.27h1.08v.66h-1.08v2.78c0 .58.2.81.71.81.15 0 .22 0 .37-.02v.68c-.15.03-.3.04-.46.04Zm3.58.05c-1.4 0-2.25-.98-2.25-2.52 0-1.53.86-2.56 2.2-2.56 1.33 0 2.15.99 2.15 2.46v.3h-3.54c.02 1.02.58 1.62 1.46 1.62.66 0 1.07-.32 1.2-.61l.02-.05h.8l-.01.04c-.17.67-.87 1.32-2.03 1.32Zm-.06-4.38c-.73 0-1.28.5-1.37 1.43h2.72c-.08-.97-.62-1.43-1.35-1.43Zm5.41 6.03c-1.19 0-1.94-.53-2.06-1.34h.83c.09.37.52.64 1.23.64.88 0 1.4-.42 1.4-1.14v-1h-.07a1.7 1.7 0 0 1-1.54.85c-1.27 0-2.06-.98-2.06-2.36 0-1.39.8-2.38 2.08-2.38.7 0 1.23.34 1.53.9h.06v-.82h.79v4.85c0 1.1-.85 1.8-2.19 1.8Zm-.04-2.7c.92 0 1.46-.67 1.46-1.65 0-.98-.55-1.68-1.46-1.68-.9 0-1.42.7-1.42 1.67v.01c0 .98.51 1.66 1.42 1.66Zm3.7.97v-4.92h.8v.73h.07c.19-.51.65-.81 1.32-.81.15 0 .31.01.4.03v.77a2.78 2.78 0 0 0-.5-.05c-.75 0-1.29.48-1.29 1.2v3.05h-.8Zm4.91.08c-.93 0-1.64-.56-1.64-1.46 0-.88.65-1.39 1.8-1.45l1.4-.1v-.44c0-.6-.37-.93-1.1-.93-.59 0-.98.22-1.1.6l-.01.01h-.8l.01-.02c.13-.78.88-1.3 1.93-1.3 1.2 0 1.87.62 1.87 1.64v3.37h-.8v-.73h-.07c-.31.53-.83.81-1.49.81Zm-.83-1.47c0 .5.43.78 1 .78.8 0 1.4-.52 1.4-1.23v-.44l-1.32.08c-.75.05-1.08.3-1.08.8Zm6.38 1.42c-1.01 0-1.44-.37-1.44-1.31v-2.98h-.77v-.66h.78v-1.27h.81v1.27h1.08v.66h-1.07v2.78c0 .58.2.81.7.81.15 0 .23 0 .37-.02v.68c-.15.03-.3.04-.46.04Zm3.58.05c-1.4 0-2.25-.98-2.25-2.52 0-1.53.86-2.56 2.2-2.56 1.34 0 2.15.99 2.15 2.46v.3h-3.54c.02 1.02.58 1.62 1.46 1.62.66 0 1.07-.32 1.2-.61l.02-.05h.8l-.01.04c-.17.67-.87 1.32-2.03 1.32Zm-.06-4.38c-.73 0-1.28.5-1.37 1.43h2.72c-.08-.97-.62-1.43-1.35-1.43Zm6.43 6.02c-.1 0-.24 0-.35-.03v-.65c.1.02.22.02.33.02.45 0 .72-.2.9-.77l.1-.29-1.83-4.92h.85l1.35 4.05h.08l1.34-4.05h.84l-1.92 5.22c-.41 1.1-.82 1.42-1.69 1.42Zm6.5-1.64c-1.4 0-2.27-.96-2.27-2.54s.86-2.55 2.26-2.55 2.27.97 2.27 2.55c0 1.58-.87 2.54-2.27 2.54Zm0-.7c.92 0 1.44-.68 1.44-1.84 0-1.17-.52-1.84-1.45-1.84-.93 0-1.45.67-1.45 1.83v.01c0 1.16.52 1.84 1.45 1.84Zm5.13.7c-1.11 0-1.69-.65-1.69-1.82v-3.18h.8v3c0 .88.31 1.3 1.1 1.3.87 0 1.33-.53 1.33-1.39v-2.9h.79v4.9h-.8v-.73h-.07c-.24.53-.74.82-1.46.82Zm3.81-.08v-4.92h.8v.73h.07c.18-.51.64-.81 1.31-.81.15 0 .32.01.4.03v.77a2.8 2.8 0 0 0-.5-.05c-.75 0-1.29.48-1.29 1.2v3.05h-.79Zm8.19.08c-1.4 0-2.25-.98-2.25-2.52 0-1.53.86-2.56 2.2-2.56 1.34 0 2.15.99 2.15 2.46v.3h-3.54c.02 1.02.58 1.62 1.46 1.62.66 0 1.07-.32 1.2-.61l.02-.05h.8l-.01.04c-.17.67-.87 1.32-2.03 1.32Zm-.06-4.38c-.73 0-1.28.5-1.37 1.43h2.72c-.08-.97-.62-1.43-1.35-1.43Zm3.39 4.3v-4.92h.8v.74h.06c.25-.52.71-.83 1.44-.83 1.1 0 1.71.66 1.71 1.82v3.19h-.79v-3c0-.88-.36-1.3-1.15-1.3-.78 0-1.28.53-1.28 1.39v2.9h-.8Zm6.66 0-1.82-4.92h.84l1.34 4.05h.08l1.34-4.05h.84l-1.82 4.92h-.8Zm4.09-5.87a.55.55 0 0 1-.55-.54c0-.3.25-.55.55-.55.3 0 .55.25.55.55 0 .3-.25.54-.55.54Zm-.4 5.87v-4.92h.79v4.92h-.8Zm2.28 0v-4.92h.8v.73h.07c.19-.51.65-.81 1.31-.81.16 0 .32.01.4.03v.77a2.78 2.78 0 0 0-.49-.05c-.75 0-1.3.48-1.3 1.2v3.05h-.79Zm5.44.08c-1.4 0-2.26-.96-2.26-2.54s.87-2.55 2.26-2.55c1.4 0 2.27.97 2.27 2.55 0 1.58-.87 2.54-2.27 2.54Zm0-.7c.94 0 1.46-.68 1.46-1.84 0-1.17-.53-1.84-1.46-1.84-.93 0-1.45.67-1.45 1.83v.01c0 1.16.52 1.84 1.45 1.84Zm3.5.62v-4.92h.8v.74h.07c.24-.52.7-.83 1.43-.83 1.1 0 1.72.66 1.72 1.82v3.19h-.8v-3c0-.88-.36-1.3-1.14-1.3-.79 0-1.29.53-1.29 1.39v2.9h-.79Zm5.45 0v-4.92h.8v.75h.07c.22-.53.68-.83 1.33-.83.66 0 1.13.35 1.36.86h.07c.26-.52.82-.86 1.5-.86 1 0 1.57.57 1.57 1.6v3.4h-.8v-3.22c0-.72-.33-1.08-1.02-1.08a1.1 1.1 0 0 0-1.14 1.14v3.16h-.8v-3.34c0-.58-.4-.96-1.01-.96-.65 0-1.13.56-1.13 1.25v3.05h-.8Zm10.13.08c-1.4 0-2.25-.98-2.25-2.52 0-1.53.87-2.56 2.2-2.56 1.34 0 2.15.99 2.15 2.46v.3h-3.54c.03 1.02.59 1.62 1.46 1.62.67 0 1.08-.32 1.21-.61l.02-.05h.8l-.02.04c-.16.67-.87 1.32-2.02 1.32Zm-.05-4.38c-.73 0-1.29.5-1.37 1.43h2.71c-.08-.97-.61-1.43-1.34-1.43Zm3.38 4.3v-4.92h.8v.74h.07c.25-.52.7-.83 1.43-.83 1.1 0 1.72.66 1.72 1.82v3.19h-.8v-3c0-.88-.36-1.3-1.14-1.3-.79 0-1.28.53-1.28 1.39v2.9h-.8Zm7.2.03c-1.01 0-1.43-.37-1.43-1.31v-2.98h-.78v-.66h.78v-1.27h.82v1.27h1.07v.66h-1.07v2.78c0 .58.2.81.7.81.15 0 .23 0 .37-.02v.68c-.15.03-.3.04-.46.04Zm5.62.05c-.93 0-1.64-.56-1.64-1.46 0-.88.65-1.39 1.8-1.45l1.4-.1v-.44c0-.6-.37-.93-1.1-.93-.59 0-.98.22-1.1.6v.01h-.8v-.02c.13-.78.88-1.3 1.93-1.3 1.2 0 1.87.62 1.87 1.64v3.37h-.8v-.73h-.07c-.31.53-.83.81-1.49.81Zm-.83-1.47c0 .5.43.78 1 .78.8 0 1.4-.52 1.4-1.23v-.44l-1.32.08c-.75.05-1.08.3-1.08.8Zm4.64 1.39v-4.92h.79v.74h.07c.25-.52.7-.83 1.43-.83 1.1 0 1.72.66 1.72 1.82v3.19h-.8v-3c0-.88-.36-1.3-1.14-1.3-.78 0-1.28.53-1.28 1.39v2.9h-.8Zm7.26.08c-1.24 0-2.06-1-2.06-2.54 0-1.55.81-2.55 2.06-2.55.68 0 1.27.34 1.54.87h.07v-2.73h.8v6.87h-.8v-.79h-.07c-.3.55-.85.87-1.54.87Zm.19-.7c.89 0 1.44-.7 1.44-1.84 0-1.14-.55-1.84-1.44-1.84-.9 0-1.44.69-1.44 1.83v.01c0 1.15.54 1.84 1.44 1.84Zm6.46.62v-6.58h2.26c1.95 0 3.1 1.22 3.1 3.28v.01c0 2.07-1.15 3.29-3.1 3.29h-2.26Zm.82-.74h1.38c1.47 0 2.32-.94 2.32-2.54v-.01c0-1.6-.86-2.55-2.32-2.55h-1.38v5.1Zm6.28-5.13a.55.55 0 0 1-.54-.54c0-.3.24-.55.54-.55.3 0 .55.25.55.55 0 .3-.25.54-.55.54Zm-.4 5.87v-4.92h.8v4.92h-.8Zm4.31 1.73c-1.18 0-1.94-.53-2.06-1.34h.83c.1.37.53.64 1.24.64.88 0 1.4-.42 1.4-1.14v-1h-.07a1.7 1.7 0 0 1-1.54.85c-1.28 0-2.06-.98-2.06-2.36 0-1.39.79-2.38 2.07-2.38.7 0 1.24.34 1.54.9h.05v-.82h.8v4.85c0 1.1-.85 1.8-2.2 1.8Zm-.03-2.7c.91 0 1.46-.67 1.46-1.65 0-.98-.55-1.68-1.46-1.68-.91 0-1.42.7-1.42 1.67v.01c0 .98.5 1.66 1.42 1.66Zm3.7.97v-4.92h.8v.75h.07c.22-.53.68-.83 1.32-.83.67 0 1.13.35 1.36.86h.08c.26-.52.82-.86 1.5-.86 1 0 1.56.57 1.56 1.6v3.4h-.79v-3.22c0-.72-.33-1.08-1.02-1.08a1.1 1.1 0 0 0-1.14 1.14v3.16h-.8v-3.34c0-.58-.4-.96-1.02-.96-.64 0-1.13.56-1.13 1.25v3.05h-.79Zm9.47.08c-.93 0-1.64-.56-1.64-1.46 0-.88.65-1.39 1.8-1.45l1.4-.1v-.44c0-.6-.37-.93-1.1-.93-.59 0-.97.22-1.1.6v.01h-.8v-.02c.13-.78.88-1.3 1.93-1.3 1.2 0 1.87.62 1.87 1.64v3.37h-.8v-.73h-.07c-.3.53-.82.81-1.49.81Zm-.82-1.47c0 .5.42.78.99.78.8 0 1.4-.52 1.4-1.23v-.44l-1.32.08c-.75.05-1.07.3-1.07.8Zm9.26 1.47c-1.37 0-2.25-1-2.25-2.55v-.01c0-1.53.87-2.52 2.25-2.52 1.2 0 1.91.68 2.06 1.56v.03h-.79v-.02c-.13-.48-.56-.87-1.27-.87-.88 0-1.44.7-1.44 1.82 0 1.14.56 1.86 1.44 1.86.66 0 1.08-.29 1.26-.84l.01-.03h.79l-.01.05c-.2.89-.87 1.52-2.05 1.52Zm4.57 0c-.94 0-1.64-.56-1.64-1.46 0-.88.64-1.39 1.79-1.45l1.4-.1v-.44c0-.6-.36-.93-1.1-.93-.58 0-.97.22-1.1.6v.01h-.8v-.02c.13-.78.88-1.3 1.93-1.3 1.2 0 1.87.62 1.87 1.64v3.37h-.8v-.73h-.07c-.3.53-.82.81-1.48.81Zm-.83-1.47c0 .5.42.78 1 .78.8 0 1.39-.52 1.39-1.23v-.44l-1.32.08c-.74.05-1.07.3-1.07.8Zm4.63 1.39v-4.92h.8v.74h.07c.24-.52.7-.83 1.43-.83 1.1 0 1.72.66 1.72 1.82v3.19h-.8v-3c0-.88-.36-1.3-1.15-1.3-.78 0-1.28.53-1.28 1.39v2.9h-.79Zm9.77.08c-1.1 0-1.85-.52-1.94-1.34h.81c.13.41.52.68 1.15.68.66 0 1.13-.31 1.13-.76 0-.34-.25-.57-.85-.72l-.76-.18c-.93-.22-1.34-.62-1.34-1.33 0-.82.78-1.44 1.83-1.44 1.03 0 1.74.52 1.85 1.32h-.78c-.1-.39-.48-.65-1.08-.65-.58 0-1 .3-1 .73v.01c0 .33.24.54.82.68l.75.19c.93.22 1.38.62 1.38 1.32v.01c0 .88-.86 1.48-1.97 1.48Zm4.9-.05c-1.02 0-1.44-.37-1.44-1.31v-2.98h-.77v-.66h.77v-1.27h.82v1.27h1.08v.66h-1.08v2.78c0 .58.2.81.71.81.14 0 .22 0 .37-.02v.68c-.16.03-.3.04-.46.04Zm3 .05c-.94 0-1.65-.56-1.65-1.46 0-.88.65-1.39 1.8-1.45l1.4-.1v-.44c0-.6-.37-.93-1.1-.93-.59 0-.98.22-1.1.6l-.01.01h-.8l.01-.02c.13-.78.88-1.3 1.93-1.3 1.2 0 1.87.62 1.87 1.64v3.37h-.8v-.73h-.07c-.31.53-.83.81-1.49.81Zm-.84-1.47c0 .5.43.78 1 .78.8 0 1.4-.52 1.4-1.23v-.44l-1.32.08c-.75.05-1.08.3-1.08.8Zm4.64 1.39v-4.92h.79v.73h.07c.19-.51.65-.81 1.31-.81.15 0 .32.01.4.03v.77a2.8 2.8 0 0 0-.49-.05c-.75 0-1.3.48-1.3 1.2v3.05h-.78Zm5.39.03c-1.01 0-1.44-.37-1.44-1.31v-2.98h-.77v-.66h.77v-1.27h.82v1.27h1.08v.66h-1.08v2.78c0 .58.2.81.71.81.14 0 .22 0 .37-.02v.68c-.16.03-.3.04-.46.04Zm5.96.05c-1.1 0-1.85-.52-1.94-1.34h.81c.13.41.52.68 1.15.68.66 0 1.13-.31 1.13-.76 0-.34-.25-.57-.85-.72l-.76-.18c-.92-.22-1.34-.62-1.34-1.33 0-.82.78-1.44 1.83-1.44 1.03 0 1.75.52 1.85 1.32h-.78c-.1-.39-.48-.65-1.08-.65-.58 0-1 .3-1 .73v.01c0 .33.24.54.82.68l.75.19c.93.22 1.38.62 1.38 1.32v.01c0 .88-.86 1.48-1.97 1.48Zm3.24-.08v-6.87h.8v2.7h.07c.25-.53.7-.83 1.43-.83 1.1 0 1.72.65 1.72 1.81v3.19h-.8v-3c0-.88-.36-1.3-1.14-1.3-.79 0-1.28.53-1.28 1.39v2.9h-.8Zm7.48.08c-1.4 0-2.27-.96-2.27-2.54s.87-2.55 2.27-2.55 2.26.97 2.26 2.55c0 1.58-.87 2.54-2.26 2.54Zm0-.7c.93 0 1.45-.68 1.45-1.84 0-1.17-.52-1.84-1.45-1.84-.93 0-1.46.67-1.46 1.83v.01c0 1.16.53 1.84 1.46 1.84Zm4.26.62-1.38-4.92h.8l.96 3.93h.07l1.1-3.93h.75l1.1 3.93h.08l.96-3.93h.8l-1.38 4.92h-.8l-1.1-3.8h-.07l-1.1 3.8h-.8Zm6.7-5.87a.55.55 0 0 1-.55-.54c0-.3.25-.55.55-.55.3 0 .55.25.55.55 0 .3-.25.54-.55.54Zm-.4 5.87v-4.92h.8v4.92h-.8Zm2.29 0v-4.92h.8v.74h.06c.25-.52.71-.83 1.44-.83 1.1 0 1.71.66 1.71 1.82v3.19h-.79v-3c0-.88-.36-1.3-1.15-1.3-.78 0-1.28.53-1.28 1.39v2.9h-.8Zm7.48 1.73c-1.19 0-1.95-.53-2.07-1.34h.83c.1.37.53.64 1.24.64.88 0 1.4-.42 1.4-1.14v-1h-.07a1.7 1.7 0 0 1-1.55.85c-1.27 0-2.05-.98-2.05-2.36 0-1.39.79-2.38 2.07-2.38.7 0 1.24.34 1.54.9h.05v-.82h.8v4.85c0 1.1-.85 1.8-2.2 1.8Zm-.04-2.7c.91 0 1.46-.67 1.46-1.65 0-.98-.55-1.68-1.46-1.68-.91 0-1.42.7-1.42 1.67v.01c0 .98.5 1.66 1.42 1.66Zm6.75 2.69c-.1 0-.25 0-.36-.03v-.65c.1.02.22.02.33.02.46 0 .73-.2.9-.77l.1-.29-1.82-4.92h.85l1.35 4.05h.07l1.34-4.05h.84l-1.92 5.22c-.4 1.1-.81 1.42-1.68 1.42Zm6.48-1.64c-1.4 0-2.26-.96-2.26-2.54s.86-2.55 2.26-2.55 2.27.97 2.27 2.55c0 1.58-.87 2.54-2.27 2.54Zm0-.7c.93 0 1.46-.68 1.46-1.84 0-1.17-.53-1.84-1.46-1.84-.93 0-1.45.67-1.45 1.83v.01c0 1.16.52 1.84 1.45 1.84Zm5.15.7c-1.12 0-1.7-.65-1.7-1.82v-3.18h.8v3c0 .88.32 1.3 1.1 1.3.87 0 1.33-.53 1.33-1.39v-2.9h.8v4.9h-.8v-.73h-.07c-.25.53-.74.82-1.46.82Zm-359.87 6.05a.55.55 0 0 1-.55-.54c0-.3.25-.55.55-.55a.55.55 0 0 1 0 1.1Zm-.4 5.87v-4.92h.79v4.92h-.8Zm2.28 0v-4.92h.8v.74h.07c.25-.52.7-.83 1.43-.83 1.1 0 1.72.66 1.72 1.82v3.19h-.8v-3c0-.88-.36-1.3-1.14-1.3-.79 0-1.28.53-1.28 1.39v2.9h-.8Zm5.78 0v-4.26h-.81v-.66h.81v-.55c0-.97.5-1.44 1.43-1.44.2 0 .37 0 .53.04v.63a2.2 2.2 0 0 0-.37-.02c-.56 0-.8.28-.8.82v.52h1.13v.66h-1.12v4.26h-.8Zm4.87.08c-1.4 0-2.27-.96-2.27-2.54s.87-2.54 2.27-2.54 2.27.96 2.27 2.53v.01c0 1.58-.87 2.54-2.27 2.54Zm0-.7c.93 0 1.45-.68 1.45-1.84 0-1.17-.52-1.84-1.45-1.84-.93 0-1.46.67-1.46 1.83v.01c0 1.16.53 1.84 1.46 1.84Zm3.83-1.57-.08-4.4h.91l-.07 4.4h-.76Zm.38 2.27a.61.61 0 0 1-.63-.64.6.6 0 0 1 .63-.63.6.6 0 0 1 .63.63.6.6 0 0 1-.63.64Z"/>
      </g>
    </g>
    <path fill="#C3C6D9" d="M-199 41.73h803V40.3h-803v1.43Z" mask="url(#path-1-inside-1_6132_116062)"/>
    <g clip-path="url(#clip3_6132_116062)">
      <mask id="path-15-inside-2_6132_116062" fill="#fff">
        <path d="M-199 9.41h803v31.6h-803V9.41Z"/>
      </mask>
      <path fill="#E6E8F2" d="M-199 9.41h803v31.6h-803V9.41Z"/>
      <g fill="#828599" opacity=".35">
        <path d="M-42.07 28.37c-1.44 0-2.37-.76-2.47-1.83v-.05h.82v.05c.06.66.75 1.07 1.7 1.07.89 0 1.54-.46 1.54-1.13 0-.55-.38-.93-1.28-1.13l-.73-.16c-1.32-.29-1.89-.9-1.89-1.85 0-1.09.96-1.86 2.32-1.86 1.31 0 2.23.77 2.3 1.75v.07h-.82v-.06c-.1-.58-.65-1-1.5-1-.82 0-1.46.39-1.46 1.08 0 .53.36.88 1.26 1.08l.73.16c1.37.3 1.91.86 1.91 1.8v.01c0 1.23-.96 2-2.43 2Zm3.27-.16 2.43-6.58h.81l2.43 6.58H-34l-.67-1.88h-2.61l-.66 1.88h-.87Zm2.8-5.51-1.03 2.93h2.13l-1.03-2.93H-36Zm4.02 5.51v-6.58h.95l2.26 5.5h.07l2.25-5.5h.95v6.58h-.76V23.2h-.05l-2.08 5.02h-.7l-2.07-5.02h-.05v5.02h-.77Zm8.16 0v-6.58h2.48c1.24 0 2.11.86 2.11 2.1v.01c0 1.25-.87 2.12-2.1 2.12H-23v2.35h-.82Zm2.27-5.85H-23v2.78h1.45c.94 0 1.48-.52 1.48-1.39 0-.87-.54-1.39-1.48-1.39Zm3.67 5.85v-6.58h.82v5.84h3.17v.74h-4Zm5.3 0v-6.58h4.08v.74h-3.26v2.11h3.1v.73h-3.1v2.26h3.26v.74h-4.08Zm4.73 1.2v-.74h5.45v.74h-5.45Zm6.29-1.2v-6.58h4.08v.74H-.74v2.11h3.09v.73H-.74v2.26h3.26v.74h-4.08Zm5.56 0v-6.58h.8l3.57 5.12h.07v-5.12h.81v6.58h-.8l-3.56-5.1H4.8v5.1H4Zm8.83 0-2.42-6.58h.86l1.93 5.52h.07l1.94-5.52h.86l-2.43 6.58h-.8Z" opacity=".35"/>
        <g clip-path="url(#clip4_6132_116062)">
          <path d="M24.12 25.62a.4.4 0 1 0 0-.81.4.4 0 0 0 0 .8Zm0-2.29a.4.4 0 1 0 0-.81.4.4 0 0 0 0 .8Zm0 4.57a.4.4 0 1 0 0-.8.4.4 0 0 0 0 .8Z"/>
        </g>
      </g>
      <mask id="path-21-inside-3_6132_116062" fill="#fff">
        <path d="M39.92 9.41h66.73v31.6H39.92V9.41Z"/>
      </mask>
      <path fill="#6063F6" d="M106.65 40.3H39.92v1.43h66.73V40.3Z" mask="url(#path-21-inside-3_6132_116062)"/>
      <g clip-path="url(#clip5_6132_116062)">
        <path stroke="#2C2E33" stroke-linecap="round" stroke-linejoin="round" stroke-width=".72" d="m46.38 26.03-.29.33a1.62 1.62 0 1 1 0-2.29l2.02 2.29a1.62 1.62 0 1 0 0-2.29l-.29.33"/>
      </g>
      <path fill="#27282E" d="M55.12 28.21v-6.58h.96l2.25 5.5h.07l2.25-5.5h.96v6.58h-.77V23.2h-.05l-2.08 5.02h-.7l-2.07-5.02h-.05v5.02h-.77Zm9.97 0v-2.83l-2.33-3.75h.93l1.78 2.93h.07l1.77-2.93h.94l-2.34 3.75v2.83h-.82Zm2.65 1.2v-.74h5.45v.74h-5.45Zm6.3-1.2v-6.58h4.07v.74h-3.25v2.11h3.08v.73h-3.08v2.26h3.25v.74h-4.08Zm5.56 0v-6.58h.8l3.56 5.12h.08v-5.12h.8v6.58h-.79l-3.57-5.1h-.07v5.1h-.81Zm8.83 0L86 21.63h.86l1.94 5.52h.07l1.93-5.52h.87l-2.43 6.58h-.81Z"/>
      <g fill="#2C2E33" clip-path="url(#clip6_6132_116062)">
        <path d="M99.47 25.62a.4.4 0 1 0 0-.81.4.4 0 0 0 0 .8Zm0-2.29a.4.4 0 1 0 0-.81.4.4 0 0 0 0 .8Zm0 4.57a.4.4 0 1 0 0-.8.4.4 0 0 0 0 .8Z"/>
      </g>
    </g>
    <path fill="#C3C6D9" d="M-199 10.13h803V8.69h-803v1.44Z" mask="url(#path-15-inside-2_6132_116062)"/>
    <path fill="#E6E8F2" d="M-199-25h803V9.41h-803z" opacity=".1"/>
    <path fill="url(#paint0_linear_6132_116062)" d="M272 70h44v285h-44z" transform="rotate(90 272 70)"/>
    <path fill="url(#paint1_linear_6132_116062)" d="M194-5h25v125h-25z"/>
    <path fill="url(#paint2_linear_6132_116062)" d="M25 120h25v125H25z" transform="rotate(-180 25 120)"/>
  </g>
  <defs>
    <clipPath id="clip0_6132_116062">
      <use xlink:href="#reuse-0"/>
    </clipPath>
    <clipPath id="clip1_6132_116062">
      <path fill="#fff" d="M-199 41.01h803v179.63h-803V41.01Z"/>
    </clipPath>
    <clipPath id="clip2_6132_116062">
      <path fill="#fff" d="M192.11 55.38h8.62V64h-8.62z"/>
    </clipPath>
    <clipPath id="clip3_6132_116062">
      <path fill="#fff" d="M-199 9.41h803v31.6h-803V9.41Z"/>
    </clipPath>
    <clipPath id="clip4_6132_116062">
      <path fill="#fff" d="M19.8 20.9h8.63v8.62H19.8z"/>
    </clipPath>
    <clipPath id="clip5_6132_116062">
      <path fill="#fff" d="M42.8 20.9h8.61v8.62H42.8z"/>
    </clipPath>
    <clipPath id="clip6_6132_116062">
      <path fill="#fff" d="M95.16 20.9h8.62v8.62h-8.62z"/>
    </clipPath>
    <linearGradient id="paint0_linear_6132_116062" x1="316" x2="272" y1="210.22" y2="210.22" gradientUnits="userSpaceOnUse">
      <stop stop-color="#F0F1F7"/>
      <stop offset="1" stop-color="#F0F1F7" stop-opacity="0"/>
    </linearGradient>
    <linearGradient id="paint1_linear_6132_116062" x1="219" x2="194" y1="56.5" y2="56.5" gradientUnits="userSpaceOnUse">
      <stop stop-color="#F0F1F7"/>
      <stop offset="1" stop-color="#F0F1F7" stop-opacity="0"/>
    </linearGradient>
    <linearGradient id="paint2_linear_6132_116062" x1="50" x2="25" y1="181.5" y2="181.5" gradientUnits="userSpaceOnUse">
      <stop stop-color="#F0F1F7"/>
      <stop offset="1" stop-color="#F0F1F7" stop-opacity="0"/>
    </linearGradient>
    <filter id="filter0_d_6132_116062" width="394.32" height="136.53" x="-193.25" y="79.08" color-interpolation-filters="sRGB" filterUnits="userSpaceOnUse">
      <feFlood flood-opacity="0" result="BackgroundImageFix"/>
      <feColorMatrix in="SourceAlpha" result="hardAlpha" values="0 0 0 0 0 0 0 0 0 0 0 0 0 0 0 0 0 0 127 0"/>
      <feOffset dy=".72"/>
      <feGaussianBlur stdDeviation="1.44"/>
      <feComposite in2="hardAlpha" operator="out"/>
      <feColorMatrix values="0 0 0 0 0 0 0 0 0 0 0 0 0 0 0 0 0 0 0.45 0"/>
      <feBlend in2="BackgroundImageFix" result="effect1_dropShadow_6132_116062"/>
      <feBlend in="SourceGraphic" in2="effect1_dropShadow_6132_116062" result="shape"/>
    </filter>
    <filter id="filter1_d_6132_116062" width="394.32" height="136.53" x="203.94" y="79.08" color-interpolation-filters="sRGB" filterUnits="userSpaceOnUse">
      <feFlood flood-opacity="0" result="BackgroundImageFix"/>
      <feColorMatrix in="SourceAlpha" result="hardAlpha" values="0 0 0 0 0 0 0 0 0 0 0 0 0 0 0 0 0 0 127 0"/>
      <feOffset dy=".72"/>
      <feGaussianBlur stdDeviation="1.44"/>
      <feComposite in2="hardAlpha" operator="out"/>
      <feColorMatrix values="0 0 0 0 0 0 0 0 0 0 0 0 0 0 0 0 0 0 0.45 0"/>
      <feBlend in2="BackgroundImageFix" result="effect1_dropShadow_6132_116062"/>
      <feBlend in="SourceGraphic" in2="effect1_dropShadow_6132_116062" result="shape"/>
    </filter>
  </defs>
</svg>