<svg xmlns="http://www.w3.org/2000/svg" xmlns:xlink="http://www.w3.org/1999/xlink" fill="none" viewBox="0 0 218 114">
  <defs>
    <path id="reuse-0" fill="#fff" d="M0 0h218v114H0z"/>
  </defs>
  <g clip-path="url(#clip0_6132_115556)">
    <use xlink:href="#reuse-0"/>
    <path fill="#222326" d="M-199-25h803v245.64h-803z"/>
    <g clip-path="url(#clip1_6132_115556)">
      <mask id="path-1-inside-1_6132_115556" fill="#fff">
        <path d="M-199 41.59h803v179.05h-803V41.6Z"/>
      </mask>
      <path fill="#828599" d="M4.8 63.26v-6.58h4.07v.74H5.62v2.11H8.7v.73H5.62v2.26h3.25v.74H4.8Zm5.46 0v-4.91h.79v.74h.07c.25-.52.71-.83 1.43-.83 1.1 0 1.72.65 1.72 1.82v3.18h-.79v-2.99c0-.88-.36-1.3-1.15-1.3-.78 0-1.28.52-1.28 1.38v2.91h-.8Zm6.66 0-1.82-4.91h.84l1.34 4.05h.08l1.34-4.05h.84l-1.82 4.91h-.8ZM21 57.4a.55.55 0 0 1-.55-.55c0-.3.25-.55.55-.55a.55.55 0 0 1 0 1.1Zm-.4 5.86v-4.91h.79v4.91h-.8Zm2.29 0v-4.91h.79v.73h.07c.19-.52.65-.82 1.31-.82.15 0 .32.02.4.03v.77a2.86 2.86 0 0 0-.49-.04c-.75 0-1.3.48-1.3 1.2v3.04h-.78Zm5.43.09c-1.4 0-2.26-.97-2.26-2.54v-.01c0-1.58.86-2.54 2.26-2.54s2.27.96 2.27 2.54-.87 2.55-2.27 2.55Zm0-.7c.93 0 1.46-.68 1.46-1.84v-.01c0-1.16-.53-1.84-1.46-1.84-.93 0-1.45.68-1.45 1.84 0 1.17.52 1.85 1.45 1.85Zm3.5.61v-4.91h.8v.74h.07c.24-.52.7-.83 1.43-.83 1.1 0 1.72.65 1.72 1.82v3.18h-.8v-2.99c0-.88-.36-1.3-1.14-1.3-.79 0-1.29.52-1.29 1.38v2.91h-.79Zm5.45 0v-4.91h.8v.74h.07c.22-.52.68-.83 1.33-.83.66 0 1.13.35 1.36.86h.07c.26-.52.82-.86 1.5-.86 1 0 1.57.57 1.57 1.6v3.4h-.8v-3.21c0-.73-.33-1.09-1.02-1.09a1.1 1.1 0 0 0-1.14 1.14v3.16h-.8v-3.34c0-.58-.4-.96-1.01-.96-.64 0-1.13.56-1.13 1.26v3.04h-.8Zm10.13.09c-1.4 0-2.25-.99-2.25-2.53 0-1.52.87-2.56 2.2-2.56 1.34 0 2.15 1 2.15 2.46v.31h-3.54c.03 1.02.59 1.61 1.46 1.61.67 0 1.08-.31 1.21-.6l.02-.05h.8l-.02.04c-.17.66-.87 1.32-2.03 1.32Zm-.05-4.38c-.73 0-1.29.5-1.37 1.43h2.71c-.08-.97-.62-1.43-1.34-1.43Zm3.38 4.3v-4.92h.8v.74h.07c.25-.52.7-.83 1.43-.83 1.1 0 1.72.65 1.72 1.82v3.18h-.8v-2.99c0-.88-.36-1.3-1.14-1.3-.79 0-1.28.52-1.28 1.38v2.91h-.8Zm7.2.03c-1.01 0-1.43-.38-1.43-1.31V59h-.78v-.65h.78v-1.28h.82v1.28h1.07V59h-1.07v2.78c0 .58.2.82.7.82.15 0 .23 0 .37-.02v.67c-.15.03-.3.05-.46.05Zm4.37-.04v-6.58h.82v6.58h-.82Zm2.5 0v-6.58h2.26c1.95 0 3.1 1.22 3.1 3.29 0 2.07-1.14 3.3-3.1 3.3H64.8Zm.82-.74H67c1.47 0 2.32-.94 2.32-2.54 0-1.61-.86-2.56-2.32-2.56h-1.38v5.1Z" opacity=".35"/>
      <rect width="126.28" height="19.28" x="79.83" y="50.62" stroke="#4B4DB4" stroke-width=".72" rx="2.51"/>
      <path fill="#A1B5FF" d="M86 63.57V57.5h3.76v.68h-3v1.95h2.84v.67h-2.85v2.09h3v.68H86Zm5.13 0V57.5h.74l3.3 4.72h.06V57.5h.75v6.07h-.74l-3.3-4.7h-.06v4.7h-.75Zm8.15 0-2.24-6.07h.8l1.78 5.1h.07l1.78-5.1h.8l-2.24 6.07h-.75Zm2.6 1.1V64h5.04v.68h-5.03Zm5.81-1.1V57.5h.74l3.3 4.72h.06V57.5h.75v6.07h-.73l-3.3-4.7h-.07v4.7h-.75Zm5.92 0 2.24-6.07h.75l2.23 6.07h-.79l-.61-1.74H115l-.6 1.74h-.8Zm2.58-5.1-.95 2.72h1.97l-.95-2.71h-.07Zm3.71 5.1V57.5h.88l2.08 5.07h.07L125 57.5h.88v6.07h-.7v-4.64h-.05l-1.92 4.64h-.64l-1.92-4.64h-.04v4.64h-.71Zm7.53 0V57.5h3.76v.68h-3v1.95h2.85v.67h-2.85v2.09h3v.68h-3.76Zm5.73 0h-.6l.35-1.7h-1l.13-.6h1l.3-1.53h-1.04l.12-.6h1.05l.33-1.64h.6l-.34 1.64h1.39l.34-1.64h.6l-.34 1.64h1.05l-.12.6h-1.05l-.32 1.53h1.1l-.12.6h-1.1l-.35 1.7h-.6l.35-1.7h-1.38l-.35 1.7Zm.47-2.3h1.39l.3-1.53h-1.38l-.3 1.53Zm4.37 2.3V57.5h.75v6.07H138Zm2.3 0V57.5h2.09c1.8 0 2.86 1.12 2.86 3.03 0 1.92-1.06 3.04-2.86 3.04h-2.09Zm.76-.68h1.28c1.35 0 2.14-.87 2.14-2.34v-.01c0-1.48-.8-2.36-2.14-2.36h-1.28v4.7Zm6.1.68h-.6l.34-1.7h-.98l.11-.6h1l.31-1.53h-1.04l.12-.6h1.05l.33-1.64h.6l-.34 1.64h1.39l.33-1.64h.6l-.33 1.64h1.05l-.12.6h-1.05l-.32 1.53h1.1l-.12.6h-1.1l-.35 1.7h-.6l.35-1.7h-1.39l-.34 1.7Zm.47-2.3H149l.31-1.53h-1.38l-.31 1.53Zm5.75 2.3v-5.23h-.06l-1.55 1.12v-.8l1.62-1.16h.75v6.07h-.76Zm2.52 0v-.52l2.05-2.22c.77-.84 1-1.16 1-1.69 0-.64-.43-1.12-1.15-1.12-.73 0-1.21.47-1.21 1.19h-.73c0-1.08.83-1.85 2-1.85 1.05 0 1.86.72 1.86 1.7 0 .7-.3 1.2-1.4 2.34l-1.37 1.42v.07h2.88v.68h-3.94Zm7.26.1c-1.25 0-2.06-.7-2.14-1.66v-.05h.72v.05c.06.6.61 1 1.42 1 .8 0 1.34-.44 1.34-1.08v-.01c0-.75-.53-1.16-1.38-1.16h-.77v-.64h.73c.73 0 1.23-.45 1.23-1.06 0-.64-.41-1-1.16-1-.71 0-1.22.37-1.28.99v.04h-.74v-.04c.1-1 .89-1.65 2.02-1.65 1.16 0 1.92.64 1.92 1.56v.01c0 .75-.53 1.26-1.28 1.42v.02c.88.08 1.48.63 1.48 1.5 0 1.01-.9 1.76-2.1 1.76Zm6.11-.1v-1.26h-2.96v-.69a95.55 95.55 0 0 1 2.6-4.12h1.1v4.14h.87v.67H170v1.26h-.74Zm-2.18-1.93h2.19V58.2h-.05a77 77 0 0 0-2.14 3.39v.05Zm6.95 2.07c-1.13 0-1.94-.72-2.03-1.7v-.04h.73V62c.07.58.6 1.05 1.31 1.05.8 0 1.36-.58 1.36-1.4v-.01c0-.8-.56-1.38-1.35-1.38a1.42 1.42 0 0 0-1.28.73h-.66l.32-3.5h3.38v.69h-2.78l-.21 2.05h.07c.27-.4.74-.63 1.3-.63 1.13 0 1.95.85 1.95 2.03a2 2 0 0 1-2.1 2.08Zm3.94-.1a.55.55 0 0 1-.55-.54c0-.3.25-.55.55-.55a.55.55 0 1 1 0 1.1Zm2.19 0a.55.55 0 0 1-.55-.54c0-.3.25-.55.54-.55a.55.55 0 1 1 0 1.1Zm2.18 0a.55.55 0 0 1-.54-.54c0-.3.25-.55.54-.55a.55.55 0 1 1 0 1.1Z"/>
      <g stroke="#ACAFBF" stroke-linecap="round" stroke-linejoin="round" stroke-width=".72" clip-path="url(#clip2_6132_115556)">
        <path d="M197.77 61.6h1.61v-4.3h-4.3v1.61"/>
        <path d="M197.77 58.91h-4.31v4.31h4.3v-4.3Z"/>
      </g>
      <g filter="url(#filter0_d_6132_115556)">
        <rect width="388.57" height="130.21" x="-190.38" y="81.81" fill="#1A1B1E" rx="5.75"/>
        <rect width="387.85" height="129.5" x="-190.02" y="82.17" stroke="#37383F" stroke-width=".72" rx="5.39"/>
        <path fill="#ACAFBF" d="M-178.77 119.7c-1.44 0-2.37-.76-2.46-1.83v-.05h.81v.05c.07.65.75 1.07 1.7 1.07.9 0 1.54-.46 1.54-1.13 0-.56-.37-.93-1.28-1.13l-.73-.16c-1.31-.3-1.88-.9-1.88-1.85 0-1.1.95-1.86 2.31-1.86 1.31 0 2.23.77 2.3 1.75v.06h-.82v-.06c-.1-.57-.64-1-1.5-1-.82 0-1.46.4-1.46 1.08 0 .53.37.89 1.26 1.08l.73.17c1.37.3 1.91.85 1.91 1.8 0 1.24-.96 2-2.43 2Zm5.7-.07c-1.4 0-2.25-.99-2.25-2.53 0-1.52.87-2.56 2.2-2.56 1.34 0 2.15 1 2.15 2.46v.31h-3.53c.02 1.02.58 1.6 1.46 1.6.66 0 1.07-.3 1.2-.6l.02-.04h.8l-.01.03c-.17.67-.88 1.33-2.03 1.33Zm-.05-4.39c-.73 0-1.28.5-1.37 1.44h2.72c-.08-.98-.62-1.44-1.35-1.44Zm5.13 4.34c-1.01 0-1.44-.38-1.44-1.32v-2.98h-.77v-.66h.77v-1.27h.83v1.27h1.07v.66h-1.07v2.78c0 .58.2.81.7.81.15 0 .23 0 .37-.02v.68c-.15.03-.3.05-.46.05Zm5.92.05c-1.12 0-1.7-.66-1.7-1.82v-3.19h.8v3c0 .88.32 1.3 1.1 1.3.87 0 1.33-.53 1.33-1.39v-2.9h.8v4.9h-.8v-.72h-.07c-.24.52-.74.82-1.46.82Zm3.8 1.55v-6.56h.8v.79h.07c.3-.55.85-.87 1.53-.87 1.25 0 2.06 1 2.06 2.54 0 1.55-.8 2.55-2.06 2.55a1.7 1.7 0 0 1-1.53-.87h-.07v2.42h-.8Zm2.22-2.26c.9 0 1.43-.69 1.43-1.83v-.01c0-1.15-.53-1.84-1.43-1.84-.9 0-1.44.7-1.44 1.84 0 1.14.55 1.84 1.44 1.84Zm7.86.66c-1.02 0-1.44-.38-1.44-1.32v-2.98h-.77v-.66h.77v-1.27h.82v1.27h1.08v.66h-1.08v2.78c0 .58.2.81.71.81.14 0 .22 0 .37-.02v.68c-.16.03-.3.05-.46.05Zm1.69-.04v-6.87h.8v2.7h.06c.25-.53.71-.83 1.44-.83 1.1 0 1.71.65 1.71 1.82v3.18h-.79v-3c0-.88-.36-1.3-1.15-1.3-.78 0-1.28.53-1.28 1.39v2.9h-.8Zm7.46.09c-1.4 0-2.25-.99-2.25-2.53 0-1.52.86-2.56 2.2-2.56 1.33 0 2.15 1 2.15 2.46v.31h-3.54c.02 1.02.58 1.6 1.46 1.6.66 0 1.07-.3 1.2-.6l.02-.04h.8l-.01.03c-.17.67-.87 1.33-2.03 1.33Zm-.06-4.39c-.73 0-1.28.5-1.37 1.44h2.72c-.08-.98-.62-1.44-1.35-1.44Zm6.34 4.3v-4.26h-.82v-.66h.82v-.54c0-.98.5-1.45 1.43-1.45a3 3 0 0 1 .53.04v.64c-.1-.02-.23-.03-.37-.03-.57 0-.8.28-.8.82v.52h1.12v.66h-1.12v4.26h-.79Zm4.86.09c-1.4 0-2.26-.97-2.26-2.54v-.01c0-1.58.87-2.54 2.27-2.54s2.26.96 2.26 2.54-.87 2.55-2.27 2.55Zm0-.7c.94 0 1.46-.69 1.46-1.84v-.01c0-1.16-.53-1.84-1.45-1.84-.93 0-1.46.68-1.46 1.84 0 1.16.53 1.84 1.45 1.84Zm3.55.6v-6.86h.79v6.87h-.8Zm2.36 0v-6.86h.8v6.87h-.8Zm4.33.1c-1.4 0-2.26-.97-2.26-2.54v-.01c0-1.58.86-2.54 2.27-2.54 1.4 0 2.26.96 2.26 2.54s-.87 2.55-2.27 2.55Zm0-.7c.94 0 1.46-.69 1.46-1.84v-.01c0-1.16-.52-1.84-1.45-1.84-.93 0-1.46.68-1.46 1.84 0 1.16.53 1.84 1.45 1.84Zm4.27.6-1.38-4.9h.8l.96 3.92h.07l1.1-3.93h.75l1.1 3.93h.08l.96-3.93h.8l-1.38 4.92h-.8l-1.1-3.8h-.07l-1.1 3.8h-.8Zm6.7-5.85a.55.55 0 0 1-.55-.55.55.55 0 0 1 1.1 0c0 .3-.25.55-.55.55Zm-.4 5.86v-4.92h.8v4.92h-.8Zm2.29 0v-4.92h.79v.74h.07c.25-.52.71-.82 1.44-.82 1.1 0 1.71.65 1.71 1.82v3.18h-.79v-3c0-.88-.36-1.3-1.15-1.3-.78 0-1.28.53-1.28 1.39v2.9h-.8Zm7.47 1.73c-1.18 0-1.94-.53-2.06-1.34h.83c.09.38.53.64 1.23.64.88 0 1.4-.41 1.4-1.14v-1h-.06a1.7 1.7 0 0 1-1.55.85c-1.27 0-2.06-.98-2.06-2.36s.8-2.38 2.08-2.38c.7 0 1.23.34 1.53.9h.06v-.82h.8v4.85c0 1.1-.86 1.8-2.2 1.8Zm-.03-2.69c.9 0 1.46-.68 1.46-1.66 0-.98-.56-1.68-1.46-1.68-.91 0-1.42.7-1.42 1.67v.01c0 .98.5 1.66 1.42 1.66Zm8.33 1.05c-1.4 0-2.25-.99-2.25-2.53 0-1.52.87-2.56 2.2-2.56 1.34 0 2.15 1 2.15 2.46v.31h-3.54c.02 1.02.58 1.6 1.46 1.6.67 0 1.08-.3 1.2-.6l.03-.04h.79v.03c-.18.67-.88 1.33-2.04 1.33Zm-.05-4.39c-.73 0-1.29.5-1.38 1.44h2.72c-.08-.98-.62-1.44-1.34-1.44Zm3.38 4.3v-4.92h.8v.74h.07c.24-.52.7-.82 1.43-.82 1.1 0 1.72.65 1.72 1.82v3.18h-.8v-3c0-.88-.36-1.3-1.15-1.3-.78 0-1.28.53-1.28 1.39v2.9h-.79Zm6.66 0-1.82-4.92h.84l1.35 4.05h.07l1.34-4.05h.84l-1.82 4.92h-.8Zm4.1-5.86a.55.55 0 0 1-.56-.55.55.55 0 0 1 1.1 0c0 .3-.25.55-.55.55Zm-.41 5.86v-4.92h.8v4.92h-.8Zm2.29 0v-4.92h.8v.73h.06c.2-.51.65-.81 1.32-.81.15 0 .32.02.4.03v.77a2.89 2.89 0 0 0-.5-.05c-.75 0-1.29.48-1.29 1.2v3.05h-.8Zm5.44.09c-1.4 0-2.27-.97-2.27-2.54v-.01c0-1.58.87-2.54 2.27-2.54s2.26.96 2.26 2.54-.86 2.55-2.26 2.55Zm0-.7c.93 0 1.45-.69 1.45-1.84v-.01c0-1.16-.52-1.84-1.45-1.84-.93 0-1.46.68-1.46 1.84 0 1.16.53 1.84 1.46 1.84Zm3.5.6v-4.9h.79v.73h.07c.25-.52.7-.82 1.43-.82 1.1 0 1.72.65 1.72 1.82v3.18h-.8v-3c0-.88-.36-1.3-1.14-1.3-.79 0-1.28.53-1.28 1.39v2.9h-.8Zm5.45 0v-4.9h.79v.74h.07c.22-.53.69-.83 1.33-.83.67 0 1.13.35 1.36.86h.07c.27-.52.83-.86 1.5-.86 1 0 1.57.57 1.57 1.6v3.4h-.8v-3.22c0-.72-.33-1.08-1.02-1.08a1.1 1.1 0 0 0-1.13 1.14v3.16h-.8v-3.34c0-.58-.4-.96-1.02-.96-.64 0-1.13.56-1.13 1.25v3.05h-.8Zm10.13.1c-1.4 0-2.26-.99-2.26-2.53 0-1.52.87-2.56 2.2-2.56 1.34 0 2.15 1 2.15 2.46v.31h-3.53c.02 1.02.58 1.6 1.46 1.6.66 0 1.07-.3 1.2-.6l.02-.04h.8l-.01.03c-.17.67-.87 1.33-2.03 1.33Zm-.06-4.39c-.73 0-1.28.5-1.37 1.44h2.72c-.08-.98-.62-1.44-1.35-1.44Zm3.39 4.3v-4.92h.79v.74h.07c.25-.52.7-.82 1.43-.82 1.1 0 1.72.65 1.72 1.82v3.18h-.8v-3c0-.88-.36-1.3-1.14-1.3-.78 0-1.28.53-1.28 1.39v2.9h-.8Zm7.2.04c-1.02 0-1.44-.38-1.44-1.32v-2.98h-.78v-.66h.78v-1.27h.82v1.27h1.07v.66h-1.07v2.78c0 .58.2.81.71.81.14 0 .22 0 .36-.02v.68c-.15.03-.3.05-.46.05Zm5.66-.04-1.82-4.92h.84l1.34 4.05h.07l1.35-4.05h.84l-1.82 4.92h-.8Zm4.83.09c-.93 0-1.64-.57-1.64-1.46v-.01c0-.88.65-1.38 1.8-1.45l1.4-.09v-.45c0-.6-.37-.93-1.1-.93-.59 0-.98.22-1.1.6v.02h-.8v-.03c.13-.77.88-1.3 1.93-1.3 1.2 0 1.87.62 1.87 1.64v3.37h-.8v-.73h-.07c-.3.53-.82.82-1.49.82Zm-.83-1.48c0 .5.43.79 1 .79.8 0 1.4-.53 1.4-1.23v-.45l-1.32.08c-.75.05-1.08.31-1.08.8Zm4.64 1.39v-4.92h.79v.73h.07c.19-.51.65-.81 1.32-.81.15 0 .32.02.4.03v.77a2.89 2.89 0 0 0-.5-.05c-.75 0-1.29.48-1.29 1.2v3.05h-.8Zm3.97-5.86a.55.55 0 0 1-.54-.55c0-.3.24-.55.54-.55a.55.55 0 0 1 0 1.1Zm-.4 5.86v-4.92h.8v4.92h-.8Zm3.64.09c-.94 0-1.64-.57-1.64-1.46v-.01c0-.88.65-1.38 1.79-1.45l1.4-.09v-.45c0-.6-.36-.93-1.1-.93-.58 0-.97.22-1.1.6v.02h-.8v-.03c.14-.77.88-1.3 1.93-1.3 1.2 0 1.87.62 1.87 1.64v3.37h-.8v-.73H-15c-.31.53-.83.82-1.5.82Zm-.83-1.48c0 .5.42.79 1 .79.8 0 1.39-.53 1.39-1.23v-.45l-1.31.08c-.75.05-1.08.31-1.08.8Zm7.08 1.48c-.69 0-1.24-.33-1.54-.88h-.07v.79h-.8v-6.87h.8v2.73h.07a1.7 1.7 0 0 1 1.54-.86c1.24 0 2.06 1 2.06 2.54s-.82 2.55-2.06 2.55Zm-.19-.7c.9 0 1.43-.7 1.43-1.84v-.01c0-1.15-.53-1.84-1.43-1.84-.9 0-1.44.7-1.44 1.84 0 1.14.55 1.84 1.44 1.84Zm3.52.6v-6.86h.8v6.87h-.8Zm4.32.1c-1.4 0-2.25-.99-2.25-2.53 0-1.52.87-2.56 2.2-2.56 1.34 0 2.15 1 2.15 2.46v.31h-3.54c.03 1.02.59 1.6 1.46 1.6.67 0 1.08-.3 1.21-.6l.02-.04h.8l-.02.03c-.17.67-.87 1.33-2.03 1.33Zm-.05-4.39c-.73 0-1.29.5-1.37 1.44h2.71c-.08-.98-.62-1.44-1.34-1.44Zm5.07 4.39c-1.1 0-1.85-.53-1.94-1.34h.81c.14.4.53.67 1.16.67.66 0 1.13-.31 1.13-.76 0-.34-.25-.57-.86-.72l-.76-.18c-.92-.22-1.34-.62-1.34-1.33 0-.82.79-1.43 1.83-1.43 1.03 0 1.75.51 1.86 1.31h-.78c-.1-.38-.49-.65-1.08-.65-.59 0-1.01.3-1.01.73v.01c0 .34.24.54.82.69l.76.18c.92.22 1.37.62 1.37 1.33 0 .88-.85 1.49-1.97 1.49Zm6.77-.1-1.37-4.9h.8l.96 3.92h.07l1.1-3.93h.75l1.1 3.93h.07l.97-3.93h.79l-1.38 4.92h-.8l-1.1-3.8h-.07l-1.1 3.8H9.2Zm6.33 0v-6.86h.8v2.7h.07c.25-.53.7-.83 1.43-.83 1.1 0 1.72.65 1.72 1.82v3.18h-.8v-3c0-.88-.36-1.3-1.14-1.3-.79 0-1.28.53-1.28 1.39v2.9h-.8Zm7.46.1c-1.4 0-2.25-.99-2.25-2.53 0-1.52.87-2.56 2.2-2.56 1.34 0 2.15 1 2.15 2.46v.31h-3.54c.02 1.02.58 1.6 1.46 1.6.67 0 1.08-.3 1.2-.6l.03-.04h.79v.03c-.18.67-.88 1.33-2.04 1.33Zm-.05-4.39c-.73 0-1.29.5-1.38 1.44h2.72c-.08-.98-.62-1.44-1.34-1.44Zm3.38 4.3v-4.92h.8v.74h.07c.24-.52.7-.82 1.43-.82 1.1 0 1.72.65 1.72 1.82v3.18h-.8v-3c0-.88-.36-1.3-1.15-1.3-.78 0-1.28.53-1.28 1.39v2.9h-.79Zm8.08 0v-4.92h.8v.73h.07c.18-.51.64-.81 1.3-.81.16 0 .33.02.4.03v.77a2.9 2.9 0 0 0-.48-.05c-.76 0-1.3.48-1.3 1.2v3.05h-.8Zm5.2.09c-1.12 0-1.7-.66-1.7-1.82v-3.19h.8v3c0 .88.32 1.3 1.1 1.3.87 0 1.33-.53 1.33-1.39v-2.9h.8v4.9h-.8v-.72h-.07c-.24.52-.74.82-1.46.82Zm3.8-.1v-4.9h.8v.73h.07c.25-.52.71-.82 1.44-.82 1.1 0 1.71.65 1.71 1.82v3.18h-.79v-3c0-.88-.36-1.3-1.15-1.3-.78 0-1.28.53-1.28 1.39v2.9h-.8Zm5.46 0v-4.9h.8v.73h.07c.24-.52.7-.82 1.43-.82 1.1 0 1.72.65 1.72 1.82v3.18h-.8v-3c0-.88-.36-1.3-1.15-1.3-.78 0-1.28.53-1.28 1.39v2.9h-.79Zm5.87-5.85a.55.55 0 0 1-.54-.55c0-.3.24-.55.54-.55a.55.55 0 0 1 0 1.1Zm-.4 5.86v-4.92h.8v4.92h-.8Zm2.29 0v-4.92h.8v.74h.07c.24-.52.7-.82 1.43-.82 1.1 0 1.72.65 1.72 1.82v3.18h-.8v-3c0-.88-.36-1.3-1.15-1.3-.78 0-1.28.53-1.28 1.39v2.9h-.79Zm7.48 1.73c-1.19 0-1.94-.53-2.07-1.34h.83c.1.38.53.64 1.24.64.88 0 1.4-.41 1.4-1.14v-1h-.07a1.7 1.7 0 0 1-1.54.85c-1.27 0-2.06-.98-2.06-2.36s.79-2.38 2.08-2.38c.69 0 1.23.34 1.53.9h.05v-.82h.8v4.85c0 1.1-.85 1.8-2.2 1.8Zm-.04-2.69c.91 0 1.46-.68 1.46-1.66 0-.98-.55-1.68-1.46-1.68-.91 0-1.42.7-1.42 1.67v.01c0 .98.5 1.66 1.42 1.66Zm6.75 2.68c-.1 0-.24 0-.35-.03v-.65c.1.02.22.03.33.03.45 0 .72-.2.9-.78l.09-.29-1.82-4.92h.85l1.35 4.05h.07l1.35-4.05h.83l-1.92 5.22c-.4 1.1-.81 1.42-1.68 1.42Zm6.49-1.63c-1.4 0-2.27-.97-2.27-2.54v-.01c0-1.58.87-2.54 2.27-2.54s2.26.96 2.26 2.54-.86 2.55-2.26 2.55Zm0-.7c.93 0 1.45-.69 1.45-1.84v-.01c0-1.16-.52-1.84-1.45-1.84-.93 0-1.46.68-1.46 1.84 0 1.16.53 1.84 1.46 1.84Zm5.14.7c-1.12 0-1.7-.66-1.7-1.82v-3.19h.8v3c0 .88.32 1.3 1.1 1.3.87 0 1.33-.53 1.33-1.39v-2.9h.8v4.9h-.8v-.72h-.07c-.24.52-.74.82-1.46.82Zm3.8-.1v-4.9h.8v.72h.07c.19-.51.65-.81 1.32-.81.15 0 .31.02.4.03v.77a2.89 2.89 0 0 0-.5-.05c-.75 0-1.3.48-1.3 1.2v3.05h-.78Zm8.2.1c-1.38 0-2.26-1-2.26-2.56v-.01c0-1.53.88-2.52 2.25-2.52 1.2 0 1.91.69 2.06 1.56v.03h-.78v-.02c-.13-.48-.57-.87-1.28-.87-.88 0-1.44.71-1.44 1.82 0 1.14.57 1.86 1.44 1.86.67 0 1.08-.29 1.27-.84v-.02h.79v.04c-.2.9-.87 1.53-2.05 1.53Zm5.23 0c-1.4 0-2.26-.97-2.26-2.54v-.01c0-1.58.86-2.54 2.26-2.54s2.27.96 2.27 2.54-.87 2.55-2.27 2.55Zm0-.7c.93 0 1.46-.69 1.46-1.84v-.01c0-1.16-.53-1.84-1.46-1.84-.93 0-1.45.68-1.45 1.84 0 1.16.52 1.84 1.45 1.84Zm5.31.7c-1.24 0-2.06-1.01-2.06-2.54v-.01c0-1.54.81-2.54 2.06-2.54.68 0 1.27.33 1.54.86h.07v-2.73h.8v6.87h-.8v-.79h-.07c-.3.55-.85.88-1.54.88Zm.19-.7c.89 0 1.44-.7 1.44-1.84v-.01c0-1.14-.55-1.84-1.44-1.84-.9 0-1.44.7-1.44 1.84 0 1.15.54 1.84 1.44 1.84Zm5.74.7c-1.4 0-2.25-.99-2.25-2.53 0-1.52.86-2.56 2.2-2.56 1.34 0 2.15 1 2.15 2.46v.31h-3.54c.02 1.02.58 1.6 1.46 1.6.66 0 1.08-.3 1.2-.6l.03-.04h.79l-.01.03c-.17.67-.87 1.33-2.03 1.33Zm-.05-4.39c-.73 0-1.29.5-1.38 1.44h2.72c-.08-.98-.62-1.44-1.34-1.44Zm7.75 4.34c-1.01 0-1.43-.38-1.43-1.32v-2.98h-.78v-.66h.78v-1.27h.82v1.27h1.07v.66H118v2.78c0 .58.2.81.7.81.15 0 .23 0 .37-.02v.68c-.15.03-.3.05-.46.05Zm3.6.05c-1.4 0-2.27-.97-2.27-2.54v-.01c0-1.58.86-2.54 2.26-2.54s2.27.96 2.27 2.54-.87 2.55-2.27 2.55Zm0-.7c.92 0 1.45-.69 1.45-1.84v-.01c0-1.16-.53-1.84-1.46-1.84-.93 0-1.45.68-1.45 1.84 0 1.16.52 1.84 1.45 1.84Zm7.86.65c-1 0-1.43-.38-1.43-1.32v-2.98h-.78v-.66h.78v-1.27h.82v1.27h1.07v.66h-1.07v2.78c0 .58.2.81.7.81.15 0 .23 0 .37-.02v.68c-.15.03-.3.05-.46.05Zm3 .05c-.94 0-1.64-.57-1.64-1.46v-.01c0-.88.65-1.38 1.79-1.45l1.4-.09v-.45c0-.6-.36-.93-1.1-.93-.58 0-.97.22-1.1.6v.02h-.8v-.03c.14-.77.88-1.3 1.93-1.3 1.2 0 1.87.62 1.87 1.64v3.37h-.8v-.73h-.07c-.3.53-.82.82-1.48.82Zm-.83-1.48c0 .5.42.79 1 .79.8 0 1.39-.53 1.39-1.23v-.45l-1.31.08c-.75.05-1.08.31-1.08.8Zm6.66 3.12c-1.19 0-1.95-.53-2.07-1.34h.83c.1.38.53.64 1.23.64.88 0 1.41-.41 1.41-1.14v-1h-.07a1.7 1.7 0 0 1-1.54.85c-1.28 0-2.06-.98-2.06-2.36s.79-2.38 2.07-2.38c.7 0 1.24.34 1.54.9h.05v-.82h.8v4.85c0 1.1-.85 1.8-2.2 1.8Zm-.04-2.69c.91 0 1.46-.68 1.46-1.66 0-.98-.55-1.68-1.46-1.68-.91 0-1.42.7-1.42 1.67v.01c0 .98.5 1.66 1.42 1.66Zm8.07 1c-1 0-1.43-.38-1.43-1.32v-2.98h-.78v-.66h.78v-1.27h.82v1.27h1.07v.66h-1.07v2.78c0 .58.2.81.7.81.15 0 .23 0 .37-.02v.68c-.15.03-.3.05-.46.05Zm1.7-.04v-6.87h.79v2.7h.07c.25-.53.7-.83 1.43-.83 1.1 0 1.72.65 1.72 1.82v3.18h-.8v-3c0-.88-.36-1.3-1.14-1.3-.78 0-1.28.53-1.28 1.39v2.9h-.8Zm7.45.09c-1.4 0-2.25-.99-2.25-2.53 0-1.52.87-2.56 2.2-2.56 1.34 0 2.15 1 2.15 2.46v.31h-3.54c.03 1.02.59 1.6 1.46 1.6.67 0 1.08-.3 1.21-.6l.02-.04h.8l-.02.03c-.17.67-.87 1.33-2.03 1.33Zm-.05-4.39c-.73 0-1.29.5-1.37 1.44h2.71c-.08-.98-.62-1.44-1.34-1.44ZM-179 131.63c-1.4 0-2.27-.97-2.27-2.54v-.01c0-1.58.87-2.54 2.27-2.54s2.26.96 2.26 2.54-.86 2.55-2.26 2.55Zm0-.7c.93 0 1.45-.69 1.45-1.84v-.01c0-1.17-.52-1.84-1.45-1.84-.93 0-1.46.68-1.46 1.84 0 1.16.53 1.84 1.46 1.84Zm5.94.7c-.69 0-1.23-.33-1.53-.88h-.08v.79h-.8v-6.87h.8v2.73h.07a1.7 1.7 0 0 1 1.54-.86c1.25 0 2.06 1 2.06 2.54s-.82 2.55-2.06 2.55Zm-.19-.7c.9 0 1.44-.7 1.44-1.84v-.01c0-1.15-.54-1.84-1.44-1.84-.89 0-1.44.7-1.44 1.84 0 1.14.55 1.84 1.44 1.84Zm5.16.7c-1.09 0-1.84-.53-1.93-1.34h.8c.14.4.53.68 1.16.68.66 0 1.13-.32 1.13-.77 0-.34-.25-.57-.85-.72l-.76-.18c-.93-.22-1.34-.62-1.34-1.33 0-.82.78-1.43 1.83-1.43 1.03 0 1.74.51 1.85 1.31h-.78c-.1-.38-.48-.65-1.08-.65-.58 0-1 .3-1 .73v.01c0 .34.24.54.82.69l.75.18c.93.22 1.38.62 1.38 1.32v.01c0 .88-.86 1.49-1.97 1.49Zm5.21 0c-1.4 0-2.25-.99-2.25-2.53 0-1.52.87-2.56 2.2-2.56 1.34 0 2.15 1 2.15 2.46v.31h-3.54c.02 1.02.58 1.6 1.46 1.6.67 0 1.08-.3 1.2-.6l.03-.04h.79v.03c-.18.67-.88 1.33-2.04 1.33Zm-.05-4.39c-.73 0-1.29.5-1.38 1.44h2.72c-.08-.98-.62-1.44-1.34-1.44Zm3.38 4.3v-4.92h.8v.73h.07c.18-.51.64-.81 1.31-.81.15 0 .32.02.4.03v.77a2.88 2.88 0 0 0-.5-.05c-.75 0-1.29.48-1.29 1.2v3.05h-.79Zm5 0-1.83-4.92h.84l1.35 4.05h.07l1.34-4.05h.84l-1.81 4.92h-.8Zm4.83.09c-.94 0-1.64-.57-1.64-1.46v-.01c0-.88.65-1.38 1.79-1.45l1.4-.09v-.45c0-.6-.36-.93-1.1-.93-.58 0-.97.22-1.1.6v.02h-.8v-.03c.14-.77.88-1.3 1.93-1.3 1.2 0 1.87.62 1.87 1.64v3.37h-.8v-.73h-.06c-.31.53-.83.82-1.49.82Zm-.83-1.48c0 .5.42.79 1 .79.8 0 1.39-.53 1.39-1.23v-.45l-1.31.08c-.75.05-1.08.31-1.08.8Zm7.08 1.48c-.69 0-1.24-.33-1.54-.88h-.07v.79h-.8v-6.87h.8v2.73h.07a1.7 1.7 0 0 1 1.54-.86c1.25 0 2.06 1 2.06 2.54s-.82 2.55-2.06 2.55Zm-.19-.7c.9 0 1.44-.7 1.44-1.84v-.01c0-1.15-.54-1.84-1.44-1.84-.89 0-1.44.7-1.44 1.84 0 1.14.55 1.84 1.44 1.84Zm3.9-5.25a.55.55 0 0 1-.55-.55.55.55 0 1 1 1.1 0c0 .3-.25.55-.55.55Zm-.4 5.86v-4.92h.79v4.92h-.8Zm2.33 0v-6.87h.8v6.87h-.8Zm2.74-5.86a.55.55 0 0 1-.55-.55.55.55 0 1 1 1.1 0c0 .3-.25.55-.55.55Zm-.4 5.86v-4.92h.79v4.92h-.8Zm4.03.04c-1.01 0-1.44-.38-1.44-1.32v-2.98h-.77v-.66h.77v-1.27h.82v1.27h1.08v.66h-1.08v2.78c0 .58.2.81.72.81.14 0 .21 0 .36-.02v.68c-.16.03-.3.05-.46.05Zm2.06 1.68c-.1 0-.24 0-.35-.02v-.66c.1.02.22.03.33.03.45 0 .73-.2.9-.78l.1-.29-1.82-4.92h.84l1.35 4.05h.08l1.34-4.05h.84l-1.92 5.22c-.4 1.1-.81 1.42-1.69 1.42Zm9.1-1.63c-1.25 0-2.06-1.01-2.06-2.54v-.01c0-1.54.8-2.54 2.06-2.54.67 0 1.26.33 1.53.86h.07v-2.73h.8v6.87h-.8v-.78h-.07c-.3.54-.85.87-1.53.87Zm.18-.7c.9 0 1.44-.7 1.44-1.84v-.01c0-1.14-.55-1.84-1.44-1.84-.9 0-1.43.7-1.43 1.84 0 1.15.53 1.84 1.43 1.84Zm5.09.7c-.94 0-1.64-.57-1.64-1.46v-.01c0-.88.64-1.38 1.79-1.45l1.4-.09v-.45c0-.6-.36-.93-1.1-.93-.59 0-.97.22-1.1.6v.02h-.8v-.03c.13-.77.88-1.3 1.93-1.3 1.2 0 1.87.62 1.87 1.64v3.37h-.8v-.73h-.07c-.3.53-.82.82-1.48.82Zm-.83-1.48c0 .5.42.79.99.79.8 0 1.4-.53 1.4-1.23v-.45l-1.32.08c-.74.05-1.07.31-1.07.8Zm6.38 1.43c-1.02 0-1.44-.38-1.44-1.32v-2.98h-.78v-.66h.78v-1.27h.82v1.27h1.07v.66h-1.07v2.78c0 .58.2.81.71.81.14 0 .22 0 .36-.02v.68c-.15.03-.3.05-.45.05Zm2.99.05c-.94 0-1.64-.57-1.64-1.46v-.01c0-.88.65-1.38 1.8-1.45l1.4-.09v-.45c0-.6-.37-.93-1.1-.93-.6 0-.98.22-1.1.6l-.01.02h-.8v-.03c.14-.77.88-1.3 1.93-1.3 1.2 0 1.87.62 1.87 1.64v3.37h-.8v-.73h-.06c-.31.53-.83.82-1.49.82Zm-.83-1.48c0 .5.42.79 1 .79.8 0 1.39-.53 1.39-1.23v-.45l-1.31.08c-.75.05-1.08.31-1.08.8Zm8.2 1.39-1.37-4.92h.8l.96 3.93h.07l1.1-3.93h.75l1.1 3.93h.08l.96-3.93h.8l-1.39 4.92h-.8l-1.1-3.8h-.07l-1.09 3.8h-.8Zm6.7-5.86a.55.55 0 0 1-.54-.55.55.55 0 0 1 1.1 0c0 .3-.25.55-.55.55Zm-.4 5.86v-4.92h.8v4.92h-.8Zm4.04.04c-1.01 0-1.43-.38-1.43-1.32v-2.98H-91v-.66h.78v-1.27h.82v1.27h1.07v.66h-1.07v2.78c0 .58.2.81.7.81.15 0 .23 0 .37-.02v.68c-.15.03-.3.05-.46.05Zm1.7-.04v-6.87h.79v2.7h.07c.25-.53.7-.83 1.43-.83 1.1 0 1.72.65 1.72 1.82v3.18h-.8v-3c0-.88-.36-1.3-1.14-1.3-.79 0-1.28.53-1.28 1.39v2.9h-.8Zm9.82.04c-1.01 0-1.44-.38-1.44-1.32v-2.98h-.77v-.66h.77v-1.27h.82v1.27h1.08v.66h-1.08v2.78c0 .58.2.81.71.81.15 0 .22 0 .37-.02v.68c-.16.03-.3.05-.46.05Zm1.69-.04v-6.87h.8v2.7h.07c.24-.53.7-.83 1.43-.83 1.1 0 1.72.65 1.72 1.82v3.18h-.8v-3c0-.88-.36-1.3-1.15-1.3-.78 0-1.28.53-1.28 1.39v2.9h-.79Zm5.87-5.86a.55.55 0 0 1-.54-.55c0-.3.24-.55.54-.55a.55.55 0 0 1 0 1.1Zm-.4 5.86v-4.92h.8v4.92h-.8Zm3.98.09c-1.1 0-1.85-.53-1.94-1.34h.81c.13.4.53.68 1.15.68.67 0 1.14-.32 1.14-.77 0-.34-.26-.57-.86-.72l-.76-.18c-.92-.22-1.34-.62-1.34-1.33 0-.82.78-1.43 1.83-1.43 1.03 0 1.75.51 1.85 1.31h-.78c-.1-.38-.48-.65-1.08-.65-.58 0-1 .3-1 .73v.01c0 .34.24.54.82.69l.75.18c.93.22 1.38.62 1.38 1.32v.01c0 .88-.86 1.49-1.97 1.49Zm5.82-.1v-4.9h.8v.72h.07c.19-.51.65-.81 1.31-.81.15 0 .32.02.4.03v.77a2.89 2.89 0 0 0-.49-.05c-.76 0-1.3.48-1.3 1.2v3.05h-.79Zm5.2.1c-1.11 0-1.69-.66-1.69-1.82v-3.19h.8v3c0 .88.32 1.3 1.1 1.3.87 0 1.33-.52 1.33-1.39v-2.9h.8v4.9h-.8v-.72h-.08c-.24.52-.73.82-1.45.82Zm3.81-.1v-4.9h.8v.73h.07c.25-.52.7-.82 1.43-.82 1.1 0 1.72.65 1.72 1.82v3.18h-.8v-3c0-.88-.36-1.3-1.14-1.3-.79 0-1.28.53-1.28 1.39v2.9h-.8Zm10.1.1c-1.38 0-2.26-1-2.26-2.56v-.01c0-1.53.87-2.52 2.25-2.52 1.2 0 1.9.69 2.05 1.56v.03h-.78v-.01c-.13-.49-.57-.88-1.27-.88-.89 0-1.44.71-1.44 1.82 0 1.14.56 1.86 1.44 1.86.66 0 1.08-.29 1.26-.83l.01-.03h.78v.04c-.2.9-.87 1.53-2.05 1.53Zm5.23 0c-1.4 0-2.27-.97-2.27-2.54v-.01c0-1.58.87-2.54 2.27-2.54s2.26.96 2.26 2.54-.86 2.55-2.26 2.55Zm0-.7c.93 0 1.45-.69 1.45-1.84v-.01c0-1.17-.52-1.84-1.45-1.84-.93 0-1.46.68-1.46 1.84 0 1.16.53 1.84 1.46 1.84Zm3.5.6v-4.9h.79v.73h.07c.25-.52.7-.82 1.43-.82 1.1 0 1.72.65 1.72 1.82v3.18h-.8v-3c0-.88-.36-1.3-1.14-1.3-.79 0-1.28.53-1.28 1.39v2.9h-.8Zm5.77 0v-4.25h-.81v-.66h.81v-.54c0-.98.5-1.45 1.43-1.45.2 0 .37.01.53.04v.64c-.1-.02-.23-.03-.37-.03-.56 0-.8.28-.8.82v.52h1.12v.66h-1.11v4.26h-.8Zm3.48-5.85a.55.55 0 0 1-.55-.55.55.55 0 0 1 1.1 0c0 .3-.25.55-.55.55Zm-.4 5.86v-4.92h.79v4.92h-.8Zm4.31 1.73c-1.19 0-1.94-.53-2.07-1.34h.83c.1.38.53.64 1.24.64.88 0 1.4-.41 1.4-1.14v-1h-.07a1.7 1.7 0 0 1-1.54.85c-1.27 0-2.06-.98-2.06-2.36s.8-2.38 2.08-2.38c.7 0 1.23.34 1.53.9h.05v-.82h.8v4.85c0 1.1-.85 1.8-2.19 1.8Zm-.04-2.69c.92 0 1.46-.68 1.46-1.66 0-.98-.55-1.68-1.46-1.68-.9 0-1.42.7-1.42 1.67v.01c0 .98.51 1.66 1.42 1.66Zm4.35-2.52a.6.6 0 0 1-.59-.6.6.6 0 0 1 .6-.59.6.6 0 1 1 0 1.19Zm0 3.53a.6.6 0 0 1-.59-.6c0-.33.27-.6.6-.6a.6.6 0 1 1 0 1.2Z"/>
      </g>
      <g filter="url(#filter1_d_6132_115556)">
        <rect width="388.57" height="130.21" x="206.81" y="81.81" fill="#1A1B1E" rx="5.75"/>
        <rect width="387.85" height="129.5" x="207.17" y="82.17" stroke="#37383F" stroke-width=".72" rx="5.39"/>
        <rect width="14.36" height="14.36" x="215.43" y="93.3" fill="#4B4DB4" rx="7.18"/>
        <path fill="#ACAFBF" d="M216.27 119.54v-6.58h2.5c1.28 0 2.1.78 2.1 1.96 0 .92-.49 1.63-1.31 1.89l1.52 2.73h-.97l-1.4-2.6h-1.62v2.6h-.82Zm.82-3.33h1.62c.84 0 1.32-.45 1.32-1.26 0-.8-.51-1.26-1.36-1.26h-1.58v2.52Zm6.82 3.42c-1.11 0-1.69-.66-1.69-1.82v-3.19h.8v3c0 .88.31 1.3 1.1 1.3.87 0 1.32-.53 1.32-1.39v-2.9h.8v4.9h-.8v-.72h-.07c-.24.52-.74.82-1.46.82Zm3.81-.1v-4.9h.8v.73h.07c.24-.52.7-.82 1.43-.82 1.1 0 1.72.65 1.72 1.82v3.18h-.8v-3c0-.88-.36-1.3-1.15-1.3-.78 0-1.28.53-1.28 1.39v2.9h-.79Zm5.45 0v-4.9h.8v.73h.07c.25-.52.7-.82 1.43-.82 1.1 0 1.72.65 1.72 1.82v3.18h-.8v-3c0-.88-.36-1.3-1.14-1.3-.79 0-1.28.53-1.28 1.39v2.9h-.8Zm5.88-5.85a.55.55 0 0 1-.55-.55c0-.3.24-.55.54-.55a.55.55 0 1 1 0 1.1Zm-.4 5.86v-4.92h.79v4.92h-.8Zm2.28 0v-4.92h.8v.74h.07c.24-.52.7-.82 1.43-.82 1.1 0 1.72.65 1.72 1.82v3.18h-.8v-3c0-.88-.36-1.3-1.14-1.3-.79 0-1.28.53-1.28 1.39v2.9h-.8Zm7.48 1.73c-1.19 0-1.94-.53-2.07-1.34h.83c.1.38.53.64 1.24.64.88 0 1.4-.41 1.4-1.14v-1h-.07a1.7 1.7 0 0 1-1.54.85c-1.27 0-2.06-.98-2.06-2.36s.8-2.38 2.08-2.38c.7 0 1.23.34 1.53.9h.06v-.82h.79v4.85c0 1.1-.85 1.8-2.19 1.8Zm-.04-2.69c.91 0 1.46-.68 1.46-1.66 0-.98-.55-1.68-1.46-1.68-.9 0-1.42.7-1.42 1.67v.01c0 .98.51 1.66 1.42 1.66Zm6.75 2.68c-.1 0-.24 0-.35-.03v-.65c.1.02.22.03.33.03.45 0 .72-.2.9-.78l.1-.29-1.83-4.92h.85l1.35 4.05h.07l1.35-4.05h.83l-1.92 5.22c-.4 1.1-.8 1.42-1.68 1.42Zm6.49-1.63c-1.4 0-2.27-.97-2.27-2.54v-.01c0-1.58.87-2.54 2.27-2.54s2.26.96 2.26 2.54-.86 2.55-2.26 2.55Zm0-.7c.93 0 1.45-.69 1.45-1.84v-.01c0-1.16-.52-1.84-1.45-1.84-.93 0-1.46.68-1.46 1.84 0 1.16.53 1.84 1.46 1.84Zm5.14.7c-1.12 0-1.69-.66-1.69-1.82v-3.19h.8v3c0 .88.31 1.3 1.1 1.3.86 0 1.32-.53 1.32-1.39v-2.9h.8v4.9h-.8v-.72h-.07c-.24.52-.74.82-1.46.82Zm3.8-.1v-4.9h.8v.72h.07c.2-.51.65-.81 1.32-.81.15 0 .32.02.4.03v.77a2.9 2.9 0 0 0-.5-.05c-.75 0-1.29.48-1.29 1.2v3.05h-.8Zm7.54.1c-.94 0-1.64-.57-1.64-1.46v-.01c0-.88.65-1.38 1.79-1.45l1.4-.09v-.45c0-.6-.36-.93-1.1-.93-.58 0-.97.22-1.1.6v.02h-.8v-.03c.14-.77.88-1.3 1.93-1.3 1.2 0 1.87.62 1.87 1.64v3.37h-.8v-.73h-.06c-.31.53-.83.82-1.49.82Zm-.83-1.48c0 .5.42.79 1 .79.8 0 1.39-.53 1.39-1.23v-.45l-1.31.08c-.75.05-1.08.31-1.08.8Zm4.63 3.03v-6.56h.8v.79h.07c.3-.55.85-.87 1.53-.87 1.25 0 2.06 1 2.06 2.54 0 1.55-.81 2.55-2.06 2.55-.67 0-1.26-.34-1.53-.87h-.07v2.42h-.8Zm2.22-2.26c.9 0 1.43-.69 1.43-1.83v-.01c0-1.15-.53-1.84-1.43-1.84-.9 0-1.44.7-1.44 1.84 0 1.14.54 1.84 1.44 1.84Zm3.48 2.26v-6.56h.8v.79h.07c.3-.55.85-.87 1.53-.87 1.24 0 2.06 1 2.06 2.54 0 1.55-.81 2.55-2.06 2.55a1.7 1.7 0 0 1-1.53-.87h-.07v2.42h-.8Zm2.22-2.26c.9 0 1.43-.69 1.43-1.83v-.01c0-1.15-.54-1.84-1.43-1.84-.9 0-1.44.7-1.44 1.84 0 1.14.54 1.84 1.44 1.84Zm7.06.62-1.38-4.92h.8l.96 3.93h.07l1.1-3.93h.75l1.1 3.93h.07l.97-3.93h.79l-1.38 4.92h-.8l-1.1-3.8h-.07l-1.1 3.8h-.78Zm6.7-5.86a.55.55 0 0 1-.55-.55.55.55 0 1 1 1.1 0c0 .3-.25.55-.55.55Zm-.4 5.86v-4.92h.79v4.92h-.8Zm2.33 0v-6.87h.8v6.87h-.8Zm2.36 0v-6.87h.8v6.87h-.8Zm5.36-5.86a.55.55 0 0 1-.54-.55c0-.3.24-.55.54-.55a.55.55 0 1 1 0 1.1Zm-.4 5.86v-4.92h.8v4.92h-.8Zm2.29 0v-4.92h.8v.74h.07c.24-.52.7-.82 1.43-.82 1.1 0 1.72.65 1.72 1.82v3.18h-.8v-3c0-.88-.36-1.3-1.14-1.3-.79 0-1.29.53-1.29 1.39v2.9h-.79Zm7.2.04c-1.01 0-1.44-.38-1.44-1.32v-2.98h-.77v-.66h.77v-1.27h.82v1.27h1.08v.66h-1.08v2.78c0 .58.2.81.71.81.15 0 .22 0 .37-.02v.68c-.15.03-.3.05-.46.05Zm3.58.05c-1.4 0-2.25-.99-2.25-2.53 0-1.52.86-2.56 2.2-2.56 1.33 0 2.15 1 2.15 2.46v.31h-3.54c.02 1.02.58 1.6 1.46 1.6.66 0 1.07-.3 1.2-.6l.02-.04h.8l-.01.03c-.17.67-.87 1.33-2.03 1.33Zm-.06-4.39c-.73 0-1.28.5-1.37 1.44h2.72c-.08-.98-.62-1.44-1.35-1.44Zm5.41 6.03c-1.19 0-1.94-.53-2.06-1.34h.83c.09.38.52.64 1.23.64.88 0 1.4-.41 1.4-1.14v-1h-.07a1.7 1.7 0 0 1-1.54.85c-1.27 0-2.06-.98-2.06-2.36s.8-2.38 2.08-2.38c.7 0 1.23.34 1.53.9h.06v-.82h.79v4.85c0 1.1-.85 1.8-2.19 1.8Zm-.04-2.69c.92 0 1.46-.68 1.46-1.66 0-.98-.55-1.68-1.46-1.68-.9 0-1.42.7-1.42 1.67v.01c0 .98.51 1.66 1.42 1.66Zm3.7.96v-4.92h.8v.73h.07c.19-.51.65-.81 1.32-.81.15 0 .31.02.4.03v.77a2.88 2.88 0 0 0-.5-.05c-.75 0-1.29.48-1.29 1.2v3.05h-.8Zm4.91.09c-.93 0-1.64-.57-1.64-1.46v-.01c0-.88.65-1.38 1.8-1.45l1.4-.09v-.45c0-.6-.37-.93-1.1-.93-.59 0-.98.22-1.1.6l-.01.02h-.8l.01-.03c.13-.77.88-1.3 1.93-1.3 1.2 0 1.87.62 1.87 1.64v3.37h-.8v-.73h-.07c-.31.53-.83.82-1.49.82Zm-.83-1.48c0 .5.43.79 1 .79.8 0 1.4-.53 1.4-1.23v-.45l-1.32.08c-.75.05-1.08.31-1.08.8Zm6.38 1.43c-1.01 0-1.44-.38-1.44-1.32v-2.98h-.77v-.66h.78v-1.27h.81v1.27h1.08v.66h-1.07v2.78c0 .58.2.81.7.81.15 0 .23 0 .37-.02v.68c-.15.03-.3.05-.46.05Zm3.58.05c-1.4 0-2.25-.99-2.25-2.53 0-1.52.86-2.56 2.2-2.56 1.34 0 2.15 1 2.15 2.46v.31h-3.54c.02 1.02.58 1.6 1.46 1.6.66 0 1.07-.3 1.2-.6l.02-.04h.8l-.01.03c-.17.67-.87 1.33-2.03 1.33Zm-.06-4.39c-.73 0-1.28.5-1.37 1.44h2.72c-.08-.98-.62-1.44-1.35-1.44Zm6.43 6.02c-.1 0-.24 0-.35-.03v-.65c.1.02.22.03.33.03.45 0 .72-.2.9-.78l.1-.29-1.83-4.92h.85l1.35 4.05h.08l1.34-4.05h.84l-1.92 5.22c-.41 1.1-.82 1.42-1.69 1.42Zm6.5-1.63c-1.4 0-2.27-.97-2.27-2.54v-.01c0-1.58.86-2.54 2.26-2.54s2.27.96 2.27 2.54-.87 2.55-2.27 2.55Zm0-.7c.92 0 1.44-.69 1.44-1.84v-.01c0-1.16-.52-1.84-1.45-1.84-.93 0-1.45.68-1.45 1.84 0 1.16.52 1.84 1.45 1.84Zm5.13.7c-1.11 0-1.69-.66-1.69-1.82v-3.19h.8v3c0 .88.31 1.3 1.1 1.3.87 0 1.33-.53 1.33-1.39v-2.9h.79v4.9h-.8v-.72h-.07c-.24.52-.74.82-1.46.82Zm3.81-.1v-4.9h.8v.72h.07c.18-.51.64-.81 1.31-.81.15 0 .32.02.4.03v.77a2.9 2.9 0 0 0-.5-.05c-.75 0-1.29.48-1.29 1.2v3.05h-.79Zm8.19.1c-1.4 0-2.25-.99-2.25-2.53 0-1.52.86-2.56 2.2-2.56 1.34 0 2.15 1 2.15 2.46v.31h-3.54c.02 1.02.58 1.6 1.46 1.6.66 0 1.07-.3 1.2-.6l.02-.04h.8l-.01.03c-.17.67-.87 1.33-2.03 1.33Zm-.06-4.39c-.73 0-1.28.5-1.37 1.44h2.72c-.08-.98-.62-1.44-1.35-1.44Zm3.39 4.3v-4.92h.8v.74h.06c.25-.52.71-.82 1.44-.82 1.1 0 1.71.65 1.71 1.82v3.18h-.79v-3c0-.88-.36-1.3-1.15-1.3-.78 0-1.28.53-1.28 1.39v2.9h-.8Zm6.66 0-1.82-4.92h.84l1.34 4.05h.08l1.34-4.05h.84l-1.82 4.92h-.8Zm4.09-5.86a.55.55 0 0 1-.55-.55.55.55 0 1 1 1.1 0c0 .3-.25.55-.55.55Zm-.4 5.86v-4.92h.79v4.92h-.8Zm2.28 0v-4.92h.8v.73h.07c.19-.51.65-.81 1.31-.81.16 0 .32.02.4.03v.77a2.88 2.88 0 0 0-.49-.05c-.75 0-1.3.48-1.3 1.2v3.05h-.79Zm5.44.09c-1.4 0-2.26-.97-2.26-2.54v-.01c0-1.58.87-2.54 2.26-2.54 1.4 0 2.27.96 2.27 2.54s-.87 2.55-2.27 2.55Zm0-.7c.94 0 1.46-.69 1.46-1.84v-.01c0-1.16-.53-1.84-1.46-1.84-.93 0-1.45.68-1.45 1.84 0 1.16.52 1.84 1.45 1.84Zm3.5.6v-4.9h.8v.73h.07c.24-.52.7-.82 1.43-.82 1.1 0 1.72.65 1.72 1.82v3.18h-.8v-3c0-.88-.36-1.3-1.14-1.3-.79 0-1.29.53-1.29 1.39v2.9h-.79Zm5.45 0v-4.9h.8v.74h.07c.22-.53.68-.83 1.33-.83.66 0 1.13.35 1.36.86h.07c.26-.52.82-.86 1.5-.86 1 0 1.57.57 1.57 1.6v3.4h-.8v-3.22c0-.72-.33-1.08-1.02-1.08a1.1 1.1 0 0 0-1.14 1.14v3.16h-.8v-3.34c0-.58-.4-.96-1.01-.96-.65 0-1.13.56-1.13 1.25v3.05h-.8Zm10.13.1c-1.4 0-2.25-.99-2.25-2.53 0-1.52.87-2.56 2.2-2.56 1.34 0 2.15 1 2.15 2.46v.31h-3.54c.03 1.02.59 1.6 1.46 1.6.67 0 1.08-.3 1.21-.6l.02-.04h.8l-.02.03c-.16.67-.87 1.33-2.02 1.33Zm-.05-4.39c-.73 0-1.29.5-1.37 1.44h2.71c-.08-.98-.61-1.44-1.34-1.44Zm3.38 4.3v-4.92h.8v.74h.07c.25-.52.7-.82 1.43-.82 1.1 0 1.72.65 1.72 1.82v3.18h-.8v-3c0-.88-.36-1.3-1.14-1.3-.79 0-1.28.53-1.28 1.39v2.9h-.8Zm7.2.04c-1.01 0-1.43-.38-1.43-1.32v-2.98h-.78v-.66h.78v-1.27h.82v1.27h1.07v.66h-1.07v2.78c0 .58.2.81.7.81.15 0 .23 0 .37-.02v.68c-.15.03-.3.05-.46.05Zm5.62.05c-.93 0-1.64-.57-1.64-1.46v-.01c0-.88.65-1.38 1.8-1.45l1.4-.09v-.45c0-.6-.37-.93-1.1-.93-.59 0-.98.22-1.1.6v.02h-.8v-.03c.13-.77.88-1.3 1.93-1.3 1.2 0 1.87.62 1.87 1.64v3.37h-.8v-.73h-.07c-.31.53-.83.82-1.49.82Zm-.83-1.48c0 .5.43.79 1 .79.8 0 1.4-.53 1.4-1.23v-.45l-1.32.08c-.75.05-1.08.31-1.08.8Zm4.64 1.39v-4.92h.79v.74h.07c.25-.52.7-.82 1.43-.82 1.1 0 1.72.65 1.72 1.82v3.18h-.8v-3c0-.88-.36-1.3-1.14-1.3-.78 0-1.28.53-1.28 1.39v2.9h-.8Zm7.26.09c-1.24 0-2.06-1.01-2.06-2.54v-.01c0-1.54.81-2.54 2.06-2.54.68 0 1.27.33 1.54.86h.07v-2.73h.8v6.87h-.8v-.79h-.07c-.3.55-.85.88-1.54.88Zm.19-.7c.89 0 1.44-.7 1.44-1.84v-.01c0-1.14-.55-1.84-1.44-1.84-.9 0-1.44.7-1.44 1.84 0 1.15.54 1.84 1.44 1.84Zm6.46.6v-6.57h2.26c1.95 0 3.1 1.22 3.1 3.28v.01c0 2.07-1.15 3.29-3.1 3.29h-2.26Zm.82-.73h1.38c1.47 0 2.32-.94 2.32-2.54 0-1.61-.86-2.56-2.32-2.56h-1.38v5.1Zm6.28-5.12a.55.55 0 0 1-.54-.55c0-.3.24-.55.54-.55.3 0 .55.25.55.55 0 .3-.25.55-.55.55Zm-.4 5.86v-4.92h.8v4.92h-.8Zm4.31 1.73c-1.18 0-1.94-.53-2.06-1.34h.83c.1.38.53.64 1.24.64.88 0 1.4-.41 1.4-1.14v-1h-.07a1.7 1.7 0 0 1-1.54.85c-1.28 0-2.06-.98-2.06-2.36s.79-2.38 2.07-2.38c.7 0 1.24.34 1.54.9h.05v-.82h.8v4.85c0 1.1-.85 1.8-2.2 1.8Zm-.03-2.69c.91 0 1.46-.68 1.46-1.66 0-.98-.55-1.68-1.46-1.68-.91 0-1.42.7-1.42 1.67v.01c0 .98.5 1.66 1.42 1.66Zm3.7.96v-4.92h.8v.75h.07c.22-.53.68-.83 1.32-.83.67 0 1.13.35 1.36.86h.08c.26-.52.82-.86 1.5-.86 1 0 1.56.57 1.56 1.6v3.4h-.79v-3.22c0-.72-.33-1.08-1.02-1.08a1.1 1.1 0 0 0-1.14 1.14v3.16h-.8v-3.34c0-.58-.4-.96-1.02-.96-.64 0-1.13.56-1.13 1.25v3.05h-.79Zm9.47.09c-.93 0-1.64-.57-1.64-1.46v-.01c0-.88.65-1.38 1.8-1.45l1.4-.09v-.45c0-.6-.37-.93-1.1-.93-.59 0-.97.22-1.1.6v.02h-.8v-.03c.13-.77.88-1.3 1.93-1.3 1.2 0 1.87.62 1.87 1.64v3.37h-.8v-.73h-.07c-.3.53-.82.82-1.49.82Zm-.82-1.48c0 .5.42.79.99.79.8 0 1.4-.53 1.4-1.23v-.45l-1.32.08c-.75.05-1.07.31-1.07.8Zm9.26 1.48c-1.37 0-2.25-1-2.25-2.56v-.01c0-1.53.87-2.52 2.25-2.52 1.2 0 1.91.69 2.06 1.56v.03h-.79v-.02c-.13-.48-.56-.87-1.27-.87-.88 0-1.44.71-1.44 1.82 0 1.14.56 1.86 1.44 1.86.66 0 1.08-.29 1.26-.84l.01-.02h.79l-.01.04c-.2.9-.87 1.53-2.05 1.53Zm4.57 0c-.94 0-1.64-.57-1.64-1.46v-.01c0-.88.64-1.38 1.79-1.45l1.4-.09v-.45c0-.6-.36-.93-1.1-.93-.58 0-.97.22-1.1.6v.02h-.8v-.03c.13-.77.88-1.3 1.93-1.3 1.2 0 1.87.62 1.87 1.64v3.37h-.8v-.73h-.07c-.3.53-.82.82-1.48.82Zm-.83-1.48c0 .5.42.79 1 .79.8 0 1.39-.53 1.39-1.23v-.45l-1.32.08c-.74.05-1.07.31-1.07.8Zm4.63 1.39v-4.92h.8v.74h.07c.24-.52.7-.82 1.43-.82 1.1 0 1.72.65 1.72 1.82v3.18h-.8v-3c0-.88-.36-1.3-1.15-1.3-.78 0-1.28.53-1.28 1.39v2.9h-.79Zm9.77.09c-1.1 0-1.85-.53-1.94-1.34h.81c.13.4.52.67 1.15.67.66 0 1.13-.31 1.13-.76 0-.34-.25-.57-.85-.72l-.76-.18c-.93-.22-1.34-.62-1.34-1.33 0-.82.78-1.43 1.83-1.43 1.03 0 1.74.51 1.85 1.31h-.78c-.1-.38-.48-.65-1.08-.65-.58 0-1 .3-1 .73v.01c0 .34.24.54.82.69l.75.18c.93.22 1.38.62 1.38 1.33 0 .88-.86 1.49-1.97 1.49Zm4.9-.05c-1.02 0-1.44-.38-1.44-1.32v-2.98h-.77v-.66h.77v-1.27h.82v1.27h1.08v.66h-1.08v2.78c0 .58.2.81.71.81.14 0 .22 0 .37-.02v.68c-.16.03-.3.05-.46.05Zm3 .05c-.94 0-1.65-.57-1.65-1.46v-.01c0-.88.65-1.38 1.8-1.45l1.4-.09v-.45c0-.6-.37-.93-1.1-.93-.59 0-.98.22-1.1.6l-.01.02h-.8l.01-.03c.13-.77.88-1.3 1.93-1.3 1.2 0 1.87.62 1.87 1.64v3.37h-.8v-.73h-.07c-.31.53-.83.82-1.49.82Zm-.84-1.48c0 .5.43.79 1 .79.8 0 1.4-.53 1.4-1.23v-.45l-1.32.08c-.75.05-1.08.31-1.08.8Zm4.64 1.39v-4.92h.79v.73h.07c.19-.51.65-.81 1.31-.81.15 0 .32.02.4.03v.77a2.9 2.9 0 0 0-.49-.05c-.75 0-1.3.48-1.3 1.2v3.05h-.78Zm5.39.04c-1.01 0-1.44-.38-1.44-1.32v-2.98h-.77v-.66h.77v-1.27h.82v1.27h1.08v.66h-1.08v2.78c0 .58.2.81.71.81.14 0 .22 0 .37-.02v.68c-.16.03-.3.05-.46.05Zm5.96.05c-1.1 0-1.85-.53-1.94-1.34h.81c.13.4.52.67 1.15.67.66 0 1.13-.31 1.13-.76 0-.34-.25-.57-.85-.72l-.76-.18c-.92-.22-1.34-.62-1.34-1.33 0-.82.78-1.43 1.83-1.43 1.03 0 1.75.51 1.85 1.31h-.78c-.1-.38-.48-.65-1.08-.65-.58 0-1 .3-1 .73v.01c0 .34.24.54.82.69l.75.18c.93.22 1.38.62 1.38 1.33 0 .88-.86 1.49-1.97 1.49Zm3.24-.1v-6.86h.8v2.7h.07c.25-.53.7-.83 1.43-.83 1.1 0 1.72.65 1.72 1.82v3.18h-.8v-3c0-.88-.36-1.3-1.14-1.3-.79 0-1.28.53-1.28 1.39v2.9h-.8Zm7.48.1c-1.4 0-2.27-.97-2.27-2.54v-.01c0-1.58.87-2.54 2.27-2.54s2.26.96 2.26 2.54-.87 2.55-2.26 2.55Zm0-.7c.93 0 1.45-.69 1.45-1.84v-.01c0-1.16-.52-1.84-1.45-1.84-.93 0-1.46.68-1.46 1.84 0 1.16.53 1.84 1.46 1.84Zm4.26.6-1.38-4.9h.8l.96 3.92h.07l1.1-3.93h.75l1.1 3.93h.08l.96-3.93h.8l-1.38 4.92h-.8l-1.1-3.8h-.07l-1.1 3.8h-.8Zm6.7-5.85a.55.55 0 0 1-.55-.55.55.55 0 0 1 1.1 0c0 .3-.25.55-.55.55Zm-.4 5.86v-4.92h.8v4.92h-.8Zm2.29 0v-4.92h.8v.74h.06c.25-.52.71-.82 1.44-.82 1.1 0 1.71.65 1.71 1.82v3.18h-.79v-3c0-.88-.36-1.3-1.15-1.3-.78 0-1.28.53-1.28 1.39v2.9h-.8Zm7.48 1.73c-1.19 0-1.95-.53-2.07-1.34h.83c.1.38.53.64 1.24.64.88 0 1.4-.41 1.4-1.14v-1h-.07a1.7 1.7 0 0 1-1.55.85c-1.27 0-2.05-.98-2.05-2.36s.79-2.38 2.07-2.38c.7 0 1.24.34 1.54.9h.05v-.82h.8v4.85c0 1.1-.85 1.8-2.2 1.8Zm-.04-2.69c.91 0 1.46-.68 1.46-1.66 0-.98-.55-1.68-1.46-1.68-.91 0-1.42.7-1.42 1.67v.01c0 .98.5 1.66 1.42 1.66Zm6.75 2.68c-.1 0-.25 0-.36-.03v-.65c.1.02.22.03.33.03.46 0 .73-.2.9-.78l.1-.29-1.82-4.92h.85l1.35 4.05h.07l1.34-4.05h.84l-1.92 5.22c-.4 1.1-.81 1.42-1.68 1.42Zm6.48-1.63c-1.4 0-2.26-.97-2.26-2.54v-.01c0-1.58.86-2.54 2.26-2.54s2.27.96 2.27 2.54-.87 2.55-2.27 2.55Zm0-.7c.93 0 1.46-.69 1.46-1.84v-.01c0-1.16-.53-1.84-1.46-1.84-.93 0-1.45.68-1.45 1.84 0 1.16.52 1.84 1.45 1.84Zm5.15.7c-1.12 0-1.7-.66-1.7-1.82v-3.19h.8v3c0 .88.32 1.3 1.1 1.3.87 0 1.33-.53 1.33-1.39v-2.9h.8v4.9h-.8v-.72h-.07c-.25.52-.74.82-1.46.82Zm-359.87 6.05a.55.55 0 0 1-.55-.55.55.55 0 0 1 1.1 0c0 .3-.25.55-.55.55Zm-.4 5.86v-4.92h.79v4.92h-.8Zm2.28 0v-4.92h.8v.74h.07c.25-.52.7-.82 1.43-.82 1.1 0 1.72.65 1.72 1.82v3.18h-.8v-3c0-.88-.36-1.3-1.14-1.3-.79 0-1.28.53-1.28 1.39v2.9h-.8Zm5.78 0v-4.26h-.81v-.66h.81v-.54c0-.98.5-1.45 1.43-1.45.2 0 .37.01.53.04v.64c-.1-.02-.23-.03-.37-.03-.56 0-.8.28-.8.82v.52h1.13v.66h-1.12v4.26h-.8Zm4.87.09c-1.4 0-2.27-.97-2.27-2.54v-.01c0-1.58.87-2.54 2.27-2.54s2.27.96 2.27 2.54-.87 2.55-2.27 2.55Zm0-.7c.93 0 1.45-.69 1.45-1.84v-.01c0-1.17-.52-1.84-1.45-1.84-.93 0-1.46.68-1.46 1.84 0 1.16.53 1.84 1.46 1.84Zm3.83-1.58-.08-4.4h.91l-.07 4.4h-.76Zm.38 2.27a.61.61 0 0 1-.63-.63c0-.38.26-.64.63-.64a.6.6 0 0 1 .63.64.6.6 0 0 1-.63.63Z"/>
      </g>
    </g>
    <path fill="#2C2E33" d="M-199 42.3h803v-1.43h-803v1.44Z" mask="url(#path-1-inside-1_6132_115556)"/>
    <g filter="url(#filter2_d_6132_115556)">
      <g clip-path="url(#clip3_6132_115556)">
        <mask id="path-15-inside-2_6132_115556" fill="#fff">
          <path d="M-199 9.98h803v31.6h-803V9.99Z"/>
        </mask>
        <path fill="#27282E" d="M-199 9.98h803v31.6h-803V9.99Z"/>
        <g opacity=".35">
          <path fill="#ACAFBF" d="M-42.07 28.94c-1.44 0-2.37-.76-2.47-1.83v-.05h.82v.05c.06.66.75 1.07 1.7 1.07.89 0 1.54-.46 1.54-1.13 0-.55-.38-.92-1.28-1.12l-.73-.16c-1.32-.3-1.89-.9-1.89-1.85 0-1.1.96-1.87 2.32-1.87 1.31 0 2.23.78 2.3 1.76v.06h-.82v-.06c-.1-.58-.65-1-1.5-1-.82 0-1.46.4-1.46 1.08 0 .53.36.88 1.26 1.08l.73.16c1.37.31 1.91.86 1.91 1.81 0 1.24-.96 2-2.43 2Zm3.27-.15 2.43-6.58h.81l2.43 6.58H-34l-.67-1.89h-2.61l-.66 1.89h-.87Zm2.8-5.52-1.03 2.94h2.13l-1.03-2.94H-36Zm4.02 5.52V22.2h.95l2.26 5.49h.07l2.25-5.5h.95v6.59h-.76v-5.03h-.05l-2.08 5.03h-.7l-2.07-5.03h-.05v5.03h-.77Zm8.16 0V22.2h2.48a2 2 0 0 1 2.11 2.1c0 1.26-.87 2.13-2.1 2.13H-23v2.35h-.82Zm2.27-5.85H-23v2.77h1.45c.94 0 1.48-.52 1.48-1.38v-.01c0-.87-.54-1.38-1.48-1.38Zm3.67 5.85V22.2h.82v5.84h3.17v.74h-4Zm5.3 0V22.2h4.08v.74h-3.26v2.1h3.1v.74h-3.1v2.26h3.26v.74h-4.08Zm4.73 1.2v-.75h5.45v.74h-5.45Zm6.29-1.2V22.2h4.08v.74H-.74v2.1h3.09v.74H-.74v2.26h3.26v.74h-4.08Zm5.56 0V22.2h.8l3.57 5.12h.07V22.2h.81v6.58h-.8l-3.56-5.1H4.8v5.1H4Zm8.83 0-2.42-6.58h.86l1.93 5.51h.07l1.94-5.51h.86l-2.43 6.58h-.8Z" opacity=".35"/>
          <g fill="#828599" clip-path="url(#clip4_6132_115556)">
            <path d="M24.12 26.19a.4.4 0 1 0 0-.8.4.4 0 0 0 0 .8Zm0-2.29a.4.4 0 1 0 0-.8.4.4 0 0 0 0 .8Zm0 4.58a.4.4 0 1 0 0-.8.4.4 0 0 0 0 .8Z"/>
          </g>
        </g>
        <mask id="path-21-inside-3_6132_115556" fill="#fff">
          <path d="M39.92 9.98h66.73v31.6H39.92V9.99Z"/>
        </mask>
        <path fill="#6063F6" d="M106.65 40.87H39.92v1.44h66.73v-1.44Z" mask="url(#path-21-inside-3_6132_115556)"/>
        <g clip-path="url(#clip5_6132_115556)">
          <path stroke="#F0F1F7" stroke-linecap="round" stroke-linejoin="round" stroke-width=".72" d="m46.38 26.6-.29.33a1.62 1.62 0 1 1 0-2.29l2.02 2.29a1.62 1.62 0 1 0 0-2.29l-.29.33"/>
        </g>
        <path fill="#fff" d="M55.12 28.79V22.2h.96l2.25 5.49h.07l2.25-5.5h.96v6.59h-.77v-5.03h-.05l-2.08 5.03h-.7l-2.07-5.03h-.05v5.03h-.77Zm9.97 0v-2.84l-2.33-3.74h.93l1.78 2.92h.07l1.77-2.92h.94l-2.34 3.74v2.84h-.82Zm2.65 1.2v-.75h5.45v.74h-5.45Zm6.3-1.2V22.2h4.07v.74h-3.25v2.1h3.08v.74h-3.08v2.26h3.25v.74h-4.08Zm5.56 0V22.2h.8l3.56 5.12h.08V22.2h.8v6.58h-.79l-3.57-5.1h-.07v5.1h-.81Zm8.83 0L86 22.2h.86l1.94 5.51h.07l1.93-5.51h.87l-2.43 6.58h-.81Z"/>
        <g fill="#F0F1F7" clip-path="url(#clip6_6132_115556)">
          <path d="M99.47 26.19a.4.4 0 1 0 0-.8.4.4 0 0 0 0 .8Zm0-2.29a.4.4 0 1 0 0-.8.4.4 0 0 0 0 .8Zm0 4.58a.4.4 0 1 0 0-.8.4.4 0 0 0 0 .8Z"/>
        </g>
      </g>
      <path fill="#2C2E33" d="M-199 10.7h803V9.27h-803v1.43Z" mask="url(#path-15-inside-2_6132_115556)"/>
    </g>
    <path fill="#27282E" d="M-199-25h803V9.98h-803z"/>
    <path fill="url(#paint0_linear_6132_115556)" d="M272 70h44v285h-44z" transform="rotate(90 272 70)"/>
    <path fill="url(#paint1_linear_6132_115556)" d="M194-5h25v125h-25z"/>
    <path fill="url(#paint2_linear_6132_115556)" d="M25 120h25v125H25z" transform="rotate(-180 25 120)"/>
  </g>
  <defs>
    <clipPath id="clip0_6132_115556">
      <use xlink:href="#reuse-0"/>
    </clipPath>
    <clipPath id="clip1_6132_115556">
      <path fill="#fff" d="M-199 41.59h803v179.05h-803V41.6Z"/>
    </clipPath>
    <clipPath id="clip2_6132_115556">
      <path fill="#fff" d="M192.11 55.95h8.62v8.62h-8.62z"/>
    </clipPath>
    <clipPath id="clip3_6132_115556">
      <path fill="#fff" d="M-199 9.98h803v31.6h-803V9.99Z"/>
    </clipPath>
    <clipPath id="clip4_6132_115556">
      <path fill="#fff" d="M19.8 21.48h8.63v8.62H19.8z"/>
    </clipPath>
    <clipPath id="clip5_6132_115556">
      <path fill="#fff" d="M42.8 21.48h8.61v8.62H42.8z"/>
    </clipPath>
    <clipPath id="clip6_6132_115556">
      <path fill="#fff" d="M95.16 21.48h8.62v8.62h-8.62z"/>
    </clipPath>
    <linearGradient id="paint0_linear_6132_115556" x1="316" x2="272" y1="210.22" y2="210.22" gradientUnits="userSpaceOnUse">
      <stop stop-color="#2C2E33"/>
      <stop offset="1" stop-color="#2C2E33" stop-opacity="0"/>
    </linearGradient>
    <linearGradient id="paint1_linear_6132_115556" x1="219" x2="194" y1="56.5" y2="56.5" gradientUnits="userSpaceOnUse">
      <stop stop-color="#2C2E33"/>
      <stop offset="1" stop-color="#2C2E33" stop-opacity="0"/>
    </linearGradient>
    <linearGradient id="paint2_linear_6132_115556" x1="50" x2="25" y1="181.5" y2="181.5" gradientUnits="userSpaceOnUse">
      <stop stop-color="#2C2E33"/>
      <stop offset="1" stop-color="#2C2E33" stop-opacity="0"/>
    </linearGradient>
    <filter id="filter0_d_6132_115556" width="394.32" height="135.96" x="-193.25" y="79.65" color-interpolation-filters="sRGB" filterUnits="userSpaceOnUse">
      <feFlood flood-opacity="0" result="BackgroundImageFix"/>
      <feColorMatrix in="SourceAlpha" result="hardAlpha" values="0 0 0 0 0 0 0 0 0 0 0 0 0 0 0 0 0 0 127 0"/>
      <feOffset dy=".72"/>
      <feGaussianBlur stdDeviation="1.44"/>
      <feComposite in2="hardAlpha" operator="out"/>
      <feColorMatrix values="0 0 0 0 0 0 0 0 0 0 0 0 0 0 0 0 0 0 0.45 0"/>
      <feBlend in2="BackgroundImageFix" result="effect1_dropShadow_6132_115556"/>
      <feBlend in="SourceGraphic" in2="effect1_dropShadow_6132_115556" result="shape"/>
    </filter>
    <filter id="filter1_d_6132_115556" width="394.32" height="135.96" x="203.94" y="79.65" color-interpolation-filters="sRGB" filterUnits="userSpaceOnUse">
      <feFlood flood-opacity="0" result="BackgroundImageFix"/>
      <feColorMatrix in="SourceAlpha" result="hardAlpha" values="0 0 0 0 0 0 0 0 0 0 0 0 0 0 0 0 0 0 127 0"/>
      <feOffset dy=".72"/>
      <feGaussianBlur stdDeviation="1.44"/>
      <feComposite in2="hardAlpha" operator="out"/>
      <feColorMatrix values="0 0 0 0 0 0 0 0 0 0 0 0 0 0 0 0 0 0 0.45 0"/>
      <feBlend in2="BackgroundImageFix" result="effect1_dropShadow_6132_115556"/>
      <feBlend in="SourceGraphic" in2="effect1_dropShadow_6132_115556" result="shape"/>
    </filter>
    <filter id="filter2_d_6132_115556" width="837.48" height="66.08" x="-216.24" y="-.79" color-interpolation-filters="sRGB" filterUnits="userSpaceOnUse">
      <feFlood flood-opacity="0" result="BackgroundImageFix"/>
      <feColorMatrix in="SourceAlpha" result="hardAlpha" values="0 0 0 0 0 0 0 0 0 0 0 0 0 0 0 0 0 0 127 0"/>
      <feOffset dy="6.46"/>
      <feGaussianBlur stdDeviation="8.62"/>
      <feComposite in2="hardAlpha" operator="out"/>
      <feColorMatrix values="0 0 0 0 0 0 0 0 0 0 0 0 0 0 0 0 0 0 0.3 0"/>
      <feBlend in2="BackgroundImageFix" result="effect1_dropShadow_6132_115556"/>
      <feBlend in="SourceGraphic" in2="effect1_dropShadow_6132_115556" result="shape"/>
    </filter>
  </defs>
</svg>