<svg xmlns="http://www.w3.org/2000/svg" xmlns:xlink="http://www.w3.org/1999/xlink" fill="none" viewBox="0 0 218 114">
  <defs>
    <path id="reuse-0" fill="#fff" d="M0 0h218v114H0z"/>
  </defs>
  <g clip-path="url(#clip0_6132_115556)">
    <use xlink:href="#reuse-0"/>
    <path fill="#222326" d="M-1-30h643.99v197H-1z"/>
    <g clip-path="url(#clip1_6132_115556)">
      <mask id="path-1-inside-1_6132_115556" fill="#fff">
        <path d="M-1 23.78h644V167H-1V23.78Z"/>
      </mask>
      <g filter="url(#filter0_d_6132_115556)">
        <rect width="311.63" height="129.4" x="5.91" y="30.69" fill="#1A1B1E" rx="4.61"/>
        <rect width="311.05" height="128.82" x="6.2" y="30.98" stroke="#37383F" stroke-width=".58" rx="4.32"/>
        <rect width="11.52" height="11.52" x="12.82" y="39.91" fill="#4B4DB4" rx="5.76"/>
        <path fill="#fff" d="M18.51 47.88v-3.26h-.05l-1 .7v-.77l1.06-.73h.84v4.06h-.85Zm11.16.02v-5.68h.88v5.69h-.88Zm2.2 0v-4.27h.86v.65h.06c.21-.46.62-.73 1.24-.73.96 0 1.49.57 1.49 1.59v2.77h-.85v-2.57c0-.71-.3-1.06-.92-1.06-.63 0-1.02.43-1.02 1.12v2.5h-.85Zm6.4.09c-1.04 0-1.69-.49-1.77-1.2h.85c.11.32.42.54.93.54.53 0 .9-.24.9-.6 0-.27-.2-.45-.7-.56L37.8 46c-.81-.19-1.18-.55-1.18-1.18 0-.75.69-1.28 1.66-1.28s1.6.49 1.68 1.18h-.82c-.08-.3-.39-.53-.87-.53-.46 0-.8.24-.8.58 0 .28.2.44.67.55l.68.16c.82.2 1.22.54 1.22 1.16 0 .8-.76 1.34-1.77 1.34Zm4.37-.06c-.94 0-1.33-.33-1.33-1.15V44.3h-.67v-.67h.67v-1.08h.87v1.08h.92v.67h-.92v2.28c0 .46.18.65.6.65.13 0 .2 0 .32-.02v.68c-.14.02-.3.04-.46.04Zm1.46-.02v-4.28h.85v.65h.06c.16-.46.56-.72 1.13-.72.13 0 .28.01.37.03v.8c-.15-.04-.3-.06-.46-.06-.65 0-1.1.4-1.1 1.02v2.56h-.85Zm4.65.08c-.96 0-1.46-.58-1.46-1.6v-2.76h.85v2.57c0 .7.26 1.06.89 1.06.68 0 1.05-.43 1.05-1.12v-2.51h.85v4.28h-.85v-.65H50c-.2.46-.64.73-1.26.73Zm3.41-.08v-4.28h.86v.66h.06c.19-.47.6-.74 1.16-.74.59 0 1 .3 1.19.76h.07c.21-.46.7-.76 1.3-.76.86 0 1.37.52 1.37 1.4v2.96h-.85v-2.75c0-.59-.27-.88-.83-.88-.54 0-.9.4-.9.92v2.7h-.85v-2.82c0-.5-.32-.8-.83-.8s-.9.44-.9 1v2.63h-.85Zm9 .08c-1.26 0-2.01-.86-2.01-2.21 0-1.34.77-2.23 1.96-2.23 1.2 0 1.93.86 1.93 2.14v.3H60c.01.82.46 1.3 1.17 1.3.54 0 .87-.27.97-.5l.02-.03h.82v.04c-.15.56-.74 1.19-1.83 1.19Zm-.04-3.74c-.59 0-1.03.4-1.1 1.13h2.17c-.07-.76-.5-1.13-1.07-1.13Zm2.93 3.66v-4.28h.86v.65h.06c.21-.46.62-.73 1.24-.73.96 0 1.49.57 1.49 1.59v2.77h-.85v-2.57c0-.71-.3-1.06-.93-1.06-.62 0-1.01.43-1.01 1.12v2.5h-.86Zm6.45.02c-.94 0-1.32-.33-1.32-1.15V44.3h-.67v-.67h.67v-1.08h.87v1.08h.91v.67h-.91v2.28c0 .46.17.65.6.65.12 0 .2 0 .31-.02v.68c-.13.02-.3.04-.46.04Zm4.08 1.48c-.1 0-.23 0-.34-.02v-.67l.29.01c.4 0 .63-.17.76-.6l.06-.22-1.55-4.28h.92l1.08 3.42h.07l1.07-3.42h.9l-1.6 4.44c-.36 1.03-.8 1.34-1.66 1.34Zm5.77-1.42c-1.26 0-2.03-.84-2.03-2.22 0-1.38.78-2.22 2.03-2.22 1.25 0 2.02.84 2.02 2.21v.01c0 1.38-.77 2.22-2.02 2.22Zm0-.71c.73 0 1.15-.56 1.15-1.5v-.02c0-.94-.42-1.5-1.15-1.5-.74 0-1.15.56-1.15 1.5v.01c0 .95.41 1.5 1.15 1.5Zm4.46.7c-.96 0-1.46-.57-1.46-1.58v-2.77h.85v2.57c0 .7.26 1.06.89 1.06.68 0 1.05-.43 1.05-1.12v-2.51h.85v4.28h-.85v-.65h-.07c-.2.46-.63.73-1.26.73Zm3.41-.07v-4.28h.86v.65h.06c.15-.46.55-.72 1.12-.72.14 0 .29.01.38.03v.8c-.16-.04-.3-.06-.46-.06-.66 0-1.1.4-1.1 1.02v2.56h-.86Zm6.61.07c-.81 0-1.42-.5-1.42-1.27v-.01c0-.77.58-1.21 1.6-1.27l1.16-.07v-.38c0-.47-.3-.73-.88-.73-.47 0-.78.18-.89.48v.01h-.82v-.02c.1-.7.78-1.17 1.75-1.17 1.08 0 1.68.53 1.68 1.43v2.93h-.84v-.61h-.07c-.25.43-.7.68-1.27.68Zm-.57-1.31c0 .4.34.63.8.63.64 0 1.1-.42 1.1-.97v-.37l-1.04.07c-.59.03-.86.25-.86.63v.01Zm3.96 2.66v-5.7h.85v.67h.06c.25-.47.72-.74 1.32-.74 1.08 0 1.77.86 1.77 2.2v.01c0 1.36-.68 2.2-1.77 2.2-.59 0-1.09-.28-1.32-.74h-.06v2.1h-.85Zm1.99-2.08c.71 0 1.14-.56 1.14-1.48 0-.93-.43-1.48-1.14-1.48s-1.15.56-1.15 1.47v.01c0 .92.44 1.48 1.15 1.48Zm3.04 2.08v-5.7h.85v.67h.07a1.4 1.4 0 0 1 1.31-.74c1.08 0 1.77.86 1.77 2.2v.01c0 1.36-.68 2.2-1.77 2.2-.59 0-1.09-.28-1.31-.74h-.07v2.1h-.85Zm2-2.08c.7 0 1.13-.56 1.13-1.48 0-.93-.43-1.48-1.14-1.48s-1.15.56-1.15 1.47v.01c0 .92.44 1.48 1.15 1.48Zm3.07.66v-5.96h.86v5.96h-.86Zm2.57-5.04a.54.54 0 0 1-.53-.54.54.54 0 0 1 1.07 0c0 .3-.25.54-.54.54Zm-.43 5.04v-4.28h.85v4.28h-.85Zm3.9.08c-1.25 0-2.02-.85-2.02-2.23v-.01c0-1.36.77-2.2 2.01-2.2 1.08 0 1.72.6 1.84 1.43V45h-.82c-.1-.42-.45-.74-1.01-.74-.72 0-1.14.57-1.14 1.49 0 .95.43 1.53 1.14 1.53.53 0 .86-.25 1-.7v-.03h.83l-.01.04c-.15.83-.76 1.4-1.82 1.4Zm3.97-.01c-.81 0-1.42-.5-1.42-1.27v-.01c0-.77.58-1.21 1.6-1.27l1.16-.07v-.38c0-.47-.3-.73-.88-.73-.47 0-.78.18-.89.48v.01h-.82v-.02c.1-.7.78-1.17 1.75-1.17 1.08 0 1.68.53 1.68 1.43v2.93h-.84v-.61h-.07c-.25.43-.7.68-1.27.68Zm-.57-1.31c0 .4.34.63.8.63.64 0 1.1-.42 1.1-.97v-.37l-1.04.07c-.59.03-.86.25-.86.63v.01Zm5.57 1.26c-.94 0-1.33-.33-1.33-1.15V44.3h-.67v-.67h.67v-1.08h.87v1.08h.92v.67h-.92v2.28c0 .46.18.65.6.65.13 0 .2 0 .32-.02v.68c-.14.02-.3.04-.46.04Zm1.9-5.06a.54.54 0 0 1-.53-.54.54.54 0 0 1 1.07 0c0 .3-.25.54-.54.54Zm-.43 5.04v-4.28h.85v4.28h-.85Zm3.91.08c-1.26 0-2.02-.84-2.02-2.22 0-1.38.77-2.22 2.02-2.22s2.02.84 2.02 2.21v.01c0 1.38-.77 2.22-2.02 2.22Zm0-.71c.73 0 1.15-.56 1.15-1.5v-.02c0-.94-.42-1.5-1.15-1.5-.74 0-1.15.56-1.15 1.5v.01c0 .95.41 1.5 1.15 1.5Zm3.04.63v-4.28h.85v.65h.07c.2-.46.62-.73 1.24-.73.95 0 1.48.57 1.48 1.59v2.77h-.85v-2.57c0-.71-.3-1.06-.92-1.06-.63 0-1.02.43-1.02 1.12v2.5h-.85Z"/>
        <rect width="252" height="8" x="12.82" y="55.73" fill="#fff" fill-opacity=".03" rx="4"/>
        <rect width="193.42" height="17.42" x="13.11" y="70.02" stroke="#7C90F8" stroke-width=".58" rx="2.02"/>
        <path fill="#A1B5FF" d="M18.24 81.19V75.3h3.39v.66h-2.67v1.82h2.38v.66h-2.38v2.09h2.67v.66h-3.4Zm4.75 0V75.3h.97l1.8 5.04a179.28 179.28 0 0 0-.07-1.11l-.01-.62V75.3h.7v5.89h-.97l-1.79-5.04a17.54 17.54 0 0 1 .08 1.73v3.3H23Zm6.03 0-1.51-5.89h.75l1 4a16.93 16.93 0 0 1 .28 1.32l.1-.54c.04-.24.1-.5.17-.78l1-4h.73L30 81.19h-.99Zm3.4.8v-.6h3.87v.6h-3.87Zm5.08-.8V75.3h.97l1.8 5.04a146.74 146.74 0 0 0-.08-1.11V75.3h.7v5.89h-.97l-1.8-5.04a17.88 17.88 0 0 1 .08 1.73v3.3h-.7Zm4.51 0 1.54-5.89h.97l1.53 5.89h-.74l-.39-1.57h-1.78l-.38 1.57H42ZM43.3 79h1.48l-.45-1.82a23.71 23.71 0 0 1-.3-1.31 11.09 11.09 0 0 1-.28 1.3L43.3 79Zm3.77 2.18V75.3H48l.61 1.9a9.46 9.46 0 0 1 .27.9 12.77 12.77 0 0 0 .25-.9l.58-1.9h.95v5.89h-.7v-2.14a15.27 15.27 0 0 1 .08-1.73 95.29 95.29 0 0 1 .16-1.66l-.95 2.95h-.77l-.96-2.95a23.96 23.96 0 0 1 .16 1.62 52.47 52.47 0 0 1 .08 1.77v2.14h-.71Zm5.03 0V75.3h3.38v.66h-2.66v1.82h2.38v.66h-2.38v2.09h2.66v.66H52.1Zm4.7 0 .3-1.62h-.7v-.52h.8l.28-1.61h-.79v-.53h.89l.3-1.61h.56l-.3 1.61h1.3l.3-1.61h.56L60 76.9h.68v.53h-.78l-.29 1.6h.8v.53h-.9l-.3 1.62h-.56l.3-1.62h-1.3l-.29 1.62h-.56Zm.96-2.14h1.29l.29-1.61h-1.3l-.28 1.6Zm4.05 2.14v-.66H63v-4.57h-1.2v-.66h3.14v.66h-1.2v4.57h1.2v.66H61.8Zm4.73 0V75.3h1.52c.39 0 .71.07.99.22.28.14.5.35.64.61.16.26.24.58.24.94v2.34c0 .36-.08.68-.24.95-.15.26-.36.46-.64.6-.28.15-.6.23-.99.23h-1.52Zm.72-.65h.8c.36 0 .64-.1.83-.3.2-.2.31-.47.31-.83v-2.34c0-.35-.1-.63-.3-.83-.2-.2-.48-.3-.84-.3h-.8v4.6Zm4.04.65.3-1.62h-.69v-.52h.79l.29-1.61h-.8v-.53h.9l.3-1.61h.56l-.3 1.61h1.29l.3-1.61h.56l-.3 1.61h.69v.53h-.78l-.3 1.6h.8v.53H74l-.3 1.62h-.56l.3-1.62h-1.3l-.3 1.62h-.56Zm.96-2.14h1.3l.28-1.61h-1.29l-.29 1.6Zm3.93 2.14v-.66h1.6V75.9l-1.6 1.2v-.8l1.33-1h1v5.23h1.3v.66h-3.63Zm4.86 0v-.75l1.8-1.9c.3-.33.52-.62.66-.88s.21-.5.21-.74c0-.33-.09-.59-.27-.77a.96.96 0 0 0-.74-.29c-.34 0-.61.1-.81.3-.2.19-.29.45-.29.8h-.73c.02-.36.1-.67.25-.93s.36-.46.63-.6c.28-.14.6-.21.95-.21.36 0 .67.07.92.2.27.14.47.34.6.59.15.25.22.55.22.9 0 .34-.09.67-.27 1-.17.32-.47.7-.87 1.12l-1.45 1.5h2.69v.66h-3.5Zm6.42.08a2 2 0 0 1-.94-.21 1.56 1.56 0 0 1-.6-.6 1.75 1.75 0 0 1-.23-.89h.73c0 .33.1.59.27.78.2.18.45.27.78.27s.59-.1.77-.29c.18-.2.28-.44.28-.76v-.42c0-.33-.1-.59-.28-.77a1.05 1.05 0 0 0-.77-.27h-.6v-.73l1.45-1.42h-2.38v-.66h3.12v.73l-1.58 1.52v-.09c.54 0 .97.15 1.29.46.31.3.47.72.47 1.23v.42c0 .34-.07.64-.22.9-.15.24-.36.44-.62.59a2 2 0 0 1-.94.2Zm5.81-.08v-1.3h-2.66v-1.13l2.33-3.46h.8l-2.4 3.61v.33h1.93V77.8H94v3.39h-.73Zm3.93.08c-.48 0-.87-.13-1.17-.37-.31-.25-.5-.58-.54-1h.72c.03.23.13.4.3.54.17.12.4.18.7.18.34 0 .6-.09.76-.27.17-.18.26-.44.26-.78V79c0-.33-.09-.59-.26-.77-.17-.19-.42-.28-.75-.28-.21 0-.4.06-.55.17a.91.91 0 0 0-.34.44h-.72l.04-3.26h3.1v.66h-2.4l-.03 1.96h.23l-.23.21c0-.25.1-.45.3-.6.2-.14.48-.21.82-.21.48-.01.85.14 1.11.44.27.3.4.7.4 1.24v.57c0 .53-.15.94-.46 1.25-.3.3-.73.45-1.29.45Zm4.86 0c-.37 0-.7-.08-.99-.24a1.7 1.7 0 0 1-.65-.67 2.03 2.03 0 0 1-.24-.99 3.17 3.17 0 0 1 .5-1.7l1.48-2.37h.8l-1.66 2.68.03.02c.1-.15.24-.27.42-.35.18-.08.38-.12.6-.12.32 0 .6.08.83.23.24.15.42.36.55.64.13.27.2.6.2.97 0 .38-.08.7-.24 1-.15.28-.37.5-.65.66-.28.16-.6.24-.98.24Zm0-.65c.34 0 .62-.11.83-.34.2-.23.31-.53.31-.9 0-.38-.1-.69-.31-.91a1.1 1.1 0 0 0-.83-.35c-.35 0-.63.12-.84.35-.2.22-.31.53-.31.9 0 .38.1.68.31.91.21.23.5.34.84.34Zm3.9.57 2.1-5.23h-2.22v.87h-.72V75.3h3.66v.7l-2.03 5.19h-.79Zm5.77.08c-.37 0-.68-.06-.95-.19a1.45 1.45 0 0 1-.83-1.38c0-.35.1-.65.28-.9.2-.25.5-.48.91-.68l.79-.38c.23-.11.42-.26.55-.44a1 1 0 0 0 .19-.6.77.77 0 0 0-.26-.62.99.99 0 0 0-.68-.22 1 1 0 0 0-.7.23.78.78 0 0 0-.25.61c0 .22.06.42.19.6s.3.33.52.44l.78.37c.43.2.75.42.94.68.2.25.29.56.29.91 0 .48-.16.86-.48 1.15a1.9 1.9 0 0 1-1.3.42Zm0-.65c.32 0 .58-.08.77-.25.2-.17.29-.4.29-.68 0-.23-.06-.44-.19-.63a1.3 1.3 0 0 0-.53-.45l-.77-.38a2.69 2.69 0 0 1-.94-.68 1.3 1.3 0 0 1-.29-.87c0-.3.07-.56.2-.78.14-.22.33-.4.58-.51.24-.12.54-.18.88-.18.33 0 .63.06.88.18.24.12.43.29.57.5.13.23.2.49.2.79 0 .34-.1.63-.3.87-.19.24-.5.46-.95.69l-.77.37c-.23.11-.4.26-.52.45a1.1 1.1 0 0 0-.18.61c0 .3.1.52.28.7.2.17.46.25.79.25Zm3.54-1.77v-.65h2.58v.65h-2.58Zm4.11 2.34 1.53-5.89h.98l1.52 5.89h-.73l-.39-1.57h-1.78l-.39 1.57h-.74Zm1.28-2.18h1.48l-.45-1.82a25.18 25.18 0 0 1-.3-1.31 10.15 10.15 0 0 1-.28 1.3l-.45 1.83Zm3.9 2.18V75.3h1.67c.54 0 .96.13 1.26.4.3.27.46.65.46 1.12 0 .27-.06.5-.17.7-.11.2-.27.36-.48.47-.2.1-.45.15-.75.15v-.12c.32 0 .59.05.81.17.23.13.41.3.53.54.13.23.2.5.2.82 0 .33-.07.62-.21.87-.14.25-.34.44-.6.57-.26.13-.57.2-.93.2h-1.79Zm.71-.66h1c.34 0 .6-.09.8-.26.2-.19.3-.43.3-.74 0-.33-.1-.59-.3-.79-.2-.2-.46-.3-.8-.3h-1v2.1Zm0-2.72h.95c.32 0 .56-.09.74-.25a.9.9 0 0 0 .27-.68.89.89 0 0 0-.26-.68 1.03 1.03 0 0 0-.74-.25h-.96v1.86Zm5.83 3.46c-.35 0-.66-.07-.93-.2a1.47 1.47 0 0 1-.6-.59 1.9 1.9 0 0 1-.21-.9V76.9c0-.35.07-.66.2-.9.15-.26.35-.46.61-.59.27-.13.58-.2.93-.2.35 0 .66.07.92.2.26.14.46.34.6.59.13.25.2.55.2.9h-.72c0-.33-.09-.59-.27-.76-.17-.19-.41-.28-.73-.28s-.57.1-.75.27c-.18.18-.27.43-.27.76v2.67c0 .34.1.6.27.78.18.18.43.26.75.26s.56-.08.73-.26c.18-.18.27-.44.27-.78h.72c0 .35-.06.65-.2.9-.14.26-.34.46-.6.6-.26.13-.57.2-.92.2Zm3.13-.08V75.3h1.52c.38 0 .7.07.98.22.28.14.5.35.65.61.15.26.23.58.23.94v2.34c0 .36-.08.68-.23.95-.15.26-.37.46-.65.6a2 2 0 0 1-.98.23h-1.53Zm.72-.65h.8c.35 0 .63-.1.83-.3.2-.2.3-.47.3-.83v-2.34c0-.35-.1-.63-.3-.83-.2-.2-.48-.3-.83-.3h-.8v4.6Zm4.5-1.7v-.64h2.58v.65h-2.58Zm4.51 2.35V75.3h3.39v.66h-2.67v1.82h2.39v.66h-2.4v2.09h2.68v.66h-3.39Zm4.8 0v-5.9h3.46v.66h-2.75v1.96H152v.66h-2.53v2.62h-.72Zm4.8 0v-.66h1.59V75.9l-1.6 1.2v-.8l1.33-1h1v5.23h1.3v.66h-3.63Zm4.84 0v-.75l1.8-1.9c.3-.33.53-.62.67-.88s.21-.5.21-.74c0-.33-.1-.59-.27-.77a.96.96 0 0 0-.74-.29c-.34 0-.61.1-.81.3-.2.19-.3.45-.3.8h-.72c.01-.36.1-.67.24-.93.16-.26.37-.46.64-.6.28-.14.6-.21.95-.21.36 0 .66.07.92.2.26.14.47.34.6.59.15.25.22.55.22.9 0 .34-.1.67-.27 1-.18.32-.47.7-.87 1.12l-1.45 1.5h2.68v.66h-3.5Zm5.22-2.34v-.65h2.59v.65h-2.59Zm6.04 2.42a2 2 0 0 1-.93-.21 1.55 1.55 0 0 1-.62-.6 1.75 1.75 0 0 1-.21-.89h.72c0 .33.1.59.28.78.18.18.44.27.77.27s.6-.1.77-.29c.19-.2.28-.44.28-.76v-.42c0-.33-.1-.59-.28-.77-.18-.18-.44-.27-.77-.27h-.6v-.73l1.46-1.42h-2.4v-.66h3.13v.73l-1.57 1.52v-.09c.53 0 .96.15 1.28.46.32.3.47.72.47 1.23v.42c0 .34-.07.64-.22.9-.15.24-.35.44-.62.59a2 2 0 0 1-.94.2Zm5.81-.08v-1.3h-2.66v-1.13l2.33-3.46h.8l-2.4 3.61v.33h1.93V77.8h.73v3.39h-.73Zm3.94.08c-.48 0-.88-.13-1.18-.37-.3-.25-.49-.58-.54-1h.72c.03.23.13.4.3.54.17.12.4.18.7.18.34 0 .6-.09.76-.27.17-.18.26-.44.26-.78V79c0-.33-.09-.59-.26-.77-.16-.19-.41-.28-.75-.28-.2 0-.4.06-.55.17a.92.92 0 0 0-.34.44h-.72l.04-3.26h3.1v.66h-2.4l-.02 1.96h.22l-.22.21c0-.25.1-.45.3-.6.2-.14.47-.21.81-.21.48-.01.85.14 1.11.44.27.3.4.7.4 1.24v.57c0 .53-.15.94-.45 1.25-.31.3-.74.45-1.3.45Zm6.38 0a.38.38 0 0 1-.3-.12.46.46 0 0 1-.1-.33v-.56c0-.14.03-.24.1-.32a.38.38 0 0 1 .3-.12c.12 0 .22.04.29.12.07.08.11.18.11.32v.56c0 .14-.03.25-.11.33a.36.36 0 0 1-.29.12Zm-3.06 0a.38.38 0 0 1-.3-.12.45.45 0 0 1-.1-.33v-.56c0-.14.03-.24.1-.32a.38.38 0 0 1 .3-.12c.12 0 .22.04.28.12.08.08.12.18.12.32v.56c0 .14-.04.25-.12.33a.36.36 0 0 1-.28.12Zm1.53 0a.38.38 0 0 1-.3-.12.46.46 0 0 1-.1-.33v-.56c0-.14.03-.24.1-.32a.38.38 0 0 1 .3-.12c.12 0 .22.04.29.12.07.08.11.18.11.32v.56c0 .14-.04.25-.11.33a.37.37 0 0 1-.3.12Z"/>
        <g stroke="#828599" stroke-linecap="round" stroke-linejoin="round" stroke-width=".58" clip-path="url(#clip2_6132_115556)">
          <path d="M200.2 80.17h1.73v-4.6h-4.61v1.72"/>
          <path d="M200.2 77.29h-4.6v4.6h4.6v-4.6Z"/>
        </g>
      </g>
    </g>
    <path fill="#2C2E33" d="M-1 24.35h644V23.2H-1v1.15Z" mask="url(#path-1-inside-1_6132_115556)"/>
    <g filter="url(#filter1_d_6132_115556)">
      <g clip-path="url(#clip3_6132_115556)">
        <mask id="path-14-inside-2_6132_115556" fill="#fff">
          <path d="M-1-1.57h644v25.35H-1V-1.57Z"/>
        </mask>
        <path fill="#27282E" d="M-1-1.57h644v25.35H-1V-1.57Z"/>
        <g clip-path="url(#clip4_6132_115556)">
          <path fill="#4F5DA3" d="M16.45 11.02c-.07-1.09-2.48-3.44-2.87-3.8-.39-.38-1.04-1.32-1.24-1.31-.2.02.12 1.92.15 3.28.02 1.36-.28 1.83-.39 1.8l-.45-.07s-.36.05-.46.08c-.1.02-.41-.45-.38-1.8.02-1.37.34-3.27.14-3.29-.2-.01-.85.93-1.24 1.3-.4.38-2.8 2.72-2.86 3.8-.05.86.28 1.11 1 1.46.74.34.96.45.91.63-.05.2-.52.27-.55.73-.02.47.09 1.2 1.37 1.76 1.28.55 1.7.71 2.07.71.36 0 .79-.16 2.06-.71 1.28-.56 1.34-1.46 1.32-1.92-.02-.46-.44-.38-.5-.57-.05-.18.18-.29.9-.63.74-.35 1.07-.6 1.02-1.45Z"/>
          <path fill="#353F6E" d="M14.97 13.68c-.03-.44-.44-.36-.5-.54v-.01l-.87-.23-1.64-.21s-.4.25-.29.26c.21.02.22.25.36.38.14.14.73.91 1.52.88.79-.02 1.03-.6 1.28-.26.15.18-.23 1.04-.93 1.26-.7.22-1.26.44-1.63.54-.4.1-.84.12-1.25.05-.41-.08-1.9-.51-1.94-.52.16.1.32.18.49.24 1.27.54 1.68.69 2.05.69.37 0 .78-.15 2.05-.69 1.26-.53 1.32-1.4 1.3-1.84Z"/>
          <path fill="#353F6E" d="M8.95 13.48s.29.72 1.71.6c.18-.02.21-.2.26-.33.08-.21.21-.28.35-.42.13-.13.22-.35.4-.38.26-.04.28-.38.27-.61-.02-.72-.95-1.33-.95-1.33l-2.04 2.47Z"/>
          <path fill="#353F6E" d="M11.6 13.15c0-.03-.03-.04-.05-.01-.04.08-.09.27-.18.35-.11.1-.25.23-.2.36.05.13.19.04.3-.05l.1-.08a.08.08 0 0 0 .03-.06v-.5Zm.1-.01c0-.03.03-.04.04-.02.05.08.1.27.18.35.12.1.26.23.2.36-.04.13-.18.04-.3-.05a2.37 2.37 0 0 0-.12-.1v-.54Z"/>
          <path fill="#DFE1E5" d="M13.21 14.43c0 .16-.02.31-.05.47.14-.03.39-.18.45-.36a.91.91 0 0 0-.4-.1Z"/>
          <path fill="#353F6E" d="M14.53 14.56c-.2.17-.56.1-.93 0a.36.36 0 0 0-.17-.08.68.68 0 0 0-.22-.02.84.84 0 0 1-.19-.04c-.45-.25-1.22-.25-1.22-.25s-.67 0-1.2.25c-.52.24-1.21.4-1.54.14a.88.88 0 0 1-.23-.35c-.02-.05.04-.08.07-.04.11.18.28.26.5.3.6.1 1.34-.4 2.4-.4 1.05 0 1.84.33 2.4.4.22.03.38-.12.49-.3.03-.04.09 0 .07.04a.87.87 0 0 1-.23.35Z"/>
          <path fill="#353F6E" d="M11.32 14.69c-.08-.06.08-.18.43-.18.33 0 .46.1.44.16-.03.08-.28-.02-.45-.02-.16 0-.34.1-.42.04Zm-.59-8.53S9.62 7.62 9.1 8.14c-.52.52-1.6 1.89-1.81 2.26-.22.38-.5 1.26.3 1.77-.4-.99.38-1.27.62-1.23.25.05.23.94.23.94l.4.52 1.47-.1.82-1.2-.3-.27a2.1 2.1 0 0 0-1.06-.43c-.63-.06-.87-.04-.87-.04s.1-.6.76-.5c-.2-.28-.26-1.8 1.07-3.7Zm2.1 1.03s.17 1.12.18 1.8c0 .66.16 1.7-.13 1.97-.3.28.18.4.18.4l1.8 1.1s.44-.07.66-.22c.21-.14.56-.38.63-.67-.3.3-.54.52-.75.28-.2-.25-.06-1.41-.8-1.98.12.26-.03.7-.33.64-.29-.05-.75-.74-.86-1.33-.12-.6-.58-2-.58-2Z"/>
          <path fill="#DFE1E5" d="m8.31 11.44-.77-.69a.34.34 0 1 1 .46-.5l.76.67c-.2.13-.34.3-.45.52Z"/>
          <path fill="#A5AFD4" d="M11.52 12.3Zm-3.32-.02.01-.11v.11Zm1.66 1.68a1.65 1.65 0 0 1-1.65-1.65v-.01a1.66 1.66 0 0 0 1.65 1.66Z"/>
          <path fill="#DFE1E5" d="m8.2 12.28.01-.11a1.67 1.67 0 0 1 1.65-1.54 1.66 1.66 0 0 1 1.66 1.67 1.66 1.66 0 0 1-1.65 1.66A1.66 1.66 0 0 1 8.2 12.3v-.02Z"/>
          <path fill="#353F6E" d="M9.87 13.67a1.35 1.35 0 1 0 0-2.7 1.35 1.35 0 0 0 0 2.7Z"/>
          <path fill="#DFE1E5" d="m8.65 11.42 2.57.33-.26-.33s-.37-.35-.4-.35c-.02-.01-.37-.2-.53-.2-.16 0-.54-.13-.7-.05-.15.08-.68.55-.68.55v.05Z"/>
          <path fill="#DFE1E5" d="m10.2 12.55 1.15-.42-.39-.68-1.76 1.17 1.59-.58-.58.51Z"/>
          <path fill="#353F6E" d="m8.4 11.35-.74-.66a.23.23 0 0 1-.01-.23c.04-.07 0 .04.04.12.03.08.87.54.87.54l-.17.23Z"/>
          <path fill="#DFE1E5" d="m14.98 11.42.76-.67a.33.33 0 0 0-.45-.5l-.74.66c.18.13.33.3.43.5Z"/>
          <path fill="#A5AFD4" d="M11.81 12.3Zm3.31-.02v-.11.11Zm-1.65 1.68a1.65 1.65 0 0 0 1.65-1.65v-.01a1.66 1.66 0 0 1-1.65 1.66Z"/>
          <path fill="#DFE1E5" d="M15.12 12.28v-.11a1.67 1.67 0 0 0-1.65-1.54 1.66 1.66 0 0 0-1.66 1.67 1.66 1.66 0 0 0 1.65 1.66 1.66 1.66 0 0 0 1.66-1.66v-.02Z"/>
          <path fill="#353F6E" d="M13.45 13.67a1.35 1.35 0 1 0 0-2.7 1.35 1.35 0 0 0 0 2.7Z"/>
          <path fill="#DFE1E5" d="m14.59 11.42-2.54.37.16-.34s.43-.38.46-.38c.03-.01.37-.2.53-.2.16 0 .54-.13.7-.05.16.08.69.55.69.55v.05Z"/>
          <path fill="#DFE1E5" d="m13.79 12.46 1.14-.43-.39-.68-1.76 1.18 1.59-.59-.58.52Z"/>
          <path fill="#353F6E" d="m14.95 11.39.74-.66a.23.23 0 0 0 0-.24c-.04-.06 0 .05-.04.13-.03.07-.87.54-.87.54l.17.23Z"/>
        </g>
        <path stroke="#37383F" stroke-linecap="round" stroke-width=".58" d="M24.34 7.36v7.49"/>
        <g opacity=".1">
          <g clip-path="url(#clip5_6132_115556)">
            <path stroke="#ACAFBF" stroke-linecap="round" stroke-linejoin="round" stroke-width=".58" d="m38.74 11.76-.23.26a1.3 1.3 0 1 1 0-1.83l1.62 1.83a1.3 1.3 0 1 0 0-1.83l-.23.26"/>
          </g>
          <path fill="#ACAFBF" d="M47.48 13.23c-1.15 0-1.9-.6-1.97-1.47v-.04h.65v.04c.05.53.6.86 1.36.86.72 0 1.24-.37 1.24-.9 0-.45-.3-.75-1.03-.9l-.58-.14c-1.06-.23-1.52-.72-1.52-1.48 0-.88.77-1.5 1.86-1.5 1.05 0 1.79.63 1.84 1.41v.05h-.65v-.04c-.08-.47-.52-.81-1.2-.8-.66 0-1.17.3-1.17.86 0 .42.29.7 1 .87l.59.13c1.1.24 1.53.68 1.53 1.44 0 1-.77 1.61-1.95 1.61Zm2.63-.12 1.94-5.28h.66l1.94 5.28h-.69l-.53-1.51h-2.1l-.53 1.5h-.7Zm2.24-4.43-.83 2.36h1.72l-.83-2.36h-.06Zm3.23 4.43V7.83h.76l1.8 4.4h.06l1.81-4.4h.77v5.28h-.62V9.08h-.04l-1.67 4.03h-.55l-1.67-4.03h-.04v4.03h-.61Zm6.54 0V7.83h1.99c1 0 1.7.68 1.7 1.68v.01c0 1-.7 1.7-1.7 1.7h-1.33v1.89h-.66Zm1.82-4.7h-1.16v2.23h1.16c.75 0 1.19-.42 1.19-1.11 0-.7-.44-1.12-1.19-1.12Zm2.94 4.7V7.83h.66v4.68h2.54v.6h-3.2Zm4.26 0V7.83h3.27v.6H71.8v1.68h2.47v.59H71.8v1.81h2.6v.6h-3.26Zm3.79.95v-.59h4.36v.6h-4.36Zm5.04-.95V7.83h3.27v.6h-2.61v1.68h2.47v.59h-2.47v1.81h2.61v.6h-3.27Zm4.46 0V7.83h.64l2.86 4.1H88v-4.1h.65v5.28H88L85.14 9h-.06v4.1h-.65Zm7.08 0-1.94-5.28h.69l1.55 4.42h.06l1.55-4.42h.7l-1.95 5.28h-.66Z"/>
          <g fill="#828599" clip-path="url(#clip6_6132_115556)">
            <path d="M100.84 11.43a.32.32 0 1 0 0-.65.32.32 0 0 0 0 .65Zm0-1.83a.32.32 0 1 0 0-.65.32.32 0 0 0 0 .64Zm0 3.67a.32.32 0 1 0 0-.65.32.32 0 0 0 0 .65Z"/>
          </g>
        </g>
        <mask id="path-50-inside-3_6132_115556" fill="#fff">
          <path d="M115.82-1.57h58.65v25.35h-58.65V-1.57Z"/>
        </mask>
        <path fill="#6063F6" d="M174.47 23.2h-58.65v1.15h58.65V23.2Z" mask="url(#path-50-inside-3_6132_115556)"/>
        <g clip-path="url(#clip7_6132_115556)">
          <path stroke="#F0F1F7" stroke-linecap="round" stroke-linejoin="round" stroke-width=".58" d="m123.3 11.76-.23.26a1.3 1.3 0 1 1 0-1.83l1.63 1.83a1.3 1.3 0 1 0 0-1.83l-.24.26"/>
        </g>
        <path fill="#fff" d="M130.32 13.1V7.84h.76l1.8 4.4h.06l1.81-4.4h.76v5.28h-.6V9.08h-.05l-1.67 4.03h-.55l-1.67-4.03h-.04v4.03h-.61Zm8 0v-2.27l-1.88-3h.75l1.42 2.34h.06l1.42-2.34h.75l-1.87 3v2.28h-.66Zm2.12.96v-.59h4.37v.6h-4.37Zm5.04-.95V7.83h3.27v.6h-2.6v1.68h2.47v.59h-2.48v1.81h2.61v.6h-3.27Zm4.46 0V7.83h.64l2.87 4.1h.06v-4.1h.65v5.28h-.64L150.65 9h-.06v4.1h-.65Zm7.09 0-1.95-5.28h.7l1.54 4.42h.06l1.55-4.42h.7l-1.95 5.28h-.65Z"/>
        <g fill="#F0F1F7" clip-path="url(#clip8_6132_115556)">
          <path d="M166.4 11.43a.32.32 0 1 0 0-.65.32.32 0 0 0 0 .65Zm0-1.83a.32.32 0 1 0 0-.65.32.32 0 0 0 0 .64Zm0 3.67a.32.32 0 1 0 0-.65.32.32 0 0 0 0 .65Z"/>
        </g>
      </g>
      <path fill="#2C2E33" d="M-1-1h644v-1.14H-1V-1Z" mask="url(#path-14-inside-2_6132_115556)"/>
    </g>
    <path fill="url(#paint0_linear_6132_115556)" d="M272 91h23v285h-23z" transform="rotate(90 272 91)"/>
    <path fill="url(#paint1_linear_6132_115556)" d="M194-5h25v125h-25z"/>
    <path fill="url(#paint2_linear_6132_115556)" d="M31 120h31v125H31z" transform="rotate(-180 31 120)"/>
    <g filter="url(#filter2_dd_6132_115556)">
      <path fill="#000" d="m173.32 91.72-6.53-6.27v9l1.98-2.15 1.94 3.85c.02.04.07.05.11.03l1.05-.52a.08.08 0 0 0 .03-.1l-1.94-3.84h3.36Z"/>
    </g>
    <g filter="url(#filter3_dd_6132_115556)">
      <path fill="#fff" fill-rule="evenodd" d="M175.28 92.5 166 83.6v12.88l2.58-2.8 1.43 2.82c.21.42.74.6 1.17.38l1.04-.51c.43-.22.6-.73.4-1.16l-1.38-2.71h4.04Zm-3.38 3.06c.02.04 0 .09-.03.1l-1.05.52a.08.08 0 0 1-.1-.03l-1.95-3.85-1.98 2.16v-9l6.53 6.26h-3.36l1.94 3.84Z" clip-rule="evenodd"/>
    </g>
  </g>
  <defs>
    <clipPath id="clip0_6132_115556">
      <use xlink:href="#reuse-0"/>
    </clipPath>
    <clipPath id="clip1_6132_115556">
      <path fill="#fff" d="M-1 23.78h644V167H-1V23.78Z"/>
    </clipPath>
    <clipPath id="clip2_6132_115556">
      <path fill="#fff" d="M194.15 74.12h9.22v9.22h-9.22z"/>
    </clipPath>
    <clipPath id="clip3_6132_115556">
      <path fill="#fff" d="M-1-1.57h644v25.35H-1V-1.57Z"/>
    </clipPath>
    <clipPath id="clip4_6132_115556">
      <path fill="#fff" d="M5.91 5.34h11.52v11.52H5.91z"/>
    </clipPath>
    <clipPath id="clip5_6132_115556">
      <path fill="#fff" d="M35.87 7.65h6.9v6.9h-6.9z"/>
    </clipPath>
    <clipPath id="clip6_6132_115556">
      <path fill="#fff" d="M97.39 7.65h6.9v6.9h-6.9z"/>
    </clipPath>
    <clipPath id="clip7_6132_115556">
      <path fill="#fff" d="M120.43 7.65h6.9v6.9h-6.9z"/>
    </clipPath>
    <clipPath id="clip8_6132_115556">
      <path fill="#fff" d="M162.95 7.65h6.9v6.9h-6.9z"/>
    </clipPath>
    <filter id="filter0_d_6132_115556" width="316.24" height="134.01" x="3.61" y="28.96" color-interpolation-filters="sRGB" filterUnits="userSpaceOnUse">
      <feFlood flood-opacity="0" result="BackgroundImageFix"/>
      <feColorMatrix in="SourceAlpha" result="hardAlpha" values="0 0 0 0 0 0 0 0 0 0 0 0 0 0 0 0 0 0 127 0"/>
      <feOffset dy=".58"/>
      <feGaussianBlur stdDeviation="1.15"/>
      <feComposite in2="hardAlpha" operator="out"/>
      <feColorMatrix values="0 0 0 0 0 0 0 0 0 0 0 0 0 0 0 0 0 0 0.45 0"/>
      <feBlend in2="BackgroundImageFix" result="effect1_dropShadow_6132_115556"/>
      <feBlend in="SourceGraphic" in2="effect1_dropShadow_6132_115556" result="shape"/>
    </filter>
    <filter id="filter1_d_6132_115556" width="671.64" height="52.99" x="-14.82" y="-10.21" color-interpolation-filters="sRGB" filterUnits="userSpaceOnUse">
      <feFlood flood-opacity="0" result="BackgroundImageFix"/>
      <feColorMatrix in="SourceAlpha" result="hardAlpha" values="0 0 0 0 0 0 0 0 0 0 0 0 0 0 0 0 0 0 127 0"/>
      <feOffset dy="5.18"/>
      <feGaussianBlur stdDeviation="6.91"/>
      <feComposite in2="hardAlpha" operator="out"/>
      <feColorMatrix values="0 0 0 0 0 0 0 0 0 0 0 0 0 0 0 0 0 0 0.3 0"/>
      <feBlend in2="BackgroundImageFix" result="effect1_dropShadow_6132_115556"/>
      <feBlend in="SourceGraphic" in2="effect1_dropShadow_6132_115556" result="shape"/>
    </filter>
    <filter id="filter2_dd_6132_115556" width="10.73" height="16.34" x="164.69" y="84.05" color-interpolation-filters="sRGB" filterUnits="userSpaceOnUse">
      <feFlood flood-opacity="0" result="BackgroundImageFix"/>
      <feColorMatrix in="SourceAlpha" result="hardAlpha" values="0 0 0 0 0 0 0 0 0 0 0 0 0 0 0 0 0 0 127 0"/>
      <feOffset dx=".7"/>
      <feGaussianBlur stdDeviation=".7"/>
      <feColorMatrix values="0 0 0 0 0 0 0 0 0 0 0 0 0 0 0 0 0 0 0.3 0"/>
      <feBlend in2="BackgroundImageFix" result="effect1_dropShadow_6132_115556"/>
      <feColorMatrix in="SourceAlpha" result="hardAlpha" values="0 0 0 0 0 0 0 0 0 0 0 0 0 0 0 0 0 0 127 0"/>
      <feOffset dy="2.1"/>
      <feGaussianBlur stdDeviation="1.05"/>
      <feColorMatrix values="0 0 0 0 0 0 0 0 0 0 0 0 0 0 0 0 0 0 0.25 0"/>
      <feBlend in2="effect1_dropShadow_6132_115556" result="effect2_dropShadow_6132_115556"/>
      <feBlend in="SourceGraphic" in2="effect2_dropShadow_6132_115556" result="shape"/>
    </filter>
    <filter id="filter3_dd_6132_115556" width="13.48" height="18.97" x="163.9" y="82.2" color-interpolation-filters="sRGB" filterUnits="userSpaceOnUse">
      <feFlood flood-opacity="0" result="BackgroundImageFix"/>
      <feColorMatrix in="SourceAlpha" result="hardAlpha" values="0 0 0 0 0 0 0 0 0 0 0 0 0 0 0 0 0 0 127 0"/>
      <feOffset dx=".7"/>
      <feGaussianBlur stdDeviation=".7"/>
      <feColorMatrix values="0 0 0 0 0 0 0 0 0 0 0 0 0 0 0 0 0 0 0.3 0"/>
      <feBlend in2="BackgroundImageFix" result="effect1_dropShadow_6132_115556"/>
      <feColorMatrix in="SourceAlpha" result="hardAlpha" values="0 0 0 0 0 0 0 0 0 0 0 0 0 0 0 0 0 0 127 0"/>
      <feOffset dy="2.1"/>
      <feGaussianBlur stdDeviation="1.05"/>
      <feColorMatrix values="0 0 0 0 0 0 0 0 0 0 0 0 0 0 0 0 0 0 0.25 0"/>
      <feBlend in2="effect1_dropShadow_6132_115556" result="effect2_dropShadow_6132_115556"/>
      <feBlend in="SourceGraphic" in2="effect2_dropShadow_6132_115556" result="shape"/>
    </filter>
    <linearGradient id="paint0_linear_6132_115556" x1="295" x2="272" y1="231.22" y2="231.22" gradientUnits="userSpaceOnUse">
      <stop stop-color="#222326"/>
      <stop offset="1" stop-color="#222326" stop-opacity="0"/>
    </linearGradient>
    <linearGradient id="paint1_linear_6132_115556" x1="219" x2="194" y1="56.5" y2="56.5" gradientUnits="userSpaceOnUse">
      <stop stop-color="#222326"/>
      <stop offset="1" stop-color="#222326" stop-opacity="0"/>
    </linearGradient>
    <linearGradient id="paint2_linear_6132_115556" x1="62" x2="31" y1="181.5" y2="181.5" gradientUnits="userSpaceOnUse">
      <stop stop-color="#222326"/>
      <stop offset="1" stop-color="#222326" stop-opacity="0"/>
    </linearGradient>
  </defs>
</svg>