<svg xmlns="http://www.w3.org/2000/svg" xmlns:xlink="http://www.w3.org/1999/xlink" fill="none" viewBox="0 0 218 114">
  <defs>
    <path id="reuse-0" fill="#fff" d="M0 0h218v114H0z"/>
    <path id="reuse-1" fill="#fff" d="M100.01 72.54h11.21v11.2h-11.2z"/>
    <path id="reuse-2" fill="#fff" d="M100.01 92.15h11.21v11.2h-11.2z"/>
  </defs>
  <g clip-path="url(#clip0_6132_115456)">
    <use xlink:href="#reuse-0"/>
    <path fill="#222326" d="M0 0h783v239.52H0z"/>
    <g clip-path="url(#clip1_6132_115456)" opacity=".1">
      <path fill="#828599" d="m14.29 95.54 2.18-5.92h.73l2.19 5.92h-.78l-.6-1.7h-2.35l-.6 1.7h-.77Zm2.52-4.96-.93 2.64h1.92l-.93-2.64h-.06Zm4.96 5.04c-.98 0-1.66-.48-1.74-1.2h.73c.12.36.47.6 1.04.6.6 0 1.01-.28 1.01-.68v-.01c0-.3-.22-.5-.77-.64l-.68-.16c-.83-.2-1.2-.56-1.2-1.2 0-.74.7-1.3 1.64-1.3.93 0 1.57.47 1.67 1.2h-.7c-.1-.35-.44-.6-.97-.6s-.92.28-.92.67c0 .3.23.5.75.62l.68.16c.83.2 1.23.57 1.23 1.2 0 .8-.76 1.34-1.77 1.34Zm4.32 0c-.99 0-1.66-.48-1.75-1.2h.73c.12.36.48.6 1.04.6.6 0 1.02-.28 1.02-.68v-.01c0-.3-.22-.5-.77-.64l-.69-.16c-.83-.2-1.2-.56-1.2-1.2 0-.74.7-1.3 1.65-1.3.92 0 1.57.47 1.67 1.2h-.7c-.1-.35-.44-.6-.98-.6-.52 0-.9.28-.9.67 0 .3.21.5.73.62l.69.16c.83.2 1.23.57 1.23 1.2 0 .8-.77 1.34-1.77 1.34Zm4.68 0c-1.26 0-2.02-.89-2.02-2.27s.78-2.31 1.98-2.31 1.93.9 1.93 2.22v.27h-3.18c.02.92.52 1.45 1.31 1.45.6 0 .97-.28 1.09-.55l.02-.03h.7v.03c-.15.6-.78 1.19-1.83 1.19Zm-.04-3.94c-.66 0-1.16.44-1.24 1.28h2.45c-.08-.87-.56-1.28-1.21-1.28Zm4.61 3.9c-.9 0-1.3-.34-1.3-1.19v-2.68h-.69v-.6h.7v-1.14h.74v1.15h.97v.59h-.97v2.5c0 .52.18.73.64.73l.33-.01v.6a2 2 0 0 1-.42.04Z"/>
      <rect width="765.49" height="28.11" x="8.75" y="103.4" fill="#1A1B1E" rx="2.45"/>
      <rect width="765.49" height="28.11" x="8.75" y="103.4" stroke="#2C2E33" stroke-width=".7" rx="2.45"/>
    </g>
    <g opacity=".1">
      <mask id="path-3-inside-1_6132_115456" fill="#fff">
        <path d="M0 65.23h783v22.4H0v-22.4Z"/>
      </mask>
      <path fill="#2C2E33" d="M0 65.93h783v-1.4H0v1.4Z" mask="url(#path-3-inside-1_6132_115456)"/>
      <path fill="#fff" d="M9.52 79.43v-5.92h2.33c1.22 0 1.97.7 1.97 1.8v.02c0 .8-.42 1.44-1.15 1.68L14 79.43h-1.06l-1.2-2.27h-1.3v2.27h-.92Zm.92-3.02h1.32c.7 0 1.12-.39 1.12-1.06 0-.66-.44-1.07-1.15-1.07h-1.3v2.13Zm6.33 3.11c-1.3 0-2.1-.9-2.1-2.3s.81-2.33 2.05-2.33c1.25 0 2.01.9 2.01 2.24v.3h-3.16c.02.86.48 1.36 1.22 1.36.57 0 .91-.28 1.02-.51l.01-.04h.86v.04c-.16.58-.77 1.24-1.91 1.24Zm-.04-3.9c-.61 0-1.07.42-1.15 1.18h2.27c-.07-.8-.52-1.18-1.12-1.18Zm4.93 3.9c-1.3 0-2.1-.89-2.1-2.33 0-1.42.8-2.3 2.1-2.3 1.12 0 1.79.63 1.91 1.5v.02h-.85c-.1-.45-.46-.78-1.06-.78-.74 0-1.19.6-1.19 1.55v.01c0 .99.46 1.59 1.2 1.59.55 0 .9-.26 1.04-.74v-.02h.86v.04c-.17.86-.8 1.46-1.9 1.46Zm4.8 0c-1.31 0-2.1-.9-2.1-2.3s.8-2.33 2.05-2.33c1.24 0 2 .9 2 2.24v.3h-3.16c.02.86.49 1.36 1.22 1.36.57 0 .91-.28 1.02-.51l.02-.04h.86l-.01.04c-.15.58-.77 1.24-1.9 1.24Zm-.05-3.9c-.6 0-1.06.42-1.14 1.18h2.26c-.07-.8-.51-1.18-1.12-1.18Zm3.06 3.81v-4.45h.9v.67h.06c.22-.47.64-.76 1.3-.76.99 0 1.54.6 1.54 1.66v2.88h-.89v-2.67c0-.74-.3-1.1-.96-1.1-.65 0-1.06.44-1.06 1.16v2.61h-.89Zm6.73.03c-.99 0-1.39-.34-1.39-1.2v-2.58h-.7v-.7h.7v-1.13h.9v1.13h.97v.7h-.96v2.37c0 .48.18.67.62.67l.34-.01v.7c-.15.03-.31.05-.48.05Zm3.46-.03 2.14-5.92h.99l2.14 5.92h-.97l-.53-1.6h-2.27l-.54 1.6h-.96Zm2.6-4.88-.85 2.54h1.77l-.85-2.54h-.07Zm5.22 4.97c-1.3 0-2.1-.89-2.1-2.33 0-1.42.8-2.3 2.1-2.3 1.12 0 1.79.63 1.91 1.5v.02h-.85c-.1-.45-.46-.78-1.06-.78-.74 0-1.19.6-1.19 1.55v.01c0 .99.46 1.59 1.2 1.59.55 0 .9-.26 1.04-.74v-.02h.86v.04c-.17.86-.8 1.46-1.9 1.46Zm4.67-.06c-.98 0-1.38-.34-1.38-1.2v-2.58h-.7v-.7h.7v-1.13h.9v1.13h.96v.7h-.96v2.37c0 .48.18.67.62.67l.34-.01v.7c-.14.03-.3.05-.48.05Zm1.98-5.28a.56.56 0 0 1-.56-.55.56.56 0 0 1 1.12 0c0 .3-.25.55-.56.55Zm-.45 5.25v-4.45h.9v4.45h-.9Zm3.42 0-1.62-4.45h.95l1.1 3.55h.08l1.1-3.55h.94l-1.6 4.45h-.95Zm3.9-5.25a.56.56 0 0 1-.56-.55.56.56 0 0 1 1.12 0c0 .3-.26.55-.56.55Zm-.45 5.25v-4.45h.89v4.45h-.89Zm3.87.03c-.98 0-1.38-.34-1.38-1.2v-2.58h-.7v-.7h.7v-1.13h.9v1.13h.96v.7h-.96v2.37c0 .48.18.67.62.67l.34-.01v.7c-.15.03-.3.05-.48.05ZM66.38 81c-.1 0-.24 0-.36-.02v-.7l.3.02c.42 0 .67-.18.8-.63l.07-.23-1.62-4.46h.96l1.12 3.56h.07l1.12-3.56h.93l-1.66 4.63c-.37 1.06-.83 1.4-1.73 1.4Z"/>
    </g>
    <g filter="url(#filter0_d_6132_115456)">
      <g clip-path="url(#clip2_6132_115456)">
        <mask id="path-6-inside-2_6132_115456" fill="#fff">
          <path d="M0 34.41h783v30.82H0V34.4Z"/>
        </mask>
        <path fill="#27282E" d="M0 34.41h783v30.82H0V34.4Z"/>
        <g clip-path="url(#clip3_6132_115456)" opacity=".35">
          <path fill="#4F5DA3" d="M21.21 49.71c-.07-1.31-3-4.17-3.48-4.62-.48-.46-1.27-1.6-1.5-1.59-.25.03.14 2.34.17 4 .03 1.65-.34 2.22-.47 2.19l-.55-.1-.56.1c-.13.03-.5-.54-.46-2.2.03-1.65.41-3.96.17-3.99-.24-.01-1.03 1.13-1.5 1.59-.49.45-3.42 3.3-3.5 4.62-.05 1.04.35 1.35 1.24 1.77.88.41 1.16.54 1.1.77-.06.23-.63.32-.67.89-.03.56.1 1.45 1.66 2.13 1.55.67 2.07.86 2.52.86.44 0 .96-.18 2.51-.86 1.55-.68 1.63-1.77 1.6-2.33-.03-.56-.54-.46-.6-.69-.07-.23.21-.36 1.1-.77.88-.42 1.28-.73 1.22-1.77Z"/>
          <path fill="#353F6E" d="M19.42 52.95c-.04-.53-.54-.43-.6-.65v-.02L17.75 52l-2-.26s-.48.31-.34.32c.25.02.27.3.43.47.17.16.89 1.1 1.85 1.07.96-.03 1.25-.73 1.56-.32.18.22-.28 1.27-1.13 1.53-.86.26-1.54.54-1.98.66a3.7 3.7 0 0 1-1.53.05c-.5-.1-2.31-.61-2.35-.62.19.11.39.21.6.3 1.53.64 2.04.82 2.49.82.44 0 .95-.18 2.49-.83 1.53-.65 1.6-1.7 1.58-2.24Z"/>
          <path fill="#353F6E" d="M12.1 52.71s.35.87 2.08.72c.22-.02.25-.24.31-.4.1-.25.26-.33.42-.5.16-.17.27-.43.5-.47.3-.05.33-.46.32-.74-.02-.87-1.15-1.62-1.15-1.62l-2.49 3.01Z"/>
          <path fill="#353F6E" d="M15.32 52.31c0-.03-.04-.05-.06-.02-.06.1-.1.33-.22.43-.14.12-.31.27-.25.43.06.17.24.05.38-.06.06-.05.1-.07.12-.1a.1.1 0 0 0 .03-.07v-.61Zm.12-.02c0-.04.03-.05.05-.02.06.1.11.33.22.42.14.13.31.28.25.44-.06.16-.23.05-.37-.06a3 3 0 0 0-.15-.13.1.1 0 0 1 0-.04v-.61Z"/>
          <path fill="#DFE1E5" d="M17.28 53.87c0 .19-.03.37-.06.56.17-.04.46-.22.55-.44a1.36 1.36 0 0 0-.5-.12Z"/>
          <path fill="#353F6E" d="M18.89 54.02c-.26.21-.68.13-1.14.01a.44.44 0 0 0-.21-.11.82.82 0 0 0-.27-.02.9.9 0 0 1-.22-.06c-.55-.3-1.5-.3-1.5-.3s-.8 0-1.45.3c-.62.3-1.47.5-1.87.18a1.07 1.07 0 0 1-.28-.42c-.02-.06.05-.1.09-.05.14.22.33.31.6.36.74.13 1.64-.48 2.92-.48s2.25.4 2.91.48c.27.03.47-.14.6-.36.04-.06.12-.01.1.05-.06.16-.16.3-.28.42Z"/>
          <path fill="#353F6E" d="M14.98 54.18c-.1-.07.1-.22.53-.22.4 0 .55.13.53.19-.04.1-.34-.02-.55-.02-.2 0-.42.11-.51.05Zm-.71-10.38s-1.36 1.78-2 2.41c-.63.64-1.93 2.3-2.2 2.76-.26.45-.6 1.53.38 2.14-.5-1.2.45-1.54.75-1.49.3.06.28 1.14.28 1.14l.48.63 1.79-.12 1-1.45-.37-.33a2.56 2.56 0 0 0-1.28-.52c-.77-.09-1.06-.06-1.06-.06s.11-.72.92-.6c-.24-.35-.32-2.19 1.3-4.5Zm2.55 1.26s.2 1.36.21 2.18c.01.81.2 2.07-.16 2.4-.35.34.22.48.22.48l2.19 1.35s.54-.1.8-.27c.27-.17.69-.46.77-.81-.36.36-.66.63-.9.33-.25-.3-.08-1.71-.99-2.4.15.31-.03.84-.39.78-.35-.07-.91-.9-1.05-1.63a31.5 31.5 0 0 0-.7-2.41Z"/>
          <path fill="#DFE1E5" d="m11.32 50.22-.94-.83a.41.41 0 1 1 .56-.61l.92.81c-.23.16-.41.38-.54.63Z"/>
          <path fill="#A5AFD4" d="M15.22 51.27v.01Zm-4.02-.02v-.14.14Zm2 2.05a2.01 2.01 0 0 1-2-2.02v-.01a2.02 2.02 0 0 0 2 2.02Z"/>
          <path fill="#DFE1E5" d="M11.2 51.25v-.14a2.03 2.03 0 0 1 2-1.87 2.02 2.02 0 0 1 2.02 2.03 2.02 2.02 0 0 1-2 2.02h-.01a2.02 2.02 0 0 1-2.01-2.02v-.02Z"/>
          <path fill="#353F6E" d="M13.21 52.94a1.64 1.64 0 1 0 0-3.28 1.64 1.64 0 0 0 0 3.28Z"/>
          <path fill="#DFE1E5" d="m11.73 50.2 3.13.4-.32-.4s-.45-.42-.48-.43c-.03 0-.45-.23-.65-.23s-.65-.16-.84-.07c-.2.1-.84.68-.84.68v.05Z"/>
          <path fill="#DFE1E5" d="m13.63 51.58 1.38-.52-.47-.82-2.14 1.43 1.93-.72-.7.63Z"/>
          <path fill="#353F6E" d="M11.42 50.12s-.86-.78-.9-.8a.28.28 0 0 1 0-.29c.05-.08 0 .06.05.15.04.1 1.06.66 1.06.66l-.21.28Z"/>
          <path fill="#DFE1E5" d="m19.43 50.2.92-.8a.4.4 0 0 0-.54-.61l-.9.8c.22.15.4.37.52.61Z"/>
          <path fill="#A5AFD4" d="M15.58 51.27v.01Zm4.02-.02v-.14.14Zm-2 2.05a2.01 2.01 0 0 0 2-2.02v-.01a2.02 2.02 0 0 1-2 2.02Z"/>
          <path fill="#DFE1E5" d="M19.6 51.25v-.14a2.03 2.03 0 0 0-2-1.86 2.02 2.02 0 0 0-2.02 2.02 2.02 2.02 0 0 0 2 2.02h.01a2.02 2.02 0 0 0 2.01-2.02v-.02Z"/>
          <path fill="#353F6E" d="M17.57 52.94a1.64 1.64 0 1 0 0-3.28 1.64 1.64 0 0 0 0 3.28Z"/>
          <path fill="#DFE1E5" d="m18.95 50.2-3.08.46.19-.42s.53-.46.56-.47c.03 0 .45-.23.65-.23s.65-.16.84-.07c.2.1.84.68.84.68v.05Z"/>
          <path fill="#DFE1E5" d="m17.98 51.46 1.39-.52-.47-.82-2.14 1.43 1.92-.72-.7.63Z"/>
          <path fill="#353F6E" d="m19.4 50.16.89-.8a.28.28 0 0 0 .01-.28c-.05-.08 0 .05-.05.15-.04.09-1.06.65-1.06.65l.2.28Z"/>
        </g>
        <path stroke="#37383F" stroke-linecap="round" stroke-width=".7" d="M30.82 45.27v9.1"/>
        <mask id="path-37-inside-3_6132_115456" fill="#fff">
          <path d="M39.22 34.41h65.01v30.82H39.22V34.4Z"/>
        </mask>
        <path fill="#6063F6" d="M104.23 64.53H39.22v1.4h65.01v-1.4Z" mask="url(#path-37-inside-3_6132_115456)"/>
        <g clip-path="url(#clip4_6132_115456)">
          <path stroke="#F0F1F7" stroke-linecap="round" stroke-linejoin="round" stroke-width=".7" d="m45.52 50.61-.28.32a1.58 1.58 0 1 1 0-2.23l1.97 2.23a1.58 1.58 0 1 0 0-2.23l-.28.33"/>
        </g>
        <path fill="#fff" d="M54.05 52.82V46.4h.92l2.2 5.36h.07l2.2-5.36h.93v6.42h-.75v-4.9h-.05l-2.03 4.9h-.67l-2.03-4.9h-.05v4.9h-.74Zm9.72 0v-2.76l-2.28-3.66h.91l1.73 2.85h.07l1.73-2.85h.91l-2.27 3.66v2.76h-.8Zm2.58 1.16v-.72h5.31v.72h-5.3Zm6.14-1.16V46.4h3.97v.72h-3.17v2.06h3v.71h-3v2.2h3.17v.73h-3.97Zm5.42 0V46.4h.78l3.48 5h.07v-5h.8v6.42h-.79l-3.48-4.98h-.07v4.98h-.8Zm8.61 0-2.36-6.42H85l1.88 5.38h.07l1.89-5.38h.84l-2.37 6.42h-.79Z"/>
        <g fill="#F0F1F7" clip-path="url(#clip5_6132_115456)">
          <path d="M97.23 50.21a.4.4 0 1 0 0-.79.4.4 0 0 0 0 .8Zm0-2.23a.4.4 0 1 0 0-.79.4.4 0 0 0 0 .79Zm0 4.47a.4.4 0 1 0 0-.8.4.4 0 0 0 0 .8Z"/>
        </g>
        <g opacity=".1">
          <g clip-path="url(#clip6_6132_115456)">
            <path stroke="#ACAFBF" stroke-linecap="round" stroke-linejoin="round" stroke-width=".7" d="m118.94 50.61-.28.32a1.57 1.57 0 1 1 0-2.23l1.97 2.23a1.57 1.57 0 1 0 0-2.23l-.29.33"/>
          </g>
          <path fill="#ACAFBF" d="M129.57 52.97c-1.4 0-2.31-.74-2.4-1.78l-.01-.05h.8v.05c.06.64.73 1.04 1.65 1.04.87 0 1.5-.45 1.5-1.1 0-.54-.36-.9-1.24-1.1l-.71-.15c-1.29-.29-1.84-.88-1.84-1.8v-.01c0-1.07.93-1.82 2.25-1.82 1.29 0 2.18.76 2.25 1.71v.07h-.8v-.06c-.1-.57-.63-.98-1.47-.98-.8 0-1.42.38-1.42 1.05 0 .52.36.87 1.23 1.06l.7.16c1.35.3 1.88.83 1.88 1.76 0 1.2-.94 1.95-2.37 1.95Zm3.19-.15 2.36-6.42h.8l2.36 6.42h-.84l-.65-1.84h-2.55l-.64 1.84h-.84Zm2.72-5.38-1 2.86h2.08l-1-2.86h-.08Zm3.93 5.38V46.4h.92l2.2 5.36h.07l2.2-5.36h.93v6.42h-.75v-4.9h-.05l-2.03 4.9h-.67l-2.03-4.9h-.05v4.9h-.75Zm7.95 0V46.4h2.42c1.2 0 2.06.84 2.06 2.05v.01c0 1.22-.85 2.07-2.06 2.07h-1.62v2.29h-.8Zm2.22-5.7h-1.42v2.7h1.42c.91 0 1.44-.5 1.44-1.35 0-.85-.53-1.35-1.44-1.35Zm3.57 5.7V46.4h.8v5.7h3.1v.72h-3.9Zm5.17 0V46.4h3.98v.72h-3.17v2.06h3v.71h-3v2.2h3.17v.73h-3.98Zm4.61 1.16v-.72h5.31v.72h-5.3Zm6.14-1.16V46.4h3.97v.72h-3.17v2.06h3v.71h-3v2.2h3.17v.73h-3.97Zm5.42 0V46.4h.78l3.48 5h.07v-5h.8v6.42h-.79l-3.48-4.98h-.07v4.98h-.79Zm8.61 0-2.36-6.42h.84l1.88 5.38h.07l1.89-5.38h.84l-2.37 6.42h-.79Z"/>
          <g fill="#828599" clip-path="url(#clip7_6132_115456)">
            <path d="M193.65 50.21a.4.4 0 1 0 0-.78.4.4 0 0 0 0 .78Zm0-2.23a.4.4 0 1 0 0-.79.4.4 0 0 0 0 .79Zm0 4.47a.4.4 0 1 0 0-.8.4.4 0 0 0 0 .8Z"/>
          </g>
        </g>
      </g>
      <path fill="#2C2E33" d="M0 35.11h783v-1.4H0v1.4Z" mask="url(#path-6-inside-2_6132_115456)"/>
    </g>
    <g opacity=".1">
      <path fill="#27282E" d="M0 0h783v34.41H0z"/>
      <path fill="#fff" d="M11.96 20.37c-1.88 0-3.04-1.3-3.04-3.37 0-2.08 1.18-3.37 3.04-3.37 1.87 0 3.03 1.3 3.03 3.36V17c0 2.06-1.16 3.37-3.03 3.37Zm0-1c1.14 0 1.86-.93 1.86-2.37 0-1.46-.72-2.38-1.86-2.38-1.14 0-1.87.92-1.87 2.37V17c0 1.44.71 2.37 1.87 2.37Zm6.94.92a1.6 1.6 0 0 1-1.48-.84h-.08v.76h-1.1v-6.74h1.1v2.65h.08c.25-.52.8-.85 1.48-.85 1.23 0 2 .96 2 2.5v.01c0 1.54-.79 2.5-2 2.5Zm-.35-.94c.75 0 1.21-.59 1.21-1.57 0-.98-.46-1.58-1.21-1.58s-1.22.6-1.22 1.57v.01c0 .98.47 1.57 1.22 1.57Zm5.29.95c-1.24 0-1.99-.57-2.08-1.39h1.1c.12.34.44.58 1 .58.54 0 .93-.25.93-.62 0-.3-.22-.48-.75-.6l-.79-.18c-.92-.2-1.36-.64-1.36-1.35 0-.88.8-1.49 1.95-1.49 1.18 0 1.88.59 1.96 1.38h-1.04c-.09-.31-.4-.56-.93-.56-.5 0-.85.24-.85.6 0 .3.2.46.73.58l.79.18c.95.21 1.4.62 1.4 1.32v.01c0 .93-.87 1.54-2.06 1.54Zm5.25 0c-1.44 0-2.32-.97-2.32-2.51 0-1.54.89-2.54 2.27-2.54s2.24.97 2.24 2.44v.36h-3.4c.01.88.49 1.38 1.24 1.38.6 0 .94-.3 1.05-.52v-.03h1.06l-.01.04c-.16.62-.8 1.38-2.13 1.38Zm-.04-4.18c-.61 0-1.08.42-1.16 1.2h2.3c-.07-.8-.52-1.2-1.14-1.2Zm3.33 4.09v-4.86h1.11v.74h.08c.16-.52.6-.82 1.25-.82.16 0 .34.02.44.05v1a2.79 2.79 0 0 0-.55-.07c-.73 0-1.22.44-1.22 1.13v2.83h-1.1Zm5.17 0-1.73-4.86H37l1.13 3.78h.07l1.12-3.78h1.16l-1.72 4.86h-1.21Zm5.02.08c-.92 0-1.6-.57-1.6-1.46 0-.87.67-1.38 1.85-1.45l1.25-.08v-.41c0-.49-.31-.76-.91-.76-.5 0-.84.19-.95.5v.02h-1.05v-.04c.12-.81.9-1.36 2.05-1.36 1.25 0 1.96.6 1.96 1.64v3.32h-1.1v-.67H44c-.27.47-.79.75-1.43.75Zm-.5-1.51c0 .41.35.66.84.66.67 0 1.16-.44 1.16-1.02v-.39l-1.1.07c-.61.04-.9.27-.9.67Zm7.13 1.5c-.68 0-1.21-.3-1.48-.83h-.07v.76h-1.11v-6.74h1.1v2.65h.08a1.6 1.6 0 0 1 1.48-.85c1.23 0 2 .96 2 2.5v.01c0 1.54-.78 2.5-2 2.5Zm-.35-.93c.76 0 1.21-.59 1.21-1.57 0-.98-.45-1.58-1.2-1.58-.76 0-1.23.6-1.23 1.57v.01c0 .98.47 1.57 1.22 1.57Zm4.02-4.82a.66.66 0 0 1-.66-.65.66.66 0 0 1 1.32 0c0 .36-.3.65-.66.65Zm-.56 5.68v-4.86h1.11v4.86h-1.1Zm2.52 0v-6.74h1.1v6.74h-1.1Zm3.07-5.68a.66.66 0 0 1-.66-.65.66.66 0 0 1 1.32 0c0 .36-.3.65-.66.65Zm-.55 5.68v-4.86h1.1v4.86h-1.1Zm4.38.02c-1.12 0-1.58-.38-1.58-1.31V16.2h-.75v-.85h.75v-1.2h1.13v1.2h1.02v.85h-1.02v2.45c0 .49.19.7.65.7l.37-.02v.85c-.16.03-.36.05-.57.05Zm2.2 1.68-.43-.01v-.85l.33.01c.46 0 .73-.19.85-.63l.05-.22L63 15.35h1.2l1.14 3.8h.08l1.13-3.8h1.17l-1.74 4.96c-.42 1.22-.98 1.6-2.05 1.6Z"/>
    </g>
    <path fill="url(#paint0_linear_6132_115456)" d="M264 86h29v264h-29z" transform="rotate(90 264 86)"/>
    <path fill="url(#paint1_linear_6132_115456)" d="M131-5.5h87v125h-87z"/>
    <path fill="url(#paint2_linear_6132_115456)" d="M0 0h29v125H0z" transform="matrix(-1 0 0 1 29 -5)"/>
    <g filter="url(#filter1_dd_6132_115456)">
      <path fill="#000" d="m104.43 60.05-6.53-6.26v9l1.98-2.16 1.94 3.85c.02.04.07.05.1.03l1.05-.51a.08.08 0 0 0 .04-.1l-1.94-3.85h3.36Z"/>
    </g>
    <g filter="url(#filter2_dd_6132_115456)">
      <path fill="#fff" fill-rule="evenodd" d="m106.38 60.83-9.27-8.9v12.88l2.58-2.8 1.42 2.82c.22.42.74.6 1.17.38l1.05-.51c.43-.22.6-.73.39-1.16l-1.37-2.7h4.03Zm-3.37 3.06c.02.04 0 .09-.04.1l-1.04.52a.08.08 0 0 1-.1-.03l-1.95-3.85-1.98 2.16v-9l6.53 6.26h-3.36l1.94 3.84Z" clip-rule="evenodd"/>
    </g>
    <g filter="url(#filter3_d_6132_115456)">
      <rect width="87.54" height="22.41" x="91.61" y="66.93" fill="#222326" rx="2.8" shape-rendering="crispEdges"/>
      <g clip-path="url(#clip8_6132_115456)">
        <g stroke="#F0F1F7" stroke-linecap="round" stroke-linejoin="round" stroke-width=".7" clip-path="url(#clip9_6132_115456)">
          <path d="M109.47 74.99h-7.7m2.8 2.1v2.8m2.1-2.8v2.8m2.1-4.9v6.65a.35.35 0 0 1-.35.35h-5.6a.35.35 0 0 1-.35-.35V75m4.9-.01v-.7a.7.7 0 0 0-.7-.7h-2.1a.7.7 0 0 0-.7.7v.7"/>
        </g>
      </g>
      <path fill="#fff" d="M117.64 81.14v-6.42h2.2c1.9 0 3.03 1.2 3.03 3.2v.01c0 2.02-1.12 3.21-3.03 3.21h-2.2Zm.8-.72h1.35c1.43 0 2.26-.92 2.26-2.48 0-1.57-.84-2.5-2.26-2.5h-1.35v4.98Zm7.67.8c-1.37 0-2.2-.96-2.2-2.46 0-1.48.85-2.5 2.16-2.5 1.3 0 2.09.97 2.09 2.4v.3h-3.45c.02 1 .57 1.58 1.42 1.58.65 0 1.05-.31 1.18-.6l.02-.04h.77v.03c-.17.65-.86 1.3-1.99 1.3Zm-.05-4.27c-.71 0-1.25.49-1.34 1.4h2.65c-.08-.95-.6-1.4-1.31-1.4Zm3.34 4.19v-6.7h.78v6.7h-.78Zm4.22.08c-1.37 0-2.2-.96-2.2-2.46 0-1.48.85-2.5 2.15-2.5 1.3 0 2.1.97 2.1 2.4v.3h-3.46c.03 1 .57 1.58 1.43 1.58.65 0 1.05-.31 1.17-.6l.02-.04h.77v.03c-.17.65-.85 1.3-1.98 1.3Zm-.06-4.27c-.7 0-1.25.49-1.33 1.4h2.65c-.08-.95-.6-1.4-1.32-1.4Zm5 4.23c-.98 0-1.4-.37-1.4-1.29V77h-.75v-.64h.75V75.1h.8v1.24h1.05v.64h-1.04v2.7c0 .57.2.8.69.8.14 0 .21 0 .35-.02v.66c-.15.03-.3.05-.44.05Zm3.5.04c-1.37 0-2.2-.96-2.2-2.46 0-1.48.84-2.5 2.15-2.5 1.3 0 2.1.97 2.1 2.4v.3h-3.46c.02 1 .57 1.58 1.42 1.58.65 0 1.05-.31 1.18-.6l.02-.04h.77v.03c-.17.65-.85 1.3-1.98 1.3Zm-.06-4.27c-.7 0-1.25.49-1.34 1.4h2.65c-.08-.95-.6-1.4-1.3-1.4Z"/>
    </g>
    <g filter="url(#filter4_d_6132_115456)">
      <rect width="90.62" height="42.02" x="91.61" y="66.93" fill="#222326" rx="2.8" shape-rendering="crispEdges"/>
      <rect width="85.01" height="16.81" x="94.41" y="69.74" fill="#37383F" rx="1.4"/>
      <g clip-path="url(#clip10_6132_115456)">
        <path stroke="#F0F1F7" stroke-linecap="round" stroke-linejoin="round" stroke-width=".7" d="M104.57 78.1a2.8 2.8 0 0 1 3.5-3.96l-1.75 1.9.25 1.15 1.15.25 1.9-1.75a2.8 2.8 0 0 1-3.96 3.5l-2.45 2.84a1.05 1.05 0 1 1-1.49-1.48l2.85-2.46Z"/>
      </g>
      <path fill="#fff" d="M117.64 81.14v-6.42h.8v2.78h3.52v-2.78h.8v6.42h-.8v-2.92h-3.52v2.92h-.8Zm8.63.08c-1.37 0-2.21-.94-2.21-2.47v-.01c0-1.54.84-2.48 2.2-2.48 1.37 0 2.22.94 2.22 2.48s-.85 2.48-2.21 2.48Zm0-.68c.9 0 1.42-.66 1.42-1.8 0-1.13-.51-1.8-1.42-1.8-.9 0-1.42.67-1.42 1.8 0 1.14.51 1.8 1.42 1.8Zm4.16.6-1.35-4.8h.78l.94 3.84h.07l1.07-3.83h.74l1.07 3.83h.07l.94-3.83h.77l-1.34 4.79h-.78l-1.07-3.7h-.07l-1.07 3.7h-.77Zm10.38.04c-.98 0-1.4-.37-1.4-1.29V77h-.75v-.64h.75V75.1h.8v1.24h1.05v.64h-1.04v2.7c0 .57.2.8.69.8.14 0 .21 0 .35-.02v.66c-.15.03-.3.05-.44.05Zm3.5.04c-1.36 0-2.2-.94-2.2-2.47v-.01c0-1.54.84-2.48 2.2-2.48 1.37 0 2.22.94 2.22 2.48s-.85 2.48-2.21 2.48Zm0-.68c.91 0 1.43-.66 1.43-1.8 0-1.13-.52-1.8-1.42-1.8-.9 0-1.42.67-1.42 1.8 0 1.14.51 1.8 1.42 1.8Zm7.62.68c-1.06 0-1.8-.51-1.89-1.3h.8c.13.4.5.66 1.12.66.64 0 1.1-.3 1.1-.74v-.01c0-.33-.24-.55-.83-.7l-.74-.17c-.9-.22-1.3-.6-1.3-1.3 0-.8.76-1.4 1.78-1.4 1 0 1.7.5 1.8 1.29h-.76c-.1-.38-.47-.64-1.05-.64-.57 0-.99.3-.99.71v.01c0 .33.24.53.8.67l.75.18c.9.21 1.33.6 1.33 1.29 0 .86-.83 1.45-1.92 1.45Zm5.08 0c-1.37 0-2.2-.96-2.2-2.46 0-1.48.85-2.5 2.15-2.5 1.3 0 2.1.97 2.1 2.4v.3h-3.45c.02 1 .56 1.58 1.42 1.58.65 0 1.05-.31 1.18-.6l.01-.04h.78l-.01.03c-.17.65-.85 1.3-1.98 1.3Zm-.05-4.27c-.71 0-1.26.49-1.34 1.4h2.65c-.08-.95-.6-1.4-1.31-1.4Zm5 4.23c-.99 0-1.4-.37-1.4-1.29V77h-.76v-.64h.76V75.1h.8v1.24h1.05v.64h-1.05v2.7c0 .57.2.8.7.8.13 0 .2 0 .35-.02v.66c-.15.03-.3.05-.45.05Zm3.2.04c-1.08 0-1.64-.64-1.64-1.77v-3.1h.77v2.91c0 .87.31 1.28 1.08 1.28.84 0 1.3-.52 1.3-1.36v-2.83h.77v4.79h-.78v-.72h-.07c-.24.52-.72.8-1.42.8Zm3.72 1.52v-6.4h.77v.77h.07c.3-.53.83-.85 1.5-.85 1.21 0 2 .99 2 2.48 0 1.51-.78 2.48-2 2.48-.66 0-1.23-.32-1.5-.84h-.07v2.36h-.77Zm2.16-2.2c.88 0 1.4-.68 1.4-1.8s-.52-1.8-1.4-1.8c-.87 0-1.4.7-1.4 1.8 0 1.11.53 1.8 1.4 1.8Z"/>
      <g opacity=".1">
        <g clip-path="url(#clip11_6132_115456)">
          <g stroke="#828599" stroke-linecap="round" stroke-linejoin="round" stroke-width=".7" clip-path="url(#clip12_6132_115456)">
            <path d="M109.47 94.6h-7.7m2.8 2.1v2.8m2.1-2.8v2.8m2.1-4.9v6.65a.35.35 0 0 1-.35.35h-5.6a.35.35 0 0 1-.25-.1.35.35 0 0 1-.1-.25V94.6m4.9 0v-.7a.7.7 0 0 0-.7-.7h-2.1a.7.7 0 0 0-.7.7v.7"/>
          </g>
        </g>
        <path fill="#fff" d="M117.64 100.75v-6.42h2.2c1.9 0 3.03 1.2 3.03 3.2v.01c0 2.02-1.12 3.2-3.03 3.2h-2.2Zm.8-.72h1.35c1.43 0 2.26-.92 2.26-2.48 0-1.57-.84-2.5-2.26-2.5h-1.35v4.98Zm7.67.8c-1.37 0-2.2-.96-2.2-2.46 0-1.48.85-2.5 2.16-2.5 1.3 0 2.09.97 2.09 2.4v.3h-3.45c.02 1 .57 1.57 1.42 1.57.65 0 1.05-.3 1.18-.6l.02-.03h.77v.03c-.17.65-.86 1.3-1.99 1.3Zm-.05-4.27c-.71 0-1.25.49-1.34 1.4h2.65c-.08-.95-.6-1.4-1.31-1.4Zm3.34 4.19v-6.7h.78v6.7h-.78Zm4.22.08c-1.37 0-2.2-.96-2.2-2.46 0-1.48.85-2.5 2.15-2.5 1.3 0 2.1.97 2.1 2.4v.3h-3.46c.03 1 .57 1.57 1.43 1.57.65 0 1.05-.3 1.17-.6l.02-.03h.77v.03c-.17.65-.85 1.3-1.98 1.3Zm-.06-4.27c-.7 0-1.25.49-1.33 1.4h2.65c-.08-.95-.6-1.4-1.32-1.4Zm5 4.22c-.98 0-1.4-.36-1.4-1.28v-2.9h-.75v-.64h.75v-1.24h.8v1.24h1.05v.64h-1.04v2.7c0 .57.2.8.69.8.14 0 .21 0 .35-.02v.66c-.15.03-.3.05-.44.05Zm3.5.05c-1.37 0-2.2-.96-2.2-2.46 0-1.48.84-2.5 2.15-2.5 1.3 0 2.1.97 2.1 2.4v.3h-3.46c.02 1 .57 1.57 1.42 1.57.65 0 1.05-.3 1.18-.6l.02-.03h.77v.03c-.17.65-.85 1.3-1.98 1.3Zm-.06-4.27c-.7 0-1.25.49-1.34 1.4h2.65c-.08-.95-.6-1.4-1.3-1.4Z"/>
      </g>
    </g>
    <g filter="url(#filter5_dd_6132_115456)">
      <path fill="#000" d="m172.43 91.05-6.53-6.26v9l1.98-2.16 1.94 3.85c.02.04.07.05.1.03l1.05-.51a.08.08 0 0 0 .04-.1l-1.94-3.85h3.36Z"/>
    </g>
    <g filter="url(#filter6_dd_6132_115456)">
      <path fill="#fff" fill-rule="evenodd" d="m174.38 91.83-9.27-8.9v12.88l2.58-2.8 1.42 2.82c.22.42.74.6 1.17.38l1.05-.51c.43-.22.6-.73.39-1.16l-1.37-2.7h4.03Zm-3.37 3.06c.02.04 0 .09-.04.1l-1.04.52a.08.08 0 0 1-.1-.03l-1.95-3.84-1.98 2.15v-9l6.53 6.26h-3.36l1.94 3.84Z" clip-rule="evenodd"/>
    </g>
  </g>
  <defs>
    <clipPath id="clip0_6132_115456">
      <use xlink:href="#reuse-0"/>
    </clipPath>
    <clipPath id="clip1_6132_115456">
      <path fill="#fff" d="M0 87.64h783v147.45H0z"/>
    </clipPath>
    <clipPath id="clip2_6132_115456">
      <path fill="#fff" d="M0 34.41h783v30.82H0V34.4Z"/>
    </clipPath>
    <clipPath id="clip3_6132_115456">
      <path fill="#fff" d="M8.4 42.82h14.01v14h-14z"/>
    </clipPath>
    <clipPath id="clip4_6132_115456">
      <path fill="#fff" d="M42.02 45.62h8.4v8.4h-8.4z"/>
    </clipPath>
    <clipPath id="clip5_6132_115456">
      <path fill="#fff" d="M93.03 45.62h8.4v8.4h-8.4z"/>
    </clipPath>
    <clipPath id="clip6_6132_115456">
      <path fill="#fff" d="M115.44 45.62h8.4v8.4h-8.4z"/>
    </clipPath>
    <clipPath id="clip7_6132_115456">
      <path fill="#fff" d="M189.45 45.62h8.4v8.4h-8.4z"/>
    </clipPath>
    <clipPath id="clip8_6132_115456">
      <use xlink:href="#reuse-1"/>
    </clipPath>
    <clipPath id="clip9_6132_115456">
      <use xlink:href="#reuse-1"/>
    </clipPath>
    <clipPath id="clip10_6132_115456">
      <use xlink:href="#reuse-1"/>
    </clipPath>
    <clipPath id="clip11_6132_115456">
      <use xlink:href="#reuse-2"/>
    </clipPath>
    <clipPath id="clip12_6132_115456">
      <use xlink:href="#reuse-2"/>
    </clipPath>
    <filter id="filter0_d_6132_115456" width="816.62" height="64.43" x="-16.81" y="23.91" color-interpolation-filters="sRGB" filterUnits="userSpaceOnUse">
      <feFlood flood-opacity="0" result="BackgroundImageFix"/>
      <feColorMatrix in="SourceAlpha" result="hardAlpha" values="0 0 0 0 0 0 0 0 0 0 0 0 0 0 0 0 0 0 127 0"/>
      <feOffset dy="6.3"/>
      <feGaussianBlur stdDeviation="8.4"/>
      <feComposite in2="hardAlpha" operator="out"/>
      <feColorMatrix values="0 0 0 0 0 0 0 0 0 0 0 0 0 0 0 0 0 0 0.3 0"/>
      <feBlend in2="BackgroundImageFix" result="effect1_dropShadow_6132_115456"/>
      <feBlend in="SourceGraphic" in2="effect1_dropShadow_6132_115456" result="shape"/>
    </filter>
    <filter id="filter1_dd_6132_115456" width="10.73" height="16.34" x="95.8" y="52.38" color-interpolation-filters="sRGB" filterUnits="userSpaceOnUse">
      <feFlood flood-opacity="0" result="BackgroundImageFix"/>
      <feColorMatrix in="SourceAlpha" result="hardAlpha" values="0 0 0 0 0 0 0 0 0 0 0 0 0 0 0 0 0 0 127 0"/>
      <feOffset dx=".7"/>
      <feGaussianBlur stdDeviation=".7"/>
      <feColorMatrix values="0 0 0 0 0 0 0 0 0 0 0 0 0 0 0 0 0 0 0.3 0"/>
      <feBlend in2="BackgroundImageFix" result="effect1_dropShadow_6132_115456"/>
      <feColorMatrix in="SourceAlpha" result="hardAlpha" values="0 0 0 0 0 0 0 0 0 0 0 0 0 0 0 0 0 0 127 0"/>
      <feOffset dy="2.1"/>
      <feGaussianBlur stdDeviation="1.05"/>
      <feColorMatrix values="0 0 0 0 0 0 0 0 0 0 0 0 0 0 0 0 0 0 0.25 0"/>
      <feBlend in2="effect1_dropShadow_6132_115456" result="effect2_dropShadow_6132_115456"/>
      <feBlend in="SourceGraphic" in2="effect2_dropShadow_6132_115456" result="shape"/>
    </filter>
    <filter id="filter2_dd_6132_115456" width="13.48" height="18.97" x="95.01" y="50.54" color-interpolation-filters="sRGB" filterUnits="userSpaceOnUse">
      <feFlood flood-opacity="0" result="BackgroundImageFix"/>
      <feColorMatrix in="SourceAlpha" result="hardAlpha" values="0 0 0 0 0 0 0 0 0 0 0 0 0 0 0 0 0 0 127 0"/>
      <feOffset dx=".7"/>
      <feGaussianBlur stdDeviation=".7"/>
      <feColorMatrix values="0 0 0 0 0 0 0 0 0 0 0 0 0 0 0 0 0 0 0.3 0"/>
      <feBlend in2="BackgroundImageFix" result="effect1_dropShadow_6132_115456"/>
      <feColorMatrix in="SourceAlpha" result="hardAlpha" values="0 0 0 0 0 0 0 0 0 0 0 0 0 0 0 0 0 0 127 0"/>
      <feOffset dy="2.1"/>
      <feGaussianBlur stdDeviation="1.05"/>
      <feColorMatrix values="0 0 0 0 0 0 0 0 0 0 0 0 0 0 0 0 0 0 0.25 0"/>
      <feBlend in2="effect1_dropShadow_6132_115456" result="effect2_dropShadow_6132_115456"/>
      <feBlend in="SourceGraphic" in2="effect2_dropShadow_6132_115456" result="shape"/>
    </filter>
    <filter id="filter3_d_6132_115456" width="93.15" height="28.01" x="88.81" y="65.53" color-interpolation-filters="sRGB" filterUnits="userSpaceOnUse">
      <feFlood flood-opacity="0" result="BackgroundImageFix"/>
      <feColorMatrix in="SourceAlpha" result="hardAlpha" values="0 0 0 0 0 0 0 0 0 0 0 0 0 0 0 0 0 0 127 0"/>
      <feOffset dy="1.4"/>
      <feGaussianBlur stdDeviation="1.4"/>
      <feComposite in2="hardAlpha" operator="out"/>
      <feColorMatrix values="0 0 0 0 0 0 0 0 0 0 0 0 0 0 0 0 0 0 0.29 0"/>
      <feBlend in2="BackgroundImageFix" result="effect1_dropShadow_6132_115456"/>
      <feBlend in="SourceGraphic" in2="effect1_dropShadow_6132_115456" result="shape"/>
    </filter>
    <filter id="filter4_d_6132_115456" width="96.22" height="47.62" x="88.81" y="65.53" color-interpolation-filters="sRGB" filterUnits="userSpaceOnUse">
      <feFlood flood-opacity="0" result="BackgroundImageFix"/>
      <feColorMatrix in="SourceAlpha" result="hardAlpha" values="0 0 0 0 0 0 0 0 0 0 0 0 0 0 0 0 0 0 127 0"/>
      <feOffset dy="1.4"/>
      <feGaussianBlur stdDeviation="1.4"/>
      <feComposite in2="hardAlpha" operator="out"/>
      <feColorMatrix values="0 0 0 0 0 0 0 0 0 0 0 0 0 0 0 0 0 0 0.29 0"/>
      <feBlend in2="BackgroundImageFix" result="effect1_dropShadow_6132_115456"/>
      <feBlend in="SourceGraphic" in2="effect1_dropShadow_6132_115456" result="shape"/>
    </filter>
    <filter id="filter5_dd_6132_115456" width="10.73" height="16.34" x="163.8" y="83.38" color-interpolation-filters="sRGB" filterUnits="userSpaceOnUse">
      <feFlood flood-opacity="0" result="BackgroundImageFix"/>
      <feColorMatrix in="SourceAlpha" result="hardAlpha" values="0 0 0 0 0 0 0 0 0 0 0 0 0 0 0 0 0 0 127 0"/>
      <feOffset dx=".7"/>
      <feGaussianBlur stdDeviation=".7"/>
      <feColorMatrix values="0 0 0 0 0 0 0 0 0 0 0 0 0 0 0 0 0 0 0.3 0"/>
      <feBlend in2="BackgroundImageFix" result="effect1_dropShadow_6132_115456"/>
      <feColorMatrix in="SourceAlpha" result="hardAlpha" values="0 0 0 0 0 0 0 0 0 0 0 0 0 0 0 0 0 0 127 0"/>
      <feOffset dy="2.1"/>
      <feGaussianBlur stdDeviation="1.05"/>
      <feColorMatrix values="0 0 0 0 0 0 0 0 0 0 0 0 0 0 0 0 0 0 0.25 0"/>
      <feBlend in2="effect1_dropShadow_6132_115456" result="effect2_dropShadow_6132_115456"/>
      <feBlend in="SourceGraphic" in2="effect2_dropShadow_6132_115456" result="shape"/>
    </filter>
    <filter id="filter6_dd_6132_115456" width="13.48" height="18.97" x="163.01" y="81.54" color-interpolation-filters="sRGB" filterUnits="userSpaceOnUse">
      <feFlood flood-opacity="0" result="BackgroundImageFix"/>
      <feColorMatrix in="SourceAlpha" result="hardAlpha" values="0 0 0 0 0 0 0 0 0 0 0 0 0 0 0 0 0 0 127 0"/>
      <feOffset dx=".7"/>
      <feGaussianBlur stdDeviation=".7"/>
      <feColorMatrix values="0 0 0 0 0 0 0 0 0 0 0 0 0 0 0 0 0 0 0.3 0"/>
      <feBlend in2="BackgroundImageFix" result="effect1_dropShadow_6132_115456"/>
      <feColorMatrix in="SourceAlpha" result="hardAlpha" values="0 0 0 0 0 0 0 0 0 0 0 0 0 0 0 0 0 0 127 0"/>
      <feOffset dy="2.1"/>
      <feGaussianBlur stdDeviation="1.05"/>
      <feColorMatrix values="0 0 0 0 0 0 0 0 0 0 0 0 0 0 0 0 0 0 0.25 0"/>
      <feBlend in2="effect1_dropShadow_6132_115456" result="effect2_dropShadow_6132_115456"/>
      <feBlend in="SourceGraphic" in2="effect2_dropShadow_6132_115456" result="shape"/>
    </filter>
    <linearGradient id="paint0_linear_6132_115456" x1="293" x2="264" y1="215.89" y2="215.89" gradientUnits="userSpaceOnUse">
      <stop stop-color="#2C2E33"/>
      <stop offset="1" stop-color="#2C2E33" stop-opacity="0"/>
    </linearGradient>
    <linearGradient id="paint1_linear_6132_115456" x1="218" x2="131" y1="56" y2="56" gradientUnits="userSpaceOnUse">
      <stop stop-color="#2C2E33"/>
      <stop offset="1" stop-color="#2C2E33" stop-opacity="0"/>
    </linearGradient>
    <linearGradient id="paint2_linear_6132_115456" x1="29" x2="0" y1="61.5" y2="61.5" gradientUnits="userSpaceOnUse">
      <stop stop-color="#2C2E33"/>
      <stop offset="1" stop-color="#2C2E33" stop-opacity="0"/>
    </linearGradient>
  </defs>
</svg>