<?xml version="1.0" standalone="no"?>
<!DOCTYPE svg PUBLIC "-//W3C//DTD SVG 20010904//EN"
        "http://www.w3.org/TR/2001/REC-SVG-20010904/DTD/svg10.dtd">
<svg version="1.0" xmlns="http://www.w3.org/2000/svg"
     width="144.000000pt" height="143.000000pt" viewBox="0 0 144.000000 143.000000"
     preserveAspectRatio="xMidYMid meet">
    <metadata>
        Created by potrace 1.16, written by Peter Selinger 2001-2019
    </metadata>
    <g transform="translate(0.000000,143.000000) scale(0.100000,-0.100000)"
       fill="#000000" stroke="none">
        <path d="M0 715 l0 -715 720 0 720 0 0 715 0 715 -720 0 -720 0 0 -715z m657
558 c-4 -54 -11 -155 -17 -226 -11 -129 -4 -243 19 -299 10 -27 13 -28 80 -28
69 0 69 0 81 33 20 55 23 224 6 409 -9 97 -13 184 -10 192 11 28 31 17 85 -46
29 -35 108 -119 174 -188 128 -132 216 -243 259 -324 20 -37 26 -64 26 -110 0
-84 -22 -117 -104 -158 -54 -26 -67 -38 -80 -71 -11 -29 -13 -45 -5 -59 5 -10
8 -40 6 -66 l-3 -47 -2 52 c-1 28 -6 54 -11 57 -5 3 -32 -10 -60 -28 -89 -60
-188 -58 -265 6 -54 44 -78 99 -80 181 l-1 69 -69 65 c-79 76 -112 91 -221
107 l-80 11 23 23 c12 12 32 22 45 22 21 0 22 4 22 83 1 112 45 242 123 359
47 72 17 47 -55 -45 -40 -51 -111 -135 -158 -187 -106 -116 -202 -242 -226
-295 -35 -77 -16 -175 41 -205 19 -10 20 -9 13 17 -12 44 -7 82 12 103 18 20
18 21 -8 48 -41 42 -32 92 16 92 21 0 127 -85 127 -101 0 -23 -33 -19 -81 11
-28 17 -53 29 -55 27 -2 -2 18 -24 44 -50 l48 -48 40 39 c141 133 367 36 367
-158 0 -120 -96 -216 -219 -221 -25 -1 -23 -3 11 -10 67 -13 74 -11 138 48 33
32 51 45 39 29 -36 -47 -26 -70 19 -46 14 8 19 21 19 51 0 29 -3 38 -12 33 -7
-4 -5 1 4 12 15 15 20 16 30 5 10 -11 10 -12 1 -7 -10 5 -13 -4 -13 -33 0 -30
6 -44 22 -55 12 -9 26 -16 30 -16 12 0 10 38 -2 45 -5 3 -15 16 -21 28 l-12
22 24 -21 c13 -12 50 -40 81 -61 l57 -40 -117 4 c-104 5 -129 2 -221 -22 -109
-28 -150 -28 -183 2 -27 24 -35 7 -11 -25 29 -39 108 -42 194 -7 101 41 171
49 254 30 39 -9 87 -19 108 -22 50 -7 56 -22 22 -49 -16 -13 -27 -26 -23 -29
3 -3 20 6 37 21 24 20 43 27 81 28 28 0 50 -2 50 -6 0 -35 -290 -138 -387
-138 -35 0 -108 14 -186 35 -144 40 -141 39 -131 24 5 -8 1 -8 -13 0 -27 14
-82 78 -94 108 -14 37 -11 102 7 131 14 25 14 30 0 64 -13 30 -29 44 -75 67
-159 81 -162 200 -10 398 78 103 409 453 428 453 12 0 13 -16 8 -97z m493
-964 c0 -5 -7 -9 -15 -9 -8 0 -15 -5 -15 -10 0 -23 -45 -30 -100 -16 -43 11
-48 14 -25 15 17 1 53 12 80 25 48 22 75 20 75 -5z m-15 -105 c-37 -49 -93
-82 -222 -134 -153 -62 -192 -63 -324 -11 -57 23 -111 46 -119 52 -19 14 -13
12 105 -37 133 -55 185 -53 340 10 129 52 189 89 220 135 11 17 21 28 24 26 2
-3 -9 -21 -24 -41z m-690 -82 c-3 -3 -11 0 -18 7 -9 10 -8 11 6 5 10 -3 15 -9
12 -12z"/>
        <path d="M894 1153 c3 -27 9 -127 13 -223 l6 -175 61 0 c38 0 74 -6 95 -17 32
-17 34 -17 61 2 52 37 55 46 26 85 -30 38 -47 46 -39 16 3 -10 0 -28 -6 -40
-34 -63 -109 23 -146 170 -27 105 -66 229 -72 229 -3 0 -3 -21 1 -47z"/>
        <path d="M1201 725 c-45 -29 -57 -32 -70 -22 -9 7 -7 1 4 -15 11 -15 22 -28
25 -28 10 0 105 88 100 93 -3 3 -30 -10 -59 -28z"/>
        <path d="M1186 664 c-17 -12 -18 -18 -8 -52 7 -22 12 -51 12 -65 0 -34 26 -27
85 25 52 46 65 87 14 44 -17 -14 -34 -26 -39 -26 -13 0 -28 23 -37 57 -7 29
-10 30 -27 17z"/>
        <path d="M700 250 c-24 -15 -3 -24 53 -21 58 3 68 8 47 21 -19 12 -81 12 -100
0z"/>
    </g>
</svg>
