<svg width="13" height="14" viewBox="0 0 13 14" fill="none" xmlns="http://www.w3.org/2000/svg">
    <path d="M11.8867 6.9C11.8169 5.67853 9.09479 3.02444 8.65332 2.60652C8.21184 2.1886 7.47372 1.1233 7.25735 1.13813C7.02963 1.15907 7.38909 3.30538 7.41701 4.84095C7.44493 6.37651 7.10466 6.90698 6.98688 6.87819C6.86909 6.8494 6.4695 6.79094 6.4695 6.79094C6.4695 6.79094 6.06903 6.84853 5.95211 6.87819C5.8352 6.90786 5.49232 6.37739 5.52285 4.84095C5.55339 3.3045 5.91023 1.15907 5.68077 1.13813C5.46614 1.12155 4.72715 2.18511 4.2848 2.60652C3.84245 3.02793 1.12292 5.67591 1.05313 6.9C0.998159 7.86846 1.37245 8.14765 2.19433 8.53678C3.01621 8.92591 3.27359 9.04282 3.21514 9.25571C3.15668 9.46859 2.62708 9.55671 2.59742 10.0785C2.56775 10.6002 2.69339 11.4299 4.13561 12.0572C5.57782 12.6846 6.05507 12.8617 6.4695 12.8617C6.88392 12.8617 7.36117 12.6872 8.80339 12.0572C10.2456 11.4273 10.3119 10.4152 10.2866 9.89436C10.2613 9.37349 9.78755 9.46859 9.72909 9.25571C9.67063 9.04282 9.92714 8.92591 10.749 8.53678C11.5709 8.14765 11.9417 7.86846 11.8867 6.9Z"
          fill="#4F5DA3"/>
    <path d="M10.2192 9.90968C10.1904 9.41062 9.72448 9.50223 9.66603 9.29894C9.6655 9.2943 9.6655 9.28962 9.66603 9.28498L8.67489 9.02324L6.8188 8.78516C6.8188 8.78516 6.36737 9.07444 6.50157 9.08343C6.73332 9.09895 6.74881 9.35795 6.90251 9.51131C7.05622 9.66467 7.72475 10.5379 8.61469 10.5082C9.50462 10.4785 9.77509 9.83029 10.0674 10.2072C10.2297 10.4166 9.80562 11.3859 9.01254 11.6302C8.21945 11.8745 7.5869 12.1293 7.17509 12.241C6.71232 12.356 6.2307 12.3735 5.7608 12.2924C5.29838 12.2052 3.61274 11.721 3.57959 11.7105C3.75414 11.8176 3.93743 11.9099 4.12751 11.9862C5.55751 12.5873 6.02778 12.7566 6.4422 12.7566C6.85663 12.7566 7.32428 12.5882 8.75254 11.9836C10.1808 11.3789 10.248 10.407 10.2192 9.90968Z"
          fill="#353F6E"/>
    <path d="M3.42285 9.68505C3.42285 9.68505 3.75527 10.4912 5.36238 10.3534C5.56308 10.3362 5.59424 10.1262 5.64846 9.98035C5.73619 9.74429 5.89149 9.66922 6.04171 9.51219C6.18757 9.35973 6.29092 9.11458 6.50043 9.07993C6.78743 9.03247 6.80883 8.65402 6.8011 8.38941C6.77755 7.58236 5.73318 6.89136 5.73318 6.89136L3.42285 9.68505Z"
          fill="#353F6E"/>
    <path d="M6.41638 9.31187C6.41638 9.27959 6.38061 9.26737 6.36577 9.29442C6.31168 9.38778 6.26195 9.60066 6.16161 9.68965C6.03074 9.80395 5.87108 9.94616 5.92779 10.0954C5.9845 10.2446 6.14591 10.1407 6.27678 10.0378C6.33087 9.99328 6.36403 9.96798 6.38671 9.95053C6.39763 9.94213 6.4064 9.93127 6.41231 9.91884C6.41823 9.9064 6.42112 9.89275 6.42074 9.87898L6.41638 9.31187Z"
          fill="#353F6E"/>
    <path d="M6.52637 9.29136C6.52637 9.25908 6.56127 9.24686 6.57697 9.27391C6.63107 9.36727 6.6808 9.58102 6.78113 9.66915C6.91113 9.78344 7.0708 9.92566 7.01496 10.0748C6.95912 10.224 6.79684 10.1211 6.66597 10.0181C6.61187 9.97364 6.57872 9.94747 6.55603 9.93089C6.54512 9.9225 6.53634 9.91164 6.53043 9.8992C6.52452 9.88677 6.52163 9.87311 6.52201 9.85935L6.52637 9.29136Z"
          fill="#353F6E"/>
    <path d="M8.23633 10.7563C8.23082 10.9319 8.21303 11.1068 8.18311 11.2798C8.33841 11.2449 8.61324 11.0792 8.69002 10.8741C8.54743 10.807 8.39357 10.767 8.23633 10.7563Z"
          fill="#DFE1E5"/>
    <path d="M9.73001 10.896C9.49008 11.094 9.09659 11.019 8.67693 10.9073C8.62172 10.8553 8.55316 10.8196 8.47887 10.8043C8.39816 10.7846 8.31476 10.7781 8.23196 10.7852C8.16049 10.7766 8.09023 10.7599 8.02256 10.7354C7.51129 10.4545 6.63968 10.4562 6.63968 10.4562C6.63968 10.4562 5.88324 10.4562 5.28297 10.738C4.70713 11.0103 3.9219 11.1926 3.55371 10.896C3.43686 10.7892 3.34713 10.6561 3.29196 10.5077C3.26928 10.451 3.34082 10.4082 3.37223 10.4588C3.49962 10.6639 3.68371 10.7503 3.93324 10.7947C4.61552 10.916 5.44874 10.3533 6.63793 10.3533C7.82713 10.3533 8.72578 10.7171 9.34263 10.7947C9.59478 10.827 9.77887 10.6639 9.90364 10.4588C9.93504 10.4082 10.0066 10.451 9.9839 10.5077C9.93163 10.6556 9.84455 10.7888 9.73001 10.896Z"
          fill="#353F6E"/>
    <path d="M6.10304 11.0442C6.01579 10.9822 6.19028 10.8435 6.59075 10.8435C6.96156 10.8435 7.10639 10.9639 7.08632 11.018C7.04968 11.1131 6.76699 10.9971 6.57941 10.9971C6.39183 10.9971 6.19028 11.1053 6.10304 11.0442Z"
          fill="#353F6E"/>
    <path d="M5.44075 1.41479C5.44075 1.41479 4.18351 3.06553 3.59545 3.65446C3.0074 4.24338 1.79727 5.78331 1.54948 6.20821C1.3017 6.63311 0.986733 7.62861 1.89848 8.19922C1.44304 7.09029 2.3164 6.76573 2.59646 6.81721C2.87653 6.86868 2.85123 7.87116 2.85123 7.87116L3.30317 8.46271L4.96089 8.34754L5.88223 7.00479L5.54545 6.6907C5.2014 6.42396 4.79059 6.25704 4.358 6.20821C3.64082 6.13143 3.37384 6.15499 3.37384 6.15499C3.37384 6.15499 3.47592 5.48667 4.22713 5.60271C4.00901 5.27815 3.93136 3.57157 5.44075 1.41479Z"
          fill="#353F6E"/>
    <path d="M7.81138 2.57959C7.81138 2.57959 7.99548 3.84643 8.00508 4.60288C8.01467 5.35932 8.18917 6.53193 7.86024 6.84167C7.53132 7.1514 8.06004 7.27791 8.06004 7.27791L10.0894 8.53515C10.0894 8.53515 10.5981 8.44791 10.8406 8.2865C11.0832 8.12509 11.4758 7.85549 11.5482 7.53005C11.2193 7.86509 10.9375 8.11723 10.7098 7.84066C10.4821 7.56408 10.64 6.24576 9.7989 5.601C9.93937 5.89677 9.76487 6.38623 9.43507 6.32865C9.10527 6.27106 8.58702 5.48932 8.45877 4.82361C8.33051 4.15791 7.81138 2.57959 7.81138 2.57959Z"
          fill="#353F6E"/>
    <path d="M2.709 7.37282L1.83652 6.60242C1.76079 6.53448 1.71512 6.43925 1.70956 6.33765C1.704 6.23606 1.73899 6.13641 1.80686 6.06061C1.8406 6.02282 1.88147 5.99207 1.92713 5.97012C1.97278 5.94817 2.02233 5.93545 2.07291 5.9327C2.12349 5.92994 2.17412 5.9372 2.22189 5.95406C2.26967 5.97092 2.31364 5.99705 2.35129 6.03094L3.21068 6.79C2.99724 6.93915 2.82473 7.13956 2.709 7.37282Z"
          fill="#DFE1E5"/>
    <path d="M6.324 8.34888V8.35586C6.324 8.84976 6.12822 9.32352 5.77955 9.67333C5.43088 10.0231 4.95777 10.2205 4.46387 10.2221C4.9584 10.2186 5.43151 10.0198 5.77998 9.66884C6.12845 9.31792 6.32401 8.84343 6.324 8.34888Z"
          fill="#A5AFD4"/>
    <path d="M2.59131 8.3281C2.59131 8.28448 2.59131 8.24085 2.59742 8.19897C2.5948 8.24173 2.59131 8.28448 2.59131 8.3281Z"
          fill="#A5AFD4"/>
    <path d="M4.45745 10.2225C3.96241 10.2225 3.48763 10.0259 3.13751 9.67596C2.78738 9.326 2.59057 8.85131 2.59033 8.35628V8.34668C2.58964 8.84289 2.78585 9.31909 3.1359 9.67078C3.48595 10.0225 3.96124 10.2209 4.45745 10.2225Z"
          fill="#A5AFD4"/>
    <path d="M2.59121 8.32836C2.59121 8.28474 2.59121 8.24111 2.59731 8.19923C2.61879 7.92217 2.70135 7.6533 2.83908 7.41193C2.97681 7.17057 3.16628 6.9627 3.39389 6.80326C3.70499 6.58329 4.07643 6.46476 4.45745 6.46387C4.9541 6.46572 5.4297 6.66473 5.77966 7.01714C6.12963 7.36956 6.32531 7.84654 6.32369 8.34319V8.3493C6.3237 8.84385 6.12814 9.31834 5.77967 9.66926C5.4312 10.0202 4.95809 10.2191 4.46355 10.2225H4.45745C3.96124 10.2209 3.48595 10.0225 3.1359 9.67079C2.78585 9.3191 2.58964 8.84289 2.59033 8.34668C2.59033 8.33796 2.59121 8.3336 2.59121 8.32836Z"
          fill="#DFE1E5"/>
    <path d="M4.46455 9.89956C5.30684 9.89956 5.98965 9.21675 5.98965 8.37446C5.98965 7.53218 5.30684 6.84937 4.46455 6.84937C3.62226 6.84937 2.93945 7.53218 2.93945 8.37446C2.93945 9.21675 3.62226 9.89956 4.46455 9.89956Z"
          fill="#353F6E"/>
    <path d="M3.08496 7.35385L5.98945 7.7264L5.69456 7.35385C5.69456 7.35385 5.27925 6.9656 5.25221 6.956C5.22516 6.9464 4.82731 6.74311 4.6467 6.74311C4.4661 6.74311 4.0412 6.58956 3.86147 6.68029C3.68174 6.77103 3.08583 7.30325 3.08583 7.30325L3.08496 7.35385Z"
          fill="#DFE1E5"/>
    <path d="M4.84757 8.6328L6.131 8.1538L5.69824 7.39038L3.70898 8.71394L5.49845 8.0526L4.84757 8.6328Z"
          fill="#DFE1E5"/>
    <path d="M2.79704 7.28059C2.79704 7.28059 1.99611 6.55818 1.97168 6.532C1.94668 6.49338 1.93231 6.44884 1.93001 6.40289C1.92772 6.35694 1.93757 6.31119 1.95859 6.27026C2.01006 6.19784 1.96906 6.32261 2.00657 6.40811C2.04409 6.49362 2.98986 7.01885 2.98986 7.01885L2.79704 7.28059Z"
          fill="#353F6E"/>
    <path d="M10.2333 7.35368L11.0849 6.60247C11.1589 6.53604 11.2035 6.44294 11.2089 6.34363C11.2143 6.24433 11.18 6.14694 11.1137 6.07287C11.0473 5.99912 10.9543 5.95468 10.8552 5.94929C10.7561 5.94389 10.659 5.97798 10.5849 6.04408L9.74561 6.78482C9.95321 6.93066 10.1209 7.12625 10.2333 7.35368Z"
          fill="#DFE1E5"/>
    <path d="M6.65869 8.34888V8.35586C6.65869 8.84976 6.85447 9.32352 7.20314 9.67333C7.55181 10.0231 8.02493 10.2205 8.51882 10.2221C8.02429 10.2186 7.55118 10.0198 7.20271 9.66884C6.85424 9.31792 6.65868 8.84343 6.65869 8.34888Z"
          fill="#A5AFD4"/>
    <path d="M10.3914 8.3281C10.3914 8.28448 10.3914 8.24085 10.3853 8.19897C10.3887 8.24173 10.3914 8.28448 10.3914 8.3281Z"
          fill="#A5AFD4"/>
    <path d="M8.52588 10.2225C8.77096 10.2225 9.01364 10.1742 9.24006 10.0805C9.46648 9.98667 9.67221 9.8492 9.84551 9.67591C10.0188 9.50261 10.1563 9.29688 10.2501 9.07046C10.3438 8.84403 10.3921 8.60136 10.3921 8.35628V8.34668C10.393 8.84281 10.197 9.31902 9.84712 9.67073C9.4972 10.0224 9.022 10.2209 8.52588 10.2225Z"
          fill="#A5AFD4"/>
    <path d="M10.3912 8.32853C10.3912 8.28491 10.3912 8.24129 10.3851 8.19941C10.3636 7.92234 10.281 7.65347 10.1433 7.41211C10.0056 7.17074 9.81611 6.96287 9.5885 6.80344C9.27731 6.58472 8.90618 6.46741 8.52581 6.46753C8.27982 6.46833 8.03639 6.51758 7.80943 6.61245C7.58246 6.70733 7.37641 6.84599 7.20303 7.0205C7.02966 7.19501 6.89235 7.40196 6.79895 7.62954C6.70556 7.85712 6.6579 8.10086 6.6587 8.34686V8.35296C6.65869 8.84751 6.85425 9.322 7.20272 9.67292C7.55119 10.0238 8.0243 10.2227 8.51883 10.2262H8.52581C9.02194 10.2246 9.49714 10.0261 9.84705 9.6744C10.197 9.32268 10.393 8.84647 10.3921 8.35035C10.3921 8.33813 10.3912 8.33377 10.3912 8.32853Z"
          fill="#DFE1E5"/>
    <path d="M8.51045 9.89956C9.35274 9.89956 10.0356 9.21675 10.0356 8.37446C10.0356 7.53218 9.35274 6.84937 8.51045 6.84937C7.66816 6.84937 6.98535 7.53218 6.98535 8.37446C6.98535 9.21675 7.66816 9.89956 8.51045 9.89956Z"
          fill="#353F6E"/>
    <path d="M9.7885 7.35385L6.92676 7.77875L7.10125 7.39398C7.10125 7.39398 7.59421 6.9656 7.62474 6.95774C7.65528 6.94989 8.04615 6.74311 8.22676 6.74311C8.40736 6.74311 8.83226 6.58956 9.01199 6.68029C9.19172 6.77103 9.78763 7.30325 9.78763 7.30325L9.7885 7.35385Z"
          fill="#DFE1E5"/>
    <path d="M8.88967 8.52332L10.1731 8.04432L9.74034 7.28003L7.75195 8.60446L9.54054 7.94224L8.88967 8.52332Z"
          fill="#DFE1E5"/>
    <path d="M10.2036 7.32038C10.2036 7.32038 11.0045 6.59797 11.0289 6.57179C11.0539 6.53316 11.0683 6.48863 11.0706 6.44267C11.0729 6.39672 11.063 6.35098 11.042 6.31005C10.9905 6.23763 11.0315 6.3624 10.9932 6.44877C10.9548 6.53515 10.0107 7.05951 10.0107 7.05951L10.2036 7.32038Z"
          fill="#353F6E"/>
</svg>
