<svg xmlns="http://www.w3.org/2000/svg" xmlns:xlink="http://www.w3.org/1999/xlink" fill="none" viewBox="0 0 167 79">
    <defs>
        <path id="reuse-0" fill="#fff" d="M140.259 7.582h6.498v6.498h-6.498z"/>
    </defs>
    <rect width="179.792" height="78.111" x=".271" y=".271" fill="#1A1B1E" rx="1.895"/>
    <rect width="179.792" height="78.111" x=".271" y=".271" stroke="#37383F" stroke-width=".542" rx="1.895"/>
    <mask id="path-2-inside-1_5587_9099" fill="#fff">
        <path d="M0 0h180.333v21.662H0V0Z"/>
    </mask>
    <path fill="#37383F" d="M180.333 21.12H0v1.083h180.333V21.12Z" mask="url(#path-2-inside-1_5587_9099)"/>
    <rect width="12.997" height="12.997" x="4.332" y="4.332" fill="#3D2327" rx="2.166"/>
    <path stroke="#DA2D5F" stroke-linecap="round" stroke-linejoin="round" stroke-width=".542"
          d="M15.499 8.442c0 .475-2.239.86-5 .86-2.762 0-5-.385-5-.86m10 0c0-.475-2.239-.86-5-.86-2.762 0-5 .385-5 .86m10 0V9.97m-10-1.53v2.868m10-1.338c0 .476-2.223.86-5 .86-2.778 0-5-.384-5-.86m10 0v2.484m-8.186 1.31a.94.94 0 0 0 .54.17c.325 0 .614-.102.614-.443 0-.545-1.154-.306-1.154-.818 0-.272.216-.443.54-.443.196 0 .385.06.542.17m3.341-.17v1.715h1.261m-2.992-.104c.425 0 .77-.36.77-.805 0-.445-.345-.806-.77-.806-.425 0-.769.361-.769.806 0 .445.344.805.77.805Zm.193-.537.406.776"/>
    <path fill="#fff"
          d="M22.32 13.83V8.49h.956v2.221h2.599V8.49h.95v5.342h-.95v-2.318h-2.6v2.318h-.954Zm6.205-4.723a.547.547 0 0 1-.551-.544.549.549 0 0 1 1.099 0 .546.546 0 0 1-.548.544Zm-.463 4.724V9.785h.922v4.046h-.922Zm3.795 1.421c-1.066 0-1.707-.455-1.8-1.136l.004-.011h.922l.004.01c.063.26.37.441.885.441.629 0 .995-.292.995-.81v-.774h-.063c-.233.433-.673.67-1.232.67-1.026 0-1.662-.792-1.662-1.94v-.007c0-1.17.636-1.977 1.68-1.977.56 0 .996.274 1.226.733h.048v-.666h.922v3.946c0 .933-.748 1.521-1.93 1.521Zm0-2.343c.64 0 1.025-.492 1.025-1.207v-.007c0-.715-.388-1.21-1.025-1.21-.64 0-1.003.495-1.003 1.21v.007c0 .715.362 1.207 1.003 1.207Zm3.095.922V8.219h.922v2.184h.062c.193-.433.582-.696 1.166-.696.904 0 1.396.544 1.396 1.506v2.618h-.922v-2.403c0-.63-.255-.948-.814-.948-.548 0-.889.386-.889.993v2.358h-.921Zm6.656 0V9.785h.922v.618h.063c.192-.433.58-.696 1.166-.696.903 0 1.395.544 1.395 1.506v2.618h-.922v-2.403c0-.63-.255-.948-.814-.948-.548 0-.888.386-.888.993v2.358h-.922Zm5.975.081c-.911 0-1.377-.548-1.377-1.51V9.785h.921v2.406c0 .625.234.944.789.944.596 0 .914-.385.914-.992V9.785h.922v4.046h-.922v-.615h-.063c-.189.433-.6.696-1.184.696Zm3.294-.081V9.785h.922v.629h.063c.174-.452.581-.707 1.11-.707.549 0 .948.281 1.122.73h.063c.197-.441.663-.73 1.226-.73.814 0 1.303.5 1.303 1.34v2.784h-.922v-2.558c0-.526-.24-.793-.733-.793-.481 0-.792.36-.792.822v2.529h-.922v-2.625c0-.448-.278-.726-.73-.726-.455 0-.788.386-.788.889v2.462h-.922Zm9.152.066c-.567 0-1.007-.259-1.23-.7h-.062v.634h-.922V8.219h.922v2.21h.063c.21-.437.673-.711 1.229-.711 1.025 0 1.662.8 1.662 2.088v.007c0 1.281-.648 2.084-1.662 2.084Zm-.29-.777c.63 0 1.012-.492 1.012-1.307v-.007c0-.815-.382-1.31-1.011-1.31-.626 0-1.014.5-1.014 1.31v.007c0 .811.388 1.307 1.014 1.307Zm4.606.792c-1.203 0-1.932-.807-1.932-2.095v-.004c0-1.273.736-2.106 1.888-2.106 1.151 0 1.862.807 1.862 2.028v.304h-2.828c.01.726.403 1.148 1.029 1.148.5 0 .784-.252.873-.437l.011-.026h.878l-.011.033c-.13.522-.67 1.155-1.77 1.155Zm-.033-3.483c-.515 0-.9.348-.97.992h1.921c-.063-.663-.437-.992-.951-.992Zm2.773 3.402V9.785h.921v.621h.063c.137-.433.507-.688 1.04-.688.141 0 .286.018.374.044v.826c-.148-.03-.3-.052-.459-.052-.614 0-1.018.367-1.018.944v2.35h-.921Zm6.922.081c-1.214 0-1.947-.792-1.947-2.103v-.007c0-1.3.744-2.095 1.947-2.095 1.207 0 1.947.792 1.947 2.095v.008c0 1.31-.736 2.102-1.947 2.102Zm0-.748c.64 0 1.003-.5 1.003-1.35v-.008c0-.852-.366-1.355-1.003-1.355-.64 0-1.007.503-1.007 1.355v.007c0 .852.367 1.351 1.007 1.351Zm3.17.667v-3.332h-.664v-.714h.663v-.4c0-.807.407-1.203 1.31-1.203.197 0 .363.01.511.037v.644a2.231 2.231 0 0 0-.314-.019c-.433 0-.6.208-.6.593v.348h.877v.714h-.862v3.332h-.922Zm7.455 1.344v-1.959h-.063c-.207.43-.66.681-1.237.681-1.018 0-1.658-.803-1.658-2.084v-.007c0-1.288.633-2.088 1.67-2.088.544 0 1.007.278 1.24.737h.048v-.67h.922v5.39h-.922Zm-1.003-2.055c.621 0 1.018-.5 1.018-1.307v-.007c0-.807-.4-1.31-1.022-1.31-.63 0-1.014.495-1.014 1.31v.007c0 .815.385 1.307 1.018 1.307Zm4.386.792c-.91 0-1.377-.548-1.377-1.51V9.785h.922v2.406c0 .625.233.944.789.944.596 0 .914-.385.914-.992V9.785h.922v4.046h-.922v-.615H89.2c-.189.433-.6.696-1.185.696Zm5.028 0c-1.204 0-1.933-.807-1.933-2.095v-.004c0-1.273.737-2.106 1.888-2.106 1.151 0 1.862.807 1.862 2.028v.304h-2.828c.011.726.404 1.148 1.03 1.148.499 0 .784-.252.873-.437l.01-.026h.878l-.01.033c-.13.522-.67 1.155-1.77 1.155Zm-.034-3.483c-.514 0-.9.348-.97.992h1.922c-.063-.663-.437-.992-.952-.992Zm2.773 3.402V9.785h.922v.621h.063c.137-.433.507-.688 1.04-.688.14 0 .285.018.374.044v.826c-.148-.03-.3-.052-.46-.052-.614 0-1.017.367-1.017.944v2.35h-.922Zm3.628-4.724a.547.547 0 0 1-.552-.544.549.549 0 0 1 1.1 0 .546.546 0 0 1-.548.544Zm-.463 4.724V9.785h.922v4.046h-.922Zm3.787.081c-1.203 0-1.932-.807-1.932-2.095v-.004c0-1.273.737-2.106 1.888-2.106 1.151 0 1.862.807 1.862 2.028v.304h-2.828c.011.726.403 1.148 1.029 1.148.5 0 .785-.252.873-.437l.012-.026h.877l-.011.033c-.13.522-.67 1.155-1.77 1.155Zm-.033-3.483c-.515 0-.9.348-.97.992h1.921c-.063-.663-.436-.992-.951-.992Zm4.302 3.483c-1.029 0-1.651-.474-1.729-1.159v-.007h.914l.004.008c.096.28.366.477.825.477.46 0 .778-.207.778-.51v-.008c0-.237-.178-.393-.622-.492l-.655-.149c-.77-.17-1.137-.533-1.137-1.129v-.003c0-.73.667-1.233 1.622-1.233.984 0 1.573.488 1.632 1.144v.007h-.866l-.004-.011c-.066-.255-.333-.463-.766-.463-.411 0-.707.2-.707.504v.004c0 .236.17.38.607.48l.655.145c.792.178 1.166.515 1.166 1.103v.008c0 .77-.722 1.284-1.717 1.284Z"/>
    <g clip-path="url(#clip0_5587_9099)">
        <path stroke="#828599" stroke-linecap="round" stroke-linejoin="round" stroke-width=".542"
              d="M114.874 10.628a.204.204 0 0 1 .203.203v1.015a.204.204 0 0 0 .203.203"/>
        <path fill="#828599" d="M114.976 9.917a.203.203 0 1 0 0-.406.203.203 0 0 0 0 .406Z"/>
        <path stroke="#828599" stroke-linecap="round" stroke-linejoin="round" stroke-width=".542"
              d="M115.077 13.268a2.437 2.437 0 1 0 0-4.874 2.437 2.437 0 0 0 0 4.874Z"/>
    </g>
    <g clip-path="url(#clip1_5587_9099)">
        <g clip-path="url(#clip2_5587_9099)">
            <path stroke="#DA2D5F" stroke-width=".542"
                  d="M143.039 8.935a.542.542 0 0 1 .938 0l1.876 3.25a.541.541 0 0 1-.469.812h-3.752a.542.542 0 0 1-.469-.812l1.876-3.25Z"/>
            <path stroke="#DA2D5F" stroke-linecap="round" stroke-width=".46" d="M143.509 10.018v1.083"/>
            <circle cx="143.509" cy="11.914" r=".271" fill="#DA2D5F"/>
        </g>
    </g>
    <g clip-path="url(#clip3_5587_9099)">
        <circle cx="153.21" cy="10.831" r="1.625" fill="#6EBD9C"/>
        <path fill="#ACAFBF"
              d="m157.239 13.33 1.688-4.578h.565l1.688 4.579h-.6l-.46-1.31h-1.821l-.46 1.31h-.6Zm1.945-3.839-.717 2.044h1.485l-.717-2.044h-.051Zm3.938 3.9c-.959 0-1.571-.695-1.571-1.78v-.006c0-1.063.609-1.755 1.568-1.755.831 0 1.329.48 1.431 1.088l.003.02h-.549l-.003-.01c-.086-.337-.391-.61-.882-.61-.616 0-1.003.496-1.003 1.267v.006c0 .787.393 1.291 1.003 1.291.46 0 .752-.203.879-.583l.006-.02.546-.003-.007.035c-.139.619-.599 1.06-1.421 1.06Zm3.516-.035c-.705 0-1-.26-1-.914v-2.075h-.539V9.91h.539v-.885h.571v.885h.749v.457h-.749v1.936c0 .403.14.564.495.564.099 0 .152-.003.254-.012v.47a1.836 1.836 0 0 1-.32.031Zm1.437-4.106a.382.382 0 0 1-.381-.38c0-.21.172-.381.381-.381.209 0 .381.171.381.38 0 .21-.172.381-.381.381Zm-.279 4.08V9.91h.552v3.42h-.552Zm2.56 0-1.266-3.42h.584l.936 2.818h.051l.936-2.818h.584l-1.266 3.42h-.559Zm3.824.061c-.977 0-1.568-.685-1.568-1.758v-.003c0-1.057.603-1.78 1.533-1.78.93 0 1.495.692 1.495 1.713v.216h-2.463c.016.708.406 1.12 1.016 1.12.463 0 .749-.219.841-.425l.012-.029h.552l-.006.026c-.117.463-.606.92-1.412.92Zm-.038-3.05c-.508 0-.895.347-.955.997h1.891c-.057-.676-.432-.996-.936-.996Z"/>
    </g>
    <path fill="#fff"
          d="M6.689 46.659v-4.602h-.06l-1.358.985v-.704l1.422-1.021h.662v5.342H6.69Zm2.21 0v-.46l1.807-1.954c.68-.737.88-1.014.88-1.48v-.008c0-.563-.38-.985-1.01-.985-.64 0-1.066.418-1.066 1.048l-.004.007-.637-.004-.007-.003c.004-.948.737-1.63 1.758-1.63.933 0 1.648.634 1.648 1.496v.008c0 .61-.263 1.055-1.23 2.05L9.825 46v.059h2.533v.6H8.899Zm73.934.089c-1.103 0-1.818-.615-1.888-1.459l-.004-.044h.64l.004.037c.052.525.537.888 1.248.888.7 0 1.177-.392 1.177-.959v-.007c0-.655-.47-1.022-1.218-1.022h-.67v-.563h.64c.637 0 1.081-.392 1.081-.925v-.008c0-.559-.366-.88-1.018-.88-.63 0-1.077.333-1.133.873l-.003.037h-.64l.003-.037c.085-.87.774-1.451 1.773-1.451 1.018 0 1.688.566 1.688 1.377v.008c0 .658-.466 1.11-1.132 1.25v.016c.777.066 1.306.551 1.306 1.31v.007c0 .893-.784 1.552-1.854 1.552Zm55.856-.963v-.46l1.807-1.954c.681-.737.881-1.014.881-1.48v-.008c0-.563-.382-.985-1.011-.985-.64 0-1.066.418-1.066 1.048l-.004.007-.636-.003-.008-.004c.004-.948.737-1.629 1.759-1.629.932 0 1.647.633 1.647 1.496v.007c0 .61-.263 1.055-1.229 2.05l-1.214 1.256v.06h2.532v.599h-3.458Zm6.364.126c-1.181 0-1.884-1.078-1.884-2.795v-.008c0-1.717.703-2.791 1.884-2.791s1.891 1.074 1.891 2.791v.008c0 1.717-.71 2.795-1.891 2.795Zm0-.581c.766 0 1.221-.852 1.221-2.214v-.008c0-1.362-.455-2.206-1.221-2.206-.767 0-1.214.844-1.214 2.206v.008c0 1.362.447 2.214 1.214 2.214Zm4.775.58c-1.181 0-1.884-1.077-1.884-2.794v-.008c0-1.717.703-2.791 1.884-2.791s1.892 1.074 1.892 2.791v.008c0 1.717-.711 2.795-1.892 2.795Zm0-.58c.767 0 1.222-.852 1.222-2.214v-.008c0-1.362-.455-2.206-1.222-2.206-.766 0-1.214.844-1.214 2.206v.008c0 1.362.448 2.214 1.214 2.214Zm2.991.455v-3.99h.645v.606h.059c.178-.43.555-.677 1.077-.677.541 0 .918.285 1.103.7h.06c.214-.423.67-.7 1.221-.7.815 0 1.27.466 1.27 1.303v2.758h-.644v-2.61c0-.589-.27-.881-.833-.881-.555 0-.922.418-.922.925v2.566h-.644v-2.71c0-.474-.326-.781-.829-.781-.522 0-.918.455-.918 1.018v2.473h-.645Zm7.967.07c-.888 0-1.499-.43-1.573-1.088h.659c.107.333.425.551.936.551.537 0 .918-.255.918-.618v-.007c0-.27-.203-.46-.696-.578l-.618-.148c-.748-.178-1.084-.503-1.084-1.077v-.004c0-.663.636-1.162 1.484-1.162.837 0 1.418.418 1.507 1.07h-.633c-.085-.315-.396-.533-.878-.533-.474 0-.822.244-.822.595v.008c0 .27.2.44.671.555l.614.148c.752.182 1.114.508 1.114 1.078v.007c0 .71-.692 1.203-1.599 1.203Z"/>
    <path fill="#ACAFBF"
          d="M5.364 32.994h-.451l.26-1.279h-.745l.088-.457h.752l.235-1.155h-.787l.092-.453h.787l.254-1.235h.45l-.253 1.235H7.09l.254-1.235h.453l-.253 1.235h.79l-.09.453h-.793l-.237 1.155h.825l-.09.457h-.828l-.263 1.279h-.454l.264-1.279H5.624l-.26 1.279Zm.355-1.736h1.044l.235-1.155H5.954l-.235 1.155Zm6.454 1.796c-.974 0-1.577-.672-1.577-1.767v-.006c0-1.098.603-1.768 1.577-1.768s1.577.67 1.577 1.767v.007c0 1.095-.603 1.767-1.577 1.767Zm0-.488c.647 0 1.012-.473 1.012-1.28v-.006c0-.809-.365-1.278-1.012-1.278s-1.012.47-1.012 1.279v.006c0 .806.365 1.279 1.012 1.279Zm2.662.428V30.03h-.568v-.457h.568v-.38c0-.683.343-1.01.993-1.01.134 0 .254.01.369.032v.441a1.5 1.5 0 0 0-.257-.015c-.394 0-.553.193-.553.568v.364h.778v.457h-.778v2.964h-.552Zm5.947.108c-1.314 0-2.1-.933-2.1-2.396V30.7c0-1.47.805-2.393 2.1-2.393 1.3 0 2.1.927 2.1 2.393v.006c0 .886-.292 1.577-.812 1.987l.596.818h-.64l-.407-.561a2.22 2.22 0 0 1-.837.152Zm0-.527a1.6 1.6 0 0 0 .504-.08l-.59-.811h.641l.4.549c.358-.324.561-.857.561-1.527V30.7c0-1.142-.58-1.866-1.516-1.866-.933 0-1.517.724-1.517 1.866v.006c0 1.133.565 1.87 1.517 1.87Zm4.166.48c-.777 0-1.177-.458-1.177-1.267v-2.215h.552v2.082c0 .616.222.91.768.91.603 0 .923-.367.923-.967v-2.025h.552v3.421h-.552v-.51h-.05c-.169.364-.515.57-1.016.57Zm4.046 0c-.978 0-1.568-.686-1.568-1.759v-.003c0-1.056.603-1.78 1.533-1.78.93 0 1.494.692 1.494 1.714v.215h-2.462c.016.708.406 1.12 1.015 1.12.464 0 .75-.218.841-.425l.013-.028h.552l-.006.025c-.118.463-.606.92-1.412.92Zm-.038-3.05c-.508 0-.895.346-.956.996h1.892c-.058-.676-.432-.996-.936-.996Zm2.354 2.989v-3.42h.552v.507h.05c.131-.358.452-.568.915-.568.105 0 .222.013.276.022v.537a1.99 1.99 0 0 0-.34-.032c-.526 0-.9.333-.9.834v2.12h-.553Zm2.767-4.08a.382.382 0 0 1-.38-.381.38.38 0 1 1 .38.38Zm-.28 4.08v-3.42h.553v3.42h-.552Zm2.99.06c-.977 0-1.568-.685-1.568-1.758v-.003c0-1.056.603-1.78 1.533-1.78.93 0 1.494.692 1.494 1.714v.215h-2.462c.016.708.406 1.12 1.016 1.12.463 0 .748-.218.84-.425l.013-.028h.552l-.006.025c-.118.463-.606.92-1.412.92Zm-.038-3.049c-.508 0-.895.346-.955.996h1.89c-.056-.676-.43-.996-.935-.996Zm3.528 3.05c-.761 0-1.285-.369-1.348-.934h.564c.092.286.365.473.803.473.46 0 .787-.219.787-.53v-.006c0-.232-.174-.393-.596-.495l-.53-.127c-.641-.152-.93-.431-.93-.923v-.004c0-.567.546-.996 1.272-.996.718 0 1.216.359 1.292.917h-.543c-.073-.27-.34-.457-.752-.457-.406 0-.704.21-.704.511v.006c0 .232.171.378.574.476l.527.127c.644.156.955.435.955.924v.006c0 .61-.593 1.031-1.37 1.031Zm41.916-.061v-4.065h-1.476v-.514h3.522v.514h-1.475v4.065h-.571Zm2.738 1.2c-.073 0-.168-.007-.244-.02v-.453c.067.012.152.016.228.016.314 0 .505-.143.629-.537l.063-.203-1.266-3.424h.59l.94 2.815h.05l.936-2.815h.58l-1.335 3.63c-.282.768-.565.99-1.17.99Zm3.237-.058v-4.563h.552v.546h.05c.21-.38.59-.606 1.067-.606.866 0 1.434.701 1.434 1.767v.007c0 1.072-.565 1.767-1.434 1.767-.47 0-.88-.235-1.066-.6h-.051v1.682h-.552Zm1.542-1.57c.625 0 .996-.483.996-1.28v-.006c0-.796-.371-1.278-.996-1.278-.622 0-1.003.488-1.003 1.279v.006c0 .79.38 1.279 1.003 1.279Zm2.716-3.653a.382.382 0 0 1-.38-.38.38.38 0 1 1 .38.38Zm-.28 4.081v-3.42h.553v3.42h-.552Zm2.993.06c-.958 0-1.57-.695-1.57-1.78v-.006c0-1.063.609-1.755 1.567-1.755.831 0 1.33.48 1.43 1.088l.004.02h-.549l-.003-.01c-.086-.336-.39-.61-.882-.61-.616 0-1.003.496-1.003 1.267v.006c0 .787.394 1.292 1.003 1.292.46 0 .752-.203.879-.584l.006-.02.546-.002-.006.034c-.14.62-.6 1.06-1.422 1.06Zm3.176 0c-.65 0-1.142-.393-1.142-1.015v-.006c0-.61.45-.962 1.247-1.01l.98-.06v-.31c0-.423-.257-.651-.767-.651-.41 0-.68.152-.768.419l-.003.01h-.553l.004-.02c.088-.536.609-.898 1.339-.898.834 0 1.3.428 1.3 1.14v2.341H99.4v-.505h-.05c-.216.365-.575.565-1.035.565Zm-.577-1.028c0 .346.295.55.692.55.561 0 .97-.369.97-.858v-.31l-.913.057c-.52.031-.75.215-.75.555v.006Zm3.255.968v-4.779h.552v4.779h-.552Zm37.684 0v-4.579h1.571c1.358 0 2.161.848 2.161 2.285v.006c0 1.44-.8 2.288-2.161 2.288h-1.571Zm.571-.514h.962c1.021 0 1.615-.654 1.615-1.767v-.007c0-1.117-.6-1.777-1.615-1.777h-.962v3.551Zm5.226.574c-.777 0-1.177-.457-1.177-1.266v-2.215h.552v2.082c0 .616.222.91.768.91.603 0 .923-.367.923-.967v-2.025h.553v3.421h-.553v-.51h-.05c-.168.364-.514.57-1.016.57Zm2.65-.06v-3.42h.552v.507h.051c.13-.358.45-.568.914-.568.104 0 .222.013.276.022v.537a2 2 0 0 0-.34-.032c-.527 0-.901.333-.901.834v2.12h-.552Zm3.414.06c-.65 0-1.142-.393-1.142-1.015v-.006c0-.61.45-.962 1.247-1.01l.98-.06v-.31c0-.423-.257-.651-.768-.651-.409 0-.679.152-.767.419l-.004.01h-.552l.003-.02c.089-.536.61-.898 1.339-.898.835 0 1.301.428 1.301 1.14v2.341h-.552v-.505h-.05c-.216.365-.575.565-1.035.565Zm-.577-1.028c0 .346.295.55.691.55.562 0 .971-.369.971-.858v-.31l-.914.057c-.52.031-.748.215-.748.555v.006Zm4.439.993c-.705 0-1-.26-1-.913V30.03h-.539v-.457h.539v-.885h.571v.885h.749v.457h-.749v1.936c0 .403.14.565.495.565.099 0 .153-.003.254-.013v.47a1.827 1.827 0 0 1-.32.031Zm1.437-4.106a.382.382 0 0 1-.381-.38.382.382 0 1 1 .381.38Zm-.279 4.081v-3.42h.552v3.42h-.552Zm2.999.06c-.975 0-1.578-.672-1.578-1.767v-.006c0-1.098.603-1.768 1.578-1.768.974 0 1.577.67 1.577 1.767v.007c0 1.095-.603 1.767-1.577 1.767Zm0-.488c.647 0 1.012-.473 1.012-1.28v-.006c0-.809-.365-1.278-1.012-1.278-.648 0-1.013.47-1.013 1.279v.006c0 .806.365 1.279 1.013 1.279Zm2.433.428v-3.42h.552v.513h.051c.172-.361.492-.574.997-.574.767 0 1.196.454 1.196 1.266v2.215h-.552v-2.081c0-.616-.254-.911-.8-.911s-.892.368-.892.968v2.024h-.552Z"/>
    <mask id="path-27-inside-2_5587_9099" fill="#fff">
        <path d="M0 54.49h180.333v19.83H0V54.49Z"/>
    </mask>
    <path fill="#37383F" d="M0 55.031h180.333v-1.083H0v1.083Z" mask="url(#path-27-inside-2_5587_9099)"/>
    <g stroke="#828599" stroke-linecap="round" stroke-linejoin="round" stroke-width=".542"
       clip-path="url(#clip4_5587_9099)">
        <path d="m11.102 64.134-4.874 4.874m4.874 0-4.874-4.874"/>
    </g>
    <path fill="#828599"
          d="M15.796 69.071v-4.96h1.701c1.472 0 2.341.918 2.341 2.475v.007c0 1.56-.866 2.478-2.34 2.478h-1.702Zm.619-.557h1.041c1.107 0 1.75-.708 1.75-1.914v-.007c0-1.21-.65-1.925-1.75-1.925h-1.041v3.846Zm4.736-3.864a.414.414 0 0 1-.412-.412c0-.227.185-.413.412-.413a.414.414 0 0 1 0 .825Zm-.302 4.421v-3.706h.598v3.706h-.598Zm2.997.066c-.825 0-1.392-.4-1.46-1.011h.611c.1.31.396.512.87.512.498 0 .853-.237.853-.574v-.007c0-.25-.19-.426-.647-.536l-.574-.138c-.694-.165-1.007-.467-1.007-1v-.003c0-.616.591-1.08 1.378-1.08.777 0 1.317.389 1.4.994h-.588c-.08-.293-.368-.495-.815-.495-.44 0-.763.226-.763.553v.007c0 .25.186.409.622.516l.57.137c.699.168 1.035.471 1.035 1v.007c0 .66-.642 1.117-1.485 1.117Zm2.414-.066v-3.706h.598v.564h.055c.165-.398.515-.629 1-.629.502 0 .852.265 1.024.65h.055c.2-.392.623-.65 1.135-.65.756 0 1.179.433 1.179 1.21v2.561h-.598v-2.423c0-.547-.251-.818-.774-.818-.515 0-.856.388-.856.859v2.382h-.598v-2.516c0-.44-.302-.725-.77-.725-.485 0-.852.422-.852.945v2.296h-.598Zm6.442-4.42a.414.414 0 0 1-.413-.413.414.414 0 0 1 .825 0 .414.414 0 0 1-.412.412Zm-.303 4.42v-3.706h.598v3.706H32.4Zm2.998.066c-.825 0-1.393-.4-1.462-1.011h.612c.1.31.396.512.87.512.499 0 .853-.237.853-.574v-.007c0-.25-.19-.426-.647-.536l-.574-.138c-.694-.165-1.007-.467-1.007-1v-.003c0-.616.591-1.08 1.379-1.08.776 0 1.316.389 1.399.994h-.588c-.08-.293-.368-.495-.815-.495-.44 0-.763.226-.763.553v.007c0 .25.186.409.622.516l.57.137c.699.168 1.036.471 1.036 1v.007c0 .66-.643 1.117-1.485 1.117Zm3.616 0c-.825 0-1.392-.4-1.461-1.011h.612c.1.31.395.512.87.512.498 0 .852-.237.852-.574v-.007c0-.25-.19-.426-.646-.536l-.574-.138c-.695-.165-1.008-.467-1.008-1v-.003c0-.616.592-1.08 1.379-1.08.777 0 1.316.389 1.399.994h-.588c-.079-.293-.368-.495-.815-.495-.44 0-.763.226-.763.553v.007c0 .25.186.409.622.516l.571.137c.698.168 1.035.471 1.035 1v.007c0 .66-.643 1.117-1.485 1.117Z"/>
    <g stroke="#828599" stroke-width=".542" clip-path="url(#clip5_5587_9099)">
        <rect width="6.679" height="6.679" x="78.929" y="63.232" rx=".271"/>
        <path d="M80.824 68.737V65.85m2.889 2.887v-2.166m-1.445 2.166v-4.332"/>
    </g>
    <g stroke="#828599" stroke-linecap="round" stroke-linejoin="round" stroke-width=".542"
       clip-path="url(#clip6_5587_9099)">
        <path d="m99.868 65.217.813-.812-.813-.812"/>
        <path d="M94.182 66.571a2.166 2.166 0 0 1 2.166-2.166h4.333m-5.687 3.52-.812.812.812.813"/>
        <path d="M100.681 66.571a2.168 2.168 0 0 1-2.166 2.166h-4.333"/>
    </g>
    <g stroke="#828599" stroke-width=".542" clip-path="url(#clip7_5587_9099)">
        <path d="M114.907 64.53v-.27h-.911a1.3 1.3 0 0 1-1.271-1.028h3.178c.017 0 .031.014.031.03v3.156a1.298 1.298 0 0 1-1.027-1.269v-.618Z"/>
        <path d="M113.186 66.264v-.27h-.912a1.3 1.3 0 0 1-1.269-1.027h3.178a.03.03 0 0 1 .031.03v3.156a1.299 1.299 0 0 1-1.028-1.268v-.62Z"/>
        <path d="M111.467 67.994v-.27h-.913a1.3 1.3 0 0 1-1.271-1.029h3.178c.017 0 .031.014.031.031v3.155a1.298 1.298 0 0 1-1.025-1.269v-.618Z"/>
    </g>
    <g stroke="#828599" stroke-linecap="round" stroke-linejoin="round" stroke-width=".542"
       clip-path="url(#clip8_5587_9099)">
        <path d="M131.198 65.567a.27.27 0 0 0 0-.383l-2.053-2.054a.268.268 0 0 0-.382 0l-1.94 1.945s-.939-.47-1.942.34a.277.277 0 0 0-.072.088.275.275 0 0 0 .05.315l3.652 3.652a.266.266 0 0 0 .209.078.27.27 0 0 0 .197-.106c.284-.378.73-1.154.342-1.93l1.939-1.945Zm-4.514 2.077-1.634 1.635"/>
    </g>
    <rect width="38.495" height="15.498" x="137.505" y="58.822" fill="#6063F6" rx="2.166"/>
    <g clip-path="url(#clip9_5587_9099)">
        <path stroke="#fff" stroke-linecap="round" stroke-width=".542" d="M146.17 69.82a3.249 3.249 0 1 0-3.249-3.249"/>
        <path fill="#fff" d="M146.892 66.57a.722.722 0 1 1-1.444.001.722.722 0 0 1 1.444 0Z"/>
        <path stroke="#fff" stroke-linecap="round" stroke-linejoin="round" stroke-width=".542"
              d="M142.199 68.888h2.83m-1.276 1.277 1.276-1.276-1.276-1.277"/>
    </g>
    <path fill="#fff"
          d="M154.59 69.071v-4.403h-1.598v-.557h3.815v.557h-1.598v4.403h-.619Zm2.582 0v-3.706h.598v.55h.055c.141-.388.488-.615.99-.615.113 0 .24.014.299.024v.581a2.156 2.156 0 0 0-.368-.034c-.571 0-.976.36-.976.904v2.296h-.598Zm3.699.065c-.705 0-1.238-.426-1.238-1.1v-.007c0-.66.488-1.041 1.351-1.093l1.062-.065v-.337c0-.457-.278-.705-.832-.705-.443 0-.735.166-.832.454l-.003.01h-.598l.003-.02c.097-.581.66-.973 1.451-.973.904 0 1.409.464 1.409 1.234v2.537h-.598v-.546h-.055c-.234.395-.622.611-1.12.611Zm-.626-1.113c0 .374.32.594.749.594.609 0 1.052-.398 1.052-.928v-.337l-.99.062c-.564.034-.811.234-.811.602v.007Zm5.008 1.113c-1.038 0-1.701-.752-1.701-1.928V67.2c0-1.151.66-1.9 1.698-1.9.901 0 1.44.518 1.55 1.178l.004.02h-.595l-.003-.01c-.093-.364-.423-.66-.956-.66-.667 0-1.086.537-1.086 1.372v.007c0 .852.426 1.399 1.086 1.399.498 0 .815-.22.952-.632l.007-.021.591-.004-.007.038c-.151.67-.649 1.148-1.54 1.148Zm3.936 0c-1.058 0-1.698-.742-1.698-1.904v-.004c0-1.144.653-1.928 1.66-1.928 1.008 0 1.62.75 1.62 1.856v.234h-2.668c.017.767.44 1.213 1.1 1.213.502 0 .811-.237.911-.46l.014-.031h.598l-.007.028c-.127.501-.657.996-1.53.996Zm-.041-3.303c-.55 0-.969.375-1.035 1.08h2.049c-.062-.733-.467-1.08-1.014-1.08Z"/>
    <defs>
        <clipPath id="clip0_5587_9099">
            <path fill="#fff" d="M111.828 7.582h6.498v6.498h-6.498z"/>
        </clipPath>
        <clipPath id="clip1_5587_9099">
            <use xlink:href="#reuse-0"/>
        </clipPath>
        <clipPath id="clip2_5587_9099">
            <use xlink:href="#reuse-0"/>
        </clipPath>
        <clipPath id="clip3_5587_9099">
            <path fill="#fff" d="M151.09 4.332h24.911V17.33H151.09z"/>
        </clipPath>
        <clipPath id="clip4_5587_9099">
            <path fill="#fff" d="M4.332 62.239h8.665v8.665H4.332z"/>
        </clipPath>
        <clipPath id="clip5_5587_9099">
            <path fill="#fff" d="M77.936 62.239H86.6v8.665h-8.665z"/>
        </clipPath>
        <clipPath id="clip6_5587_9099">
            <path fill="#fff" d="M93.1 62.239h8.664v8.665H93.1z"/>
        </clipPath>
        <clipPath id="clip7_5587_9099">
            <path fill="#fff" d="M108.262 62.239h8.665v8.665h-8.665z"/>
        </clipPath>
        <clipPath id="clip8_5587_9099">
            <path fill="#fff" d="M123.425 62.239h8.665v8.665h-8.665z"/>
        </clipPath>
        <clipPath id="clip9_5587_9099">
            <path fill="#fff" d="M141.838 62.239h8.665v8.665h-8.665z"/>
        </clipPath>
    </defs>
</svg>