<svg xmlns="http://www.w3.org/2000/svg" fill="none" viewBox="0 0 167 81">
    <rect width="179.792" height="80.277" x=".271" y=".271" fill="#1A1B1E" rx="1.895"/>
    <rect width="179.792" height="80.277" x=".271" y=".271" stroke="#37383F" stroke-width=".542" rx="1.895"/>
    <mask id="path-2-inside-1_5587_6699" fill="#fff">
        <path d="M0 0h180.333v21.662H0V0Z"/>
    </mask>
    <path fill="#37383F" d="M180.333 21.12H0v1.083h180.333V21.12Z" mask="url(#path-2-inside-1_5587_6699)"/>
    <rect width="12.997" height="12.997" x="4.332" y="4.332" fill="#3D2327" rx="2.166"/>
    <path stroke="#DA2D5F" stroke-linecap="round" stroke-linejoin="round" stroke-width=".542"
          d="M15.498 8.442c0 .475-2.238.86-5 .86-2.76 0-5-.385-5-.86m10 0c0-.475-2.238-.86-5-.86-2.76 0-5 .385-5 .86m10 0V9.97m-10-1.53v2.868m10-1.338c0 .476-2.222.86-5 .86-2.777 0-5-.384-5-.86m10 0v2.484m-8.185 1.31a.94.94 0 0 0 .54.17c.325 0 .614-.102.614-.443 0-.545-1.154-.306-1.154-.818 0-.272.216-.443.54-.443.196 0 .385.06.542.17m3.341-.17v1.715h1.261m-2.992-.104c.425 0 .77-.36.77-.805 0-.445-.345-.806-.77-.806-.425 0-.769.361-.769.806 0 .445.344.805.77.805Zm.193-.537.406.776"/>
    <path fill="#fff"
          d="M24.175 13.964c-1.24 0-2.028-.61-2.095-1.533l-.004-.051h.926l.004.037c.044.448.521.744 1.199.744.644 0 1.096-.319 1.096-.778v-.003c0-.385-.278-.619-.966-.767l-.574-.118c-1.092-.23-1.566-.74-1.566-1.536v-.004c0-.955.822-1.6 1.977-1.6 1.184 0 1.92.648 1.988 1.507l.003.048h-.914l-.008-.044c-.066-.415-.462-.71-1.073-.707-.592 0-1.014.278-1.014.733v.004c0 .377.27.614.936.755l.574.122c1.125.237 1.595.689 1.595 1.496v.003c0 1.04-.803 1.692-2.084 1.692Zm4.794-.052c-1.203 0-1.932-.807-1.932-2.095v-.004c0-1.273.737-2.106 1.888-2.106 1.151 0 1.862.807 1.862 2.028v.304h-2.828c.01.726.403 1.148 1.029 1.148.5 0 .785-.252.873-.437l.012-.026h.877l-.011.033c-.13.522-.67 1.155-1.77 1.155Zm-.033-3.483c-.515 0-.9.348-.97.992h1.921c-.063-.663-.436-.992-.951-.992Zm4.302 3.483c-1.03 0-1.651-.474-1.73-1.159v-.007h.915l.004.008c.096.28.366.477.825.477.46 0 .778-.207.778-.51v-.008c0-.237-.178-.393-.622-.492l-.655-.149c-.77-.17-1.137-.533-1.137-1.129v-.003c0-.73.667-1.233 1.622-1.233.984 0 1.573.488 1.632 1.144v.007h-.866L34 10.847c-.066-.255-.333-.463-.766-.463-.41 0-.707.2-.707.504v.004c0 .236.17.38.607.48l.655.145c.792.178 1.166.515 1.166 1.103v.008c0 .77-.721 1.284-1.717 1.284Zm4.101 0c-1.029 0-1.65-.474-1.728-1.159v-.007h.914l.004.008c.096.28.366.477.825.477.46 0 .778-.207.778-.51v-.008c0-.237-.178-.393-.622-.492l-.655-.149c-.77-.17-1.137-.533-1.137-1.129v-.003c0-.73.666-1.233 1.621-1.233.985 0 1.574.488 1.633 1.144v.007h-.866l-.004-.011c-.067-.255-.333-.463-.766-.463-.411 0-.707.2-.707.504v.004c0 .236.17.38.607.48l.655.145c.792.178 1.166.515 1.166 1.103v.008c0 .77-.722 1.284-1.718 1.284Zm3.121-4.805a.547.547 0 0 1-.551-.544.549.549 0 0 1 1.1 0 .546.546 0 0 1-.549.544Zm-.463 4.724V9.785h.922v4.046h-.922Zm3.802.081c-1.214 0-1.947-.792-1.947-2.103v-.007c0-1.3.744-2.095 1.947-2.095 1.207 0 1.948.792 1.948 2.095v.008c0 1.31-.737 2.102-1.948 2.102Zm0-.748c.64 0 1.004-.5 1.004-1.35v-.008c0-.852-.367-1.355-1.004-1.355-.64 0-1.007.503-1.007 1.355v.007c0 .852.367 1.351 1.007 1.351Zm2.873.667V9.785h.922v.618h.063c.192-.433.581-.696 1.166-.696.903 0 1.395.544 1.395 1.506v2.618h-.921v-2.403c0-.63-.256-.948-.815-.948-.548 0-.888.386-.888.993v2.358h-.922Zm7.13-4.724a.547.547 0 0 1-.552-.544.549.549 0 0 1 1.1 0 .546.546 0 0 1-.548.544Zm-.463 4.724V9.785h.922v4.046h-.922Zm2.055 0V9.785h.922v.618h.063c.192-.433.58-.696 1.166-.696.903 0 1.395.544 1.395 1.506v2.618h-.921v-2.403c0-.63-.256-.948-.815-.948-.548 0-.888.386-.888.993v2.358h-.922Zm8.203 0L61.75 8.489h1.051l1.322 4.239h.063l1.321-4.24h1.056l-1.848 5.343h-1.118Zm4.265-4.724a.547.547 0 0 1-.552-.544.549.549 0 0 1 1.1 0 .546.546 0 0 1-.548.544Zm-.463 4.724V9.785h.922v4.046h-.922Zm3.787.081c-1.203 0-1.932-.807-1.932-2.095v-.004c0-1.273.737-2.106 1.888-2.106 1.151 0 1.862.807 1.862 2.028v.304h-2.828c.01.726.403 1.148 1.029 1.148.5 0 .785-.252.874-.437l.01-.026h.878l-.011.033c-.13.522-.67 1.155-1.77 1.155Zm-.033-3.483c-.515 0-.9.348-.97.992h1.921c-.063-.663-.436-.992-.951-.992Zm3.49 3.402-1.095-4.046h.926l.673 3.039h.063l.778-3.04h.877l.785 3.04h.063l.67-3.04h.914l-1.096 4.047h-.966l-.788-2.932h-.063l-.785 2.932h-.955Zm9.878.133c-1.566 0-2.529-1.085-2.529-2.802v-.008c0-1.721.978-2.798 2.529-2.798 1.555 0 2.525 1.077 2.525 2.798v.008c0 1-.33 1.788-.911 2.269l.71.955h-.932l-.433-.581c-.29.104-.608.16-.96.16Zm0-.825c.148 0 .288-.019.422-.056l-.689-.925h.933l.392.529c.315-.348.493-.874.493-1.525v-.008c0-1.207-.604-1.973-1.551-1.973-.948 0-1.555.766-1.555 1.973v.008c0 1.2.592 1.976 1.555 1.976Zm4.864.773c-.91 0-1.377-.548-1.377-1.51V9.785h.922v2.406c0 .625.233.944.788.944.596 0 .915-.385.915-.992V9.785h.921v4.046h-.921v-.615h-.063c-.19.433-.6.696-1.185.696Zm5.027 0c-1.203 0-1.932-.807-1.932-2.095v-.004c0-1.273.737-2.106 1.888-2.106 1.151 0 1.862.807 1.862 2.028v.304h-2.828c.01.726.403 1.148 1.029 1.148.5 0 .785-.252.874-.437l.01-.026h.878l-.011.033c-.13.522-.67 1.155-1.77 1.155Zm-.033-3.483c-.514 0-.9.348-.97.992h1.921c-.063-.663-.436-.992-.951-.992Zm2.773 3.402V9.785h.922v.621h.063c.136-.433.507-.688 1.04-.688.14 0 .285.018.374.044v.826c-.148-.03-.3-.052-.46-.052-.614 0-1.017.367-1.017.944v2.35h-.922Zm3.646 1.421c-.111 0-.24-.003-.351-.014v-.707c.074.007.177.01.273.01.378 0 .604-.155.704-.521l.048-.185-1.447-4.05h1.006l.944 3.161h.071l.94-3.161h.97l-1.451 4.131c-.348 1.014-.811 1.336-1.707 1.336Zm6.068-1.421V8.489h2.002c1.589 0 2.514.97 2.514 2.643v.008c0 1.71-.914 2.69-2.514 2.69h-2.002Zm.955-.803h.922c1.062 0 1.665-.674 1.665-1.874v-.007c0-1.174-.618-1.855-1.665-1.855h-.922v3.736Zm6.293.884c-1.203 0-1.932-.807-1.932-2.095v-.004c0-1.273.736-2.106 1.888-2.106 1.151 0 1.862.807 1.862 2.028v.304h-2.829c.012.726.404 1.148 1.03 1.148.499 0 .784-.252.873-.437l.011-.026h.878l-.011.033c-.13.522-.67 1.155-1.77 1.155Zm-.033-3.483c-.515 0-.9.348-.97.992h1.921c-.063-.663-.437-.992-.951-.992Zm4.364 3.42c-.929 0-1.31-.31-1.31-1.092V10.5h-.629v-.714h.629v-.993h.936v.993h.856v.714h-.856v2.04c0 .403.16.574.545.574.129 0 .2-.004.311-.015v.71a2.542 2.542 0 0 1-.482.041Zm3.095.063c-1.203 0-1.932-.807-1.932-2.095v-.004c0-1.273.736-2.106 1.888-2.106 1.151 0 1.862.807 1.862 2.028v.304h-2.828c.011.726.403 1.148 1.029 1.148.499 0 .785-.252.873-.437l.011-.026h.878l-.011.033c-.13.522-.67 1.155-1.77 1.155Zm-.033-3.483c-.515 0-.9.348-.97.992h1.921c-.063-.663-.437-.992-.951-.992Zm4.509 3.483c-1.218 0-1.936-.788-1.936-2.11v-.007c0-1.307.714-2.088 1.932-2.088 1.04 0 1.662.577 1.766 1.414v.015h-.87l-.004-.011c-.085-.393-.385-.674-.888-.674-.629 0-1 .496-1 1.344v.007c0 .859.374 1.363 1 1.363.477 0 .77-.219.885-.645l.007-.014.87-.004-.007.03c-.134.829-.73 1.38-1.755 1.38Zm4.283-.063c-.929 0-1.31-.31-1.31-1.092V10.5h-.63v-.714h.63v-.993h.936v.993h.855v.714h-.855v2.04c0 .403.159.574.544.574.13 0 .2-.004.311-.015v.71a2.523 2.523 0 0 1-.481.041Zm3.095.063c-1.203 0-1.933-.807-1.933-2.095v-.004c0-1.273.737-2.106 1.888-2.106 1.152 0 1.863.807 1.863 2.028v.304h-2.829c.011.726.404 1.148 1.029 1.148.5 0 .785-.252.874-.437l.011-.026h.877l-.011.033c-.129.522-.67 1.155-1.769 1.155Zm-.033-3.483c-.515 0-.9.348-.97.992h1.921c-.063-.663-.437-.992-.951-.992Zm4.231 3.468c-1.014 0-1.659-.803-1.659-2.084v-.007c0-1.288.633-2.088 1.659-2.088.555 0 1.018.274 1.229.71h.063v-2.21h.925v5.613h-.925v-.633h-.063c-.222.44-.659.7-1.229.7Zm.289-.777c.629 0 1.018-.496 1.018-1.307v-.007c0-.81-.393-1.31-1.018-1.31-.626 0-1.011.495-1.011 1.31v.007c0 .815.381 1.307 1.011 1.307Z"/>
    <path fill="#A1B5FF"
          d="M4.916 47.242v-4.58h1.749c.882 0 1.46.54 1.46 1.362v.007c0 .634-.347 1.13-.921 1.31l1.06 1.9h-.67l-.98-1.811H5.487v1.812h-.57Zm.571-2.32h1.127c.587 0 .92-.314.92-.872v-.007c0-.546-.355-.872-.946-.872h-1.1v1.751Zm4.906 2.38c-.977 0-1.568-.685-1.568-1.758v-.003c0-1.057.603-1.78 1.533-1.78.93 0 1.495.691 1.495 1.713v.216H9.39c.016.708.406 1.12 1.016 1.12.463 0 .748-.219.84-.425l.013-.029h.552l-.006.026c-.117.463-.606.92-1.412.92Zm-.038-3.05c-.508 0-.895.346-.955.997h1.89c-.056-.676-.43-.996-.935-.996Zm2.354 2.99v-3.42h.552v.513h.051c.172-.362.492-.574.997-.574.767 0 1.196.454 1.196 1.266v2.215h-.552V45.16c0-.615-.254-.91-.8-.91s-.892.367-.892.967v2.025h-.552Zm5.058.06c-.866 0-1.434-.701-1.434-1.767v-.007c0-1.072.565-1.767 1.434-1.767.47 0 .88.235 1.066.6h.051v-1.898h.552v4.779h-.552v-.546h-.05c-.21.38-.59.606-1.067.606Zm.127-.489c.622 0 1.003-.488 1.003-1.278v-.007c0-.79-.38-1.279-1.003-1.279-.625 0-.996.483-.996 1.28v.006c0 .796.371 1.278.996 1.278Zm3.998.489c-.977 0-1.567-.685-1.567-1.758v-.003c0-1.057.603-1.78 1.532-1.78.93 0 1.495.691 1.495 1.713v.216H20.89c.015.708.406 1.12 1.015 1.12.463 0 .749-.219.84-.425l.014-.029h.552l-.007.026c-.117.463-.606.92-1.412.92Zm-.038-3.05c-.508 0-.895.346-.955.997h1.891c-.057-.676-.431-.996-.936-.996Zm2.355 2.99v-3.42h.552v.507h.05c.13-.359.451-.568.914-.568.105 0 .223.012.276.022v.536a1.98 1.98 0 0 0-.34-.032c-.526 0-.9.334-.9.835v2.12h-.552Zm5.708.06c-.974 0-1.577-.673-1.577-1.767v-.007c0-1.098.603-1.767 1.577-1.767s1.577.67 1.577 1.767v.007c0 1.094-.603 1.767-1.577 1.767Zm0-.489c.647 0 1.012-.473 1.012-1.278v-.007c0-.809-.365-1.279-1.012-1.279s-1.012.47-1.012 1.28v.006c0 .806.365 1.278 1.012 1.278Zm2.967.429-.958-3.42h.552l.672 2.734h.051l.765-2.735h.523l.765 2.735h.05l.674-2.735h.549l-.959 3.42h-.555l-.765-2.646h-.05l-.762 2.647h-.552Zm4.372 0v-3.42h.553v.513h.05c.172-.362.492-.574.997-.574.767 0 1.196.454 1.196 1.266v2.215H39.5V45.16c0-.615-.254-.91-.8-.91s-.892.367-.892.967v2.025h-.552Zm5.192.06c-.978 0-1.568-.685-1.568-1.758v-.003c0-1.057.603-1.78 1.533-1.78.93 0 1.494.691 1.494 1.713v.216h-2.462c.016.708.406 1.12 1.015 1.12.463 0 .75-.219.841-.425l.013-.029h.552l-.006.026c-.118.463-.606.92-1.412.92Zm-.038-3.05c-.508 0-.895.346-.956.997h1.892c-.057-.676-.432-.996-.936-.996Zm2.354 2.99v-3.42h.552v.507h.05c.13-.359.451-.568.915-.568.104 0 .222.012.276.022v.536a1.98 1.98 0 0 0-.34-.032c-.526 0-.9.334-.9.835v2.12h-.553Zm3.585.06c-.761 0-1.285-.368-1.348-.933h.565c.092.286.365.473.803.473.46 0 .787-.22.787-.53v-.006c0-.232-.175-.394-.597-.495l-.53-.127c-.64-.153-.93-.432-.93-.924v-.003c0-.568.546-.996 1.273-.996.717 0 1.215.358 1.291.917h-.542c-.073-.27-.34-.457-.752-.457-.407 0-.705.21-.705.51v.007c0 .232.172.378.575.476l.526.127c.644.155.955.435.955.923v.007c0 .609-.593 1.031-1.37 1.031Zm3.69-4.839-1.446 5.921h-.53l1.447-5.921h.53Zm1.924 4.839c-.974 0-1.577-.673-1.577-1.767v-.007c0-1.098.603-1.767 1.577-1.767s1.577.67 1.577 1.767v.007c0 1.094-.603 1.767-1.577 1.767Zm0-.489c.647 0 1.012-.473 1.012-1.278v-.007c0-.809-.365-1.279-1.012-1.279-.648 0-1.013.47-1.013 1.28v.006c0 .806.365 1.278 1.013 1.278Zm2.967.429-.959-3.42h.552l.673 2.734h.05l.766-2.735h.523l.765 2.735h.05l.673-2.735h.55l-.959 3.42h-.555l-.765-2.646h-.05l-.762 2.647h-.552Zm4.372 0v-3.42h.552v.513h.051c.171-.362.492-.574.996-.574.768 0 1.197.454 1.197 1.266v2.215h-.553V45.16c0-.615-.253-.91-.8-.91-.545 0-.89.367-.89.967v2.025h-.553Zm5.191.06c-.977 0-1.567-.685-1.567-1.758v-.003c0-1.057.603-1.78 1.532-1.78.93 0 1.495.691 1.495 1.713v.216H65.49c.016.708.406 1.12 1.015 1.12.463 0 .749-.219.84-.425l.014-.029h.552l-.007.026c-.117.463-.606.92-1.412.92Zm-.038-3.05c-.507 0-.895.346-.955.997h1.891c-.057-.676-.431-.996-.936-.996Zm2.355 2.99v-3.42h.552v.507h.05c.13-.359.451-.568.914-.568.105 0 .223.012.277.022v.536a1.981 1.981 0 0 0-.34-.032c-.527 0-.901.334-.901.835v2.12h-.552Zm2.544 0v-4.58h1.571c1.358 0 2.161.848 2.161 2.285v.007c0 1.44-.8 2.288-2.16 2.288h-1.572Zm.572-.514h.961c1.022 0 1.615-.654 1.615-1.768v-.006c0-1.117-.6-1.777-1.615-1.777h-.961v3.55Zm5.476.574c-.977 0-1.567-.685-1.567-1.758v-.003c0-1.057.603-1.78 1.533-1.78.93 0 1.494.691 1.494 1.713v.216H76.4c.016.708.406 1.12 1.015 1.12.463 0 .749-.219.841-.425l.013-.029h.552l-.007.026c-.117.463-.606.92-1.412.92Zm-.038-3.05c-.507 0-.895.346-.955.997H78.3c-.057-.676-.431-.996-.936-.996Zm3.57 3.015c-.704 0-1-.26-1-.914v-2.075h-.539v-.457h.54v-.885h.57v.885h.75v.457h-.75v1.936c0 .403.14.564.496.564.098 0 .152-.003.254-.012v.47a1.832 1.832 0 0 1-.32.031Zm2.085.035c-.65 0-1.143-.394-1.143-1.015v-.007c0-.609.451-.961 1.248-1.009l.98-.06V44.9c0-.422-.257-.65-.768-.65-.41 0-.679.152-.768.418l-.003.01h-.552l.003-.02c.089-.535.61-.897 1.34-.897.834 0 1.3.428 1.3 1.139v2.342h-.552v-.505h-.05c-.216.365-.575.565-1.035.565Zm-.578-1.028c0 .346.295.549.692.549.562 0 .971-.368.971-.857v-.31l-.914.056c-.52.032-.749.216-.749.556v.006Zm3.516-3.113a.382.382 0 0 1-.38-.38.38.38 0 1 1 .38.38Zm-.28 4.08v-3.42h.553v3.42h-.552Zm1.625 0v-4.778h.553v4.779h-.553Zm2.786.061c-.761 0-1.285-.368-1.348-.933h.565c.092.286.365.473.802.473.46 0 .787-.22.787-.53v-.006c0-.232-.174-.394-.596-.495l-.53-.127c-.641-.153-.93-.432-.93-.924v-.003c0-.568.546-.996 1.273-.996.717 0 1.215.358 1.291.917h-.543c-.072-.27-.339-.457-.751-.457-.407 0-.705.21-.705.51v.007c0 .232.171.378.574.476l.527.127c.644.155.955.435.955.923v.007c0 .609-.593 1.031-1.37 1.031Z"/>
    <path fill="#ACAFBF"
          d="M6.84 33.102c-1.315 0-2.102-.933-2.102-2.396V30.7c0-1.47.806-2.393 2.101-2.393 1.301 0 2.1.927 2.1 2.393v.006c0 .886-.291 1.577-.812 1.987l.597.818h-.641l-.406-.561c-.25.101-.53.152-.838.152Zm0-.527a1.6 1.6 0 0 0 .504-.08l-.59-.811h.64l.4.549c.359-.324.562-.857.562-1.527V30.7c0-1.142-.58-1.866-1.517-1.866-.933 0-1.517.724-1.517 1.866v.006c0 1.133.565 1.87 1.517 1.87Zm4.165.48c-.777 0-1.177-.458-1.177-1.267v-2.215h.552v2.082c0 .616.222.91.768.91.603 0 .924-.367.924-.967v-2.025h.552v3.421h-.553v-.51h-.05c-.168.364-.514.57-1.016.57Zm4.046 0c-.977 0-1.568-.686-1.568-1.759v-.003c0-1.056.603-1.78 1.533-1.78.93 0 1.495.692 1.495 1.714v.215h-2.463c.016.708.406 1.12 1.016 1.12.463 0 .749-.218.84-.425l.013-.028h.552l-.006.025c-.117.463-.606.92-1.412.92Zm-.038-3.05c-.508 0-.895.346-.955.996h1.891c-.057-.676-.431-.996-.936-.996Zm2.354 2.989v-3.42h.552v.507h.051c.13-.358.45-.568.914-.568.105 0 .222.013.276.022v.537a1.99 1.99 0 0 0-.34-.032c-.526 0-.9.333-.9.834v2.12h-.553Zm2.8 1.2c-.074 0-.17-.007-.245-.02v-.453c.066.012.152.016.228.016.314 0 .505-.143.629-.537l.063-.203-1.266-3.424h.59l.94 2.815h.05l.936-2.815h.58l-1.335 3.63c-.282.768-.565.99-1.17.99Zm6.46-1.14c-.978 0-1.568-.685-1.568-1.758v-.003c0-1.056.603-1.78 1.533-1.78.93 0 1.494.692 1.494 1.714v.215h-2.462c.016.708.406 1.12 1.015 1.12.463 0 .75-.218.841-.425l.013-.028h.552l-.007.025c-.117.463-.605.92-1.412.92Zm-.039-3.049c-.507 0-.894.346-.955.996h1.892c-.058-.676-.432-.996-.937-.996Zm1.955 2.989 1.17-1.71-1.183-1.71h.65l.813 1.272h.05l.804-1.273h.618l-1.16 1.689 1.176 1.732h-.647l-.81-1.291h-.05l-.812 1.291h-.619Zm4.918.06c-.977 0-1.567-.685-1.567-1.758v-.003c0-1.056.603-1.78 1.532-1.78.93 0 1.495.692 1.495 1.714v.215h-2.462c.015.708.406 1.12 1.015 1.12.463 0 .749-.218.84-.425l.014-.028h.552l-.007.025c-.117.463-.606.92-1.412.92Zm-.038-3.049c-.507 0-.895.346-.955.996h1.891c-.057-.676-.431-.996-.936-.996Zm3.754 3.05c-.958 0-1.57-.696-1.57-1.78v-.007c0-1.063.609-1.755 1.567-1.755.831 0 1.33.48 1.431 1.088l.003.02h-.549l-.003-.01c-.086-.336-.39-.61-.882-.61-.616 0-1.003.496-1.003 1.267v.006c0 .787.394 1.292 1.003 1.292.46 0 .752-.203.879-.584l.006-.02.546-.002-.006.034c-.14.62-.6 1.06-1.422 1.06Zm3.383 0c-.778 0-1.178-.458-1.178-1.267v-2.215h.553v2.082c0 .616.222.91.767.91.603 0 .924-.367.924-.967v-2.025h.552v3.421h-.552v-.51h-.051c-.168.364-.514.57-1.015.57Zm3.864-.036c-.704 0-1-.26-1-.913V30.03h-.538v-.457h.539v-.885h.571v.885h.749v.457h-.749v1.936c0 .403.14.565.495.565.098 0 .152-.003.254-.013v.47a1.832 1.832 0 0 1-.32.031Zm1.438-4.106a.382.382 0 0 1-.38-.38.38.38 0 1 1 .38.38Zm-.28 4.081v-3.42h.553v3.42h-.552Zm3 .06c-.975 0-1.578-.672-1.578-1.767v-.006c0-1.098.603-1.768 1.577-1.768s1.577.67 1.577 1.767v.007c0 1.095-.603 1.767-1.577 1.767Zm0-.488c.646 0 1.011-.473 1.011-1.28v-.006c0-.809-.365-1.278-1.012-1.278s-1.012.47-1.012 1.279v.006c0 .806.365 1.279 1.012 1.279Zm2.433.428v-3.42h.552v.513h.05c.172-.361.493-.574.997-.574.768 0 1.196.454 1.196 1.266v2.215h-.552v-2.081c0-.616-.254-.911-.8-.911-.545 0-.89.368-.89.968v2.024h-.553Zm6.283 0-.959-3.42h.553l.672 2.735h.051l.765-2.736h.523l.765 2.736h.05l.673-2.736h.55l-.959 3.421h-.555l-.765-2.646h-.05l-.762 2.646h-.552Zm5.216.06c-.65 0-1.142-.393-1.142-1.015v-.006c0-.61.45-.962 1.247-1.01l.98-.06v-.31c0-.423-.257-.651-.767-.651-.41 0-.68.152-.768.419l-.004.01h-.552l.004-.02c.088-.536.609-.898 1.339-.898.834 0 1.3.428 1.3 1.14v2.341H63.6v-.505h-.051c-.216.365-.575.565-1.035.565Zm-.577-1.028c0 .346.295.55.692.55.561 0 .97-.369.97-.858v-.31l-.913.057c-.52.031-.75.215-.75.555v.006Zm4.398 1.028c-.762 0-1.285-.368-1.349-.933h.565c.092.286.365.473.803.473.46 0 .787-.219.787-.53v-.006c0-.232-.175-.393-.597-.495l-.53-.127c-.64-.152-.93-.431-.93-.923v-.004c0-.567.546-.996 1.273-.996.717 0 1.215.359 1.291.917h-.542c-.073-.27-.34-.457-.752-.457-.406 0-.705.21-.705.511v.006c0 .232.172.378.575.476l.526.127c.644.156.955.435.955.924v.006c0 .61-.593 1.031-1.37 1.031Zm5.318 0c-.867 0-1.434-.7-1.434-1.767v-.006c0-1.073.564-1.768 1.434-1.768.47 0 .879.235 1.066.6h.05v-1.898h.553v4.779h-.552v-.546h-.051c-.21.381-.59.606-1.066.606Zm.127-.488c.622 0 1.002-.489 1.002-1.28v-.006c0-.79-.38-1.278-1.002-1.278-.625 0-.997.482-.997 1.279v.006c0 .796.372 1.279.997 1.279Zm3.998.488c-.978 0-1.568-.685-1.568-1.758v-.003c0-1.056.603-1.78 1.533-1.78.93 0 1.494.692 1.494 1.714v.215h-2.462c.016.708.406 1.12 1.015 1.12.464 0 .75-.218.841-.425l.013-.028h.552l-.006.025c-.118.463-.606.92-1.412.92Zm-.038-3.049c-.508 0-.895.346-.955.996h1.89c-.056-.676-.43-.996-.935-.996Zm3.57 3.014c-.705 0-1-.26-1-.913V30.03h-.54v-.457h.54v-.885h.571v.885h.749v.457h-.749v1.936c0 .403.14.565.495.565.099 0 .152-.003.254-.013v.47a1.831 1.831 0 0 1-.32.031Zm2.49.035c-.977 0-1.567-.685-1.567-1.758v-.003c0-1.056.603-1.78 1.532-1.78.93 0 1.495.692 1.495 1.714v.215h-2.462c.016.708.406 1.12 1.015 1.12.463 0 .749-.218.84-.425l.014-.028h.552l-.007.025c-.117.463-.606.92-1.412.92Zm-.038-3.049c-.507 0-.894.346-.955.996h1.891c-.057-.676-.431-.996-.936-.996Zm3.754 3.05c-.958 0-1.57-.696-1.57-1.78v-.007c0-1.063.609-1.755 1.567-1.755.831 0 1.33.48 1.43 1.088l.004.02h-.549l-.003-.01c-.086-.336-.39-.61-.882-.61-.616 0-1.003.496-1.003 1.267v.006c0 .787.394 1.292 1.003 1.292.46 0 .752-.203.879-.584l.006-.02.546-.002-.006.034c-.14.62-.6 1.06-1.422 1.06Zm3.516-.036c-.705 0-1-.26-1-.913V30.03h-.54v-.457h.54v-.885h.572v.885h.748v.457h-.749v1.936c0 .403.14.565.496.565.098 0 .152-.003.253-.013v.47a1.832 1.832 0 0 1-.32.031Zm2.49.035c-.977 0-1.567-.685-1.567-1.758v-.003c0-1.056.603-1.78 1.533-1.78.93 0 1.494.692 1.494 1.714v.215H90.52c.016.708.406 1.12 1.015 1.12.464 0 .75-.218.841-.425l.013-.028h.552l-.006.025c-.118.463-.606.92-1.412.92Zm-.037-3.049c-.508 0-.895.346-.956.996h1.892c-.057-.676-.432-.996-.936-.996Zm3.617 3.05c-.866 0-1.434-.702-1.434-1.768v-.006c0-1.073.564-1.768 1.434-1.768.47 0 .879.235 1.066.6h.05v-1.898h.553v4.779h-.552v-.546h-.05c-.21.381-.591.606-1.067.606Zm.127-.49c.622 0 1.003-.488 1.003-1.278v-.006c0-.79-.381-1.28-1.003-1.28-.625 0-.996.483-.996 1.28v.006c0 .796.37 1.279.996 1.279Zm5.692.49c-.866 0-1.434-.702-1.434-1.768v-.006c0-1.073.565-1.768 1.434-1.768.47 0 .879.235 1.067.6h.05v-1.898h.552v4.779h-.552v-.546h-.05c-.21.381-.591.606-1.067.606Zm.127-.49c.622 0 1.003-.488 1.003-1.278v-.006c0-.79-.381-1.28-1.003-1.28-.625 0-.996.483-.996 1.28v.006c0 .796.371 1.279.996 1.279Zm3.748.49c-.778 0-1.177-.458-1.177-1.267v-2.215h.552v2.082c0 .616.222.91.768.91.602 0 .923-.367.923-.967v-2.025h.552v3.421h-.552v-.51h-.051c-.168.364-.514.57-1.015.57Zm2.649-.061v-3.42h.552v.507h.051c.13-.358.451-.568.914-.568.105 0 .222.013.276.022v.537a1.988 1.988 0 0 0-.339-.032c-.527 0-.902.333-.902.834v2.12h-.552Zm2.767-4.08a.382.382 0 0 1-.381-.381.382.382 0 1 1 .381.38Zm-.279 4.08v-3.42h.552v3.42h-.552Zm1.593 0v-3.42h.552v.513h.051c.171-.361.492-.574.996-.574.768 0 1.196.454 1.196 1.266v2.215h-.552v-2.081c0-.616-.254-.911-.799-.911-.546 0-.892.368-.892.968v2.024h-.552Zm5.204 1.206c-.825 0-1.352-.372-1.438-.933l.007-.003h.571l.003.003c.06.26.365.444.857.444.612 0 .977-.289.977-.793v-.692h-.051c-.215.378-.603.59-1.072.59-.885 0-1.434-.685-1.434-1.643v-.007c0-.958.552-1.653 1.447-1.653.482 0 .856.238 1.066.625h.038v-.565h.552v3.373c0 .765-.59 1.254-1.523 1.254Zm-.026-1.872c.635 0 1.016-.476 1.016-1.155v-.007c0-.679-.384-1.164-1.016-1.164-.634 0-.99.485-.99 1.164v.007c0 .679.356 1.155.99 1.155Zm5.62.691c-.704 0-1-.26-1-.913V30.03h-.539v-.457h.539v-.885h.572v.885h.748v.457h-.748v1.936c0 .403.139.565.495.565.098 0 .152-.003.253-.013v.47a1.817 1.817 0 0 1-.32.031Zm1.177-.025v-4.779h.552v1.872h.051c.171-.361.492-.574.996-.574.768 0 1.197.454 1.197 1.266v2.215h-.552v-2.081c0-.616-.254-.911-.8-.911s-.892.368-.892.968v2.024h-.552Zm5.191.06c-.977 0-1.567-.685-1.567-1.758v-.003c0-1.056.603-1.78 1.532-1.78.93 0 1.495.692 1.495 1.714v.215h-2.462c.016.708.406 1.12 1.015 1.12.463 0 .749-.218.841-.425l.013-.028h.552l-.007.025c-.117.463-.606.92-1.412.92Zm-.038-3.049c-.507 0-.895.346-.955.996h1.891c-.057-.676-.431-.996-.936-.996Zm5.15 2.989-1.266-3.42h.584l.936 2.817h.051l.936-2.818h.584l-1.266 3.421h-.559Zm2.847-4.08a.382.382 0 0 1 0-.762.381.381 0 0 1 0 .761Zm-.28 4.08v-3.42h.552v3.42h-.552Zm2.989.06c-.977 0-1.567-.685-1.567-1.758v-.003c0-1.056.603-1.78 1.532-1.78.93 0 1.495.692 1.495 1.714v.215h-2.462c.015.708.406 1.12 1.015 1.12.463 0 .749-.218.841-.425l.013-.028h.552l-.007.025c-.117.463-.606.92-1.412.92Zm-.038-3.049c-.507 0-.895.346-.955.996h1.891c-.057-.676-.431-.996-.936-.996Zm3.015 2.989-.959-3.42h.553l.672 2.735h.051l.765-2.736h.523l.765 2.736h.051l.672-2.736h.549l-.958 3.421h-.555l-.765-2.646h-.051l-.761 2.646h-.552Zm6.2 0v-3.42h.552v.507h.051c.13-.358.45-.568.914-.568.104 0 .222.013.276.022v.537a2 2 0 0 0-.34-.032c-.527 0-.901.333-.901.834v2.12h-.552Zm3.776.06c-.977 0-1.568-.685-1.568-1.758v-.003c0-1.056.603-1.78 1.533-1.78.93 0 1.495.692 1.495 1.714v.215h-2.463c.016.708.406 1.12 1.016 1.12.463 0 .748-.218.84-.425l.013-.028h.552l-.006.025c-.117.463-.606.92-1.412.92Zm-.038-3.049c-.508 0-.895.346-.955.996h1.891c-.057-.676-.432-.996-.936-.996Zm2.354 2.989v-3.42h.552v.513h.051c.172-.361.492-.574.997-.574.767 0 1.196.454 1.196 1.266v2.215h-.552v-2.081c0-.616-.254-.911-.8-.911s-.892.368-.892.968v2.024h-.552Zm5.058.06c-.866 0-1.434-.7-1.434-1.767v-.006c0-1.073.565-1.768 1.434-1.768.47 0 .879.235 1.066.6h.051v-1.898h.552v4.779h-.552v-.546h-.051c-.209.381-.59.606-1.066.606Zm.127-.488c.622 0 1.003-.489 1.003-1.28v-.006c0-.79-.381-1.278-1.003-1.278-.625 0-.996.482-.996 1.279v.006c0 .796.371 1.279.996 1.279Zm3.998.488c-.977 0-1.567-.685-1.567-1.758v-.003c0-1.056.603-1.78 1.532-1.78.93 0 1.495.692 1.495 1.714v.215h-2.462c.015.708.406 1.12 1.015 1.12.463 0 .749-.218.841-.425l.012-.028h.553l-.007.025c-.117.463-.606.92-1.412.92Zm-.038-3.049c-.508 0-.895.346-.955.996h1.891c-.057-.676-.431-.996-.936-.996Zm2.355 2.989v-3.42h.552v.507h.05c.131-.358.451-.568.914-.568.105 0 .222.013.276.022v.537a1.988 1.988 0 0 0-.339-.032c-.527 0-.901.333-.901.834v2.12h-.552Zm2.767-4.08a.382.382 0 0 1 0-.762.381.381 0 0 1 0 .761Zm-.28 4.08v-3.42h.552v3.42h-.552Zm1.593 0v-3.42h.552v.513h.051c.171-.361.492-.574.996-.574.768 0 1.197.454 1.197 1.266v2.215h-.552v-2.081c0-.616-.254-.911-.8-.911s-.892.368-.892.968v2.024h-.552Zm5.204 1.206c-.825 0-1.352-.372-1.437-.933l.006-.003h.571l.003.003c.061.26.365.444.857.444.612 0 .977-.289.977-.793v-.692h-.05c-.216.378-.603.59-1.073.59-.885 0-1.434-.685-1.434-1.643v-.007c0-.958.552-1.653 1.447-1.653.482 0 .857.238 1.066.625h.038v-.565h.552v3.373c0 .765-.59 1.254-1.523 1.254Zm-.025-1.872c.634 0 1.015-.476 1.015-1.155v-.007c0-.679-.384-1.164-1.015-1.164-.635 0-.99.485-.99 1.164v.007c0 .679.355 1.155.99 1.155Z"/>
    <mask id="path-15-inside-2_5587_6699" fill="#fff">
        <path d="M0 56.656h180.333v19.83H0v-19.83Z"/>
    </mask>
    <path fill="#37383F" d="M0 57.197h180.333v-1.083H0v1.083Z" mask="url(#path-15-inside-2_5587_6699)"/>
    <g stroke="#828599" stroke-linecap="round" stroke-linejoin="round" stroke-width=".542"
       clip-path="url(#clip0_5587_6699)">
        <path d="m11.102 66.3-4.874 4.874m4.874 0L6.228 66.3"/>
    </g>
    <path fill="#828599"
          d="M15.796 71.237v-4.96h1.701c1.471 0 2.341.918 2.341 2.475v.007c0 1.56-.866 2.478-2.34 2.478h-1.702Zm.619-.557h1.041c1.107 0 1.75-.708 1.75-1.914v-.007c0-1.21-.65-1.925-1.75-1.925h-1.041v3.846Zm4.736-3.864a.414.414 0 0 1-.412-.412.413.413 0 0 1 .825 0 .414.414 0 0 1-.413.413Zm-.302 4.421v-3.706h.598v3.706h-.598Zm2.997.066c-.825 0-1.392-.4-1.46-1.011h.611c.1.31.396.512.87.512.498 0 .852-.237.852-.574v-.007c0-.25-.189-.426-.646-.536l-.574-.138c-.694-.165-1.007-.467-1.007-1v-.003c0-.616.591-1.08 1.378-1.08.777 0 1.317.389 1.4.994h-.588c-.08-.292-.368-.495-.815-.495-.44 0-.763.227-.763.553v.007c0 .25.186.409.622.516l.57.137c.698.169 1.035.471 1.035 1v.007c0 .66-.642 1.117-1.485 1.117Zm2.413-.066v-3.706h.599v.564h.055c.165-.398.515-.629 1-.629.502 0 .852.265 1.024.65h.055c.2-.392.623-.65 1.135-.65.756 0 1.179.433 1.179 1.21v2.561h-.598v-2.423c0-.547-.251-.818-.774-.818-.515 0-.856.388-.856.859v2.382h-.598v-2.516c0-.44-.302-.725-.77-.725-.485 0-.852.422-.852.945v2.296h-.599Zm6.442-4.42a.414.414 0 0 1-.412-.413.413.413 0 0 1 .825 0 .414.414 0 0 1-.413.413Zm-.302 4.42v-3.706h.598v3.706H32.4Zm2.998.066c-.825 0-1.393-.4-1.462-1.011h.612c.1.31.396.512.87.512.498 0 .853-.237.853-.574v-.007c0-.25-.19-.426-.647-.536l-.574-.138c-.694-.165-1.007-.467-1.007-1v-.003c0-.616.591-1.08 1.378-1.08.777 0 1.317.389 1.4.994h-.588c-.08-.292-.368-.495-.815-.495-.44 0-.763.227-.763.553v.007c0 .25.186.409.622.516l.57.137c.699.169 1.036.471 1.036 1v.007c0 .66-.643 1.117-1.485 1.117Zm3.616 0c-.825 0-1.392-.4-1.461-1.011h.612c.1.31.395.512.87.512.498 0 .852-.237.852-.574v-.007c0-.25-.19-.426-.646-.536l-.575-.138c-.694-.165-1.007-.467-1.007-1v-.003c0-.616.592-1.08 1.379-1.08.777 0 1.316.389 1.399.994h-.588c-.079-.292-.368-.495-.815-.495-.44 0-.763.227-.763.553v.007c0 .25.186.409.622.516l.571.137c.698.169 1.035.471 1.035 1v.007c0 .66-.643 1.117-1.485 1.117Z"/>
    <rect width="6.679" height="6.679" x="78.929" y="65.398" stroke="#828599" stroke-width=".542" rx=".271"/>
    <path stroke="#828599" stroke-width=".542" d="M80.824 70.903v-2.888m2.889 2.888v-2.166m-1.445 2.166v-4.332"/>
    <g stroke="#828599" stroke-linecap="round" stroke-linejoin="round" stroke-width=".542"
       clip-path="url(#clip1_5587_6699)">
        <path d="m99.868 67.383.813-.812-.813-.812"/>
        <path d="M94.182 68.737a2.166 2.166 0 0 1 2.166-2.166h4.333m-5.687 3.52-.812.812.812.813"/>
        <path d="M100.681 68.737a2.168 2.168 0 0 1-2.166 2.166h-4.333"/>
    </g>
    <g stroke="#828599" stroke-width=".542" clip-path="url(#clip2_5587_6699)">
        <path d="M114.907 66.697v-.27h-.911a1.3 1.3 0 0 1-1.271-1.029h3.178c.017 0 .031.014.031.031v3.156a1.298 1.298 0 0 1-1.027-1.27v-.618Z"/>
        <path d="M113.186 68.43v-.27h-.912a1.3 1.3 0 0 1-1.269-1.027h3.178c.017 0 .031.014.031.03v3.157a1.3 1.3 0 0 1-1.028-1.27v-.62Z"/>
        <path d="M111.467 70.16v-.27h-.913a1.3 1.3 0 0 1-1.271-1.029h3.178c.017 0 .031.014.031.031v3.155a1.299 1.299 0 0 1-1.025-1.269v-.618Z"/>
    </g>
    <g stroke="#828599" stroke-linecap="round" stroke-linejoin="round" stroke-width=".542"
       clip-path="url(#clip3_5587_6699)">
        <path d="M131.198 67.733a.27.27 0 0 0 0-.383l-2.053-2.054a.268.268 0 0 0-.382 0l-1.94 1.945s-.939-.47-1.942.34a.276.276 0 0 0-.072.088.276.276 0 0 0-.012.22.276.276 0 0 0 .062.096l3.652 3.651a.269.269 0 0 0 .406-.028c.284-.378.73-1.154.342-1.93l1.939-1.945Zm-4.514 2.077-1.634 1.635"/>
    </g>
    <rect width="38.495" height="15.498" x="137.505" y="60.988" fill="#6063F6" rx="2.166"/>
    <g clip-path="url(#clip4_5587_6699)">
        <path stroke="#fff" stroke-linecap="round" stroke-width=".542"
              d="M146.17 71.986a3.249 3.249 0 1 0-3.249-3.249"/>
        <path fill="#fff" d="M146.892 68.737a.722.722 0 1 1-1.444 0 .722.722 0 0 1 1.444 0Z"/>
        <path stroke="#fff" stroke-linecap="round" stroke-linejoin="round" stroke-width=".542"
              d="M142.199 71.055h2.83m-1.276 1.276 1.276-1.276-1.276-1.277"/>
    </g>
    <path fill="#fff"
          d="M154.59 71.237v-4.403h-1.598v-.557h3.815v.557h-1.598v4.403h-.619Zm2.582 0v-3.706h.598v.55h.055c.141-.388.488-.615.99-.615.113 0 .24.014.299.024v.581a2.156 2.156 0 0 0-.368-.034c-.571 0-.976.36-.976.904v2.296h-.598Zm3.699.066c-.705 0-1.238-.427-1.238-1.1v-.007c0-.66.488-1.042 1.351-1.093l1.062-.066V68.7c0-.457-.278-.704-.832-.704-.443 0-.735.165-.832.453l-.003.01h-.598l.003-.02c.097-.58.66-.973 1.451-.973.904 0 1.409.464 1.409 1.234v2.537h-.598v-.546h-.055c-.234.395-.622.611-1.12.611Zm-.626-1.114c0 .374.32.594.749.594.609 0 1.052-.398 1.052-.928v-.337l-.99.062c-.564.035-.811.234-.811.602v.007Zm5.008 1.114c-1.038 0-1.701-.753-1.701-1.929v-.007c0-1.151.66-1.9 1.698-1.9.901 0 1.44.518 1.55 1.178l.004.02h-.595l-.003-.01c-.093-.364-.423-.66-.956-.66-.667 0-1.086.537-1.086 1.372v.007c0 .853.426 1.4 1.086 1.4.498 0 .815-.22.952-.633l.007-.021.591-.003-.007.037c-.151.67-.649 1.148-1.54 1.148Zm3.936 0c-1.058 0-1.698-.743-1.698-1.905v-.003c0-1.145.653-1.929 1.66-1.929 1.008 0 1.62.75 1.62 1.857v.233h-2.668c.017.767.44 1.214 1.1 1.214.502 0 .811-.237.911-.46l.014-.032h.598l-.007.028c-.127.502-.657.996-1.53.996Zm-.041-3.304c-.55 0-.969.375-1.035 1.08h2.049c-.062-.733-.467-1.08-1.014-1.08Z"/>
    <defs>
        <clipPath id="clip0_5587_6699">
            <path fill="#fff" d="M4.332 64.405h8.665v8.665H4.332z"/>
        </clipPath>
        <clipPath id="clip1_5587_6699">
            <path fill="#fff" d="M93.1 64.405h8.664v8.665H93.1z"/>
        </clipPath>
        <clipPath id="clip2_5587_6699">
            <path fill="#fff" d="M108.262 64.405h8.665v8.665h-8.665z"/>
        </clipPath>
        <clipPath id="clip3_5587_6699">
            <path fill="#fff" d="M123.425 64.405h8.665v8.665h-8.665z"/>
        </clipPath>
        <clipPath id="clip4_5587_6699">
            <path fill="#fff" d="M141.838 64.405h8.665v8.665h-8.665z"/>
        </clipPath>
    </defs>
</svg>