<svg xmlns="http://www.w3.org/2000/svg" fill="none" viewBox="0 0 167 86">
    <rect width="179.824" height="84.64" x=".255" y=".255" fill="#1A1B1E" rx="1.785"/>
    <rect width="179.824" height="84.64" x=".255" y=".255" stroke="#37383F" stroke-width=".51" rx="1.785"/>
    <mask id="path-2-inside-1_5587_6545" fill="#fff">
        <path d="M0 0h180.333v20.397H0V0Z"/>
    </mask>
    <path fill="#37383F" d="M180.333 19.887H0v1.02h180.333v-1.02Z" mask="url(#path-2-inside-1_5587_6545)"/>
    <rect width="12.238" height="12.238" x="4.079" y="4.079" fill="#3D2327" rx="2.04"/>
    <g clip-path="url(#clip0_5587_6545)">
        <path stroke="#DA2D5F" stroke-linecap="round" stroke-linejoin="round" stroke-width=".51"
              d="M10.198 11.218a1.02 1.02 0 1 0 0-2.04 1.02 1.02 0 0 0 0 2.04Z"/>
        <path fill="#DA2D5F" fill-rule="evenodd"
              d="M7.15 9.943A3.06 3.06 0 0 1 9.942 7.15v.512A2.55 2.55 0 0 0 7.66 9.944h-.51Zm0 .51a3.06 3.06 0 0 0 2.793 2.794v-.512a2.55 2.55 0 0 1-2.282-2.282H7.15Zm3.303 2.794v-.512a2.55 2.55 0 0 0 2.282-2.282h.512a3.06 3.06 0 0 1-2.794 2.794Zm2.794-3.304a3.06 3.06 0 0 0-2.794-2.794v.512a2.55 2.55 0 0 1 2.282 2.282h.512Z"
              clip-rule="evenodd"/>
    </g>
    <path fill="#fff"
          d="M21.017 12.198v-5.03h3.256v.757h-2.357v1.363h2.228v.714h-2.228v1.44h2.357v.756h-3.256Zm4.28 0v-3.81h.869v.586h.059c.129-.408.477-.648.98-.648.132 0 .268.017.351.042v.777a2.188 2.188 0 0 0-.432-.049c-.579 0-.958.345-.958.889v2.213h-.868Zm3.02 0v-3.81h.867v.586h.06c.128-.408.477-.648.979-.648.132 0 .268.017.352.042v.777a2.19 2.19 0 0 0-.432-.049c-.579 0-.959.345-.959.889v2.213h-.868Zm4.517.077c-1.144 0-1.834-.746-1.834-1.98v-.007c0-1.223.7-1.973 1.834-1.973 1.136 0 1.833.746 1.833 1.973v.007c0 1.234-.693 1.98-1.833 1.98Zm0-.704c.603 0 .944-.47.944-1.272v-.007c0-.802-.345-1.276-.944-1.276-.603 0-.948.474-.948 1.276v.007c0 .801.345 1.272.948 1.272Zm2.705.627v-3.81h.868v.586h.059c.129-.408.477-.648.98-.648.132 0 .268.017.351.042v.777a2.188 2.188 0 0 0-.432-.049c-.578 0-.958.345-.958.889v2.213h-.868Zm4.963 0v-5.03h.9V9.26h2.447V7.168h.896v5.03h-.896v-2.182h-2.447v2.182h-.9Zm7.042.077c-1.144 0-1.834-.746-1.834-1.98v-.007c0-1.223.7-1.973 1.834-1.973 1.136 0 1.833.746 1.833 1.973v.007c0 1.234-.694 1.98-1.833 1.98Zm0-.704c.603 0 .944-.47.944-1.272v-.007c0-.802-.345-1.276-.944-1.276-.603 0-.948.474-.948 1.276v.007c0 .801.345 1.272.948 1.272Zm4.203.645c-.874 0-1.234-.293-1.234-1.028V9.06h-.592v-.673h.592v-.934h.882v.934h.805v.673h-.805v1.92c0 .38.15.541.513.541.122 0 .188-.003.292-.014v.67a2.46 2.46 0 0 1-.453.038Zm2.709.06c-.97 0-1.555-.447-1.628-1.092v-.007h.861l.004.007c.09.265.345.45.777.45.432 0 .732-.196.732-.481v-.007c0-.223-.167-.37-.586-.464l-.617-.14c-.725-.16-1.07-.501-1.07-1.063v-.003c0-.687.627-1.16 1.527-1.16.927 0 1.481.46 1.537 1.076V9.4h-.816l-.003-.01c-.063-.24-.314-.436-.722-.436-.387 0-.665.188-.665.474v.004c0 .223.16.359.571.453l.617.136c.746.167 1.098.484 1.098 1.039v.007c0 .724-.68 1.21-1.617 1.21Zm2.492 1.188V8.388h.868v.597h.06c.209-.415.623-.66 1.157-.66.955 0 1.565.76 1.565 1.967v.007c0 1.213-.6 1.962-1.565 1.962-.523 0-.959-.258-1.158-.67h-.059v1.873h-.868Zm1.813-1.935c.592 0 .951-.467.951-1.23v-.007c0-.767-.359-1.234-.951-1.234-.59 0-.955.467-.955 1.23v.007c0 .764.366 1.234.955 1.234Zm4.357.746c-1.143 0-1.834-.746-1.834-1.98v-.007c0-1.223.701-1.973 1.834-1.973 1.136 0 1.833.746 1.833 1.973v.007c0 1.234-.693 1.98-1.833 1.98Zm0-.704c.603 0 .944-.47.944-1.272v-.007c0-.802-.344-1.276-.944-1.276-.603 0-.948.474-.948 1.276v.007c0 .801.345 1.272.948 1.272Zm4.204.645c-.875 0-1.234-.293-1.234-1.028V9.06h-.593v-.673h.593v-.934h.882v.934h.805v.673h-.805v1.92c0 .38.15.541.512.541.122 0 .188-.003.293-.014v.67a2.463 2.463 0 0 1-.453.038Z"/>
    <path fill="#ACAFBF"
          d="M4.63 34.555v-4.311h1.478c1.279 0 2.035.798 2.035 2.151v.006c0 1.357-.753 2.154-2.035 2.154H4.629Zm.537-.484h.905c.962 0 1.521-.615 1.521-1.664v-.006c0-1.052-.565-1.673-1.52-1.673h-.906v3.343Zm5.157.541c-.92 0-1.476-.645-1.476-1.655v-.003c0-.995.567-1.676 1.443-1.676.875 0 1.407.651 1.407 1.613v.203H9.38c.015.666.382 1.055.956 1.055.436 0 .705-.206.791-.4l.012-.027h.52l-.006.024c-.11.436-.57.866-1.33.866Zm-.036-2.871c-.478 0-.843.325-.9.938h1.781c-.053-.636-.406-.938-.881-.938Zm3.322 2.871c-.717 0-1.21-.346-1.27-.878h.532c.087.269.344.445.756.445.434 0 .741-.206.741-.5v-.005c0-.218-.164-.37-.562-.466l-.498-.12c-.604-.143-.876-.406-.876-.87v-.002c0-.535.514-.938 1.198-.938.675 0 1.145.337 1.216.863h-.51c-.07-.254-.32-.43-.709-.43-.382 0-.663.197-.663.481v.006c0 .218.161.355.54.448l.497.12c.606.146.9.409.9.87v.005c0 .574-.56.971-1.292.971Zm3.415 0c-.902 0-1.479-.654-1.479-1.676v-.006c0-1.001.574-1.652 1.476-1.652.783 0 1.252.45 1.348 1.025l.003.017h-.517l-.003-.008c-.08-.317-.368-.574-.83-.574-.58 0-.945.466-.945 1.192v.006c0 .74.37 1.216.944 1.216.434 0 .709-.191.828-.55l.006-.018.514-.003-.006.033c-.132.583-.565.998-1.339.998Zm2.107-.057v-3.22h.52v.477h.047c.123-.337.425-.534.86-.534.1 0 .21.012.26.02v.506a1.874 1.874 0 0 0-.319-.03c-.496 0-.848.313-.848.785v1.996h-.52Zm2.605-3.842a.36.36 0 0 1-.358-.358.36.36 0 0 1 .358-.36.36.36 0 0 1 .359.36.36.36 0 0 1-.359.358Zm-.263 3.842v-3.22h.52v3.22h-.52Zm1.5 1.076v-4.297h.52v.514h.048c.197-.358.555-.57 1.004-.57.815 0 1.35.66 1.35 1.664v.006c0 1.01-.532 1.664-1.35 1.664-.443 0-.828-.221-1.004-.565h-.048v1.584h-.52Zm1.452-1.48c.589 0 .938-.453.938-1.203v-.006c0-.75-.35-1.204-.938-1.204-.585 0-.944.46-.944 1.204v.006c0 .744.358 1.204.944 1.204Zm3.427.428c-.663 0-.941-.245-.941-.86v-1.954h-.508v-.43h.508V30.5h.538v.833h.705v.43h-.705v1.823c0 .38.131.532.466.532.093 0 .143-.003.239-.012v.442c-.102.018-.2.03-.302.03Zm1.354-3.866a.36.36 0 0 1-.359-.358.36.36 0 0 1 .359-.36.36.36 0 0 1 .358.36.36.36 0 0 1-.358.358Zm-.263 3.842v-3.22h.52v3.22h-.52Zm2.823.057c-.917 0-1.485-.633-1.485-1.664v-.006c0-1.034.568-1.664 1.485-1.664.917 0 1.485.63 1.485 1.664v.006c0 1.03-.568 1.664-1.485 1.664Zm0-.46c.61 0 .953-.445.953-1.204v-.006c0-.762-.343-1.204-.953-1.204-.61 0-.953.442-.953 1.204v.006c0 .759.344 1.204.953 1.204Zm2.292.403v-3.22h.52v.483h.047c.162-.34.464-.54.939-.54.723 0 1.126.427 1.126 1.192v2.085h-.52v-1.96c0-.58-.239-.857-.753-.857s-.84.346-.84.911v1.906h-.52Z"/>
    <g clip-path="url(#clip1_5587_6545)">
        <path fill="#fff"
              d="M4.675 43.555v-4.67h.676l1.6 3.897h.051l1.6-3.897h.676v4.67h-.544v-3.567h-.036l-1.476 3.567H6.73l-1.476-3.567H5.22v3.567h-.544Zm6.68.062c-.663 0-1.165-.402-1.165-1.036v-.006c0-.622.46-.981 1.272-1.03l1-.061v-.317c0-.43-.262-.664-.783-.664-.417 0-.692.155-.783.427l-.003.01h-.564l.004-.02c.09-.546.621-.915 1.366-.915.85 0 1.327.436 1.327 1.162v2.388h-.563v-.514h-.052c-.22.372-.586.576-1.055.576Zm-.588-1.049c0 .353.3.56.705.56.573 0 .99-.375.99-.874v-.317l-.932.058c-.53.033-.763.22-.763.567v.006Zm3.58-3.175a.39.39 0 0 1-.39-.389.39.39 0 0 1 .39-.388.39.39 0 0 1 .388.388.39.39 0 0 1-.389.389Zm-.79 5.36h-.098v-.499h.085c.378 0 .52-.132.52-.517v-3.67h.564v3.66c0 .718-.34 1.026-1.071 1.026Zm3.57-1.136c-.994 0-1.609-.686-1.609-1.803v-.007c0-1.12.615-1.802 1.609-1.802.993 0 1.608.682 1.608 1.802v.007c0 1.117-.615 1.803-1.608 1.803Zm0-.499c.66 0 1.032-.482 1.032-1.304v-.007c0-.825-.372-1.304-1.032-1.304s-1.033.48-1.033 1.304v.007c0 .822.372 1.304 1.033 1.304Zm2.482.437v-3.489h.563v.518h.052c.133-.366.46-.58.933-.58.106 0 .226.014.281.023v.547a2.029 2.029 0 0 0-.346-.032c-.538 0-.92.34-.92.851v2.162h-.563Zm5.813.062c-.996 0-1.598-.7-1.598-1.793v-.004c0-1.078.615-1.815 1.563-1.815s1.524.705 1.524 1.747v.22H24.4c.016.722.414 1.143 1.036 1.143.472 0 .763-.223.857-.434l.013-.029h.563l-.006.026c-.12.473-.618.939-1.44.939Zm-.038-3.11c-.518 0-.913.352-.975 1.016h1.93c-.059-.69-.44-1.017-.955-1.017Zm2.401 3.048v-3.489h.564v.518h.051c.133-.366.46-.58.933-.58.106 0 .226.014.281.023v.547a2.03 2.03 0 0 0-.346-.032c-.538 0-.92.34-.92.851v2.162h-.563Zm2.59 0v-3.489h.563v.518h.052c.133-.366.46-.58.932-.58.107 0 .226.014.282.023v.547a2.03 2.03 0 0 0-.347-.032c-.537 0-.919.34-.919.851v2.162h-.563Zm3.861.062c-.993 0-1.608-.686-1.608-1.803v-.007c0-1.12.615-1.802 1.608-1.802.994 0 1.609.682 1.609 1.802v.007c0 1.117-.615 1.803-1.609 1.803Zm0-.499c.66 0 1.033-.482 1.033-1.304v-.007c0-.825-.372-1.304-1.033-1.304-.66 0-1.032.48-1.032 1.304v.007c0 .822.372 1.304 1.032 1.304Zm2.483.437v-3.489h.563v.518h.052c.133-.366.46-.58.932-.58.107 0 .227.014.282.023v.547a2.028 2.028 0 0 0-.347-.032c-.537 0-.919.34-.919.851v2.162h-.563Zm3.657.062c-.776 0-1.31-.376-1.375-.952h.576c.094.291.372.483.819.483.47 0 .803-.224.803-.541V42.6c0-.236-.178-.4-.609-.505l-.54-.129c-.654-.155-.949-.44-.949-.942v-.003c0-.58.557-1.016 1.298-1.016.732 0 1.24.365 1.317.935h-.553c-.074-.275-.346-.466-.767-.466-.415 0-.719.214-.719.521v.007c0 .236.175.385.586.485l.537.13c.658.158.975.443.975.941v.007c0 .621-.606 1.052-1.399 1.052Zm5.57 0c-.993 0-1.608-.686-1.608-1.803v-.007c0-1.12.615-1.802 1.609-1.802s1.608.682 1.608 1.802v.007c0 1.117-.614 1.803-1.608 1.803Zm0-.499c.661 0 1.033-.482 1.033-1.304v-.007c0-.825-.372-1.304-1.032-1.304s-1.033.48-1.033 1.304v.007c0 .822.373 1.304 1.033 1.304Zm3.91.499c-.977 0-1.601-.71-1.601-1.816v-.007c0-1.084.621-1.79 1.599-1.79.848 0 1.356.49 1.46 1.11l.003.02h-.56l-.003-.01c-.088-.343-.399-.621-.9-.621-.628 0-1.023.505-1.023 1.291v.007c0 .803.401 1.317 1.023 1.317.469 0 .767-.207.896-.595l.007-.02.556-.003-.006.036c-.143.63-.612 1.08-1.45 1.08Zm3.71 0c-.977 0-1.602-.71-1.602-1.816v-.007c0-1.084.622-1.79 1.599-1.79.848 0 1.356.49 1.46 1.11l.003.02h-.56l-.003-.01c-.088-.343-.398-.621-.9-.621-.628 0-1.023.505-1.023 1.291v.007c0 .803.401 1.317 1.023 1.317.47 0 .767-.207.897-.595l.006-.02.557-.003-.007.036c-.142.63-.611 1.08-1.45 1.08Zm3.45 0c-.792 0-1.2-.466-1.2-1.292v-2.259h.563v2.123c0 .628.227.93.783.93.615 0 .942-.376.942-.988v-2.065h.563v3.49h-.563v-.522h-.052c-.171.372-.524.583-1.035.583Zm2.703-.062v-3.489h.563v.518h.052c.133-.366.46-.58.932-.58.107 0 .227.014.282.023v.547a2.029 2.029 0 0 0-.346-.032c-.538 0-.92.34-.92.851v2.162h-.563Zm5.823.062c-.993 0-1.608-.686-1.608-1.803v-.007c0-1.12.615-1.802 1.608-1.802.994 0 1.609.682 1.609 1.802v.007c0 1.117-.615 1.803-1.609 1.803Zm0-.499c.66 0 1.033-.482 1.033-1.304v-.007c0-.825-.373-1.304-1.033-1.304-.66 0-1.032.48-1.032 1.304v.007c0 .822.372 1.304 1.032 1.304Zm2.483.437v-3.489h.563v.518h.052c.132-.366.46-.58.932-.58.107 0 .227.014.282.023v.547a2.028 2.028 0 0 0-.347-.032c-.537 0-.919.34-.919.851v2.162h-.563Zm4.389 1.166v-4.655h.563v.557h.052c.214-.389.602-.618 1.087-.618.884 0 1.463.715 1.463 1.802v.007c0 1.094-.576 1.803-1.463 1.803-.479 0-.896-.24-1.087-.612h-.052v1.715h-.563Zm1.573-1.603c.638 0 1.016-.492 1.016-1.304v-.007c0-.812-.378-1.304-1.016-1.304-.634 0-1.023.498-1.023 1.304v.007c0 .806.389 1.304 1.023 1.304Zm2.473.437v-3.489h.563v.518h.052c.132-.366.46-.58.932-.58.107 0 .227.014.282.023v.547a2.028 2.028 0 0 0-.347-.032c-.537 0-.919.34-.919.851v2.162h-.563Zm3.861.062c-.993 0-1.608-.686-1.608-1.803v-.007c0-1.12.615-1.802 1.608-1.802.994 0 1.609.682 1.609 1.802v.007c0 1.117-.615 1.803-1.609 1.803Zm0-.499c.66 0 1.033-.482 1.033-1.304v-.007c0-.825-.372-1.304-1.033-1.304-.66 0-1.032.48-1.032 1.304v.007c0 .822.372 1.304 1.032 1.304Zm2.483 1.602v-4.654h.563v.557h.052c.213-.389.602-.618 1.088-.618.883 0 1.462.715 1.462 1.802v.007c0 1.094-.576 1.803-1.462 1.803-.48 0-.897-.24-1.088-.612h-.052v1.715h-.563Zm1.573-1.602c.638 0 1.016-.492 1.016-1.304v-.007c0-.812-.378-1.304-1.016-1.304-.634 0-1.023.498-1.023 1.304v.007c0 .806.389 1.304 1.023 1.304Zm3.431.499c-.664 0-1.165-.402-1.165-1.036v-.006c0-.622.46-.981 1.272-1.03l1-.061v-.317c0-.43-.262-.664-.783-.664-.418 0-.693.155-.784.427l-.003.01h-.563l.003-.02c.09-.546.622-.915 1.366-.915.851 0 1.327.436 1.327 1.162v2.388h-.563v-.514h-.052c-.22.372-.586.576-1.055.576Zm-.59-1.049c0 .353.302.56.706.56.573 0 .99-.375.99-.874v-.317l-.931.058c-.531.033-.764.22-.764.567v.006Zm4.727 2.217c-.842 0-1.38-.378-1.467-.951l.007-.004h.582l.004.004c.061.265.372.453.874.453.624 0 .997-.295.997-.81v-.705h-.052c-.22.385-.615.602-1.094.602-.903 0-1.463-.7-1.463-1.677v-.006c0-.978.563-1.686 1.476-1.686.492 0 .874.242 1.087.637h.039v-.576h.563v3.44c0 .78-.602 1.28-1.553 1.28Zm-.026-1.91c.647 0 1.035-.485 1.035-1.178v-.006c0-.693-.391-1.188-1.035-1.188-.648 0-1.01.495-1.01 1.188v.006c0 .693.362 1.179 1.01 1.179Zm3.586.742c-.664 0-1.165-.402-1.165-1.036v-.006c0-.622.46-.981 1.272-1.03l1-.061v-.317c0-.43-.262-.664-.783-.664-.418 0-.693.155-.784.427l-.003.01h-.563l.003-.02c.09-.546.622-.915 1.366-.915.851 0 1.327.436 1.327 1.162v2.388h-.563v-.514h-.052c-.22.372-.586.576-1.055.576Zm-.59-1.049c0 .353.302.56.706.56.573 0 .991-.375.991-.874v-.317l-.932.058c-.531.033-.764.22-.764.567v.006Zm4.53 1.013c-.72 0-1.02-.265-1.02-.932v-2.117h-.55v-.466h.55v-.903h.582v.903h.764v.466h-.764v1.975c0 .41.143.576.505.576.1 0 .156-.003.259-.013v.479c-.11.02-.217.032-.327.032Zm2.54.036c-.997 0-1.599-.7-1.599-1.793v-.004c0-1.078.615-1.815 1.563-1.815.949 0 1.525.705 1.525 1.747v.22h-2.512c.016.722.414 1.143 1.036 1.143.473 0 .764-.223.858-.434l.013-.029h.563l-.007.026c-.119.473-.618.939-1.44.939Zm-.039-3.11c-.518 0-.913.352-.974 1.016h1.929c-.058-.69-.44-1.017-.955-1.017ZM5.843 52.58c-.718 0-1.02-.265-1.02-.932v-2.117h-.55v-.466h.55v-.903h.583v.903h.764v.466h-.764v1.975c0 .41.143.576.505.576.1 0 .156-.003.26-.013v.479c-.11.02-.218.032-.328.032Zm1.201-.026V47.68h.563v1.91h.052c.175-.37.502-.586 1.017-.586.783 0 1.22.462 1.22 1.291v2.26h-.563v-2.124c0-.628-.26-.929-.816-.929-.557 0-.91.376-.91.987v2.065h-.563Zm3.871 0v-3.489h.564v.518h.051c.133-.366.46-.58.933-.58.106 0 .226.014.281.023v.547a2.028 2.028 0 0 0-.346-.032c-.537 0-.92.34-.92.851v2.162h-.563Zm3.862.062c-.994 0-1.609-.686-1.609-1.803v-.007c0-1.12.615-1.802 1.609-1.802s1.609.682 1.609 1.802v.007c0 1.117-.615 1.803-1.61 1.803Zm0-.499c.66 0 1.032-.482 1.032-1.304v-.007c0-.825-.372-1.304-1.032-1.304s-1.033.48-1.033 1.304v.007c0 .822.373 1.304 1.033 1.304Zm3.65.499c-.792 0-1.2-.466-1.2-1.292v-2.259h.563v2.123c0 .628.227.93.784.93.614 0 .941-.376.941-.988v-2.065h.564v3.49h-.564v-.522h-.051c-.172.372-.525.583-1.036.583Zm4.14 1.168c-.84 0-1.378-.378-1.465-.951l.006-.004h.583l.003.004c.061.265.372.453.874.453.624 0 .997-.295.997-.81v-.705h-.052c-.22.385-.615.602-1.094.602-.903 0-1.463-.7-1.463-1.677v-.006c0-.978.563-1.686 1.476-1.686.492 0 .874.242 1.087.637h.04v-.576h.562v3.44c0 .78-.602 1.28-1.553 1.28Zm-.025-1.91c.647 0 1.036-.485 1.036-1.178v-.006c0-.693-.392-1.188-1.036-1.188-.648 0-1.01.495-1.01 1.188v.006c0 .693.363 1.179 1.01 1.179Zm2.66.68V47.68h.564v1.91h.051c.175-.37.502-.586 1.017-.586.783 0 1.22.462 1.22 1.291v2.26h-.563v-2.124c0-.628-.26-.929-.816-.929-.557 0-.91.376-.91.987v2.065h-.563Zm6.976.026c-.719 0-1.02-.265-1.02-.932v-2.117h-.55v-.466h.55v-.903h.583v.903h.764v.466h-.764v1.975c0 .41.142.576.505.576.1 0 .155-.003.259-.013v.479c-.11.02-.217.032-.327.032Zm1.2-.026V47.68h.564v1.91h.051c.175-.37.502-.586 1.017-.586.783 0 1.22.462 1.22 1.291v2.26h-.563v-2.124c0-.628-.259-.929-.816-.929-.556 0-.91.376-.91.987v2.065h-.563Zm4.17-4.162a.39.39 0 0 1-.389-.389.39.39 0 0 1 .389-.388.39.39 0 0 1 .388.388.39.39 0 0 1-.389.389Zm-.285 4.162v-3.489h.563v3.49h-.563Zm2.822.062c-.777 0-1.31-.376-1.376-.952h.577c.093.291.372.483.819.483.469 0 .802-.224.802-.541V51.6c0-.236-.178-.4-.608-.505l-.54-.129c-.655-.155-.95-.44-.95-.942v-.003c0-.58.558-1.016 1.299-1.016.731 0 1.24.365 1.317.935h-.553c-.075-.275-.347-.466-.767-.466-.415 0-.719.214-.719.521v.007c0 .236.175.385.586.485l.537.13c.657.158.974.443.974.941v.007c0 .621-.605 1.052-1.398 1.052Zm4.37-.062v-3.023h-.58v-.466h.58v-.388c0-.696.35-1.03 1.013-1.03.136 0 .259.01.375.033v.45a1.538 1.538 0 0 0-.262-.017c-.401 0-.563.198-.563.58v.372h.793v.466h-.793v3.023h-.563Zm3.337.062c-.793 0-1.201-.466-1.201-1.292v-2.259h.563v2.123c0 .628.227.93.783.93.616 0 .942-.376.942-.988v-2.065h.564v3.49h-.564v-.522h-.051c-.172.372-.525.583-1.036.583Zm2.703-.062v-3.489h.563v.524h.051c.175-.369.502-.585 1.017-.585.783 0 1.22.462 1.22 1.291v2.26h-.563v-2.124c0-.628-.259-.929-.816-.929-.556 0-.91.376-.91.987v2.065h-.563Zm5.298.062c-.977 0-1.602-.71-1.602-1.816v-.007c0-1.084.621-1.79 1.599-1.79.848 0 1.356.49 1.46 1.11l.003.02h-.56l-.003-.01c-.088-.343-.398-.621-.9-.621-.628 0-1.023.505-1.023 1.291v.007c0 .803.401 1.317 1.023 1.317.47 0 .767-.207.897-.595l.006-.02.557-.003-.007.036c-.142.63-.612 1.08-1.45 1.08Zm3.586-.036c-.718 0-1.02-.265-1.02-.932v-2.117h-.55v-.466h.55v-.903h.584v.903h.763v.466h-.764v1.975c0 .41.143.576.505.576.1 0 .156-.003.26-.013v.479c-.11.02-.218.032-.328.032Zm1.467-4.188a.39.39 0 0 1-.389-.389.39.39 0 0 1 .389-.388.39.39 0 0 1 .388.388.39.39 0 0 1-.388.389Zm-.285 4.162v-3.489h.563v3.49h-.563Zm3.059.062c-.994 0-1.61-.686-1.61-1.803v-.007c0-1.12.616-1.802 1.61-1.802.993 0 1.608.682 1.608 1.802v.007c0 1.117-.615 1.803-1.608 1.803Zm0-.499c.66 0 1.032-.482 1.032-1.304v-.007c0-.825-.372-1.304-1.032-1.304s-1.033.48-1.033 1.304v.007c0 .822.372 1.304 1.033 1.304Zm2.482.437v-3.489h.563v.524h.052c.175-.369.502-.585 1.017-.585.783 0 1.22.462 1.22 1.291v2.26h-.563v-2.124c0-.628-.26-.929-.816-.929-.557 0-.91.376-.91.987v2.065h-.563Z"/>
    </g>
    <path fill="#ACAFBF"
          d="M129.265 34.998c-.944 0-1.553-.496-1.616-1.198l-.003-.033h.538l.003.033c.039.43.487.702 1.108.702.586 0 1.013-.302 1.013-.74v-.004c0-.358-.248-.603-.84-.735l-.478-.104c-.863-.191-1.237-.589-1.237-1.213v-.003c.003-.714.628-1.22 1.518-1.22.861 0 1.461.509 1.506 1.15l.003.043h-.538l-.006-.04c-.059-.378-.418-.66-.98-.656-.537.003-.953.257-.953.708v.003c0 .343.236.576.822.705l.478.107c.899.2 1.255.562 1.255 1.184v.003c0 .806-.631 1.308-1.593 1.308Zm3.741-.045c-.902 0-1.479-.654-1.479-1.676v-.006c0-1 .574-1.652 1.476-1.652.783 0 1.252.451 1.347 1.025l.003.018h-.516l-.003-.01c-.081-.316-.368-.573-.831-.573-.58 0-.944.466-.944 1.192v.006c0 .741.37 1.216.944 1.216.433 0 .708-.191.828-.55l.006-.017.513-.003-.005.032c-.132.583-.565.998-1.339.998Zm3.43 0c-.917 0-1.485-.633-1.485-1.664v-.006c0-1.034.568-1.664 1.485-1.664.917 0 1.485.63 1.485 1.664v.006c0 1.031-.568 1.664-1.485 1.664Zm0-.46c.609 0 .953-.445.953-1.204v-.006c0-.762-.344-1.204-.953-1.204-.61 0-.953.442-.953 1.204v.006c0 .76.343 1.204.953 1.204Zm2.292.404v-3.221h.519v.478h.048c.123-.338.425-.535.861-.535.098 0 .209.012.26.02v.506a1.866 1.866 0 0 0-.32-.03c-.496 0-.849.314-.849.786v1.996h-.519Zm3.555.056c-.92 0-1.476-.645-1.476-1.655v-.003c0-.995.568-1.676 1.443-1.676.876 0 1.407.651 1.407 1.613v.204h-2.318c.015.666.382 1.054.956 1.054.436 0 .705-.206.792-.4l.012-.027h.52l-.006.024c-.111.436-.571.866-1.33.866Zm-.036-2.87c-.478 0-.842.325-.899.937h1.781c-.054-.636-.407-.938-.882-.938Z"/>
    <rect width="12.238" height="12.238" x="127.302" y="41.976" fill="#3D2327" rx="2.04"/>
    <path fill="#DA2D5F"
          d="M131.945 49.705c-.854 0-1.757-.602-1.757-2.36v-.006c0-1.593.663-2.525 1.796-2.525.783 0 1.366.46 1.525 1.15l.009.041h-.585l-.013-.035c-.143-.392-.47-.635-.942-.635-.848 0-1.195.829-1.23 1.803-.004.036-.004.075-.004.11h.062c.172-.382.612-.721 1.243-.721.877 0 1.531.666 1.531 1.563v.006c0 .933-.693 1.609-1.635 1.609Zm-1.061-1.615c0 .615.463 1.1 1.055 1.1a1.06 1.06 0 0 0 1.055-1.08v-.007c0-.622-.44-1.068-1.045-1.068-.606 0-1.065.443-1.065 1.052v.003Zm4.774 1.505v-4.023h-.052l-1.188.86v-.614l1.243-.894h.58v4.671h-.583Z"/>
    <mask id="path-14-inside-2_5587_6545" fill="#fff">
        <path d="M0 62.714h180.333V85.15H0V62.714Z"/>
    </mask>
    <path fill="#37383F" d="M0 63.224h180.333v-1.02H0v1.02Z" mask="url(#path-14-inside-2_5587_6545)"/>
    <g stroke="#828599" stroke-linecap="round" stroke-linejoin="round" stroke-width=".51"
       clip-path="url(#clip2_5587_6545)">
        <path d="m12.94 72.211-3.443 3.442m3.443 0-3.443-3.442"/>
    </g>
    <path fill="#828599"
          d="M16.867 75.432v-4.311h1.479c1.279 0 2.035.797 2.035 2.15v.007c0 1.356-.753 2.154-2.035 2.154h-1.479Zm.538-.484h.905c.962 0 1.52-.615 1.52-1.664v-.006c0-1.052-.564-1.673-1.52-1.673h-.905v3.343Zm4.117-3.358a.36.36 0 0 1-.358-.359.36.36 0 0 1 .358-.358.36.36 0 0 1 .359.358.36.36 0 0 1-.359.359Zm-.263 3.842v-3.22h.52v3.22h-.52Zm2.605.057c-.717 0-1.21-.347-1.27-.879h.532c.087.27.344.445.756.445.434 0 .741-.206.741-.498v-.006c0-.219-.164-.37-.561-.466l-.5-.12c-.603-.143-.875-.406-.875-.87v-.002c0-.535.514-.939 1.198-.939.676 0 1.145.338 1.216.864h-.51c-.07-.254-.32-.43-.709-.43-.382 0-.663.197-.663.48v.007c0 .218.161.355.54.448l.497.12c.606.146.9.409.9.869v.006c0 .573-.56.97-1.292.97Zm2.098-.057v-3.22h.52v.49h.047c.144-.347.449-.548.87-.548.436 0 .74.23.89.565h.048c.173-.34.54-.565.986-.565.657 0 1.025.377 1.025 1.052v2.226h-.52v-2.106c0-.475-.218-.711-.672-.711-.448 0-.744.337-.744.747v2.07h-.52v-2.187c0-.383-.263-.63-.67-.63-.42 0-.74.367-.74.821v1.996h-.52Zm5.599-3.842a.36.36 0 0 1-.359-.359.36.36 0 0 1 .359-.358.36.36 0 0 1 .358.358.36.36 0 0 1-.358.359Zm-.263 3.842v-3.22h.52v3.22h-.52Zm2.605.057c-.717 0-1.21-.347-1.27-.879h.532c.087.27.344.445.756.445.434 0 .741-.206.741-.498v-.006c0-.219-.164-.37-.561-.466l-.5-.12c-.603-.143-.875-.406-.875-.87v-.002c0-.535.514-.939 1.198-.939.675 0 1.145.338 1.216.864h-.51c-.07-.254-.32-.43-.709-.43-.382 0-.663.197-.663.48v.007c0 .218.161.355.54.448l.497.12c.606.146.9.409.9.869v.006c0 .573-.56.97-1.292.97Zm3.144 0c-.718 0-1.21-.347-1.27-.879h.532c.086.27.343.445.755.445.434 0 .741-.206.741-.498v-.006c0-.219-.164-.37-.561-.466l-.5-.12c-.603-.143-.875-.406-.875-.87v-.002c0-.535.514-.939 1.198-.939.676 0 1.145.338 1.216.864h-.51c-.07-.254-.32-.43-.709-.43-.382 0-.663.197-.663.48v.007c0 .218.161.355.54.448l.497.12c.606.146.9.409.9.869v.006c0 .573-.56.97-1.291.97Z"/>
    <rect width="55.357" height="14.278" x="120.897" y="66.793" fill="#6063F6" rx="2.04"/>
    <g stroke="#fff" stroke-linecap="round" stroke-linejoin="round" stroke-width=".51"
       clip-path="url(#clip3_5587_6545)">
        <path d="m131.35 72.657.765-.765-.765-.765"/>
        <path d="M125.996 73.932a2.038 2.038 0 0 1 2.04-2.04h4.079m-5.354 3.315-.765.765.765.765"/>
        <path d="M132.115 73.932a2.041 2.041 0 0 1-2.039 2.04h-4.08"/>
    </g>
    <path fill="#fff"
          d="M135.77 75.432v-4.67h1.784c.9 0 1.489.55 1.489 1.388v.006c0 .648-.353 1.153-.939 1.337l1.081 1.939h-.683l-1-1.848h-1.149v1.848h-.583Zm.583-2.366h1.149c.599 0 .939-.32.939-.89v-.007c0-.556-.363-.89-.965-.89h-1.123v1.787Zm5.004 2.427c-.997 0-1.599-.699-1.599-1.793v-.003c0-1.078.615-1.816 1.563-1.816.949 0 1.525.706 1.525 1.748v.22h-2.512c.016.722.415 1.143 1.036 1.143.473 0 .764-.224.858-.434l.013-.03h.563l-.007.027c-.119.472-.618.938-1.44.938Zm-.039-3.11c-.518 0-.913.353-.974 1.016h1.929c-.058-.69-.44-1.016-.955-1.016Zm3.829 3.11c-.977 0-1.602-.708-1.602-1.815v-.007c0-1.084.622-1.79 1.599-1.79.848 0 1.356.489 1.46 1.11l.003.02h-.56l-.003-.01c-.087-.343-.398-.621-.9-.621-.628 0-1.023.505-1.023 1.291v.007c0 .802.402 1.317 1.023 1.317.469 0 .767-.207.897-.596l.006-.019.557-.003-.007.035c-.142.632-.611 1.081-1.45 1.081Zm3.24 0c-.663 0-1.165-.4-1.165-1.035v-.007c0-.621.46-.98 1.272-1.029l1-.061v-.318c0-.43-.262-.663-.783-.663-.418 0-.693.155-.783.427l-.004.01h-.563l.003-.02c.091-.547.622-.916 1.366-.916.852 0 1.327.437 1.327 1.162v2.389h-.563v-.515h-.052c-.22.373-.585.576-1.055.576Zm-.589-1.048c0 .353.301.56.706.56.573 0 .99-.376.99-.874v-.317l-.932.058c-.531.032-.764.22-.764.566v.007Zm3.321.987v-4.875h.563v4.875h-.563Zm3.072.061c-.978 0-1.602-.708-1.602-1.815v-.007c0-1.084.621-1.79 1.599-1.79.848 0 1.356.489 1.459 1.11l.004.02h-.56l-.004-.01c-.087-.343-.398-.621-.899-.621-.628 0-1.023.505-1.023 1.291v.007c0 .802.401 1.317 1.023 1.317.469 0 .767-.207.896-.596l.007-.019.556-.003-.006.035c-.143.632-.612 1.081-1.45 1.081Zm3.45 0c-.793 0-1.201-.466-1.201-1.291v-2.26h.564v2.124c0 .628.226.929.783.929.615 0 .942-.375.942-.987v-2.065h.563v3.489h-.563v-.521h-.052c-.172.372-.524.582-1.036.582Zm2.735-.061v-4.875h.563v4.875h-.563Zm2.603.061c-.664 0-1.166-.4-1.166-1.035v-.007c0-.621.46-.98 1.272-1.029l1.001-.061v-.318c0-.43-.263-.663-.784-.663-.417 0-.692.155-.783.427l-.003.01h-.563l.003-.02c.09-.547.621-.916 1.366-.916.851 0 1.327.437 1.327 1.162v2.389h-.563v-.515h-.052c-.22.373-.586.576-1.055.576Zm-.589-1.048c0 .353.301.56.705.56.573 0 .991-.376.991-.874v-.317l-.933.058c-.53.032-.763.22-.763.566v.007Zm4.528 1.013c-.719 0-1.02-.266-1.02-.932v-2.117h-.55v-.466h.55v-.903h.583v.903h.764v.466h-.764v1.974c0 .411.142.576.505.576.1 0 .155-.003.259-.013v.48c-.11.019-.217.032-.327.032Zm2.541.035c-.997 0-1.599-.699-1.599-1.793v-.003c0-1.078.615-1.816 1.563-1.816s1.525.706 1.525 1.748v.22h-2.512c.016.722.414 1.143 1.036 1.143.472 0 .763-.224.857-.434l.013-.03h.563l-.006.027c-.12.472-.618.938-1.44.938Zm-.039-3.11c-.518 0-.913.353-.974 1.016h1.929c-.059-.69-.441-1.016-.955-1.016Z"/>
    <defs>
        <clipPath id="clip0_5587_6545">
            <path fill="#fff" d="M6.119 6.119h8.159v8.159H6.119z"/>
        </clipPath>
        <clipPath id="clip1_5587_6545">
            <rect width="110.652" height="17" x="4.079" y="37.555" fill="#fff" rx="2.04"/>
        </clipPath>
        <clipPath id="clip2_5587_6545">
            <path fill="#fff" d="M8.159 70.873h6.119v6.119h-6.12z"/>
        </clipPath>
        <clipPath id="clip3_5587_6545">
            <path fill="#fff" d="M124.977 69.853h8.159v8.159h-8.159z"/>
        </clipPath>
    </defs>
</svg>