<svg xmlns="http://www.w3.org/2000/svg" fill="none" viewBox="0 0 167 94">
    <rect width="179.792" height="108.773" x=".271" y=".271" fill="#1A1B1E" rx="1.895"/>
    <rect width="179.792" height="108.773" x=".271" y=".271" stroke="#37383F" stroke-width=".542" rx="1.895"/>
    <mask id="path-2-inside-1_5587_2626" fill="#fff">
        <path d="M0 0h180.333v21.662H0V0Z"/>
    </mask>
    <path fill="#37383F" d="M180.333 21.12H0v1.083h180.333V21.12Z" mask="url(#path-2-inside-1_5587_2626)"/>
    <rect width="12.997" height="12.997" x="4.332" y="4.332" fill="#2C344F" rx="2.166"/>
    <g clip-path="url(#clip0_5587_2626)">
        <path stroke="#2D87DA" stroke-linecap="round" stroke-linejoin="round" stroke-width=".542"
              d="M10.83 11.914a1.083 1.083 0 1 0 0-2.166 1.083 1.083 0 0 0 0 2.166Z"/>
        <path fill="#2D87DA" fill-rule="evenodd"
              d="M7.593 10.56a3.25 3.25 0 0 1 2.967-2.967v.543a2.709 2.709 0 0 0-2.423 2.424h-.544Zm0 .542a3.25 3.25 0 0 0 2.967 2.967v-.544a2.709 2.709 0 0 1-2.423-2.423h-.544Zm3.509 2.967v-.544a2.709 2.709 0 0 0 2.423-2.423h.544a3.25 3.25 0 0 1-2.967 2.967Zm2.967-3.509a3.25 3.25 0 0 0-2.967-2.967v.543a2.709 2.709 0 0 1 2.423 2.424h.544Z"
              clip-rule="evenodd"/>
    </g>
    <path fill="#fff"
          d="M24.175 13.964c-1.24 0-2.028-.61-2.095-1.533l-.004-.051h.926l.004.037c.044.448.521.744 1.199.744.644 0 1.096-.319 1.096-.778v-.003c0-.385-.278-.619-.966-.767l-.574-.118c-1.092-.23-1.566-.74-1.566-1.536v-.004c0-.955.822-1.6 1.977-1.6 1.184 0 1.92.648 1.988 1.507l.003.048h-.914l-.008-.044c-.066-.415-.462-.71-1.073-.707-.592 0-1.014.278-1.014.733v.004c0 .377.27.614.936.755l.574.122c1.125.237 1.595.689 1.595 1.496v.003c0 1.04-.803 1.692-2.084 1.692Zm4.402-.052c-.91 0-1.377-.548-1.377-1.51V9.785h.922v2.406c0 .625.233.944.788.944.596 0 .915-.385.915-.992V9.785h.921v4.046h-.921v-.615h-.063c-.19.433-.6.696-1.185.696Zm4.824 0c-1.03 0-1.652-.474-1.73-1.159v-.007h.915l.004.008c.096.28.366.477.825.477.46 0 .778-.207.778-.51v-.008c0-.237-.178-.393-.622-.492l-.655-.149c-.77-.17-1.137-.533-1.137-1.129v-.003c0-.73.667-1.233 1.622-1.233.984 0 1.573.488 1.632 1.144v.007h-.866l-.004-.011c-.066-.255-.333-.463-.766-.463-.411 0-.707.2-.707.504v.004c0 .236.17.38.607.48l.655.145c.792.178 1.166.515 1.166 1.103v.008c0 .77-.722 1.284-1.717 1.284Zm2.646 1.263v-5.39h.922v.633h.063c.222-.44.663-.7 1.23-.7 1.014 0 1.661.807 1.661 2.088v.007c0 1.288-.636 2.084-1.662 2.084-.555 0-1.018-.274-1.229-.71h-.063v1.988h-.922Zm1.925-2.055c.63 0 1.011-.496 1.011-1.307v-.007c0-.815-.381-1.31-1.01-1.31-.626 0-1.015.495-1.015 1.306v.008c0 .81.389 1.31 1.014 1.31Zm4.613.792c-1.203 0-1.932-.807-1.932-2.095v-.004c0-1.273.736-2.106 1.888-2.106 1.151 0 1.862.807 1.862 2.028v.304h-2.828c.01.726.403 1.148 1.029 1.148.5 0 .784-.252.873-.437l.011-.026h.878l-.011.033c-.13.522-.67 1.155-1.77 1.155Zm-.033-3.483c-.515 0-.9.348-.97.992h1.921c-.063-.663-.437-.992-.951-.992Zm4.509 3.483c-1.218 0-1.936-.788-1.936-2.11v-.007c0-1.307.714-2.088 1.932-2.088 1.04 0 1.662.577 1.766 1.414v.015h-.87l-.004-.011c-.085-.393-.385-.674-.888-.674-.63 0-1 .496-1 1.344v.007c0 .859.374 1.363 1 1.363.477 0 .77-.219.885-.645l.007-.014.87-.004-.008.03c-.133.829-.729 1.38-1.754 1.38Zm4.283-.063c-.93 0-1.31-.31-1.31-1.092V10.5h-.63v-.714h.63v-.993h.936v.993h.855v.714h-.855v2.04c0 .403.16.574.544.574.13 0 .2-.004.311-.015v.71a2.523 2.523 0 0 1-.481.041Zm3.095.063c-1.203 0-1.933-.807-1.933-2.095v-.004c0-1.273.737-2.106 1.888-2.106 1.152 0 1.862.807 1.862 2.028v.304h-2.828c.011.726.404 1.148 1.03 1.148.499 0 .784-.252.873-.437l.011-.026h.877l-.01.033c-.13.522-.67 1.155-1.77 1.155Zm-.034-3.483c-.514 0-.9.348-.97.992h1.922c-.063-.663-.437-.992-.952-.992Zm4.232 3.468c-1.015 0-1.659-.803-1.659-2.084v-.007c0-1.288.633-2.088 1.659-2.088.555 0 1.018.274 1.229.71h.063v-2.21h.925v5.613h-.925v-.633h-.063c-.222.44-.66.7-1.23.7Zm.288-.777c.63 0 1.019-.496 1.019-1.307v-.007c0-.81-.393-1.31-1.019-1.31-.625 0-1.01.495-1.01 1.31v.007c0 .815.381 1.307 1.01 1.307Zm5.205.71V8.49h.83l2.624 3.68h.06V8.49h.918v5.342h-.826l-2.625-3.68h-.059v3.68h-.922Zm5.542-1.735v-.837h1.622V9.655h.836v1.603h1.622v.837H72.13v1.602h-.836v-1.602h-1.622Zm6.394 1.736V9.429h-.063l-1.33.94v-.9l1.396-.98h.952v5.342h-.956Z"/>
    <g clip-path="url(#clip1_5587_2626)">
        <path stroke="#828599" stroke-linecap="round" stroke-linejoin="round" stroke-width=".542"
              d="M83.874 10.628a.203.203 0 0 1 .203.203v1.015a.203.203 0 0 0 .203.203"/>
        <path fill="#828599" d="M83.976 9.917a.203.203 0 1 0 0-.406.203.203 0 0 0 0 .406Z"/>
        <path stroke="#828599" stroke-linecap="round" stroke-linejoin="round" stroke-width=".542"
              d="M84.077 13.268a2.437 2.437 0 1 0 0-4.874 2.437 2.437 0 0 0 0 4.874Z"/>
    </g>
    <g clip-path="url(#clip2_5587_2626)">
        <circle cx="153.21" cy="10.831" r="1.625" fill="#6EBD9C"/>
        <path fill="#ACAFBF"
              d="m157.239 13.33 1.688-4.578h.565l1.688 4.579h-.6l-.46-1.31h-1.821l-.46 1.31h-.6Zm1.945-3.839-.717 2.044h1.485l-.717-2.044h-.051Zm3.938 3.9c-.959 0-1.571-.695-1.571-1.78v-.006c0-1.063.609-1.755 1.568-1.755.831 0 1.329.48 1.431 1.088l.003.02h-.549l-.003-.01c-.086-.337-.391-.61-.882-.61-.616 0-1.003.496-1.003 1.267v.006c0 .787.393 1.291 1.003 1.291.46 0 .752-.203.879-.583l.006-.02.546-.003-.007.035c-.139.619-.599 1.06-1.421 1.06Zm3.516-.035c-.705 0-1-.26-1-.914v-2.075h-.539V9.91h.539v-.885h.571v.885h.749v.457h-.749v1.936c0 .403.14.564.495.564.099 0 .152-.003.254-.012v.47a1.836 1.836 0 0 1-.32.031Zm1.437-4.106a.382.382 0 0 1-.381-.38c0-.21.172-.381.381-.381.209 0 .381.171.381.38 0 .21-.172.381-.381.381Zm-.279 4.08V9.91h.552v3.42h-.552Zm2.56 0-1.266-3.42h.584l.936 2.818h.051l.936-2.818h.584l-1.266 3.42h-.559Zm3.824.061c-.977 0-1.568-.685-1.568-1.758v-.003c0-1.057.603-1.78 1.533-1.78.93 0 1.495.692 1.495 1.713v.216h-2.463c.016.708.406 1.12 1.016 1.12.463 0 .749-.219.841-.425l.012-.029h.552l-.006.026c-.117.463-.606.92-1.412.92Zm-.038-3.05c-.508 0-.895.347-.955.997h1.891c-.057-.676-.432-.996-.936-.996Z"/>
    </g>
    <g filter="url(#filter0_d_5587_2626)">
        <rect width="152.173" height="15.163" x="4.332" y="37.16" fill="#222326" rx="2.166"
              shape-rendering="crispEdges"/>
        <rect width="151.632" height="14.622" x="4.603" y="37.431" stroke="#37383F" stroke-width=".542" rx="1.895"
              shape-rendering="crispEdges"/>
        <path fill="#ACAFBF"
              d="M8.096 48.384v-4.563h.552v.546h.05c.21-.38.59-.606 1.067-.606.866 0 1.434.701 1.434 1.767v.007c0 1.072-.565 1.767-1.434 1.767-.47 0-.88-.235-1.067-.6h-.05v1.682h-.552Zm1.542-1.57c.625 0 .996-.483.996-1.28v-.006c0-.796-.371-1.279-.996-1.279-.622 0-1.003.49-1.003 1.28v.006c0 .79.38 1.278 1.003 1.278Zm3.82.488c-.977 0-1.567-.685-1.567-1.758v-.003c0-1.057.602-1.78 1.532-1.78s1.495.691 1.495 1.713v.216h-2.462c.015.708.406 1.12 1.015 1.12.463 0 .749-.219.84-.425l.013-.029h.553l-.007.026c-.117.463-.606.92-1.412.92Zm-.038-3.05c-.508 0-.895.346-.955.997h1.891c-.057-.676-.431-.996-.936-.996Zm3.57 3.015c-.705 0-1-.26-1-.914v-2.075h-.54v-.457h.54v-.885h.571v.885h.75v.457h-.75v1.936c0 .403.14.564.495.564.099 0 .153-.003.254-.012v.47a1.832 1.832 0 0 1-.32.031Zm2.494.035c-.958 0-1.57-.695-1.57-1.78v-.006c0-1.063.608-1.755 1.567-1.755.831 0 1.33.479 1.43 1.088l.004.02h-.549l-.003-.01c-.086-.337-.39-.61-.882-.61-.616 0-1.003.495-1.003 1.267v.006c0 .787.393 1.291 1.003 1.291.46 0 .752-.203.879-.584l.006-.019.546-.003-.007.035c-.14.619-.6 1.06-1.421 1.06Zm2.269-.06v-4.779h.552v4.779h-.552Zm1.904-4.08a.382.382 0 0 1-.381-.382.38.38 0 1 1 .381.381Zm-.28 4.08v-3.42h.552v3.42h-.552Zm1.593 0v-3.42h.552v.513h.051c.171-.362.492-.574.996-.574.768 0 1.197.454 1.197 1.266v2.215h-.552V45.16c0-.615-.254-.91-.8-.91s-.892.367-.892.967v2.025h-.552Zm4.087-4.08a.382.382 0 0 1-.38-.382.38.38 0 1 1 .38.381Zm-.28 4.08v-3.42h.553v3.42h-.552Zm2.993.06c-.958 0-1.57-.695-1.57-1.78v-.006c0-1.063.609-1.755 1.567-1.755.831 0 1.33.479 1.431 1.088l.003.02h-.549l-.003-.01c-.086-.337-.39-.61-.882-.61-.616 0-1.003.495-1.003 1.267v.006c0 .787.394 1.291 1.003 1.291.46 0 .752-.203.879-.584l.006-.019.546-.003-.006.035c-.14.619-.6 1.06-1.422 1.06Z"/>
        <path fill="#A1B5FF"
              d="M38.23 47.35c-1.267 0-2.076-.933-2.076-2.396v-.007c0-1.443.822-2.392 2.075-2.392 1.016 0 1.73.571 1.91 1.44l.007.032h-.578l-.01-.031c-.187-.59-.647-.914-1.329-.914-.907 0-1.491.73-1.491 1.865v.007c0 1.152.574 1.869 1.494 1.869.819 0 1.371-.524 1.371-1.298v-.111h-1.285v-.501h1.856v.558c0 1.13-.774 1.879-1.945 1.879Zm2.956-.108v-4.58h2.837v.515h-2.265v1.47h2.148v.507h-2.148v1.574h2.265v.514h-2.837Zm5.062 0v-4.065h-1.476v-.514h3.522v.514H46.82v4.065h-.572Zm6.149-4.779-1.447 5.921h-.53l1.447-5.921h.53Zm1.923 4.839c-.974 0-1.577-.673-1.577-1.767v-.007c0-1.098.603-1.767 1.577-1.767s1.577.67 1.577 1.767v.007c0 1.094-.603 1.767-1.577 1.767Zm0-.489c.647 0 1.012-.473 1.012-1.278v-.007c0-.809-.365-1.279-1.012-1.279s-1.012.47-1.012 1.28v.006c0 .806.365 1.278 1.012 1.278Zm2.967.429-.959-3.42h.553l.672 2.734h.051l.765-2.735h.523l.765 2.735h.05l.673-2.735h.55l-.959 3.42h-.555l-.765-2.646h-.05l-.762 2.647h-.552Zm4.372 0v-3.42h.552v.513h.051c.172-.362.492-.574.996-.574.768 0 1.197.454 1.197 1.266v2.215h-.552V45.16c0-.615-.254-.91-.8-.91s-.892.367-.892.967v2.025h-.552Zm5.191.06c-.977 0-1.567-.685-1.567-1.758v-.003c0-1.057.603-1.78 1.532-1.78.93 0 1.495.691 1.495 1.713v.216h-2.462c.016.708.406 1.12 1.015 1.12.463 0 .749-.219.841-.425l.013-.029h.552l-.007.026c-.117.463-.606.92-1.412.92Zm-.038-3.05c-.507 0-.894.346-.955.997h1.891c-.057-.676-.431-.996-.936-.996Zm2.355 2.99v-3.42h.552v.507h.05c.13-.359.451-.568.914-.568.105 0 .223.012.277.022v.536a1.98 1.98 0 0 0-.34-.032c-.527 0-.901.334-.901.835v2.12h-.552Zm3.585.06c-.761 0-1.285-.368-1.348-.933h.565c.092.286.365.473.802.473.46 0 .787-.22.787-.53v-.006c0-.232-.174-.394-.596-.495l-.53-.127c-.641-.153-.93-.432-.93-.924v-.003c0-.568.546-.996 1.273-.996.717 0 1.215.358 1.291.917h-.543c-.072-.27-.34-.457-.752-.457-.406 0-.704.21-.704.51v.007c0 .232.171.378.574.476l.527.127c.644.155.955.435.955.923v.007c0 .609-.593 1.031-1.37 1.031Z"/>
        <path stroke="#37383F" stroke-width=".542" d="M142.426 39.868v9.748"/>
        <path stroke="#ACAFBF" stroke-linecap="square" stroke-linejoin="round" stroke-width=".542"
              d="m146.758 43.66 2.166 2.165 2.166-2.166"/>
    </g>
    <rect width="15.163" height="15.163" x="160.838" y="37.16" fill="#6063F6" rx="2.166"/>
    <g stroke="#fff" stroke-linecap="round" stroke-width=".542" clip-path="url(#clip3_5587_2626)">
        <path d="M168.42 47.991a3.25 3.25 0 1 0-3.25-3.25"/>
        <path stroke-linejoin="round" d="M164.448 47.06h2.83m-1.276 1.276 1.276-1.277-1.276-1.276"/>
    </g>
    <path fill="#ACAFBF"
          d="M4.916 32.994v-4.579h2.837v.514H5.487v1.47h2.149v.507H5.487v1.574h2.266v.514H4.916Zm4.03 0V30.03h-.568v-.457h.568v-.38c0-.683.343-1.01.993-1.01.133 0 .254.01.368.032v.441a1.502 1.502 0 0 0-.257-.015c-.393 0-.552.193-.552.568v.364h.777v.457h-.777v2.964h-.552Zm2.354 0V30.03h-.568v-.457h.569v-.38c0-.683.342-1.01.993-1.01.133 0 .253.01.368.032v.441a1.5 1.5 0 0 0-.257-.015c-.394 0-.552.193-.552.568v.364h.777v.457h-.777v2.964H11.3Zm3.377.06c-.978 0-1.568-.685-1.568-1.758v-.003c0-1.056.603-1.78 1.533-1.78.93 0 1.494.692 1.494 1.714v.215h-2.462c.016.708.406 1.12 1.015 1.12.464 0 .75-.218.841-.425l.013-.028h.552l-.006.025c-.118.463-.606.92-1.412.92Zm-.038-3.049c-.508 0-.895.346-.955.996h1.89c-.056-.676-.43-.996-.935-.996Zm3.753 3.05c-.958 0-1.57-.696-1.57-1.78v-.007c0-1.063.609-1.755 1.567-1.755.832 0 1.33.48 1.431 1.088l.003.02h-.549l-.003-.01c-.085-.336-.39-.61-.882-.61-.615 0-1.002.496-1.002 1.267v.006c0 .787.393 1.292 1.002 1.292.46 0 .752-.203.88-.584l.006-.02.545-.002-.006.034c-.14.62-.6 1.06-1.422 1.06Zm3.516-.036c-.704 0-1-.26-1-.913V30.03h-.539v-.457h.54v-.885h.57v.885h.75v.457h-.75v1.936c0 .403.14.565.496.565.098 0 .152-.003.254-.013v.47a1.832 1.832 0 0 1-.32.031Zm2.491.035c-.977 0-1.568-.685-1.568-1.758v-.003c0-1.056.603-1.78 1.533-1.78.93 0 1.495.692 1.495 1.714v.215h-2.463c.016.708.406 1.12 1.016 1.12.463 0 .748-.218.84-.425l.013-.028h.552l-.006.025c-.117.463-.606.92-1.412.92Zm-.038-3.049c-.508 0-.895.346-.955.996h1.891c-.057-.676-.431-.996-.936-.996Zm3.617 3.05c-.866 0-1.434-.702-1.434-1.768v-.006c0-1.073.565-1.768 1.434-1.768.47 0 .88.235 1.066.6h.051v-1.898h.552v4.779h-.552v-.546h-.05c-.21.381-.59.606-1.067.606Zm.127-.49c.622 0 1.003-.488 1.003-1.278v-.006c0-.79-.38-1.28-1.003-1.28-.625 0-.996.483-.996 1.28v.006c0 .796.371 1.279.996 1.279Zm4.5.429v-4.579h2.836v.514h-2.265v1.47h2.148v.507h-2.148v1.574h2.265v.514h-2.836Zm3.801 0v-3.42h.552v.513h.05c.172-.361.493-.574.997-.574.768 0 1.197.454 1.197 1.266v2.215h-.553v-2.081c0-.616-.254-.911-.8-.911-.545 0-.89.368-.89.968v2.024h-.553Zm5.058.06c-.866 0-1.434-.7-1.434-1.767v-.006c0-1.073.564-1.768 1.434-1.768.47 0 .879.235 1.066.6h.05v-1.898h.553v4.779h-.552v-.546h-.05c-.21.381-.591.606-1.067.606Zm.127-.488c.622 0 1.002-.489 1.002-1.28v-.006c0-.79-.38-1.278-1.002-1.278-.625 0-.997.482-.997 1.279v.006c0 .796.372 1.279.997 1.279Zm2.602 1.57v-4.563h.552v.546h.05c.21-.38.59-.606 1.067-.606.866 0 1.434.701 1.434 1.767v.007c0 1.072-.565 1.767-1.434 1.767-.47 0-.88-.235-1.066-.6h-.051v1.682h-.552Zm1.542-1.57c.625 0 .996-.483.996-1.28v-.006c0-.796-.371-1.278-.996-1.278-.622 0-1.003.488-1.003 1.279v.006c0 .79.381 1.279 1.003 1.279Zm3.83.488c-.974 0-1.577-.672-1.577-1.767v-.006c0-1.098.603-1.768 1.577-1.768s1.577.67 1.577 1.767v.007c0 1.095-.603 1.767-1.577 1.767Zm0-.488c.647 0 1.012-.473 1.012-1.28v-.006c0-.809-.365-1.278-1.012-1.278-.648 0-1.012.47-1.012 1.279v.006c0 .806.364 1.279 1.012 1.279Zm2.726-3.653a.382.382 0 0 1-.381-.38.381.381 0 0 1 .761-.001c0 .21-.171.381-.38.381Zm-.28 4.081v-3.42h.552v3.42h-.552Zm1.593 0v-3.42h.552v.513h.051c.171-.361.492-.574.996-.574.768 0 1.197.454 1.197 1.266v2.215h-.552v-2.081c0-.616-.254-.911-.8-.911s-.892.368-.892.968v2.024h-.552Zm5.01.025c-.704 0-.999-.26-.999-.913V30.03h-.54v-.457h.54v-.885h.571v.885h.749v.457h-.749v1.936c0 .403.14.565.495.565.099 0 .153-.003.254-.013v.47a1.832 1.832 0 0 1-.32.031Zm2.257.035c-.762 0-1.285-.368-1.349-.933h.565c.092.286.365.473.803.473.46 0 .787-.219.787-.53v-.006c0-.232-.175-.393-.597-.495l-.53-.127c-.64-.152-.93-.431-.93-.923v-.004c0-.567.546-.996 1.273-.996.717 0 1.215.359 1.291.917h-.542c-.073-.27-.34-.457-.752-.457-.407 0-.705.21-.705.511v.006c0 .232.171.378.575.476l.526.127c.644.156.955.435.955.924v.006c0 .61-.593 1.031-1.37 1.031Zm5.21 1.082c-.619-.822-.901-1.78-.901-2.96 0-1.177.279-2.139.9-2.96h.464c-.46.586-.803 1.859-.803 2.96 0 1.11.343 2.373.803 2.96h-.463Zm2.881-1.066c-.946 0-1.558-.527-1.618-1.25l-.003-.038h.549l.003.032c.044.45.46.761 1.069.761.6 0 1.009-.336 1.009-.822v-.006c0-.562-.403-.876-1.044-.876h-.574v-.482h.549c.546 0 .926-.336.926-.793v-.007c0-.479-.314-.755-.872-.755-.54 0-.924.286-.971.749l-.004.032h-.548l.003-.032c.073-.746.663-1.244 1.52-1.244.872 0 1.447.486 1.447 1.18v.007c0 .565-.4.952-.971 1.072v.013c.666.057 1.12.473 1.12 1.123v.007c0 .764-.673 1.33-1.59 1.33Zm2.818 1.066h-.464c.46-.587.803-1.85.803-2.96 0-1.101-.343-2.374-.803-2.96h.464c.622.821.9 1.783.9 2.96 0 1.18-.282 2.139-.9 2.96Z"/>
    <path fill="#fff"
          d="M8.855 77.32v-4.6h-.06l-1.358.984V73l1.422-1.022h.662v5.342h-.666Zm2.21 0v-.459l1.807-1.955c.68-.736.88-1.014.88-1.48v-.008c0-.562-.38-.984-1.01-.984-.64 0-1.066.418-1.066 1.047l-.004.008-.636-.004-.008-.004c.004-.947.737-1.629 1.758-1.629.933 0 1.648.633 1.648 1.496v.007c0 .611-.263 1.055-1.23 2.051l-1.213 1.255v.06h2.532v.6h-3.458Zm62.569.09c-1.133 0-1.94-.638-1.94-1.533v-.008c0-.659.463-1.207 1.148-1.366v-.015c-.585-.181-.956-.625-.956-1.188v-.007c0-.807.737-1.403 1.748-1.403 1.01 0 1.747.596 1.747 1.403v.007c0 .563-.37 1.007-.955 1.188v.015c.685.16 1.148.707 1.148 1.366v.008c0 .895-.807 1.532-1.94 1.532Zm0-3.17c.644 0 1.085-.366 1.085-.884v-.008c0-.518-.441-.885-1.085-.885-.644 0-1.085.367-1.085.885v.008c0 .518.44.884 1.085.884Zm0 2.588c.737 0 1.262-.415 1.262-.992v-.008c0-.585-.522-1.003-1.262-1.003s-1.263.418-1.263 1.003v.008c0 .577.526.992 1.263.992Zm3.239.492 2.399-4.694v-.052h-2.858v-.596h3.535v.619l-2.376 4.723h-.7Zm5.09-2.532c-.68 0-1.092-.555-1.092-1.44v-.004c0-.884.411-1.436 1.092-1.436s1.096.552 1.096 1.436v.004c0 .885-.415 1.44-1.096 1.44Zm.4 2.532h-.6l3.636-5.342h.6l-3.636 5.342Zm-.4-2.972c.367 0 .581-.374.581-1v-.004c0-.625-.214-.995-.58-.995-.367 0-.578.37-.578.995v.004c0 .626.21 1 .577 1Zm3.828 3.043c-.681 0-1.092-.556-1.092-1.44v-.004c0-.885.41-1.437 1.092-1.437.681 0 1.096.552 1.096 1.437v.004c0 .884-.415 1.44-1.096 1.44Zm0-.44c.367 0 .581-.375.581-1v-.004c0-.626-.215-.996-.581-.996-.367 0-.578.37-.578.996v.004c0 .625.212 1 .578 1Zm52.898-.505v-.459l1.807-1.954c.681-.737.881-1.015.881-1.481v-.007c0-.563-.382-.985-1.011-.985-.64 0-1.066.418-1.066 1.047l-.004.008-.636-.004-.008-.004c.004-.947.737-1.628 1.759-1.628.932 0 1.647.633 1.647 1.495v.008c0 .61-.263 1.055-1.229 2.05l-1.214 1.255v.06h2.532v.6h-3.458Zm6.364.126c-1.181 0-1.884-1.077-1.884-2.795v-.007c0-1.718.703-2.791 1.884-2.791s1.891 1.073 1.891 2.79v.008c0 1.718-.71 2.795-1.891 2.795Zm0-.58c.766 0 1.221-.852 1.221-2.215v-.007c0-1.362-.455-2.206-1.221-2.206-.767 0-1.214.844-1.214 2.206v.007c0 1.363.447 2.214 1.214 2.214Zm4.775.58c-1.181 0-1.884-1.077-1.884-2.795v-.007c0-1.718.703-2.791 1.884-2.791s1.892 1.073 1.892 2.79v.008c0 1.718-.711 2.795-1.892 2.795Zm0-.58c.767 0 1.222-.852 1.222-2.215v-.007c0-1.362-.455-2.206-1.222-2.206-.766 0-1.214.844-1.214 2.206v.007c0 1.363.448 2.214 1.214 2.214Zm2.991.454v-3.99h.645v.607h.059c.178-.43.555-.678 1.077-.678.541 0 .918.285 1.103.7h.06c.214-.422.67-.7 1.221-.7.815 0 1.27.467 1.27 1.303v2.758h-.644v-2.61c0-.588-.27-.88-.833-.88-.555 0-.922.418-.922.925v2.565h-.644v-2.71c0-.473-.326-.78-.829-.78-.522 0-.918.455-.918 1.017v2.473h-.645Zm7.967.07c-.888 0-1.499-.429-1.573-1.088h.659c.107.334.425.552.936.552.537 0 .918-.255.918-.618v-.008c0-.27-.203-.459-.696-.577l-.618-.148c-.748-.178-1.084-.504-1.084-1.078v-.003c0-.663.636-1.163 1.484-1.163.837 0 1.418.419 1.507 1.07h-.633c-.085-.314-.396-.533-.878-.533-.474 0-.822.245-.822.596v.008c0 .27.2.44.671.555l.614.148c.752.181 1.114.507 1.114 1.077v.008c0 .71-.692 1.203-1.599 1.203Z"/>
    <path fill="#ACAFBF"
          d="M4.916 63.656v-4.58h1.749c.882 0 1.46.54 1.46 1.362v.006c0 .635-.347 1.13-.921 1.311l1.06 1.9h-.67l-.98-1.811H5.487v1.812h-.57Zm.571-2.32h1.127c.587 0 .92-.314.92-.872v-.007c0-.546-.355-.872-.946-.872h-1.1v1.751Zm4.906 2.38c-.977 0-1.568-.685-1.568-1.758v-.003c0-1.057.603-1.78 1.533-1.78.93 0 1.495.692 1.495 1.713v.216H9.39c.016.708.406 1.12 1.016 1.12.463 0 .748-.219.84-.425l.013-.029h.552l-.006.026c-.117.463-.606.92-1.412.92Zm-.038-3.05c-.508 0-.895.346-.955.997h1.89c-.056-.676-.43-.996-.935-.996Zm2.354 4.132v-4.563h.552v.546h.051c.21-.381.59-.606 1.066-.606.867 0 1.435.701 1.435 1.767v.007c0 1.072-.565 1.767-1.435 1.767-.47 0-.879-.235-1.066-.6h-.05v1.682h-.553Zm1.542-1.57c.626 0 .997-.483.997-1.28v-.006c0-.796-.371-1.279-.997-1.279-.621 0-1.002.49-1.002 1.28v.006c0 .79.38 1.278 1.002 1.278Zm3.82.488c-.977 0-1.567-.685-1.567-1.758v-.003c0-1.057.603-1.78 1.533-1.78.93 0 1.495.692 1.495 1.713v.216h-2.463c.016.708.406 1.12 1.015 1.12.464 0 .75-.219.841-.425l.013-.029h.552l-.006.026c-.118.463-.606.92-1.412.92Zm-.037-3.05c-.508 0-.895.346-.955.997h1.89c-.056-.676-.43-.996-.935-.996Zm3.293 3.05c-.65 0-1.142-.394-1.142-1.016v-.006c0-.609.45-.961 1.247-1.009l.98-.06v-.311c0-.422-.256-.65-.767-.65-.41 0-.68.152-.768.418l-.003.01h-.552l.003-.02c.089-.536.609-.897 1.339-.897.834 0 1.3.428 1.3 1.139v2.342h-.551v-.505h-.051c-.216.365-.574.565-1.035.565Zm-.577-1.028c0 .346.295.549.692.549.561 0 .97-.368.97-.857v-.31l-.913.056c-.52.032-.75.216-.75.556v.006Zm4.44.993c-.705 0-1-.26-1-.914v-2.075h-.54v-.457h.54v-.885h.57v.885h.75v.457h-.75v1.936c0 .403.14.564.496.564.098 0 .152-.003.254-.012v.47a1.832 1.832 0 0 1-.32.031Zm2.255.035c-.761 0-1.285-.368-1.348-.933h.564c.092.286.365.473.803.473.46 0 .787-.22.787-.53v-.006c0-.232-.174-.394-.596-.495l-.53-.127c-.641-.153-.93-.432-.93-.924v-.003c0-.568.546-.996 1.272-.996.718 0 1.216.358 1.292.917h-.543c-.073-.27-.34-.457-.752-.457-.406 0-.704.21-.704.51v.007c0 .232.171.378.574.476l.527.127c.644.155.955.435.955.923v.007c0 .609-.593 1.03-1.37 1.03Zm44.352-.06v-4.58h1.748c.882 0 1.46.54 1.46 1.362v.006c0 .635-.346 1.13-.92 1.311l1.06 1.9h-.67l-.98-1.811h-1.127v1.812h-.571Zm.57-2.32h1.127c.587 0 .92-.314.92-.872v-.007c0-.546-.355-.872-.945-.872h-1.101v1.751Zm4.906 2.38c-.977 0-1.567-.685-1.567-1.758v-.003c0-1.057.603-1.78 1.532-1.78.93 0 1.495.692 1.495 1.713v.216h-2.462c.016.708.406 1.12 1.015 1.12.463 0 .749-.219.84-.425l.014-.029h.552l-.007.026c-.117.463-.606.92-1.412.92Zm-.038-3.05c-.507 0-.894.346-.955.997h1.891c-.057-.676-.431-.996-.936-.996Zm4.74 4.132v-1.656h-.05c-.187.361-.58.574-1.07.574-.869 0-1.437-.701-1.437-1.767v-.007c0-1.072.565-1.767 1.438-1.767.46 0 .863.24 1.082.631h.038v-.571h.552v4.563h-.552Zm-.99-1.57c.617 0 1.007-.496 1.007-1.28v-.006c0-.787-.39-1.279-1.01-1.279-.624 0-.999.483-.999 1.28v.006c0 .796.375 1.278 1.003 1.278Zm3.71.488c-.777 0-1.177-.457-1.177-1.266v-2.215h.552v2.082c0 .615.222.91.768.91.603 0 .923-.368.923-.967v-2.025h.553v3.42h-.553v-.51h-.05c-.168.365-.514.57-1.016.57Zm4.046 0c-.977 0-1.568-.685-1.568-1.758v-.003c0-1.057.603-1.78 1.533-1.78.93 0 1.495.692 1.495 1.713v.216h-2.463c.016.708.406 1.12 1.016 1.12.463 0 .748-.219.84-.425l.013-.029h.552l-.006.026c-.117.463-.606.92-1.412.92Zm-.038-3.05c-.508 0-.895.346-.955.997h1.89c-.056-.676-.43-.996-.935-.996Zm3.528 3.05c-.761 0-1.285-.368-1.348-.933h.565c.092.286.365.473.802.473.46 0 .787-.22.787-.53v-.006c0-.232-.174-.394-.596-.495l-.53-.127c-.641-.153-.93-.432-.93-.924v-.003c0-.568.546-.996 1.273-.996.717 0 1.215.358 1.291.917h-.543c-.073-.27-.34-.457-.752-.457-.406 0-.704.21-.704.51v.007c0 .232.171.378.574.476l.527.127c.644.155.955.435.955.923v.007c0 .609-.593 1.03-1.37 1.03Zm3.411-.035c-.704 0-1-.26-1-.914v-2.075h-.538v-.457h.539v-.885h.571v.885h.749v.457h-.749v1.936c0 .403.14.564.495.564.098 0 .152-.003.254-.012v.47a1.832 1.832 0 0 1-.32.031Zm2.257.035c-.762 0-1.286-.368-1.349-.933h.565c.092.286.365.473.803.473.46 0 .786-.22.786-.53v-.006c0-.232-.174-.394-.596-.495l-.53-.127c-.64-.153-.93-.432-.93-.924v-.003c0-.568.546-.996 1.273-.996.717 0 1.215.358 1.291.917h-.542c-.073-.27-.34-.457-.752-.457-.407 0-.705.21-.705.51v.007c0 .232.172.378.575.476l.526.127c.644.155.955.435.955.923v.007c0 .609-.593 1.03-1.37 1.03Z"/>
    <g clip-path="url(#clip4_5587_2626)">
        <path stroke="#828599" stroke-linecap="round" stroke-linejoin="round" stroke-width=".542"
              d="M105.425 60.953a.204.204 0 0 1 .203.203v1.015a.204.204 0 0 0 .203.203"/>
        <path fill="#828599" d="M105.527 60.242a.203.203 0 1 0 0-.407.203.203 0 0 0 0 .407Z"/>
        <path stroke="#828599" stroke-linecap="round" stroke-linejoin="round" stroke-width=".542"
              d="M105.628 63.593a2.437 2.437 0 1 0 0-4.874 2.437 2.437 0 0 0 0 4.874Z"/>
    </g>
    <path fill="#ACAFBF"
          d="M138.677 63.656v-4.58h1.571c1.358 0 2.161.848 2.161 2.285v.007c0 1.44-.8 2.288-2.161 2.288h-1.571Zm.571-.514h.962c1.021 0 1.615-.654 1.615-1.768v-.006c0-1.117-.6-1.777-1.615-1.777h-.962v3.55Zm5.226.574c-.777 0-1.177-.457-1.177-1.266v-2.215h.552v2.082c0 .615.222.91.768.91.603 0 .923-.368.923-.967v-2.025h.553v3.42h-.553v-.51h-.05c-.168.365-.514.57-1.016.57Zm2.65-.06v-3.421h.552v.508h.051c.13-.359.45-.568.914-.568.104 0 .222.012.276.022v.536a2 2 0 0 0-.34-.031c-.527 0-.901.333-.901.834v2.12h-.552Zm3.414.06c-.65 0-1.142-.394-1.142-1.016v-.006c0-.609.45-.961 1.247-1.009l.98-.06v-.311c0-.422-.257-.65-.768-.65-.409 0-.679.152-.767.418l-.004.01h-.552l.003-.02c.089-.536.61-.897 1.339-.897.835 0 1.301.428 1.301 1.139v2.342h-.552v-.505h-.05c-.216.365-.575.565-1.035.565Zm-.577-1.028c0 .346.295.549.691.549.562 0 .971-.368.971-.857v-.31l-.914.056c-.52.032-.748.216-.748.556v.006Zm4.439.993c-.705 0-1-.26-1-.914v-2.075h-.539v-.457h.539v-.885h.571v.885h.749v.457h-.749v1.936c0 .403.14.564.495.564.099 0 .153-.003.254-.012v.47a1.827 1.827 0 0 1-.32.031Zm1.437-4.106a.382.382 0 0 1-.381-.38.382.382 0 1 1 .381.38Zm-.279 4.08v-3.42h.552v3.42h-.552Zm2.999.06c-.975 0-1.578-.672-1.578-1.767v-.006c0-1.098.603-1.767 1.578-1.767.974 0 1.577.67 1.577 1.767v.007c0 1.094-.603 1.767-1.577 1.767Zm0-.488c.647 0 1.012-.472 1.012-1.278v-.007c0-.809-.365-1.279-1.012-1.279-.648 0-1.013.47-1.013 1.28v.006c0 .806.365 1.278 1.013 1.278Zm2.433.429v-3.421h.552v.514h.051c.172-.362.492-.574.997-.574.767 0 1.196.454 1.196 1.266v2.215h-.552v-2.082c0-.615-.254-.91-.8-.91s-.892.367-.892.967v2.025h-.552Z"/>
    <mask id="path-34-inside-2_5587_2626" fill="#fff">
        <path d="M0 85.151h180.333v19.831H0v-19.83Z"/>
    </mask>
    <path fill="#37383F" d="M0 85.693h180.333V84.61H0v1.083Z" mask="url(#path-34-inside-2_5587_2626)"/>
    <g clip-path="url(#clip5_5587_2626)">
        <rect width="6.679" height="6.679" x="102.092" y="93.726" stroke="#828599" stroke-width=".542" rx=".271"/>
    </g>
    <g clip-path="url(#clip6_5587_2626)">
        <path stroke="#828599" stroke-linecap="round" stroke-linejoin="round" stroke-width=".542"
              d="m123.031 95.711.813-.812-.813-.812"/>
    </g>
    <path stroke="#828599" stroke-width=".542"
          d="M138.07 95.025v-.271h-.911a1.3 1.3 0 0 1-1.27-1.028h3.177c.017 0 .031.014.031.03v3.156a1.3 1.3 0 0 1-1.027-1.269v-.618Z"/>
    <rect width="30.495" height="15.498" x="145.506" y="89.484" fill="#6063F6" rx="2.166"/>
    <g clip-path="url(#clip7_5587_2626)">
        <path stroke="#F0F1F7" stroke-linecap="round" stroke-linejoin="round" stroke-width=".542"
              d="M157.611 96.229a.27.27 0 0 0 0-.383l-2.053-2.054a.271.271 0 0 0-.383 0l-1.939 1.945s-.939-.47-1.943.34a.273.273 0 0 0-.022.403l3.652 3.652a.275.275 0 0 0 .407-.028c.284-.378.73-1.154.342-1.93l1.939-1.945Z"/>
    </g>
    <defs>
        <clipPath id="clip0_5587_2626">
            <path fill="#fff" d="M6.499 6.498h8.665v8.665H6.499z"/>
        </clipPath>
        <clipPath id="clip1_5587_2626">
            <path fill="#fff" d="M80.828 7.582h6.498v6.498h-6.498z"/>
        </clipPath>
        <clipPath id="clip2_5587_2626">
            <path fill="#fff" d="M151.09 4.332h24.911V17.33H151.09z"/>
        </clipPath>
        <clipPath id="clip3_5587_2626">
            <path fill="#fff" d="M164.087 40.41h8.665v8.664h-8.665z"/>
        </clipPath>
        <clipPath id="clip4_5587_2626">
            <path fill="#fff" d="M102.379 57.906h6.498v6.498h-6.498z"/>
        </clipPath>
        <clipPath id="clip5_5587_2626">
            <path fill="#fff" d="M101.099 92.733h8.665v8.665h-8.665z"/>
        </clipPath>
        <clipPath id="clip6_5587_2626">
            <path fill="#fff" d="M116.262 92.733h8.665v8.665h-8.665z"/>
        </clipPath>
        <clipPath id="clip7_5587_2626">
            <path fill="#fff" d="M149.838 92.9h8.665v8.665h-8.665z"/>
        </clipPath>
        <filter id="filter0_d_5587_2626" width="156.506" height="19.495" x="2.708" y="35.535"
                color-interpolation-filters="sRGB" filterUnits="userSpaceOnUse">
            <feFlood flood-opacity="0" result="BackgroundImageFix"/>
            <feColorMatrix in="SourceAlpha" result="hardAlpha" values="0 0 0 0 0 0 0 0 0 0 0 0 0 0 0 0 0 0 127 0"/>
            <feOffset dx=".542" dy=".542"/>
            <feGaussianBlur stdDeviation="1.083"/>
            <feComposite in2="hardAlpha" operator="out"/>
            <feColorMatrix values="0 0 0 0 0 0 0 0 0 0 0 0 0 0 0 0 0 0 0.25 0"/>
            <feBlend in2="BackgroundImageFix" result="effect1_dropShadow_5587_2626"/>
            <feBlend in="SourceGraphic" in2="effect1_dropShadow_5587_2626" result="shape"/>
        </filter>
    </defs>
</svg>