<svg xmlns="http://www.w3.org/2000/svg" fill="none" viewBox="0 0 167 94">
    <rect width="179.792" height="108.773" x=".271" y=".271" fill="#1A1B1E" rx="1.895"/>
    <rect width="179.792" height="108.773" x=".271" y=".271" stroke="#37383F" stroke-width=".542" rx="1.895"/>
    <mask id="path-2-inside-1_5587_6367" fill="#fff">
        <path d="M0 0h180.333v21.662H0V0Z"/>
    </mask>
    <path fill="#37383F" d="M180.333 21.12H0v1.083h180.333V21.12Z" mask="url(#path-2-inside-1_5587_6367)"/>
    <rect width="12.997" height="12.997" x="4.332" y="4.332" fill="#3C2C23" rx="2.166"/>
    <path stroke="#FF8A58" stroke-linecap="round" stroke-width=".542"
          d="m12.456 8.172-.857 1.305a1.083 1.083 0 0 0-.177.594v1.52c0 .21.061.417.177.593l.857 1.305m-3.25 0 .857-1.305c.115-.176.177-.383.177-.594v-1.519c0-.21-.062-.417-.177-.594l-.857-1.305m3.397 4.136c.37-.404.591-.918.591-1.477 0-.56-.221-1.074-.59-1.477m-3.545 0c-.37.403-.591.917-.591 1.477s.221 1.073.59 1.477"/>
    <path fill="#fff"
          d="M22.32 13.83V8.49h.956v5.342h-.955Zm2.177 0V9.786h.922v.618h.063c.193-.433.581-.696 1.166-.696.904 0 1.396.544 1.396 1.506v2.618h-.922v-2.403c0-.63-.255-.948-.814-.948-.548 0-.889.386-.889.993v2.358h-.922Zm6.368.082c-1.203 0-1.933-.807-1.933-2.095v-.004c0-1.273.737-2.106 1.888-2.106 1.152 0 1.862.807 1.862 2.028v.304h-2.828c.011.726.404 1.148 1.03 1.148.499 0 .784-.252.873-.437l.011-.026h.877l-.01.033c-.13.522-.67 1.155-1.77 1.155Zm-.034-3.483c-.514 0-.9.348-.97.992h1.922c-.063-.663-.437-.992-.952-.992Zm3.07 3.402v-3.332h-.663v-.714h.662v-.4c0-.807.407-1.203 1.31-1.203.197 0 .364.01.512.037v.644a2.233 2.233 0 0 0-.315-.019c-.433 0-.6.208-.6.593v.348h.878v.714h-.863v3.332H33.9Zm2.99 0v-3.332h-.662v-.714h.663v-.4c0-.807.407-1.203 1.31-1.203.196 0 .363.01.51.037v.644a2.233 2.233 0 0 0-.314-.019c-.433 0-.6.208-.6.593v.348h.878v.714h-.863v3.332h-.922Zm3.147-4.724a.547.547 0 0 1-.551-.544.549.549 0 0 1 1.099 0 .546.546 0 0 1-.548.544Zm-.463 4.724V9.785h.922v4.046h-.922Zm3.791.081c-1.218 0-1.936-.788-1.936-2.11v-.007c0-1.307.715-2.088 1.932-2.088 1.04 0 1.663.577 1.766 1.414v.015h-.87l-.003-.011c-.086-.393-.385-.674-.889-.674-.63 0-1 .496-1 1.344v.007c0 .859.375 1.363 1 1.363.478 0 .77-.219.885-.645l.007-.014.87-.004-.007.03c-.133.829-.73 1.38-1.755 1.38Zm3.114-4.805a.547.547 0 0 1-.552-.544.55.55 0 0 1 1.1 0 .546.546 0 0 1-.548.544Zm-.463 4.724V9.785h.922v4.046h-.922Zm3.787.081c-1.203 0-1.933-.807-1.933-2.095v-.004c0-1.273.737-2.106 1.889-2.106 1.15 0 1.861.807 1.861 2.028v.304h-2.828c.011.726.404 1.148 1.03 1.148.5 0 .784-.252.873-.437l.011-.026h.877l-.01.033c-.13.522-.67 1.155-1.77 1.155Zm-.033-3.483c-.515 0-.9.348-.97.992h1.921c-.063-.663-.437-.992-.951-.992Zm2.772 3.402V9.785h.922v.618h.063c.193-.433.581-.696 1.166-.696.903 0 1.396.544 1.396 1.506v2.618h-.922v-2.403c0-.63-.255-.948-.814-.948-.548 0-.889.386-.889.993v2.358h-.922Zm6.227.018c-.93 0-1.31-.31-1.31-1.092V10.5h-.63v-.714h.63v-.993h.936v.993h.855v.714h-.855v2.04c0 .403.16.574.544.574.13 0 .2-.004.311-.015v.71a2.523 2.523 0 0 1-.481.041Zm5.82.115c-1.567 0-2.529-1.085-2.529-2.802v-.008c0-1.721.977-2.798 2.529-2.798 1.554 0 2.524 1.077 2.524 2.798v.008c0 1-.33 1.788-.91 2.269l.71.955h-.933l-.433-.581c-.288.104-.607.16-.959.16Zm0-.825c.147 0 .288-.019.421-.056l-.688-.925h.933l.392.529c.315-.348.493-.874.493-1.525v-.008c0-1.207-.604-1.973-1.552-1.973-.947 0-1.554.766-1.554 1.973v.008c0 1.2.592 1.976 1.555 1.976Zm4.864.773c-.91 0-1.377-.548-1.377-1.51V9.785h.922v2.406c0 .625.233.944.788.944.596 0 .914-.385.914-.992V9.785h.922v4.046h-.922v-.615h-.063c-.188.433-.6.696-1.184.696Zm5.027 0c-1.203 0-1.932-.807-1.932-2.095v-.004c0-1.273.736-2.106 1.888-2.106 1.15 0 1.862.807 1.862 2.028v.304H73.47c.011.726.404 1.148 1.03 1.148.5 0 .784-.252.873-.437l.011-.026h.878l-.011.033c-.13.522-.67 1.155-1.77 1.155Zm-.033-3.483c-.515 0-.9.348-.97.992h1.921c-.063-.663-.437-.992-.951-.992Zm2.773 3.402V9.785h.921v.621h.063c.137-.433.507-.688 1.04-.688.141 0 .285.018.374.044v.826c-.148-.03-.3-.052-.459-.052-.614 0-1.018.367-1.018.944v2.35h-.921Zm3.646 1.421a3.78 3.78 0 0 1-.352-.014v-.707c.074.007.178.01.274.01.378 0 .604-.155.704-.521l.048-.185-1.448-4.05H81.1l.944 3.161h.07l.94-3.161h.97l-1.45 4.131c-.349 1.014-.811 1.336-1.707 1.336Z"/>
    <g clip-path="url(#clip0_5587_6367)">
        <rect width="18.332" height="12.997" x="128.921" y="4.332" fill="#233332" rx="2.166"/>
        <path fill="#6EBD9C"
              d="M131.887 13.33V8.753h.555l2.485 3.563h.051V8.752h.564v4.579h-.555l-2.484-3.55h-.051v3.55h-.565Zm6.149.061c-.977 0-1.567-.685-1.567-1.758v-.003c0-1.057.603-1.78 1.533-1.78.929 0 1.494.692 1.494 1.713v.216h-2.462c.016.708.406 1.12 1.015 1.12.463 0 .749-.219.841-.425l.013-.029h.552l-.007.026c-.117.463-.606.92-1.412.92Zm-.038-3.05c-.507 0-.894.347-.955.997h1.891c-.057-.676-.431-.996-.936-.996Zm3.015 2.99-.958-3.42h.552l.672 2.734h.051l.765-2.735h.523l.765 2.735h.051l.673-2.735h.549l-.959 3.42h-.555l-.765-2.646h-.051l-.761 2.647h-.552Z"/>
        <circle cx="153.21" cy="10.831" r="1.625" fill="#6EBD9C"/>
        <path fill="#ACAFBF"
              d="m157.239 13.33 1.688-4.578h.565l1.688 4.579h-.6l-.46-1.31h-1.821l-.46 1.31h-.6Zm1.945-3.839-.717 2.044h1.485l-.717-2.044h-.051Zm3.938 3.9c-.958 0-1.571-.695-1.571-1.78v-.006c0-1.063.609-1.755 1.568-1.755.831 0 1.329.48 1.431 1.088l.003.02h-.549l-.003-.01c-.086-.337-.391-.61-.882-.61-.616 0-1.003.496-1.003 1.267v.006c0 .787.393 1.291 1.003 1.291.46 0 .752-.203.879-.583l.006-.02.546-.003-.007.035c-.139.619-.599 1.06-1.421 1.06Zm3.516-.035c-.705 0-1-.26-1-.914v-2.075h-.539V9.91h.539v-.885h.571v.885h.749v.457h-.749v1.936c0 .403.14.564.495.564.099 0 .153-.003.254-.012v.47a1.836 1.836 0 0 1-.32.031Zm1.437-4.106a.382.382 0 0 1-.381-.38c0-.21.172-.381.381-.381.209 0 .381.171.381.38 0 .21-.172.381-.381.381Zm-.279 4.08V9.91h.552v3.42h-.552Zm2.56 0-1.266-3.42h.584l.936 2.818h.051l.936-2.818h.584l-1.266 3.42h-.559Zm3.824.061c-.977 0-1.567-.685-1.567-1.758v-.003c0-1.057.602-1.78 1.532-1.78s1.495.692 1.495 1.713v.216h-2.463c.016.708.407 1.12 1.016 1.12.463 0 .749-.219.841-.425l.012-.029h.552l-.006.026c-.117.463-.606.92-1.412.92Zm-.038-3.05c-.508 0-.895.347-.955.997h1.891c-.057-.676-.431-.996-.936-.996Z"/>
    </g>
    <g filter="url(#filter0_d_5587_6367)">
        <rect width="152.173" height="15.163" x="4.332" y="37.16" fill="#222326" rx="2.166"
              shape-rendering="crispEdges"/>
        <rect width="151.632" height="14.622" x="4.603" y="37.431" stroke="#37383F" stroke-width=".542" rx="1.895"
              shape-rendering="crispEdges"/>
        <path fill="#ACAFBF"
              d="M8.096 48.384v-4.563h.552v.546h.05c.21-.38.59-.606 1.067-.606.866 0 1.434.701 1.434 1.767v.007c0 1.072-.565 1.767-1.434 1.767-.47 0-.88-.235-1.066-.6h-.051v1.682h-.552Zm1.542-1.57c.625 0 .996-.483.996-1.28v-.006c0-.796-.371-1.279-.996-1.279-.622 0-1.003.49-1.003 1.28v.006c0 .79.38 1.278 1.003 1.278Zm3.82.488c-.977 0-1.567-.685-1.567-1.758v-.003c0-1.057.603-1.78 1.532-1.78.93 0 1.495.691 1.495 1.713v.216h-2.462c.015.708.406 1.12 1.015 1.12.463 0 .749-.219.84-.425l.013-.029h.553l-.007.026c-.117.463-.606.92-1.412.92Zm-.038-3.05c-.508 0-.895.346-.955.997h1.891c-.057-.676-.431-.996-.936-.996Zm3.57 3.015c-.705 0-1-.26-1-.914v-2.075h-.54v-.457h.54v-.885h.571v.885h.75v.457h-.75v1.936c0 .403.14.564.495.564.099 0 .153-.003.254-.012v.47a1.832 1.832 0 0 1-.32.031Zm2.494.035c-.958 0-1.57-.695-1.57-1.78v-.006c0-1.063.608-1.755 1.567-1.755.831 0 1.33.479 1.43 1.088l.004.02h-.549l-.003-.01c-.086-.337-.39-.61-.882-.61-.616 0-1.003.495-1.003 1.267v.006c0 .787.393 1.291 1.003 1.291.46 0 .752-.203.879-.584l.006-.019.546-.003-.007.035c-.14.619-.6 1.06-1.421 1.06Zm2.269-.06v-4.779h.552v4.779h-.552Zm1.904-4.08a.382.382 0 0 1-.381-.382.38.38 0 1 1 .381.381Zm-.28 4.08v-3.42h.552v3.42h-.552Zm1.593 0v-3.42h.552v.513h.051c.171-.362.492-.574.996-.574.768 0 1.197.454 1.197 1.266v2.215h-.552V45.16c0-.615-.254-.91-.8-.91s-.892.367-.892.967v2.025h-.552Zm4.087-4.08a.382.382 0 0 1-.38-.382.38.38 0 1 1 .38.381Zm-.28 4.08v-3.42h.553v3.42h-.552Zm2.993.06c-.958 0-1.57-.695-1.57-1.78v-.006c0-1.063.609-1.755 1.567-1.755.831 0 1.33.479 1.431 1.088l.003.02h-.549l-.003-.01c-.086-.337-.39-.61-.882-.61-.616 0-1.003.495-1.003 1.267v.006c0 .787.394 1.291 1.003 1.291.46 0 .752-.203.879-.584l.006-.019.546-.003-.006.035c-.14.619-.6 1.06-1.422 1.06Z"/>
        <path fill="#A1B5FF"
              d="M38.23 47.35c-1.267 0-2.076-.933-2.076-2.396v-.007c0-1.443.822-2.392 2.075-2.392 1.016 0 1.73.571 1.91 1.44l.007.032h-.578l-.01-.031c-.187-.59-.647-.914-1.329-.914-.907 0-1.491.73-1.491 1.865v.007c0 1.152.574 1.869 1.494 1.869.819 0 1.371-.524 1.371-1.298v-.111h-1.285v-.501h1.856v.558c0 1.13-.774 1.879-1.945 1.879Zm2.957-.108v-4.58h2.836v.515h-2.265v1.47h2.148v.507h-2.148v1.574h2.265v.514h-2.837Zm5.06 0v-4.065h-1.475v-.514h3.522v.514H46.82v4.065h-.571Zm6.15-4.779-1.447 5.921h-.53l1.447-5.921h.53Zm1.923 4.839c-.974 0-1.577-.673-1.577-1.767v-.007c0-1.098.603-1.767 1.577-1.767s1.577.67 1.577 1.767v.007c0 1.094-.603 1.767-1.577 1.767Zm0-.489c.647 0 1.012-.473 1.012-1.278v-.007c0-.809-.365-1.279-1.012-1.279s-1.012.47-1.012 1.28v.006c0 .806.365 1.278 1.012 1.278Zm2.967.429-.959-3.42h.553l.672 2.734h.051l.765-2.735h.523l.765 2.735h.05l.674-2.735h.548l-.958 3.42h-.555l-.765-2.646h-.05l-.762 2.647h-.552Zm4.372 0v-3.42h.552v.513h.051c.172-.362.492-.574.997-.574.767 0 1.196.454 1.196 1.266v2.215h-.552V45.16c0-.615-.254-.91-.8-.91s-.892.367-.892.967v2.025h-.552Zm5.191.06c-.977 0-1.567-.685-1.567-1.758v-.003c0-1.057.603-1.78 1.533-1.78.93 0 1.494.691 1.494 1.713v.216h-2.462c.016.708.406 1.12 1.015 1.12.463 0 .749-.219.841-.425l.013-.029h.552l-.007.026c-.117.463-.606.92-1.412.92Zm-.038-3.05c-.507 0-.894.346-.955.997h1.892c-.058-.676-.432-.996-.937-.996Zm2.355 2.99v-3.42h.552v.507h.05c.13-.359.451-.568.915-.568.104 0 .222.012.276.022v.536a1.982 1.982 0 0 0-.34-.032c-.527 0-.901.334-.901.835v2.12h-.552Zm3.585.06c-.761 0-1.285-.368-1.348-.933h.565c.092.286.365.473.803.473.46 0 .786-.22.786-.53v-.006c0-.232-.174-.394-.596-.495l-.53-.127c-.641-.153-.93-.432-.93-.924v-.003c0-.568.546-.996 1.273-.996.717 0 1.215.358 1.291.917h-.543c-.072-.27-.339-.457-.751-.457-.407 0-.705.21-.705.51v.007c0 .232.171.378.574.476l.527.127c.644.155.955.435.955.923v.007c0 .609-.593 1.031-1.37 1.031Z"/>
        <path stroke="#37383F" stroke-width=".542" d="M142.426 39.868v9.748"/>
        <path stroke="#ACAFBF" stroke-linecap="square" stroke-linejoin="round" stroke-width=".542"
              d="m146.758 43.66 2.166 2.165 2.166-2.166"/>
    </g>
    <rect width="15.163" height="15.163" x="160.838" y="37.16" fill="#6063F6" rx="2.166"/>
    <g stroke="#fff" stroke-linecap="round" stroke-width=".542" clip-path="url(#clip1_5587_6367)">
        <path d="M168.42 47.991a3.25 3.25 0 1 0-3.249-3.25"/>
        <path stroke-linejoin="round" d="M164.449 47.06h2.83m-1.277 1.276 1.276-1.277-1.276-1.276"/>
    </g>
    <path fill="#ACAFBF"
          d="m4.551 32.994 1.688-4.579h.565l1.688 4.579h-.6l-.46-1.31h-1.82l-.461 1.31h-.6Zm1.945-3.84-.717 2.044h1.485l-.717-2.043h-.05Zm2.863 3.84V30.03H8.79v-.457h.568v-.38c0-.683.342-1.01.993-1.01.133 0 .253.01.368.032v.441a1.502 1.502 0 0 0-.257-.015c-.394 0-.552.193-.552.568v.364h.777v.457H9.91v2.964h-.552Zm2.354 0V30.03h-.568v-.457h.568v-.38c0-.683.343-1.01.993-1.01.133 0 .254.01.368.032v.441a1.5 1.5 0 0 0-.257-.015c-.393 0-.552.193-.552.568v.364h.777v.457h-.777v2.964h-.552Zm3.376.06c-.977 0-1.567-.685-1.567-1.758v-.003c0-1.056.602-1.78 1.532-1.78s1.495.692 1.495 1.714v.215h-2.463c.016.708.407 1.12 1.016 1.12.463 0 .749-.218.84-.425l.013-.028h.553l-.007.025c-.117.463-.606.92-1.412.92Zm-.038-3.049c-.508 0-.895.346-.955.996h1.891c-.057-.676-.431-.996-.936-.996Zm3.754 3.05c-.958 0-1.57-.696-1.57-1.78v-.007c0-1.063.608-1.755 1.567-1.755.831 0 1.33.48 1.43 1.088l.004.02h-.549l-.003-.01c-.086-.336-.39-.61-.882-.61-.616 0-1.003.496-1.003 1.267v.006c0 .787.393 1.292 1.003 1.292.46 0 .752-.203.879-.584l.006-.02.546-.002-.007.034c-.14.62-.6 1.06-1.421 1.06Zm3.516-.036c-.705 0-1-.26-1-.913V30.03h-.54v-.457h.54v-.885h.571v.885h.75v.457h-.75v1.936c0 .403.14.565.495.565.099 0 .153-.003.254-.013v.47a1.832 1.832 0 0 1-.32.031Zm2.49.035c-.977 0-1.567-.685-1.567-1.758v-.003c0-1.056.603-1.78 1.533-1.78.93 0 1.494.692 1.494 1.714v.215H23.81c.016.708.406 1.12 1.015 1.12.463 0 .75-.218.841-.425l.013-.028h.552l-.006.025c-.118.463-.607.92-1.413.92Zm-.038-3.049c-.507 0-.894.346-.955.996h1.891c-.057-.676-.431-.996-.936-.996Zm3.618 3.05c-.866 0-1.434-.702-1.434-1.768v-.006c0-1.073.564-1.768 1.434-1.768.47 0 .879.235 1.066.6h.05v-1.898h.553v4.779h-.552v-.546h-.051c-.21.381-.59.606-1.066.606Zm.127-.49c.622 0 1.002-.488 1.002-1.278v-.006c0-.79-.38-1.28-1.002-1.28-.625 0-.997.483-.997 1.28v.006c0 .796.372 1.279.997 1.279Zm4.5.429v-4.579h2.836v.514h-2.266v1.47h2.148v.507h-2.148v1.574h2.266v.514h-2.837Zm3.8 0v-3.42h.553v.513h.05c.172-.361.492-.574.997-.574.768 0 1.196.454 1.196 1.266v2.215h-.552v-2.081c0-.616-.254-.911-.8-.911-.545 0-.891.368-.891.968v2.024h-.553Zm5.058.06c-.866 0-1.434-.7-1.434-1.767v-.006c0-1.073.565-1.768 1.434-1.768.47 0 .88.235 1.067.6h.05v-1.898h.552v4.779h-.552v-.546h-.05c-.21.381-.59.606-1.067.606Zm.127-.488c.622 0 1.003-.489 1.003-1.28v-.006c0-.79-.38-1.278-1.003-1.278-.625 0-.996.482-.996 1.279v.006c0 .796.371 1.279.996 1.279Zm2.602 1.57v-4.563h.552v.546h.051c.21-.38.59-.606 1.066-.606.867 0 1.435.701 1.435 1.767v.007c0 1.072-.565 1.767-1.435 1.767-.47 0-.879-.235-1.066-.6h-.05v1.682h-.553Zm1.542-1.57c.626 0 .997-.483.997-1.28v-.006c0-.796-.371-1.278-.997-1.278-.621 0-1.002.488-1.002 1.279v.006c0 .79.38 1.279 1.002 1.279Zm3.83.488c-.974 0-1.577-.672-1.577-1.767v-.006c0-1.098.603-1.768 1.577-1.768.975 0 1.577.67 1.577 1.767v.007c0 1.095-.602 1.767-1.577 1.767Zm0-.488c.648 0 1.013-.473 1.013-1.28v-.006c0-.809-.365-1.278-1.013-1.278-.647 0-1.012.47-1.012 1.279v.006c0 .806.365 1.279 1.012 1.279Zm2.726-3.653a.382.382 0 0 1-.38-.38.38.38 0 1 1 .38.38Zm-.28 4.081v-3.42h.553v3.42h-.552Zm1.594 0v-3.42h.552v.513h.05c.172-.361.492-.574.997-.574.768 0 1.196.454 1.196 1.266v2.215h-.552v-2.081c0-.616-.254-.911-.8-.911-.545 0-.891.368-.891.968v2.024h-.552Zm5.01.025c-.704 0-1-.26-1-.913V30.03h-.539v-.457h.54v-.885h.57v.885h.75v.457h-.75v1.936c0 .403.14.565.496.565.098 0 .152-.003.253-.013v.47a1.832 1.832 0 0 1-.32.031Zm2.256.035c-.761 0-1.285-.368-1.349-.933h.565c.092.286.365.473.803.473.46 0 .787-.219.787-.53v-.006c0-.232-.175-.393-.596-.495l-.53-.127c-.641-.152-.93-.431-.93-.923v-.004c0-.567.546-.996 1.272-.996.717 0 1.216.359 1.292.917h-.543c-.073-.27-.34-.457-.752-.457-.406 0-.704.21-.704.511v.006c0 .232.171.378.574.476l.527.127c.644.156.955.435.955.924v.006c0 .61-.594 1.031-1.37 1.031Zm5.21 1.082c-.618-.822-.9-1.78-.9-2.96 0-1.177.278-2.139.9-2.96h.464c-.46.586-.803 1.859-.803 2.96 0 1.11.343 2.373.803 2.96h-.464Zm2.882-1.066c-.946 0-1.558-.527-1.619-1.25l-.003-.038h.549l.003.032c.045.45.46.761 1.07.761.6 0 1.008-.336 1.008-.822v-.006c0-.562-.402-.876-1.043-.876h-.575v-.482h.55c.545 0 .926-.336.926-.793v-.007c0-.479-.314-.755-.873-.755-.54 0-.923.286-.97.749l-.004.032h-.549l.003-.032c.073-.746.663-1.244 1.52-1.244.873 0 1.447.486 1.447 1.18v.007c0 .565-.4.952-.97 1.072v.013c.665.057 1.12.473 1.12 1.123v.007c0 .764-.674 1.33-1.59 1.33Zm2.817 1.066h-.463c.46-.587.803-1.85.803-2.96 0-1.101-.343-2.374-.803-2.96h.463c.622.821.901 1.783.901 2.96 0 1.18-.282 2.139-.9 2.96Z"/>
    <path fill="#fff"
          d="M6.492 77.32v-4.6h-.059l-1.358.984V73l1.421-1.022h.663v5.342h-.667Zm4.099.126c-.978 0-2.01-.689-2.01-2.699v-.007c0-1.821.758-2.888 2.054-2.888.896 0 1.562.526 1.744 1.315l.01.048h-.67l-.014-.041c-.163-.448-.537-.726-1.077-.726-.97 0-1.366.948-1.407 2.062-.004.041-.004.086-.004.126h.07c.197-.437.7-.825 1.422-.825 1.003 0 1.751.762 1.751 1.788v.007c0 1.066-.792 1.84-1.87 1.84ZM9.376 75.6c0 .703.53 1.258 1.207 1.258.67 0 1.207-.544 1.207-1.236v-.007c0-.711-.503-1.222-1.196-1.222-.692 0-1.218.507-1.218 1.203v.004Zm4.154 1.721v-.459l1.806-1.955c.682-.736.882-1.014.882-1.48v-.008c0-.562-.382-.984-1.011-.984-.64 0-1.066.418-1.066 1.047l-.004.008-.637-.004-.007-.004c.004-.947.737-1.629 1.758-1.629.933 0 1.648.633 1.648 1.496v.007c0 .611-.263 1.055-1.23 2.051l-1.214 1.255v.06h2.533v.6H13.53Zm4.58 0v-3.99h.643v.607h.06c.177-.43.555-.678 1.077-.678.54 0 .918.285 1.103.7h.06c.214-.422.67-.7 1.22-.7.815 0 1.27.467 1.27 1.303v2.758H22.9v-2.61c0-.588-.27-.88-.833-.88-.556 0-.922.418-.922.925v2.565H20.5v-2.71c0-.474-.326-.78-.83-.78-.521 0-.918.455-.918 1.017v2.473h-.644Zm7.966.07c-.889 0-1.5-.429-1.573-1.088h.658c.108.333.426.552.937.552.537 0 .918-.256.918-.618v-.008c0-.27-.203-.459-.696-.577l-.618-.148c-.748-.178-1.085-.504-1.085-1.078v-.003c0-.663.637-1.163 1.485-1.163.836 0 1.418.418 1.506 1.07h-.633c-.085-.315-.396-.533-.877-.533-.474 0-.822.244-.822.596v.007c0 .27.2.44.67.556l.615.148c.751.181 1.114.507 1.114 1.077v.007c0 .711-.692 1.204-1.6 1.204Zm48.292-5.538c.978 0 2.01.688 2.01 2.698v.008c0 1.821-.758 2.887-2.054 2.887-.896 0-1.562-.525-1.744-1.314l-.01-.048h.67l.014.04c.163.449.537.726 1.077.726.97 0 1.366-.947 1.407-2.062.004-.04.004-.085.004-.126h-.07c-.197.437-.7.826-1.422.826-1.003 0-1.751-.763-1.751-1.788v-.008c0-1.066.792-1.84 1.87-1.84Zm-.003 3.054c.692 0 1.218-.507 1.218-1.203V73.7c0-.704-.53-1.259-1.207-1.259-.67 0-1.207.544-1.207 1.237v.007c0 .71.504 1.222 1.196 1.222Zm4.909 2.502c-1.133 0-1.94-.637-1.94-1.532v-.008c0-.659.462-1.207 1.147-1.366v-.015c-.585-.181-.955-.625-.955-1.188v-.007c0-.807.737-1.403 1.748-1.403 1.01 0 1.747.596 1.747 1.403v.007c0 .563-.37 1.007-.955 1.188v.015c.685.16 1.147.707 1.147 1.366v.008c0 .895-.807 1.532-1.94 1.532Zm0-3.169c.644 0 1.084-.366 1.084-.884v-.008c0-.518-.44-.885-1.085-.885-.644 0-1.084.367-1.084.885v.008c0 .518.44.884 1.085.884Zm0 2.588c.736 0 1.262-.415 1.262-.992v-.008c0-.585-.522-1.003-1.263-1.003-.74 0-1.262.418-1.262 1.003v.008c0 .577.526.992 1.263.992Zm4.012-2.04c-.68 0-1.092-.555-1.092-1.44v-.004c0-.884.411-1.436 1.092-1.436.682 0 1.096.552 1.096 1.436v.004c0 .885-.414 1.44-1.096 1.44Zm.4 2.532h-.6l3.636-5.342h.6l-3.636 5.342Zm-.4-2.972c.367 0 .582-.374.582-1v-.004c0-.625-.215-.995-.582-.995-.366 0-.577.37-.577.995v.004c0 .626.21 1 .577 1Zm3.828 3.043c-.68 0-1.092-.556-1.092-1.44v-.004c0-.885.411-1.437 1.092-1.437s1.096.552 1.096 1.437v.004c0 .884-.415 1.44-1.096 1.44Zm0-.44c.367 0 .581-.375.581-1v-.004c0-.626-.214-.996-.58-.996-.367 0-.578.37-.578.996v.004c0 .625.21 1 .577 1Zm53.049-.505v-4.742h-1.722v-.6h4.109v.6h-1.721v4.742h-.666Zm4.223.07c-1.14 0-1.828-.799-1.828-2.05v-.004c0-1.233.703-2.077 1.788-2.077 1.084 0 1.743.807 1.743 2v.251h-2.872c.018.826.473 1.307 1.184 1.307.541 0 .874-.255.981-.496l.015-.033h.644l-.007.03c-.137.54-.707 1.073-1.648 1.073Zm-.044-3.557c-.592 0-1.044.404-1.114 1.163h2.206c-.067-.789-.503-1.163-1.092-1.163Zm4.117 3.558c-.889 0-1.5-.43-1.574-1.089h.659c.108.334.426.552.937.552.537 0 .918-.255.918-.618v-.008c0-.27-.204-.459-.696-.577l-.618-.148c-.748-.178-1.085-.504-1.085-1.078v-.003c0-.663.637-1.163 1.485-1.163.836 0 1.417.419 1.506 1.07h-.633c-.085-.314-.396-.533-.877-.533-.474 0-.822.245-.822.596v.008c0 .27.2.44.67.555l.615.148c.751.181 1.114.507 1.114 1.077v.008c0 .71-.692 1.203-1.599 1.203Zm3.979-.041c-.822 0-1.166-.303-1.166-1.066v-2.421h-.629v-.533h.629v-1.033h.666v1.033h.874v.533h-.874v2.258c0 .47.163.659.578.659.115 0 .178-.004.296-.015v.548a2.135 2.135 0 0 1-.374.037Zm2.632.04c-.888 0-1.499-.429-1.573-1.088h.659c.107.334.426.552.936.552.537 0 .919-.255.919-.618v-.008c0-.27-.204-.459-.696-.577l-.619-.148c-.747-.178-1.084-.504-1.084-1.078v-.003c0-.663.636-1.163 1.484-1.163.837 0 1.418.419 1.507 1.07h-.633c-.085-.314-.396-.533-.878-.533-.473 0-.821.245-.821.596v.008c0 .27.2.44.67.555l.614.148c.752.181 1.115.507 1.115 1.077v.008c0 .71-.693 1.203-1.6 1.203Z"/>
    <path fill="#ACAFBF"
          d="M4.916 63.656v-4.58h1.57c1.359 0 2.162.848 2.162 2.285v.007c0 1.44-.8 2.288-2.161 2.288h-1.57Zm.571-.514h.962c1.022 0 1.615-.654 1.615-1.768v-.006c0-1.117-.6-1.777-1.615-1.777h-.962v3.55Zm5.226.574c-.777 0-1.177-.457-1.177-1.266v-2.215h.552v2.082c0 .615.223.91.768.91.603 0 .924-.368.924-.967v-2.025h.552v3.42h-.552v-.51h-.051c-.168.365-.514.57-1.016.57Zm2.65-.06v-3.421h.552v.508h.05c.131-.359.451-.568.915-.568.104 0 .222.012.276.022v.536a1.992 1.992 0 0 0-.34-.031c-.527 0-.9.333-.9.834v2.12h-.553Zm3.414.06c-.65 0-1.142-.394-1.142-1.016v-.006c0-.609.45-.961 1.247-1.009l.98-.06v-.311c0-.422-.257-.65-.767-.65-.41 0-.68.152-.768.418l-.004.01h-.552l.003-.02c.09-.536.61-.897 1.34-.897.834 0 1.3.428 1.3 1.139v2.342h-.552v-.505h-.05c-.216.365-.575.565-1.035.565Zm-.577-1.028c0 .346.295.549.692.549.561 0 .97-.368.97-.857v-.31l-.913.056c-.52.032-.75.216-.75.556v.006Zm4.439.993c-.704 0-1-.26-1-.914v-2.075h-.54v-.457h.54v-.885h.572v.885h.748v.457h-.748v1.936c0 .403.14.564.495.564.098 0 .152-.003.253-.012v.47a1.832 1.832 0 0 1-.32.031Zm1.437-4.106a.382.382 0 0 1-.38-.38c0-.21.17-.382.38-.382s.381.172.381.381c0 .21-.171.381-.38.381Zm-.279 4.08v-3.42h.552v3.42h-.552Zm2.999.06c-.974 0-1.577-.672-1.577-1.767v-.006c0-1.098.602-1.767 1.577-1.767.974 0 1.577.67 1.577 1.767v.007c0 1.094-.603 1.767-1.577 1.767Zm0-.488c.647 0 1.012-.472 1.012-1.278v-.007c0-.809-.365-1.279-1.012-1.279-.648 0-1.013.47-1.013 1.28v.006c0 .806.365 1.278 1.013 1.278Zm2.433.429v-3.421h.553v.514h.05c.172-.362.492-.574.997-.574.767 0 1.196.454 1.196 1.266v2.215h-.552v-2.082c0-.615-.254-.91-.8-.91s-.891.367-.891.967v2.025h-.553Zm46.57 0V59.59h-1.476v-.514h3.523v.514H74.37v4.065h-.571Zm2.738 1.2c-.073 0-.168-.007-.244-.02v-.454c.066.013.152.016.228.016.314 0 .505-.143.629-.536l.063-.203-1.266-3.424h.59l.94 2.815h.05l.936-2.815h.581l-1.336 3.63c-.282.768-.565.99-1.17.99Zm3.237-.058v-4.563h.552v.546h.05c.21-.381.59-.606 1.067-.606.866 0 1.434.701 1.434 1.767v.007c0 1.072-.565 1.767-1.434 1.767-.47 0-.88-.235-1.066-.6h-.051v1.682h-.552Zm1.542-1.57c.625 0 .996-.483.996-1.28v-.006c0-.796-.371-1.279-.996-1.279-.622 0-1.003.49-1.003 1.28v.006c0 .79.381 1.278 1.003 1.278Zm2.716-3.653a.382.382 0 0 1-.38-.38c0-.21.17-.382.38-.382a.381.381 0 0 1 0 .762Zm-.28 4.08v-3.42h.553v3.42h-.552Zm2.993.06c-.958 0-1.57-.694-1.57-1.78v-.006c0-1.063.609-1.754 1.567-1.754.831 0 1.33.479 1.431 1.088l.003.02h-.549l-.003-.01c-.086-.337-.39-.61-.882-.61-.616 0-1.003.495-1.003 1.267v.006c0 .787.394 1.291 1.003 1.291.46 0 .752-.203.879-.584l.006-.019.546-.003-.006.035c-.14.619-.6 1.06-1.422 1.06Zm3.176 0c-.65 0-1.142-.393-1.142-1.015v-.006c0-.609.45-.961 1.247-1.009l.98-.06v-.311c0-.422-.257-.65-.767-.65-.41 0-.68.152-.768.418l-.003.01h-.553l.004-.02c.088-.536.609-.897 1.339-.897.834 0 1.3.428 1.3 1.139v2.342h-.551v-.505h-.051c-.216.365-.575.565-1.035.565Zm-.577-1.027c0 .346.295.549.692.549.561 0 .97-.368.97-.857v-.31l-.913.056c-.52.032-.75.216-.75.556v.006Zm3.255.968v-4.779h.553v4.779h-.553Zm3.51 0v-4.58h1.57c1.359 0 2.162.848 2.162 2.285v.007c0 1.44-.8 2.288-2.161 2.288h-1.571Zm.571-.514h.961c1.022 0 1.616-.654 1.616-1.768v-.006c0-1.117-.6-1.777-1.616-1.777h-.96v3.55Zm5.226.574c-.777 0-1.177-.457-1.177-1.266v-2.215h.552v2.082c0 .615.222.91.768.91.603 0 .923-.368.923-.967v-2.025h.552v3.42h-.552v-.51h-.05c-.169.365-.515.57-1.016.57Zm2.65-.06v-3.421h.552v.508h.051c.13-.359.45-.568.913-.568.105 0 .223.012.276.022v.536a1.978 1.978 0 0 0-.339-.031c-.527 0-.901.333-.901.834v2.12h-.552Zm3.414.06c-.651 0-1.142-.394-1.142-1.016v-.006c0-.609.45-.961 1.247-1.009l.98-.06v-.311c0-.422-.257-.65-.768-.65-.409 0-.679.152-.768.418l-.003.01h-.552l.003-.02c.089-.536.609-.897 1.339-.897.835 0 1.301.428 1.301 1.139v2.342h-.552v-.505h-.051c-.215.365-.574.565-1.034.565Zm-.578-1.028c0 .346.296.549.692.549.562 0 .971-.368.971-.857v-.31l-.914.056c-.52.032-.749.216-.749.556v.006Zm4.44.993c-.705 0-1-.26-1-.914v-2.075h-.539v-.457h.539v-.885h.571v.885h.749v.457h-.749v1.936c0 .403.14.564.495.564.099 0 .153-.003.254-.012v.47a1.836 1.836 0 0 1-.32.031Zm1.437-4.106a.382.382 0 0 1-.381-.38c0-.21.172-.382.381-.382.209 0 .381.172.381.381 0 .21-.172.381-.381.381Zm-.279 4.08v-3.42h.552v3.42h-.552Zm2.998.06c-.974 0-1.577-.672-1.577-1.767v-.006c0-1.098.603-1.767 1.577-1.767s1.577.67 1.577 1.767v.007c0 1.094-.603 1.767-1.577 1.767Zm0-.488c.648 0 1.013-.472 1.013-1.278v-.007c0-.809-.365-1.279-1.013-1.279-.647 0-1.012.47-1.012 1.28v.006c0 .806.365 1.278 1.012 1.278Zm2.434.429v-3.421h.552v.514h.051c.171-.362.492-.574.996-.574.768 0 1.197.454 1.197 1.266v2.215h-.553v-2.082c0-.615-.253-.91-.799-.91s-.892.367-.892.967v2.025h-.552Zm20.255 0v-4.58h1.571c1.358 0 2.161.848 2.161 2.285v.007c0 1.44-.8 2.288-2.161 2.288h-1.571Zm.571-.514h.962c1.021 0 1.615-.654 1.615-1.768v-.006c0-1.117-.6-1.777-1.615-1.777h-.962v3.55Zm5.02.574c-.65 0-1.142-.394-1.142-1.016v-.006c0-.609.45-.961 1.247-1.009l.98-.06v-.311c0-.422-.257-.65-.768-.65-.409 0-.679.152-.768.418l-.003.01h-.552l.003-.02c.089-.536.61-.897 1.339-.897.835 0 1.301.428 1.301 1.139v2.342h-.552v-.505h-.051c-.215.365-.574.565-1.034.565Zm-.577-1.028c0 .346.295.549.691.549.562 0 .971-.368.971-.857v-.31l-.914.056c-.52.032-.748.216-.748.556v.006Zm4.439.993c-.705 0-1-.26-1-.914v-2.075h-.539v-.457h.539v-.885h.571v.885h.749v.457h-.749v1.936c0 .403.14.564.495.564.099 0 .153-.003.254-.012v.47a1.827 1.827 0 0 1-.32.031Zm2.084.035c-.65 0-1.142-.394-1.142-1.016v-.006c0-.609.451-.961 1.247-1.009l.981-.06v-.311c0-.422-.257-.65-.768-.65-.41 0-.679.152-.768.418l-.003.01h-.552l.003-.02c.089-.536.609-.897 1.339-.897.834 0 1.301.428 1.301 1.139v2.342h-.552v-.505h-.051c-.216.365-.574.565-1.035.565Zm-.577-1.028c0 .346.295.549.692.549.561 0 .971-.368.971-.857v-.31l-.914.056c-.521.032-.749.216-.749.556v.006Zm4.925 1.028c-.476 0-.857-.225-1.067-.606h-.05v.546h-.552v-4.779h.552v1.898h.05c.188-.365.597-.6 1.067-.6.869 0 1.434.695 1.434 1.767v.007c0 1.066-.568 1.767-1.434 1.767Zm-.127-.489c.625 0 .996-.482.996-1.278v-.007c0-.796-.371-1.279-.996-1.279-.622 0-1.003.49-1.003 1.28v.006c0 .79.381 1.278 1.003 1.278Zm3.357.489c-.651 0-1.143-.394-1.143-1.016v-.006c0-.609.451-.961 1.248-1.009l.98-.06v-.311c0-.422-.257-.65-.768-.65-.409 0-.679.152-.768.418l-.003.01h-.552l.003-.02c.089-.536.609-.897 1.339-.897.835 0 1.301.428 1.301 1.139v2.342h-.552v-.505h-.051c-.216.365-.574.565-1.034.565Zm-.578-1.028c0 .346.295.549.692.549.562 0 .971-.368.971-.857v-.31l-.914.056c-.52.032-.749.216-.749.556v.006Zm4.398 1.028c-.761 0-1.285-.368-1.348-.933h.564c.092.286.365.473.803.473.46 0 .787-.22.787-.53v-.006c0-.232-.174-.394-.596-.495l-.53-.127c-.641-.153-.93-.432-.93-.924v-.003c0-.568.546-.996 1.272-.996.718 0 1.216.358 1.292.917h-.543c-.073-.27-.339-.457-.752-.457-.406 0-.704.21-.704.51v.007c0 .232.171.378.574.476l.527.127c.644.155.955.435.955.923v.007c0 .609-.593 1.03-1.371 1.03Zm3.624 0c-.977 0-1.568-.685-1.568-1.758v-.003c0-1.057.603-1.78 1.533-1.78.93 0 1.495.692 1.495 1.713v.216h-2.463c.016.708.406 1.12 1.016 1.12.463 0 .748-.219.84-.425l.013-.029h.552l-.006.026c-.117.463-.606.92-1.412.92Zm-.038-3.05c-.508 0-.895.346-.955.997h1.891c-.057-.676-.432-.996-.936-.996Z"/>
    <mask id="path-29-inside-2_5587_6367" fill="#fff">
        <path d="M0 85.151h180.333v19.831H0v-19.83Z"/>
    </mask>
    <path fill="#37383F" d="M0 85.693h180.333V84.61H0v1.083Z" mask="url(#path-29-inside-2_5587_6367)"/>
    <rect width="6.679" height="6.679" x="78.929" y="93.893" stroke="#828599" stroke-width=".542" rx=".271"/>
    <g clip-path="url(#clip2_5587_6367)">
        <path stroke="#828599" stroke-linecap="round" stroke-linejoin="round" stroke-width=".542"
              d="m99.868 95.879.813-.812-.813-.813"/>
    </g>
    <g clip-path="url(#clip3_5587_6367)">
        <path stroke="#828599" stroke-width=".542"
              d="M114.907 95.192v-.27h-.911a1.3 1.3 0 0 1-1.271-1.028h3.178a.03.03 0 0 1 .031.03v3.156a1.298 1.298 0 0 1-1.027-1.27v-.618Z"/>
    </g>
    <g clip-path="url(#clip4_5587_6367)">
        <path stroke="#828599" stroke-linecap="round" stroke-linejoin="round" stroke-width=".542"
              d="M131.198 96.229a.27.27 0 0 0 0-.383l-2.053-2.054a.268.268 0 0 0-.382 0l-1.94 1.945s-.939-.47-1.942.34a.276.276 0 0 0-.072.088.276.276 0 0 0-.012.22.276.276 0 0 0 .062.095l3.652 3.652a.273.273 0 0 0 .319.046.27.27 0 0 0 .087-.074c.284-.378.73-1.154.342-1.93l1.939-1.945Z"/>
    </g>
    <rect width="38.495" height="15.498" x="137.505" y="89.484" fill="#6063F6" rx="2.166"/>
    <g clip-path="url(#clip5_5587_6367)">
        <path stroke="#fff" stroke-linecap="round" stroke-width=".542"
              d="M146.17 100.482a3.249 3.249 0 1 0-3.249-3.25"/>
    </g>
    <defs>
        <clipPath id="clip0_5587_6367">
            <path fill="#fff" d="M128.345 4.332h47.656V17.33h-47.656z"/>
        </clipPath>
        <clipPath id="clip1_5587_6367">
            <path fill="#fff" d="M164.087 40.41h8.665v8.664h-8.665z"/>
        </clipPath>
        <clipPath id="clip2_5587_6367">
            <path fill="#fff" d="M93.1 92.9h8.664v8.665H93.1z"/>
        </clipPath>
        <clipPath id="clip3_5587_6367">
            <path fill="#fff" d="M108.262 92.9h8.665v8.665h-8.665z"/>
        </clipPath>
        <clipPath id="clip4_5587_6367">
            <path fill="#fff" d="M123.425 92.9h8.665v8.665h-8.665z"/>
        </clipPath>
        <clipPath id="clip5_5587_6367">
            <path fill="#fff" d="M141.838 92.9h8.665v8.665h-8.665z"/>
        </clipPath>
        <filter id="filter0_d_5587_6367" width="156.506" height="19.495" x="2.708" y="35.535"
                color-interpolation-filters="sRGB" filterUnits="userSpaceOnUse">
            <feFlood flood-opacity="0" result="BackgroundImageFix"/>
            <feColorMatrix in="SourceAlpha" result="hardAlpha" values="0 0 0 0 0 0 0 0 0 0 0 0 0 0 0 0 0 0 127 0"/>
            <feOffset dx=".542" dy=".542"/>
            <feGaussianBlur stdDeviation="1.083"/>
            <feComposite in2="hardAlpha" operator="out"/>
            <feColorMatrix values="0 0 0 0 0 0 0 0 0 0 0 0 0 0 0 0 0 0 0.25 0"/>
            <feBlend in2="BackgroundImageFix" result="effect1_dropShadow_5587_6367"/>
            <feBlend in="SourceGraphic" in2="effect1_dropShadow_5587_6367" result="shape"/>
        </filter>
    </defs>
</svg>