<svg xmlns="http://www.w3.org/2000/svg" fill="none" viewBox="0 0 167 94">
    <rect width="179.792" height="269.853" x=".271" y=".271" fill="#1A1B1E" rx="1.895"/>
    <rect width="179.792" height="269.853" x=".271" y=".271" stroke="#37383F" stroke-width=".542" rx="1.895"/>
    <mask id="path-2-inside-1_5587_1447" fill="#fff">
        <path d="M0 0h180.333v21.662H0V0Z"/>
    </mask>
    <path fill="#37383F" d="M180.333 21.12H0v1.083h180.333V21.12Z" mask="url(#path-2-inside-1_5587_1447)"/>
    <rect width="12.997" height="12.997" x="4.332" y="4.332" fill="#2C344F" rx="2.166"/>
    <g clip-path="url(#clip0_5587_1447)">
        <path stroke="#2D87DA" stroke-linecap="round" stroke-linejoin="round" stroke-width=".542"
              d="M7.31 10.83c3.52-7.503 3.52 7.504 7.04 0"/>
    </g>
    <path fill="#fff"
          d="M24.063 13.83V9.293h-1.644V8.49h4.246v.803h-1.647v4.539h-.955Zm4.535.082c-1.215 0-1.948-.792-1.948-2.103v-.007c0-1.3.744-2.095 1.948-2.095 1.206 0 1.947.792 1.947 2.095v.008c0 1.31-.737 2.102-1.948 2.102Zm0-.748c.64 0 1.003-.5 1.003-1.35v-.008c0-.852-.367-1.355-1.003-1.355-.64 0-1.007.503-1.007 1.355v.007c0 .852.366 1.351 1.006 1.351Zm2.872 2.01v-5.39h.922v.634h.063c.222-.44.663-.7 1.229-.7 1.014 0 1.662.807 1.662 2.088v.007c0 1.288-.637 2.084-1.662 2.084-.555 0-1.018-.274-1.23-.71h-.062v1.988h-.922Zm1.925-2.054c.63 0 1.01-.496 1.01-1.307v-.007c0-.815-.38-1.31-1.01-1.31-.625 0-1.014.495-1.014 1.306v.008c0 .81.389 1.31 1.014 1.31Zm7.19.844c-1.352 0-2.196-.796-2.196-1.973V8.489h.955v3.424c0 .737.448 1.226 1.244 1.226.792 0 1.237-.49 1.237-1.226V8.49h.955v3.502c0 1.177-.837 1.973-2.196 1.973Zm4.941-.052c-1.029 0-1.65-.474-1.728-1.159v-.007h.914l.004.008c.096.28.366.477.825.477.46 0 .778-.207.778-.51v-.008c0-.237-.178-.393-.622-.492l-.655-.149c-.77-.17-1.137-.533-1.137-1.129v-.003c0-.73.666-1.233 1.621-1.233.985 0 1.574.488 1.633 1.144v.007h-.866l-.004-.011c-.067-.255-.333-.463-.766-.463-.411 0-.707.2-.707.504v.004c0 .236.17.38.607.48l.655.145c.792.178 1.166.515 1.166 1.103v.008c0 .77-.722 1.284-1.718 1.284Zm3.75-.015c-.77 0-1.328-.473-1.328-1.21v-.007c0-.722.551-1.144 1.536-1.204l1.04-.063v-.348c0-.403-.263-.625-.759-.625-.422 0-.696.152-.788.418l-.004.015h-.87l.004-.033c.089-.681.74-1.133 1.703-1.133 1.04 0 1.625.503 1.625 1.358v2.766h-.91v-.556h-.064c-.222.393-.651.622-1.184.622Zm-.418-1.255c0 .345.293.548.7.548.555 0 .966-.362.966-.844v-.325l-.91.059c-.515.033-.756.222-.756.555v.008Zm5.424 2.61c-1.066 0-1.707-.455-1.8-1.136l.004-.011h.922l.004.01c.063.26.37.441.884.441.63 0 .996-.292.996-.81v-.774h-.063c-.233.433-.673.67-1.232.67-1.026 0-1.663-.792-1.663-1.94v-.007c0-1.17.637-1.977 1.681-1.977.56 0 .996.274 1.225.733h.049v-.666h.921v3.946c0 .933-.748 1.521-1.928 1.521Zm0-2.343c.64 0 1.025-.492 1.025-1.207v-.007c0-.715-.389-1.21-1.025-1.21-.64 0-1.004.495-1.004 1.21v.007c0 .715.363 1.207 1.004 1.207Zm4.79 1.003c-1.203 0-1.933-.807-1.933-2.095v-.004c0-1.273.737-2.106 1.889-2.106 1.15 0 1.862.807 1.862 2.028v.304h-2.83c.011.726.404 1.148 1.03 1.148.5 0 .784-.252.873-.437l.011-.026h.878l-.011.033c-.13.522-.67 1.155-1.77 1.155Zm-.033-3.483c-.515 0-.9.348-.97.992h1.921c-.063-.663-.437-.992-.951-.992Z"/>
    <path fill="#ACAFBF"
          d="M10.664 31.875c-.947 0-1.518-.572-1.518-1.402V27.97h.476v2.473c0 .587.38.994 1.042.994.66 0 1.036-.407 1.036-.994V27.97h.476v2.504c0 .83-.566 1.402-1.512 1.402Zm3.4-.04c-.634 0-1.07-.307-1.124-.777h.471c.077.238.304.394.67.394.383 0 .655-.183.655-.442v-.005c0-.193-.146-.328-.497-.413l-.442-.105c-.534-.127-.775-.36-.775-.77v-.003c0-.473.455-.83 1.06-.83.598 0 1.013.299 1.077.764h-.452c-.061-.224-.283-.38-.627-.38-.338 0-.587.174-.587.425v.005c0 .194.143.315.479.397l.439.106c.536.13.796.362.796.77v.005c0 .507-.495.859-1.143.859Zm2.64 0c-.543 0-.953-.328-.953-.846v-.005c0-.508.376-.802 1.04-.841l.817-.05v-.26c0-.351-.215-.542-.64-.542-.341 0-.566.127-.64.35l-.003.007h-.46l.003-.016c.074-.447.507-.748 1.115-.748.696 0 1.085.357 1.085.95v1.95h-.46v-.42h-.043c-.18.304-.478.471-.862.471Zm-.482-.857c0 .288.246.458.576.458.468 0 .81-.307.81-.714v-.26l-.762.048c-.434.027-.624.18-.624.463v.005Zm3.86 1.812c-.687 0-1.126-.31-1.197-.778l.005-.002h.476l.003.002c.05.217.304.37.713.37.51 0 .815-.24.815-.66v-.577h-.042c-.18.314-.503.492-.894.492-.738 0-1.195-.571-1.195-1.37v-.005c0-.799.46-1.378 1.206-1.378.401 0 .713.198.888.521h.032v-.47h.46v2.81c0 .637-.492 1.045-1.27 1.045Zm-.02-1.56c.528 0 .845-.397.845-.963v-.005c0-.566-.32-.97-.846-.97-.529 0-.825.404-.825.97v.005c0 .566.296.963.825.963Zm3.31.605c-.814 0-1.306-.571-1.306-1.465v-.003c0-.88.502-1.483 1.277-1.483.775 0 1.245.576 1.245 1.428v.18h-2.052c.014.59.339.933.847.933.386 0 .624-.182.7-.354l.01-.024h.461l-.005.021c-.098.386-.505.767-1.177.767Zm-.032-2.541c-.423 0-.745.288-.796.83h1.576c-.047-.563-.36-.83-.78-.83Zm19.928 2.491v-3.816h2.317v.428h-1.84v1.312h1.689v.423h-1.69v1.653h-.476Zm3.068 0v-3.982h.46v3.982h-.46Zm2.514.05c-.811 0-1.314-.56-1.314-1.473v-.005c0-.915.503-1.473 1.314-1.473.812 0 1.315.558 1.315 1.473v.005c0 .913-.503 1.473-1.315 1.473Zm0-.407c.54 0 .844-.394.844-1.066v-.005c0-.674-.304-1.066-.844-1.066s-.843.392-.843 1.066v.005c0 .672.304 1.066.843 1.066Zm2.473.357-.799-2.85h.46l.56 2.279h.043l.637-2.28h.437l.637 2.28h.042l.56-2.28h.458l-.798 2.85h-.463l-.637-2.204h-.043l-.634 2.205h-.46Zm103.528 0 1.407-3.816h.471l1.406 3.816h-.499l-.384-1.092h-1.518l-.383 1.092h-.5Zm1.621-3.2-.597 1.703h1.237l-.597-1.703h-.043Zm3.282 3.25c-.799 0-1.309-.58-1.309-1.483v-.006c0-.886.508-1.462 1.306-1.462.693 0 1.108.4 1.193.907l.002.016h-.457l-.003-.008c-.071-.28-.325-.508-.735-.508-.513 0-.836.413-.836 1.055v.006c0 .655.328 1.076.836 1.076.383 0 .627-.17.733-.487l.005-.016.455-.002-.006.029c-.116.515-.499.883-1.184.883Zm2.93-.03c-.587 0-.833-.216-.833-.76v-1.73h-.45v-.38h.45v-.738h.476v.737h.624v.381h-.624v1.613c0 .336.116.47.412.47.082 0 .127-.002.212-.01v.391a1.52 1.52 0 0 1-.267.027Zm1.197-3.42a.318.318 0 0 1-.317-.318.318.318 0 0 1 .635 0 .319.319 0 0 1-.318.317Zm-.232 3.4v-2.85h.46v2.85h-.46Zm2.499.05c-.812 0-1.315-.56-1.315-1.473v-.005c0-.915.503-1.473 1.315-1.473.811 0 1.314.558 1.314 1.473v.005c0 .913-.503 1.473-1.314 1.473Zm0-.407c.539 0 .843-.394.843-1.066v-.005c0-.674-.304-1.066-.843-1.066-.54 0-.844.392-.844 1.066v.005c0 .672.304 1.066.844 1.066Zm2.028.357v-2.85h.46v.428h.042c.143-.302.41-.479.83-.479.64 0 .997.378.997 1.055v1.846h-.46V30.05c0-.513-.211-.759-.666-.759-.455 0-.743.307-.743.807v1.687h-.46Z"/>
    <rect width="171.669" height="34.665" x="4.332" y="37.908" fill="#222326" rx="2.166"/>
    <rect width="31.332" height="15.163" x="8.665" y="42.24" fill="#37383F" rx="2.166"/>
    <path fill="#ACAFBF"
          d="M13.554 52.404c-1.052 0-1.8-.591-1.8-1.423v-.007c0-.612.429-1.12 1.065-1.268v-.014c-.543-.168-.887-.58-.887-1.103v-.007c0-.75.684-1.303 1.622-1.303.939 0 1.623.553 1.623 1.303v.007c0 .522-.344.935-.887 1.103v.014c.636.148 1.066.656 1.066 1.268v.007c0 .832-.75 1.423-1.802 1.423Zm0-2.942c.598 0 1.008-.34 1.008-.822v-.007c0-.48-.41-.821-1.008-.821-.598 0-1.007.34-1.007.821v.007c0 .481.41.822 1.007.822Zm0 2.403c.684 0 1.172-.385 1.172-.922v-.006c0-.544-.484-.932-1.172-.932-.687 0-1.172.388-1.172.931v.007c0 .537.488.922 1.172.922Zm4.497.54c-1.052 0-1.802-.592-1.802-1.424v-.007c0-.612.43-1.12 1.066-1.268v-.014c-.543-.168-.887-.58-.887-1.103v-.007c0-.75.684-1.303 1.623-1.303.938 0 1.622.553 1.622 1.303v.007c0 .522-.344.935-.887 1.103v.014c.636.148 1.066.656 1.066 1.268v.007c0 .832-.75 1.423-1.801 1.423Zm0-2.943c.598 0 1.007-.34 1.007-.822v-.007c0-.48-.41-.821-1.007-.821-.598 0-1.008.34-1.008.821v.007c0 .481.41.822 1.008.822Zm0 2.403c.684 0 1.172-.385 1.172-.922v-.006c0-.544-.485-.932-1.172-.932-.688 0-1.173.388-1.173.931v.007c0 .537.488.922 1.173.922Zm3.052.491a.45.45 0 0 1-.447-.447.446.446 0 1 1 .447.447Zm3.08.048c-1.024 0-1.688-.57-1.753-1.354l-.003-.041h.594l.004.034c.048.488.498.825 1.158.825.65 0 1.093-.364 1.093-.89v-.007c0-.609-.436-.949-1.13-.949h-.623V49.5h.595c.591 0 1.004-.365 1.004-.86v-.007c0-.519-.34-.818-.946-.818-.584 0-1 .31-1.052.811l-.003.035h-.595l.004-.035c.079-.807.718-1.347 1.646-1.347.946 0 1.568.526 1.568 1.279v.007c0 .611-.433 1.03-1.052 1.161v.014c.722.062 1.213.512 1.213 1.217v.007c0 .828-.728 1.44-1.722 1.44Zm4.48.035c-.908 0-1.867-.64-1.867-2.506v-.007c0-1.691.704-2.681 1.907-2.681.832 0 1.451.488 1.62 1.22l.01.045h-.622l-.014-.038c-.151-.416-.498-.674-1-.674-.901 0-1.269.88-1.307 1.915-.003.038-.003.079-.003.117h.065c.182-.406.65-.767 1.32-.767.932 0 1.626.708 1.626 1.66v.007c0 .99-.735 1.709-1.736 1.709Zm-1.128-1.716c0 .654.491 1.17 1.12 1.17.623 0 1.121-.506 1.121-1.149v-.007c0-.66-.468-1.134-1.11-1.134-.643 0-1.131.47-1.131 1.117v.003Zm4.781-.752c-.632 0-1.014-.516-1.014-1.338v-.003c0-.822.382-1.334 1.014-1.334.633 0 1.018.512 1.018 1.334v.003c0 .822-.385 1.337-1.018 1.337Zm.372 2.35h-.557l3.375-4.96h.557l-3.375 4.96Zm-.372-2.76c.34 0 .54-.347.54-.928v-.003c0-.581-.2-.925-.54-.925s-.536.344-.536.925v.003c0 .581.196.928.536.928Zm3.555 2.826c-.633 0-1.014-.516-1.014-1.337v-.003c0-.822.381-1.334 1.014-1.334.632 0 1.017.512 1.017 1.334v.003c0 .822-.385 1.337-1.017 1.337Zm0-.409c.34 0 .54-.347.54-.928v-.003c0-.581-.2-.925-.54-.925s-.537.343-.537.925v.003c0 .58.196.928.537.928Z"/>
    <path fill="#fff"
          d="M47.08 49.24v-4.579h1.57c1.358 0 2.161.848 2.161 2.285v.006c0 1.441-.8 2.288-2.16 2.288h-1.572Zm.57-.514h.962c1.022 0 1.615-.654 1.615-1.767v-.007c0-1.116-.6-1.776-1.615-1.776h-.961v3.55Zm4.373-3.566a.382.382 0 0 1-.38-.381.38.38 0 1 1 .38.38Zm-.28 4.08v-3.42h.553v3.42h-.552Zm3.003 1.206c-.825 0-1.352-.371-1.438-.933l.007-.003h.57l.004.003c.06.26.365.444.857.444.612 0 .977-.288.977-.793v-.692h-.05c-.217.378-.604.59-1.073.59-.886 0-1.435-.685-1.435-1.643v-.006c0-.959.553-1.654 1.447-1.654.483 0 .857.238 1.066.625h.039v-.564h.552v3.373c0 .764-.59 1.253-1.523 1.253Zm-.026-1.872c.635 0 1.016-.476 1.016-1.155v-.006c0-.68-.384-1.165-1.016-1.165-.634 0-.99.486-.99 1.165v.006c0 .679.356 1.155.99 1.155Zm2.577.666v-3.42h.552v.52h.05c.153-.368.477-.58.924-.58.463 0 .787.244.946.6h.05c.184-.363.575-.6 1.047-.6.699 0 1.089.4 1.089 1.116v2.364h-.552v-2.237c0-.504-.232-.755-.714-.755-.476 0-.79.359-.79.793v2.2h-.552v-2.324c0-.406-.28-.669-.711-.669-.448 0-.787.39-.787.873v2.12h-.552Zm6.594.06c-.651 0-1.143-.393-1.143-1.015v-.006c0-.61.45-.962 1.247-1.01l.98-.06v-.31c0-.422-.256-.651-.767-.651-.41 0-.68.152-.768.419l-.003.01h-.552l.003-.02c.089-.536.609-.898 1.339-.898.834 0 1.3.429 1.3 1.14v2.341h-.551v-.504h-.051c-.216.365-.574.565-1.034.565Zm-.578-1.028c0 .346.295.55.692.55.561 0 .97-.369.97-.857v-.311l-.913.057c-.52.032-.749.216-.749.555v.006Zm3.674 1a.416.416 0 0 1-.412-.413.412.412 0 1 1 .412.413Zm1.549-.032v-4.579h.663l1.568 3.82h.05l1.568-3.82h.663v4.58h-.533v-3.498h-.035l-1.447 3.497h-.482l-1.447-3.497h-.035v3.497h-.533Zm7.006.06c-.977 0-1.567-.685-1.567-1.757v-.004c0-1.056.603-1.78 1.532-1.78.93 0 1.495.692 1.495 1.714v.216h-2.463c.016.707.407 1.12 1.016 1.12.463 0 .749-.22.84-.425l.013-.03h.552l-.006.026c-.117.464-.606.92-1.412.92Zm-.038-3.049c-.508 0-.895.346-.955.997h1.891c-.057-.676-.431-.997-.936-.997Zm3.294 3.05c-.65 0-1.143-.394-1.143-1.016v-.006c0-.61.451-.962 1.247-1.01l.98-.06v-.31c0-.422-.256-.651-.767-.651-.41 0-.679.152-.768.419l-.003.01h-.552l.003-.02c.089-.536.61-.898 1.34-.898.834 0 1.3.429 1.3 1.14v2.341h-.552v-.504h-.05c-.217.365-.575.565-1.035.565Zm-.578-1.029c0 .346.295.55.692.55.562 0 .97-.369.97-.857v-.311l-.913.057c-.52.032-.749.216-.749.555v.006Zm4.398 1.029c-.761 0-1.285-.369-1.348-.933h.564c.092.285.365.472.803.472.46 0 .787-.219.787-.53v-.006c0-.232-.174-.393-.597-.495l-.53-.127c-.64-.152-.93-.431-.93-.923v-.003c0-.568.547-.997 1.273-.997.718 0 1.216.359 1.292.917h-.543c-.073-.27-.34-.457-.752-.457-.406 0-.704.21-.704.511v.007c0 .231.171.377.574.476l.527.127c.644.155.955.434.955.923v.006c0 .61-.594 1.032-1.37 1.032Zm3.373 0c-.777 0-1.177-.457-1.177-1.267V45.82h.552v2.08c0 .616.222.91.768.91.603 0 .923-.367.923-.967V45.82h.552v3.42h-.552v-.51h-.05c-.169.364-.514.57-1.016.57Zm2.65-.06V45.82h.552v.507h.05c.13-.358.451-.568.914-.568.105 0 .222.013.276.023v.536a1.992 1.992 0 0 0-.34-.032c-.526 0-.9.333-.9.835v2.12h-.552Zm3.776.06c-.978 0-1.568-.686-1.568-1.758v-.004c0-1.056.603-1.78 1.533-1.78.93 0 1.494.692 1.494 1.714v.216h-2.462c.016.707.406 1.12 1.015 1.12.464 0 .75-.22.841-.425l.013-.03h.552l-.006.026c-.118.464-.606.92-1.412.92Zm-.038-3.05c-.508 0-.895.346-.956.997h1.892c-.058-.676-.432-.997-.936-.997Zm2.354 2.99V45.82h.552v.52h.05c.153-.368.477-.58.924-.58.463 0 .787.244.946.6h.05c.185-.363.575-.6 1.048-.6.698 0 1.088.4 1.088 1.116v2.364h-.552v-2.237c0-.504-.232-.755-.714-.755-.476 0-.79.359-.79.793v2.2h-.552v-2.324c0-.406-.28-.669-.71-.669-.448 0-.788.39-.788.873v2.12h-.552Zm7.051.06c-.978 0-1.568-.686-1.568-1.758v-.004c0-1.056.603-1.78 1.533-1.78.929 0 1.494.692 1.494 1.714v.216h-2.462c.016.707.406 1.12 1.015 1.12.464 0 .749-.22.841-.425l.013-.03h.552l-.006.026c-.118.464-.606.92-1.412.92Zm-.038-3.05c-.508 0-.895.346-.956.997h1.892c-.058-.676-.432-.997-.936-.997Zm2.354 2.99V45.82h.552v.514h.051c.171-.362.492-.575.996-.575.768 0 1.196.454 1.196 1.266v2.215h-.552v-2.08c0-.616-.253-.911-.799-.911s-.892.368-.892.968v2.024h-.552Zm5.01.025c-.704 0-.999-.26-.999-.914v-2.075h-.54v-.457h.54v-.886h.571v.886h.749v.457h-.749v1.935c0 .403.14.565.495.565.098 0 .152-.003.254-.013v.47a1.838 1.838 0 0 1-.321.032Zm1.596.006a.416.416 0 0 1-.412-.413.413.413 0 0 1 .825 0 .414.414 0 0 1-.413.413Zm1.184-.032 1.688-4.579h.565l1.688 4.58h-.6l-.46-1.311h-1.821l-.46 1.31h-.6Zm1.945-3.84-.717 2.044h1.485l-.717-2.043h-.051Zm2.729 3.84v-3.42h.552v.514h.051c.171-.362.492-.575.996-.575.768 0 1.196.454 1.196 1.266v2.215h-.552v-2.08c0-.616-.254-.911-.799-.911-.546 0-.892.368-.892.968v2.024h-.552Zm4.734.06c-.65 0-1.142-.393-1.142-1.015v-.006c0-.61.45-.962 1.247-1.01l.98-.06v-.31c0-.422-.257-.651-.768-.651-.409 0-.679.152-.767.419l-.004.01h-.552l.003-.02c.089-.536.61-.898 1.34-.898.834 0 1.3.429 1.3 1.14v2.341h-.552v-.504h-.05c-.216.365-.575.565-1.035.565Zm-.577-1.028c0 .346.295.55.691.55.562 0 .971-.369.971-.857v-.311l-.913.057c-.521.032-.749.216-.749.555v.006Zm3.255.968v-4.779h.552v4.78h-.552Zm-76.674 9.2c-.073 0-.169-.007-.245-.02v-.453c.067.013.152.016.229.016.314 0 .504-.143.628-.536l.063-.204-1.266-3.423h.59l.94 2.814h.05l.937-2.814h.58l-1.336 3.63c-.282.767-.564.99-1.17.99Zm4.315-1.14c-.762 0-1.285-.368-1.349-.932h.565c.092.285.365.472.803.472.46 0 .787-.219.787-.53v-.006c0-.232-.175-.393-.597-.495l-.53-.127c-.64-.152-.93-.431-.93-.923v-.003c0-.568.547-.997 1.273-.997.717 0 1.215.359 1.292.917h-.543c-.073-.27-.34-.457-.752-.457-.406 0-.704.21-.704.511v.007c0 .231.17.377.574.476l.527.127c.644.155.955.434.955.923v.006c0 .61-.594 1.032-1.371 1.032Zm2.52-4.14a.382.382 0 0 1-.381-.381.38.38 0 1 1 .381.38Zm-.28 4.08v-3.42h.552v3.42h-.552Zm2.767.06c-.761 0-1.285-.368-1.349-.932h.565c.092.285.365.472.803.472.46 0 .787-.219.787-.53v-.006c0-.232-.175-.393-.596-.495l-.53-.127c-.641-.152-.93-.431-.93-.923v-.003c0-.568.546-.997 1.272-.997.717 0 1.216.359 1.292.917h-.543c-.073-.27-.34-.457-.752-.457-.406 0-.704.21-.704.511v.007c0 .231.171.377.574.476l.527.127c.644.155.955.434.955.923v.006c0 .61-.593 1.032-1.37 1.032Zm34.803-.06v-4.579h1.57c1.358 0 2.161.848 2.161 2.285v.006c0 1.441-.8 2.288-2.16 2.288h-1.571Zm.57-.514h.962c1.022 0 1.615-.654 1.615-1.767v-.007c0-1.116-.6-1.776-1.615-1.776h-.961v3.55Zm5.478.575c-.978 0-1.568-.686-1.568-1.758v-.004c0-1.056.603-1.78 1.533-1.78.93 0 1.494.692 1.494 1.714v.216h-2.462c.016.707.406 1.12 1.015 1.12.464 0 .75-.22.841-.425l.013-.03h.552l-.006.026c-.118.464-.606.92-1.412.92Zm-.038-3.05c-.508 0-.895.346-.956.997h1.892c-.058-.676-.432-.997-.937-.997Zm3.569 3.015c-.704 0-.999-.26-.999-.914v-2.075h-.54v-.457h.54v-.886h.571v.886h.749v.457h-.749v1.935c0 .403.139.565.495.565.098 0 .152-.003.254-.013v.47a1.838 1.838 0 0 1-.321.032Zm2.491.035c-.977 0-1.567-.686-1.567-1.758v-.004c0-1.056.602-1.78 1.532-1.78s1.495.692 1.495 1.714v.216h-2.463c.016.707.407 1.12 1.016 1.12.463 0 .749-.22.841-.425l.012-.03h.552l-.006.026c-.117.464-.606.92-1.412.92Zm-.038-3.05c-.508 0-.895.346-.955.997h1.891c-.057-.676-.431-.997-.936-.997Zm3.754 3.05c-.958 0-1.571-.695-1.571-1.78v-.007c0-1.063.609-1.755 1.568-1.755.831 0 1.329.48 1.431 1.089l.003.019h-.549l-.003-.01c-.086-.336-.391-.609-.882-.609-.616 0-1.003.495-1.003 1.266v.006c0 .787.393 1.292 1.003 1.292.46 0 .752-.203.879-.584l.006-.019.546-.003-.007.035c-.139.618-.599 1.06-1.421 1.06Zm3.516-.035c-.705 0-1-.26-1-.914v-2.075h-.539v-.457h.539v-.886h.571v.886h.749v.457h-.749v1.935c0 .403.14.565.495.565.099 0 .153-.003.254-.013v.47a1.836 1.836 0 0 1-.32.032Zm-61.806 9.082c-1.244 0-2.021-.92-2.021-2.392v-.007c0-1.475.774-2.395 2.018-2.395.964 0 1.716.606 1.853 1.485l-.003.006h-.575l-.003-.006c-.152-.587-.64-.959-1.272-.959-.88 0-1.431.724-1.431 1.87v.006c0 1.145.552 1.865 1.434 1.865.638 0 1.123-.326 1.266-.853l.006-.007h.578v.007c-.152.837-.876 1.38-1.85 1.38Zm2.77-.108v-4.778h.552v1.872h.051c.171-.362.492-.575.996-.575.768 0 1.197.454 1.197 1.266v2.215h-.552v-2.08c0-.616-.254-.911-.8-.911s-.892.368-.892.968v2.024h-.552Zm4.734.06c-.65 0-1.142-.393-1.142-1.015v-.006c0-.61.45-.962 1.247-1.01l.98-.06v-.31c0-.422-.257-.651-.767-.651-.41 0-.68.152-.768.419l-.003.01h-.552l.003-.02c.089-.536.609-.898 1.339-.898.834 0 1.3.429 1.3 1.14v2.341h-.551v-.504h-.051c-.216.365-.575.564-1.035.564Zm-.577-1.028c0 .346.295.55.692.55.561 0 .97-.369.97-.857v-.311l-.913.057c-.52.032-.75.216-.75.555v.006Zm3.224.968v-3.42h.552v.514h.05c.172-.362.492-.575.997-.575.768 0 1.196.454 1.196 1.266v2.215h-.552v-2.08c0-.616-.254-.911-.8-.911-.545 0-.891.368-.891.968v2.024h-.552Zm5.204 1.206c-.825 0-1.352-.371-1.438-.933l.006-.003h.572l.003.003c.06.26.365.444.857.444.612 0 .977-.288.977-.793v-.692h-.05c-.217.378-.604.59-1.073.59-.886 0-1.435-.685-1.435-1.643v-.007c0-.958.552-1.653 1.447-1.653.483 0 .857.238 1.066.625h.039v-.564h.552v3.373c0 .764-.59 1.253-1.523 1.253Zm-.026-1.872c.635 0 1.016-.476 1.016-1.155v-.007c0-.679-.384-1.164-1.016-1.164-.634 0-.99.486-.99 1.164v.007c0 .679.356 1.155.99 1.155Zm3.973.727c-.977 0-1.568-.686-1.568-1.758v-.004c0-1.056.603-1.78 1.533-1.78.93 0 1.495.692 1.495 1.714v.216h-2.463c.016.707.406 1.12 1.016 1.12.463 0 .749-.22.84-.425l.013-.03h.552l-.006.026c-.117.464-.606.92-1.412.92Zm-.038-3.05c-.508 0-.895.346-.955.997h1.89c-.056-.676-.43-.997-.935-.997Z"/>
    <path fill="#A1B5FF"
          d="M62.593 57.348c-1.244 0-2.022-.92-2.022-2.392v-.007c0-1.475.775-2.395 2.019-2.395.964 0 1.716.606 1.853 1.485l-.004.006h-.574l-.003-.006c-.152-.587-.641-.959-1.273-.959-.878 0-1.43.724-1.43 1.87v.006c0 1.145.552 1.865 1.434 1.865.637 0 1.123-.326 1.266-.853l.006-.007h.578v.007c-.153.837-.876 1.38-1.85 1.38Zm4.144-.047c-.974 0-1.577-.673-1.577-1.768v-.006c0-1.098.603-1.768 1.577-1.768s1.577.67 1.577 1.768v.006c0 1.095-.603 1.767-1.577 1.767Zm0-.49c.647 0 1.012-.472 1.012-1.278v-.006c0-.81-.365-1.279-1.012-1.279s-1.012.47-1.012 1.279v.006c0 .806.365 1.279 1.012 1.279Zm2.434.43V53.82h.552v.514h.05c.172-.362.492-.575.997-.575.768 0 1.196.454 1.196 1.266v2.215h-.552v-2.08c0-.616-.254-.911-.8-.911s-.891.368-.891.968v2.024h-.552Zm4.969.06c-.762 0-1.285-.369-1.349-.933h.565c.092.285.365.472.803.472.46 0 .787-.219.787-.53v-.006c0-.232-.175-.393-.597-.495l-.53-.127c-.64-.152-.93-.431-.93-.923v-.003c0-.568.546-.997 1.273-.997.717 0 1.215.359 1.291.917h-.542c-.073-.27-.34-.457-.752-.457-.407 0-.705.21-.705.511v.007c0 .231.172.377.575.476l.526.127c.644.155.955.434.955.923v.006c0 .61-.593 1.032-1.37 1.032Zm3.373 0c-.778 0-1.178-.457-1.178-1.267V53.82h.553v2.08c0 .616.222.91.767.91.603 0 .924-.367.924-.967V53.82h.552v3.42h-.552v-.51h-.051c-.168.364-.514.57-1.015.57Zm2.65-.06V53.82h.551v.52h.051c.152-.368.476-.58.923-.58.464 0 .787.244.946.6h.05c.185-.363.575-.6 1.048-.6.698 0 1.088.4 1.088 1.116v2.364h-.552v-2.237c0-.504-.231-.755-.714-.755-.476 0-.79.359-.79.793v2.2h-.552v-2.324c0-.406-.28-.669-.71-.669-.448 0-.788.39-.788.873v2.12h-.552Zm7.05.06c-.978 0-1.568-.686-1.568-1.758v-.004c0-1.056.603-1.78 1.533-1.78.93 0 1.494.692 1.494 1.714v.216H86.21c.016.707.406 1.12 1.016 1.12.463 0 .748-.22.84-.425l.013-.03h.552l-.006.026c-.118.464-.606.92-1.412.92Zm-.038-3.05c-.508 0-.895.346-.955.997h1.89c-.056-.676-.43-.997-.935-.997Z"/>
    <rect width="15.163" height="15.163" x="134.844" y="42.24" fill="#3D2327" rx="2.166"/>
    <path stroke="#DA2D5F" stroke-linecap="round" stroke-width=".542"
          d="m144.05 47.163-.856 1.305a1.082 1.082 0 0 0-.178.594v1.52c0 .21.062.417.178.593l.856 1.305m-3.249 0 .856-1.304c.116-.177.178-.384.178-.595v-1.519c0-.21-.062-.417-.178-.594l-.856-1.305m3.397 4.136a2.18 2.18 0 0 0 .591-1.477 2.18 2.18 0 0 0-.591-1.477m-3.545 0a2.18 2.18 0 0 0-.59 1.477c0 .56.221 1.073.59 1.477"/>
    <rect width="15.163" height="15.163" x="156.506" y="42.24" fill="#6063F6" rx="2.166"/>
    <g clip-path="url(#clip1_5587_1447)">
        <path stroke="#F0F1F7" stroke-linecap="round" stroke-width=".542"
              d="M164.087 53.071a3.25 3.25 0 1 0-3.249-3.25"/>
        <path fill="#F0F1F7" d="M164.809 49.822a.722.722 0 1 1-1.444 0 .722.722 0 0 1 1.444 0Z"/>
        <path stroke="#F0F1F7" stroke-linecap="round" stroke-linejoin="round" stroke-width=".542"
              d="M160.116 52.14h2.83m-1.276 1.276 1.276-1.276-1.276-1.277"/>
    </g>
    <rect width="171.669" height="165.329" x="4.332" y="76.905" fill="#222326" rx="2.166"/>
    <rect width="31.332" height="15.163" x="8.665" y="81.237" fill="#37383F" rx="2.166"/>
    <path fill="#ACAFBF"
          d="M13.554 91.401c-1.052 0-1.801-.591-1.801-1.423v-.007c0-.612.43-1.12 1.066-1.268v-.014c-.544-.168-.887-.58-.887-1.103v-.007c0-.75.684-1.303 1.622-1.303.939 0 1.623.553 1.623 1.303v.007c0 .522-.344.935-.887 1.103v.014c.636.148 1.066.656 1.066 1.268v.007c0 .832-.75 1.423-1.802 1.423Zm0-2.942c.598 0 1.008-.34 1.008-.822v-.007c0-.481-.41-.821-1.008-.821-.598 0-1.007.34-1.007.821v.007c0 .481.41.822 1.007.822Zm0 2.403c.684 0 1.172-.385 1.172-.922v-.007c0-.543-.484-.931-1.172-.931-.687 0-1.172.388-1.172.931v.007c0 .537.488.922 1.172.922Zm4.496.54c-1.051 0-1.8-.592-1.8-1.424v-.007c0-.612.429-1.12 1.065-1.268v-.014c-.543-.168-.887-.58-.887-1.103v-.007c0-.75.684-1.303 1.622-1.303.939 0 1.623.553 1.623 1.303v.007c0 .522-.344.935-.887 1.103v.014c.636.148 1.066.656 1.066 1.268v.007c0 .832-.75 1.423-1.802 1.423Zm0-2.943c.599 0 1.008-.34 1.008-.822v-.007c0-.481-.41-.821-1.008-.821-.598 0-1.007.34-1.007.821v.007c0 .481.41.822 1.008.822Zm0 2.403c.685 0 1.173-.385 1.173-.922v-.007c0-.543-.485-.931-1.172-.931-.688 0-1.173.388-1.173.931v.007c0 .537.488.922 1.172.922Zm3.053.491a.45.45 0 0 1-.447-.447.446.446 0 1 1 .447.447Zm3.08.048c-1.024 0-1.688-.57-1.753-1.354l-.003-.041h.594l.004.034c.048.488.498.825 1.158.825.65 0 1.093-.364 1.093-.89v-.007c0-.609-.436-.949-1.13-.949h-.623v-.523h.595c.591 0 1.004-.364 1.004-.859v-.007c0-.519-.34-.818-.946-.818-.584 0-1 .31-1.052.811l-.003.035h-.595l.004-.035c.079-.807.718-1.347 1.646-1.347.946 0 1.568.526 1.568 1.279v.006c0 .612-.433 1.032-1.052 1.162v.014c.722.062 1.213.512 1.213 1.217v.007c0 .828-.729 1.44-1.722 1.44Zm4.48.035c-.908 0-1.867-.64-1.867-2.506v-.007c0-1.692.704-2.681 1.907-2.681.832 0 1.451.488 1.62 1.22l.01.044h-.622l-.014-.037c-.151-.416-.499-.674-1-.674-.901 0-1.269.88-1.307 1.915-.003.038-.003.079-.003.117h.065c.182-.406.65-.767 1.32-.767.932 0 1.626.708 1.626 1.66v.007c0 .99-.735 1.709-1.736 1.709Zm-1.128-1.716c0 .653.491 1.169 1.12 1.169.622 0 1.12-.505 1.12-1.148v-.007c0-.66-.467-1.134-1.11-1.134-.642 0-1.13.47-1.13 1.117v.003Zm4.781-.752c-.632 0-1.014-.516-1.014-1.338v-.003c0-.822.382-1.334 1.014-1.334.633 0 1.018.512 1.018 1.334v.003c0 .822-.385 1.338-1.018 1.338Zm.371 2.35h-.556l3.375-4.96h.557l-3.376 4.96Zm-.37-2.76c.34 0 .539-.347.539-.928v-.003c0-.581-.2-.925-.54-.925s-.536.344-.536.925v.003c0 .581.196.928.536.928Zm3.554 2.826c-.633 0-1.014-.516-1.014-1.337v-.004c0-.821.381-1.333 1.014-1.333.632 0 1.017.512 1.017 1.333v.004c0 .821-.385 1.337-1.017 1.337Zm0-.409c.34 0 .54-.347.54-.928v-.004c0-.58-.2-.924-.54-.924s-.537.344-.537.924v.004c0 .58.196.928.537.928Z"/>
    <path fill="#fff"
          d="M47.08 88.237v-4.579h1.57c1.358 0 2.16.848 2.16 2.285v.006c0 1.441-.799 2.288-2.16 2.288h-1.57Zm.57-.514h.962c1.022 0 1.615-.653 1.615-1.767v-.007c0-1.117-.6-1.777-1.615-1.777h-.962v3.551Zm4.373-3.566a.382.382 0 0 1-.38-.381.38.38 0 1 1 .38.381Zm-.28 4.08v-3.42h.553v3.42h-.552Zm3.003 1.206c-.825 0-1.352-.371-1.438-.933l.007-.003h.57l.004.003c.06.26.365.444.857.444.612 0 .977-.288.977-.793v-.692h-.05c-.217.378-.604.59-1.073.59-.886 0-1.435-.685-1.435-1.643v-.007c0-.958.553-1.653 1.447-1.653.483 0 .857.238 1.066.625h.039v-.564h.552v3.373c0 .764-.59 1.253-1.523 1.253Zm-.026-1.872c.635 0 1.016-.476 1.016-1.155v-.007c0-.679-.384-1.164-1.016-1.164-.634 0-.99.485-.99 1.164v.007c0 .679.356 1.155.99 1.155Zm2.577.666v-3.42h.552v.52h.05c.153-.368.477-.58.924-.58.463 0 .787.244.946.599h.05c.184-.362.575-.6 1.047-.6.699 0 1.089.4 1.089 1.117v2.364h-.552V86c0-.504-.232-.755-.714-.755-.476 0-.79.358-.79.793v2.2h-.552v-2.323c0-.407-.28-.67-.711-.67-.448 0-.787.39-.787.873v2.12h-.552Zm6.593.06c-.65 0-1.142-.393-1.142-1.015v-.006c0-.61.45-.962 1.247-1.01l.98-.06v-.31c0-.423-.256-.651-.767-.651-.41 0-.68.152-.768.419l-.003.01h-.552l.003-.02c.089-.536.609-.898 1.339-.898.834 0 1.3.429 1.3 1.14v2.341h-.551v-.504h-.051c-.216.365-.575.564-1.035.564Zm-.577-1.028c0 .346.295.55.692.55.561 0 .97-.369.97-.857v-.311l-.913.057c-.52.032-.75.216-.75.555v.006Zm3.084 2.133.276-1.806h.632l-.499 1.806h-.409Zm3.64-1.057c-1.003 0-1.65-.527-1.717-1.272l-.003-.035h.571l.003.035c.041.457.517.745 1.177.745.622 0 1.076-.32 1.076-.787v-.003c0-.38-.263-.64-.892-.78l-.507-.111c-.917-.204-1.314-.626-1.314-1.289v-.003c.003-.758.666-1.294 1.612-1.294.914 0 1.552.539 1.6 1.221l.002.045h-.57l-.007-.042c-.064-.403-.444-.7-1.04-.698-.572.003-1.013.273-1.013.752v.003c0 .365.25.613.873.75l.507.114c.955.212 1.333.596 1.333 1.256v.003c0 .857-.67 1.39-1.691 1.39Zm3.972-.047c-.958 0-1.57-.695-1.57-1.78v-.007c0-1.063.609-1.755 1.567-1.755.832 0 1.33.48 1.431 1.089l.004.019h-.55l-.003-.01c-.085-.336-.39-.609-.882-.609-.615 0-1.002.495-1.002 1.266v.006c0 .787.393 1.292 1.002 1.292.46 0 .752-.203.88-.584l.006-.02.545-.002-.006.035c-.14.618-.6 1.06-1.422 1.06Zm2.27-.06v-4.78h.551v1.873h.051c.171-.362.492-.575.996-.575.768 0 1.197.454 1.197 1.266v2.215h-.552v-2.081c0-.616-.254-.911-.8-.911s-.892.368-.892.968v2.024h-.552Zm5.19.06c-.977 0-1.567-.686-1.567-1.758v-.004c0-1.056.603-1.78 1.532-1.78.93 0 1.495.692 1.495 1.714v.216h-2.462c.016.707.406 1.12 1.015 1.12.463 0 .749-.22.841-.426l.013-.028h.552l-.007.025c-.117.464-.606.92-1.412.92Zm-.038-3.05c-.507 0-.894.346-.955.996h1.891c-.057-.675-.431-.996-.936-.996Zm3.618 3.05c-.867 0-1.435-.702-1.435-1.768v-.006c0-1.073.565-1.768 1.435-1.768.47 0 .879.235 1.066.6h.05v-1.897h.553v4.778h-.552v-.546h-.051c-.21.381-.59.606-1.066.606Zm.127-.49c.621 0 1.002-.488 1.002-1.278v-.006c0-.79-.38-1.279-1.002-1.279-.626 0-.997.482-.997 1.279v.006c0 .796.371 1.279.997 1.279Zm3.747.49c-.777 0-1.177-.457-1.177-1.267v-2.214h.552v2.081c0 .616.222.91.768.91.603 0 .923-.367.923-.967v-2.024h.552v3.42h-.552v-.51h-.05c-.169.364-.515.57-1.016.57Zm2.681-.06v-4.78h.552v4.78h-.552Zm3.008.06c-.977 0-1.567-.686-1.567-1.758v-.004c0-1.056.603-1.78 1.532-1.78.93 0 1.495.692 1.495 1.714v.216H93.61c.016.707.406 1.12 1.015 1.12.463 0 .749-.22.84-.426l.014-.028h.552l-.007.025c-.117.464-.606.92-1.412.92Zm-.038-3.05c-.507 0-.894.346-.955.996h1.891c-.057-.675-.431-.996-.936-.996Zm2.355 2.99v-3.421h.552v.507h.05c.13-.358.451-.568.914-.568.105 0 .223.013.277.022v.537a1.98 1.98 0 0 0-.34-.032c-.527 0-.901.333-.901.835v2.12h-.552Z"/>
    <path fill="#A1B5FF"
          d="M47.08 96.237v-4.579h1.57c1.358 0 2.16.848 2.16 2.285v.006c0 1.441-.799 2.288-2.16 2.288h-1.57Zm.57-.514h.962c1.022 0 1.615-.653 1.615-1.767v-.007c0-1.117-.6-1.777-1.615-1.777h-.962v3.551Zm4.373-3.566a.382.382 0 0 1-.38-.381.38.38 0 1 1 .38.381Zm-.28 4.08v-3.42h.553v3.42h-.552Zm3.003 1.206c-.825 0-1.352-.371-1.438-.933l.007-.003h.57l.004.003c.06.26.365.444.857.444.612 0 .977-.288.977-.793v-.692h-.05c-.217.378-.604.59-1.073.59-.886 0-1.435-.685-1.435-1.643v-.007c0-.958.553-1.653 1.447-1.653.483 0 .857.238 1.066.625h.039v-.564h.552v3.373c0 .764-.59 1.253-1.523 1.253Zm-.026-1.872c.635 0 1.016-.476 1.016-1.155v-.007c0-.679-.384-1.164-1.016-1.164-.634 0-.99.485-.99 1.164v.007c0 .679.356 1.155.99 1.155Zm2.577.666v-3.42h.552v.52h.05c.153-.368.477-.58.924-.58.463 0 .787.244.946.599h.05c.184-.362.575-.6 1.047-.6.699 0 1.089.4 1.089 1.117v2.364h-.552V94c0-.504-.232-.755-.714-.755-.476 0-.79.358-.79.793v2.2h-.552v-2.323c0-.407-.28-.67-.711-.67-.448 0-.787.39-.787.873v2.12h-.552Zm6.593.06c-.65 0-1.142-.393-1.142-1.015v-.006c0-.61.45-.962 1.247-1.01l.98-.06v-.31c0-.423-.256-.651-.767-.651-.41 0-.68.152-.768.419l-.003.01h-.552l.003-.02c.089-.536.609-.898 1.339-.898.834 0 1.3.429 1.3 1.14v2.341h-.551v-.504h-.051c-.216.365-.575.564-1.035.564Zm-.577-1.028c0 .346.295.55.692.55.561 0 .97-.369.97-.857v-.311l-.913.057c-.52.032-.75.216-.75.555v.006Zm3.674 1a.416.416 0 0 1-.412-.413.412.412 0 1 1 .412.413Zm1.479-.032v-3.42h.552v.52h.05c.153-.368.477-.58.924-.58.464 0 .787.244.946.599h.05c.185-.362.575-.6 1.048-.6.698 0 1.088.4 1.088 1.117v2.364h-.552V94c0-.504-.232-.755-.714-.755-.476 0-.79.358-.79.793v2.2h-.552v-2.323c0-.407-.28-.67-.71-.67-.448 0-.788.39-.788.873v2.12h-.552Zm7.05.06c-.977 0-1.567-.685-1.567-1.757v-.004c0-1.056.603-1.78 1.533-1.78.93 0 1.494.692 1.494 1.714v.216h-2.462c.016.707.406 1.12 1.015 1.12.464 0 .75-.22.841-.426l.013-.028h.552l-.006.025c-.118.464-.606.92-1.412.92Zm-.037-3.049c-.508 0-.895.346-.956.996h1.892c-.058-.675-.432-.996-.936-.996Zm3.293 3.05c-.65 0-1.142-.394-1.142-1.016v-.006c0-.61.45-.962 1.247-1.01l.98-.06v-.31c0-.423-.257-.651-.767-.651-.41 0-.68.152-.768.419l-.004.01h-.552l.004-.02c.088-.536.609-.898 1.339-.898.834 0 1.3.429 1.3 1.14v2.341h-.552v-.504h-.05c-.216.365-.575.564-1.035.564Zm-.577-1.029c0 .346.295.55.692.55.561 0 .97-.369.97-.857v-.311l-.913.057c-.52.032-.75.216-.75.555v.006Zm4.398 1.028c-.762 0-1.285-.368-1.349-.932h.565c.092.285.365.472.803.472.46 0 .787-.219.787-.53v-.006c0-.231-.175-.393-.597-.495l-.53-.127c-.64-.152-.93-.431-.93-.923v-.003c0-.568.546-.997 1.273-.997.717 0 1.215.359 1.291.917h-.542c-.073-.27-.34-.457-.752-.457-.406 0-.705.21-.705.511v.007c0 .231.172.377.575.476l.526.127c.645.155.955.434.955.923v.006c0 .61-.593 1.031-1.37 1.031Zm3.373 0c-.778 0-1.177-.456-1.177-1.266v-2.214h.552v2.081c0 .616.222.91.768.91.602 0 .923-.367.923-.967v-2.024h.552v3.42h-.552v-.51h-.05c-.17.364-.515.57-1.016.57Zm2.65-.06v-3.42h.551v.507h.051c.13-.358.45-.568.914-.568.105 0 .222.013.276.022v.537a1.98 1.98 0 0 0-.34-.032c-.526 0-.9.333-.9.835v2.12h-.553Zm3.775.06c-.977 0-1.567-.685-1.567-1.757v-.004c0-1.056.603-1.78 1.532-1.78.93 0 1.495.692 1.495 1.714v.216h-2.463c.016.707.407 1.12 1.016 1.12.463 0 .749-.22.84-.426l.013-.028h.553l-.007.025c-.117.464-.606.92-1.412.92Zm-.038-3.049c-.508 0-.895.346-.955.996h1.891c-.057-.675-.431-.996-.936-.996Zm2.355 2.99v-3.421h.552v.52h.05c.153-.368.476-.58.924-.58.463 0 .787.244.945.599h.051c.184-.362.575-.6 1.047-.6.698 0 1.089.4 1.089 1.117v2.364h-.552V94c0-.504-.232-.755-.714-.755-.476 0-.79.358-.79.793v2.2h-.553v-2.323c0-.407-.279-.67-.71-.67-.448 0-.787.39-.787.873v2.12h-.552Zm7.05.06c-.977 0-1.567-.686-1.567-1.758v-.004c0-1.056.603-1.78 1.532-1.78.93 0 1.495.692 1.495 1.714v.216h-2.463c.016.707.407 1.12 1.016 1.12.463 0 .749-.22.841-.426l.012-.028h.553l-.007.025c-.117.464-.606.92-1.412.92Zm-.038-3.05c-.508 0-.895.346-.955.996h1.891c-.057-.675-.431-.996-.936-.996Zm2.355 2.99v-3.421h.552v.514h.05c.172-.362.492-.575.997-.575.768 0 1.196.454 1.196 1.266v2.215h-.552v-2.081c0-.616-.254-.911-.8-.911-.545 0-.891.368-.891.968v2.024h-.552Zm5.01.025c-.705 0-1-.26-1-.914v-2.076h-.539v-.456h.539v-.886h.571v.886h.749v.457h-.749v1.935c0 .403.14.565.495.565.099 0 .153-.003.254-.013v.47a1.827 1.827 0 0 1-.32.032Zm1.596.006a.416.416 0 0 1-.413-.413.412.412 0 1 1 .413.413Zm3.011.076c-1.244 0-2.021-.92-2.021-2.392v-.007c0-1.475.774-2.395 2.018-2.395.965 0 1.717.606 1.853 1.484l-.003.007h-.574l-.004-.007c-.152-.587-.641-.958-1.272-.958-.879 0-1.431.724-1.431 1.87v.006c0 1.145.552 1.865 1.434 1.865.638 0 1.123-.326 1.266-.853l.007-.007h.577v.007c-.152.837-.876 1.38-1.85 1.38Zm4.144-.047c-.974 0-1.577-.673-1.577-1.768v-.006c0-1.098.603-1.768 1.577-1.768s1.577.67 1.577 1.768v.006c0 1.095-.603 1.767-1.577 1.767Zm0-.49c.648 0 1.012-.472 1.012-1.278v-.006c0-.81-.364-1.279-1.012-1.279-.647 0-1.012.47-1.012 1.279v.006c0 .806.365 1.279 1.012 1.279Zm2.434.43v-3.421h.552v.514h.051c.171-.362.492-.575.996-.575.768 0 1.197.454 1.197 1.266v2.215h-.553v-2.081c0-.616-.253-.911-.799-.911s-.892.368-.892.968v2.024h-.552Zm5.01.025c-.704 0-.999-.26-.999-.914v-2.076h-.54v-.456h.54v-.886h.571v.886h.749v.457h-.749v1.935c0 .403.14.565.495.565.098 0 .152-.003.254-.013v.47a1.838 1.838 0 0 1-.321.032Zm-78.27 8.974v-3.42h.552v.507h.05c.13-.358.451-.568.914-.568.105 0 .222.013.276.023v.536a1.992 1.992 0 0 0-.34-.032c-.526 0-.9.333-.9.835v2.119h-.552Zm3.414.06c-.65 0-1.142-.393-1.142-1.015v-.006c0-.61.45-.962 1.247-1.009l.98-.061v-.311c0-.422-.257-.65-.768-.65-.41 0-.679.152-.768.419l-.003.009h-.552l.003-.019c.089-.536.61-.898 1.34-.898.834 0 1.3.429 1.3 1.139v2.342h-.552v-.504h-.05c-.217.365-.575.564-1.035.564Zm-.578-1.028c0 .346.295.549.692.549.562 0 .971-.368.971-.856v-.311l-.914.057c-.52.031-.749.216-.749.555v.006Zm4.623 1.028c-.958 0-1.57-.694-1.57-1.78v-.006c0-1.063.61-1.755 1.567-1.755.832 0 1.33.479 1.431 1.089l.004.019h-.55l-.002-.01c-.086-.336-.39-.609-.883-.609-.615 0-1.002.495-1.002 1.266v.006c0 .787.393 1.292 1.002 1.292.46 0 .752-.203.88-.584l.006-.019.545-.003-.006.035c-.14.618-.6 1.059-1.422 1.059Zm3.516-.034c-.704 0-1-.261-1-.914v-2.075h-.539v-.457h.54v-.886h.57v.886h.75v.457h-.75v1.935c0 .403.14.565.496.565.098 0 .152-.003.254-.013v.47a1.833 1.833 0 0 1-.32.032Zm1.596.006a.416.416 0 0 1-.412-.413.412.412 0 1 1 .413.413Zm1.549-.032v-4.579h.663l1.568 3.821h.05l1.568-3.821h.663v4.579h-.533v-3.497h-.035l-1.447 3.497h-.482l-1.447-3.497h-.035v3.497h-.533Zm7.006.06c-.977 0-1.567-.685-1.567-1.757v-.004c0-1.056.602-1.78 1.532-1.78s1.495.692 1.495 1.714v.216h-2.463c.016.707.407 1.12 1.016 1.12.463 0 .749-.219.84-.426l.013-.028h.552l-.006.025c-.117.464-.606.92-1.412.92Zm-.038-3.049c-.508 0-.895.346-.955.996h1.891c-.057-.675-.431-.996-.936-.996Zm3.528 3.049c-.761 0-1.285-.368-1.348-.932h.565c.092.285.365.472.802.472.46 0 .787-.219.787-.53v-.006c0-.232-.174-.393-.596-.495l-.53-.127c-.641-.152-.93-.431-.93-.923v-.003c0-.568.546-.997 1.273-.997.717 0 1.215.359 1.291.917h-.543c-.073-.269-.339-.457-.752-.457-.406 0-.704.21-.704.511v.007c0 .231.171.377.574.476l.527.126c.644.156.955.435.955.924v.006c0 .609-.593 1.031-1.37 1.031Zm3.338 0c-.761 0-1.285-.368-1.348-.932h.565c.092.285.365.472.803.472.46 0 .787-.219.787-.53v-.006c0-.232-.175-.393-.597-.495l-.53-.127c-.64-.152-.93-.431-.93-.923v-.003c0-.568.546-.997 1.273-.997.717 0 1.215.359 1.291.917h-.542c-.073-.269-.34-.457-.752-.457-.407 0-.705.21-.705.511v.007c0 .231.172.377.575.476l.526.126c.644.156.955.435.955.924v.006c0 .609-.593 1.031-1.37 1.031Zm3.167 0c-.65 0-1.142-.393-1.142-1.015v-.006c0-.61.45-.962 1.247-1.009l.98-.061v-.311c0-.422-.256-.65-.767-.65-.41 0-.68.152-.768.419l-.004.009h-.552l.004-.019c.088-.536.609-.898 1.339-.898.834 0 1.3.429 1.3 1.139v2.342h-.552v-.504h-.05c-.216.365-.575.564-1.035.564Zm-.577-1.028c0 .346.295.549.692.549.561 0 .97-.368.97-.856v-.311l-.913.057c-.52.031-.75.216-.75.555v.006Zm4.632 2.174c-.825 0-1.351-.371-1.437-.933l.006-.003h.572l.003.003c.06.26.365.444.856.444.613 0 .978-.288.978-.793v-.692h-.05c-.217.378-.604.59-1.073.59-.886 0-1.435-.685-1.435-1.643v-.007c0-.958.552-1.653 1.447-1.653.483 0 .857.238 1.066.625h.038v-.564h.553v3.373c0 .764-.59 1.253-1.523 1.253Zm-.025-1.872c.635 0 1.016-.476 1.016-1.155v-.007c0-.679-.384-1.164-1.016-1.164-.635 0-.99.485-.99 1.164v.007c0 .679.355 1.155.99 1.155Zm3.973.726c-.978 0-1.568-.685-1.568-1.757v-.004c0-1.056.603-1.78 1.533-1.78.93 0 1.495.692 1.495 1.714v.216H85.13c.016.707.406 1.12 1.016 1.12.463 0 .748-.219.84-.426l.013-.028h.552l-.006.025c-.118.464-.606.92-1.412.92Zm-.038-3.049c-.508 0-.895.346-.955.996h1.89c-.056-.675-.43-.996-.935-.996Zm3.528 3.049c-.761 0-1.285-.368-1.348-.932h.565c.092.285.364.472.802.472.46 0 .787-.219.787-.53v-.006c0-.232-.174-.393-.596-.495l-.53-.127c-.641-.152-.93-.431-.93-.923v-.003c0-.568.546-.997 1.273-.997.717 0 1.215.359 1.29.917h-.542c-.073-.269-.34-.457-.752-.457-.406 0-.704.21-.704.511v.007c0 .231.171.377.574.476l.527.126c.644.156.955.435.955.924v.006c0 .609-.593 1.031-1.37 1.031Zm2.678-.028a.416.416 0 0 1-.412-.413.412.412 0 1 1 .413.413Zm3.078.076c-1.136 0-1.821-.685-1.821-1.682v-3.005h.571v2.967c0 .705.457 1.193 1.25 1.193.794 0 1.244-.488 1.244-1.193v-2.967h.571v3.005c0 .997-.679 1.682-1.815 1.682Zm2.907 1.034v-4.562h.552v.545h.05c.21-.38.59-.606 1.067-.606.866 0 1.434.702 1.434 1.768v.006c0 1.073-.565 1.767-1.434 1.767-.47 0-.88-.234-1.066-.599h-.051v1.681h-.552Zm1.542-1.57c.625 0 .996-.482.996-1.279v-.006c0-.797-.371-1.279-.996-1.279-.622 0-1.003.489-1.003 1.279v.006c0 .79.381 1.279 1.003 1.279Zm3.687.488c-.866 0-1.434-.701-1.434-1.767v-.006c0-1.073.565-1.768 1.434-1.768.47 0 .879.235 1.066.6h.051v-1.898h.552v4.779h-.552v-.546h-.051c-.209.381-.59.606-1.066.606Zm.127-.488c.622 0 1.003-.489 1.003-1.279v-.006c0-.79-.381-1.279-1.003-1.279-.625 0-.996.482-.996 1.279v.006c0 .797.371 1.279.996 1.279Zm3.541.488c-.65 0-1.142-.393-1.142-1.015v-.006c0-.61.45-.962 1.247-1.009l.98-.061v-.311c0-.422-.257-.65-.768-.65-.409 0-.679.152-.767.419l-.004.009h-.552l.003-.019c.089-.536.61-.898 1.34-.898.834 0 1.3.429 1.3 1.139v2.342h-.552v-.504h-.05c-.216.365-.575.564-1.035.564Zm-.577-1.028c0 .346.295.549.691.549.562 0 .971-.368.971-.856v-.311l-.913.057c-.521.031-.749.216-.749.555v.006Zm4.439.994c-.705 0-1-.261-1-.914v-2.075h-.539v-.457h.539v-.886h.571v.886h.749v.457h-.749v1.935c0 .403.14.565.495.565.099 0 .153-.003.254-.013v.47a1.827 1.827 0 0 1-.32.032Zm2.491.034c-.978 0-1.568-.685-1.568-1.757v-.004c0-1.056.603-1.78 1.533-1.78.93 0 1.494.692 1.494 1.714v.216h-2.462c.016.707.406 1.12 1.015 1.12.464 0 .749-.219.841-.426l.013-.028h.552l-.006.025c-.118.464-.606.92-1.412.92Zm-.038-3.049c-.508 0-.895.346-.955.996h1.891c-.057-.675-.432-.996-.936-.996Zm3.925 3.097c-1.003 0-1.65-.527-1.717-1.272l-.003-.035h.571l.003.035c.042.457.517.745 1.177.745.622 0 1.076-.32 1.076-.787v-.003c0-.381-.263-.641-.891-.78l-.508-.111c-.917-.203-1.314-.626-1.314-1.289v-.003c.003-.758.667-1.294 1.612-1.294.914 0 1.552.539 1.599 1.221l.004.045h-.572l-.006-.042c-.063-.403-.444-.701-1.041-.698-.571.003-1.012.273-1.012.752v.003c0 .365.251.613.873.749l.507.115c.955.212 1.333.596 1.333 1.256v.003c0 .857-.67 1.39-1.691 1.39Zm2.573 1.034v-4.562h.552v.545h.051c.209-.38.59-.606 1.066-.606.866 0 1.434.702 1.434 1.768v.006c0 1.073-.564 1.767-1.434 1.767-.469 0-.879-.234-1.066-.599h-.051v1.681h-.552Zm1.542-1.57c.625 0 .997-.482.997-1.279v-.006c0-.797-.372-1.279-.997-1.279-.622 0-1.002.489-1.002 1.279v.006c0 .79.38 1.279 1.002 1.279Zm3.364.488c-.651 0-1.143-.393-1.143-1.015v-.006c0-.61.451-.962 1.247-1.009l.981-.061v-.311c0-.422-.257-.65-.768-.65-.409 0-.679.152-.768.419l-.003.009h-.552l.003-.019c.089-.536.609-.898 1.339-.898.835 0 1.301.429 1.301 1.139v2.342h-.552v-.504h-.051c-.216.365-.574.564-1.034.564Zm-.578-1.028c0 .346.295.549.692.549.562 0 .971-.368.971-.856v-.311l-.914.057c-.52.031-.749.216-.749.555v.006Zm-77.315 9.968v-3.42h.552v.514h.05c.172-.362.492-.575.997-.575.768 0 1.196.454 1.196 1.266v2.215h-.552v-2.081c0-.616-.254-.911-.8-.911s-.891.368-.891.968v2.024h-.552Zm3.864 0v-4.579h1.571c1.358 0 2.161.848 2.161 2.285v.006c0 1.441-.8 2.288-2.16 2.288h-1.572Zm.572-.514h.961c1.022 0 1.615-.654 1.615-1.767v-.007c0-1.117-.6-1.777-1.615-1.777h-.961v3.551Zm5.226.574c-.778 0-1.178-.456-1.178-1.266v-2.214h.553v2.081c0 .616.222.911.767.911.603 0 .924-.368.924-.968v-2.024h.552v3.42h-.552v-.511h-.051c-.168.365-.514.571-1.015.571Zm2.65-.06v-3.42h.551v.507h.051c.13-.358.45-.568.914-.568.105 0 .222.013.276.023v.536a1.991 1.991 0 0 0-.34-.032c-.526 0-.9.333-.9.835v2.119h-.553Zm3.413.06c-.65 0-1.142-.393-1.142-1.015v-.006c0-.61.45-.962 1.247-1.009l.98-.061v-.311c0-.422-.256-.65-.767-.65-.41 0-.68.152-.768.419l-.003.009h-.552l.003-.019c.089-.536.609-.898 1.339-.898.834 0 1.3.429 1.3 1.139v2.342h-.551v-.504h-.051c-.216.365-.575.564-1.035.564Zm-.577-1.028c0 .346.295.549.692.549.561 0 .97-.368.97-.856v-.311l-.913.057c-.52.031-.75.216-.75.555v.006Zm4.44.994c-.705 0-1-.261-1-.914v-2.075h-.54v-.457h.54v-.886h.57v.886h.75v.457h-.75v1.935c0 .403.14.565.496.565.098 0 .152-.003.254-.013v.47a1.833 1.833 0 0 1-.32.032Zm1.436-4.106a.382.382 0 1 1 .38-.381.382.382 0 0 1-.38.381Zm-.279 4.08v-3.42h.552v3.42h-.552Zm2.999.06c-.974 0-1.577-.672-1.577-1.767v-.006c0-1.098.603-1.768 1.577-1.768s1.577.67 1.577 1.768v.006c0 1.095-.603 1.767-1.577 1.767Zm0-.488c.647 0 1.012-.473 1.012-1.279v-.006c0-.809-.365-1.279-1.012-1.279-.648 0-1.012.47-1.012 1.279v.006c0 .806.364 1.279 1.012 1.279Zm2.434.428v-3.42h.552v.514h.05c.172-.362.492-.575.997-.575.768 0 1.196.454 1.196 1.266v2.215h-.552v-2.081c0-.616-.254-.911-.8-.911-.545 0-.891.368-.891.968v2.024h-.552Zm5.708.108c-1.244 0-2.021-.92-2.021-2.392v-.007c0-1.475.774-2.395 2.018-2.395.965 0 1.716.606 1.853 1.485l-.003.006h-.575l-.003-.006c-.152-.587-.64-.959-1.272-.959-.88 0-1.431.724-1.431 1.869v.007c0 1.145.552 1.865 1.434 1.865.638 0 1.123-.326 1.266-.853l.006-.007h.578v.007c-.152.837-.876 1.38-1.85 1.38Zm2.77-.108v-4.779h.552v1.873h.051c.171-.362.492-.575.996-.575.768 0 1.197.454 1.197 1.266v2.215h-.553v-2.081c0-.616-.253-.911-.8-.911-.545 0-.89.368-.89.968v2.024h-.553Zm4.734.06c-.65 0-1.142-.393-1.142-1.015v-.006c0-.61.45-.962 1.247-1.009l.98-.061v-.311c0-.422-.256-.65-.767-.65-.41 0-.68.152-.768.419l-.003.009h-.553l.004-.019c.089-.536.609-.898 1.339-.898.834 0 1.3.429 1.3 1.139v2.342h-.551v-.504h-.051c-.216.365-.575.564-1.035.564Zm-.577-1.028c0 .346.295.549.692.549.561 0 .97-.368.97-.856v-.311l-.913.057c-.52.031-.75.216-.75.555v.006Zm3.224.968v-3.42h.552v.514h.05c.172-.362.492-.575.997-.575.768 0 1.196.454 1.196 1.266v2.215h-.552v-2.081c0-.616-.254-.911-.8-.911-.545 0-.891.368-.891.968v2.024h-.552Zm5.204 1.206c-.825 0-1.352-.371-1.438-.933l.007-.003h.57l.004.003c.06.26.365.444.857.444.612 0 .977-.288.977-.793v-.692h-.05c-.217.378-.604.59-1.073.59-.886 0-1.435-.685-1.435-1.643v-.007c0-.958.552-1.653 1.447-1.653.483 0 .857.238 1.066.625h.039v-.564h.552v3.373c0 .764-.59 1.253-1.523 1.253Zm-.026-1.872c.635 0 1.016-.476 1.016-1.155v-.007c0-.679-.384-1.164-1.016-1.164-.634 0-.99.485-.99 1.164v.007c0 .679.356 1.155.99 1.155Zm3.973.726c-.977 0-1.567-.685-1.567-1.757v-.004c0-1.056.602-1.78 1.532-1.78s1.495.692 1.495 1.714v.216h-2.463c.016.707.406 1.12 1.016 1.12.463 0 .749-.219.84-.426l.013-.028h.552l-.006.025c-.117.464-.606.92-1.412.92Zm-.038-3.049c-.508 0-.895.346-.955.996h1.891c-.057-.675-.432-.996-.936-.996Zm2.424 2.989v-4.579h.663l1.568 3.821h.051l1.567-3.821h.663v4.579h-.533v-3.497h-.035l-1.447 3.497h-.482l-1.447-3.497h-.035v3.497h-.533Zm7.006.06c-.977 0-1.567-.685-1.567-1.757v-.004c0-1.056.603-1.78 1.532-1.78.93 0 1.495.692 1.495 1.714v.216h-2.462c.016.707.406 1.12 1.015 1.12.463 0 .749-.219.841-.426l.013-.028h.552l-.007.025c-.117.464-.606.92-1.412.92Zm-.038-3.049c-.507 0-.895.346-.955.996h1.891c-.057-.675-.431-.996-.936-.996Zm3.294 3.049c-.651 0-1.142-.393-1.142-1.015v-.006c0-.61.45-.962 1.247-1.009l.98-.061v-.311c0-.422-.257-.65-.768-.65-.409 0-.679.152-.768.419l-.003.009h-.552l.003-.019c.089-.536.609-.898 1.339-.898.835 0 1.301.429 1.301 1.139v2.342h-.552v-.504h-.051c-.215.365-.574.564-1.034.564Zm-.578-1.028c0 .346.296.549.692.549.562 0 .971-.368.971-.856v-.311l-.914.057c-.52.031-.749.216-.749.555v.006Zm4.398 1.028c-.761 0-1.285-.368-1.348-.932h.565c.092.285.364.472.802.472.46 0 .787-.219.787-.53v-.006c0-.232-.174-.393-.596-.495l-.53-.127c-.641-.152-.93-.431-.93-.923v-.003c0-.568.546-.997 1.273-.997.717 0 1.215.359 1.291.917h-.543c-.073-.269-.339-.457-.752-.457-.406 0-.704.21-.704.511v.007c0 .231.171.377.574.476l.527.126c.644.156.955.435.955.924v.006c0 .609-.593 1.031-1.371 1.031Zm3.373 0c-.777 0-1.177-.456-1.177-1.266v-2.214h.552v2.081c0 .616.222.911.768.911.603 0 .924-.368.924-.968v-2.024h.552v3.42h-.552v-.511h-.051c-.168.365-.514.571-1.016.571Zm2.65-.06v-3.42h.552v.507h.051c.13-.358.45-.568.914-.568.104 0 .222.013.276.023v.536a2 2 0 0 0-.34-.032c-.527 0-.901.333-.901.835v2.119h-.552Zm3.776.06c-.977 0-1.568-.685-1.568-1.757v-.004c0-1.056.603-1.78 1.533-1.78.93 0 1.494.692 1.494 1.714v.216h-2.462c.016.707.406 1.12 1.016 1.12.463 0 .748-.219.84-.426l.013-.028h.552l-.006.025c-.118.464-.606.92-1.412.92Zm-.038-3.049c-.508 0-.895.346-.955.996h1.891c-.057-.675-.432-.996-.936-.996ZM47.01 122.237v-3.42h.552v.52h.05c.153-.368.476-.581.924-.581.463 0 .787.245.945.6h.051c.184-.362.575-.6 1.047-.6.698 0 1.089.4 1.089 1.117v2.364h-.553V120c0-.504-.231-.755-.713-.755-.476 0-.79.359-.79.793v2.199h-.553v-2.323c0-.406-.279-.669-.71-.669-.448 0-.787.39-.787.873v2.119h-.552Zm7.05.06c-.977 0-1.567-.685-1.567-1.757v-.004c0-1.056.603-1.78 1.532-1.78.93 0 1.495.692 1.495 1.714v.216h-2.463c.016.707.407 1.12 1.016 1.12.463 0 .749-.219.84-.426l.013-.028h.553l-.007.025c-.117.464-.606.92-1.412.92Zm-.038-3.049c-.508 0-.895.346-.955.996h1.891c-.057-.675-.431-.996-.936-.996Zm2.355 2.989v-3.42h.552v.514h.05c.172-.362.492-.575.997-.575.768 0 1.196.454 1.196 1.266v2.215h-.552v-2.081c0-.616-.254-.911-.8-.911-.545 0-.891.368-.891.968v2.024h-.553Zm5.01.026c-.705 0-1-.261-1-.914v-2.075h-.54v-.457h.54v-.886h.572v.886h.748v.457h-.748v1.935c0 .403.14.565.494.565.099 0 .153-.003.254-.013v.47a1.832 1.832 0 0 1-.32.032Zm4.147.034c-.761 0-1.285-.368-1.349-.932h.565c.092.285.365.472.803.472.46 0 .787-.219.787-.53v-.006c0-.232-.175-.393-.597-.495l-.53-.127c-.64-.152-.93-.431-.93-.923v-.003c0-.568.547-.997 1.273-.997.717 0 1.216.359 1.292.917h-.543c-.073-.269-.34-.457-.752-.457-.406 0-.704.21-.704.511v.007c0 .231.171.377.574.476l.527.126c.644.156.955.435.955.924v.006c0 .609-.594 1.031-1.37 1.031Zm3.624 0c-.978 0-1.568-.685-1.568-1.757v-.004c0-1.056.603-1.78 1.533-1.78.93 0 1.494.692 1.494 1.714v.216h-2.462c.016.707.406 1.12 1.016 1.12.463 0 .748-.219.84-.426l.013-.028h.552l-.006.025c-.118.464-.606.92-1.412.92Zm-.038-3.049c-.508 0-.895.346-.955.996h1.89c-.056-.675-.43-.996-.935-.996Zm2.354 2.989v-3.42h.552v.514h.051c.171-.362.492-.575.996-.575.768 0 1.197.454 1.197 1.266v2.215h-.552v-2.081c0-.616-.254-.911-.8-.911s-.892.368-.892.968v2.024h-.552Zm5.058.06c-.866 0-1.434-.701-1.434-1.767v-.006c0-1.073.565-1.768 1.434-1.768.47 0 .879.235 1.066.6h.051v-1.898h.552v4.779h-.552v-.546h-.05c-.21.381-.591.606-1.067.606Zm.127-.488c.622 0 1.003-.489 1.003-1.279v-.006c0-.79-.381-1.279-1.003-1.279-.625 0-.996.482-.996 1.279v.006c0 .797.37 1.279.996 1.279Zm3.052.46a.416.416 0 0 1-.412-.413.412.412 0 1 1 .412.413Z"/>
    <rect width="15.163" height="15.163" x="134.844" y="81.237" fill="#3D2327" rx="2.166"/>
    <path stroke="#DA2D5F" stroke-linecap="round" stroke-width=".542"
          d="m144.05 86.16-.856 1.305a1.082 1.082 0 0 0-.178.594v1.52c0 .21.062.417.178.593l.856 1.305m-3.249 0 .856-1.305a1.08 1.08 0 0 0 .178-.594V88.06c0-.21-.062-.417-.178-.594l-.856-1.305m3.397 4.136c.369-.404.591-.918.591-1.477a2.18 2.18 0 0 0-.591-1.477m-3.545 0a2.181 2.181 0 0 0-.591 1.477c0 .56.222 1.073.591 1.477"/>
    <rect width="15.163" height="15.163" x="156.506" y="81.237" fill="#6063F6" rx="2.166"/>
    <g clip-path="url(#clip2_5587_1447)">
        <path stroke="#F0F1F7" stroke-linecap="round" stroke-width=".542"
              d="M164.087 92.068a3.25 3.25 0 1 0-3.249-3.25"/>
        <path fill="#F0F1F7" d="M164.809 88.819a.722.722 0 1 1-1.444 0 .722.722 0 0 1 1.444 0Z"/>
        <path stroke="#F0F1F7" stroke-linecap="round" stroke-linejoin="round" stroke-width=".542"
              d="M160.116 91.136h2.83m-1.276 1.277 1.276-1.277-1.276-1.276"/>
    </g>
    <defs>
        <clipPath id="clip0_5587_1447">
            <path fill="#fff" d="M6.499 6.498h8.665v8.665H6.499z"/>
        </clipPath>
        <clipPath id="clip1_5587_1447">
            <path fill="#fff" d="M159.755 45.49h8.665v8.664h-8.665z"/>
        </clipPath>
        <clipPath id="clip2_5587_1447">
            <path fill="#fff" d="M159.755 84.487h8.665v8.665h-8.665z"/>
        </clipPath>
    </defs>
</svg>