<svg xmlns="http://www.w3.org/2000/svg" fill="none" viewBox="0 0 167 94">
    <rect width="179.792" height="106.607" x=".271" y=".271" fill="#1A1B1E" rx="1.895"/>
    <rect width="179.792" height="106.607" x=".271" y=".271" stroke="#37383F" stroke-width=".542" rx="1.895"/>
    <mask id="path-2-inside-1_5587_5744" fill="#fff">
        <path d="M0 0h180.333v21.662H0V0Z"/>
    </mask>
    <path fill="#37383F" d="M180.333 21.12H0v1.083h180.333V21.12Z" mask="url(#path-2-inside-1_5587_5744)"/>
    <rect width="12.997" height="12.997" x="4.332" y="4.332" fill="#3C2C23" rx="2.166"/>
    <path stroke="#DA802D" stroke-linecap="round" stroke-width=".542"
          d="m12.456 8.172-.857 1.305a1.083 1.083 0 0 0-.177.594v1.52c0 .21.061.417.177.594l.857 1.304m-3.25 0 .857-1.305c.115-.176.177-.383.177-.594v-1.519c0-.21-.062-.417-.177-.594l-.857-1.305m3.397 4.136c.37-.404.591-.918.591-1.477 0-.56-.221-1.074-.59-1.477m-3.545 0c-.37.403-.591.917-.591 1.477s.221 1.073.59 1.477"/>
    <path fill="#fff"
          d="M24.55 13.964c-1.515 0-2.455-1.074-2.455-2.799v-.007c0-1.733.936-2.802 2.45-2.802 1.215 0 2.136.77 2.262 1.862v.03h-.936l-.004-.015c-.137-.634-.648-1.052-1.322-1.052-.907 0-1.473.76-1.473 1.973v.008c0 1.218.567 1.976 1.477 1.976.678 0 1.181-.377 1.318-.966l.004-.018h.936v.026c-.14 1.07-1.025 1.784-2.258 1.784Zm4.975-.052c-1.215 0-1.948-.792-1.948-2.103v-.007c0-1.3.744-2.095 1.948-2.095 1.207 0 1.947.792 1.947 2.095v.008c0 1.31-.737 2.102-1.947 2.102Zm0-.748c.64 0 1.003-.5 1.003-1.35v-.008c0-.852-.367-1.355-1.003-1.355-.64 0-1.007.503-1.007 1.355v.007c0 .852.366 1.351 1.007 1.351Zm4.33.733c-1.013 0-1.658-.803-1.658-2.084v-.007c0-1.288.633-2.088 1.659-2.088.555 0 1.018.274 1.229.71h.063v-2.21h.925v5.613h-.925v-.633h-.063c-.222.44-.659.7-1.23.7Zm.29-.777c.629 0 1.018-.496 1.018-1.307v-.007c0-.81-.393-1.31-1.018-1.31-.626 0-1.011.495-1.011 1.31v.007c0 .815.381 1.307 1.01 1.307Zm4.82.792c-1.204 0-1.933-.807-1.933-2.095v-.004c0-1.273.737-2.106 1.888-2.106 1.151 0 1.862.807 1.862 2.028v.304h-2.828c.011.726.404 1.148 1.03 1.148.499 0 .784-.252.873-.437l.01-.026h.878l-.01.033c-.13.522-.67 1.155-1.77 1.155Zm-.034-3.483c-.514 0-.9.348-.97.992h1.922c-.063-.663-.437-.992-.952-.992Zm4.89 3.402V8.489h.83l2.624 3.68h.06v-3.68h.918v5.342h-.826l-2.624-3.68h-.06v3.68h-.922Zm7.39.081c-1.203 0-1.933-.807-1.933-2.095v-.004c0-1.273.737-2.106 1.888-2.106 1.152 0 1.862.807 1.862 2.028v.304H50.2c.011.726.403 1.148 1.03 1.148.499 0 .784-.252.873-.437l.01-.026h.878l-.01.033c-.13.522-.67 1.155-1.77 1.155Zm-.034-3.483c-.514 0-.9.348-.97.992h1.922c-.063-.663-.437-.992-.952-.992Zm2.303 3.402 1.31-2.007-1.321-2.04h1.066l.803 1.404h.063l.8-1.403h1.01l-1.306 1.999 1.321 2.047H56.19l-.83-1.407h-.062l-.826 1.407h-.992Zm5.897.081c-.91 0-1.377-.548-1.377-1.51V9.785h.922v2.406c0 .625.233.944.788.944.596 0 .915-.385.915-.992V9.785h.922v4.046h-.922v-.615h-.063c-.19.433-.6.696-1.185.696Zm4.824 0c-1.03 0-1.651-.474-1.73-1.159v-.007h.915l.004.008c.096.28.367.477.826.477.459 0 .777-.207.777-.51v-.008c0-.237-.178-.393-.622-.492l-.655-.149c-.77-.17-1.137-.533-1.137-1.129v-.003c0-.73.667-1.233 1.622-1.233.985 0 1.573.488 1.632 1.144v.007h-.866l-.004-.011c-.066-.255-.333-.463-.766-.463-.41 0-.707.2-.707.504v.004c0 .236.17.38.607.48l.655.145c.793.178 1.166.515 1.166 1.103v.008c0 .77-.721 1.284-1.717 1.284Zm4.764-.081V8.489h2.132c1.085 0 1.818.714 1.818 1.784v.008c0 1.066-.733 1.784-1.818 1.784H69.92v1.766h-.955Zm1.9-4.561h-.945v2.025h.944c.685 0 1.085-.37 1.085-1.01v-.008c0-.64-.4-1.007-1.085-1.007Zm4.645 4.642c-1.214 0-1.947-.792-1.947-2.103v-.007c0-1.3.744-2.095 1.947-2.095 1.207 0 1.947.792 1.947 2.095v.008c0 1.31-.736 2.102-1.947 2.102Zm0-.748c.64 0 1.003-.5 1.003-1.35v-.008c0-.852-.366-1.355-1.003-1.355-.64 0-1.007.503-1.007 1.355v.007c0 .852.367 1.351 1.007 1.351Zm3.347-4.057a.547.547 0 0 1-.552-.544.549.549 0 0 1 1.1 0 .546.546 0 0 1-.548.544Zm-.463 4.724V9.785h.922v4.046h-.922Zm2.055 0V9.785h.921v.618h.063c.193-.433.581-.696 1.166-.696.904 0 1.396.544 1.396 1.506v2.618h-.922v-2.403c0-.63-.255-.948-.814-.948-.548 0-.889.386-.889.993v2.358h-.921Zm6.226.018c-.929 0-1.31-.31-1.31-1.092V10.5h-.63v-.714h.63v-.993h.936v.993h.855v.714h-.855v2.04c0 .403.16.574.545.574.13 0 .2-.004.31-.015v.71a2.52 2.52 0 0 1-.48.041Z"/>
    <g clip-path="url(#clip0_5587_5744)">
        <path stroke="#828599" stroke-linecap="round" stroke-linejoin="round" stroke-width=".542"
              d="M92.874 10.628a.203.203 0 0 1 .203.203v1.015a.203.203 0 0 0 .203.203"/>
        <path fill="#828599" d="M92.975 9.917a.203.203 0 1 0 0-.406.203.203 0 0 0 0 .406Z"/>
        <path stroke="#828599" stroke-linecap="round" stroke-linejoin="round" stroke-width=".542"
              d="M93.077 13.268a2.437 2.437 0 1 0 0-4.874 2.437 2.437 0 0 0 0 4.874Z"/>
    </g>
    <path fill="#fff"
          d="M4.965 37.326v-4.96h.718l1.698 4.139h.055l1.699-4.139h.718v4.96h-.578v-3.788h-.037L7.67 37.326h-.522L5.58 33.538h-.038v3.788h-.577Zm7.318.066c-.842 0-1.275-.495-1.275-1.372v-2.4h.598v2.256c0 .667.24.986.832.986.653 0 1-.398 1-1.048V33.62h.598v3.705h-.598v-.553h-.055c-.182.395-.556.619-1.1.619Zm2.905-.066V32.15h.598v5.176h-.598Zm3.063.028c-.763 0-1.083-.282-1.083-.99v-2.248h-.584v-.495h.584v-.96h.619v.96h.811v.495h-.811v2.097c0 .436.151.611.536.611a2.5 2.5 0 0 0 .275-.013v.508c-.117.021-.23.035-.347.035Zm1.557-4.448a.414.414 0 0 1-.412-.413.413.413 0 0 1 .825 0 .414.414 0 0 1-.413.413Zm-.302 4.42v-3.705h.598v3.705h-.598Zm1.725 1.238V33.62h.598v.591h.055c.227-.413.64-.657 1.155-.657.939 0 1.554.76 1.554 1.915v.007c0 1.162-.612 1.915-1.554 1.915-.508 0-.952-.255-1.155-.65h-.055v1.822h-.598Zm1.67-1.702c.678 0 1.08-.522 1.08-1.385v-.007c0-.863-.402-1.385-1.08-1.385-.673 0-1.085.53-1.085 1.385v.007c0 .856.412 1.385 1.086 1.385Zm2.662.464V32.15h.598v5.176h-.599Zm3.258.066c-1.059 0-1.698-.743-1.698-1.905v-.003c0-1.145.653-1.928 1.66-1.928 1.008 0 1.62.749 1.62 1.856v.233h-2.668c.017.767.44 1.214 1.1 1.214.502 0 .811-.237.91-.46l.015-.032h.598l-.007.028c-.127.502-.657.997-1.53.997Zm-.041-3.304c-.55 0-.97.375-1.035 1.08h2.05c-.063-.733-.468-1.08-1.015-1.08Zm6.047 3.304c-1.038 0-1.702-.753-1.702-1.929v-.007c0-1.151.66-1.9 1.698-1.9.9 0 1.44.519 1.55 1.178l.004.021h-.595l-.003-.01c-.093-.364-.423-.66-.956-.66-.667 0-1.086.536-1.086 1.371v.007c0 .853.426 1.4 1.086 1.4.499 0 .815-.22.952-.633l.007-.02.592-.004-.007.038c-.152.67-.65 1.148-1.54 1.148Zm3.946 0c-1.055 0-1.709-.729-1.709-1.915v-.007c0-1.19.654-1.914 1.709-1.914 1.055 0 1.708.725 1.708 1.914v.007c0 1.186-.653 1.915-1.708 1.915Zm0-.53c.701 0 1.096-.512 1.096-1.385v-.007c0-.876-.395-1.385-1.096-1.385-.701 0-1.097.509-1.097 1.385v.007c0 .873.396 1.385 1.097 1.385Zm4.005.53c-.939 0-1.554-.76-1.554-1.915v-.007c0-1.162.612-1.914 1.554-1.914.508 0 .952.254 1.155.65h.055V32.15h.598v5.176h-.598v-.59h-.055c-.227.412-.64.656-1.155.656Zm.137-.53c.674 0 1.086-.529 1.086-1.385v-.007c0-.856-.412-1.385-1.086-1.385-.677 0-1.08.522-1.08 1.385v.007c0 .863.403 1.385 1.08 1.385Zm4.331.53c-1.058 0-1.698-.743-1.698-1.905v-.003c0-1.145.653-1.928 1.66-1.928 1.008 0 1.62.749 1.62 1.856v.233H46.16c.017.767.44 1.214 1.1 1.214.502 0 .811-.237.911-.46l.014-.032h.598l-.007.028c-.127.502-.657.997-1.53.997Zm-.04-3.304c-.55 0-.97.375-1.036 1.08h2.05c-.063-.733-.468-1.08-1.015-1.08Zm4.777 3.238v-3.21h-.615v-.495h.615v-.413c0-.739.372-1.093 1.076-1.093.145 0 .275.01.399.035v.477a1.633 1.633 0 0 0-.279-.017c-.426 0-.598.21-.598.615v.396h.843v.495h-.843v3.21h-.598Zm2.338 0V32.15h.598v5.176h-.598Zm3.269.066c-1.055 0-1.709-.729-1.709-1.915v-.007c0-1.19.654-1.914 1.709-1.914 1.055 0 1.708.725 1.708 1.914v.007c0 1.186-.653 1.915-1.708 1.915Zm0-.53c.701 0 1.096-.512 1.096-1.385v-.007c0-.876-.395-1.385-1.096-1.385-.701 0-1.097.509-1.097 1.385v.007c0 .873.396 1.385 1.097 1.385Zm3.214.464-1.038-3.705h.598l.729 2.963h.055l.828-2.963h.567l.829 2.963h.055l.729-2.963h.594l-1.038 3.705h-.602l-.828-2.867h-.055l-.825 2.867h-.598Zm5.906.066c-.825 0-1.393-.399-1.461-1.01h.612c.1.309.395.511.87.511.498 0 .852-.237.852-.574v-.007c0-.25-.19-.426-.647-.536l-.574-.137c-.694-.165-1.007-.468-1.007-1v-.004c0-.615.591-1.08 1.379-1.08.777 0 1.316.389 1.399.994h-.588c-.08-.292-.368-.495-.815-.495-.44 0-.763.227-.763.553v.007c0 .251.186.41.622.516l.57.137c.699.169 1.036.471 1.036 1v.008c0 .66-.643 1.117-1.485 1.117Zm5.76 0c-.938 0-1.553-.76-1.553-1.915v-.007c0-1.162.612-1.914 1.554-1.914.509 0 .952.254 1.155.65h.055V32.15h.598v5.176h-.598v-.59h-.055c-.227.412-.64.656-1.155.656Zm.138-.53c.674 0 1.087-.529 1.087-1.385v-.007c0-.856-.413-1.385-1.087-1.385-.677 0-1.079.522-1.079 1.385v.007c0 .863.402 1.385 1.08 1.385Zm4.332.53c-1.06 0-1.698-.743-1.698-1.905v-.003c0-1.145.653-1.928 1.66-1.928s1.619.749 1.619 1.856v.233h-2.668c.018.767.44 1.214 1.1 1.214.502 0 .812-.237.911-.46l.014-.032h.598l-.007.028c-.127.502-.656.997-1.53.997Zm-.042-3.304c-.55 0-.969.375-1.034 1.08h2.048c-.061-.733-.467-1.08-1.014-1.08Zm2.551 4.476V33.62h.598v.591h.055c.227-.413.64-.657 1.155-.657.939 0 1.554.76 1.554 1.915v.007c0 1.162-.612 1.915-1.554 1.915-.508 0-.952-.255-1.155-.65h-.055v1.822h-.598Zm1.67-1.702c.678 0 1.08-.522 1.08-1.385v-.007c0-.863-.402-1.385-1.08-1.385-.673 0-1.085.53-1.085 1.385v.007c0 .856.412 1.385 1.086 1.385Zm4.14.53c-1.06 0-1.699-.743-1.699-1.905v-.003c0-1.145.653-1.928 1.66-1.928 1.008 0 1.62.749 1.62 1.856v.233h-2.668c.017.767.44 1.214 1.1 1.214.502 0 .811-.237.911-.46l.014-.032h.598l-.007.028c-.127.502-.656.997-1.53.997Zm-.042-3.304c-.55 0-.97.375-1.034 1.08h2.048c-.062-.733-.467-1.08-1.014-1.08Zm2.55 3.238v-3.705h.599v.557h.055c.186-.392.533-.622 1.08-.622.831 0 1.295.491 1.295 1.371v2.4h-.598V35.07c0-.666-.275-.986-.866-.986s-.966.399-.966 1.048v2.193h-.598Zm5.48.066c-.938 0-1.553-.76-1.553-1.915v-.007c0-1.162.611-1.914 1.553-1.914.509 0 .953.254 1.155.65h.055V32.15h.598v5.176h-.598v-.59h-.055c-.227.412-.64.656-1.155.656Zm.138-.53c.673 0 1.086-.529 1.086-1.385v-.007c0-.856-.413-1.385-1.086-1.385-.677 0-1.08.522-1.08 1.385v.007c0 .863.403 1.385 1.08 1.385Zm6.321.53c-1.055 0-1.708-.729-1.708-1.915v-.007c0-1.19.653-1.914 1.708-1.914 1.056 0 1.709.725 1.709 1.914v.007c0 1.186-.653 1.915-1.709 1.915Zm0-.53c.702 0 1.097-.512 1.097-1.385v-.007c0-.876-.395-1.385-1.097-1.385-.7 0-1.096.509-1.096 1.385v.007c0 .873.395 1.385 1.096 1.385Zm2.637.464v-3.705h.598v.557h.055c.186-.392.533-.622 1.079-.622.832 0 1.296.491 1.296 1.371v2.4h-.598V35.07c0-.666-.275-.986-.866-.986s-.966.399-.966 1.048v2.193h-.598Zm7.408.028c-.763 0-1.083-.282-1.083-.99v-2.248h-.584v-.495h.584v-.96h.619v.96h.811v.495h-.811v2.097c0 .436.151.611.536.611.107 0 .165-.003.275-.013v.508c-.117.021-.23.035-.347.035Zm1.275-.028V32.15h.598v2.028h.055c.186-.392.533-.622 1.08-.622.832 0 1.296.491 1.296 1.371v2.4h-.599V35.07c0-.666-.275-.986-.866-.986s-.966.399-.966 1.048v2.193h-.598Zm4.428-4.42a.414.414 0 0 1-.413-.413.413.413 0 1 1 .413.413Zm-.303 4.42v-3.705h.598v3.705h-.598Zm2.998.066c-.825 0-1.392-.399-1.461-1.01h.612c.099.309.395.511.869.511.499 0 .853-.237.853-.574v-.007c0-.25-.189-.426-.646-.536l-.574-.137c-.695-.165-1.008-.468-1.008-1v-.004c0-.615.592-1.08 1.379-1.08.777 0 1.316.389 1.399.994h-.588c-.079-.292-.368-.495-.815-.495-.44 0-.763.227-.763.553v.007c0 .251.186.41.622.516l.571.137c.698.169 1.035.471 1.035 1v.008c0 .66-.643 1.117-1.485 1.117Zm4.427-.066V32.15h.598v5.176h-.598Zm3.269.066c-1.055 0-1.708-.729-1.708-1.915v-.007c0-1.19.653-1.914 1.708-1.914 1.056 0 1.709.725 1.709 1.914v.007c0 1.186-.653 1.915-1.709 1.915Zm0-.53c.702 0 1.097-.512 1.097-1.385v-.007c0-.876-.395-1.385-1.097-1.385-.701 0-1.096.509-1.096 1.385v.007c0 .873.395 1.385 1.096 1.385Zm4.153.53c-1.038 0-1.702-.753-1.702-1.929v-.007c0-1.151.66-1.9 1.698-1.9.901 0 1.441.519 1.551 1.178l.003.021h-.595l-.003-.01c-.093-.364-.423-.66-.956-.66-.666 0-1.086.536-1.086 1.371v.007c0 .853.426 1.4 1.086 1.4.499 0 .815-.22.953-.633l.006-.02.592-.004-.007.038c-.151.67-.65 1.148-1.54 1.148Zm3.441 0c-.705 0-1.238-.427-1.238-1.1v-.007c0-.66.488-1.042 1.351-1.093l1.062-.066v-.337c0-.457-.278-.704-.831-.704-.444 0-.736.165-.832.454l-.004.01h-.598l.004-.02c.096-.582.66-.974 1.45-.974.904 0 1.41.465 1.41 1.234v2.537h-.599v-.546h-.055c-.233.395-.622.612-1.12.612Zm-.626-1.114c0 .375.32.595.75.595.608 0 1.051-.4 1.051-.928v-.337l-.99.062c-.563.034-.811.233-.811.601v.007Zm4.809 1.076c-.763 0-1.083-.282-1.083-.99v-2.248h-.584v-.495h.584v-.96h.619v.96h.811v.495h-.811v2.097c0 .436.151.611.536.611.107 0 .165-.003.275-.013v.508c-.116.021-.23.035-.347.035Zm1.557-4.448a.414.414 0 0 1-.412-.413.413.413 0 0 1 .825 0 .414.414 0 0 1-.413.413Zm-.302 4.42v-3.705h.598v3.705h-.598Zm3.248.066c-1.055 0-1.708-.729-1.708-1.915v-.007c0-1.19.653-1.914 1.708-1.914 1.056 0 1.709.725 1.709 1.914v.007c0 1.186-.653 1.915-1.709 1.915Zm0-.53c.702 0 1.097-.512 1.097-1.385v-.007c0-.876-.395-1.385-1.097-1.385-.701 0-1.096.509-1.096 1.385v.007c0 .873.395 1.385 1.096 1.385Zm2.637.464v-3.705h.598v.557h.055c.186-.392.533-.622 1.08-.622.831 0 1.295.491 1.295 1.371v2.4h-.598V35.07c0-.666-.275-.986-.866-.986s-.966.399-.966 1.048v2.193h-.598Z"/>
    <path fill="#ACAFBF"
          d="M6.417 55.099c-1.003 0-1.65-.527-1.717-1.272l-.003-.035h.571l.004.035c.04.456.517.745 1.177.745.622 0 1.075-.32 1.075-.787v-.003c0-.38-.263-.64-.891-.78l-.508-.111c-.917-.204-1.314-.626-1.314-1.289V51.6c.004-.758.667-1.295 1.612-1.295.914 0 1.552.54 1.6 1.222l.003.044h-.571l-.007-.04c-.063-.404-.444-.702-1.04-.699-.572.003-1.013.273-1.013.752v.003c0 .365.251.613.873.75l.508.113c.955.213 1.332.597 1.332 1.257v.003c0 .857-.67 1.39-1.69 1.39Zm3.97-.048c-.978 0-1.568-.685-1.568-1.758v-.003c0-1.056.603-1.78 1.533-1.78.93 0 1.494.692 1.494 1.714v.215H9.384c.016.708.406 1.12 1.015 1.12.464 0 .75-.218.841-.425l.013-.028h.552l-.006.025c-.118.463-.606.92-1.412.92Zm-.039-3.049c-.507 0-.894.346-.955.996h1.892c-.058-.675-.432-.996-.937-.996Zm2.355 2.99V51.57h.552v.507h.05c.131-.358.451-.568.915-.568.104 0 .222.013.276.022v.537a1.982 1.982 0 0 0-.34-.032c-.527 0-.9.333-.9.834v2.12h-.553Zm3.474 0-1.266-3.421h.584l.936 2.817h.051l.936-2.817h.584l-1.266 3.42h-.559Zm2.847-4.081a.382.382 0 0 1-.381-.381.381.381 0 0 1 .762-.001c0 .21-.172.381-.381.381Zm-.28 4.08v-3.42h.553v3.42h-.553Zm2.993.06c-.958 0-1.57-.695-1.57-1.78v-.006c0-1.063.608-1.755 1.567-1.755.831 0 1.33.48 1.43 1.089l.004.019h-.55l-.002-.01c-.086-.336-.39-.61-.882-.61-.616 0-1.003.496-1.003 1.267v.006c0 .787.393 1.292 1.003 1.292.46 0 .752-.203.879-.584l.006-.02.546-.002-.007.035c-.14.618-.6 1.06-1.421 1.06Zm3.633 0c-.977 0-1.568-.685-1.568-1.758v-.003c0-1.056.603-1.78 1.533-1.78.93 0 1.495.692 1.495 1.714v.215h-2.463c.016.708.406 1.12 1.016 1.12.463 0 .748-.218.84-.425l.013-.028h.552l-.006.025c-.117.463-.606.92-1.412.92Zm-.038-3.049c-.508 0-.895.346-.955.996h1.891c-.057-.675-.432-.996-.936-.996Zm3.528 3.05c-.761 0-1.285-.369-1.348-.934h.565c.092.286.364.473.802.473.46 0 .787-.219.787-.53v-.006c0-.232-.174-.393-.596-.495l-.53-.127c-.641-.152-.93-.431-.93-.923v-.003c0-.568.546-.997 1.273-.997.717 0 1.215.359 1.291.917h-.543c-.073-.27-.34-.457-.752-.457-.406 0-.704.21-.704.511v.006c0 .232.171.378.574.477l.527.126c.644.156.955.435.955.924v.006c0 .61-.593 1.031-1.37 1.031Z"/>
    <rect width="12.997" height="12.997" x="4.332" y="61.324" fill="#2C2E33" rx="2.166"/>
    <path fill="#ACAFBF"
          d="M10.975 70.822V66.22h-.059l-1.359.985v-.703l1.422-1.022h.663v5.342h-.667Zm61.634-15.831v-4.579h2.837v.514H73.18v1.47h2.148v.507H73.18v1.574h2.266v.514h-2.837Zm3.801 0v-3.42h.553v.513h.05c.172-.361.492-.574.997-.574.767 0 1.196.454 1.196 1.266v2.215h-.552v-2.082c0-.615-.254-.91-.8-.91s-.891.368-.891.968v2.024h-.553Zm5.058.06c-.866 0-1.434-.701-1.434-1.767v-.006c0-1.073.565-1.768 1.434-1.768.47 0 .88.235 1.066.6h.051v-1.898h.552v4.779h-.552v-.546h-.05c-.21.381-.59.606-1.067.606Zm.127-.488c.622 0 1.003-.49 1.003-1.28v-.005c0-.79-.38-1.28-1.003-1.28-.625 0-.996.483-.996 1.28v.006c0 .796.371 1.279.996 1.279Zm2.602 1.57V51.57h.552v.546h.051c.21-.38.59-.606 1.066-.606.867 0 1.434.701 1.434 1.768v.006c0 1.072-.564 1.767-1.434 1.767-.47 0-.879-.235-1.066-.6h-.05v1.682h-.553Zm1.542-1.57c.625 0 .997-.483.997-1.28v-.005c0-.797-.372-1.28-.997-1.28-.622 0-1.002.49-1.002 1.28v.006c0 .79.38 1.279 1.002 1.279Zm3.83.488c-.974 0-1.577-.672-1.577-1.767v-.006c0-1.098.603-1.768 1.577-1.768s1.577.67 1.577 1.768v.006c0 1.095-.603 1.767-1.577 1.767Zm0-.488c.647 0 1.012-.473 1.012-1.28v-.005c0-.81-.365-1.28-1.012-1.28s-1.012.47-1.012 1.28v.006c0 .806.365 1.279 1.012 1.279Zm2.726-3.653a.382.382 0 0 1-.38-.38.38.38 0 1 1 .38.38Zm-.28 4.081v-3.42h.553v3.42h-.552Zm1.594 0v-3.42h.552v.513h.05c.172-.361.492-.574.997-.574.768 0 1.196.454 1.196 1.266v2.215h-.552v-2.082c0-.615-.254-.91-.8-.91s-.891.368-.891.968v2.024h-.552Zm5.01.025c-.705 0-1-.26-1-.913v-2.076h-.54v-.457h.54v-.885h.572v.885h.748v.457h-.748v1.936c0 .403.14.565.495.565.098 0 .152-.003.253-.013v.47a1.816 1.816 0 0 1-.32.031Zm2.256.035c-.762 0-1.285-.368-1.349-.933h.565c.092.286.365.473.803.473.46 0 .787-.219.787-.53v-.006c0-.232-.175-.394-.597-.495l-.53-.127c-.64-.152-.93-.432-.93-.923v-.004c0-.568.547-.996 1.273-.996.717 0 1.215.359 1.292.917h-.543c-.073-.27-.34-.457-.752-.457-.406 0-.704.21-.704.511v.006c0 .232.171.378.574.476l.527.127c.644.156.955.435.955.924v.006c0 .61-.594 1.031-1.371 1.031Z"/>
    <rect width="12.997" height="12.997" x="72.025" y="61.323" fill="#3C2C23" rx="2.166"/>
    <path fill="#DA802D"
          d="M79.12 70.822v-1.107h-2.603v-.607a83.589 83.589 0 0 1 2.288-3.628h.966v3.639h.76v.596h-.76v1.107h-.651Zm-1.922-1.7h1.925v-3.024h-.044c-.6.896-1.3 2-1.88 2.98v.045Z"/>
    <path fill="#ACAFBF"
          d="M138.677 54.991v-4.579h2.78v.514h-2.209V52.5h2.028v.508h-2.028v1.983h-.571Zm3.681 0v-4.779h.552v4.779h-.552Zm3.018.06c-.975 0-1.578-.672-1.578-1.767v-.006c0-1.098.603-1.768 1.578-1.768.974 0 1.577.67 1.577 1.768v.006c0 1.095-.603 1.767-1.577 1.767Zm0-.488c.647 0 1.012-.473 1.012-1.28v-.005c0-.81-.365-1.28-1.012-1.28-.648 0-1.013.47-1.013 1.28v.006c0 .806.365 1.279 1.013 1.279Zm2.966.428-.958-3.42h.552l.673 2.735h.051l.764-2.736h.524l.765 2.736h.05l.673-2.736h.549l-.958 3.421h-.555l-.765-2.646h-.051l-.762 2.646h-.552Zm5.452.06c-.762 0-1.285-.368-1.349-.933h.565c.092.286.365.473.803.473.46 0 .787-.219.787-.53v-.006c0-.232-.175-.394-.597-.495l-.53-.127c-.641-.152-.929-.432-.929-.923v-.004c0-.568.545-.996 1.272-.996.717 0 1.215.359 1.291.917h-.542c-.073-.27-.34-.457-.752-.457-.406 0-.705.21-.705.511v.006c0 .232.172.378.575.476l.526.127c.645.156.956.435.956.924v.006c0 .61-.594 1.031-1.371 1.031Z"/>
    <rect width="12.997" height="12.997" x="138.093" y="61.323" fill="#3C2C23" rx="2.166"/>
    <path fill="#DA802D"
          d="M145.188 70.822v-1.107h-2.603v-.607a83.59 83.59 0 0 1 2.288-3.628h.966v3.639h.759v.596h-.759v1.107h-.651Zm-1.922-1.7h1.925v-3.024h-.044c-.6.896-1.299 2-1.881 2.98v.045Z"/>
    <mask id="path-20-inside-2_5587_5744" fill="#fff">
        <path d="M0 82.985h180.333v19.831H0V82.985Z"/>
    </mask>
    <path fill="#37383F" d="M0 83.526h180.333v-1.083H0v1.084Z" mask="url(#path-20-inside-2_5587_5744)"/>
    <g stroke="#828599" stroke-linecap="round" stroke-linejoin="round" stroke-width=".542"
       clip-path="url(#clip1_5587_5744)">
        <path d="m11.102 92.63-4.874 4.873m4.874 0L6.228 92.63"/>
    </g>
    <path fill="#828599"
          d="M15.796 97.567v-4.96h1.701c1.472 0 2.341.917 2.341 2.474v.007c0 1.56-.866 2.479-2.34 2.479h-1.702Zm.619-.557h1.041c1.107 0 1.75-.709 1.75-1.915v-.007c0-1.21-.65-1.925-1.75-1.925h-1.041v3.847Zm4.736-3.864a.414.414 0 0 1-.412-.413.413.413 0 0 1 .825 0 .414.414 0 0 1-.413.413Zm-.302 4.42v-3.705h.598v3.706h-.598Zm2.997.066c-.825 0-1.392-.399-1.46-1.01h.611c.1.309.396.511.87.511.498 0 .853-.237.853-.574v-.007c0-.25-.19-.426-.647-.536l-.574-.137c-.694-.165-1.007-.468-1.007-1v-.004c0-.615.591-1.08 1.378-1.08.777 0 1.317.389 1.4.994h-.588c-.08-.292-.368-.495-.815-.495-.44 0-.763.227-.763.553v.007c0 .251.186.41.622.516l.57.137c.699.169 1.035.471 1.035 1v.008c0 .66-.642 1.117-1.485 1.117Zm2.414-.066v-3.705h.598v.564h.055c.165-.4.515-.63 1-.63.502 0 .852.265 1.024.65h.055c.2-.392.623-.65 1.135-.65.756 0 1.179.434 1.179 1.21v2.562h-.598v-2.424c0-.546-.251-.818-.774-.818-.515 0-.856.388-.856.86v2.382h-.598V95.05c0-.44-.302-.725-.77-.725-.485 0-.852.423-.852.945v2.297h-.598Zm6.442-4.42a.414.414 0 0 1-.413-.413.414.414 0 0 1 .825 0 .414.414 0 0 1-.412.413Zm-.303 4.42v-3.705h.598v3.706H32.4Zm2.998.066c-.825 0-1.393-.399-1.462-1.01h.612c.1.309.396.511.87.511.499 0 .853-.237.853-.574v-.007c0-.25-.19-.426-.647-.536l-.574-.137c-.694-.165-1.007-.468-1.007-1v-.004c0-.615.591-1.08 1.379-1.08.776 0 1.316.389 1.399.994h-.588c-.08-.292-.368-.495-.815-.495-.44 0-.763.227-.763.553v.007c0 .251.186.41.622.516l.57.137c.699.169 1.036.471 1.036 1v.008c0 .66-.643 1.117-1.485 1.117Zm3.616 0c-.825 0-1.392-.399-1.461-1.01h.612c.1.309.395.511.87.511.498 0 .852-.237.852-.574v-.007c0-.25-.19-.426-.646-.536l-.574-.137c-.695-.165-1.008-.468-1.008-1v-.004c0-.615.592-1.08 1.379-1.08.777 0 1.316.389 1.399.994h-.588c-.079-.292-.368-.495-.815-.495-.44 0-.763.227-.763.553v.007c0 .251.186.41.622.516l.571.137c.698.169 1.035.471 1.035 1v.008c0 .66-.643 1.117-1.485 1.117Z"/>
    <rect width="58.495" height="15.163" x="117.506" y="87.485" fill="#6063F6" rx="2.166"/>
    <g stroke="#F0F1F7" stroke-linecap="round" stroke-linejoin="round" stroke-width=".542"
       clip-path="url(#clip2_5587_5744)">
        <path d="m128.607 93.713.813-.813-.813-.812"/>
        <path d="M122.921 95.067a2.164 2.164 0 0 1 2.166-2.167h4.333"/>
    </g>
    <path fill="#fff"
          d="M133.301 97.567v-4.96h1.894c.956 0 1.582.584 1.582 1.474v.007c0 .687-.375 1.224-.997 1.42l1.148 2.059h-.725l-1.063-1.963h-1.22v1.963h-.619Zm.619-2.513h1.22c.636 0 .997-.34.997-.946v-.007c0-.59-.385-.945-1.024-.945h-1.193v1.898Zm5.314 2.578c-1.058 0-1.698-.743-1.698-1.904v-.004c0-1.145.653-1.928 1.661-1.928 1.007 0 1.619.749 1.619 1.856v.234h-2.668c.017.766.44 1.213 1.1 1.213.502 0 .811-.237.911-.46l.014-.031h.598l-.007.027c-.127.502-.656.997-1.53.997Zm-.041-3.304c-.55 0-.969.375-1.035 1.08h2.049c-.062-.732-.467-1.08-1.014-1.08Zm4.067 3.304c-1.038 0-1.702-.753-1.702-1.929v-.007c0-1.151.66-1.9 1.698-1.9.901 0 1.441.519 1.551 1.179l.003.02h-.595l-.003-.01c-.093-.364-.423-.66-.956-.66-.667 0-1.086.536-1.086 1.371v.007c0 .853.426 1.4 1.086 1.4.499 0 .815-.22.953-.633l.006-.02.592-.004-.007.038c-.151.67-.65 1.148-1.54 1.148Zm3.441 0c-.705 0-1.238-.426-1.238-1.1v-.007c0-.66.488-1.042 1.351-1.093l1.062-.066v-.336c0-.458-.278-.705-.832-.705-.443 0-.735.165-.831.454l-.004.01h-.598l.003-.02c.097-.582.66-.973 1.451-.973.904 0 1.409.464 1.409 1.234v2.537h-.598v-.547h-.055c-.233.395-.622.612-1.12.612Zm-.626-1.114c0 .375.32.595.749.595.609 0 1.052-.399 1.052-.928v-.337l-.99.062c-.563.034-.811.233-.811.601v.007Zm3.527 1.049V92.39h.598v5.177h-.598Zm3.262.065c-1.038 0-1.701-.753-1.701-1.929v-.007c0-1.151.66-1.9 1.698-1.9.9 0 1.44.519 1.55 1.179l.004.02h-.595l-.004-.01c-.092-.364-.422-.66-.955-.66-.667 0-1.086.536-1.086 1.371v.007c0 .853.426 1.4 1.086 1.4.498 0 .814-.22.952-.633l.007-.02.591-.004-.007.038c-.151.67-.649 1.148-1.54 1.148Zm3.665 0c-.843 0-1.276-.495-1.276-1.372v-2.4h.598v2.256c0 .667.241.987.832.987.653 0 1.001-.4 1.001-1.049v-2.193h.598v3.706h-.598v-.554h-.055c-.183.395-.557.619-1.1.619Zm2.904-.066V92.39h.598v5.177h-.598Zm2.764.066c-.705 0-1.237-.426-1.237-1.1v-.007c0-.66.488-1.042 1.351-1.093l1.062-.066v-.336c0-.458-.279-.705-.832-.705-.444 0-.736.165-.832.454l-.003.01h-.599l.004-.02c.096-.582.66-.973 1.45-.973.905 0 1.41.464 1.41 1.234v2.537h-.598v-.547h-.055c-.234.395-.622.612-1.121.612Zm-.626-1.114c0 .375.32.595.75.595.608 0 1.052-.399 1.052-.928v-.337l-.99.062c-.564.034-.812.233-.812.601v.007Zm4.81 1.076c-.764 0-1.083-.282-1.083-.99v-2.248h-.585v-.495h.585v-.96h.618v.96h.812v.495h-.812v2.097c0 .436.152.612.537.612.106 0 .165-.004.275-.014v.509a1.99 1.99 0 0 1-.347.034Zm2.698.038c-1.059 0-1.698-.743-1.698-1.904v-.004c0-1.145.653-1.928 1.66-1.928s1.619.749 1.619 1.856v.234h-2.667c.017.766.44 1.213 1.1 1.213.502 0 .811-.237.911-.46l.013-.031h.599l-.007.027c-.127.502-.657.997-1.53.997Zm-.041-3.304c-.55 0-.97.375-1.035 1.08h2.049c-.062-.732-.468-1.08-1.014-1.08Z"/>
    <defs>
        <clipPath id="clip0_5587_5744">
            <path fill="#fff" d="M89.828 7.582h6.498v6.498h-6.498z"/>
        </clipPath>
        <clipPath id="clip1_5587_5744">
            <path fill="#fff" d="M4.332 90.734h8.665V99.4H4.332z"/>
        </clipPath>
        <clipPath id="clip2_5587_5744">
            <path fill="#fff" d="M121.838 90.734h8.665V99.4h-8.665z"/>
        </clipPath>
    </defs>
</svg>