<svg xmlns="http://www.w3.org/2000/svg" fill="none" viewBox="0 0 167 94">
    <rect width="179.792" height="240.42" x=".271" y=".271" fill="#1A1B1E" rx="1.895"/>
    <rect width="179.792" height="240.42" x=".271" y=".271" stroke="#37383F" stroke-width=".542" rx="1.895"/>
    <mask id="path-2-inside-1_5587_5929" fill="#fff">
        <path d="M0 0h180.333v21.662H0V0Z"/>
    </mask>
    <path fill="#37383F" d="M180.333 21.12H0v1.083h180.333V21.12Z" mask="url(#path-2-inside-1_5587_5929)"/>
    <rect width="12.997" height="12.997" x="4.332" y="4.332" fill="#3D2327" rx="2.166"/>
    <g stroke="#DA2D5F" stroke-linecap="round" stroke-linejoin="round" stroke-width=".542"
       clip-path="url(#clip0_5587_5929)">
        <path d="M10.83 7.852v5.957m-.811.001h1.624M8.394 9.477l4.874-1.083M7.31 12.185c0 .598.678.812 1.084.812s1.083-.214 1.083-.812L8.394 9.477 7.31 12.185Zm4.875-1.084c0 .599.677.813 1.083.813.406 0 1.083-.214 1.083-.813l-1.083-2.707-1.083 2.707Z"/>
    </g>
    <path fill="#fff"
          d="M24.175 13.964c-1.24 0-2.028-.61-2.095-1.533l-.004-.051h.926l.004.037c.044.448.521.744 1.199.744.644 0 1.096-.319 1.096-.778v-.003c0-.385-.278-.619-.966-.767l-.574-.118c-1.092-.23-1.566-.74-1.566-1.536v-.004c0-.955.822-1.6 1.977-1.6 1.184 0 1.92.648 1.988 1.507l.003.048h-.914l-.008-.044c-.066-.415-.462-.71-1.073-.707-.592 0-1.014.278-1.014.733v.004c0 .377.27.614.936.755l.574.122c1.125.237 1.595.689 1.595 1.496v.003c0 1.04-.803 1.692-2.084 1.692Zm4.798-.052c-1.218 0-1.936-.788-1.936-2.11v-.007c0-1.307.714-2.088 1.932-2.088 1.04 0 1.662.577 1.766 1.414v.015h-.87l-.003-.011c-.086-.393-.385-.674-.889-.674-.63 0-1 .496-1 1.344v.007c0 .859.374 1.363 1 1.363.478 0 .77-.219.885-.645l.007-.014.87-.004-.007.03c-.134.829-.73 1.38-1.755 1.38Zm3.743-.015c-.77 0-1.33-.473-1.33-1.21v-.007c0-.722.552-1.144 1.537-1.204l1.04-.063v-.348c0-.403-.263-.625-.759-.625-.422 0-.696.152-.788.418l-.004.015h-.87l.004-.033c.089-.681.74-1.133 1.703-1.133 1.04 0 1.625.503 1.625 1.358v2.766h-.91v-.556H33.9c-.222.393-.651.622-1.184.622Zm-.419-1.255c0 .345.293.548.7.548.555 0 .966-.362.966-.844v-.325l-.91.059c-.515.033-.756.222-.756.555v.008Zm3.72 1.189V8.219h.923v5.612h-.922Zm2.563-4.724a.547.547 0 0 1-.552-.544.549.549 0 0 1 1.1 0 .546.546 0 0 1-.548.544Zm-.463 4.724V9.785h.922v4.046h-.922Zm2.054 0V9.785h.922v.618h.063c.193-.433.581-.696 1.166-.696.903 0 1.396.544 1.396 1.506v2.618h-.922v-2.403c0-.63-.255-.948-.814-.948-.548 0-.889.386-.889.993v2.358h-.922Zm6.375 1.421c-1.066 0-1.706-.455-1.799-1.136l.004-.011h.922l.003.01c.063.26.37.441.885.441.63 0 .996-.292.996-.81v-.774h-.063c-.233.433-.674.67-1.233.67-1.025 0-1.662-.792-1.662-1.94v-.007c0-1.17.637-1.977 1.68-1.977.56 0 .996.274 1.226.733h.048v-.666h.922v3.946c0 .933-.748 1.521-1.929 1.521Zm0-2.343c.64 0 1.026-.492 1.026-1.207v-.007c0-.715-.39-1.21-1.026-1.21-.64 0-1.003.495-1.003 1.21v.007c0 .715.363 1.207 1.003 1.207Zm5.175.922V8.489h.956v5.342h-.956Zm3.706.081c-1.029 0-1.65-.474-1.729-1.159v-.007h.915l.003.008c.097.28.367.477.826.477.459 0 .777-.207.777-.51v-.008c0-.237-.177-.393-.622-.492l-.655-.149c-.77-.17-1.136-.533-1.136-1.129v-.003c0-.73.666-1.233 1.621-1.233.985 0 1.574.488 1.633 1.144v.007h-.867l-.003-.011c-.067-.255-.333-.463-.767-.463-.41 0-.707.2-.707.504v.004c0 .236.17.38.608.48l.655.145c.792.178 1.166.515 1.166 1.103v.008c0 .77-.722 1.284-1.718 1.284Zm4.102 0c-1.03 0-1.651-.474-1.729-1.159v-.007h.915l.003.008c.096.28.367.477.826.477.459 0 .777-.207.777-.51v-.008c0-.237-.178-.393-.622-.492l-.655-.149c-.77-.17-1.137-.533-1.137-1.129v-.003c0-.73.667-1.233 1.622-1.233.985 0 1.573.488 1.632 1.144v.007h-.866l-.004-.011c-.066-.255-.333-.463-.766-.463-.41 0-.707.2-.707.504v.004c0 .236.17.38.607.48l.656.145c.792.178 1.166.515 1.166 1.103v.008c0 .77-.722 1.284-1.718 1.284Zm3.987 0c-.91 0-1.377-.548-1.377-1.51V9.785h.922v2.406c0 .625.233.944.788.944.596 0 .914-.385.914-.992V9.785h.922v4.046h-.922v-.615H64.7c-.188.433-.6.696-1.184.696Zm5.027 0c-1.203 0-1.932-.807-1.932-2.095v-.004c0-1.273.736-2.106 1.888-2.106 1.151 0 1.862.807 1.862 2.028v.304h-2.829c.012.726.404 1.148 1.03 1.148.5 0 .785-.252.873-.437l.011-.026h.878l-.011.033c-.13.522-.67 1.155-1.77 1.155Zm-.033-3.483c-.515 0-.9.348-.97.992h1.921c-.063-.663-.437-.992-.951-.992Zm4.89 3.402V8.489h3.406v.803h-2.45v1.581h2.239v.777h-2.24v2.18H73.4Zm6.116.081c-1.215 0-1.948-.792-1.948-2.103v-.007c0-1.3.745-2.095 1.948-2.095 1.206 0 1.947.792 1.947 2.095v.008c0 1.31-.737 2.102-1.947 2.102Zm0-.748c.64 0 1.003-.5 1.003-1.35v-.008c0-.852-.367-1.355-1.003-1.355-.64 0-1.007.503-1.007 1.355v.007c0 .852.366 1.351 1.007 1.351Zm4.212.748c-.91 0-1.377-.548-1.377-1.51V9.785h.922v2.406c0 .625.233.944.789.944.596 0 .914-.385.914-.992V9.785h.922v4.046h-.922v-.615h-.063c-.189.433-.6.696-1.184.696Zm3.295-.081V9.785h.922v.618h.063c.193-.433.581-.696 1.166-.696.903 0 1.396.544 1.396 1.506v2.618h-.922v-2.403c0-.63-.255-.948-.814-.948-.548 0-.889.386-.889.993v2.358h-.922Zm6.094.066c-1.015 0-1.659-.803-1.659-2.084v-.007c0-1.288.633-2.088 1.659-2.088.555 0 1.018.274 1.229.71h.063v-2.21h.925v5.613h-.925v-.633h-.063c-.222.44-.66.7-1.23.7Zm.288-.777c.63 0 1.018-.496 1.018-1.307v-.007c0-.81-.392-1.31-1.018-1.31-.625 0-1.01.495-1.01 1.31v.007c0 .815.381 1.307 1.01 1.307ZM6.962 37.443c-1.347 0-2.19-.997-2.19-2.592v-.007c0-1.598.84-2.595 2.187-2.595 1.045 0 1.86.657 2.007 1.609l-.003.007H8.34l-.003-.007c-.165-.636-.694-1.038-1.378-1.038-.953 0-1.55.783-1.55 2.024v.007c0 1.241.597 2.022 1.553 2.022.691 0 1.217-.354 1.372-.925l.006-.007h.626v.007c-.165.907-.949 1.495-2.004 1.495Zm4.49-.051c-1.056 0-1.709-.73-1.709-1.915v-.007c0-1.19.653-1.915 1.708-1.915 1.056 0 1.709.726 1.709 1.915v.007c0 1.186-.653 1.915-1.709 1.915Zm0-.53c.7 0 1.096-.512 1.096-1.385v-.007c0-.877-.395-1.385-1.097-1.385-.7 0-1.096.508-1.096 1.385v.007c0 .873.395 1.385 1.096 1.385Zm2.636.464v-3.705h.598v.556h.055c.186-.391.533-.622 1.08-.622.831 0 1.295.492 1.295 1.372v2.4h-.598V35.07c0-.667-.275-.986-.866-.986s-.966.398-.966 1.048v2.193h-.598Zm5.383.066c-.825 0-1.392-.4-1.46-1.011h.611c.1.31.395.512.87.512.498 0 .852-.237.852-.574v-.007c0-.25-.189-.426-.646-.536l-.574-.138c-.694-.164-1.007-.467-1.007-1v-.003c0-.616.591-1.08 1.378-1.08.777 0 1.317.389 1.4.994h-.588c-.08-.292-.368-.495-.815-.495-.44 0-.763.227-.763.553v.007c0 .251.185.41.622.516l.57.137c.698.169 1.035.471 1.035 1v.007c0 .66-.643 1.118-1.485 1.118Zm3.695-.038c-.763 0-1.082-.282-1.082-.99v-2.248h-.585v-.495h.585v-.96h.619v.96h.81v.495h-.81v2.096c0 .437.15.612.536.612a2.5 2.5 0 0 0 .275-.013v.508c-.117.021-.23.035-.348.035Zm2.259.038c-.705 0-1.238-.427-1.238-1.1v-.007c0-.66.489-1.042 1.351-1.093l1.063-.066v-.337c0-.457-.279-.704-.832-.704-.444 0-.736.165-.832.453l-.004.01h-.598l.004-.02c.096-.58.66-.973 1.45-.973.904 0 1.41.464 1.41 1.234v2.537H26.6v-.546h-.055c-.234.395-.623.612-1.121.612Zm-.626-1.114c0 .375.32.595.75.595.608 0 1.052-.4 1.052-.929v-.337l-.99.062c-.564.035-.812.234-.812.602v.007Zm3.493 1.048v-3.705h.598v.556h.055c.186-.391.533-.622 1.08-.622.831 0 1.295.492 1.295 1.372v2.4h-.598V35.07c0-.667-.275-.986-.866-.986s-.966.398-.966 1.048v2.193h-.598Zm5.428.028c-.763 0-1.083-.282-1.083-.99v-2.248h-.584v-.495h.584v-.96h.619v.96h.81v.495h-.81v2.096c0 .437.15.612.536.612a2.5 2.5 0 0 0 .275-.013v.508c-.117.021-.23.035-.347.035Zm3.22 1.21V33.62h.599v.59h.055c.227-.412.64-.656 1.155-.656.938 0 1.554.76 1.554 1.915v.007c0 1.162-.612 1.915-1.554 1.915-.509 0-.952-.255-1.155-.65h-.055v1.822h-.598Zm1.671-1.702c.678 0 1.08-.522 1.08-1.385v-.007c0-.863-.403-1.385-1.08-1.385-.673 0-1.086.53-1.086 1.385v.007c0 .856.413 1.385 1.086 1.385Zm4.14.53c-1.06 0-1.699-.743-1.699-1.905v-.003c0-1.145.653-1.929 1.66-1.929s1.62.75 1.62 1.857v.233h-2.668c.017.767.44 1.214 1.1 1.214.502 0 .811-.237.91-.46l.014-.032h.599l-.007.028c-.127.502-.657.997-1.53.997Zm-.042-3.304c-.55 0-.97.375-1.035 1.08h2.049c-.062-.733-.468-1.08-1.014-1.08Zm2.55 3.238v-3.705h.599v.55h.055c.14-.389.488-.616.99-.616.113 0 .24.014.299.024v.581a2.155 2.155 0 0 0-.368-.034c-.57 0-.976.36-.976.904v2.296h-.598Zm3.136 0v-3.21h-.616v-.495h.615v-.413c0-.739.372-1.093 1.076-1.093.145 0 .275.01.4.034v.478a1.632 1.632 0 0 0-.28-.017c-.426 0-.597.21-.597.615v.396h.842v.495h-.842v3.21h-.599Zm3.667.066c-1.055 0-1.708-.73-1.708-1.915v-.007c0-1.19.653-1.915 1.708-1.915 1.056 0 1.709.726 1.709 1.915v.007c0 1.186-.653 1.915-1.709 1.915Zm0-.53c.702 0 1.097-.512 1.097-1.385v-.007c0-.877-.395-1.385-1.097-1.385-.7 0-1.096.508-1.096 1.385v.007c0 .873.395 1.385 1.096 1.385Zm2.637.464v-3.705h.598v.55h.055c.141-.389.488-.616.99-.616.114 0 .24.014.3.024v.581a2.154 2.154 0 0 0-.369-.034c-.57 0-.976.36-.976.904v2.296h-.598Zm2.75 0v-3.705h.598v.563h.055c.165-.398.516-.629 1-.629.502 0 .853.265 1.025.65h.055c.2-.392.622-.65 1.134-.65.756 0 1.18.434 1.18 1.21v2.561h-.599v-2.423c0-.547-.25-.818-.773-.818-.516 0-.856.388-.856.86v2.381h-.598V34.81c0-.44-.303-.725-.77-.725-.485 0-.853.422-.853.945v2.296h-.598Zm7.143.066c-.705 0-1.237-.427-1.237-1.1v-.007c0-.66.488-1.042 1.35-1.093l1.063-.066v-.337c0-.457-.279-.704-.832-.704-.444 0-.736.165-.832.453l-.004.01h-.598l.004-.02c.096-.58.66-.973 1.45-.973.904 0 1.41.464 1.41 1.234v2.537h-.598v-.546h-.055c-.234.395-.622.612-1.12.612Zm-.625-1.114c0 .375.32.595.749.595.608 0 1.052-.4 1.052-.929v-.337l-.99.062c-.564.035-.812.234-.812.602v.007Zm3.492 1.048v-3.705h.598v.556h.055c.186-.391.533-.622 1.08-.622.831 0 1.296.492 1.296 1.372v2.4h-.599V35.07c0-.667-.275-.986-.866-.986s-.966.398-.966 1.048v2.193h-.598Zm5.627.066c-1.038 0-1.701-.753-1.701-1.929v-.007c0-1.151.66-1.9 1.698-1.9.9 0 1.44.518 1.55 1.178l.004.021h-.595l-.004-.01c-.092-.365-.422-.66-.955-.66-.667 0-1.087.536-1.087 1.371v.007c0 .853.427 1.4 1.087 1.4.498 0 .814-.22.952-.633l.007-.02.591-.004-.007.037c-.151.67-.65 1.149-1.54 1.149Zm3.936 0c-1.059 0-1.698-.743-1.698-1.905v-.003c0-1.145.653-1.929 1.66-1.929 1.008 0 1.62.75 1.62 1.857v.233h-2.668c.017.767.44 1.214 1.1 1.214.502 0 .811-.237.91-.46l.015-.032h.598l-.007.028c-.127.502-.657.997-1.53.997Zm-.041-3.304c-.55 0-.97.375-1.035 1.08h2.049c-.062-.733-.468-1.08-1.014-1.08Zm5.899 3.304c-.939 0-1.554-.76-1.554-1.915v-.007c0-1.162.612-1.915 1.554-1.915.508 0 .952.255 1.155.65h.055v-2.056h.598v5.177h-.598v-.591h-.055c-.227.413-.64.657-1.155.657Zm.137-.53c.674 0 1.087-.53 1.087-1.385v-.007c0-.856-.413-1.385-1.087-1.385-.677 0-1.08.522-1.08 1.385v.007c0 .863.403 1.385 1.08 1.385Zm4.332.53c-1.06 0-1.699-.743-1.699-1.905v-.003c0-1.145.653-1.929 1.66-1.929 1.008 0 1.62.75 1.62 1.857v.233h-2.668c.017.767.44 1.214 1.1 1.214.502 0 .812-.237.911-.46l.014-.032h.598l-.007.028c-.127.502-.656.997-1.53.997Zm-.042-3.304c-.55 0-.97.375-1.034 1.08h2.048c-.062-.733-.467-1.08-1.014-1.08Zm4.077 4.545c-.894 0-1.464-.403-1.557-1.011l.007-.004h.619l.003.004c.065.282.395.481.928.481.664 0 1.059-.313 1.059-.86v-.749h-.055c-.234.41-.653.64-1.162.64-.959 0-1.554-.743-1.554-1.78v-.008c0-1.038.598-1.79 1.568-1.79.522 0 .928.257 1.155.677h.041v-.612h.598v3.654c0 .828-.64 1.358-1.65 1.358Zm-.027-2.029c.687 0 1.1-.515 1.1-1.25v-.008c0-.735-.416-1.261-1.1-1.261-.688 0-1.073.526-1.073 1.261v.007c0 .736.385 1.251 1.073 1.251Zm2.79.722v-3.705h.599v.55h.055c.141-.389.488-.616.99-.616.114 0 .24.014.3.024v.581a2.154 2.154 0 0 0-.369-.034c-.57 0-.976.36-.976.904v2.296h-.598Zm3.7.066c-.705 0-1.238-.427-1.238-1.1v-.007c0-.66.488-1.042 1.351-1.093l1.062-.066v-.337c0-.457-.278-.704-.832-.704-.443 0-.735.165-.831.453l-.004.01h-.598l.003-.02c.097-.58.66-.973 1.451-.973.904 0 1.41.464 1.41 1.234v2.537h-.599v-.546h-.055c-.233.395-.622.612-1.12.612Zm-.626-1.114c0 .375.32.595.75.595.608 0 1.051-.4 1.051-.929v-.337l-.99.062c-.563.035-.81.234-.81.602v.007Zm4.861 1.114c-.939 0-1.554-.76-1.554-1.915v-.007c0-1.162.612-1.915 1.554-1.915.508 0 .952.255 1.155.65h.055v-2.056h.598v5.177h-.598v-.591h-.055c-.227.413-.64.657-1.155.657Zm.137-.53c.674 0 1.086-.53 1.086-1.385v-.007c0-.856-.412-1.385-1.086-1.385-.677 0-1.079.522-1.079 1.385v.007c0 .863.402 1.385 1.079 1.385Zm3.836.53c-.704 0-1.237-.427-1.237-1.1v-.007c0-.66.488-1.042 1.351-1.093l1.062-.066v-.337c0-.457-.278-.704-.832-.704-.443 0-.735.165-.832.453l-.003.01h-.598l.003-.02c.096-.58.66-.973 1.451-.973.904 0 1.409.464 1.409 1.234v2.537h-.598v-.546h-.055c-.234.395-.622.612-1.121.612Zm-.625-1.114c0 .375.32.595.749.595.609 0 1.052-.4 1.052-.929v-.337l-.99.062c-.564.035-.811.234-.811.602v.007Zm4.809 1.076c-.763 0-1.083-.282-1.083-.99v-2.248h-.584v-.495h.584v-.96h.619v.96h.811v.495h-.811v2.096c0 .437.151.612.536.612.107 0 .165-.003.275-.013v.508c-.117.021-.23.035-.347.035Zm1.557-4.448a.413.413 0 0 1 0-.825c.227 0 .413.185.413.412a.414.414 0 0 1-.413.413Zm-.302 4.42v-3.705h.598v3.705h-.598Zm3.248.066c-1.055 0-1.708-.73-1.708-1.915v-.007c0-1.19.653-1.915 1.708-1.915s1.709.726 1.709 1.915v.007c0 1.186-.654 1.915-1.709 1.915Zm0-.53c.701 0 1.097-.512 1.097-1.385v-.007c0-.877-.396-1.385-1.097-1.385s-1.096.508-1.096 1.385v.007c0 .873.395 1.385 1.096 1.385Zm2.637.464v-3.705h.598v.556h.055c.185-.391.533-.622 1.079-.622.832 0 1.296.492 1.296 1.372v2.4h-.598V35.07c0-.667-.275-.986-.866-.986s-.966.398-.966 1.048v2.193h-.598Zm7.933.066c-.515 0-.928-.245-1.155-.657h-.055v.591h-.598V32.15h.598v2.056h.055c.203-.395.647-.65 1.155-.65.942 0 1.554.753 1.554 1.915v.007c0 1.155-.615 1.915-1.554 1.915Zm-.137-.53c.677 0 1.079-.522 1.079-1.385v-.007c0-.863-.402-1.385-1.079-1.385-.674 0-1.086.53-1.086 1.385v.007c0 .856.412 1.385 1.086 1.385Zm2.798 1.764c-.079 0-.182-.007-.265-.02v-.492c.073.013.165.017.248.017.34 0 .547-.155.681-.581l.068-.22-1.371-3.71h.639l1.018 3.05h.055l1.014-3.05h.629l-1.447 3.933c-.306.832-.612 1.073-1.269 1.073Zm5.483-1.3V36.9l1.677-1.815c.633-.684.819-.942.819-1.375v-.007c0-.522-.354-.914-.939-.914-.595 0-.99.388-.99.973l-.003.007-.592-.004-.006-.003c.003-.88.684-1.513 1.632-1.513.867 0 1.53.588 1.53 1.389v.007c0 .567-.244.98-1.141 1.904l-1.128 1.165v.055h2.352v.557h-3.211Zm4.637.035a.45.45 0 0 1-.447-.447c0-.248.203-.447.447-.447a.446.446 0 1 1 0 .894Zm3.077.082c-.908 0-1.867-.64-1.867-2.506v-.007c0-1.69.705-2.68 1.908-2.68.832 0 1.451.487 1.619 1.22l.01.044h-.622l-.014-.038c-.151-.416-.498-.673-1-.673-.9 0-1.268.88-1.306 1.914-.004.038-.004.08-.004.117h.066c.182-.406.649-.767 1.32-.767.931 0 1.626.709 1.626 1.66v.008c0 .99-.736 1.708-1.736 1.708Zm-1.128-1.715c0 .653.492 1.169 1.121 1.169.622 0 1.121-.506 1.121-1.148v-.007c0-.66-.468-1.135-1.111-1.135s-1.131.471-1.131 1.117v.004Zm5.545 1.68c-1.024 0-1.688-.57-1.753-1.354l-.004-.04h.595l.004.033c.048.489.498.826 1.158.826.65 0 1.093-.365 1.093-.89v-.008c0-.608-.436-.948-1.131-.948h-.622v-.523h.595c.591 0 1.003-.364 1.003-.86v-.006c0-.52-.34-.818-.945-.818-.584 0-1 .31-1.052.811l-.003.034h-.595l.004-.034c.079-.808.718-1.348 1.646-1.348.945 0 1.568.526 1.568 1.28v.006c0 .612-.433 1.031-1.052 1.162v.014c.722.062 1.213.512 1.213 1.217v.006c0 .829-.729 1.44-1.722 1.44Zm5.981-.016c-.825 0-1.392-.4-1.461-1.011h.612c.1.31.396.512.87.512.498 0 .852-.237.852-.574v-.007c0-.25-.189-.426-.646-.536l-.574-.138c-.694-.164-1.007-.467-1.007-1v-.003c0-.616.591-1.08 1.378-1.08.777 0 1.317.389 1.399.994h-.587c-.079-.292-.368-.495-.815-.495-.44 0-.763.227-.763.553v.007c0 .251.185.41.622.516l.571.137c.697.169 1.034.471 1.034 1v.007c0 .66-.643 1.118-1.485 1.118Zm3.926 0c-1.059 0-1.698-.743-1.698-1.905v-.003c0-1.145.653-1.929 1.66-1.929s1.619.75 1.619 1.857v.233h-2.667c.017.767.44 1.214 1.1 1.214.502 0 .811-.237.911-.46l.013-.032h.599l-.007.028c-.128.502-.657.997-1.53.997Zm-.041-3.304c-.55 0-.97.375-1.035 1.08h2.049c-.062-.733-.468-1.08-1.014-1.08Zm4.066 3.304c-1.038 0-1.701-.753-1.701-1.929v-.007c0-1.151.66-1.9 1.698-1.9.9 0 1.44.518 1.55 1.178l.004.021h-.595l-.004-.01c-.092-.365-.422-.66-.955-.66-.667 0-1.086.536-1.086 1.371v.007c0 .853.426 1.4 1.086 1.4.498 0 .815-.22.952-.633l.007-.02.591-.004-.007.037c-.151.67-.649 1.149-1.54 1.149Zm4.404 1.172V33.62h.598v.59h.055c.227-.412.639-.656 1.155-.656.938 0 1.554.76 1.554 1.915v.007c0 1.162-.612 1.915-1.554 1.915-.509 0-.952-.255-1.155-.65h-.055v1.822h-.598Zm1.67-1.702c.678 0 1.08-.522 1.08-1.385v-.007c0-.863-.402-1.385-1.08-1.385-.673 0-1.086.53-1.086 1.385v.007c0 .856.413 1.385 1.086 1.385Zm4.139.53c-1.059 0-1.698-.743-1.698-1.905v-.003c0-1.145.653-1.929 1.66-1.929 1.008 0 1.619.75 1.619 1.857v.233h-2.667c.017.767.44 1.214 1.1 1.214.502 0 .811-.237.911-.46l.014-.032h.598l-.007.028c-.127.502-.657.997-1.53.997Zm-.041-3.304c-.55 0-.969.375-1.035 1.08h2.049c-.062-.733-.468-1.08-1.014-1.08Zm2.551 3.238v-3.705h.598v.55h.055c.141-.389.488-.616.99-.616.113 0 .24.014.299.024v.581a2.156 2.156 0 0 0-.368-.034c-.571 0-.976.36-.976.904v2.296h-.598ZM6.402 46.392c-1.059 0-1.698-.743-1.698-1.905v-.003c0-1.145.653-1.929 1.66-1.929s1.619.75 1.619 1.857v.233H5.315c.018.767.44 1.214 1.1 1.214.502 0 .812-.237.911-.46l.014-.032h.598l-.007.028c-.127.502-.656.997-1.53.997Zm-.042-3.304c-.55 0-.969.375-1.034 1.08h2.049c-.062-.733-.468-1.08-1.015-1.08Zm2.118 3.238 1.268-1.852-1.282-1.853h.705l.88 1.378h.055l.87-1.378h.67l-1.258 1.828 1.275 1.877h-.701l-.877-1.399h-.055l-.88 1.4h-.67Zm5.328.066c-1.059 0-1.698-.743-1.698-1.905v-.003c0-1.145.653-1.929 1.66-1.929s1.62.75 1.62 1.857v.233H12.72c.017.767.44 1.214 1.1 1.214.502 0 .811-.237.91-.46l.015-.032h.598l-.007.028c-.127.502-.657.997-1.53.997Zm-.041-3.304c-.55 0-.97.375-1.035 1.08h2.049c-.062-.733-.467-1.08-1.014-1.08Zm4.066 3.304c-1.038 0-1.701-.753-1.701-1.929v-.007c0-1.151.66-1.9 1.698-1.9.9 0 1.44.518 1.55 1.178l.004.021h-.595l-.003-.01c-.093-.365-.423-.66-.956-.66-.667 0-1.086.536-1.086 1.371v.007c0 .853.426 1.4 1.086 1.4.498 0 .815-.22.952-.633l.007-.02.591-.004-.006.037c-.152.67-.65 1.149-1.54 1.149Zm3.665 0c-.842 0-1.275-.495-1.275-1.372v-2.4h.598v2.256c0 .666.24.986.832.986.653 0 1-.398 1-1.048V42.62h.598v3.705h-.598v-.553h-.055c-.182.395-.557.619-1.1.619Zm4.187-.038c-.763 0-1.083-.282-1.083-.99v-2.248h-.584v-.495h.584v-.96h.619v.96h.811v.495h-.811v2.096c0 .437.151.612.536.612a2.5 2.5 0 0 0 .275-.013v.508c-.117.021-.23.035-.347.035Zm1.557-4.448a.414.414 0 0 1-.412-.413.413.413 0 0 1 .825 0 .414.414 0 0 1-.413.413Zm-.302 4.42v-3.705h.598v3.705h-.599Zm3.248.066c-1.055 0-1.709-.73-1.709-1.915v-.007c0-1.19.654-1.915 1.709-1.915 1.055 0 1.708.726 1.708 1.915v.007c0 1.186-.653 1.915-1.708 1.915Zm0-.53c.701 0 1.096-.512 1.096-1.385v-.007c0-.877-.395-1.385-1.096-1.385-.701 0-1.097.508-1.097 1.385v.007c0 .873.396 1.385 1.097 1.385Zm2.636.464v-3.705h.599v.556h.055c.185-.391.532-.622 1.079-.622.832 0 1.296.492 1.296 1.372v2.4h-.598V44.07c0-.667-.275-.986-.866-.986-.592 0-.966.398-.966 1.048v2.193h-.599ZM6.746 76.246c-1.103 0-1.818-.615-1.888-1.459l-.004-.044h.64l.004.037c.052.526.537.888 1.248.888.7 0 1.177-.392 1.177-.958v-.008c0-.655-.47-1.022-1.218-1.022h-.67v-.562h.64c.637 0 1.082-.393 1.082-.926v-.007c0-.56-.367-.881-1.018-.881-.63 0-1.078.333-1.133.873l-.004.037h-.64l.003-.037c.086-.87.774-1.45 1.774-1.45 1.018 0 1.688.566 1.688 1.376v.008c0 .659-.467 1.11-1.133 1.251v.015c.777.067 1.307.552 1.307 1.31v.008c0 .892-.785 1.551-1.855 1.551Zm4.242-.089v-4.601h-.059l-1.358.984v-.703l1.421-1.022h.663v5.342h-.667Zm81.529.126c-.995 0-1.706-.64-1.784-1.496l-.004-.04h.64l.005.03c.063.51.525.917 1.15.917.712 0 1.2-.507 1.2-1.229v-.007c0-.71-.496-1.218-1.188-1.218-.355 0-.659.107-.889.326a1.254 1.254 0 0 0-.244.318h-.577l.281-3.069h2.973v.596h-2.447l-.182 1.807h.06c.237-.36.655-.556 1.14-.556 1.003 0 1.725.752 1.725 1.785v.007c0 1.078-.774 1.829-1.859 1.829Zm3.203-.089a.485.485 0 0 1-.482-.481c0-.267.219-.481.482-.481a.48.48 0 1 1 0 .962Zm3.213.089c-1.181 0-1.884-1.077-1.884-2.795v-.007c0-1.718.703-2.792 1.884-2.792s1.892 1.074 1.892 2.792v.007c0 1.718-.711 2.795-1.892 2.795Zm0-.581c.766 0 1.222-.852 1.222-2.214v-.007c0-1.363-.456-2.207-1.222-2.207s-1.214.844-1.214 2.207v.007c0 1.362.448 2.214 1.214 2.214Zm4.294.455v-4.601h-.059l-1.359.984v-.703l1.422-1.022h.663v5.342h-.667Zm5.716.07c-.888 0-1.499-.429-1.573-1.088h.659c.107.333.425.552.936.552.537 0 .918-.256.918-.619v-.007c0-.27-.203-.459-.696-.578l-.618-.148c-.748-.177-1.085-.503-1.085-1.077v-.004c0-.662.637-1.162 1.485-1.162.837 0 1.418.418 1.507 1.07h-.633c-.086-.315-.397-.533-.878-.533-.474 0-.822.244-.822.596v.007c0 .27.2.44.67.556l.615.148c.751.181 1.114.507 1.114 1.077v.007c0 .711-.692 1.203-1.599 1.203Zm4.228 0c-1.141 0-1.829-.8-1.829-2.05v-.004c0-1.233.703-2.077 1.788-2.077s1.744.807 1.744 2v.25h-2.873c.018.826.474 1.308 1.184 1.308.541 0 .874-.256.981-.496l.015-.034h.644l-.007.03c-.137.54-.707 1.073-1.647 1.073Zm-.045-3.557c-.592 0-1.044.403-1.114 1.162h2.206c-.066-.788-.503-1.162-1.092-1.162Zm4.38 3.557c-1.118 0-1.833-.81-1.833-2.076v-.008c0-1.24.711-2.047 1.829-2.047.97 0 1.551.56 1.67 1.27l.003.022h-.64l-.004-.011c-.1-.392-.455-.71-1.029-.71-.718 0-1.17.577-1.17 1.476v.008c0 .918.459 1.506 1.17 1.506.537 0 .877-.237 1.025-.68l.008-.023.637-.004-.008.041c-.163.722-.7 1.236-1.658 1.236Zm4.686-1.92v-.6h2.488v.6h-2.488Zm5.761 1.85v-.459l1.806-1.955c.681-.736.881-1.014.881-1.48v-.008c0-.562-.381-.984-1.01-.984-.641 0-1.067.418-1.067 1.047l-.003.008-.637-.004-.007-.004c.003-.947.736-1.629 1.758-1.629.933 0 1.647.633 1.647 1.496v.007c0 .611-.263 1.055-1.229 2.051l-1.214 1.255v.06h2.532v.6h-3.457Zm4.575 0v-.459l1.807-1.955c.681-.736.881-1.014.881-1.48v-.008c0-.562-.382-.984-1.011-.984-.64 0-1.066.418-1.066 1.047l-.004.008-.636-.004-.008-.004c.004-.947.737-1.629 1.759-1.629.932 0 1.647.633 1.647 1.496v.007c0 .611-.263 1.055-1.229 2.051l-1.214 1.255v.06h2.532v.6h-3.458Zm6.393.089c-1.103 0-1.817-.615-1.888-1.459l-.003-.044h.64l.004.037c.052.526.537.888 1.247.888.7 0 1.178-.392 1.178-.958v-.008c0-.655-.471-1.022-1.218-1.022h-.67v-.562h.64c.637 0 1.081-.393 1.081-.926v-.007c0-.56-.366-.881-1.018-.881-.629 0-1.077.333-1.133.873l-.004.037h-.64l.004-.037c.085-.87.773-1.45 1.773-1.45 1.018 0 1.688.566 1.688 1.376v.008c0 .659-.466 1.11-1.133 1.251v.015c.778.067 1.307.552 1.307 1.31v.008c0 .892-.785 1.551-1.855 1.551Zm3.206-.052a.485.485 0 0 1-.481-.481.482.482 0 0 1 .963 0 .483.483 0 0 1-.482.481Zm3.939-.037V75.05h-2.602v-.607a84.621 84.621 0 0 1 2.287-3.628h.967v3.64h.759v.595h-.759v1.107h-.652Zm-1.921-1.7h1.925v-3.024h-.045c-.599.896-1.299 2-1.88 2.98v.045Zm4.361 1.7v-.459l1.806-1.955c.681-.736.881-1.014.881-1.48v-.008c0-.562-.381-.984-1.01-.984-.641 0-1.066.418-1.066 1.047l-.004.008-.637-.004-.007-.004c.003-.947.736-1.629 1.758-1.629.933 0 1.648.633 1.648 1.496v.007c0 .611-.263 1.055-1.23 2.051l-1.214 1.255v.06h2.532v.6h-3.457Zm8.081.07c-.888 0-1.499-.429-1.573-1.088h.659c.107.333.425.552.936.552.537 0 .918-.256.918-.619v-.007c0-.27-.203-.459-.696-.578l-.618-.148c-.748-.177-1.084-.503-1.084-1.077v-.004c0-.662.636-1.162 1.484-1.162.837 0 1.418.418 1.507 1.07h-.633c-.085-.315-.396-.533-.878-.533-.474 0-.822.244-.822.596v.007c0 .27.2.44.671.556l.614.148c.752.181 1.114.507 1.114 1.077v.007c0 .711-.692 1.203-1.599 1.203Zm4.228 0c-1.14 0-1.829-.8-1.829-2.05v-.004c0-1.233.703-2.077 1.788-2.077s1.744.807 1.744 2v.25h-2.873c.018.826.474 1.308 1.185 1.308.54 0 .873-.256.981-.496l.014-.034h.644l-.007.03c-.137.54-.707 1.073-1.647 1.073Zm-.045-3.557c-.592 0-1.044.403-1.114 1.162h2.206c-.066-.788-.503-1.162-1.092-1.162Zm4.38 3.557c-1.118 0-1.833-.81-1.833-2.076v-.008c0-1.24.711-2.047 1.829-2.047.97 0 1.551.56 1.67 1.27l.003.022h-.64l-.004-.011c-.1-.392-.455-.71-1.029-.71-.718 0-1.17.577-1.17 1.476v.008c0 .918.459 1.506 1.17 1.506.537 0 .877-.237 1.025-.68l.008-.023.637-.004-.008.041c-.163.722-.7 1.236-1.658 1.236Z"/>
    <path fill="#ACAFBF"
          d="M6.106 63.991v-4.065H4.631v-.514h3.522v.514H6.677v4.065h-.57Zm3.62.06c-.977 0-1.567-.685-1.567-1.758v-.003c0-1.056.603-1.78 1.533-1.78.93 0 1.494.692 1.494 1.714v.215H8.724c.016.708.406 1.12 1.015 1.12.464 0 .75-.218.841-.425l.013-.028h.552l-.006.025c-.118.463-.606.92-1.412.92Zm-.037-3.05c-.508 0-.895.347-.956.997h1.892c-.057-.676-.432-.996-.936-.996Zm3.528 3.05c-.761 0-1.285-.368-1.349-.933h.565c.092.286.365.473.803.473.46 0 .787-.219.787-.53v-.006c0-.232-.175-.394-.597-.495l-.53-.127c-.64-.152-.93-.432-.93-.923v-.004c0-.568.547-.996 1.273-.996.717 0 1.215.359 1.292.917h-.543c-.073-.27-.34-.457-.752-.457-.406 0-.704.21-.704.511v.006c0 .232.171.378.574.476l.527.127c.644.156.955.435.955.924v.006c0 .61-.594 1.031-1.371 1.031Zm3.411-.035c-.704 0-1-.26-1-.914v-2.075h-.539v-.457h.54v-.885h.57v.885h.75v.457h-.75v1.936c0 .403.14.565.496.565.098 0 .152-.003.254-.013v.47a1.835 1.835 0 0 1-.32.031Zm2.491.035c-.977 0-1.567-.685-1.567-1.758v-.003c0-1.056.602-1.78 1.532-1.78s1.495.692 1.495 1.714v.215h-2.463c.016.708.406 1.12 1.016 1.12.463 0 .748-.218.84-.425l.013-.028h.552l-.006.025c-.117.463-.606.92-1.412.92Zm-.038-3.05c-.508 0-.895.347-.955.997h1.891c-.057-.676-.432-.996-.936-.996Zm3.617 3.05c-.866 0-1.434-.701-1.434-1.767v-.006c0-1.073.565-1.768 1.434-1.768.47 0 .88.235 1.066.6h.051v-1.898h.552v4.779h-.552v-.546h-.05c-.21.381-.59.606-1.067.606Zm.127-.488c.622 0 1.003-.49 1.003-1.28v-.005c0-.79-.38-1.28-1.003-1.28-.625 0-.996.483-.996 1.28v.006c0 .796.371 1.279.996 1.279Zm5.83.488c-.96 0-1.572-.695-1.572-1.78v-.006c0-1.063.61-1.755 1.568-1.755.831 0 1.33.48 1.431 1.089l.003.019h-.549l-.003-.01c-.086-.336-.39-.61-.882-.61-.616 0-1.003.496-1.003 1.267v.006c0 .787.394 1.292 1.003 1.292.46 0 .752-.204.879-.584l.006-.02.546-.003-.006.035c-.14.62-.6 1.06-1.422 1.06Zm3.642 0c-.974 0-1.577-.672-1.577-1.767v-.006c0-1.098.603-1.768 1.577-1.768s1.577.67 1.577 1.768v.006c0 1.095-.603 1.767-1.577 1.767Zm0-.488c.647 0 1.012-.473 1.012-1.28v-.005c0-.81-.365-1.28-1.012-1.28s-1.012.47-1.012 1.28v.006c0 .806.364 1.279 1.012 1.279Zm2.434.428v-3.42h.552v.513h.05c.172-.361.492-.574.997-.574.768 0 1.196.454 1.196 1.266v2.215h-.552v-2.082c0-.615-.254-.91-.8-.91-.545 0-.891.368-.891.968v2.024h-.552Zm5.194.06c-.958 0-1.57-.695-1.57-1.78v-.006c0-1.063.609-1.755 1.567-1.755.831 0 1.33.48 1.43 1.089l.004.019h-.549l-.003-.01c-.086-.336-.39-.61-.882-.61-.616 0-1.003.496-1.003 1.267v.006c0 .787.394 1.292 1.003 1.292.46 0 .752-.204.879-.584l.006-.02.546-.003-.007.035c-.14.62-.6 1.06-1.421 1.06Zm3.383 0c-.778 0-1.178-.457-1.178-1.266V60.57h.552v2.082c0 .615.222.91.768.91.603 0 .924-.367.924-.967V60.57h.552v3.421h-.552v-.51h-.051c-.168.364-.514.57-1.016.57Zm2.649-.06v-3.42h.552v.507h.05c.131-.359.452-.568.915-.568.105 0 .222.013.276.022v.537a1.99 1.99 0 0 0-.34-.032c-.526 0-.9.333-.9.834v2.12h-.553Zm2.538 0v-3.42h.553v.507h.05c.13-.359.451-.568.914-.568.105 0 .222.013.276.022v.537a1.99 1.99 0 0 0-.34-.032c-.526 0-.9.333-.9.834v2.12h-.553Zm3.777.06c-.978 0-1.568-.685-1.568-1.758v-.003c0-1.056.603-1.78 1.533-1.78.93 0 1.494.692 1.494 1.714v.215H51.27c.016.708.406 1.12 1.015 1.12.464 0 .749-.218.841-.425l.013-.028h.552l-.006.025c-.118.463-.606.92-1.412.92Zm-.039-3.05c-.507 0-.894.347-.955.997h1.892c-.058-.676-.432-.996-.937-.996Zm2.355 2.99v-3.42h.552v.513h.05c.172-.361.493-.574.997-.574.768 0 1.196.454 1.196 1.266v2.215h-.552v-2.082c0-.615-.254-.91-.8-.91-.545 0-.891.368-.891.968v2.024h-.552Zm5.194.06c-.958 0-1.57-.695-1.57-1.78v-.006c0-1.063.609-1.755 1.567-1.755.831 0 1.33.48 1.431 1.089l.003.019h-.549l-.003-.01c-.086-.336-.39-.61-.882-.61-.616 0-1.003.496-1.003 1.267v.006c0 .787.394 1.292 1.003 1.292.46 0 .752-.204.879-.584l.006-.02.546-.003-.006.035c-.14.62-.6 1.06-1.422 1.06Zm2.53 1.14c-.074 0-.169-.007-.245-.02v-.453c.066.012.152.016.228.016.314 0 .505-.143.629-.537l.063-.203-1.266-3.424h.59l.94 2.815h.05l.936-2.815h.58l-1.335 3.63c-.282.768-.565.99-1.17.99Zm28.438-1.2v-4.579h1.571c1.358 0 2.161.847 2.161 2.285v.006c0 1.44-.8 2.288-2.16 2.288H90.75Zm.572-.514h.961c1.022 0 1.615-.654 1.615-1.767v-.007c0-1.117-.6-1.777-1.615-1.777h-.961v3.55Zm5.226.574c-.778 0-1.177-.457-1.177-1.266V60.57h.552v2.082c0 .615.222.91.768.91.602 0 .923-.367.923-.967V60.57h.552v3.421h-.552v-.51h-.05c-.169.364-.515.57-1.016.57Zm2.65-.06v-3.42h.552v.507h.05c.13-.359.451-.568.914-.568.105 0 .222.013.276.022v.537a1.988 1.988 0 0 0-.339-.032c-.527 0-.901.333-.901.834v2.12h-.553Zm3.414.06c-.651 0-1.143-.393-1.143-1.015v-.007c0-.609.451-.96 1.247-1.009l.981-.06v-.31c0-.423-.257-.651-.768-.651-.409 0-.679.152-.768.419l-.003.01h-.552l.003-.02c.089-.536.609-.898 1.339-.898.835 0 1.301.428 1.301 1.14v2.341h-.552v-.505h-.051c-.216.365-.574.565-1.034.565Zm-.578-1.028c0 .346.295.55.692.55.562 0 .971-.369.971-.858v-.31l-.914.056c-.52.032-.749.216-.749.556v.006Zm4.439.993c-.704 0-.999-.26-.999-.914v-2.075h-.54v-.457h.54v-.885h.571v.885h.749v.457h-.749v1.936c0 .403.14.565.495.565.098 0 .152-.003.254-.013v.47a1.837 1.837 0 0 1-.321.031Zm1.438-4.106a.382.382 0 0 1 0-.761.382.382 0 0 1 0 .761Zm-.28 4.081v-3.42h.553v3.42h-.553Zm2.999.06c-.974 0-1.577-.672-1.577-1.767v-.006c0-1.098.603-1.768 1.577-1.768s1.577.67 1.577 1.768v.006c0 1.095-.603 1.767-1.577 1.767Zm0-.488c.647 0 1.012-.473 1.012-1.28v-.005c0-.81-.365-1.28-1.012-1.28s-1.012.47-1.012 1.28v.006c0 .806.365 1.279 1.012 1.279Zm2.434.428v-3.42h.552v.513h.051c.171-.361.492-.574.996-.574.768 0 1.196.454 1.196 1.266v2.215h-.552v-2.082c0-.615-.254-.91-.799-.91-.546 0-.892.368-.892.968v2.024h-.552ZM6.76 93.93c-1.244 0-2.022-.92-2.022-2.393v-.006c0-1.476.775-2.396 2.019-2.396.964 0 1.716.606 1.853 1.485l-.003.006h-.575l-.003-.006c-.152-.587-.641-.958-1.272-.958-.88 0-1.431.723-1.431 1.869v.006c0 1.146.552 1.866 1.434 1.866.638 0 1.123-.327 1.266-.854l.006-.006h.578v.006c-.153.838-.876 1.38-1.85 1.38Zm3.677-.048c-.65 0-1.142-.393-1.142-1.015v-.007c0-.609.45-.961 1.247-1.009l.98-.06v-.311c0-.422-.256-.65-.767-.65-.41 0-.68.152-.768.418l-.003.01H9.43l.004-.02c.089-.535.609-.897 1.339-.897.834 0 1.3.428 1.3 1.139v2.342h-.551v-.505h-.051c-.216.365-.574.565-1.035.565Zm-.577-1.028c0 .346.295.549.692.549.561 0 .97-.368.97-.857v-.31l-.913.056c-.52.032-.75.216-.75.556v.006Zm4.37 1.028c-.778 0-1.178-.457-1.178-1.266v-2.215h.552v2.082c0 .615.222.91.768.91.603 0 .923-.368.923-.967V90.4h.553v3.42h-.553v-.51h-.05c-.169.365-.514.571-1.016.571Zm3.823 0c-.762 0-1.285-.368-1.349-.933h.565c.092.286.365.473.803.473.46 0 .787-.219.787-.53v-.006c0-.232-.175-.394-.597-.495l-.53-.127c-.64-.152-.93-.432-.93-.924v-.003c0-.568.546-.996 1.273-.996.717 0 1.215.358 1.291.917h-.542c-.073-.27-.34-.457-.752-.457-.406 0-.705.21-.705.51v.007c0 .232.172.378.575.476l.526.127c.645.156.956.435.956.923v.007c0 .609-.594 1.031-1.371 1.031Zm3.623 0c-.977 0-1.567-.685-1.567-1.758v-.003c0-1.057.603-1.78 1.533-1.78.93 0 1.494.692 1.494 1.713v.216h-2.462c.016.708.406 1.12 1.015 1.12.463 0 .749-.219.841-.425l.013-.029h.552l-.006.026c-.118.463-.606.92-1.412.92Zm-.038-3.05c-.507 0-.894.347-.955.997h1.892c-.058-.676-.432-.996-.937-.996Zm3.618 3.05c-.866 0-1.434-.701-1.434-1.767v-.007c0-1.072.564-1.767 1.434-1.767.47 0 .879.235 1.066.6h.05v-1.898h.553v4.779h-.552v-.546h-.051c-.21.38-.59.606-1.066.606Zm.127-.489c.622 0 1.002-.488 1.002-1.278v-.007c0-.79-.38-1.279-1.002-1.279-.625 0-.997.483-.997 1.28v.006c0 .796.372 1.278.997 1.278Zm6.13.49c-.476 0-.857-.226-1.066-.607h-.05v.546h-.553v-4.779h.552v1.898h.05c.188-.365.598-.6 1.067-.6.87 0 1.434.695 1.434 1.767v.007c0 1.066-.568 1.767-1.434 1.767Zm-.127-.49c.625 0 .997-.482.997-1.278v-.007c0-.796-.372-1.279-.997-1.279-.622 0-1.002.49-1.002 1.28v.006c0 .79.38 1.278 1.002 1.278Zm2.583 1.628a1.57 1.57 0 0 1-.244-.019v-.454c.066.013.152.016.228.016.314 0 .505-.142.628-.536l.064-.203-1.266-3.424h.59l.94 2.815h.05l.936-2.815h.58l-1.335 3.63c-.282.768-.565.99-1.17.99Z"/>
    <defs>
        <clipPath id="clip0_5587_5929">
            <path fill="#fff" d="M6.499 6.498h8.665v8.665H6.499z"/>
        </clipPath>
    </defs>
</svg>