<svg width="12" height="12" viewBox="0 0 12 12" fill="none" xmlns="http://www.w3.org/2000/svg">
<g clip-path="url(#clip0_269_6252)">
<path d="M9.7013 4.90789C9.70295 5.02587 9.66375 5.12177 9.58313 5.20202C9.29895 5.48528 9.01458 5.76873 8.73242 6.05402C8.69358 6.09322 8.67278 6.08844 8.63523 6.05273C8.31405 5.74793 7.93177 5.574 7.4915 5.52762C7.01332 5.47737 6.57434 5.58743 6.17512 5.85487C6.13426 5.88229 6.10904 5.87567 6.07628 5.84272C5.72179 5.48639 5.36527 5.13189 5.01077 4.77556C4.85727 4.62113 4.85727 4.36511 5.01114 4.21068C5.60951 3.61084 6.20862 3.01173 6.80846 2.41336C6.96546 2.25673 7.22517 2.26133 7.39009 2.42256C7.52058 2.55012 7.64832 2.68024 7.77734 2.80927C8.3735 3.40543 8.96985 4.00178 9.5662 4.59794C9.65326 4.685 9.70387 4.78715 9.70111 4.90771L9.7013 4.90789Z" fill="#4B5FAB"/>
<path d="M11.9998 3.54015C12.0013 3.65408 11.9608 3.74905 11.8802 3.8293C11.6173 4.09085 11.351 4.34908 11.095 4.61744C10.9464 4.77296 10.6808 4.80646 10.4916 4.62296C10.4843 4.61596 10.4773 4.60879 10.4701 4.60161C9.44709 3.57862 8.42392 2.55562 7.40093 1.53245C7.24668 1.37821 7.21061 1.19286 7.30209 1.01782C7.31865 0.986165 7.34221 0.956716 7.36761 0.931316C7.6391 0.658358 7.91095 0.385769 8.18409 0.114284C8.33686 -0.0375633 8.59215 -0.0381155 8.74418 0.113732C9.79349 1.16212 10.8422 2.21107 11.891 3.2602C11.9683 3.3375 12.0022 3.43229 12.0002 3.54033L11.9998 3.54015Z" fill="#F6A81C"/>
<path d="M3.76398 9.95673C3.63109 9.95691 3.53648 9.91752 3.45826 9.83911C3.02683 9.40787 2.59521 8.9768 2.16433 8.545C2.00476 8.38506 2.00402 8.14265 2.16286 7.98344C2.92615 7.21924 3.68999 6.45558 4.45419 5.69211C4.6123 5.53419 4.85802 5.53401 5.01631 5.69119C5.21767 5.89089 5.417 6.0928 5.61891 6.29214C5.65499 6.32785 5.66327 6.35453 5.63235 6.40037C5.43982 6.68731 5.33362 7.00371 5.30675 7.349C5.28172 7.67091 5.33362 7.97884 5.46044 8.27389C5.48823 8.33868 5.484 8.37935 5.43136 8.43144C4.96054 8.89766 4.49248 9.36682 4.0246 9.83598C3.94601 9.91476 3.85325 9.95562 3.76398 9.95654V9.95673Z" fill="#4B5FAB"/>
<path d="M5.96366 7.48126C5.96403 6.75129 6.55044 6.17041 7.2863 6.17114C8.00284 6.17188 8.59311 6.76786 8.59274 7.49028C8.59219 8.21731 7.99787 8.8028 7.25924 8.79967C6.54528 8.79672 5.95225 8.19872 5.96366 7.48126ZM6.63474 7.48642C6.63474 7.83981 6.92316 8.13136 7.27673 8.12823C7.62349 8.1251 7.91743 7.86006 7.91688 7.48513C7.91633 7.12346 7.64227 6.84995 7.27507 6.84351C6.92463 6.83743 6.63455 7.13284 6.63474 7.4866V7.48642Z" fill="#F6A81C"/>
<path d="M1.72299 11.9998C1.62838 12.0033 1.5496 11.9691 1.48297 11.9024C1.02191 11.4408 0.56011 10.9798 0.099046 10.518C-0.0332914 10.3854 -0.0325552 10.1795 0.0984938 10.0484C0.229727 9.9172 0.434767 9.91701 0.568209 10.0484C0.62453 10.1038 0.679932 10.1602 0.735885 10.2159C0.775642 10.2557 0.814907 10.2563 0.853682 10.2178C1.10879 9.96266 1.36371 9.70756 1.61881 9.45264C1.78869 9.28293 2.00349 9.2822 2.17227 9.45061C2.30001 9.57798 2.42756 9.70553 2.55493 9.83327C2.72021 9.9991 2.71966 10.2156 2.5529 10.3823C2.29651 10.6389 2.03993 10.8953 1.78354 11.1519C1.74636 11.189 1.74691 11.2268 1.7852 11.2652C1.84244 11.3227 1.90023 11.3795 1.95711 11.4373C2.05226 11.5341 2.07969 11.6748 2.0276 11.7973C1.97367 11.9247 1.86121 11.9993 1.72317 11.9998H1.72299Z" fill="#F6A81C"/>
</g>
<defs>
<clipPath id="clip0_269_6252">
<rect width="12" height="12" fill="white"/>
</clipPath>
</defs>
</svg>
