<svg width="16" height="16" viewBox="0 0 16 16" fill="none" xmlns="http://www.w3.org/2000/svg">
    <g clip-path="url(#clip0_12281_67046)">
        <path d="M5.05246 10.6531L1.82371 9.46562C1.72877 9.43058 1.64686 9.36728 1.589 9.28425C1.53114 9.20122 1.50012 9.10245 1.50012 9.00125C1.50012 8.90005 1.53114 8.80128 1.589 8.71825C1.64686 8.63522 1.72877 8.57192 1.82371 8.53687L5.05246 7.34937C5.11969 7.32476 5.18075 7.28578 5.23137 7.23515C5.28199 7.18453 5.32097 7.12348 5.34559 7.05625L6.53309 3.8275C6.56813 3.73256 6.63143 3.65064 6.71446 3.59278C6.79749 3.53492 6.89626 3.50391 6.99746 3.50391C7.09866 3.50391 7.19743 3.53492 7.28046 3.59278C7.36349 3.65064 7.4268 3.73256 7.46184 3.8275L8.64934 7.05625C8.67396 7.12348 8.71294 7.18453 8.76356 7.23515C8.81418 7.28578 8.87524 7.32476 8.94246 7.34937L12.1712 8.53687C12.2662 8.57192 12.3481 8.63522 12.4059 8.71825C12.4638 8.80128 12.4948 8.90005 12.4948 9.00125C12.4948 9.10245 12.4638 9.20122 12.4059 9.28425C12.3481 9.36728 12.2662 9.43058 12.1712 9.46562L8.94246 10.6531C8.87524 10.6777 8.81418 10.7167 8.76356 10.7673C8.71294 10.818 8.67396 10.879 8.64934 10.9462L7.46184 14.175C7.4268 14.2699 7.36349 14.3519 7.28046 14.4097C7.19743 14.4676 7.09866 14.4986 6.99746 14.4986C6.89626 14.4986 6.79749 14.4676 6.71446 14.4097C6.63143 14.3519 6.56813 14.2699 6.53309 14.175L5.34559 10.9462C5.32097 10.879 5.28199 10.818 5.23137 10.7673C5.18075 10.7167 5.11969 10.6777 5.05246 10.6531Z"
              stroke="#DA802D" stroke-linecap="round" stroke-linejoin="round"/>
        <path d="M11 1V4" stroke="#DA802D" stroke-linecap="round" stroke-linejoin="round"/>
        <path d="M14 4.5V6.5" stroke="#DA802D" stroke-linecap="round" stroke-linejoin="round"/>
        <path d="M9.5 2.5H12.5" stroke="#DA802D" stroke-linecap="round" stroke-linejoin="round"/>
        <path d="M13 5.5H15" stroke="#DA802D" stroke-linecap="round" stroke-linejoin="round"/>
    </g>
    <defs>
        <clipPath id="clip0_12281_67046">
            <rect width="16" height="16" fill="white"/>
        </clipPath>
    </defs>
</svg>
