<?xml version="1.0" encoding="UTF-8" standalone="no"?>
<!-- Created with Inkscape (http://www.inkscape.org/) -->

<svg
        width="4.7624998mm"
        height="5.2916679mm"
        viewBox="0 0 4.7624998 5.2916679"
        version="1.1"
        id="svg5"
        xml:space="preserve"
        xmlns="http://www.w3.org/2000/svg"
><defs
     id="defs2" /><g
     id="layer3"
     transform="translate(-212.19583,-91.810416)"><path
       id="path11054"
       style="display:inline;fill:#adadad;fill-opacity:1;stroke:none;stroke-width:0.635266;stroke-linecap:round;stroke-linejoin:round;stroke-dasharray:none;stroke-opacity:1"
       d="m 212.74154,92.941097 a 2.3812523,2.3812523 0 0 0 -0.54571,1.515153 2.3812523,2.3812523 0 0 0 0.54571,1.515153 l 0.34623,-0.415995 a 1.8520882,1.8520882 0 0 1 -0.36277,-1.099158 1.8520882,1.8520882 0 0 1 0.36277,-1.099158 z m 3.67109,0 -0.34623,0.415995 a 1.8520882,1.8520882 0 0 1 0.36277,1.099158 1.8520882,1.8520882 0 0 1 -0.36277,1.099158 l 0.34623,0.415995 a 2.3812523,2.3812523 0 0 0 0.5457,-1.515153 2.3812523,2.3812523 0 0 0 -0.5457,-1.515153 z" /><path
       id="path10872"
       style="display:inline;fill:#c79250;fill-opacity:1;stroke:none;stroke-width:0.907514;stroke-linecap:round;stroke-linejoin:round;stroke-dasharray:none;stroke-opacity:1"
       d="m 212.725,92.339583 0.79375,1.058334 v 2.116666 l -0.79375,1.058334 0.26459,0.529167 1.05833,-1.587501 v -2.116666 l -1.05833,-1.587501 z m 3.43958,-0.529167 -1.05833,1.587501 v 2.116666 l 1.05833,1.587501 0.26459,-0.529167 -0.79376,-1.058334 1e-5,-2.116666 0.79375,-1.058334 z" /></g></svg>
