<?xml version="1.0" encoding="UTF-8" standalone="no"?>
<!-- Created with Inkscape (http://www.inkscape.org/) -->

<svg
        width="4.7624969mm"
        height="5.2916641mm"
        viewBox="0 0 4.7624969 5.2916641"
        version="1.1"
        id="svg5"
        xml:space="preserve"
        inkscape:version="1.2 (dc2aedaf03, 2022-05-15)"
        sodipodi:docname="small-icons-demo.svg"
        xmlns:inkscape="http://www.inkscape.org/namespaces/inkscape"
        xmlns:sodipodi="http://sodipodi.sourceforge.net/DTD/sodipodi-0.dtd"
        xmlns="http://www.w3.org/2000/svg"
><sodipodi:namedview
     id="namedview7"
     pagecolor="#ffffff"
     bordercolor="#000000"
     borderopacity="0.25"
     inkscape:showpageshadow="2"
     inkscape:pageopacity="0.0"
     inkscape:pagecheckerboard="0"
     inkscape:deskcolor="#d1d1d1"
     inkscape:document-units="mm"
     showgrid="true"
     inkscape:zoom="5.6568542"
     inkscape:cx="782.50204"
     inkscape:cy="156.97771"
     inkscape:window-width="1920"
     inkscape:window-height="1009"
     inkscape:window-x="1912"
     inkscape:window-y="-8"
     inkscape:window-maximized="1"
     inkscape:current-layer="svg5"><inkscape:grid
       type="xygrid"
       id="grid5748"
       visible="false"
       snapvisiblegridlinesonly="false" /></sodipodi:namedview><defs
     id="defs2" /><g
     inkscape:label="Layer 1"
     inkscape:groupmode="layer"
     id="layer1"
     sodipodi:insensitive="true"
     transform="translate(-212.19584,-91.810415)"></g><path
     id="path2004"
     style="fill:#ed4646;stroke-width:0;stroke-linecap:round;stroke-linejoin:round"
     d="m 3.0421949,-64.520608 v 0.541569 a 1.5874816,1.5874816 0 0 1 1.1405,1.139982 h 0.54157 a 2.1166666,2.1166666 0 0 0 -1.68207,-1.681551 z m -0.79272,10e-4 A 2.1166666,2.1166666 0 0 0 0.56844487,-62.83909 H 1.1100149 a 1.5874816,1.5874816 0 0 1 1.13946,-1.138949 z m 0.39636,1.548743 a 0.52917224,0.52917224 0 0 0 -0.52917,0.529167 0.52917224,0.52917224 0 0 0 0.52917,0.529166 0.52917224,0.52917224 0 0 0 0.52917,-0.529166 0.52917224,0.52917224 0 0 0 -0.52917,-0.529167 z m -2.07739003,0.926559 a 2.1166666,2.1166666 0 0 0 1.68103003,1.680517 v -0.541569 a 1.5874816,1.5874816 0 0 1 -1.13946,-1.138948 z m 3.61425003,0 a 1.5874816,1.5874816 0 0 1 -1.1405,1.139982 v 0.540535 a 2.1166666,2.1166666 0 0 0 1.68103,-1.680517 z"
     inkscape:label="hotspot" /><path
     id="circle6971"
     style="fill:#ed4646;stroke-width:0;stroke-linecap:round;stroke-linejoin:round"
     d="m 2.6644349,-47.792945 c -0.2481,0.0033 -0.50155,0.183261 -0.50903,0.459386 l 0.22583,2.618961 c 1.5e-4,0.270688 -0.006,0.283543 0.2646,0.283691 0.27069,-1.48e-4 0.26443,-0.01301 0.26459,-0.283684 l 0.22582,-2.618968 c -0.0378,-0.327645 -0.25288,-0.462299 -0.47196,-0.459237 z m -1.14774,0.760677 a 2.1166646,2.1166646 0 0 0 -0.36738,0.292007 2.1166646,2.1166646 0 0 0 0,2.993098 2.1166646,2.1166646 0 0 0 0.36738,0.292007 l 10e-6,-0.673342 a 1.5875021,1.5875021 0 0 1 0,-2.230356 z m 2.25826,0 v 0.672827 a 1.5875021,1.5875021 0 0 1 0,2.231388 v 0.672826 a 2.1166646,2.1166646 0 0 0 0.36739,-0.292006 2.1166646,2.1166646 0 0 0 0,-2.993098 2.1166646,2.1166646 0 0 0 -0.36739,-0.292007 z m -1.12913,3.111433 a 0.52916867,0.52916867 0 0 0 -0.52917,0.52917 0.52916867,0.52916867 0 0 0 0.52917,0.529171 0.52916867,0.52916867 0 0 0 0.52917,-0.529171 0.52916867,0.52916867 0 0 0 -0.52917,-0.52917 z"
     inkscape:label="errors"
     inkscape:export-filename="..\NewSmallIcons\errors.svg"
     inkscape:export-xdpi="96"
     inkscape:export-ydpi="96" /><g
     inkscape:groupmode="layer"
     id="layer3"
     inkscape:label="bottleneck"
     inkscape:highlight-color="#c721f3"
     inkscape:export-filename="..\NewSmallIcons\bottleneck.svg"
     inkscape:export-xdpi="96"
     inkscape:export-ydpi="96"
     transform="translate(-212.19584,-91.810415)"><path
       id="path11054"
       style="display:inline;fill:#adadad;fill-opacity:1;stroke:none;stroke-width:0.635266;stroke-linecap:round;stroke-linejoin:round;stroke-dasharray:none;stroke-opacity:1"
       d="m 212.74154,92.941097 a 2.3812523,2.3812523 0 0 0 -0.54571,1.515153 2.3812523,2.3812523 0 0 0 0.54571,1.515153 l 0.34623,-0.415995 a 1.8520882,1.8520882 0 0 1 -0.36277,-1.099158 1.8520882,1.8520882 0 0 1 0.36277,-1.099158 z m 3.67109,0 -0.34623,0.415995 a 1.8520882,1.8520882 0 0 1 0.36277,1.099158 1.8520882,1.8520882 0 0 1 -0.36277,1.099158 l 0.34623,0.415995 a 2.3812523,2.3812523 0 0 0 0.5457,-1.515153 2.3812523,2.3812523 0 0 0 -0.5457,-1.515153 z" /><path
       id="path10872"
       style="display:inline;fill:#c79250;fill-opacity:1;stroke:none;stroke-width:0.907514;stroke-linecap:round;stroke-linejoin:round;stroke-dasharray:none;stroke-opacity:1"
       d="m 212.725,92.339583 0.79375,1.058334 v 2.116666 l -0.79375,1.058334 0.26459,0.529167 1.05833,-1.587501 v -2.116666 l -1.05833,-1.587501 z m 3.43958,-0.529167 -1.05833,1.587501 v 2.116666 l 1.05833,1.587501 0.26459,-0.529167 -0.79376,-1.058334 1e-5,-2.116666 0.79375,-1.058334 z"
       sodipodi:nodetypes="cccccccccccccccccc" /></g><g
     inkscape:groupmode="layer"
     id="layer4"
     inkscape:label="Traffic"
     inkscape:highlight-color="#a3c667"
     sodipodi:insensitive="true"
     transform="translate(-212.19584,-91.810415)"><circle
       style="fill:#5eeb9d;fill-opacity:1;stroke:none;stroke-width:0.571737;stroke-linecap:round;stroke-linejoin:round;stroke-dasharray:none;stroke-opacity:1"
       id="path12960"
       cx="214.57709"
       cy="117.73956"
       r="2.3812459" /><circle
       style="fill:#474a50;fill-opacity:1;stroke:none;stroke-width:0.444688;stroke-linecap:round;stroke-linejoin:round;stroke-dasharray:none;stroke-opacity:1"
       id="path12960-6"
       cx="214.57706"
       cy="117.73959"
       r="1.8520975" /><path
       id="path13006"
       style="fill:#474a50;fill-opacity:1;stroke:none;stroke-width:0.635265;stroke-linecap:round;stroke-linejoin:round;stroke-dasharray:none;stroke-opacity:1"
       d="m 214.04792,115.09375 -0.26459,1.32292 h 1.5875 l -0.26458,-1.32292 z m 0.52916,2.64583 -2.64583,1.5875 v 1.05834 h 5.29167 v -1.05834 z"
       sodipodi:nodetypes="ccccccccccc" /><path
       style="fill:#5eeb9d;fill-opacity:1;stroke:none;stroke-width:0.635265;stroke-linecap:round;stroke-linejoin:round;stroke-dasharray:none;stroke-opacity:1"
       d="m 214.57708,115.09375 c 0,0 -0.52916,2.38125 -0.52916,2.64583 0,0.26458 0.27971,0.52917 0.52916,0.52917 0.24945,0 0.52917,-0.26458 0.52917,-0.52917 0,-0.26459 -0.52917,-2.64583 -0.52917,-2.64583 z"
       id="path13008"
       sodipodi:nodetypes="czzzc" /></g><g
     inkscape:groupmode="layer"
     id="layer5"
     inkscape:label="Duration"
     sodipodi:insensitive="true"
     transform="translate(-212.19584,-91.810415)"><circle
       style="fill:#afb7bc;fill-opacity:1;stroke:none;stroke-width:0.635265;stroke-linecap:round;stroke-linejoin:round;stroke-dasharray:none;stroke-opacity:1"
       id="path14265"
       cx="214.57709"
       cy="158.75"
       r="2.1166666" /><circle
       style="fill:#474a50;fill-opacity:1;stroke:none;stroke-width:0.476448;stroke-linecap:round;stroke-linejoin:round;stroke-dasharray:none;stroke-opacity:1"
       id="path14265-1"
       cx="214.57707"
       cy="158.75"
       r="1.5874958" /><rect
       style="fill:#afb7bc;fill-opacity:1;stroke:none;stroke-width:0.635265;stroke-linecap:round;stroke-linejoin:round;stroke-dasharray:none;stroke-opacity:1"
       id="rect14371"
       width="1.0583333"
       height="0.52916563"
       x="214.04791"
       y="156.36874" /><path
       id="rect14373"
       style="fill:#afb7bc;stroke-width:0.463935;stroke-linecap:round;stroke-linejoin:round"
       d="m 213.51875,155.575 h 2.11667 v 0.26458 l -0.52917,0.26459 h -1.05833 l -0.52917,-0.26459 z"
       sodipodi:nodetypes="ccccccc" /><path
       style="fill:#afb7bc;fill-opacity:1;stroke:none;stroke-width:0.635265;stroke-linecap:round;stroke-linejoin:round;stroke-dasharray:none;stroke-opacity:1"
       d="m 216.42917,156.36875 -0.79376,0.79375 0.52917,0.52916 0.79375,-0.79374 z"
       id="path15123"
       sodipodi:nodetypes="ccccc" /><path
       style="fill:#afb7bc;fill-opacity:1;stroke:none;stroke-width:0.635265;stroke-linecap:round;stroke-linejoin:round;stroke-dasharray:none;stroke-opacity:1"
       d="m 212.725,156.36875 -0.52917,0.52917 0.79375,0.79374 0.52917,-0.52916 z"
       id="path15123-0"
       sodipodi:nodetypes="ccccc" /><path
       style="fill:#afb7bc;fill-opacity:1;stroke:none;stroke-width:0.635265;stroke-linecap:round;stroke-linejoin:round;stroke-dasharray:none;stroke-opacity:1"
       d="m 214.3125,157.95625 v 1.05833 h 1.32291 l -0.26458,-0.52916 -0.52917,-1e-5 v -0.79375 z"
       id="path15393"
       sodipodi:nodetypes="ccccccc" /></g><rect
     style="display:none;fill:#cdc780;fill-opacity:0.564356;stroke:none;stroke-width:0.311274;stroke-linecap:round;stroke-linejoin:round;stroke-dasharray:none;stroke-opacity:1"
     id="rect7037"
     width="5.2916651"
     height="5.2916651"
     x="-0.26459125"
     y="2.5942886e-06" /></svg>
