<svg xmlns="http://www.w3.org/2000/svg" xml:space="preserve" viewBox="0 0 4.762 5.292"><path d="M212.742 92.941a2.381 2.381 0 0 0-.546 1.515 2.381 2.381 0 0 0 .546 1.515l.346-.416a1.852 1.852 0 0 1-.363-1.099 1.852 1.852 0 0 1 .363-1.099zm3.67 0-.346.416a1.852 1.852 0 0 1 .363 1.1 1.852 1.852 0 0 1-.363 1.098l.347.416a2.381 2.381 0 0 0 .545-1.515 2.381 2.381 0 0 0-.545-1.515z" style="display:inline;fill:#adadad;fill-opacity:1;stroke:none;stroke-width:.635266;stroke-linecap:round;stroke-linejoin:round;stroke-dasharray:none;stroke-opacity:1" transform="translate(-212.196 -91.81)"/>
    <path d="m212.725 92.34.794 1.058v2.117l-.794 1.058.265.53 1.058-1.588v-2.117l-1.058-1.588zm3.44-.53-1.059 1.588v2.117l1.059 1.587.264-.53-.794-1.057v-2.117l.794-1.058z"
          style="display:inline;fill:#c79250;fill-opacity:1;stroke:none;stroke-width:.907514;stroke-linecap:round;stroke-linejoin:round;stroke-dasharray:none;stroke-opacity:1"
          transform="translate(-212.196 -91.81)"/></svg>