<svg width="16" height="17" viewBox="0 0 16 17" fill="none" xmlns="http://www.w3.org/2000/svg">
<path d="M14.6299 8.37693C14.544 6.87357 11.1937 3.607 10.6503 3.09264C10.107 2.57828 9.1985 1.26714 8.93219 1.28539C8.65192 1.31116 9.09434 3.95277 9.1287 5.8427C9.16306 7.73263 8.74427 8.38552 8.5993 8.35008C8.45434 8.31465 7.96253 8.2427 7.96253 8.2427C7.96253 8.2427 7.46964 8.31357 7.32575 8.35008C7.18186 8.38659 6.75984 7.73371 6.79743 5.8427C6.83501 3.9517 7.27421 1.31116 6.99179 1.28539C6.72763 1.26499 5.8181 2.57398 5.27367 3.09264C4.72924 3.6113 1.38213 6.87035 1.29622 8.37693C1.22857 9.56887 1.68924 9.9125 2.70079 10.3914C3.71233 10.8703 4.02911 11.0142 3.95716 11.2763C3.88522 11.5383 3.2334 11.6467 3.19689 12.2889C3.16038 12.931 3.31501 13.9522 5.09005 14.7243C6.86508 15.4964 7.45246 15.7144 7.96253 15.7144C8.47259 15.7144 9.05998 15.4996 10.835 14.7243C12.61 13.949 12.6916 12.7034 12.6605 12.0623C12.6294 11.4212 12.0463 11.5383 11.9743 11.2763C11.9024 11.0142 12.2181 10.8703 13.2296 10.3914C14.2412 9.9125 14.6976 9.56887 14.6299 8.37693Z" fill="#4F5DA3"/>
<path d="M12.5778 12.0813C12.5424 11.4671 11.969 11.5798 11.897 11.3296C11.8964 11.3239 11.8964 11.3181 11.897 11.3124L10.6771 10.9903L8.39273 10.6973C8.39273 10.6973 7.83712 11.0533 8.00229 11.0644C8.28752 11.0835 8.30659 11.4022 8.49576 11.591C8.68493 11.7797 9.50775 12.8544 10.603 12.8179C11.6983 12.7814 12.0312 11.9836 12.391 12.4475C12.5907 12.7052 12.0688 13.8982 11.0927 14.1989C10.1166 14.4995 9.33808 14.8131 8.83124 14.9506C8.26168 15.0921 7.66891 15.1137 7.09057 15.0139C6.52144 14.9065 4.44681 14.3106 4.40601 14.2977C4.62084 14.4296 4.84643 14.5431 5.08037 14.637C6.84037 15.3769 7.41916 15.5852 7.92922 15.5852C8.43929 15.5852 9.01486 15.3779 10.7727 14.6338C12.5306 13.8896 12.6132 12.6934 12.5778 12.0813Z" fill="#353F6E"/>
<path d="M4.21271 11.8046C4.21271 11.8046 4.62183 12.7968 6.59982 12.6271C6.84683 12.606 6.88518 12.3476 6.95192 12.168C7.05989 11.8775 7.25103 11.7851 7.43592 11.5919C7.61544 11.4042 7.74264 11.1025 8.0005 11.0598C8.35373 11.0014 8.38006 10.5356 8.37056 10.21C8.34156 9.21668 7.05619 8.36621 7.05619 8.36621L4.21271 11.8046Z" fill="#353F6E"/>
<path d="M7.89702 11.3455C7.89702 11.3057 7.85299 11.2907 7.83474 11.324C7.76816 11.4389 7.70695 11.7009 7.58346 11.8104C7.42239 11.9511 7.22588 12.1261 7.29568 12.3097C7.36548 12.4934 7.56413 12.3656 7.72521 12.2389C7.79179 12.1841 7.83259 12.153 7.86051 12.1315C7.87394 12.1212 7.88474 12.1078 7.89202 12.0925C7.8993 12.0772 7.90285 12.0604 7.90239 12.0434L7.89702 11.3455Z" fill="#353F6E"/>
<path d="M8.03233 11.3203C8.03233 11.2806 8.07528 11.2655 8.09461 11.2988C8.16119 11.4137 8.22239 11.6768 8.34588 11.7853C8.50588 11.9259 8.70239 12.101 8.63367 12.2846C8.56494 12.4682 8.36521 12.3415 8.20414 12.2148C8.13756 12.16 8.09676 12.1278 8.06884 12.1074C8.0554 12.0971 8.0446 12.0837 8.03733 12.0684C8.03005 12.0531 8.02649 12.0363 8.02696 12.0194L8.03233 11.3203Z" fill="#353F6E"/>
<path d="M10.137 13.1233C10.1303 13.3393 10.1084 13.5546 10.0715 13.7676C10.2627 13.7246 10.6009 13.5206 10.6954 13.2683C10.5199 13.1856 10.3306 13.1365 10.137 13.1233Z" fill="#F3F3F3"/>
<path d="M11.9754 13.295C11.6801 13.5388 11.1958 13.4464 10.6793 13.309C10.6113 13.2449 10.527 13.2011 10.4355 13.1822C10.3362 13.1579 10.2335 13.1499 10.1316 13.1586C10.0437 13.1481 9.9572 13.1276 9.87392 13.0974C9.24465 12.7516 8.1719 12.7538 8.1719 12.7538C8.1719 12.7538 7.2409 12.7538 6.50211 13.1006C5.79338 13.4357 4.82694 13.6601 4.37379 13.295C4.22997 13.1636 4.11954 12.9998 4.05164 12.8171C4.02372 12.7473 4.11177 12.6947 4.15043 12.757C4.30721 13.0094 4.53379 13.1157 4.8409 13.1704C5.68063 13.3197 6.70613 12.6271 8.16976 12.6271C9.63338 12.6271 10.7394 13.0749 11.4986 13.1704C11.8089 13.2102 12.0355 13.0094 12.1891 12.757C12.2277 12.6947 12.3158 12.7473 12.2879 12.8171C12.2235 12.9992 12.1164 13.1631 11.9754 13.295Z" fill="#353F6E"/>
<path d="M7.51155 13.4776C7.40417 13.4013 7.61893 13.2306 8.11182 13.2306C8.56819 13.2306 8.74645 13.3788 8.72175 13.4454C8.67665 13.5624 8.32873 13.4196 8.09786 13.4196C7.86699 13.4196 7.61893 13.5527 7.51155 13.4776Z" fill="#353F6E"/>
<path d="M6.69651 1.62585C6.69651 1.62585 5.14912 3.65753 4.42537 4.38236C3.70161 5.10719 2.21222 7.00249 1.90725 7.52545C1.60228 8.0484 1.21463 9.27363 2.33678 9.97591C1.77624 8.61108 2.85114 8.21162 3.19584 8.27498C3.54054 8.33833 3.50939 9.57216 3.50939 9.57216L4.06564 10.3002L6.1059 10.1585L7.23986 8.50585L6.82536 8.11927C6.40192 7.79098 5.89631 7.58554 5.36389 7.52545C4.48121 7.43095 4.15262 7.45994 4.15262 7.45994C4.15262 7.45994 4.27825 6.63739 5.20282 6.78021C4.93436 6.38075 4.83879 4.28035 6.69651 1.62585Z" fill="#353F6E"/>
<path d="M9.61405 3.05933C9.61405 3.05933 9.84063 4.61852 9.85244 5.54953C9.86425 6.48053 10.079 7.92375 9.67418 8.30496C9.26935 8.68617 9.92009 8.84187 9.92009 8.84187L12.4178 10.3893C12.4178 10.3893 13.0438 10.2819 13.3424 10.0832C13.6409 9.88455 14.1241 9.55274 14.2132 9.15221C13.8084 9.56455 13.4616 9.87489 13.1813 9.53449C12.901 9.19408 13.0954 7.57154 12.0602 6.77798C12.2331 7.14201 12.0183 7.74442 11.6124 7.67355C11.2065 7.60268 10.5687 6.64053 10.4108 5.8212C10.253 5.00187 9.61405 3.05933 9.61405 3.05933Z" fill="#353F6E"/>
<path d="M3.33437 8.95895L2.26055 8.01076C2.16733 7.92714 2.11113 7.80994 2.10428 7.6849C2.09744 7.55986 2.14051 7.43722 2.22404 7.34392C2.26557 7.29741 2.31587 7.25957 2.37206 7.23255C2.42825 7.20554 2.48923 7.18988 2.55149 7.18649C2.61374 7.1831 2.67606 7.19204 2.73485 7.21279C2.79365 7.23354 2.84776 7.26569 2.8941 7.30741L3.95182 8.24164C3.68912 8.4252 3.4768 8.67186 3.33437 8.95895Z" fill="#F3F3F3"/>
<path d="M7.78317 10.1602V10.1687C7.78317 10.7766 7.54221 11.3597 7.11308 11.7903C6.68395 12.2208 6.10165 12.4637 5.49377 12.4657C6.10244 12.4614 6.68472 12.2166 7.11361 11.7847C7.5425 11.3528 7.78318 10.7688 7.78317 10.1602Z" fill="#A5AFD4"/>
<path d="M3.18939 10.1345C3.18939 10.0808 3.18939 10.0271 3.19691 9.97559C3.19369 10.0282 3.18939 10.0808 3.18939 10.1345Z" fill="#A5AFD4"/>
<path d="M5.48628 12.4661C4.877 12.4661 4.29266 12.2241 3.86174 11.7934C3.43081 11.3627 3.18858 10.7784 3.1883 10.1692V10.1573C3.18744 10.7681 3.42893 11.3542 3.85976 11.787C4.2906 12.2199 4.87557 12.4641 5.48628 12.4661Z" fill="#A5AFD4"/>
<path d="M3.18937 10.1347C3.18937 10.081 3.18937 10.0273 3.19689 9.9758C3.22331 9.6348 3.32493 9.30388 3.49445 9.00682C3.66396 8.70975 3.89716 8.45392 4.17729 8.25768C4.56018 7.98695 5.01734 7.84106 5.48628 7.83997C6.09755 7.84224 6.6829 8.08718 7.11362 8.52092C7.54435 8.95467 7.78519 9.54171 7.78319 10.153V10.1605C7.78321 10.7692 7.54252 11.3532 7.11363 11.7851C6.68474 12.217 6.10246 12.4617 5.4938 12.466H5.48628C4.87557 12.464 4.2906 12.2198 3.85976 11.7869C3.42893 11.3541 3.18744 10.768 3.1883 10.1573C3.1883 10.1465 3.18937 10.1412 3.18937 10.1347Z" fill="#F3F3F3"/>
<path d="M5.4949 12.0688C6.53157 12.0688 7.37195 11.2284 7.37195 10.1917C7.37195 9.15508 6.53157 8.3147 5.4949 8.3147C4.45824 8.3147 3.61786 9.15508 3.61786 10.1917C3.61786 11.2284 4.45824 12.0688 5.4949 12.0688Z" fill="#353F6E"/>
<path d="M3.79712 8.93558L7.37188 9.39411L7.00893 8.93558C7.00893 8.93558 6.49779 8.45773 6.4645 8.44592C6.43121 8.43411 5.94155 8.18391 5.71926 8.18391C5.49698 8.18391 4.97403 7.99491 4.75282 8.10659C4.53161 8.21827 3.79819 8.8733 3.79819 8.8733L3.79712 8.93558Z" fill="#F3F3F3"/>
<path d="M5.96628 10.5096L7.54588 9.92007L7.01326 8.98047L4.56494 10.6095L6.76736 9.7955L5.96628 10.5096Z" fill="#F3F3F3"/>
<path d="M3.44276 8.84542C3.44276 8.84542 2.45699 7.9563 2.42692 7.92408C2.39616 7.87654 2.37847 7.82172 2.37565 7.76517C2.37282 7.70861 2.38495 7.65231 2.41081 7.60193C2.47417 7.51281 2.4237 7.66636 2.46987 7.7716C2.51605 7.87683 3.68007 8.52327 3.68007 8.52327L3.44276 8.84542Z" fill="#353F6E"/>
<path d="M12.595 8.93534L13.6431 8.01078C13.7342 7.92902 13.7891 7.81444 13.7957 7.69221C13.8024 7.56999 13.7602 7.45012 13.6785 7.35897C13.5968 7.2682 13.4824 7.2135 13.3605 7.20686C13.2385 7.20022 13.1189 7.24217 13.0278 7.32353L11.9948 8.23521C12.2503 8.4147 12.4566 8.65543 12.595 8.93534Z" fill="#F3F3F3"/>
<path d="M8.19556 10.1602V10.1687C8.19555 10.7766 8.43652 11.3597 8.86565 11.7903C9.29478 12.2208 9.87708 12.4637 10.485 12.4657C9.87629 12.4614 9.29401 12.2166 8.86512 11.7847C8.43623 11.3528 8.19554 10.7688 8.19556 10.1602Z" fill="#A5AFD4"/>
<path d="M12.7894 10.1345C12.7894 10.0808 12.7894 10.0271 12.7819 9.97559C12.7862 10.0282 12.7894 10.0808 12.7894 10.1345Z" fill="#A5AFD4"/>
<path d="M10.4935 12.4661C10.7952 12.4661 11.0938 12.4067 11.3725 12.2912C11.6512 12.1758 11.9044 12.0066 12.1177 11.7933C12.331 11.58 12.5002 11.3268 12.6156 11.0482C12.731 10.7695 12.7904 10.4708 12.7904 10.1692V10.1573C12.7916 10.768 12.5503 11.3541 12.1197 11.7869C11.689 12.2198 11.1041 12.4641 10.4935 12.4661Z" fill="#A5AFD4"/>
<path d="M12.7894 10.1352C12.7894 10.0815 12.7894 10.0278 12.7819 9.97627C12.7554 9.63527 12.6538 9.30435 12.4843 9.00728C12.3148 8.71022 12.0816 8.45438 11.8015 8.25815C11.4185 7.98896 10.9617 7.84458 10.4936 7.84473C10.1908 7.84571 9.89119 7.90632 9.61185 8.0231C9.33251 8.13987 9.0789 8.31052 8.86552 8.5253C8.65213 8.74009 8.48314 8.9948 8.36819 9.27489C8.25324 9.55499 8.19458 9.85498 8.19557 10.1577V10.1653C8.19555 10.7739 8.43624 11.3579 8.86513 11.7898C9.29402 12.2217 9.8763 12.4665 10.485 12.4708H10.4936C11.1042 12.4688 11.689 12.2245 12.1197 11.7916C12.5504 11.3588 12.7916 10.7727 12.7905 10.162C12.7905 10.147 12.7894 10.1416 12.7894 10.1352Z" fill="#F3F3F3"/>
<path d="M10.4742 12.0688C11.5109 12.0688 12.3513 11.2284 12.3513 10.1917C12.3513 9.15508 11.5109 8.3147 10.4742 8.3147C9.43755 8.3147 8.59717 9.15508 8.59717 10.1917C8.59717 11.2284 9.43755 12.0688 10.4742 12.0688Z" fill="#353F6E"/>
<path d="M12.0474 8.93558L8.52521 9.45854L8.73997 8.98498C8.73997 8.98498 9.34668 8.45773 9.38427 8.44807C9.42185 8.4384 9.90293 8.18391 10.1252 8.18391C10.3475 8.18391 10.8704 7.99491 11.0916 8.10659C11.3129 8.21827 12.0463 8.8733 12.0463 8.8733L12.0474 8.93558Z" fill="#F3F3F3"/>
<path d="M10.9413 10.3749L12.5209 9.7854L11.9883 8.84473L9.54102 10.4748L11.7424 9.65976L10.9413 10.3749Z" fill="#F3F3F3"/>
<path d="M12.5585 8.89424C12.5585 8.89424 13.5443 8.00511 13.5743 7.9729C13.6051 7.92535 13.6228 7.87054 13.6256 7.81399C13.6284 7.75743 13.6163 7.70113 13.5904 7.65075C13.5271 7.56162 13.5775 7.71518 13.5303 7.82149C13.483 7.9278 12.3212 8.57317 12.3212 8.57317L12.5585 8.89424Z" fill="#353F6E"/>
</svg>
