<svg width="74" height="77" viewBox="0 0 74 77" fill="none" xmlns="http://www.w3.org/2000/svg">
    <path d="M70.9667 37.8741C70.5288 30.2142 53.4596 13.5714 50.6911 10.9515C47.9226 8.33031 43.2936 1.64991 41.9375 1.74338C40.5085 1.874 42.7635 15.3334 42.9376 24.9615C43.113 34.5909 40.9797 37.9177 40.2408 37.7371C39.502 37.5566 36.996 37.1904 36.996 37.1904C36.996 37.1904 34.4849 37.5515 33.7525 37.7371C33.0188 37.9228 30.8688 34.596 31.0609 24.9615C31.2517 15.3283 33.49 1.874 32.0507 1.74338C30.7049 1.63966 26.0707 8.30854 23.2971 10.9515C20.5235 13.5932 3.47097 30.1975 3.03303 37.8741C2.68857 43.9463 5.03575 45.6968 10.1885 48.1374C15.3426 50.5768 16.956 51.3105 16.5898 52.6448C16.2236 53.9804 12.9019 54.5322 12.7163 57.8039C12.5306 61.0756 13.3181 66.2783 22.3623 70.212C31.4053 74.1458 34.3979 75.2572 36.996 75.2572C39.5955 75.2572 42.588 74.1624 51.631 70.212C60.6752 66.263 61.0914 59.9155 60.9326 56.6502C60.7738 53.3836 57.8031 53.9804 57.4368 52.6448C57.0693 51.3105 58.6776 50.5768 63.8317 48.1374C68.9858 45.6968 71.3112 43.9463 70.9667 37.8741Z"
          fill="#6271B6"/>
    <path d="M60.5116 56.749C60.3311 53.6195 57.4089 54.1931 57.0427 52.919C57.0389 52.8896 57.0389 52.8601 57.0427 52.8319L50.8271 51.1903L39.1885 49.6973C39.1885 49.6973 36.3586 51.5117 37.1999 51.5681C38.6533 51.6654 38.7506 53.2891 39.7136 54.2507C40.6778 55.2124 44.8702 60.6879 50.4506 60.5022C56.0311 60.3152 57.7265 56.2509 59.5589 58.6147C60.5769 59.9272 57.9186 66.0058 52.9451 67.5373C47.9716 69.0688 44.0058 70.6668 41.423 71.3673C38.5214 72.0882 35.5007 72.1983 32.5542 71.69C29.6551 71.1432 19.0845 68.1058 18.8771 68.0405C19.9719 68.7128 21.1205 69.2916 22.3127 69.7692C31.2801 73.539 34.2291 74.6005 36.8273 74.6005C39.4267 74.6005 42.3591 73.5441 51.315 69.7526C60.2709 65.9623 60.6922 59.867 60.5116 56.749Z"
          fill="#353F6E"/>
    <path d="M17.8923 55.3367C17.8923 55.3367 19.977 60.3921 30.0546 59.5278C31.3121 59.4202 31.508 58.1038 31.8486 57.1896C32.398 55.7093 33.3724 55.2381 34.3136 54.2534C35.2292 53.2968 35.8771 51.7602 37.1909 51.5425C38.99 51.2454 39.1245 48.8727 39.0758 47.2131C38.9286 42.1526 32.38 37.8193 32.38 37.8193L17.8923 55.3367Z"
          fill="#353F6E"/>
    <path d="M36.6633 52.9949C36.6633 52.7926 36.4393 52.7158 36.3458 52.8848C36.0064 53.47 35.6953 54.8055 35.0653 55.3638C34.2457 56.0796 33.2444 56.9722 33.5991 57.9069C33.9551 58.843 34.9679 58.1925 35.7875 57.5471C36.1268 57.268 36.3355 57.1092 36.4777 56.9991C36.5455 56.9465 36.6006 56.8787 36.6377 56.8006C36.6749 56.7225 36.6928 56.6367 36.6902 56.5509L36.6633 52.9949Z"
          fill="#353F6E"/>
    <path d="M37.3523 52.8686C37.3523 52.6663 37.5712 52.5895 37.6698 52.7598C38.0092 53.345 38.3203 54.6857 38.9503 55.2376C39.7648 55.9546 40.7661 56.8459 40.4165 57.7819C40.0657 58.7167 39.0489 58.0713 38.2281 57.4259C37.8888 57.1468 37.6814 56.9829 37.5392 56.8792C37.4701 56.8267 37.415 56.7588 37.3779 56.6807C37.3407 56.6026 37.3228 56.5168 37.3254 56.431L37.3523 52.8686Z"
          fill="#353F6E"/>
    <path d="M48.4697 62.2314C48.4697 62.2314 48.4697 65.7925 48.2456 66.3777C49.2188 66.1588 51.3419 64.4032 51.8234 63.0958C50.8002 62.4991 48.4697 62.2314 48.4697 62.2314Z"
          fill="#4F5DA3"/>
    <path d="M48.0753 62.0557C48.0407 63.1569 47.9293 64.253 47.7423 65.3389C48.7155 65.1199 50.4391 64.0801 50.9206 62.7945C50.0268 62.3732 49.0613 62.1235 48.0753 62.0557Z"
          fill="#F3F3F3"/>
    <path d="M57.4422 62.9297C55.9376 64.1717 53.4701 63.7018 50.8386 63.0014C50.4929 62.6748 50.0626 62.452 49.5965 62.356C49.0907 62.2318 48.5683 62.1908 48.0484 62.2356C47.6002 62.1818 47.1597 62.0768 46.7358 61.9232C43.5294 60.1625 38.0642 60.1727 38.0642 60.1727C38.0642 60.1727 33.3212 60.1727 29.5565 61.9398C25.9455 63.6467 21.0219 64.7902 18.7131 62.9297C17.9807 62.2612 17.4173 61.4263 17.0715 60.4954C16.9294 60.1407 17.3776 59.8718 17.5748 60.1894C18.3738 61.475 19.5288 62.0167 21.0923 62.2958C25.3718 63.0564 30.5963 59.5273 38.0527 59.5273C45.5104 59.5273 51.1446 61.8092 55.0131 62.2958C56.5945 62.4981 57.7482 61.475 58.5306 60.1894C58.7278 59.8718 59.176 60.1407 59.0339 60.4954C58.7061 61.4238 58.1606 62.2587 57.4422 62.9297Z"
          fill="#353F6E"/>
    <path d="M34.699 63.8603C34.1522 63.4723 35.2458 62.6016 37.7569 62.6016C40.0823 62.6016 40.9915 63.3571 40.8647 63.6964C40.6355 64.2931 38.8632 63.5645 37.6865 63.5645C36.5097 63.5645 35.2458 64.2432 34.699 63.8603Z"
          fill="#353F6E"/>
    <path d="M30.5464 3.47754C30.5464 3.47754 22.6623 13.8292 18.9757 17.5221C15.2878 21.2151 7.69948 30.8714 6.14622 33.5361C4.59168 36.1996 2.61713 42.4421 8.33462 46.0198C5.47908 39.0666 10.9545 37.0319 12.7114 37.3546C14.467 37.6773 14.3082 43.9633 14.3082 43.9633L17.142 47.6729L27.5372 46.9507L33.3148 38.5301L31.2033 36.5607C29.0456 34.8884 26.4692 33.8422 23.7571 33.5361C19.2599 33.0547 17.5863 33.2019 17.5863 33.2019C17.5863 33.2019 18.2266 29.0108 22.9363 29.7382C21.5687 27.7034 21.0821 17.0022 30.5464 3.47754Z"
          fill="#353F6E"/>
    <path d="M45.4118 10.7812C45.4118 10.7812 46.5656 18.7242 46.6257 23.4685C46.6859 28.2115 47.7808 35.5642 45.7179 37.5067C43.6549 39.4492 46.9702 40.2419 46.9702 40.2419L59.6959 48.1259C59.6959 48.1259 62.8857 47.5792 64.4069 46.5663C65.9269 45.5547 68.3893 43.8644 68.8439 41.8233C66.781 43.9246 65.0139 45.5047 63.5861 43.7709C62.1583 42.0371 63.1482 33.7702 57.8737 29.7276C58.7547 31.5818 57.6612 34.6512 55.5932 34.2901C53.5251 33.929 50.2752 29.0272 49.471 24.8527C48.6669 20.6783 45.4118 10.7812 45.4118 10.7812Z"
          fill="#353F6E"/>
    <path d="M13.4169 40.8382L7.94531 36.0081C7.47152 35.5817 7.18469 34.985 7.15011 34.3473C7.11426 33.7109 7.33451 33.086 7.75964 32.6097C7.97092 32.3728 8.22831 32.1807 8.51386 32.0424C8.80069 31.9054 9.11058 31.826 9.42814 31.8081C9.74571 31.7914 10.0633 31.8362 10.3629 31.9425C10.6626 32.0475 10.9379 32.2114 11.1735 32.424L16.5632 37.1836C15.2237 38.1197 14.143 39.3759 13.4169 40.8382Z"
          fill="#F3F3F3"/>
    <path d="M36.0833 46.9609V47.0045C36.0833 50.102 34.8553 53.0728 32.6694 55.2663C30.4823 57.4598 27.5154 58.6968 24.4191 58.707C27.5205 58.6853 30.4862 57.4393 32.672 55.2381C34.8565 53.0382 36.0833 50.0623 36.0833 46.9609Z"
          fill="#CCCCCC"/>
    <path d="M12.6781 46.8291C12.6781 46.5551 12.6781 46.2811 12.7165 46.0186C12.6999 46.2875 12.6781 46.5551 12.6781 46.8291Z"
          fill="#CCCCCC"/>
    <path d="M24.3807 58.7061C21.2767 58.7061 18.2995 57.4742 16.1035 55.2795C13.9087 53.0847 12.6743 50.1088 12.673 47.0035V46.9434C12.6691 50.055 13.8984 53.0411 16.0945 55.2462C18.2893 57.4525 21.2691 58.6958 24.3807 58.7061Z"
          fill="#CCCCCC"/>
    <path d="M12.6781 46.8277C12.6781 46.555 12.6781 46.281 12.7165 46.0185C12.851 44.2808 13.3696 42.5957 14.2326 41.0821C15.097 39.5685 16.284 38.265 17.7118 37.2649C19.662 35.8858 21.9913 35.1418 24.3807 35.1367C27.4949 35.1482 30.4772 36.3967 32.672 38.6056C34.8668 40.8158 36.0935 43.807 36.0833 46.9212V46.9596C36.0833 50.061 34.8566 53.0356 32.672 55.2368C30.4875 57.4367 27.5205 58.6839 24.4191 58.7057H24.3807C21.2691 58.6955 18.2893 57.4508 16.0945 55.2458C13.8984 53.0408 12.6691 50.0546 12.673 46.943C12.673 46.8879 12.6781 46.861 12.6781 46.8277Z"
          fill="#F3F3F3"/>
    <path d="M24.4242 56.6823C29.7063 56.6823 33.9884 52.4016 33.9884 47.1195C33.9884 41.8374 29.7063 37.5566 24.4242 37.5566C19.1434 37.5566 14.8614 41.8374 14.8614 47.1195C14.8614 52.4016 19.1434 56.6823 24.4242 56.6823Z"
          fill="#353F6E"/>
    <path d="M15.7744 40.7182L33.9884 43.0551L32.1393 40.7182C32.1393 40.7182 29.5348 38.2839 29.3645 38.2237C29.1954 38.1635 26.701 36.8894 25.5677 36.8894C24.4358 36.8894 21.771 35.9265 20.6442 36.495C19.5173 37.0636 15.7808 40.4019 15.7808 40.4019L15.7744 40.7182Z"
          fill="#F3F3F3"/>
    <path d="M32.1598 40.9482L19.6864 49.2472L30.9075 45.1009L26.8265 48.7388L34.8745 45.7348L32.1598 40.9482Z"
          fill="#F3F3F3"/>
    <path d="M13.9688 40.2595C13.9688 40.2595 8.94667 35.7291 8.79429 35.5652C8.63679 35.3232 8.54715 35.044 8.53307 34.7559C8.5177 34.4678 8.58045 34.1797 8.71234 33.9236C9.03503 33.469 8.77765 34.2514 9.01326 34.7879C9.24759 35.3244 15.1789 38.6179 15.1789 38.6179L13.9688 40.2595Z"
          fill="#353F6E"/>
    <path d="M60.5987 40.7186L65.9384 36.0089C66.4019 35.5915 66.6824 35.0088 66.7157 34.3852C66.7502 33.7629 66.5351 33.1521 66.1189 32.6873C65.7028 32.225 65.1202 31.9459 64.4991 31.9126C63.8768 31.8793 63.2672 32.0931 62.8037 32.5067L57.5408 37.1524C58.8418 38.0667 59.8931 39.2934 60.5987 40.7186Z"
          fill="#F3F3F3"/>
    <path d="M38.1846 46.9609V47.0045C38.1846 50.102 39.4113 53.0728 41.5984 55.2663C43.7842 57.4598 46.7512 58.6968 49.8487 58.707C46.7473 58.6853 43.7804 57.4393 41.5959 55.2381C39.41 53.0382 38.1846 50.0623 38.1846 46.9609Z"
          fill="#CCCCCC"/>
    <path d="M61.5885 46.8291C61.5885 46.5551 61.5885 46.2811 61.5513 46.0186C61.5731 46.2875 61.5885 46.5551 61.5885 46.8291Z"
          fill="#CCCCCC"/>
    <path d="M49.8924 58.7061C52.995 58.7061 55.9722 57.473 58.167 55.2795C60.3618 53.0847 61.595 50.1075 61.595 47.0035V46.9434C61.6001 50.055 60.3708 53.0411 58.1773 55.2462C55.9825 57.4512 53.0027 58.6958 49.8924 58.7061Z"
          fill="#CCCCCC"/>
    <path d="M61.5885 46.8297C61.5885 46.5557 61.5885 46.2817 61.5514 46.0192C61.4156 44.2828 60.8983 42.5964 60.0353 41.0828C59.1709 39.5692 57.9826 38.2657 56.5561 37.2656C54.6046 35.8942 52.2766 35.1592 49.8923 35.1592C48.3493 35.1643 46.8229 35.4742 45.4003 36.0683C43.9764 36.6638 42.6843 37.5332 41.5972 38.6268C40.51 39.7216 39.6495 41.0188 39.063 42.4465C38.4778 43.873 38.1795 45.4019 38.1846 46.9437V46.9821C38.1846 50.0835 39.4101 53.0594 41.5959 55.2593C43.7804 57.4605 46.7474 58.7064 49.8488 58.7282H49.8923C53.0027 58.7179 55.9824 57.4746 58.1772 55.2682C60.3707 53.0632 61.6 50.0771 61.5949 46.9667C61.5949 46.8899 61.5885 46.8617 61.5885 46.8297Z"
          fill="#F3F3F3"/>
    <path d="M49.7937 56.6823C55.0758 56.6823 59.3566 52.4016 59.3566 47.1195C59.3566 41.8374 55.0758 37.5566 49.7937 37.5566C44.5116 37.5566 40.2309 41.8374 40.2309 47.1195C40.2309 52.4016 44.5116 56.6823 49.7937 56.6823Z"
          fill="#353F6E"/>
    <path d="M57.8084 40.7182L39.8633 43.3829L40.9582 40.9704C40.9582 40.9704 44.0493 38.2839 44.2401 38.2353C44.4322 38.1853 46.8831 36.8894 48.0151 36.8894C49.1483 36.8894 51.8131 35.9265 52.9399 36.495C54.0668 37.0636 57.8033 40.4019 57.8033 40.4019L57.8084 40.7182Z"
          fill="#F3F3F3"/>
    <path d="M57.5075 40.2578L45.0392 48.5632L56.2552 44.4105L52.1729 48.0548L60.2209 45.0507L57.5075 40.2578Z"
          fill="#F3F3F3"/>
    <path d="M60.413 40.5098C60.413 40.5098 65.4352 35.9794 65.5888 35.8155C65.745 35.5735 65.8347 35.2943 65.85 35.0062C65.8641 34.7181 65.8027 34.4312 65.6708 34.1739C65.3481 33.7206 65.6042 34.5029 65.3635 35.0446C65.1227 35.5863 59.2042 38.8733 59.2042 38.8733L60.413 40.5098Z"
          fill="#353F6E"/>
</svg>
