<?xml version="1.0" encoding="UTF-8" standalone="no"?>
<!-- Created with Inkscape (http://www.inkscape.org/) -->

<svg
        width="4.7624998mm"
        height="5.2916698mm"
        viewBox="0 0 4.7624998 5.2916698"
        version="1.1"
        id="svg5"
        xml:space="preserve"
        xmlns="http://www.w3.org/2000/svg"
><defs
     id="defs2" /><path
     id="path14265"
     style="fill:#9da3a8;fill-opacity:1;stroke-width:0.635265;stroke-linecap:round;stroke-linejoin:round"
     d="M 1.32292,0 V 0.26458 L 1.85209,0.52917 H 2.91042 L 3.43959,0.26458 V 0 Z M 0.52917,0.79375 0,1.32292 0.64389,1.96681 A 2.1166666,2.1166666 0 0 0 0.26459,3.175 2.1166666,2.1166666 0 0 0 2.38125,5.29167 2.1166666,2.1166666 0 0 0 4.49792,3.175 2.1166666,2.1166666 0 0 0 4.11861,1.96681 L 4.7625,1.32292 4.23334,0.79375 3.58945,1.43764 A 2.1166666,2.1166666 0 0 0 2.91042,1.12551 V 0.79375 H 1.85209 V 1.12706 A 2.1166666,2.1166666 0 0 0 1.17306,1.43764 Z M 2.38125,1.5875 A 1.5874958,1.5874958 0 0 1 3.96875,3.175 1.5874958,1.5874958 0 0 1 2.38125,4.7625 1.5874958,1.5874958 0 0 1 0.79375,3.175 1.5874958,1.5874958 0 0 1 2.38125,1.5875 Z M 2.64584,2.11667 2.11667,2.38125 V 3.43958 H 3.43959 L 3.175,2.91042 H 2.64584 Z" /></svg>
