<svg xmlns="http://www.w3.org/2000/svg" xml:space="preserve" viewBox="0 0 4.762 5.292"><path d="M1.323 0v.265l.53.264H2.91l.53-.264V0ZM.529.794 0 1.323l.644.644a2.117 2.117 0 0 0-.38 1.208 2.117 2.117 0 0 0 2.117 2.117 2.117 2.117 0 0 0 2.117-2.117 2.117 2.117 0 0 0-.38-1.208l.644-.644-.529-.53-.644.645a2.117 2.117 0 0 0-.679-.312V.794H1.852v.333a2.117 2.117 0 0 0-.679.31Zm1.852.793A1.587 1.587 0 0 1 3.97 3.175 1.587 1.587 0 0 1 2.38 4.763 1.587 1.587 0 0 1 .794 3.175 1.587 1.587 0 0 1 2.38 1.588Zm.265.53-.53.264V3.44H3.44l-.265-.53h-.53Z" style="fill:#9da3a8;fill-opacity:1;stroke-width:.635265;stroke-linecap:round;stroke-linejoin:round"/></svg>