<?xml version="1.0" encoding="UTF-8" standalone="no"?>
<!-- Created with Inkscape (http://www.inkscape.org/) -->

<svg
        width="4.2326813mm"
        height="4.9304962mm"
        viewBox="0 0 4.2326813 4.9304962"
        version="1.1"
        id="svg5"
        xml:space="preserve"
        inkscape:version="1.2 (dc2aedaf03, 2022-05-15)"
        sodipodi:docname="small-icons-demo.svg"
        xmlns:inkscape="http://www.inkscape.org/namespaces/inkscape"
        xmlns:sodipodi="http://sodipodi.sourceforge.net/DTD/sodipodi-0.dtd"
        xmlns="http://www.w3.org/2000/svg"
><sodipodi:namedview
     id="namedview7"
     pagecolor="#ffffff"
     bordercolor="#000000"
     borderopacity="0.25"
     inkscape:showpageshadow="2"
     inkscape:pageopacity="0.0"
     inkscape:pagecheckerboard="0"
     inkscape:deskcolor="#d1d1d1"
     inkscape:document-units="mm"
     showgrid="true"
     inkscape:zoom="5.6568542"
     inkscape:cx="782.50204"
     inkscape:cy="156.97771"
     inkscape:window-width="1920"
     inkscape:window-height="1009"
     inkscape:window-x="1912"
     inkscape:window-y="-8"
     inkscape:window-maximized="1"
     inkscape:current-layer="svg5"><inkscape:grid
       type="xygrid"
       id="grid5748"
       visible="false"
       snapvisiblegridlinesonly="false" /></sodipodi:namedview><defs
     id="defs2" /><path
     id="circle6971"
     style="fill:#ed4646;stroke-width:0;stroke-linecap:round;stroke-linejoin:round"
     d="M 2.1349396,4.5706692e-5 C 1.8868396,0.00334571 1.6333896,0.18330671 1.6259096,0.45943171 l 0.22583,2.61896099 c 1.5e-4,0.270688 -0.006,0.283543 0.2646,0.283691 0.27069,-1.48e-4 0.26443,-0.01301 0.26459,-0.283684 l 0.22582,-2.61896799 c -0.0378,-0.327645 -0.25288,-0.462299 -0.47196,-0.45923700331 z M 0.98719962,0.76072271 a 2.1166646,2.1166646 0 0 0 -0.36738,0.29200699 2.1166646,2.1166646 0 0 0 0,2.993098 2.1166646,2.1166646 0 0 0 0.36738,0.292007 l 10e-6,-0.673342 a 1.5875021,1.5875021 0 0 1 0,-2.230356 z m 2.25825998,0 V 1.4335497 a 1.5875021,1.5875021 0 0 1 0,2.231388 v 0.672826 a 2.1166646,2.1166646 0 0 0 0.36739,-0.292006 2.1166646,2.1166646 0 0 0 0,-2.993098 2.1166646,2.1166646 0 0 0 -0.36739,-0.29200699 z m -1.12913,3.11143299 a 0.52916867,0.52916867 0 0 0 -0.52917,0.52917 0.52916867,0.52916867 0 0 0 0.52917,0.529171 0.52916867,0.52916867 0 0 0 0.52917,-0.529171 0.52916867,0.52916867 0 0 0 -0.52917,-0.52917 z"
     inkscape:label="errors"
     inkscape:export-filename="..\NewSmallIcons\circle6971.png"
     inkscape:export-xdpi="96"
     inkscape:export-ydpi="96" /></svg>
