<svg xmlns="http://www.w3.org/2000/svg" xml:space="preserve" viewBox="0 0 4.233 4.93"><path d="M2.135 0c-.248.003-.502.183-.51.46l.227 2.618c0 .271-.006.284.264.284.271 0 .265-.013.265-.284L2.607.46C2.569.132 2.354-.003 2.135 0ZM.987.76a2.117 2.117 0 0 0-.367.293 2.117 2.117 0 0 0 0 2.993 2.117 2.117 0 0 0 .367.292v-.674a1.588 1.588 45 0 1 0-2.23zm2.258 0v.674a1.588 1.588 45 0 1 0 2.23v.674a2.117 2.117 0 0 0 .368-.292 2.117 2.117 0 0 0 0-2.993A2.117 2.117 0 0 0 3.245.76ZM2.116 3.873a.53.53 0 0 0-.529.53.53.53 0 0 0 .53.528.53.53 0 0 0 .529-.529.53.53 0 0 0-.53-.529Z" style="fill:#ed4646;stroke-width:0;stroke-linecap:round;stroke-linejoin:round"/></svg>