<?xml version="1.0" encoding="UTF-8" standalone="no"?>
<!-- Created with Inkscape (http://www.inkscape.org/) -->

<svg
        width="4.2326941mm"
        height="4.9304962mm"
        viewBox="0 0 4.2326941 4.9304962"
        version="1.1"
        id="svg5"
        xml:space="preserve"
        xmlns="http://www.w3.org/2000/svg"
><defs
     id="defs2" /><path
     id="circle6971"
     style="fill:#ed4646;stroke-width:0;stroke-linecap:round;stroke-linejoin:round"
     d="M 2.134951,4.5762956e-5 C 1.8868555,0.00332674 1.6334072,0.18330663 1.625926,0.45943183 L 1.8517547,3.0783927 c 1.485e-4,0.2706876 -0.00602,0.2835428 0.2645994,0.2836912 0.2706875,-1.484e-4 0.2644296,-0.013011 0.2645922,-0.2836841 L 2.606768,0.45943183 C 2.5689943,0.13178683 2.3538854,-0.00286752 2.1348025,1.9425538e-4 Z M 0.98721766,0.76072295 a 2.1166646,2.1166646 0 0 0 -0.3673844,0.29200685 2.1166646,2.1166646 0 0 0 0,2.9930981 2.1166646,2.1166646 0 0 0 0.3673844,0.2920068 l 7.07e-6,-0.6733424 a 1.5875021,1.5875021 45 0 1 0,-2.2303562 z m 2.25825864,0 V 1.4335492 a 1.5875021,1.5875021 45 0 1 0,2.2313886 V 4.337764 a 2.1166646,2.1166646 0 0 0 0.3673844,-0.2920068 2.1166646,2.1166646 0 0 0 0,-2.9930981 A 2.1166646,2.1166646 0 0 0 3.2454763,0.76065224 Z M 2.116347,3.8721554 A 0.52916867,0.52916867 0 0 0 1.5871766,4.4013259 0.52916867,0.52916867 0 0 0 2.116347,4.9304963 0.52916867,0.52916867 0 0 0 2.6455174,4.4013259 0.52916867,0.52916867 0 0 0 2.116347,3.8721554 Z" /></svg>
