<svg width="72" height="72" viewBox="0 0 72 72" fill="none" xmlns="http://www.w3.org/2000/svg">
<circle cx="36" cy="36" r="36" fill="#323334"/>
<g filter="url(#filter0_d_1903_12508)">
<path d="M52.3603 59.4174H19.6398C18.5302 59.4161 17.4664 58.9737 16.6818 58.1873C15.8972 57.4008 15.4558 56.3345 15.4546 55.2223V16.7034C15.4558 15.5912 15.8972 14.5249 16.6818 13.7384C17.4664 12.9519 18.5302 12.5096 19.6398 12.5083H50.0809L56.5455 17.6732V55.2223C56.5442 56.3345 56.1029 57.4008 55.3183 58.1873C54.5337 58.9737 53.4699 59.4161 52.3603 59.4174Z" fill="#83858E"/>
</g>
<path d="M19.6395 13.7158C18.8494 13.7167 18.0918 14.0317 17.5331 14.5918C16.9744 15.1519 16.6601 15.9112 16.6592 16.7033V55.2221C16.6601 56.0142 16.9744 56.7735 17.5331 57.3336C18.0918 57.8936 18.8494 58.2087 19.6395 58.2095H52.3601C53.1503 58.2087 53.9078 57.8936 54.4665 57.3336C55.0253 56.7735 55.3396 56.0142 55.3404 55.2221V18.2549L49.6592 13.7158H19.6395Z" fill="#83858E"/>
<path d="M56.2821 17.6388H51.2181C50.8484 17.6388 50.4939 17.4916 50.2325 17.2296C49.9711 16.9676 49.8242 16.6122 49.8242 16.2416V12.4926C49.8242 12.4762 49.8288 12.4601 49.8375 12.4462C49.8462 12.4323 49.8587 12.4211 49.8734 12.414C49.8882 12.4068 49.9046 12.404 49.9209 12.4058C49.9372 12.4076 49.9526 12.414 49.9654 12.4241L56.3362 17.4831C56.3503 17.4943 56.3607 17.5097 56.3657 17.5271C56.3708 17.5445 56.3703 17.5631 56.3643 17.5802C56.3584 17.5973 56.3473 17.6122 56.3325 17.6227C56.3178 17.6332 56.3001 17.6388 56.2821 17.6388Z" fill="#65666B"/>
<path d="M45.996 24.7893H31.0988C30.914 24.7893 30.7367 24.7157 30.606 24.5847C30.4753 24.4537 30.4019 24.276 30.4019 24.0907C30.4019 23.9054 30.4753 23.7277 30.606 23.5967C30.7367 23.4657 30.914 23.3921 31.0988 23.3921H45.996C46.1808 23.3921 46.3581 23.4657 46.4888 23.5967C46.6195 23.7277 46.6929 23.9054 46.6929 24.0907C46.6929 24.276 46.6195 24.4537 46.4888 24.5847C46.3581 24.7157 46.1808 24.7893 45.996 24.7893Z" fill="#49494D"/>
<path d="M48.8709 27.1472H31.0988C30.9142 27.1469 30.7371 27.0732 30.6066 26.9423C30.4761 26.8113 30.4028 26.6337 30.4028 26.4486C30.4028 26.2635 30.4761 26.0859 30.6066 25.9549C30.7371 25.824 30.9142 25.7503 31.0988 25.75H48.8709C48.9625 25.7499 49.0533 25.7679 49.1379 25.8029C49.2226 25.838 49.2995 25.8894 49.3644 25.9543C49.4292 26.0192 49.4806 26.0962 49.5157 26.181C49.5508 26.2659 49.5688 26.3568 49.5688 26.4486C49.5688 26.5404 49.5508 26.6313 49.5157 26.7162C49.4806 26.801 49.4292 26.878 49.3644 26.9429C49.2995 27.0078 49.2226 27.0592 49.1379 27.0943C49.0533 27.1293 48.9625 27.1473 48.8709 27.1472Z" fill="#49494D"/>
<path d="M45.9965 33.958H31.0997C30.9149 33.958 30.7376 34.0316 30.6069 34.1626C30.4763 34.2936 30.4028 34.4713 30.4028 34.6566C30.4028 34.8418 30.4763 35.0195 30.6069 35.1505C30.7376 35.2815 30.9149 35.3551 31.0997 35.3551H45.9965C46.1813 35.3551 46.3585 35.2815 46.4892 35.1505C46.6199 35.0195 46.6934 34.8418 46.6934 34.6566C46.6934 34.4713 46.6199 34.2936 46.4892 34.1626C46.3585 34.0316 46.1813 33.958 45.9965 33.958Z" fill="#49494D"/>
<path d="M48.8715 36.3159H31.0997C30.9149 36.3159 30.7376 36.3895 30.6069 36.5205C30.4763 36.6515 30.4028 36.8292 30.4028 37.0145C30.4028 37.1997 30.4763 37.3774 30.6069 37.5084C30.7376 37.6394 30.9149 37.713 31.0997 37.713H48.8715C49.0564 37.713 49.2336 37.6394 49.3643 37.5084C49.495 37.3774 49.5684 37.1997 49.5684 37.0145C49.5684 36.8292 49.495 36.6515 49.3643 36.5205C49.2336 36.3895 49.0564 36.3159 48.8715 36.3159Z" fill="#49494D"/>
<path d="M45.996 45.9216H31.0988C30.914 45.9216 30.7367 45.848 30.606 45.717C30.4753 45.586 30.4019 45.4083 30.4019 45.223C30.4019 45.0377 30.4753 44.86 30.606 44.729C30.7367 44.598 30.914 44.5244 31.0988 44.5244H45.996C46.1808 44.5244 46.3581 44.598 46.4888 44.729C46.6195 44.86 46.6929 45.0377 46.6929 45.223C46.6929 45.4083 46.6195 45.586 46.4888 45.717C46.3581 45.848 46.1808 45.9216 45.996 45.9216Z" fill="#49494D"/>
<path d="M48.8709 48.2795H31.0988C30.9142 48.2793 30.7371 48.2056 30.6066 48.0746C30.4761 47.9436 30.4028 47.766 30.4028 47.5809C30.4028 47.3958 30.4761 47.2183 30.6066 47.0873C30.7371 46.9563 30.9142 46.8826 31.0988 46.8823H48.8709C48.9625 46.8822 49.0533 46.9002 49.1379 46.9352C49.2226 46.9703 49.2995 47.0217 49.3644 47.0866C49.4292 47.1515 49.4806 47.2285 49.5157 47.3134C49.5508 47.3982 49.5688 47.4891 49.5688 47.5809C49.5688 47.6727 49.5508 47.7637 49.5157 47.8485C49.4806 47.9333 49.4292 48.0104 49.3644 48.0752C49.2995 48.1401 49.2226 48.1916 49.1379 48.2266C49.0533 48.2617 48.9625 48.2797 48.8709 48.2795Z" fill="#49494D"/>
<path d="M24.8954 27.7386C26.2559 27.7386 27.3588 26.6331 27.3588 25.2695C27.3588 23.9058 26.2559 22.8003 24.8954 22.8003C23.535 22.8003 22.4321 23.9058 22.4321 25.2695C22.4321 26.6331 23.535 27.7386 24.8954 27.7386Z" fill="#49494D"/>
<path d="M27.6119 35.8355C27.612 36.1598 27.5484 36.4809 27.4247 36.7806C27.301 37.0802 27.1196 37.3525 26.8909 37.5819C26.6622 37.8112 26.3906 37.9932 26.0917 38.1174C25.7929 38.2415 25.4725 38.3055 25.149 38.3055C25.1278 38.3059 25.1066 38.3051 25.0856 38.303C24.6012 38.2905 24.1313 38.1351 23.7346 37.8563C23.3379 37.5775 23.032 37.1876 22.8553 36.7354C22.6785 36.2832 22.6388 35.7888 22.7409 35.3141C22.8431 34.8393 23.0827 34.4053 23.4297 34.0664C23.7767 33.7275 24.2158 33.4986 24.6919 33.4086C25.168 33.3185 25.66 33.3712 26.1064 33.56C26.5528 33.7488 26.9337 34.0654 27.2015 34.4701C27.4693 34.8749 27.612 35.3498 27.6119 35.8355Z" fill="#49494D"/>
<path d="M24.8954 48.8714C26.2559 48.8714 27.3588 47.766 27.3588 46.4023C27.3588 45.0386 26.2559 43.9331 24.8954 43.9331C23.535 43.9331 22.4321 45.0386 22.4321 46.4023C22.4321 47.766 23.535 48.8714 24.8954 48.8714Z" fill="#49494D"/>
<path d="M63.2936 50.9611C63.1491 51.1978 62.9165 51.3675 62.6469 51.4328C62.3772 51.498 62.0927 51.4536 61.8558 51.3092L49.6508 43.8687C49.5335 43.7972 49.4314 43.7033 49.3505 43.5924C49.2695 43.4815 49.2112 43.3558 49.1788 43.2223C49.1465 43.0889 49.1407 42.9504 49.162 42.8147C49.1832 42.6791 49.2309 42.5489 49.3024 42.4317C49.374 42.3145 49.4679 42.2125 49.5789 42.1316C49.6898 42.0507 49.8157 41.9924 49.9492 41.9601C50.0827 41.9277 50.2213 41.922 50.357 41.9432C50.4927 41.9644 50.6229 42.0121 50.7402 42.0836L62.9453 49.5241C63.1821 49.6685 63.3519 49.901 63.4172 50.1705C63.4826 50.44 63.4381 50.7244 63.2936 50.9611Z" fill="#DADADA"/>
<path d="M51.1292 43.5348C50.2634 44.9539 48.9961 46.0846 47.4876 46.7836C45.979 47.4827 44.297 47.7189 42.6543 47.4622C41.0115 47.2056 39.4817 46.4676 38.2584 45.3417C37.0351 44.2159 36.1733 42.7526 35.7818 41.137C35.3903 39.5213 35.4868 37.8259 36.059 36.2651C36.6313 34.7043 37.6536 33.3483 38.9968 32.3684C40.3399 31.3885 41.9435 30.8288 43.6048 30.7601C45.2661 30.6914 46.9104 31.1168 48.3299 31.9824C50.2314 33.145 51.594 35.0142 52.1188 37.1799C52.6436 39.3456 52.2877 41.631 51.1292 43.5348ZM38.5694 35.8754C37.9201 36.9398 37.601 38.1728 37.6525 39.4185C37.704 40.6642 38.1239 41.8666 38.859 42.8738C39.594 43.8809 40.6113 44.6475 41.7821 45.0766C42.953 45.5057 44.2248 45.5781 45.4368 45.2845C46.6487 44.991 47.7464 44.3447 48.591 43.4274C49.4356 42.5101 49.9892 41.363 50.1817 40.1312C50.3742 38.8994 50.1971 37.6382 49.6727 36.507C49.1483 35.3758 48.3001 34.4256 47.2355 33.7763C45.8074 32.9076 44.093 32.6408 42.4683 33.0343C40.8437 33.4278 39.4415 34.4495 38.5694 35.8754Z" fill="#DADADA"/>
<defs>
<filter id="filter0_d_1903_12508" x="12.4546" y="9.5083" width="49.0908" height="54.9092" filterUnits="userSpaceOnUse" color-interpolation-filters="sRGB">
<feFlood flood-opacity="0" result="BackgroundImageFix"/>
<feColorMatrix in="SourceAlpha" type="matrix" values="0 0 0 0 0 0 0 0 0 0 0 0 0 0 0 0 0 0 127 0" result="hardAlpha"/>
<feOffset dx="1" dy="1"/>
<feGaussianBlur stdDeviation="2"/>
<feComposite in2="hardAlpha" operator="out"/>
<feColorMatrix type="matrix" values="0 0 0 0 0 0 0 0 0 0 0 0 0 0 0 0 0 0 0.25 0"/>
<feBlend mode="normal" in2="BackgroundImageFix" result="effect1_dropShadow_1903_12508"/>
<feBlend mode="normal" in="SourceGraphic" in2="effect1_dropShadow_1903_12508" result="shape"/>
</filter>
</defs>
</svg>
