<svg width="72" height="72" viewBox="0 0 72 72" fill="none" xmlns="http://www.w3.org/2000/svg">
<circle cx="36" cy="36" r="36" fill="#D0D6EB"/>
<g filter="url(#filter0_d_1903_11869)">
<path d="M52.3603 59.4174H19.6397C18.5301 59.4161 17.4663 58.9737 16.6817 58.1873C15.8971 57.4008 15.4558 56.3345 15.4545 55.2223V16.7034C15.4558 15.5912 15.8971 14.5249 16.6817 13.7384C17.4663 12.9519 18.5301 12.5096 19.6397 12.5083H50.0808L56.5454 17.6732V55.2223C56.5442 56.3345 56.1028 57.4008 55.3182 58.1873C54.5336 58.9737 53.4698 59.4161 52.3603 59.4174Z" fill="#F1F5FA"/>
</g>
<path d="M19.6397 13.7158C18.8496 13.7167 18.092 14.0317 17.5333 14.5918C16.9745 15.1519 16.6603 15.9112 16.6594 16.7033V55.2221C16.6603 56.0142 16.9745 56.7735 17.5333 57.3336C18.092 57.8936 18.8496 58.2087 19.6397 58.2095H52.3603C53.1504 58.2087 53.908 57.8936 54.4667 57.3336C55.0255 56.7735 55.3397 56.0142 55.3406 55.2221V18.2549L49.6594 13.7158H19.6397Z" fill="#F1F5FA"/>
<path d="M56.2818 17.6388H51.2178C50.8481 17.6388 50.4936 17.4916 50.2322 17.2296C49.9708 16.9676 49.8239 16.6122 49.8239 16.2416V12.4926C49.8239 12.4762 49.8285 12.4601 49.8372 12.4462C49.8459 12.4323 49.8584 12.4211 49.8731 12.414C49.8878 12.4068 49.9043 12.404 49.9206 12.4058C49.9369 12.4076 49.9523 12.414 49.9651 12.4241L56.3358 17.4831C56.35 17.4943 56.3604 17.5097 56.3654 17.5271C56.3705 17.5445 56.37 17.5631 56.364 17.5802C56.3581 17.5973 56.347 17.6122 56.3322 17.6227C56.3175 17.6332 56.2998 17.6388 56.2818 17.6388Z" fill="#CAD2DB"/>
<path d="M45.9961 24.7893H31.0989C30.9141 24.7893 30.7368 24.7157 30.6061 24.5847C30.4754 24.4537 30.402 24.276 30.402 24.0907C30.402 23.9054 30.4754 23.7277 30.6061 23.5967C30.7368 23.4657 30.9141 23.3921 31.0989 23.3921H45.9961C46.181 23.3921 46.3582 23.4657 46.4889 23.5967C46.6196 23.7277 46.6931 23.9054 46.6931 24.0907C46.6931 24.276 46.6196 24.4537 46.4889 24.5847C46.3582 24.7157 46.181 24.7893 45.9961 24.7893Z" fill="#A5AFD4"/>
<path d="M48.871 27.1472H31.0989C30.9142 27.1469 30.7372 27.0732 30.6067 26.9423C30.4762 26.8113 30.4029 26.6337 30.4029 26.4486C30.4029 26.2635 30.4762 26.0859 30.6067 25.9549C30.7372 25.824 30.9142 25.7503 31.0989 25.75H48.871C48.9626 25.7499 49.0533 25.7679 49.138 25.8029C49.2227 25.838 49.2996 25.8894 49.3644 25.9543C49.4292 26.0192 49.4807 26.0962 49.5157 26.181C49.5508 26.2659 49.5689 26.3568 49.5689 26.4486C49.5689 26.5404 49.5508 26.6313 49.5157 26.7162C49.4807 26.801 49.4292 26.878 49.3644 26.9429C49.2996 27.0078 49.2227 27.0592 49.138 27.0943C49.0533 27.1293 48.9626 27.1473 48.871 27.1472Z" fill="#A5AFD4"/>
<path d="M45.9962 33.958H31.0995C30.9147 33.958 30.7374 34.0316 30.6067 34.1626C30.476 34.2936 30.4026 34.4713 30.4026 34.6566C30.4026 34.8418 30.476 35.0195 30.6067 35.1505C30.7374 35.2815 30.9147 35.3551 31.0995 35.3551H45.9962C46.181 35.3551 46.3583 35.2815 46.489 35.1505C46.6197 35.0195 46.6931 34.8418 46.6931 34.6566C46.6931 34.4713 46.6197 34.2936 46.489 34.1626C46.3583 34.0316 46.181 33.958 45.9962 33.958Z" fill="#A5AFD4"/>
<path d="M48.8713 36.3159H31.0995C30.9147 36.3159 30.7374 36.3895 30.6067 36.5205C30.476 36.6515 30.4026 36.8292 30.4026 37.0145C30.4026 37.1997 30.476 37.3774 30.6067 37.5084C30.7374 37.6394 30.9147 37.713 31.0995 37.713H48.8713C49.0561 37.713 49.2334 37.6394 49.3641 37.5084C49.4948 37.3774 49.5682 37.1997 49.5682 37.0145C49.5682 36.8292 49.4948 36.6515 49.3641 36.5205C49.2334 36.3895 49.0561 36.3159 48.8713 36.3159Z" fill="#A5AFD4"/>
<path d="M45.9961 45.9216H31.0989C30.9141 45.9216 30.7368 45.848 30.6061 45.717C30.4754 45.586 30.402 45.4083 30.402 45.223C30.402 45.0377 30.4754 44.86 30.6061 44.729C30.7368 44.598 30.9141 44.5244 31.0989 44.5244H45.9961C46.181 44.5244 46.3582 44.598 46.4889 44.729C46.6196 44.86 46.6931 45.0377 46.6931 45.223C46.6931 45.4083 46.6196 45.586 46.4889 45.717C46.3582 45.848 46.181 45.9216 45.9961 45.9216Z" fill="#A5AFD4"/>
<path d="M48.871 48.2795H31.0989C30.9142 48.2793 30.7372 48.2056 30.6067 48.0746C30.4762 47.9436 30.4029 47.766 30.4029 47.5809C30.4029 47.3958 30.4762 47.2183 30.6067 47.0873C30.7372 46.9563 30.9142 46.8826 31.0989 46.8823H48.871C48.9626 46.8822 49.0533 46.9002 49.138 46.9352C49.2227 46.9703 49.2996 47.0217 49.3644 47.0866C49.4292 47.1515 49.4807 47.2285 49.5157 47.3134C49.5508 47.3982 49.5689 47.4891 49.5689 47.5809C49.5689 47.6727 49.5508 47.7637 49.5157 47.8485C49.4807 47.9333 49.4292 48.0104 49.3644 48.0752C49.2996 48.1401 49.2227 48.1916 49.138 48.2266C49.0533 48.2617 48.9626 48.2797 48.871 48.2795Z" fill="#A5AFD4"/>
<path d="M24.8953 27.7386C26.2558 27.7386 27.3586 26.6331 27.3586 25.2695C27.3586 23.9058 26.2558 22.8003 24.8953 22.8003C23.5349 22.8003 22.432 23.9058 22.432 25.2695C22.432 26.6331 23.5349 27.7386 24.8953 27.7386Z" fill="#A5AFD4"/>
<path d="M27.6118 35.8355C27.612 36.1598 27.5483 36.4809 27.4246 36.7806C27.3009 37.0802 27.1195 37.3525 26.8908 37.5819C26.6621 37.8112 26.3906 37.9932 26.0917 38.1174C25.7928 38.2415 25.4725 38.3055 25.1489 38.3055C25.1278 38.3059 25.1066 38.3051 25.0855 38.303C24.6012 38.2905 24.1312 38.1351 23.7345 37.8563C23.3378 37.5775 23.032 37.1876 22.8552 36.7354C22.6785 36.2832 22.6387 35.7888 22.7409 35.3141C22.8431 34.8393 23.0826 34.4053 23.4297 34.0664C23.7767 33.7275 24.2157 33.4986 24.6918 33.4086C25.1679 33.3185 25.6599 33.3712 26.1063 33.56C26.5527 33.7488 26.9336 34.0654 27.2014 34.4701C27.4692 34.8749 27.612 35.3498 27.6118 35.8355Z" fill="#A5AFD4"/>
<path d="M24.8953 48.8714C26.2558 48.8714 27.3586 47.766 27.3586 46.4023C27.3586 45.0386 26.2558 43.9331 24.8953 43.9331C23.5349 43.9331 22.432 45.0386 22.432 46.4023C22.432 47.766 23.5349 48.8714 24.8953 48.8714Z" fill="#A5AFD4"/>
<path d="M63.2937 50.9611C63.1492 51.1978 62.9166 51.3675 62.6469 51.4328C62.3773 51.498 62.0928 51.4536 61.8559 51.3092L49.6508 43.8687C49.5335 43.7972 49.4315 43.7033 49.3505 43.5924C49.2696 43.4815 49.2112 43.3558 49.1789 43.2223C49.1465 43.0889 49.1408 42.9504 49.162 42.8147C49.1832 42.6791 49.231 42.5489 49.3025 42.4317C49.374 42.3145 49.468 42.2125 49.5789 42.1316C49.6899 42.0507 49.8157 41.9924 49.9492 41.9601C50.0828 41.9277 50.2213 41.922 50.3571 41.9432C50.4928 41.9644 50.623 42.0121 50.7403 42.0836L62.9454 49.5241C63.1822 49.6685 63.352 49.901 63.4173 50.1705C63.4826 50.44 63.4381 50.7244 63.2937 50.9611Z" fill="#4D668A"/>
<path d="M51.1293 43.5348C50.2635 44.9539 48.9962 46.0846 47.4876 46.7836C45.9791 47.4827 44.2971 47.7189 42.6543 47.4622C41.0115 47.2056 39.4818 46.4676 38.2585 45.3417C37.0352 44.2159 36.1733 42.7526 35.7818 41.137C35.3903 39.5213 35.4868 37.8259 36.0591 36.2651C36.6314 34.7043 37.6537 33.3483 38.9968 32.3684C40.34 31.3885 41.9436 30.8288 43.6049 30.7601C45.2662 30.6914 46.9105 31.1168 48.33 31.9824C50.2315 33.145 51.5941 35.0142 52.1189 37.1799C52.6437 39.3456 52.2878 41.631 51.1293 43.5348ZM38.5695 35.8754C37.9201 36.9398 37.601 38.1728 37.6526 39.4185C37.7041 40.6642 38.1239 41.8666 38.859 42.8738C39.5941 43.8809 40.6114 44.6475 41.7822 45.0766C42.953 45.5057 44.2249 45.5781 45.4368 45.2845C46.6488 44.991 47.7465 44.3447 48.5911 43.4274C49.4357 42.5101 49.9892 41.363 50.1818 40.1312C50.3743 38.8994 50.1972 37.6382 49.6727 36.507C49.1483 35.3758 48.3002 34.4256 47.2356 33.7763C45.8075 32.9076 44.093 32.6408 42.4684 33.0343C40.8438 33.4278 39.4416 34.4495 38.5695 35.8754Z" fill="#4D668A"/>
<defs>
<filter id="filter0_d_1903_11869" x="11.4545" y="7.5083" width="49.0909" height="54.9092" filterUnits="userSpaceOnUse" color-interpolation-filters="sRGB">
<feFlood flood-opacity="0" result="BackgroundImageFix"/>
<feColorMatrix in="SourceAlpha" type="matrix" values="0 0 0 0 0 0 0 0 0 0 0 0 0 0 0 0 0 0 127 0" result="hardAlpha"/>
<feOffset dy="-1"/>
<feGaussianBlur stdDeviation="2"/>
<feComposite in2="hardAlpha" operator="out"/>
<feColorMatrix type="matrix" values="0 0 0 0 0 0 0 0 0 0 0 0 0 0 0 0 0 0 0.25 0"/>
<feBlend mode="normal" in2="BackgroundImageFix" result="effect1_dropShadow_1903_11869"/>
<feBlend mode="normal" in="SourceGraphic" in2="effect1_dropShadow_1903_11869" result="shape"/>
</filter>
</defs>
</svg>
