<svg width="16" height="16" viewBox="0 0 16 16" fill="none" xmlns="http://www.w3.org/2000/svg">
<path d="M9.63636 13.4702V10.2913C9.63636 10.1508 9.5789 10.0161 9.4766 9.91671C9.37431 9.81735 9.23557 9.76153 9.09091 9.76153H6.90909C6.76443 9.76153 6.62569 9.81735 6.5234 9.91671C6.4211 10.0161 6.36364 10.1508 6.36364 10.2913V13.4702C6.36364 13.6107 6.30617 13.7455 6.20388 13.8448C6.10158 13.9442 5.96285 14 5.81818 14H2.54545C2.40079 14 2.26205 13.9442 2.15976 13.8448C2.05747 13.7455 2 13.6107 2 13.4702V7.34428C2.00122 7.27096 2.01753 7.19861 2.04798 7.13151C2.07842 7.0644 2.12238 7.00389 2.17727 6.95354L7.63182 2.13891C7.73237 2.04955 7.86372 2 8 2C8.13628 2 8.26763 2.04955 8.36818 2.13891L13.8227 6.95354C13.8776 7.00389 13.9216 7.0644 13.952 7.13151C13.9825 7.19861 13.9988 7.27096 14 7.34428V13.4702C14 13.6107 13.9425 13.7455 13.8402 13.8448C13.7379 13.9442 13.5992 14 13.4545 14H10.1818C10.0372 14 9.89842 13.9442 9.79612 13.8448C9.69383 13.7455 9.63636 13.6107 9.63636 13.4702Z" stroke="#DADADA" stroke-linecap="round" stroke-linejoin="round"/>
</svg>
