<svg width="14" height="14" viewBox="0 0 14 14" fill="none" xmlns="http://www.w3.org/2000/svg">
    <path d="M8.63636 12.4702V9.29134C8.63636 9.15082 8.5789 9.01607 8.4766 8.91671C8.37431 8.81735 8.23557 8.76153 8.09091 8.76153H5.90909C5.76443 8.76153 5.62569 8.81735 5.5234 8.91671C5.4211 9.01607 5.36364 9.15082 5.36364 9.29134V12.4702C5.36364 12.6107 5.30617 12.7455 5.20388 12.8448C5.10158 12.9442 4.96285 13 4.81818 13H1.54545C1.40079 13 1.26205 12.9442 1.15976 12.8448C1.05747 12.7455 1 12.6107 1 12.4702V6.34428C1.00122 6.27096 1.01753 6.19861 1.04798 6.13151C1.07842 6.0644 1.12238 6.00389 1.17727 5.95354L6.63182 1.13891C6.73237 1.04955 6.86372 1 7 1C7.13628 1 7.26763 1.04955 7.36818 1.13891L12.8227 5.95354C12.8776 6.00389 12.9216 6.0644 12.952 6.13151C12.9825 6.19861 12.9988 6.27096 13 6.34428V12.4702C13 12.6107 12.9425 12.7455 12.8402 12.8448C12.7379 12.9442 12.5992 13 12.4545 13H9.18182C9.03715 13 8.89842 12.9442 8.79612 12.8448C8.69383 12.7455 8.63636 12.6107 8.63636 12.4702Z"
          stroke="#002D61" stroke-linecap="round" stroke-linejoin="round"/>
</svg>
