<svg xmlns="http://www.w3.org/2000/svg" xml:space="preserve" viewBox="0 0 4.156 4.157"><path d="M2.474 0v.542a1.587 1.587 0 0 1 1.14 1.14h.542A2.117 2.117 0 0 0 2.474 0ZM1.68.001A2.117 2.117 0 0 0 0 1.681h.542A1.587 1.587 0 0 1 1.68.544Zm.396 1.549a.53.53 0 0 0-.529.529.53.53 0 0 0 .53.53.53.53 0 0 0 .529-.53.53.53 0 0 0-.53-.53ZM0 2.476a2.117 2.117 0 0 0 1.681 1.68v-.54a1.587 1.587 0 0 1-1.14-1.14Zm3.614 0a1.587 1.587 0 0 1-1.14 1.14v.54a2.117 2.117 0 0 0 1.68-1.68Z" style="fill:#ed4646;stroke-width:0;stroke-linecap:round;stroke-linejoin:round"/></svg>