<svg width="12" height="12" viewBox="0 0 12 12" fill="none" xmlns="http://www.w3.org/2000/svg">
<path d="M6 1.125C5.03582 1.125 4.09329 1.41091 3.2916 1.94659C2.48991 2.48226 1.86507 3.24363 1.49609 4.13442C1.12711 5.02521 1.03057 6.00541 1.21867 6.95107C1.40678 7.89672 1.87108 8.76536 2.55286 9.44715C3.23464 10.1289 4.10328 10.5932 5.04894 10.7813C5.99459 10.9694 6.97479 10.8729 7.86558 10.5039C8.75637 10.1349 9.51775 9.51009 10.0534 8.7084C10.5891 7.90671 10.875 6.96418 10.875 6C10.8736 4.70749 10.3596 3.46831 9.44564 2.55436C8.5317 1.64042 7.29251 1.12636 6 1.125ZM6 10.125C5.18415 10.125 4.38663 9.88307 3.70827 9.42981C3.02992 8.97655 2.50121 8.33231 2.189 7.57857C1.87679 6.82482 1.7951 5.99542 1.95426 5.19525C2.11343 4.39508 2.5063 3.66008 3.08319 3.08318C3.66008 2.50629 4.39508 2.11342 5.19525 1.95426C5.99543 1.7951 6.82483 1.87679 7.57857 2.189C8.33232 2.50121 8.97655 3.02992 9.42981 3.70827C9.88307 4.38663 10.125 5.18415 10.125 6C10.1238 7.09364 9.68877 8.14213 8.91545 8.91545C8.14213 9.68876 7.09364 10.1238 6 10.125ZM6 2.625C5.33249 2.625 4.67997 2.82294 4.12495 3.19379C3.56994 3.56464 3.13735 4.09174 2.88191 4.70844C2.62646 5.32514 2.55963 6.00374 2.68985 6.65843C2.82008 7.31312 3.14151 7.91448 3.61352 8.38649C4.08552 8.85849 4.68689 9.17993 5.34157 9.31015C5.99626 9.44038 6.67486 9.37354 7.29156 9.11809C7.90826 8.86265 8.43536 8.43007 8.80621 7.87505C9.17706 7.32003 9.375 6.66751 9.375 6C9.37401 5.1052 9.01811 4.24733 8.38539 3.61461C7.75267 2.98189 6.8948 2.62599 6 2.625ZM6 8.625C5.48083 8.625 4.97331 8.47105 4.54163 8.18261C4.10995 7.89417 3.7735 7.4842 3.57482 7.00454C3.37614 6.52489 3.32415 5.99709 3.42544 5.48789C3.52673 4.97869 3.77673 4.51096 4.14385 4.14384C4.51096 3.77673 4.97869 3.52673 5.48789 3.42544C5.99709 3.32415 6.52489 3.37614 7.00455 3.57482C7.4842 3.7735 7.89417 4.10995 8.18261 4.54163C8.47105 4.97331 8.625 5.48082 8.625 6C8.62426 6.69596 8.34746 7.36321 7.85534 7.85533C7.36321 8.34746 6.69597 8.62426 6 8.625Z" fill="#E2E7FF"/>
</svg>
