<svg width="42" height="16" viewBox="0 0 42 16" fill="none" xmlns="http://www.w3.org/2000/svg">
<rect x="0.5" y="0.5" width="41" height="15" rx="1.5" fill="#EEEEFD"/>
<path d="M10 3.125C9.03582 3.125 8.09329 3.41091 7.2916 3.94659C6.48991 4.48226 5.86507 5.24363 5.49609 6.13442C5.12711 7.02521 5.03057 8.00541 5.21867 8.95107C5.40678 9.89672 5.87108 10.7654 6.55286 11.4471C7.23464 12.1289 8.10328 12.5932 9.04894 12.7813C9.99459 12.9694 10.9748 12.8729 11.8656 12.5039C12.7564 12.1349 13.5177 11.5101 14.0534 10.7084C14.5891 9.90671 14.875 8.96418 14.875 8C14.8736 6.70749 14.3596 5.46831 13.4456 4.55436C12.5317 3.64042 11.2925 3.12636 10 3.125ZM10 12.125C9.18415 12.125 8.38663 11.8831 7.70827 11.4298C7.02992 10.9766 6.50121 10.3323 6.189 9.57857C5.87679 8.82482 5.7951 7.99542 5.95426 7.19525C6.11343 6.39508 6.5063 5.66008 7.08319 5.08318C7.66008 4.50629 8.39508 4.11342 9.19525 3.95426C9.99543 3.7951 10.8248 3.87679 11.5786 4.189C12.3323 4.50121 12.9766 5.02992 13.4298 5.70827C13.8831 6.38663 14.125 7.18415 14.125 8C14.1238 9.09364 13.6888 10.1421 12.9154 10.9154C12.1421 11.6888 11.0936 12.1238 10 12.125ZM10 4.625C9.33249 4.625 8.67997 4.82294 8.12495 5.19379C7.56994 5.56464 7.13735 6.09174 6.88191 6.70844C6.62646 7.32514 6.55963 8.00374 6.68985 8.65843C6.82008 9.31312 7.14151 9.91448 7.61352 10.3865C8.08552 10.8585 8.68689 11.1799 9.34157 11.3102C9.99626 11.4404 10.6749 11.3735 11.2916 11.1181C11.9083 10.8626 12.4354 10.4301 12.8062 9.87505C13.1771 9.32003 13.375 8.66751 13.375 8C13.374 7.1052 13.0181 6.24733 12.3854 5.61461C11.7527 4.98189 10.8948 4.62599 10 4.625ZM10 10.625C9.48083 10.625 8.97331 10.471 8.54163 10.1826C8.10995 9.89417 7.7735 9.4842 7.57482 9.00454C7.37614 8.52489 7.32415 7.99709 7.42544 7.48789C7.52673 6.97869 7.77673 6.51096 8.14385 6.14384C8.51096 5.77673 8.97869 5.52673 9.48789 5.42544C9.99709 5.32415 10.5249 5.37614 11.0045 5.57482C11.4842 5.7735 11.8942 6.10995 12.1826 6.54163C12.471 6.97331 12.625 7.48082 12.625 8C12.6243 8.69596 12.3475 9.36321 11.8553 9.85533C11.3632 10.3475 10.696 10.6243 10 10.625Z" fill="#5154EC"/>
<path d="M19.0938 12V4.9541H20.1875V11.0576H23.4883V12H19.0938ZM25.3047 5.75C24.9385 5.75 24.6406 5.45215 24.6406 5.09082C24.6406 4.72461 24.9385 4.42676 25.3047 4.42676C25.666 4.42676 25.9688 4.72461 25.9688 5.09082C25.9688 5.45215 25.666 5.75 25.3047 5.75ZM24.7725 12V6.69727H25.8271V12H24.7725ZM28.8301 12L26.9111 6.69727H28.0342L29.3574 10.9258H29.4404L30.7588 6.69727H31.8721L29.958 12H28.8301ZM34.958 12.1025C33.4053 12.1025 32.4678 11.043 32.4678 9.36328V9.3584C32.4678 7.70312 33.4248 6.59473 34.9043 6.59473C36.3838 6.59473 37.292 7.66406 37.292 9.25586V9.62695H33.5322C33.5518 10.6426 34.1084 11.2334 34.9824 11.2334C35.6611 11.2334 36.0664 10.8965 36.1934 10.623L36.2129 10.584L37.2334 10.5791L37.2236 10.623C37.0479 11.3213 36.3154 12.1025 34.958 12.1025ZM34.9092 7.46387C34.1865 7.46387 33.6396 7.95703 33.5469 8.87012H36.2422C36.1592 7.92285 35.627 7.46387 34.9092 7.46387Z" fill="#5154EC"/>
<rect x="0.5" y="0.5" width="41" height="15" rx="1.5" stroke="#5154EC"/>
</svg>
