<svg width="72" height="72" viewBox="0 0 72 72" fill="none" xmlns="http://www.w3.org/2000/svg">
<mask id="mask0_1966_14599" style="mask-type:luminance" maskUnits="userSpaceOnUse" x="0" y="0" width="72" height="72">
<circle cx="36" cy="36" r="36" fill="white"/>
</mask>
<g mask="url(#mask0_1966_14599)">
<g filter="url(#filter0_d_1966_14599)">
<path d="M48.4735 25.5825C58.7566 36.1261 63.271 48.317 58.5553 53.0327L58.4866 53.1001L58.4272 53.1568C58.409 53.1789 58.3885 53.1995 58.3678 53.2202C51.2337 60.3543 39.9258 61.7872 30.5 58L33.5671 73C33.8889 74.1281 33.2353 75.3031 32.1073 75.6246C31.9179 75.6785 31.722 75.7058 31.525 75.7058L18.9477 75.7035C18.4098 75.7042 17.8919 75.5001 17.4991 75.1327L17.4457 75.0812C17.0613 74.6968 16.8235 74.1658 16.8234 73.5792C16.8234 73.3825 16.8507 73.1866 16.9046 72.9972L21 57L22 52.5L21.7382 52.2351C11.3761 41.5595 10.039 24.2979 19.7422 14.5946L19.8023 14.5393L19.835 14.504C19.8658 14.471 19.8977 14.4391 19.9297 14.4071C24.6455 9.69135 36.8363 14.2058 47.3799 24.4889L31.9613 37.8167L31.9057 37.8664C31.0145 38.6887 30.9312 40.0761 31.7303 41.0005C31.766 41.0418 31.8032 41.0818 31.8419 41.1204C32.7236 42.0021 34.1527 42.0024 35.0341 41.121L35.0909 41.0621L35.1456 41.0011L48.4735 25.5825Z" fill="#B9C0D4"/>
</g>
<path d="M51.5112 20.9183C51.0507 20.2124 51.1301 19.2573 51.7496 18.6378C52.4604 17.9269 53.6131 17.9272 54.3242 18.6382C55.0353 19.3493 55.0355 20.502 54.3246 21.2129C53.7051 21.8323 52.7501 21.9118 52.0442 21.4513L35.2729 40.8538L48.4735 25.5825C58.7566 36.1261 63.2711 48.317 58.5553 53.0327C53.7573 57.8307 41.2211 53.0737 30.5549 42.4075C19.8888 31.7414 15.1317 19.2052 19.9298 14.4071C24.6456 9.69135 36.8364 14.2058 47.3799 24.4889L31.9614 37.8167L51.5111 20.9183H51.5112Z" fill="#F1F5FA"/>
<path d="M54.324 18.6372C55.0352 19.3483 55.0354 20.501 54.3246 21.2118C53.705 21.8313 52.75 21.9107 52.0441 21.4502L35.1455 41C35.1098 41.0413 35.0726 41.0813 35.034 41.12C34.1526 42.0014 32.7234 42.0011 31.8418 41.1194C31.8032 41.0808 31.766 41.0408 31.7302 40.9994C30.9148 40.0561 31.0182 38.6307 31.9612 37.8157L51.511 20.9173C51.0505 20.2114 51.1299 19.2563 51.7495 18.6368C52.4603 17.9259 53.6129 17.9262 54.324 18.6372Z" fill="#788CA9"/>
<g filter="url(#filter1_d_1966_14599)">
<path d="M29.2042 51.2646L33.9172 70.7735C34.2421 72.1184 33.5817 73.5195 32.4418 73.9029C32.2505 73.9673 32.0525 74 31.8535 74H19.1459C17.9608 74 17 72.8662 17 71.4677C17 71.233 17.0276 70.9995 17.0821 70.7737L21.7702 51.3583C22.2446 49.3932 23.7555 48.0282 25.4869 48.0004C27.2086 47.9729 28.7321 49.3107 29.2042 51.2646Z" fill="#B9C0D4"/>
</g>
<path d="M23.4798 51.4512C23.4798 51.934 23.6716 52.3969 24.0131 52.7383C24.3546 53.0796 24.8177 53.2714 25.3006 53.2714C25.7835 53.2714 26.2467 53.0796 26.5881 52.7383C26.9296 52.3969 27.1214 51.934 27.1214 51.4512C27.1214 50.9685 26.9296 50.5056 26.5881 50.1642C26.2467 49.8229 25.7835 49.6311 25.3006 49.6311C24.8177 49.6311 24.3546 49.8229 24.0131 50.1642C23.6716 50.5056 23.4798 50.9685 23.4798 51.4512Z" fill="#A2A9BB"/>
<path d="M63.251 19.7905C63.251 25.4458 58.7123 30.0411 53.0787 30.1324L52.9077 30.1338V28.9169C57.8977 28.9169 61.9523 24.9122 62.0329 19.9415L62.0341 19.7905H63.251ZM60.4883 19.9253C60.4883 24.07 57.1619 27.4379 53.033 27.5048L52.9077 27.5059V26.293C56.389 26.293 59.2177 23.4993 59.2745 20.0316L59.2754 19.9253H60.4883ZM57.3887 19.7905C57.3887 22.2707 55.4036 24.2873 52.9355 24.3379L52.8403 24.3389V23.126C54.6532 23.126 56.1283 21.6797 56.1746 19.878L56.1758 19.7905H57.3887ZM52.9077 12.3447V13.5576C49.4264 13.5576 46.5977 16.3512 46.5409 19.819L46.54 19.9253H45.3271C45.3271 15.7387 48.7211 12.3447 52.9077 12.3447ZM52.8403 15.2422V16.4551C51.0275 16.4551 49.5524 17.9014 49.506 19.7031L49.5049 19.7905H48.292C48.292 17.2785 50.3283 15.2422 52.8403 15.2422ZM52.9077 9.44727V10.6641C47.9177 10.6641 43.8631 14.6688 43.7825 19.6396L43.7813 19.7905H42.5645C42.5645 14.0781 47.1953 9.44727 52.9077 9.44727Z" fill="#FBFDFF"/>
</g>
<defs>
<filter id="filter0_d_1966_14599" x="10.1639" y="9.53784" width="55.2606" height="71.168" filterUnits="userSpaceOnUse" color-interpolation-filters="sRGB">
<feFlood flood-opacity="0" result="BackgroundImageFix"/>
<feColorMatrix in="SourceAlpha" type="matrix" values="0 0 0 0 0 0 0 0 0 0 0 0 0 0 0 0 0 0 127 0" result="hardAlpha"/>
<feOffset dx="1" dy="1"/>
<feGaussianBlur stdDeviation="2"/>
<feComposite in2="hardAlpha" operator="out"/>
<feColorMatrix type="matrix" values="0 0 0 0 0 0 0 0 0 0 0 0 0 0 0 0 0 0 0.25 0"/>
<feBlend mode="normal" in2="BackgroundImageFix" result="effect1_dropShadow_1966_14599"/>
<feBlend mode="normal" in="SourceGraphic" in2="effect1_dropShadow_1966_14599" result="shape"/>
</filter>
<filter id="filter1_d_1966_14599" x="14" y="46" width="23" height="32" filterUnits="userSpaceOnUse" color-interpolation-filters="sRGB">
<feFlood flood-opacity="0" result="BackgroundImageFix"/>
<feColorMatrix in="SourceAlpha" type="matrix" values="0 0 0 0 0 0 0 0 0 0 0 0 0 0 0 0 0 0 127 0" result="hardAlpha"/>
<feOffset dy="1"/>
<feGaussianBlur stdDeviation="1.5"/>
<feComposite in2="hardAlpha" operator="out"/>
<feColorMatrix type="matrix" values="0 0 0 0 0 0 0 0 0 0 0 0 0 0 0 0 0 0 0.25 0"/>
<feBlend mode="normal" in2="BackgroundImageFix" result="effect1_dropShadow_1966_14599"/>
<feBlend mode="normal" in="SourceGraphic" in2="effect1_dropShadow_1966_14599" result="shape"/>
</filter>
</defs>
</svg>
