<svg width="72" height="72" viewBox="0 0 72 72" fill="none" xmlns="http://www.w3.org/2000/svg">
<circle cx="36" cy="36" r="36" fill="#323334"/>
<mask id="mask0_1966_14460" style="mask-type:luminance" maskUnits="userSpaceOnUse" x="0" y="0" width="72" height="72">
<circle cx="36" cy="36" r="36" fill="white"/>
</mask>
<g mask="url(#mask0_1966_14460)">
<g filter="url(#filter0_d_1966_14460)">
<path d="M48.4736 25.5825C58.7567 36.1261 63.2711 48.317 58.5554 53.0327L58.4868 53.1001L58.4273 53.1568C58.4091 53.1789 58.3886 53.1995 58.3679 53.2202C51.2338 60.3543 39.9259 61.7872 30.5001 58L33.5672 72.2942C33.889 73.4223 33.2354 74.5973 32.1074 74.9187C31.918 74.9726 31.7221 75 31.5251 75L18.9478 74.9977C18.41 74.9983 17.892 74.7943 17.4992 74.4269L17.4458 74.3754C17.0614 73.9909 16.8236 73.46 16.8235 72.8734C16.8235 72.6766 16.8508 72.4808 16.9047 72.2914L20.5001 57L22.0001 52.5L21.7383 52.2351C11.3762 41.5595 10.0391 24.2979 19.7423 14.5946L19.8024 14.5393L19.8352 14.504C19.8659 14.471 19.8978 14.4391 19.9298 14.4071C24.6456 9.69135 36.8365 14.2058 47.38 24.4889L31.9614 37.8167L31.9059 37.8664C31.0147 38.6887 30.9314 40.0761 31.7305 41.0005C31.7662 41.0418 31.8034 41.0818 31.842 41.1204C32.7237 42.0021 34.1529 42.0024 35.0342 41.121L35.091 41.0621L35.1458 41.0011L48.4736 25.5825Z" fill="#83858E"/>
</g>
<path d="M51.5113 20.9183C51.0507 20.2124 51.1302 19.2573 51.7497 18.6378C52.4605 17.9269 53.6131 17.9272 54.3242 18.6382C55.0353 19.3493 55.0355 20.502 54.3247 21.2129C53.7052 21.8323 52.7502 21.9118 52.0443 21.4513L35.273 40.8538L48.4736 25.5825C58.7567 36.1261 63.2711 48.317 58.5554 53.0327C53.7573 57.8307 41.2212 53.0737 30.555 42.4075C19.8889 31.7414 15.1318 19.2052 19.9298 14.4071C24.6456 9.69135 36.8364 14.2058 47.38 24.4889L31.9614 37.8167L51.5112 20.9183H51.5113Z" fill="#C6C6C6"/>
<path d="M54.3238 18.6372C55.035 19.3483 55.0352 20.501 54.3244 21.2118C53.7049 21.8313 52.7498 21.9107 52.0439 21.4502L35.1453 41C35.1096 41.0413 35.0724 41.0813 35.0338 41.12C34.1525 42.0014 32.7233 42.0011 31.8416 41.1194C31.803 41.0808 31.7658 41.0408 31.73 40.9994C30.9146 40.0561 31.018 38.6307 31.961 37.8157L51.5108 20.9173C51.0503 20.2114 51.1298 19.2563 51.7493 18.6368C52.4601 17.9259 53.6128 17.9262 54.3238 18.6372Z" fill="#9B9B9B"/>
<g filter="url(#filter1_d_1966_14460)">
<path d="M29.2042 51.2646L33.9172 70.7735C34.2421 72.1184 33.5817 73.5195 32.4418 73.9029C32.2505 73.9673 32.0525 74 31.8535 74H19.1459C17.9608 74 17 72.8662 17 71.4677C17 71.233 17.0276 70.9995 17.0821 70.7737L21.7702 51.3583C22.2446 49.3932 23.7555 48.0282 25.4869 48.0004C27.2086 47.9729 28.7321 49.3107 29.2042 51.2646Z" fill="#83858E"/>
</g>
<path d="M23.48 51.4512C23.48 51.934 23.6718 52.3969 24.0133 52.7383C24.3548 53.0796 24.8179 53.2714 25.3008 53.2714C25.7837 53.2714 26.2468 53.0796 26.5883 52.7383C26.9298 52.3969 27.1216 51.934 27.1216 51.4512C27.1216 50.9685 26.9298 50.5056 26.5883 50.1642C26.2468 49.8229 25.7837 49.6311 25.3008 49.6311C24.8179 49.6311 24.3548 49.8229 24.0133 50.1642C23.6718 50.5056 23.48 50.9685 23.48 51.4512Z" fill="#676A74"/>
<path d="M63.251 19.7905C63.251 25.4458 58.7123 30.0411 53.0787 30.1324L52.9077 30.1338V28.9169C57.8977 28.9169 61.9523 24.9122 62.0329 19.9415L62.0341 19.7905H63.251ZM60.4883 19.9253C60.4883 24.07 57.1619 27.4379 53.033 27.5048L52.9077 27.5059V26.293C56.389 26.293 59.2177 23.4993 59.2745 20.0316L59.2754 19.9253H60.4883ZM57.3887 19.7905C57.3887 22.2707 55.4036 24.2873 52.9355 24.3379L52.8403 24.3389V23.126C54.6532 23.126 56.1283 21.6797 56.1746 19.878L56.1758 19.7905H57.3887ZM52.9077 12.3447V13.5576C49.4264 13.5576 46.5977 16.3512 46.5409 19.819L46.54 19.9253H45.3271C45.3271 15.7387 48.7211 12.3447 52.9077 12.3447ZM52.8403 15.2422V16.4551C51.0275 16.4551 49.5524 17.9014 49.506 19.7031L49.5049 19.7905H48.292C48.292 17.2785 50.3283 15.2422 52.8403 15.2422ZM52.9077 9.44727V10.6641C47.9177 10.6641 43.8631 14.6688 43.7825 19.6396L43.7813 19.7905H42.5645C42.5645 14.0781 47.1953 9.44727 52.9077 9.44727Z" fill="#DADADA"/>
</g>
<defs>
<filter id="filter0_d_1966_14460" x="10.1641" y="9.53784" width="55.2607" height="70.4622" filterUnits="userSpaceOnUse" color-interpolation-filters="sRGB">
<feFlood flood-opacity="0" result="BackgroundImageFix"/>
<feColorMatrix in="SourceAlpha" type="matrix" values="0 0 0 0 0 0 0 0 0 0 0 0 0 0 0 0 0 0 127 0" result="hardAlpha"/>
<feOffset dx="1" dy="1"/>
<feGaussianBlur stdDeviation="2"/>
<feComposite in2="hardAlpha" operator="out"/>
<feColorMatrix type="matrix" values="0 0 0 0 0 0 0 0 0 0 0 0 0 0 0 0 0 0 0.25 0"/>
<feBlend mode="normal" in2="BackgroundImageFix" result="effect1_dropShadow_1966_14460"/>
<feBlend mode="normal" in="SourceGraphic" in2="effect1_dropShadow_1966_14460" result="shape"/>
</filter>
<filter id="filter1_d_1966_14460" x="14" y="46" width="23" height="32" filterUnits="userSpaceOnUse" color-interpolation-filters="sRGB">
<feFlood flood-opacity="0" result="BackgroundImageFix"/>
<feColorMatrix in="SourceAlpha" type="matrix" values="0 0 0 0 0 0 0 0 0 0 0 0 0 0 0 0 0 0 127 0" result="hardAlpha"/>
<feOffset dy="1"/>
<feGaussianBlur stdDeviation="1.5"/>
<feComposite in2="hardAlpha" operator="out"/>
<feColorMatrix type="matrix" values="0 0 0 0 0 0 0 0 0 0 0 0 0 0 0 0 0 0 0.25 0"/>
<feBlend mode="normal" in2="BackgroundImageFix" result="effect1_dropShadow_1966_14460"/>
<feBlend mode="normal" in="SourceGraphic" in2="effect1_dropShadow_1966_14460" result="shape"/>
</filter>
</defs>
</svg>
