<svg width="72" height="73" viewBox="0 0 72 73" fill="none" xmlns="http://www.w3.org/2000/svg">
<circle cx="36" cy="36.5" r="36" fill="#323334"/>
<rect x="16" y="16.5" width="40" height="40" rx="20" fill="#83858E"/>
<path d="M44.6023 28.1033L31.7996 43.6612L26.0042 36.7608L26.0042 36.7607C25.8122 36.5322 25.5477 36.3995 25.2673 36.3995C24.9869 36.3995 24.7224 36.5322 24.5304 36.7607C24.3389 36.9888 24.2335 37.2949 24.2335 37.6111C24.2335 37.9274 24.3389 38.2335 24.5304 38.4615L31.0634 46.2386C31.1584 46.3518 31.2722 46.4428 31.3987 46.5052C31.5253 46.5677 31.6619 46.6002 31.8003 46.6002C31.9388 46.6002 32.0754 46.5677 32.202 46.5052C32.3285 46.4428 32.4423 46.3518 32.5373 46.2387L32.5378 46.238L46.0767 29.8033C46.0768 29.8032 46.0769 29.803 46.077 29.8029C46.2684 29.5749 46.3737 29.269 46.3737 28.9529C46.3737 28.6366 46.2683 28.3305 46.0767 28.1025C45.8847 27.874 45.6202 27.7412 45.3399 27.7412C45.0595 27.7412 44.795 27.874 44.603 28.1025L44.6023 28.1033Z" fill="#323334" stroke="#83858E" stroke-width="0.2"/>
</svg>
