<svg width="72" height="73" viewBox="0 0 72 73" fill="none" xmlns="http://www.w3.org/2000/svg">
<circle cx="36" cy="36.5" r="36" fill="#D0D6EB"/>
<rect x="16" y="16.5" width="40" height="40" rx="20" fill="#FBFDFF"/>
<path d="M44.6021 28.1033L31.7993 43.6612L26.0039 36.7608L26.0039 36.7607C25.8119 36.5322 25.5474 36.3995 25.2671 36.3995C24.9867 36.3995 24.7222 36.5322 24.5302 36.7607C24.3386 36.9888 24.2333 37.2949 24.2333 37.6111C24.2333 37.9274 24.3386 38.2335 24.5302 38.4615L31.0632 46.2386C31.1582 46.3518 31.2719 46.4428 31.3985 46.5052C31.5251 46.5677 31.6616 46.6002 31.8001 46.6002C31.9386 46.6002 32.0751 46.5677 32.2018 46.5052C32.3283 46.4428 32.442 46.3518 32.537 46.2387L32.5376 46.238L46.0765 29.8033C46.0766 29.8032 46.0767 29.803 46.0767 29.8029C46.2681 29.5749 46.3734 29.269 46.3734 28.9529C46.3734 28.6366 46.268 28.3305 46.0765 28.1025C45.8845 27.874 45.62 27.7412 45.3396 27.7412C45.0592 27.7412 44.7947 27.874 44.6027 28.1025L44.6021 28.1033Z" fill="#D0D6EB" stroke="#FBFDFF" stroke-width="0.2"/>
</svg>
