<?xml version="1.0" encoding="iso-8859-1"?>
<!-- Generator: Adobe Illustrator 21.0.0, SVG Export Plug-In . SVG Version: 6.00 Build 0)  -->
<svg xmlns="http://www.w3.org/2000/svg" version="1.1" id="Capa_1" x="0px" y="0px" viewBox="0 0 512.115 512.115"
	 style="enable-background:new 0 0 512.115 512.115;" xml:space="preserve" width="40" height="40">
<g>
	<g>
		<circle style="fill:#29B6F6;" cx="255.998" cy="374.496" r="32.133"/>
	</g>
	<g>
		<path style="fill:#0288D1;"
			  d="M259.46,342.551c20.068,21.447,2.961,57.089-26.924,53.889    c19.876,21.242,55.595,7.028,55.595-21.944C288.131,357.92,275.578,344.279,259.46,342.551z"/>
	</g>
	<g>
		<path style="fill:#29B6F6;"
			  d="M346.922,272.908c-14.694-11.793-31.719-20.793-50.261-26.198l28.056-28.056    c16.135,6.633,31.112,15.523,44.53,26.284c8.351,6.698,9.121,19.122,1.552,26.692C364.338,278.09,354.061,278.637,346.922,272.908    z M142.75,244.938c-8.351,6.698-9.122,19.122-1.552,26.692c6.109,6.254,16.525,7.178,23.876,1.278    c20.705-16.617,46.037-27.689,73.723-30.964l35.859-35.859C226.255,201.114,179.36,215.576,142.75,244.938z M300.683,180.058    l29.253-29.253c-79.639-25.044-168.342-8.412-234.2,47.892c-7.97,6.814-8.541,18.928-1.127,26.343    c6.568,6.568,17.121,7.079,24.173,1.035C169.978,182.203,237.359,166.36,300.683,180.058z M417.388,225.04L417.388,225.04    c7.415-7.415,6.844-19.529-1.127-26.343c-13.028-11.138-27.232-20.936-42.385-29.203l-26.573,26.573    c16.623,8.005,32.044,18.125,45.912,30.008C400.267,232.119,410.82,231.608,417.388,225.04z M301.029,320.497    c6.604,4.525,15.912,4.623,22.908-2.005c7.88-7.88,6.751-21.016-2.422-27.343c-14.592-10.065-31.606-16.847-49.967-19.326    l-37.95,37.95C255.78,303.279,280.628,306.519,301.029,320.497z"/>
	</g>
	<g>
		<path style="fill:#0288D1;"
			  d="M416.261,198.697c-13.028-11.138-27.232-20.936-42.385-29.203l-7.388,7.388    c10.471,6.54,20.429,13.825,29.774,21.814c9.055,7.741,8.317,21.88-1.529,28.533c6.982,4.781,16.543,3.922,22.655-2.19v0    C424.802,217.626,424.231,205.511,416.261,198.697z"/>
	</g>
	<g>
		<path style="fill:#0288D1;"
			  d="M369.247,244.938c-13.418-10.761-28.395-19.651-44.53-26.284l-6.327,6.327    c10.973,5.621,21.316,12.306,30.857,19.957c9.462,7.589,8.937,22.091-1.089,28.871c7.054,4.744,16.544,3.917,22.64-2.178    C378.368,264.06,377.598,251.635,369.247,244.938z"/>
	</g>
	<g>
		<path style="fill:#0288D1;"
			  d="M321.515,291.148c-14.592-10.065-31.606-16.847-49.967-19.326l-3.48,3.48    c12.072,3.483,23.341,8.875,33.447,15.846c10.331,7.126,10.2,22.482-0.221,29.513c6.595,4.357,15.745,4.365,22.643-2.17    C331.817,310.612,330.688,297.475,321.515,291.148z"/>
	</g>
	<path style="fill:#FF7043;"
		  d="M437.077,75.038c-100.046-100.044-261.982-100.057-362.039,0   c-100.044,100.042-100.058,261.98,0,362.039c100.046,100.044,261.981,100.057,362.04,0   C537.121,337.031,537.135,175.096,437.077,75.038z M411.392,142.645c1.856-1.856,4.94-1.582,6.444,0.568   c54.271,77.582,45.249,184.719-22.326,252.297c-67.579,67.576-174.715,76.599-252.298,22.326c-2.15-1.504-2.423-4.589-0.568-6.444   L411.392,142.645z M94.274,368.912C5.205,241.953,93.085,58.843,256.057,58.843c40.925,0,79.777,12.225,112.855,35.431   c2.147,1.506,2.42,4.588,0.565,6.443L100.717,369.478C98.862,371.332,95.78,371.059,94.274,368.912z"/>
	<path style="fill:#E64A19;"
		  d="M349.926,17.756c141.317,87.019,164.005,282.465,47.152,399.321   c-74.64,74.638-183.463,93.269-274.888,57.282c97.36,59.953,228.457,49.147,314.888-37.282   C568.531,305.621,519.601,84.544,349.926,17.756z"/>
</g>















</svg>
