<svg width="72" height="72" viewBox="0 0 72 72" fill="none" xmlns="http://www.w3.org/2000/svg">
<circle cx="36" cy="36" r="36" fill="#D0D6EB"/>
<path d="M45 55.4999C45 55.8977 44.842 56.2793 44.5607 56.5606C44.2794 56.8419 43.8978 56.9999 43.5 56.9999H28.5C28.1022 56.9999 27.7206 56.8419 27.4393 56.5606C27.158 56.2793 27 55.8977 27 55.4999C27 55.1021 27.158 54.7205 27.4393 54.4392C27.7206 54.1579 28.1022 53.9999 28.5 53.9999H43.5C43.8978 53.9999 44.2794 54.1579 44.5607 54.4392C44.842 54.7205 45 55.1021 45 55.4999ZM52.5 31.4999C52.5065 34.0005 51.9416 36.4695 50.8484 38.7185C49.7553 40.9675 48.1628 42.937 46.1925 44.4768C45.8241 44.7592 45.5251 45.1221 45.3184 45.5377C45.1118 45.9533 45.0028 46.4107 45 46.8749V47.9999C45 48.7956 44.6839 49.5586 44.1213 50.1212C43.5587 50.6838 42.7957 50.9999 42 50.9999H30C29.2044 50.9999 28.4413 50.6838 27.8787 50.1212C27.3161 49.5586 27 48.7956 27 47.9999V46.8749C26.9997 46.4163 26.8942 45.9638 26.6917 45.5523C26.4892 45.1408 26.1951 44.7812 25.8319 44.5012C23.8665 42.9705 22.2751 41.0128 21.1781 38.7762C20.0811 36.5397 19.5072 34.0829 19.5 31.5918C19.4513 22.6555 26.6738 15.2137 35.6025 14.9999C37.8025 14.9469 39.9909 15.3345 42.0389 16.1399C44.0869 16.9454 45.9531 18.1523 47.5276 19.6898C49.1021 21.2273 50.3531 23.0642 51.2071 25.0924C52.061 27.1207 52.5006 29.2992 52.5 31.4999ZM46.4794 29.7487C46.0904 27.5761 45.0452 25.5748 43.4843 24.0143C41.9235 22.4538 39.922 21.409 37.7494 21.0205C37.5551 20.9878 37.3563 20.9936 37.1643 21.0377C36.9722 21.0818 36.7908 21.1633 36.6303 21.2775C36.4697 21.3917 36.3333 21.5364 36.2287 21.7034C36.1241 21.8703 36.0534 22.0563 36.0206 22.2505C35.9879 22.4448 35.9937 22.6436 36.0378 22.8356C36.0819 23.0277 36.1634 23.2091 36.2776 23.3696C36.3918 23.5302 36.5365 23.6666 36.7035 23.7712C36.8704 23.8758 37.0564 23.9465 37.2506 23.9793C40.3575 24.5024 42.9937 27.1387 43.5206 30.2512C43.58 30.6005 43.7611 30.9176 44.0319 31.1461C44.3027 31.3747 44.6456 31.5 45 31.4999C45.0848 31.4994 45.1694 31.4925 45.2531 31.4793C45.6452 31.4123 45.9946 31.1924 46.2246 30.8679C46.4546 30.5433 46.5462 30.1408 46.4794 29.7487Z" fill="#FBFDFF"/>
</svg>
