<svg width="48" height="48" viewBox="0 0 48 48" fill="none" xmlns="http://www.w3.org/2000/svg">
<g clip-path="url(#clip0_731_31028)">
<path d="M47.9991 14.1606C48.005 14.6163 47.8431 14.9962 47.5206 15.3172C46.4693 16.3634 45.4039 17.3963 44.3798 18.4697C43.7857 19.0919 42.7233 19.2259 41.9665 18.4918C41.937 18.4639 41.909 18.4351 41.8803 18.4064C37.7884 14.3145 33.6957 10.2225 29.6037 6.12979C28.9867 5.51283 28.8424 4.77145 29.2083 4.07129C29.2746 3.94466 29.3688 3.82686 29.4704 3.72526C30.5564 2.63343 31.6438 1.54308 32.7364 0.457137C33.3474 -0.150253 34.3686 -0.152462 34.9767 0.454928C39.174 4.6485 43.369 8.84427 47.564 13.0408C47.8733 13.35 48.0087 13.7292 48.0006 14.1613L47.9991 14.1606Z" fill="#9B9B9B"/>
<path d="M6.89194 47.9992C6.51352 48.0132 6.19841 47.8763 5.9319 47.6098C4.08764 45.7633 2.24044 43.919 0.396184 42.0718C-0.133166 41.5418 -0.130221 40.7179 0.393975 40.1937C0.918907 39.6688 1.73907 39.6681 2.27284 40.1937C2.49812 40.4153 2.71973 40.6406 2.94354 40.8637C3.10257 41.0227 3.25963 41.0252 3.41473 40.8711C4.43514 39.8506 5.45482 38.8302 6.47524 37.8105C7.15478 37.1317 8.01396 37.1288 8.68908 37.8024C9.20002 38.3119 9.71023 38.8221 10.2197 39.3331C10.8808 39.9964 10.8786 40.8622 10.2116 41.5292C9.18604 42.5555 8.15973 43.5811 7.13416 44.6074C6.98544 44.7561 6.98765 44.9073 7.14079 45.0609C7.36976 45.2906 7.60093 45.5181 7.82843 45.7493C8.20906 46.1366 8.31876 46.6991 8.1104 47.1894C7.89469 47.6989 7.44485 47.997 6.89268 47.9992H6.89194Z" fill="#9B9B9B"/>
<path fill-rule="evenodd" clip-rule="evenodd" d="M26.4494 22.5231L20.2593 16.6278C22.5815 14.3003 24.9064 11.9755 27.2342 9.65344C27.8622 9.02691 28.901 9.04532 29.5606 9.69026C29.921 10.0425 30.2761 10.3997 30.6313 10.7569C30.7906 10.9171 30.9499 11.0773 31.1097 11.2371C33.4943 13.6217 35.8797 16.0071 38.2651 18.3918C38.6133 18.74 38.8158 19.1486 38.8048 19.6308L38.8055 19.6316C38.8121 20.1035 38.6553 20.4871 38.3328 20.8081C37.1961 21.9411 36.0586 23.0749 34.93 24.2161C34.7746 24.3729 34.6914 24.3538 34.5412 24.2109C33.2565 22.9917 31.7274 22.296 29.9663 22.1105C28.7281 21.9803 27.5556 22.119 26.4494 22.5231Z" fill="#9B9B9B"/>
<path d="M6 8L42 42" stroke="#9B9B9B" stroke-linecap="round"/>
<path fill-rule="evenodd" clip-rule="evenodd" d="M23.8718 29.497C23.8605 29.6381 23.8547 29.7808 23.8547 29.9251C23.809 32.7949 26.1811 35.1869 29.037 35.1987C29.2981 35.1998 29.5546 35.1825 29.8055 35.1481L23.8718 29.497ZM34.3698 30.0665L28.7344 24.6994C28.8699 24.6894 29.0069 24.6844 29.1452 24.6846C32.0113 24.6875 34.3724 27.0714 34.371 29.9611C34.3709 29.9963 34.3706 30.0315 34.3698 30.0665Z" fill="#9B9B9B"/>
<path fill-rule="evenodd" clip-rule="evenodd" d="M17.3239 23.2607L21.6426 27.3738C21.4191 28.0175 21.2818 28.6917 21.227 29.3959C21.1269 30.6835 21.3345 31.9152 21.8417 33.0954C21.9529 33.3546 21.936 33.5173 21.7254 33.7256C19.8421 35.5905 17.9699 37.4672 16.0984 39.3438C15.784 39.6589 15.413 39.8224 15.0559 39.826V39.8268C14.5244 39.8275 14.1459 39.67 13.833 39.3563C13.4877 39.0111 13.1423 38.6659 12.7969 38.3207C11.4164 36.9411 10.0359 35.5614 8.65734 34.1799C8.01903 33.5401 8.01608 32.5705 8.65145 31.9337C11.5405 29.0411 14.4315 26.1506 17.3239 23.2607Z" fill="#9B9B9B"/>
</g>
<defs>
<clipPath id="clip0_731_31028">
<rect width="48" height="48" fill="white"/>
</clipPath>
</defs>
</svg>
