<svg width="72" height="72" viewBox="0 0 72 72" fill="none" xmlns="http://www.w3.org/2000/svg">
<circle cx="36" cy="36" r="36" fill="#D0D6EB"/>
<g clip-path="url(#clip0_1259_30663)">
<path d="M59.9991 26.1606C60.005 26.6163 59.8431 26.9962 59.5206 27.3172C58.4693 28.3634 57.4039 29.3963 56.3798 30.4697C55.7857 31.0919 54.7233 31.2259 53.9665 30.4918C53.937 30.4639 53.909 30.4351 53.8803 30.4064C49.7884 26.3145 45.6957 22.2225 41.6037 18.1298C40.9867 17.5128 40.8424 16.7714 41.2083 16.0713C41.2746 15.9447 41.3688 15.8269 41.4704 15.7253C42.5564 14.6334 43.6438 13.5431 44.7364 12.4571C45.3474 11.8497 46.3686 11.8475 46.9767 12.4549C51.174 16.6485 55.369 20.8443 59.564 25.0408C59.8733 25.35 60.0087 25.7292 60.0006 26.1613L59.9991 26.1606Z" fill="#FBFDFF"/>
<path d="M18.8919 59.9992C18.5135 60.0132 18.1984 59.8763 17.9319 59.6098C16.0876 57.7633 14.2404 55.919 12.3962 54.0718C11.8668 53.5418 11.8698 52.7179 12.394 52.1937C12.9189 51.6688 13.7391 51.6681 14.2728 52.1937C14.4981 52.4153 14.7197 52.6406 14.9435 52.8637C15.1026 53.0227 15.2596 53.0252 15.4147 52.8711C16.4351 51.8506 17.4548 50.8302 18.4752 49.8105C19.1548 49.1317 20.014 49.1288 20.6891 49.8024C21.2 50.3119 21.7102 50.8221 22.2197 51.3331C22.8808 51.9964 22.8786 52.8622 22.2116 53.5292C21.186 54.5555 20.1597 55.5811 19.1342 56.6074C18.9854 56.7561 18.9877 56.9073 19.1408 57.0609C19.3698 57.2906 19.6009 57.5181 19.8284 57.7493C20.2091 58.1366 20.3188 58.6991 20.1104 59.1894C19.8947 59.6989 19.4449 59.997 18.8927 59.9992H18.8919Z" fill="#FBFDFF"/>
<path fill-rule="evenodd" clip-rule="evenodd" d="M38.4494 34.5231L32.2593 28.6278C34.5815 26.3003 36.9064 23.9755 39.2342 21.6534C39.8622 21.0269 40.901 21.0453 41.5606 21.6903C41.921 22.0425 42.2761 22.3997 42.6313 22.7569C42.7906 22.9171 42.9499 23.0773 43.1097 23.2371C45.4943 25.6217 47.8797 28.0071 50.2651 30.3918C50.6133 30.74 50.8158 31.1486 50.8048 31.6308L50.8055 31.6316C50.8121 32.1035 50.6553 32.4871 50.3328 32.8081C49.1961 33.9411 48.0586 35.0749 46.93 36.2161C46.7746 36.3729 46.6914 36.3538 46.5412 36.2109C45.2565 34.9917 43.7274 34.296 41.9663 34.1105C40.7281 33.9803 39.5556 34.119 38.4494 34.5231Z" fill="#FBFDFF"/>
<path d="M18 20L54 54" stroke="#FBFDFF" stroke-linecap="round"/>
<path fill-rule="evenodd" clip-rule="evenodd" d="M35.8718 41.497C35.8605 41.6381 35.8547 41.7808 35.8547 41.9251C35.809 44.7949 38.1811 47.1869 41.037 47.1987C41.2981 47.1998 41.5546 47.1825 41.8055 47.1481L35.8718 41.497ZM46.3698 42.0665L40.7344 36.6994C40.8699 36.6894 41.0069 36.6844 41.1452 36.6846C44.0113 36.6875 46.3724 39.0714 46.371 41.9611C46.3709 41.9963 46.3706 42.0315 46.3698 42.0665Z" fill="#FBFDFF"/>
<path fill-rule="evenodd" clip-rule="evenodd" d="M29.3239 35.2607L33.6426 39.3738C33.4191 40.0175 33.2818 40.6917 33.227 41.3959C33.1269 42.6835 33.3345 43.9152 33.8417 45.0954C33.9529 45.3546 33.936 45.5173 33.7254 45.7256C31.8421 47.5905 29.9699 49.4672 28.0984 51.3438C27.784 51.6589 27.413 51.8224 27.0559 51.826V51.8268C26.5244 51.8275 26.1459 51.67 25.833 51.3563C25.4877 51.0111 25.1423 50.6659 24.7969 50.3207C23.4164 48.9411 22.0359 47.5614 20.6573 46.1799C20.019 45.5401 20.0161 44.5705 20.6514 43.9337C23.5405 41.0411 26.4315 38.1506 29.3239 35.2607Z" fill="#FBFDFF"/>
</g>
<defs>
<clipPath id="clip0_1259_30663">
<rect width="48" height="48" fill="white" transform="translate(12 12)"/>
</clipPath>
</defs>
</svg>
