<svg width="12" height="12" viewBox="0 0 12 12" fill="none" xmlns="http://www.w3.org/2000/svg">
    <path d="M10.3969 8.24719C10.1367 7.79906 9.75001 6.53109 9.75001 4.875C9.75001 3.88044 9.35492 2.92661 8.65166 2.22335C7.9484 1.52009 6.99457 1.125 6.00001 1.125C5.00544 1.125 4.05162 1.52009 3.34836 2.22335C2.64509 2.92661 2.25001 3.88044 2.25001 4.875C2.25001 6.53156 1.86282 7.79906 1.60266 8.24719C1.53623 8.36111 1.50101 8.49054 1.50055 8.62243C1.5001 8.75431 1.53443 8.88398 1.60008 8.99836C1.66574 9.11274 1.76039 9.20778 1.87449 9.27391C1.9886 9.34003 2.11812 9.3749 2.25001 9.375H4.16297C4.24949 9.79836 4.47958 10.1788 4.81432 10.4521C5.14906 10.7253 5.5679 10.8746 6.00001 10.8746C6.43211 10.8746 6.85096 10.7253 7.18569 10.4521C7.52043 10.1788 7.75052 9.79836 7.83704 9.375H9.75001C9.88185 9.37482 10.0113 9.33989 10.1254 9.27373C10.2394 9.20757 10.334 9.11252 10.3996 8.99815C10.4652 8.88379 10.4995 8.75415 10.499 8.62231C10.4985 8.49047 10.4633 8.36108 10.3969 8.24719ZM6.00001 10.125C5.76742 10.1249 5.54058 10.0528 5.35069 9.91846C5.16081 9.78415 5.01722 9.59428 4.93969 9.375H7.06032C6.98279 9.59428 6.8392 9.78415 6.64932 9.91846C6.45944 10.0528 6.23259 10.1249 6.00001 10.125ZM2.25001 8.625C2.61094 8.00437 3.00001 6.56625 3.00001 4.875C3.00001 4.07935 3.31608 3.31629 3.87869 2.75368C4.44129 2.19107 5.20436 1.875 6.00001 1.875C6.79566 1.875 7.55872 2.19107 8.12133 2.75368C8.68394 3.31629 9.00001 4.07935 9.00001 4.875C9.00001 6.56484 9.38813 8.00297 9.75001 8.625H2.25001Z"
          fill="#B9C2EB"/>
</svg>
