<svg width="12" height="12" viewBox="0 0 12 12" fill="none" xmlns="http://www.w3.org/2000/svg">
    <path d="M10.3968 8.24719C10.1367 7.79906 9.74995 6.53109 9.74995 4.875C9.74995 3.88044 9.35486 2.92661 8.6516 2.22335C7.94833 1.52009 6.99451 1.125 5.99995 1.125C5.00538 1.125 4.05156 1.52009 3.34829 2.22335C2.64503 2.92661 2.24995 3.88044 2.24995 4.875C2.24995 6.53156 1.86276 7.79906 1.6026 8.24719C1.53617 8.36111 1.50095 8.49054 1.50049 8.62243C1.50004 8.75431 1.53437 8.88398 1.60002 8.99836C1.66567 9.11274 1.76033 9.20778 1.87443 9.27391C1.98854 9.34003 2.11806 9.3749 2.24995 9.375H4.16291C4.24943 9.79836 4.47952 10.1788 4.81426 10.4521C5.149 10.7253 5.56784 10.8746 5.99995 10.8746C6.43205 10.8746 6.85089 10.7253 7.18563 10.4521C7.52037 10.1788 7.75046 9.79836 7.83698 9.375H9.74995C9.88179 9.37482 10.0113 9.33989 10.1253 9.27373C10.2393 9.20757 10.3339 9.11252 10.3995 8.99815C10.4651 8.88379 10.4994 8.75415 10.4989 8.62231C10.4985 8.49047 10.4632 8.36108 10.3968 8.24719ZM5.99995 10.125C5.76736 10.1249 5.54052 10.0528 5.35063 9.91846C5.16075 9.78415 5.01716 9.59428 4.93963 9.375H7.06026C6.98273 9.59428 6.83914 9.78415 6.64926 9.91846C6.45938 10.0528 6.23253 10.1249 5.99995 10.125ZM2.24995 8.625C2.61088 8.00437 2.99995 6.56625 2.99995 4.875C2.99995 4.07935 3.31602 3.31629 3.87862 2.75368C4.44123 2.19107 5.2043 1.875 5.99995 1.875C6.7956 1.875 7.55866 2.19107 8.12127 2.75368C8.68388 3.31629 8.99995 4.07935 8.99995 4.875C8.99995 6.56484 9.38807 8.00297 9.74995 8.625H2.24995Z"
          fill="#B9C2EB"/>
</svg>
