<svg width="20" height="20" viewBox="0 0 20 20" fill="none" xmlns="http://www.w3.org/2000/svg">
    <path d="M17.3281 13.7453C16.8945 12.9984 16.2499 10.8852 16.2499 8.125C16.2499 6.4674 15.5915 4.87769 14.4194 3.70558C13.2473 2.53348 11.6576 1.875 9.99995 1.875C8.34235 1.875 6.75263 2.53348 5.58053 3.70558C4.40843 4.87769 3.74995 6.4674 3.74995 8.125C3.74995 10.8859 3.10464 12.9984 2.67104 13.7453C2.56032 13.9352 2.50162 14.1509 2.50086 14.3707C2.50011 14.5905 2.55733 14.8066 2.66674 14.9973C2.77616 15.1879 2.93392 15.3463 3.12409 15.4565C3.31427 15.5667 3.53015 15.6248 3.74995 15.625H6.93823C7.08243 16.3306 7.46591 16.9647 8.0238 17.4201C8.5817 17.8756 9.27977 18.1243 9.99995 18.1243C10.7201 18.1243 11.4182 17.8756 11.9761 17.4201C12.534 16.9647 12.9175 16.3306 13.0617 15.625H16.2499C16.4697 15.6247 16.6855 15.5665 16.8755 15.4562C17.0656 15.346 17.2232 15.1875 17.3326 14.9969C17.4419 14.8063 17.499 14.5903 17.4983 14.3705C17.4975 14.1508 17.4388 13.9351 17.3281 13.7453ZM9.99995 16.875C9.61231 16.8749 9.23423 16.7546 8.91776 16.5308C8.60129 16.3069 8.36198 15.9905 8.23276 15.625H11.7671C11.6379 15.9905 11.3986 16.3069 11.0821 16.5308C10.7657 16.7546 10.3876 16.8749 9.99995 16.875ZM3.74995 14.375C4.35151 13.3406 4.99995 10.9438 4.99995 8.125C4.99995 6.79892 5.52673 5.52715 6.46442 4.58947C7.4021 3.65178 8.67387 3.125 9.99995 3.125C11.326 3.125 12.5978 3.65178 13.5355 4.58947C14.4732 5.52715 14.9999 6.79892 14.9999 8.125C14.9999 10.9414 15.6468 13.3383 16.2499 14.375H3.74995Z"
          fill="#818594"/>
</svg>
