<svg width="72" height="72" viewBox="0 0 72 72" fill="none" xmlns="http://www.w3.org/2000/svg">
<circle cx="36" cy="36" r="36" fill="#323334"/>
<path d="M44.9998 55.4999C44.9998 55.8977 44.8417 56.2793 44.5604 56.5606C44.2791 56.8419 43.8976 56.9999 43.4998 56.9999H28.4998C28.1019 56.9999 27.7204 56.8419 27.4391 56.5606C27.1578 56.2793 26.9998 55.8977 26.9998 55.4999C26.9998 55.1021 27.1578 54.7205 27.4391 54.4392C27.7204 54.1579 28.1019 53.9999 28.4998 53.9999H43.4998C43.8976 53.9999 44.2791 54.1579 44.5604 54.4392C44.8417 54.7205 44.9998 55.1021 44.9998 55.4999ZM52.4998 31.4999C52.5062 34.0005 51.9413 36.4695 50.8482 38.7185C49.755 40.9675 48.1626 42.937 46.1923 44.4768C45.8238 44.7592 45.5249 45.1221 45.3182 45.5377C45.1115 45.9533 45.0026 46.4107 44.9998 46.8749V47.9999C44.9998 48.7956 44.6837 49.5586 44.1211 50.1212C43.5585 50.6838 42.7954 50.9999 41.9998 50.9999H29.9998C29.2041 50.9999 28.441 50.6838 27.8784 50.1212C27.3158 49.5586 26.9998 48.7956 26.9998 47.9999V46.8749C26.9994 46.4163 26.894 45.9638 26.6915 45.5523C26.489 45.1408 26.1948 44.7812 25.8316 44.5012C23.8663 42.9705 22.2748 41.0128 21.1778 38.7762C20.0808 36.5397 19.507 34.0829 19.4998 31.5918C19.451 22.6555 26.6735 15.2137 35.6023 14.9999C37.8023 14.9469 39.9907 15.3345 42.0387 16.1399C44.0867 16.9454 45.9528 18.1523 47.5273 19.6898C49.1019 21.2273 50.3529 23.0642 51.2069 25.0924C52.0608 27.1207 52.5004 29.2992 52.4998 31.4999ZM46.4791 29.7487C46.0902 27.5761 45.0449 25.5748 43.4841 24.0143C41.9233 22.4538 39.9218 21.409 37.7491 21.0205C37.5549 20.9878 37.356 20.9936 37.164 21.0377C36.972 21.0818 36.7905 21.1633 36.63 21.2775C36.4695 21.3917 36.333 21.5364 36.2284 21.7034C36.1238 21.8703 36.0531 22.0563 36.0204 22.2505C35.9876 22.4448 35.9935 22.6436 36.0376 22.8356C36.0816 23.0277 36.1631 23.2091 36.2773 23.3696C36.3916 23.5302 36.5363 23.6666 36.7032 23.7712C36.8702 23.8758 37.0561 23.9465 37.2504 23.9793C40.3573 24.5024 42.9935 27.1387 43.5204 30.2512C43.5797 30.6005 43.7609 30.9176 44.0316 31.1461C44.3024 31.3747 44.6454 31.5 44.9998 31.4999C45.0845 31.4994 45.1691 31.4925 45.2529 31.4793C45.645 31.4123 45.9944 31.1924 46.2244 30.8679C46.4543 30.5433 46.546 30.1408 46.4791 29.7487Z" fill="#83858E"/>
</svg>
