<svg width="16" height="16" viewBox="0 0 16 16" fill="none" xmlns="http://www.w3.org/2000/svg">
    <path d="M8.6 4.66667L7.93068 3.17928C7.73804 2.7512 7.64172 2.53715 7.49802 2.38078C7.37095 2.24249 7.21779 2.13732 7.04964 2.07287C6.8595 2 6.64412 2 6.21338 2H3.92C3.24794 2 2.91191 2 2.65521 2.14532C2.42942 2.27316 2.24584 2.47713 2.13079 2.72801C2 3.01323 2 3.3866 2 4.13333V4.66667M2 4.66667H11.12C12.1281 4.66667 12.6321 4.66667 13.0172 4.88465C13.3559 5.0764 13.6312 5.38236 13.8038 5.75869C14 6.18651 14 6.74656 14 7.86667V10.8C14 11.9201 14 12.4802 13.8038 12.908C13.6312 13.2843 13.3559 13.5903 13.0172 13.782C12.6321 14 12.1281 14 11.12 14H4.88C3.87191 14 3.36786 14 2.98282 13.782C2.64413 13.5903 2.36876 13.2843 2.19619 12.908C2 12.4802 2 11.9201 2 10.8V4.66667ZM9.2 11L10.7 9.33333L9.2 7.66667M6.8 7.66667L5.3 9.33333L6.8 11"
          stroke="#DADADA" stroke-linecap="round" stroke-linejoin="round"/>
</svg>
