<svg width="12" height="12" viewBox="0 0 12 12" fill="none" xmlns="http://www.w3.org/2000/svg">
    <g clip-path="url(#clip0_1007_206860)">
        <path d="M7.68563 2.44884L6 3.42225L7.68563 4.39528V2.44884Z" fill="#4695EB"/>
        <path d="M4.31436 2.44884V4.39566L5.99999 3.42225L4.31436 2.44884Z" fill="#FF004A"/>
        <path d="M7.68561 4.39566L5.99999 3.42225L4.31436 4.39528L5.99999 5.36906L7.68561 4.39566Z" fill="#091313"/>
        <path d="M2.53677 5.52797L4.2224 6.501V4.55456L2.53677 5.52797Z" fill="#4695EB"/>
        <path d="M4.2225 8.44781L5.90841 7.47441L4.2225 6.501V8.44781Z" fill="#FF004A"/>
        <path d="M4.2225 4.55456V6.501L5.90841 7.47441V5.52797L4.2225 4.55456Z" fill="#091313"/>
        <path d="M7.77749 8.44781V6.50091L6.09167 7.47441L7.77749 8.44781Z" fill="#4695EB"/>
        <path d="M9.46321 5.52797L7.77759 4.55456V6.501L9.46321 5.52797Z" fill="#FF004A"/>
        <path d="M6.09158 7.47441L7.77749 6.501V4.55456L6.09158 5.52797V7.47441Z" fill="#091313"/>
        <path d="M9.6584 0.525188H2.34158C1.34221 0.525188 0.525177 1.34213 0.525177 2.34159V9.65841C0.525177 10.6578 1.34211 11.4748 2.34158 11.4748H7.35243L5.99999 8.18953L5.01852 10.2642H2.34158C2.01346 10.2642 1.73586 9.98653 1.73586 9.65841V2.34159C1.73586 2.01347 2.01336 1.73588 2.34149 1.73588H9.65877C9.9869 1.73588 10.2645 2.01338 10.2645 2.3415V9.65841C10.2645 9.98653 9.98699 10.2641 9.65886 10.2641H8.07093L8.5693 11.4748H9.6584C10.6578 11.4748 11.4748 10.6579 11.4748 9.65841V2.34159C11.4748 1.34222 10.6579 0.525188 9.6584 0.525188Z" fill="#4695EB"/>
    </g>
    <defs>
        <clipPath id="clip0_1007_206860">
            <rect width="12" height="12" fill="white"/>
        </clipPath>
    </defs>
</svg>
