<svg width="16" height="16" viewBox="0 0 16 16" fill="none" xmlns="http://www.w3.org/2000/svg">
    <g clip-path="url(#clip0_456_17932)">
        <path fill-rule="evenodd" clip-rule="evenodd"
              d="M5.90506 0.280021C7.47833 -0.147156 9.14455 -0.0834895 10.6806 0.462495C12.2167 1.00848 13.5493 2.01072 14.5001 3.33502V1C15.5 1 15.5 1 16.0001 1V6.00002H11C11 5.5 11 5 11 4.50002H13.4771C12.6937 3.27451 11.522 2.34713 10.1493 1.86625C8.77665 1.38537 7.28235 1.37877 5.90548 1.84752C4.52861 2.31626 3.34874 3.23325 2.55461 4.4518C1.76049 5.67035 1.39801 7.12003 1.52516 8.56893C1.65231 10.0178 2.26174 11.3822 3.25595 12.4438C4.25017 13.5055 5.57172 14.2029 7.00918 14.4247C8.44665 14.6465 9.91696 14.3797 11.1849 13.6671C12.4528 12.9545 13.4451 11.8372 14.0031 10.494C15.3881 11.069 14 10.5 15.3881 11.069C14.8669 12.3236 14.0348 13.4247 12.9703 14.2687C11.9057 15.1126 10.6438 15.6716 9.30348 15.8929C7.96313 16.1142 6.58851 15.9906 5.30919 15.5336C4.02986 15.0766 2.88797 14.3014 1.99117 13.281C1.09436 12.2606 0.472175 11.0286 0.183259 9.70118C-0.105657 8.37377 -0.0517856 6.99464 0.339795 5.69381C0.731375 4.39298 1.44777 3.21329 2.42144 2.26595C3.39511 1.3186 4.59398 0.635808 5.90506 0.280021Z"
              fill="#4D668A"/>
    </g>
    <defs>
        <clipPath id="clip0_456_17932">
            <rect width="16" height="16" fill="#4D668A"/>
        </clipPath>
    </defs>
</svg>
