<svg width="16" height="16" viewBox="0 0 16 16" fill="none" xmlns="http://www.w3.org/2000/svg">
<path d="M8 2.5C7.0335 2.5 6.25 3.2835 6.25 4.25C6.25 5.2165 7.0335 6 8 6C8.9665 6 9.75 5.2165 9.75 4.25C9.75 3.2835 8.9665 2.5 8 2.5Z" stroke="#DADADA" stroke-linecap="round" stroke-linejoin="round"/>
<path d="M4.25 10C3.2835 10 2.5 10.7835 2.5 11.75C2.5 12.7165 3.2835 13.5 4.25 13.5C5.2165 13.5 6 12.7165 6 11.75C6 10.7835 5.2165 10 4.25 10Z" stroke="#DADADA" stroke-linecap="round" stroke-linejoin="round"/>
<path d="M11.75 10C10.7835 10 10 10.7835 10 11.75C10 12.7165 10.7835 13.5 11.75 13.5C12.7165 13.5 13.5 12.7165 13.5 11.75C13.5 10.7835 12.7165 10 11.75 10Z" stroke="#DADADA" stroke-linecap="round" stroke-linejoin="round"/>
<path d="M11.75 10L11.75 9.5C11.7508 9.30279 11.7126 9.10736 11.6375 8.925C11.5624 8.74264 11.4519 8.57695 11.3125 8.4375C11.173 8.29804 11.0074 8.18759 10.825 8.1125C10.6426 8.03741 10.4472 7.99917 10.25 8L5.74999 8C5.55277 7.99917 5.35735 8.03741 5.17499 8.1125C4.99262 8.18758 4.82694 8.29804 4.68748 8.4375C4.54803 8.57695 4.43757 8.74264 4.36248 8.925C4.28739 9.10736 4.24916 9.30278 4.24999 9.5L4.24999 10" stroke="#DADADA" stroke-linecap="round" stroke-linejoin="round"/>
<path d="M8 8L8 6" stroke="#DADADA" stroke-linecap="round" stroke-linejoin="round"/>
</svg>
