<?xml version="1.0" encoding="UTF-8" standalone="no"?>
<!-- Created with Inkscape (http://www.inkscape.org/) -->

<svg
        width="3.96874mm"
        height="5.2916698mm"
        viewBox="0 0 3.96874 5.2916698"
        version="1.1"
        id="svg5"
        xml:space="preserve"
        xmlns="http://www.w3.org/2000/svg"
><defs
     id="defs2" /><path
     id="rect4314"
     style="fill:#9da3a8;stroke-width:0.635265;stroke-linecap:round;stroke-linejoin:round"
     d="m 0.39687,0 c -0.52916,0 -0.52916,0.52917 0,0.52917 1e-5,2.11665 0.79375,1.5875 0.79375,2.11666 0,0.52916 -0.79374,0 -0.79375,2.11667 -0.52916,0 -0.52916,0.52917 0,0.52917 h 3.175 c 0.52916,0 0.52916,-0.52917 0,-0.52917 0,-2.11667 -0.79375,-1.58751 -0.79375,-2.11667 0,-0.52916 0.79375,-1e-5 0.79375,-2.11666 C 4.10103,0.52917 4.10103,0 3.57187,0 Z M 0.92603,0.52917 H 3.0427 c 0,0 0.52916,1.05833 -0.52917,1.83296 -0.26459,0.2837 -0.26459,0.2837 0,0.56741 C 3.57186,3.70417 3.0427,4.7625 3.0427,4.7625 H 0.92603 c 0,0 -0.52916,-1.05833 0.52917,-1.83296 0.26458,-0.28371 0.26458,-0.28371 0,-0.54829 C 0.39687,1.5875 0.92603,0.52917 0.92603,0.52917 Z m 1.05834,3.30057 c -0.18956,0 -0.37913,0.0463 -0.52917,0.13901 C 1.28742,4.07243 0.92603,4.23333 1.19062,4.49792 h 1.5875 C 3.0427,4.23333 2.68132,4.07243 2.51353,3.96875 2.36349,3.87605 2.17393,3.82974 1.98437,3.82974 Z" /></svg>
