<svg xmlns="http://www.w3.org/2000/svg" xml:space="preserve" viewBox="0 0 3.969 5.292"><path d="M.397 0c-.53 0-.53.53 0 .53 0 2.116.794 1.587.794 2.116 0 .529-.794 0-.794 2.117-.53 0-.53.529 0 .529h3.175c.529 0 .529-.53 0-.53 0-2.116-.794-1.587-.794-2.116 0-.53.794 0 .794-2.117C4.1.53 4.1 0 3.572 0Zm.529.53h2.117s.529 1.058-.53 1.832c-.264.284-.264.284 0 .568 1.059.774.53 1.833.53 1.833H.926s-.53-1.059.53-1.833c.264-.284.264-.284 0-.549C.395 1.588.925.53.925.53Zm1.058 3.3c-.19 0-.379.046-.529.139-.168.103-.529.264-.264.529h1.587c.265-.265-.097-.426-.264-.53a1.02 1.02 0 0 0-.53-.138Z" style="fill:#9da3a8;stroke-width:.635265;stroke-linecap:round;stroke-linejoin:round"/></svg>