<?xml version="1.0" encoding="UTF-8" standalone="no"?>
<!-- Created with Inkscape (http://www.inkscape.org/) -->

<svg
   width="3.9687347mm"
   height="5.2916718mm"
   viewBox="0 0 3.9687347 5.2916718"
   version="1.1"
   id="svg5"
   xml:space="preserve"
   inkscape:version="1.2 (dc2aedaf03, 2022-05-15)"
   sodipodi:docname="small-icons-demo.svg"
   xmlns:inkscape="http://www.inkscape.org/namespaces/inkscape"
   xmlns:sodipodi="http://sodipodi.sourceforge.net/DTD/sodipodi-0.dtd"
   xmlns="http://www.w3.org/2000/svg"
   xmlns:svg="http://www.w3.org/2000/svg"><sodipodi:namedview
     id="namedview7"
     pagecolor="#ffffff"
     bordercolor="#000000"
     borderopacity="0.25"
     inkscape:showpageshadow="2"
     inkscape:pageopacity="0.0"
     inkscape:pagecheckerboard="0"
     inkscape:deskcolor="#d1d1d1"
     inkscape:document-units="mm"
     showgrid="true"
     inkscape:zoom="0.99999999"
     inkscape:cx="486"
     inkscape:cy="468"
     inkscape:window-width="1920"
     inkscape:window-height="1009"
     inkscape:window-x="1912"
     inkscape:window-y="-8"
     inkscape:window-maximized="1"
     inkscape:current-layer="svg5"><inkscape:grid
       type="xygrid"
       id="grid5748"
       visible="false"
       snapvisiblegridlinesonly="false" /></sodipodi:namedview><defs
     id="defs2" /><path
     id="rect4314"
     style="fill:#9da3a8;stroke-width:0.635265;stroke-linecap:round;stroke-linejoin:round"
     d="m 0.39687257,7.4478431e-6 c -0.52916,0 -0.52916,0.5291700021569 0,0.5291700021569 1e-5,2.11664995 0.79375003,1.58749995 0.79375003,2.11665995 0,0.52916 -0.79374003,0 -0.79375003,2.11667 -0.52916,0 -0.52916,0.52917 0,0.52917 H 3.5718726 c 0.52916,0 0.52916,-0.52917 0,-0.52917 0,-2.11667 -0.79375,-1.58751 -0.79375,-2.11667 0,-0.52916 0.79375,-1e-5 0.79375,-2.11665995 0.52916,0 0.52916,-0.5291700021569 0,-0.5291700021569 z M 0.92603257,0.52917745 H 3.0427026 c 0,0 0.52916,1.05832995 -0.52917,1.83295995 -0.26459,0.2837 -0.26459,0.2837 0,0.56741 1.05833,0.77463 0.52917,1.83296 0.52917,1.83296 H 0.92603257 c 0,0 -0.52916,-1.05833 0.52917003,-1.83296 0.26458,-0.28371 0.26458,-0.28371 0,-0.54829 C 0.39687257,1.5875074 0.92603257,0.52917745 0.92603257,0.52917745 Z M 1.9843726,3.8297474 c -0.18956,0 -0.37913,0.0463 -0.52917,0.13901 -0.16778,0.10368 -0.52917003,0.26458 -0.26458,0.52917 h 1.5875 c 0.26458,-0.26459 -0.0968,-0.42549 -0.26459,-0.52917 -0.15004,-0.0927 -0.3396,-0.13901 -0.52916,-0.13901 z"
     inkscape:label="SandWatch" /></svg>
