<svg xmlns="http://www.w3.org/2000/svg" xml:space="preserve" viewBox="0 0 5.292 4.762"><path d="M15.478-128.814v.541a1.587 1.587 0 0 1 1.14 1.14h.542a2.117 2.117 0 0 0-1.682-1.681zm-.793 0a2.117 2.117 0 0 0-1.681 1.681h.541a1.587 1.587 0 0 1 1.14-1.139zm.396 1.55a.53.53 0 0 0-.529.529.53.53 0 0 0 .53.529.53.53 0 0 0 .528-.53.53.53 0 0 0-.529-.529zm-2.077.926a2.117 2.117 0 0 0 1.68 1.68v-.541a1.587 1.587 0 0 1-1.139-1.14zm3.614 0a1.587 1.587 0 0 1-1.14 1.14v.54a2.117 2.117 0 0 0 1.68-1.68zM15.1-112.087c-.248.003-.502.184-.51.46l.227 2.619c0 .27-.006.283.264.283.271 0 .265-.013.265-.283l.226-2.62c-.038-.327-.253-.462-.472-.459zm-1.148.761a2.117 2.117 0 0 0-.367.292 2.117 2.117 0 0 0 0 2.993 2.117 2.117 0 0 0 .367.292v-.673a1.588 1.588 0 0 1 0-2.23zm2.258 0v.673a1.588 1.588 0 0 1 0 2.231v.673a2.117 2.117 0 0 0 .368-.292 2.117 2.117 0 0 0 0-2.993 2.117 2.117 0 0 0-.368-.292zm-1.129 3.111a.53.53 0 0 0-.529.53.53.53 0 0 0 .53.529.53.53 0 0 0 .528-.53.53.53 0 0 0-.529-.529z" style="fill:#ed4646;stroke-width:0;stroke-linecap:round;stroke-linejoin:round"/><path d="M212.742 92.941a2.381 2.381 0 0 0-.546 1.515 2.381 2.381 0 0 0 .546 1.515l.346-.416a1.852 1.852 0 0 1-.363-1.099 1.852 1.852 0 0 1 .363-1.099zm3.67 0-.346.416a1.852 1.852 0 0 1 .363 1.1 1.852 1.852 0 0 1-.363 1.098l.347.416a2.381 2.381 0 0 0 .545-1.515 2.381 2.381 0 0 0-.545-1.515z" style="display:inline;fill:#adadad;fill-opacity:1;stroke:none;stroke-width:.635266;stroke-linecap:round;stroke-linejoin:round;stroke-dasharray:none;stroke-opacity:1" transform="translate(-199.76 -156.104)"/><path d="m212.725 92.34.794 1.058v2.117l-.794 1.058.265.53 1.058-1.588v-2.117l-1.058-1.588zm3.44-.53-1.059 1.588v2.117l1.059 1.587.264-.53-.794-1.057v-2.117l.794-1.058z" style="display:inline;fill:#c79250;fill-opacity:1;stroke:none;stroke-width:.907514;stroke-linecap:round;stroke-linejoin:round;stroke-dasharray:none;stroke-opacity:1" transform="translate(-199.76 -156.104)"/><path d="M14.817-41.01s-.53 2.38-.53 2.645c0 .265.28.53.53.53s.529-.265.529-.53c0-.264-.53-2.645-.53-2.645zm-.598.342a2.381 2.381 0 0 0-1.784 2.303 2.381 2.381 0 0 0 .34 1.225l.454-.272a1.852 1.852 0 0 1-.264-.953 1.852 1.852 0 0 1 1.134-1.706zm1.196 0 .119.597a1.852 1.852 0 0 1 1.135 1.706 1.852 1.852 0 0 1-.264.953l.453.272a2.381 2.381 0 0 0 .34-1.225 2.381 2.381 0 0 0-1.783-2.303z" style="fill:#5eeb9d;stroke-width:.571737;stroke-linecap:round;stroke-linejoin:round"/><path d="M14.589-36.444a2.381 2.381 0 0 0-1.706.722l.574.194a1.852 1.852 0 0 1 1.132-.387 1.852 1.852 0 0 1 1.852 1.852 1.852 1.852 0 0 1-.267.959l.455.27a2.381 2.381 0 0 0 .341-1.229 2.381 2.381 0 0 0-2.381-2.38zm-2.328 1.06s1.797 1.65 2.027 1.782c.229.132.597.022.722-.194s.036-.59-.193-.723c-.23-.132-2.556-.864-2.556-.864zm.03.704a2.381 2.381 0 0 0-.083.617 2.381 2.381 0 0 0 .34 1.225L13-33.11a1.852 1.852 0 0 1-.264-.953 1.852 1.852 0 0 1 .013-.213z" style="display:inline;fill:#5eadeb;fill-opacity:1;stroke-width:.571737;stroke-linecap:round;stroke-linejoin:round"/><path d="M14.817-32.28a2.381 2.381 0 0 0-2.382 2.382 2.381 2.381 0 0 0 .339 1.222l.452-.274a1.852 1.852 0 0 1-.261-.948 1.852 1.852 0 0 1 1.852-1.852 1.852 1.852 0 0 1 1.107.369l.58-.196a2.381 2.381 0 0 0-1.687-.702zm2.305 1.067s-2.326.733-2.555.865c-.23.132-.319.507-.194.723.124.216.494.326.723.194.229-.133 2.026-1.782 2.026-1.782zm-.017.664-.454.4a1.852 1.852 0 0 1 .018.251 1.852 1.852 0 0 1-.264.953l.453.272a2.381 2.381 0 0 0 .34-1.225 2.381 2.381 0 0 0-.093-.65z" style="display:inline;fill:#ed4646;fill-opacity:1;stroke-width:.571737;stroke-linecap:round;stroke-linejoin:round"/><path d="M13.758-.53v.265l.53.265h1.058l.529-.265v-.264zm-.793.795-.53.529.644.644a2.117 2.117 0 0 0-.379 1.208 2.117 2.117 0 0 0 2.117 2.117 2.117 2.117 0 0 0 2.116-2.117 2.117 2.117 0 0 0-.379-1.208l.644-.644-.53-.53-.643.644a2.117 2.117 0 0 0-.68-.312V.265h-1.057v.333a2.117 2.117 0 0 0-.68.31zm1.852.793a1.587 1.587 0 0 1 1.587 1.588 1.587 1.587 0 0 1-1.587 1.587 1.587 1.587 0 0 1-1.588-1.587 1.587 1.587 0 0 1 1.588-1.588zm.264.53-.529.264V2.91h1.323l-.265-.529h-.529z" style="fill:#9da3a8;fill-opacity:1;stroke-width:.635265;stroke-linecap:round;stroke-linejoin:round"/><path d="M7.144-.53c-.53 0-.53.53 0 .53 0 2.117.794 1.588.794 2.117 0 .529-.794 0-.794 2.116-.53 0-.53.53 0 .53h3.175c.529 0 .529-.53 0-.53 0-2.116-.794-1.587-.794-2.116 0-.53.794 0 .794-2.117.529 0 .529-.53 0-.53zm.529.53H9.79s.529 1.058-.53 1.833c-.264.284-.264.284 0 .567 1.059.775.53 1.833.53 1.833H7.673s-.53-1.058.53-1.833c.264-.283.264-.283 0-.548C7.142 1.058 7.672 0 7.672 0ZM8.73 3.3c-.19 0-.379.047-.529.14-.168.103-.53.264-.264.529h1.587c.265-.265-.097-.426-.265-.53a1.02 1.02 0 0 0-.529-.138z" style="fill:#9da3a8;stroke-width:.635265;stroke-linecap:round;stroke-linejoin:round"/><path d="M-20.627.265a.269.269 0 0 0-.124.027c-.355.178-.528.517-.608.82a2.46 2.46 0 0 0-.068.757.266.266 0 0 0 .008.048l-.03.042A1.95 1.95 0 0 0-22.914.34a1.807 1.807 0 0 0-1.429.23c-.749.486-1.031 1.52-.512 2.285.429.633 1.327.869 1.984.403.523-.37.716-1.131.298-1.671-.315-.408-.946-.554-1.373-.178a.78.78 0 0 0-.262.5.655.655 0 0 0 .218.573.542.542 0 0 0 .385.13.446.446 0 0 0 .238-.071.43.43 0 0 0 .171-.245.254.254 0 0 0-.188-.308.256.256 0 0 0-.252.11c-.012-.004-.028-.01-.022-.006-.039-.033-.05-.065-.043-.126a.308.308 0 0 1 .093-.176c.179-.158.48-.087.631.108.225.29.112.73-.19.945-.405.287-.987.134-1.264-.274-.349-.515-.152-1.236.367-1.573.63-.408 1.494-.168 1.892.458.18.284.257.626.226.96-.054.287-.008.45.159.511.112.042.274-.054.328-.15.055-.097.151-.17.237-.258.109-.112.177-.218.228-.283.051-.066.071-.083.1-.092.181-.062.296-.02.388.047.093.066.125.2.125.144v.027c-.006.003-.014.008-.029.014-.068.028-.248.046-.412.213-.196.2-.289.382-.348.525-.058.144-.086.237-.195.385-.147.2-.32.332-.564.332l-2.938.002a.264.264 0 0 0 0 .53l2.938-.002c.446 0 .782-.266.99-.55.15-.204.21-.375.26-.495a.906.906 0 0 1 .234-.356c.009-.009.087-.035.234-.095a.581.581 0 0 0 .246-.172.58.58 0 0 0 .114-.358c0-.253-.139-.427-.348-.576a.89.89 0 0 0-.172-.095c.065-.112.12-.21.166-.269.054-.068.06-.07.1-.07a.265.265 0 1 0 0-.529c-.226 0-.407.136-.514.27-.107.134-.174.274-.242.388a.264.264 0 0 0-.035.1c.007-.098.022-.204.048-.305.058-.219.158-.395.333-.483a.265.265 0 0 0-.113-.5zm-.271 1.325v.01-.01z" style="color:#000;fill:#c79250;stroke-linecap:round;stroke-linejoin:round"/><path d="M188.912 157.956a1.058 1.058 0 0 0-1.058 1.059h.53a.53.53 0 0 1 .528-.53.53.53 0 0 1 .53.53h.529a1.058 1.058 0 0 0-1.059-1.059zm-.698 1.852a1.058 1.058 0 0 0 .699.265 1.058 1.058 0 0 0 .698-.265z" style="opacity:.98615;fill:#9ca2a7;fill-opacity:1;stroke-width:1.538;stroke-linecap:round;stroke-linejoin:round" transform="translate(-186.267 -156.104)"/><path d="M186.267 156.104v.265l.264.264h1.323v.53h-.529l-1.058 1.322v1.852h.793v.53h.794v-.53h2.117v.53h.794v-.53h.793v-1.852l-1.058-1.322h-.53v-.53h1.324l.264-.264v-.265zm2.116.53h1.059v1.058h.793l.794 1.058v1.058h-4.235l.002-1.058.794-1.058h.793z" style="color:#000;opacity:.98615;fill:#c79250;fill-opacity:1;stroke-linecap:round;stroke-miterlimit:3.9;paint-order:fill markers stroke" transform="translate(-186.267 -156.104)"/><path d="m187.325 160.602.265-.53h1.058v-3.968h-1.058l.793 1.588-.793.264h-.265l-.794-.264.794-1.588h-1.058v-.529h5.291v.53H190.5l.794 1.587-.794.264h-.265l-.793-.264.793-1.588h-1.058v3.969h1.058l.265.53z" style="opacity:.98615;fill:#9ca2a7;fill-opacity:1;stroke:none;stroke-width:1.05833;stroke-linecap:square;stroke-linejoin:miter;stroke-miterlimit:3.9;stroke-dasharray:none;stroke-opacity:1;paint-order:fill markers stroke" transform="translate(-199.76 -156.104)"/></svg>