<svg width="12" height="12" viewBox="0 0 12 12" fill="none" xmlns="http://www.w3.org/2000/svg">
<g clip-path="url(#clip0_809_27292)">
<path d="M2.5238 7.56178C2.5238 8.25703 1.96191 8.81897 1.26666 8.81897C0.571412 8.81897 0.00952148 8.25703 0.00952148 7.56178C0.00952148 6.86658 0.571412 6.30469 1.26671 6.30469H2.52376V7.56183L2.5238 7.56178ZM3.1524 7.56178C3.1524 6.86658 3.71429 6.30469 4.40954 6.30469C5.10479 6.30469 5.66668 6.86658 5.66668 7.56183V10.7047C5.66668 11.3999 5.10479 11.9618 4.40949 11.9618C3.71433 11.9618 3.1524 11.3999 3.1524 10.7047V7.56178Z" fill="#E01E5A"/>
<path d="M4.40953 2.51428C3.71428 2.51428 3.15234 1.95239 3.15234 1.25714C3.15234 0.561891 3.71433 0 4.40953 0C5.10473 0 5.66667 0.561891 5.66667 1.25714V2.51433H4.40948L4.40953 2.51428ZM4.40953 3.15239C5.10478 3.15239 5.66667 3.71428 5.66667 4.40953C5.66667 5.10478 5.10478 5.66667 4.40948 5.66667H1.25719C0.561891 5.66667 0 5.10478 0 4.40948C0 3.71433 0.561891 3.15239 1.25714 3.15239H4.40953Z" fill="#36C5F0"/>
<path d="M9.44768 4.40953C9.44768 3.71428 10.0096 3.15234 10.7048 3.15234C11.4 3.15234 11.962 3.71428 11.962 4.40953C11.962 5.10478 11.4 5.66667 10.7048 5.66667H9.44768V4.40953ZM8.81909 4.40953C8.81909 5.10478 8.25715 5.66667 7.5619 5.66667C6.8667 5.66667 6.30481 5.10478 6.30481 4.40948V1.25719C6.30481 0.561891 6.8667 0 7.5619 0C8.25711 0 8.81904 0.561891 8.81904 1.25714V4.40948L8.81909 4.40953Z" fill="#2EB67D"/>
<path d="M7.5619 9.44756C8.25715 9.44756 8.81909 10.0095 8.81909 10.7047C8.81909 11.3999 8.25715 11.9618 7.5619 11.9618C6.8667 11.9618 6.30481 11.3999 6.30481 10.7047V9.44756H7.5619ZM7.5619 8.81897C6.8667 8.81897 6.30481 8.25703 6.30481 7.56178C6.30481 6.86658 6.8667 6.30469 7.56195 6.30469H10.7143C11.4095 6.30469 11.9715 6.86658 11.9715 7.56183C11.9715 8.25703 11.4095 8.81897 10.7143 8.81897H7.5619Z" fill="#ECB22E"/>
</g>
<defs>
<clipPath id="clip0_809_27292">
<rect width="12" height="12" fill="white"/>
</clipPath>
</defs>
</svg>
