<svg width="13" height="12" viewBox="0 0 13 12" fill="none" xmlns="http://www.w3.org/2000/svg">
<g clip-path="url(#clip0_1903_11894)">
<path d="M3.0238 7.56178C3.0238 8.25703 2.46191 8.81897 1.76666 8.81897C1.07141 8.81897 0.509521 8.25703 0.509521 7.56178C0.509521 6.86658 1.07141 6.30469 1.76671 6.30469H3.02376V7.56183L3.0238 7.56178ZM3.6524 7.56178C3.6524 6.86658 4.21429 6.30469 4.90954 6.30469C5.60479 6.30469 6.16668 6.86658 6.16668 7.56183V10.7047C6.16668 11.3999 5.60479 11.9618 4.90949 11.9618C4.21433 11.9618 3.6524 11.3999 3.6524 10.7047V7.56178Z" fill="#E01E5A"/>
<path d="M4.90953 2.51428C4.21428 2.51428 3.65234 1.95239 3.65234 1.25714C3.65234 0.561891 4.21433 0 4.90953 0C5.60473 0 6.16667 0.561891 6.16667 1.25714V2.51433H4.90948L4.90953 2.51428ZM4.90953 3.15239C5.60478 3.15239 6.16667 3.71428 6.16667 4.40953C6.16667 5.10478 5.60478 5.66667 4.90948 5.66667H1.75719C1.06189 5.66667 0.5 5.10478 0.5 4.40948C0.5 3.71433 1.06189 3.15239 1.75714 3.15239H4.90953Z" fill="#36C5F0"/>
<path d="M9.94765 4.40953C9.94765 3.71428 10.5095 3.15234 11.2047 3.15234C11.9 3.15234 12.4619 3.71428 12.4619 4.40953C12.4619 5.10478 11.9 5.66667 11.2047 5.66667H9.94765V4.40953ZM9.31906 4.40953C9.31906 5.10478 8.75712 5.66667 8.06187 5.66667C7.36667 5.66667 6.80478 5.10478 6.80478 4.40948V1.25719C6.80478 0.561891 7.36667 0 8.06187 0C8.75708 0 9.31901 0.561891 9.31901 1.25714V4.40948L9.31906 4.40953Z" fill="#2EB67D"/>
<path d="M8.06187 9.44756C8.75712 9.44756 9.31906 10.0095 9.31906 10.7047C9.31906 11.3999 8.75712 11.9618 8.06187 11.9618C7.36667 11.9618 6.80478 11.3999 6.80478 10.7047V9.44756H8.06187ZM8.06187 8.81897C7.36667 8.81897 6.80478 8.25703 6.80478 7.56178C6.80478 6.86658 7.36667 6.30469 8.06192 6.30469H11.2143C11.9095 6.30469 12.4715 6.86658 12.4715 7.56183C12.4715 8.25703 11.9095 8.81897 11.2143 8.81897H8.06187Z" fill="#ECB22E"/>
</g>
<defs>
<clipPath id="clip0_1903_11894">
<rect width="12" height="12" fill="white" transform="translate(0.5)"/>
</clipPath>
</defs>
</svg>
