<?xml version="1.0" encoding="UTF-8" standalone="no"?>
<!-- Created with Inkscape (http://www.inkscape.org/) -->

<svg
        width="5.2906146mm"
        height="4.0963898mm"
        viewBox="0 0 5.2906146 4.0963898"
        version="1.1"
        id="svg5"
        xml:space="preserve"
        xmlns="http://www.w3.org/2000/svg"
><defs
     id="defs2" /><path
     id="path5772-5"
     style="color:#000000;fill:#c79250;stroke-linecap:round;stroke-linejoin:round"
     d="m 4.5022324,3.2e-4 c -0.043,-9.2e-4 -0.0856,0.009 -0.12403,0.0279 -0.35498,0.17749 -0.5277,0.51651 -0.60719,0.8201 -0.0795,0.30358 -0.0784,0.59068 -0.0682,0.75603 10e-4,0.0164 0.004,0.0327 0.008,0.0486 -0.011,0.0143 -0.0209,0.0282 -0.031,0.0419 -0.0411,-0.27383 -0.13766,-0.53947 -0.28887,-0.77773 -0.27204,-0.42869 -0.70273,-0.72423 -1.17512,-0.84129 v -5.2e-4 c -0.4724,-0.11706 -0.98696,-0.0547 -1.42781997,0.23099 -0.7491,0.48535 -1.03132,1.51862 -0.51263,2.2841 0.42897,0.6331 1.32734997,0.86906 1.98384997,0.4036 0.52306,-0.37085 0.71605,-1.13174 0.29818,-1.67174 -0.31513,-0.40721 -0.94586,-0.55307 -1.37253,-0.17776 -0.14769,0.1299 -0.23967997,0.30577 -0.26199997,0.50022 -0.0223,0.19446 0.0403,0.4228 0.21755997,0.57258 0.11242,0.095 0.23684,0.13507 0.38551,0.13074 0.0743,-0.002 0.1584,-0.019 0.23822,-0.0718 0.0799,-0.0526 0.14613,-0.14708 0.17054,-0.24495 0.0335,-0.1366 -0.0505,-0.27428 -0.18759,-0.30747 -0.0985,-0.0156 -0.19721,0.0274 -0.2527,0.11007 -0.0121,-0.004 -0.0277,-0.0109 -0.0217,-0.006 -0.0389,-0.0329 -0.0499,-0.0647 -0.0429,-0.1261 0.007,-0.0614 0.0471,-0.1363 0.0925,-0.17621 0.17903,-0.15749 0.48101,-0.0864 0.63148,0.108 0.22511,0.29089 0.11233,0.73087 -0.19017,0.94516 -0.40517,0.28726 -0.98731997,0.13447 -1.26399997,-0.27388 -0.34895,-0.51499 -0.15211,-1.23644 0.36741997,-1.57303 0.62975,-0.40802 1.49403,-0.16775 1.89136,0.45837 0.17961,0.28304 0.25746,0.62528 0.22634,0.96015 -0.0544,0.28601 -0.008,0.44844 0.1587,0.51056 0.11263,0.0419 0.27398,-0.0541 0.32856,-0.15039 0.0546,-0.0963 0.15084,-0.17067 0.23626,-0.25779 0.10936,-0.11152 0.17743,-0.21776 0.22841,-0.28319 0.051,-0.0654 0.0714,-0.0824 0.0997,-0.092 0.1815,-0.0617 0.29603,-0.0189 0.38861,0.047 0.0926,0.0659 0.12506,0.20037 0.12506,0.14418 0,0.0152 -6.6e-4,0.0226 -10e-4,0.0274 -0.005,0.003 -0.013,0.008 -0.0284,0.0139 -0.068,0.0277 -0.24837,0.0462 -0.41186,0.21291 -0.19584,0.19972 -0.28915,0.3815 -0.34778,0.52503 -0.0586,0.14352 -0.0866,0.23712 -0.19534,0.38499 -0.14748,0.20056 -0.32007,0.3316 -0.5643,0.33176 l -2.93780997,0.002 C 0.11801243,3.56723 2.4243166e-4,3.68523 2.4316575e-6,3.83077 -6.1756834e-4,3.97692 0.11740243,4.09587 0.26355243,4.09639 l 2.93780997,-0.002 c 0.44655,-3e-4 0.78201,-0.2658 0.99012,-0.5488 0.15031,-0.20437 0.21063,-0.37542 0.25993,-0.49609 0.0493,-0.12067 0.0845,-0.20302 0.23409,-0.35554 0.009,-0.009 0.0867,-0.0353 0.23461,-0.0956 0.0739,-0.0302 0.17023,-0.077 0.24598,-0.17208 0.0758,-0.0951 0.11317,-0.22632 0.11317,-0.3576 0,-0.2531 -0.13814,-0.42708 -0.34778,-0.57619 -0.0511,-0.0364 -0.10876,-0.0682 -0.17156,-0.0946 0.0652,-0.11212 0.11968,-0.21089 0.16588,-0.26872 0.0543,-0.068 0.0596,-0.0703 0.0992,-0.0703 0.14693,5.7e-4 0.26619,-0.11869 0.26561,-0.26562 -5.7e-4,-0.14612 -0.11949,-0.26412 -0.26561,-0.26355 -0.22501,0 -0.40676,0.13589 -0.51367,0.26975 -0.10692,0.13386 -0.17392,0.27415 -0.24184,0.38861 -0.0181,0.0304 -0.0298,0.0642 -0.0346,0.0992 0.007,-0.0974 0.0214,-0.20339 0.0481,-0.30437 0.0573,-0.2189 0.1581,-0.39557 0.33228,-0.48266 0.13003,-0.0651 0.18312,-0.223 0.11886,-0.35347 C 4.6903324,0.05856 4.6010924,0.00202 4.5026224,0 Z m -0.27079,1.32498 c 1e-4,0.004 2.7e-4,0.007 5.2e-4,0.0109 -3.3e-4,5e-5 -7e-4,-6e-5 -10e-4,0 1.8e-4,-0.004 3.1e-4,-0.007 5.1e-4,-0.0109 z" /></svg>
