<svg xmlns="http://www.w3.org/2000/svg" xml:space="preserve" viewBox="0 0 5.291 4.096"><path d="M4.502 0a.269.269 0 0 0-.124.028c-.355.178-.527.517-.607.82a2.46 2.46 0 0 0-.068.756.266.266 0 0 0 .008.049l-.031.042A1.95 1.95 0 0 0 2.216.076a1.807 1.807 0 0 0-1.428.23C.038.792-.243 1.825.275 2.59c.43.634 1.328.87 1.984.404.523-.37.716-1.132.298-1.672-.315-.407-.945-.553-1.372-.177a.78.78 0 0 0-.262.5.655.655 0 0 0 .217.572.542.542 0 0 0 .386.131.446.446 0 0 0 .238-.072.43.43 0 0 0 .17-.245.254.254 0 0 0-.187-.307.256.256 0 0 0-.253.11c-.012-.004-.027-.011-.021-.006-.04-.033-.05-.065-.043-.126a.308.308 0 0 1 .092-.176c.18-.158.481-.087.632.108.225.29.112.73-.19.945-.406.287-.988.134-1.264-.274C.35 1.79.548 1.068 1.067.732c.63-.408 1.494-.168 1.891.458.18.283.258.625.227.96-.055.286-.008.449.158.51.113.043.274-.053.329-.15.055-.096.15-.17.236-.257.11-.112.178-.218.229-.283.05-.066.071-.083.1-.092.18-.062.295-.02.388.047.093.065.125.2.125.144l-.001.027c-.005.003-.013.008-.028.014-.068.028-.249.046-.412.213-.196.2-.29.381-.348.525-.059.143-.087.237-.195.385-.148.2-.32.332-.565.332l-2.937.002a.264.264 0 0 0 0 .53L3.2 4.093c.447 0 .782-.265.99-.548.15-.205.211-.376.26-.496a.906.906 0 0 1 .235-.356c.009-.009.086-.035.234-.096a.581.581 0 0 0 .246-.172.58.58 0 0 0 .113-.357c0-.253-.138-.427-.348-.577a.89.89 0 0 0-.171-.094c.065-.112.12-.211.166-.269.054-.068.06-.07.099-.07a.265.265 0 1 0 0-.53c-.225 0-.407.137-.514.27-.107.134-.174.275-.242.39a.264.264 0 0 0-.034.098c.007-.097.021-.203.048-.304.057-.219.158-.396.332-.483a.265.265 0 0 0-.112-.5Zm-.27 1.325v.011h-.001v-.01z" style="color:#000;fill:#c79250;stroke-linecap:round;stroke-linejoin:round"/></svg>