<svg xmlns="http://www.w3.org/2000/svg" xml:space="preserve" viewBox="0 0 4.762 3.871"><path d="M2.381 0s-.529 2.381-.529 2.646c0 .264.28.529.53.529.249 0 .528-.265.528-.53C2.91 2.382 2.381 0 2.381 0Zm-.598.342A2.381 2.381 0 0 0 0 2.646 2.381 2.381 0 0 0 .34 3.87l.454-.273a1.852 1.852 0 0 1-.265-.952A1.852 1.852 0 0 1 1.664.939Zm1.196 0L3.1.94a1.852 1.852 0 0 1 1.134 1.707 1.852 1.852 0 0 1-.263.953l.453.272a2.381 2.381 0 0 0 .34-1.225A2.381 2.381 0 0 0 2.979.342Z" style="fill:#5eeb9d;stroke-width:.571737;stroke-linecap:round;stroke-linejoin:round"/></svg>