<svg xmlns="http://www.w3.org/2000/svg" xml:space="preserve" viewBox="0 0 4.762 3.606"><path d="M2.381 0A2.381 2.381 0 0 0 0 2.381a2.381 2.381 0 0 0 .338 1.222l.453-.274a1.852 1.852 0 0 1-.262-.948A1.852 1.852 0 0 1 2.381.53 1.852 1.852 0 0 1 3.488.9l.58-.197A2.381 2.381 0 0 0 2.381 0Zm2.306 1.067s-2.327.732-2.556.864c-.229.132-.318.507-.194.723.125.216.494.326.723.194.23-.132 2.027-1.781 2.027-1.781Zm-.017.664-.455.4a1.852 1.852 0 0 1 .018.25 1.852 1.852 0 0 1-.264.953l.454.272a2.381 2.381 0 0 0 .34-1.225 2.381 2.381 0 0 0-.093-.65Z" style="display:inline;fill:#ed4646;fill-opacity:1;stroke-width:.571737;stroke-linecap:round;stroke-linejoin:round"/></svg>