<svg xmlns="http://www.w3.org/2000/svg" xml:space="preserve" viewBox="0 0 4.762 3.609"><path d="M2.381 0A2.381 2.381 0 0 0 .675.722l.575.194A1.852 1.852 0 0 1 2.38.53a1.852 1.852 0 0 1 1.852 1.852 1.852 1.852 0 0 1-.266.958l.454.27a2.381 2.381 0 0 0 .341-1.228A2.381 2.381 0 0 0 2.382 0ZM.053 1.06S1.851 2.71 2.08 2.842c.23.132.598.022.722-.194.125-.216.036-.59-.193-.723C2.38 1.793.053 1.06.053 1.06Zm.03.704A2.381 2.381 0 0 0 0 2.381a2.381 2.381 0 0 0 .34 1.225l.454-.272a1.852 1.852 0 0 1-.265-.953 1.852 1.852 0 0 1 .014-.213Z" style="display:inline;fill:#5eadeb;fill-opacity:1;stroke-width:.571737;stroke-linecap:round;stroke-linejoin:round"/></svg>