<?xml version="1.0" encoding="UTF-8" standalone="no"?>
<!-- Created with Inkscape (http://www.inkscape.org/) -->

<svg
        width="4.7624798mm"
        height="3.6090901mm"
        viewBox="0 0 4.7624798 3.6090901"
        version="1.1"
        id="svg5"
        xml:space="preserve"
        xmlns="http://www.w3.org/2000/svg"
><defs
     id="defs2" /><path
     id="path1689"
     style="display:inline;fill:#5eadeb;fill-opacity:1;stroke-width:0.571737;stroke-linecap:round;stroke-linejoin:round"
     d="M 2.38123,0 A 2.3812459,2.3812459 0 0 0 0.67539,0.72192 L 1.24951,0.91623 A 1.8520975,1.8520975 0 0 1 2.38123,0.52917 1.8520975,1.8520975 0 0 1 4.23331,2.38125 1.8520975,1.8520975 0 0 1 3.96666,3.33933 L 4.42141,3.60909 A 2.3812459,2.3812459 0 0 0 4.76248,2.38125 2.3812459,2.3812459 0 0 0 2.38123,0 Z M 0.0532,1.0604 c 0,0 1.79762,1.649 2.02675,1.78129 C 2.30908,2.97398 2.67767,2.86399 2.80239,2.6479 2.92712,2.43187 2.83829,2.05724 2.60912,1.92495 2.37998,1.79265 0.0532,1.0604 0.0532,1.0604 Z m 0.03,0.70384 A 2.3812459,2.3812459 0 0 0 0,2.38125 2.3812459,2.3812459 0 0 0 0.34003,3.60598 L 0.79375,3.33365 A 1.8520975,1.8520975 0 0 1 0.52916,2.38125 1.8520975,1.8520975 0 0 1 0.54256,2.16783 Z" /></svg>
