<?xml version="1.0" encoding="UTF-8" standalone="no"?>
<!-- Created with Inkscape (http://www.inkscape.org/) -->

<svg
        width="4.7624998mm"
        height="3.8705599mm"
        viewBox="0 0 4.7624998 3.8705599"
        version="1.1"
        id="svg5"
        xml:space="preserve"
        xmlns="http://www.w3.org/2000/svg"
><defs
     id="defs2" /><path
     id="path12960"
     style="fill:#5eeb9d;stroke-width:0.571737;stroke-linecap:round;stroke-linejoin:round"
     d="m 2.38125,0 c 0,0 -0.52916,2.38125 -0.52916,2.64583 0,0.26458 0.27971,0.52917 0.52916,0.52917 0.24945,0 0.52917,-0.26458 0.52917,-0.52917 C 2.91042,2.38124 2.38125,0 2.38125,0 Z M 1.78336,0.3421 A 2.3812459,2.3812459 0 0 0 0,2.64583 2.3812459,2.3812459 0 0 0 0.34003,3.87056 L 0.79375,3.59823 A 1.8520975,1.8520975 0 0 1 0.52917,2.64583 1.8520975,1.8520975 0 0 1 1.66398,0.93948 Z m 1.19579,0 0.11937,0.59738 A 1.8520975,1.8520975 0 0 1 4.23334,2.64583 1.8520975,1.8520975 0 0 1 3.96979,3.59875 l 0.4532,0.27181 A 2.3812459,2.3812459 0 0 0 4.7625,2.64583 2.3812459,2.3812459 0 0 0 2.97915,0.3421 Z" /></svg>
