<svg width="12" height="12" viewBox="0 0 12 12" fill="none" xmlns="http://www.w3.org/2000/svg">
    <path d="M11 5L10.6875 4.3125L10 4L10.6875 3.6875L11 3L11.3125 3.6875L12 4L11.3125 4.3125L11 5ZM9.5 3L9.025 1.975L8 1.5L9.025 1.025L9.5 0L9.975 1.025L11 1.5L9.975 1.975L9.5 3ZM4.5 11C4.225 11 3.9895 10.902 3.7935 10.706C3.5975 10.51 3.49967 10.2747 3.5 10H5.5C5.5 10.275 5.402 10.5105 5.206 10.7065C5.01 10.9025 4.77467 11.0003 4.5 11ZM2.5 9.5V8.5H6.5V9.5H2.5ZM2.625 8C2.05 7.65833 1.59367 7.2 1.256 6.625C0.918334 6.05 0.749667 5.425 0.75 4.75C0.75 3.70833 1.11467 2.82283 1.844 2.0935C2.57333 1.36417 3.45867 0.999667 4.5 1C5.54167 1 6.42717 1.36467 7.1565 2.094C7.88583 2.82333 8.25033 3.70867 8.25 4.75C8.25 5.425 8.08133 6.05 7.744 6.625C7.40667 7.2 6.95033 7.65833 6.375 8H2.625ZM2.925 7H6.075C6.45 6.73333 6.73967 6.40417 6.944 6.0125C7.14833 5.62083 7.25033 5.2 7.25 4.75C7.25 3.98333 6.98333 3.33333 6.45 2.8C5.91667 2.26667 5.26667 2 4.5 2C3.73333 2 3.08333 2.26667 2.55 2.8C2.01667 3.33333 1.75 3.98333 1.75 4.75C1.75 5.2 1.852 5.62083 2.056 6.0125C2.26 6.40417 2.54967 6.73333 2.925 7Z"
          fill="#4D668A"/>
</svg>
