<svg width="228" height="161" viewBox="0 0 228 161" fill="none" xmlns="http://www.w3.org/2000/svg">
<path d="M146.227 83.1043L143.65 84.7267C143.65 84.7267 148.339 88.6157 148.339 89.1271C148.339 89.6386 142.945 94.7322 142.573 94.3968C142.2 94.0615 135.286 90.2213 135.384 86.8228C135.483 83.4229 144.199 74.8203 144.199 74.8203C144.199 74.8203 157.876 82.379 165.59 95.723C173.14 108.793 170.328 110.492 170.328 110.492C170.328 110.492 167.166 108.782 166.011 109.882C165.363 109.479 164.539 109.509 163.921 109.953C163.921 109.953 162.039 108.941 161.186 110.047C160.332 111.152 155.928 111.092 155.928 111.092C155.928 111.092 154.642 108.891 153.012 109.921C152.153 109.256 150.823 109.37 150.648 109.872C150.145 109.321 148.607 109.321 147.857 110.608C144.753 110.207 141.684 109.57 138.677 108.699C138.978 107.208 141.708 97.2029 141.276 93.2537C142.917 94.6009 143.607 94.4416 143.607 94.4416C143.607 94.4416 149.012 90.3317 149.045 89.3857C149.079 88.4396 144.516 84.9139 144.516 84.9139L146.228 83.1043H146.227Z" fill="#353F6E"/>
<path d="M175.147 73.4931C168.407 75.1281 162.282 78.6915 157.514 83.7516C166.037 93.5378 171.366 107.499 170.151 109.826C172.564 109.551 176.372 109.002 177.155 108.764C175.223 100.305 174.771 93.4637 174.73 88.7027C174.685 83.6314 175.311 68.4233 175.147 73.4931Z" fill="#353F6E"/>
<path d="M161.577 84.1076C161.577 84.1076 173.461 83.244 172.464 83.5961C171.947 83.0176 168.969 85.8893 168.969 85.8893L166.042 88.6073C166.478 89.2669 166.787 90.0047 166.949 90.7803C167.048 91.7096 172.267 98.3823 172.42 98.8504C172.573 99.3186 174.767 101.177 174.767 101.177L176.714 108.56L171.632 108.708C171.632 108.708 167.205 95.5944 164.017 90.8571C160.827 86.1213 160.734 85.8124 160.734 85.8124L161.576 84.1076H161.577Z" fill="#6271B6"/>
<path d="M157.283 87.9458C161.019 90.8944 164.017 94.68 166.036 99.0022C168.279 103.717 168.915 107.084 169.09 108.656C169.14 109.057 168.856 109.421 168.457 109.472C168.382 109.482 168.306 109.479 168.231 109.465C166.299 109.079 161.956 108.288 160.769 108.706C159.911 108.987 159.084 109.356 158.302 109.806C158.302 109.806 156.524 110.075 156.293 109.806C156.063 109.536 153.208 107.286 151.736 107.749C150.264 108.211 147.956 108.684 147.956 108.684C147.956 108.684 144.328 107.584 145.412 106.511C146.495 105.437 150.413 94.7932 150.616 93.1596C150.819 91.526 150.955 88.1149 150.616 87.9234C150.277 87.732 150.813 84.5459 152.125 84.782C153.437 85.0182 157.284 87.9444 157.284 87.9444L157.283 87.9458Z" fill="#6271B6"/>
<path d="M143.769 83.7009C143.769 83.7009 142.806 84.0084 142.707 84.531C142.609 85.0537 145.607 87.3091 146.22 87.6557C146.833 88.0022 148.074 89.1132 147.96 89.19C147.846 89.2669 144.409 92.5453 143.812 92.8541C143.216 93.1615 141.897 91.9625 141.284 90.9173C140.671 89.872 139.095 87.5006 139.544 85.6364C139.993 83.7722 141.59 82.6501 142.279 82.5718C142.969 82.495 145.348 82.6878 145.464 82.924C145.579 83.1601 143.768 83.6996 143.768 83.6996L143.769 83.7009Z" fill="#6271B6"/>
<path d="M161.37 97.3711C160.815 97.3711 160.364 96.9182 160.364 96.3594C160.364 95.8006 160.815 95.3477 161.37 95.3477C161.926 95.3477 162.377 95.8006 162.377 96.3594C162.377 96.9182 161.926 97.3711 161.37 97.3711Z" fill="#353F6E"/>
<path d="M152.677 97.3789C152.121 97.3789 151.671 96.926 151.671 96.3672C151.671 95.8084 152.121 95.3555 152.677 95.3555C153.233 95.3555 153.683 95.8084 153.683 96.3672C153.683 96.926 153.233 97.3789 152.677 97.3789Z" fill="#353F6E"/>
<path d="M162.092 104.445C161.536 104.445 161.085 103.992 161.085 103.434C161.085 102.875 161.536 102.422 162.092 102.422C162.647 102.422 163.098 102.875 163.098 103.434C163.098 103.992 162.647 104.445 162.092 104.445Z" fill="#353F6E"/>
<path d="M152.211 104.445C151.656 104.445 151.205 103.992 151.205 103.434C151.205 102.875 151.656 102.422 152.211 102.422C152.767 102.422 153.218 102.875 153.218 103.434C153.218 103.992 152.767 104.445 152.211 104.445Z" fill="#353F6E"/>
<path d="M161.644 97.1094C161.088 97.1094 160.638 96.6564 160.638 96.0977C160.638 95.5389 161.088 95.0859 161.644 95.0859C162.2 95.0859 162.65 95.5389 162.65 96.0977C162.65 96.6564 162.2 97.1094 161.644 97.1094Z" fill="#F3F3F3"/>
<path d="M152.951 97.1133C152.395 97.1133 151.944 96.6603 151.944 96.1016C151.944 95.5428 152.395 95.0898 152.951 95.0898C153.506 95.0898 153.957 95.5428 153.957 96.1016C153.957 96.6603 153.506 97.1133 152.951 97.1133Z" fill="#F3F3F3"/>
<path d="M162.365 104.188C161.81 104.188 161.359 103.735 161.359 103.176C161.359 102.617 161.81 102.164 162.365 102.164C162.921 102.164 163.372 102.617 163.372 103.176C163.372 103.735 162.921 104.188 162.365 104.188Z" fill="#F3F3F3"/>
<path d="M152.485 104.188C151.929 104.188 151.479 103.735 151.479 103.176C151.479 102.617 151.929 102.164 152.485 102.164C153.041 102.164 153.491 102.617 153.491 103.176C153.491 103.735 153.041 104.188 152.485 104.188Z" fill="#F3F3F3"/>
<path d="M157.568 64.3965V64.5124C159.757 64.2372 178.281 62.4107 189.268 77.3618C179.808 76.5862 164.577 80.5465 159.817 87.7307C152.776 79.314 134.753 76.5862 125.288 77.345C136.991 61.4423 157.568 64.3965 157.568 64.3965Z" fill="#F3F3F3"/>
<path d="M124.036 45.3301C124.474 37.6289 141.544 20.8947 144.311 18.2606C147.08 15.625 151.708 8.90898 153.065 9.00121C154.492 9.13257 152.239 22.6652 152.064 32.3466C151.889 42.028 154.022 45.372 154.762 45.1917C155.5 45.0101 158.006 44.6411 158.006 44.6411C158.006 44.6411 160.517 45.0045 161.249 45.1917C161.982 45.379 164.132 42.0335 163.942 32.3466C163.75 22.661 161.512 9.13397 162.951 9.00121C164.296 8.89641 168.931 15.6026 171.704 18.2592C174.478 20.9171 191.532 37.6121 191.969 45.3301C192.314 51.4354 189.967 53.1962 184.813 55.6501C179.659 58.1039 178.046 58.8404 178.411 60.1833C178.778 61.5248 182.099 62.081 182.285 65.3705C182.471 68.6601 181.683 73.892 172.639 77.8468C163.596 81.8015 160.603 82.918 158.004 82.918C155.405 82.918 152.413 81.8182 143.369 77.8468C134.325 73.8753 133.91 67.4946 134.068 64.2107C134.227 60.9267 137.198 61.5262 137.564 60.1847C137.929 58.8432 136.321 58.1053 131.167 55.6515C126.014 53.1976 123.689 51.4382 124.033 45.3315L124.036 45.3301Z" fill="#6271B6"/>
<path d="M134.491 64.3079C134.671 61.1609 137.593 61.7394 137.96 60.458C137.962 60.4286 137.962 60.3993 137.96 60.3699L144.175 58.7196L155.814 57.2188C155.814 57.2188 158.645 59.0424 157.803 59.0997C156.349 59.1975 156.253 60.8311 155.288 61.7967C154.325 62.7637 150.132 68.2696 144.552 68.0823C138.971 67.8951 137.276 63.8076 135.443 66.1846C134.425 67.5052 137.084 73.6161 142.057 75.1561C147.03 76.6961 150.996 78.3031 153.579 79.006C156.481 79.7313 159.501 79.8417 162.447 79.3302C165.347 78.7796 175.917 75.7276 176.125 75.6606C175.03 76.3355 173.88 76.9182 172.689 77.399C163.722 81.1888 160.773 82.2564 158.175 82.2564C155.577 82.2564 152.643 81.1944 143.687 77.3822C134.731 73.57 134.31 67.4423 134.491 64.3065V64.3079Z" fill="#353F6E"/>
<path d="M177.111 62.8905C177.111 62.8905 175.026 67.9729 164.948 67.1037C163.689 66.9947 163.494 65.6714 163.154 64.7519C162.603 63.2636 161.629 62.7899 160.688 61.8005C159.773 60.8391 159.126 59.2935 157.811 59.0755C156.011 58.7765 155.878 56.3897 155.925 54.7225C156.072 49.6345 162.621 45.2773 162.621 45.2773L177.109 62.8905H177.111Z" fill="#353F6E"/>
<path d="M158.339 60.5323C158.339 60.3283 158.563 60.2514 158.656 60.4219C158.995 61.0102 159.306 62.3532 159.936 62.9135C160.756 63.6346 161.758 64.5304 161.402 65.4708C161.047 66.4113 160.035 65.7573 159.213 65.1075C158.874 64.8266 158.666 64.6673 158.524 64.5569C158.385 64.4493 158.306 64.2816 158.31 64.1055L158.338 60.5295L158.339 60.5323Z" fill="#353F6E"/>
<path d="M157.65 60.4073C157.65 60.2033 157.432 60.1264 157.333 60.2969C156.994 60.8852 156.682 62.2338 156.053 62.7885C155.237 63.5096 154.236 64.4054 154.587 65.3458C154.937 66.2863 155.954 65.6379 156.776 64.9881C157.115 64.7072 157.323 64.5423 157.465 64.4375C157.604 64.3299 157.683 64.1622 157.679 63.9861L157.651 60.4045L157.65 60.4073Z" fill="#353F6E"/>
<path d="M164.456 10.2695C164.456 10.2695 172.339 20.6776 176.028 24.3905C179.715 28.1035 187.304 37.8128 188.858 40.4916C190.411 43.1705 192.386 49.4463 186.669 53.0447C189.525 46.0534 184.047 44.0062 182.292 44.3318C180.536 44.6574 180.695 50.9765 180.695 50.9765L177.861 54.7062L167.466 53.9796L161.689 45.514L163.8 43.5338C165.957 41.8527 168.534 40.7991 171.245 40.4916C175.743 40.0081 177.416 40.1563 177.416 40.1563C177.416 40.1563 176.776 35.943 172.065 36.6739C173.433 34.628 173.919 23.8679 164.454 10.2695H164.456Z" fill="#353F6E"/>
<path d="M149.591 18.0898C149.591 18.0898 148.436 26.0775 148.377 30.8469C148.317 35.6163 147.222 43.0087 149.284 44.9623C151.347 46.9145 148.032 47.7125 148.032 47.7125L135.306 55.6386C135.306 55.6386 132.117 55.0881 130.596 54.0707C129.076 53.0534 126.613 51.3527 126.16 49.3013C128.222 51.4142 129.989 53.0031 131.418 51.2591C132.845 49.5151 131.855 41.2033 137.13 37.1381C136.249 39.0023 137.344 42.0892 139.411 41.7259C141.479 41.3626 144.728 36.4338 145.533 32.2374C146.338 28.0409 149.593 18.0898 149.593 18.0898H149.591Z" fill="#353F6E"/>
<path d="M181.586 48.3108L187.056 43.4533C188.046 42.5618 188.128 41.033 187.243 40.0366C186.354 39.0375 184.83 38.9508 183.836 39.8424C183.833 39.8452 183.832 39.8466 183.829 39.8494L178.441 44.6355C179.779 45.576 180.86 46.8393 181.586 48.3108Z" fill="#F3F3F3"/>
<path d="M158.919 54.4648V54.5082C158.919 60.9908 164.135 66.2535 170.582 66.2745C164.126 66.2298 158.917 60.9545 158.919 54.4648Z" fill="#CCCCCC"/>
<path d="M182.324 54.3342C182.324 54.0589 182.324 53.7836 182.285 53.5195C182.302 53.7892 182.324 54.0589 182.324 54.3342Z" fill="#CCCCCC"/>
<path d="M170.621 66.2756C177.085 66.2756 182.327 61.0087 182.329 54.5093V54.4492C182.339 60.9626 177.101 66.2547 170.621 66.2756Z" fill="#CCCCCC"/>
<path d="M182.324 54.3333C182.324 54.058 182.324 53.7827 182.285 53.5186C182.012 49.9817 180.179 46.7522 177.29 44.7176C175.338 43.3313 173.01 42.5837 170.621 42.5781C164.136 42.6019 158.898 47.9065 158.919 54.4269V54.466C158.919 60.9571 164.128 66.2309 170.582 66.2757H170.621C177.099 66.2547 182.338 60.9626 182.329 54.4492C182.329 54.3947 182.324 54.3668 182.324 54.3333Z" fill="#F3F3F3"/>
<path d="M169.634 65.6962C164.353 65.6962 160.071 61.3911 160.071 56.0805C160.071 50.7699 164.353 46.4648 169.634 46.4648C174.916 46.4648 179.198 50.7699 179.198 56.0805C179.198 61.3911 174.916 65.6962 169.634 65.6962Z" fill="#353F6E"/>
<path d="M180.546 52.5958L162.65 48.4594L165.194 46.8999C165.194 46.8999 168.479 45.5095 168.66 45.5123C168.841 45.5151 171.622 45.1811 172.684 45.5752C173.746 45.9692 176.58 45.9888 177.44 46.9181C178.3 47.8474 180.65 52.2954 180.65 52.2954L180.546 52.5972V52.5958Z" fill="#F3F3F3"/>
<path d="M175.316 56.7673L164.095 52.5974L168.177 56.2558L160.128 53.236L162.842 48.4219L175.316 56.7673Z" fill="#F3F3F3"/>
<path d="M181.033 47.7293C181.033 47.7293 186.056 43.1751 186.208 43.0102C186.528 42.5141 186.559 41.8852 186.29 41.3598C185.968 40.9028 186.225 41.6896 185.989 42.229C185.754 42.7684 179.823 46.0789 179.823 46.0789L181.033 47.7293Z" fill="#353F6E"/>
<path d="M134.403 48.1893L129.063 43.4534C128.097 42.5814 128.015 41.0862 128.883 40.115C129.75 39.1466 131.231 39.0655 132.197 39.9333L137.461 44.6035C136.158 45.523 135.108 46.7555 134.403 48.1907V48.1893Z" fill="#F3F3F3"/>
<path d="M156.819 54.4648V54.5082C156.819 60.9908 151.603 66.2535 145.155 66.2745C151.611 66.2298 156.82 60.9545 156.819 54.4648Z" fill="#CCCCCC"/>
<path d="M133.414 54.3342C133.414 54.0589 133.414 53.7836 133.452 53.5195C133.43 53.7892 133.414 54.0589 133.414 54.3342Z" fill="#CCCCCC"/>
<path d="M145.111 66.2756C138.648 66.2756 133.408 61.0073 133.408 54.5093V54.4492C133.395 60.9626 138.632 66.2547 145.111 66.2756Z" fill="#CCCCCC"/>
<path d="M133.414 54.3357C133.414 54.0604 133.414 53.7852 133.452 53.521C133.725 49.9842 135.558 46.7547 138.448 44.7201C140.399 43.3408 142.726 42.6016 145.112 42.6016C151.6 42.6225 156.841 47.9272 156.82 54.4503V54.4895C156.82 60.9805 151.611 66.2544 145.156 66.2991H145.113C138.635 66.2781 133.398 60.9861 133.411 54.4727C133.411 54.3958 133.416 54.3679 133.416 54.3357H133.414Z" fill="#F3F3F3"/>
<path d="M144.265 65.6962C138.984 65.6962 134.702 61.3911 134.702 56.0805C134.702 50.7699 138.984 46.4648 144.265 46.4648C149.547 46.4648 153.829 50.7699 153.829 56.0805C153.829 61.3911 149.547 65.6962 144.265 65.6962Z" fill="#353F6E"/>
<path d="M137.627 48.913L155.584 51.5067L154.479 49.0863C154.479 49.0863 151.376 46.4005 151.184 46.3516C150.992 46.3026 148.535 45.0114 147.402 45.0156C146.27 45.0198 143.601 44.0654 142.477 44.6425C141.352 45.2196 137.632 48.593 137.632 48.593L137.627 48.9116V48.913Z" fill="#F3F3F3"/>
<path d="M149.962 56.0776L138.748 51.9021L142.828 55.5661L134.781 52.5463L137.494 47.7266L149.962 56.0776Z" fill="#F3F3F3"/>
<path d="M134.589 47.9792C134.589 47.9792 129.566 43.425 129.413 43.2601C129.094 42.764 129.063 42.1352 129.331 41.6098C129.654 41.1528 129.397 41.9395 129.637 42.4845C129.878 43.0295 135.797 46.3344 135.797 46.3344L134.588 47.9792H134.589Z" fill="#353F6E"/>
<path d="M148.973 109.338C149.514 109.246 150.069 109.378 150.51 109.707C151.309 108.972 152.541 108.991 153.316 109.75C153.778 109.404 154.379 109.307 154.924 109.492C155.794 109.744 156.346 110.487 156.156 111.142C155.965 111.797 155.105 112.127 154.235 111.874C153.897 111.774 153.594 111.583 153.354 111.324C152.582 112.141 151.297 112.175 150.484 111.398C150.459 111.374 150.434 111.349 150.41 111.324C150.093 111.575 149.715 111.737 149.316 111.792C148.353 111.923 147.5 111.479 147.407 110.797C147.313 110.115 148.003 109.471 148.971 109.339L148.973 109.338Z" fill="#6271B6"/>
<path d="M162.207 109.344C162.769 109.247 163.344 109.397 163.789 109.756C164.164 109.366 164.688 109.154 165.227 109.173C165.68 109.165 166.122 109.313 166.48 109.591C166.933 109.288 167.5 109.211 168.017 109.381C168.881 109.634 169.434 110.376 169.243 111.032C169.051 111.687 168.197 112.011 167.327 111.758C167.074 111.686 166.839 111.564 166.632 111.401C166.265 111.786 165.757 112.003 165.226 112C164.646 112.017 164.092 111.761 163.726 111.307C163.397 111.592 162.992 111.772 162.562 111.824C161.598 111.955 160.745 111.511 160.657 110.833C160.57 110.157 161.248 109.475 162.206 109.342L162.207 109.344Z" fill="#6271B6"/>
<path d="M147.864 70.457C147.864 70.457 147.864 73.8304 148.075 74.3852C147.158 74.1784 145.158 72.514 144.705 71.2759C145.668 70.7114 147.864 70.457 147.864 70.457Z" fill="#4F5DA3"/>
<path d="M148.235 70.293C148.267 71.3354 148.372 72.3751 148.549 73.4022C147.632 73.1954 146.008 72.2102 145.554 70.9931C146.396 70.5948 147.305 70.3573 148.233 70.293H148.235Z" fill="#F3F3F3"/>
<path d="M139.412 71.1223C140.83 72.2989 143.154 71.8531 145.633 71.1894C145.96 70.8805 146.364 70.6681 146.803 70.5773C147.28 70.4599 147.773 70.4208 148.261 70.4627C148.684 70.4124 149.098 70.3132 149.498 70.1679C152.518 68.4993 157.668 68.5091 157.668 68.5091C157.668 68.5091 162.136 68.5091 165.682 70.1832C169.083 71.8 173.722 72.8831 175.897 71.1209C176.588 70.4865 177.117 69.6955 177.443 68.8151C177.576 68.4784 177.154 68.224 176.969 68.5245C176.217 69.7416 175.129 70.2559 173.655 70.52C169.625 71.2397 164.703 67.8984 157.678 67.8984C150.652 67.8984 145.344 70.0589 141.7 70.52C140.21 70.7115 139.123 69.743 138.386 68.5245C138.202 68.224 137.778 68.4784 137.912 68.8151C138.221 69.6941 138.735 70.4851 139.412 71.1209V71.1223Z" fill="#353F6E"/>
<path d="M160.837 72.0045C161.352 71.637 160.321 70.8125 157.956 70.8125C155.765 70.8125 154.909 71.528 155.028 71.8494C155.245 72.4139 156.915 71.725 158.024 71.725C159.133 71.725 160.322 72.3678 160.838 72.0045H160.837Z" fill="#353F6E"/>
<path d="M137.263 88.4969C137.263 88.4969 135.89 89.5827 136.723 91.5922C136.454 92.9994 136.349 96.8185 137.263 97.6235C138.179 98.427 138.637 99.0712 140.051 98.1866C140.842 98.6128 142.132 99.1522 142.673 98.87C143.213 98.5891 143.962 99.7895 145.711 98.9482C147.459 98.107 147.459 90.266 147.167 89.9446C146.876 89.6232 143.172 86.6076 137.263 88.4969Z" fill="#353F6E"/>
<path d="M140.051 94.4196C140.051 94.4196 137.804 92.4898 137.609 92.1949C137.415 91.9001 136.582 90.2916 137.498 89.4336C137.498 89.4336 140.024 91.4976 140.523 91.4445C141.022 91.3914 142.271 93.7502 140.051 94.4196Z" fill="#6271B6"/>
<path d="M138.442 93.6859L137.236 92.6406C137.236 92.6406 137.013 96.7421 137.43 97.1711C137.847 97.6001 138.685 98.1367 139.202 98.0556C139.719 97.9746 141.106 96.3536 141.009 94.6375C140.371 95.0666 139.758 95.5654 138.942 94.1415C138.249 95.0931 137.708 96.7812 137.792 97.009C137.875 97.2367 137.106 96.2516 138.443 93.6845L138.442 93.6859Z" fill="#6271B6"/>
<path d="M143.672 94.5599C143.672 94.5599 143.662 97.324 142.486 98.2393C141.248 98.2798 140.656 98.1387 140.478 97.7977C140.3 97.4568 141.868 95.9517 141.561 94.1798C142.226 94.1197 142.611 93.727 143.673 94.5613L143.672 94.5599Z" fill="#6271B6"/>
<path d="M145.864 94.6483C145.864 94.6483 144.407 93.9119 144.143 94.5142C144.143 95.0368 144.171 97.4893 143.255 98.1866C143.671 98.3208 144.296 98.8294 145.405 98.4954C146.514 98.1601 145.862 94.6483 145.862 94.6483H145.864Z" fill="#6271B6"/>
<path d="M142.068 93.4631C142.068 93.4631 142.445 92.3843 141.779 91.9287C141.779 91.9287 144.65 92.8399 145.671 91.332C146.211 91.5933 146.607 91.9287 146.607 91.9287V93.2228C146.607 93.2228 145.691 93.5973 145.796 94.0333C144.942 93.8264 144.231 93.7538 143.778 94.0333C143.383 94.0333 142.713 93.5847 142.069 93.4645L142.068 93.4631Z" fill="#6271B6"/>
<path d="M155.294 89.2469L165.216 87.3688C165.216 87.3688 167.694 82.496 169.095 81.2509C170.008 80.4404 174.482 80.6919 175.619 82.9166C177.712 87.0097 175.594 92.0851 174.728 92.9557C173.862 93.8263 158.694 97.6986 158.001 97.3464C157.309 96.9943 154.292 91.2746 155.293 89.2469H155.294Z" fill="#353F6E"/>
<path d="M169.095 82.2633L166.267 87.8265C166.014 88.2177 163.436 88.8997 163.099 88.9835C161.761 89.3147 160.965 89.9603 160.364 89.8457C160.364 89.8457 161.211 91.4067 161.141 91.9656C161.14 91.9782 160.634 95.659 160.638 95.6702C160.787 96.0391 165.084 95.8603 167.334 94.4586C168.01 94.0366 173.033 93.4078 173.986 91.9321C174.916 90.6646 176.177 84.7535 174.345 82.8195C174.345 82.8195 171.222 81.369 169.097 82.2647L169.095 82.2633Z" fill="#6271B6"/>
<path d="M166.345 87.043C166.345 87.043 168.988 87.56 168.705 89.0483C168.421 90.5365 168.342 90.7615 168.342 90.7615C168.342 90.7615 167.666 87.7752 165.904 88.1204C164.142 88.4656 166.345 87.043 166.345 87.043Z" fill="#353F6E"/>
<path d="M159.861 97.3185C159.861 97.3185 162.617 95.2685 162.386 92.4276C162.154 89.5866 159.746 87.0014 155.808 87.9097C152.264 87.0475 151.986 86.9315 150.781 87.1411C149.576 87.3507 148.071 92.1844 148.071 92.1844C148.071 92.1844 146.611 91.9846 145.986 92.9404C145.361 93.8962 145.893 97.0167 148.256 96.9231C148.603 97.7615 151.893 99.9275 151.893 99.9275C151.893 99.9275 154.603 102.21 157.406 100.067C159.098 98.3443 159.862 97.3185 159.862 97.3185H159.861Z" fill="#353F6E"/>
<path d="M159.236 97.0331C159.236 97.0331 161.922 94.9062 161.753 92.546C161.583 90.1857 159.961 88.3537 156.903 88.4935C157.768 89.7972 157.737 90.2165 157.737 90.2165C157.737 90.2165 155.622 87.9806 154.202 88.105C152.92 87.9499 151.144 87.4999 150.851 88.2447C151.607 89.0985 152.688 90.4023 152.688 90.4023C152.688 90.4023 153.274 89.8741 153.461 90.1382C153.647 90.4023 150.325 93.5857 148.473 93.0882C148.395 92.8241 148.566 92.5907 148.566 92.5907L148.103 92.4286C148.103 92.4286 146.172 92.7151 146.698 94.5471C147.223 96.3791 147.454 96.3484 150.883 96.0996C150.991 96.5342 149.74 96.8766 149.276 96.892C149.369 97.1323 151.245 99.2061 153.167 99.997C155.09 100.789 158.542 98.3984 159.237 97.0317L159.236 97.0331Z" fill="#6271B6"/>
<path d="M152.642 90.3993L149.523 86.7198C149.523 86.7198 151.871 80.6648 146.218 75.6956C140.566 70.7263 138.744 71.8764 136.952 72.4032C135.686 73.5212 133.369 75.4468 133.369 75.4468C133.369 75.4468 129.571 79.0801 135.222 86.4404C140.874 93.8006 145.785 90.1351 145.785 90.1351L148.564 92.6198C148.564 92.6198 151.746 92.4018 152.641 90.3993H152.642Z" fill="#353F6E"/>
<path opacity="0.8" d="M138.101 84.0131C135.303 80.5419 134.115 76.848 135.448 75.7625C136.78 74.677 140.128 76.6109 142.926 80.0821C145.723 83.5533 146.911 87.2472 145.579 88.3327C144.247 89.4182 140.899 87.4842 138.101 84.0131Z" fill="#FFDB01"/>
<path d="M149.769 88.3652L148.473 86.782C148.473 86.782 151.5 81.4103 144.612 75.4782C144.612 75.4782 141.801 72.218 137.832 72.9782C136.596 73.8013 135.932 74.4217 135.932 74.4217C135.932 74.4217 139.917 73.8865 144.132 79.1031C148.347 84.3197 146.888 88.2101 146.888 88.2101L148.07 87.1732C148.07 87.1732 147.85 88.6992 146.482 89.4552C146.838 89.8158 147.455 90.3985 147.455 90.3985C147.455 90.3985 149.288 89.3001 149.768 88.3638L149.769 88.3652Z" fill="#6271B6"/>
<path d="M134.613 75.5155C138.528 73.6751 143.484 79.4283 143.484 79.4283C144.257 80.2374 149.276 87.7611 144.712 89.793C140.149 91.8249 135.006 84.6924 135.006 84.6924C135.006 84.6924 130.698 77.3559 134.613 75.5155ZM136.442 85.1815C138.541 87.6424 142.402 90.1256 144.164 88.9392C144.456 88.7421 144.605 88.5032 144.735 88.2866C146.06 86.0996 144.513 82.1896 142.295 79.793C140.085 77.4048 136.336 75.577 134.835 76.7494C134.217 77.2329 134.057 78.1636 133.964 78.7072C133.744 79.9845 134.138 80.9948 134.588 82.1058C135.249 83.738 136.132 84.8182 136.441 85.1801L136.442 85.1815Z" fill="#6271B6"/>
<g opacity="0.3" filter="url(#filter0_f_13259_2431)">
<ellipse cx="110.5" cy="87" rx="56.5" ry="41" fill="#FEB95A"/>
</g>
<g clip-path="url(#clip1_13259_2431)">
<path d="M116.387 114C115.551 114 114.665 113.753 113.748 113.267L107.078 109.732C106.169 109.251 104.865 108.976 103.502 108.976C102.139 108.976 100.831 109.251 99.9221 109.732L93.2525 113.267C92.3347 113.753 91.4442 114 90.6128 114C89.5088 114 88.5319 113.56 87.8595 112.759C87.2871 112.076 86.6783 110.817 87.0372 108.715L88.3093 101.232C88.6728 99.0935 87.6414 95.8878 86.0967 94.372L80.6992 89.0689C78.7138 87.1135 78.8864 85.3641 79.1681 84.494C79.4498 83.6239 80.3312 82.1035 83.0754 81.7051L90.531 80.6152C92.6618 80.3038 95.3651 78.3208 96.3192 76.3745L99.6541 69.5648C100.881 67.0552 102.589 66.6797 103.498 66.6797C104.406 66.6797 106.11 67.0552 107.341 69.5648L110.676 76.3745C111.63 78.3208 114.334 80.3038 116.464 80.6152L123.92 81.7051C126.669 82.1081 127.55 83.6285 127.827 84.494C128.109 85.3641 128.282 87.1135 126.292 89.0689L120.899 94.372C119.359 95.8878 118.323 99.0935 118.686 101.232L119.958 108.715C120.317 110.817 119.708 112.072 119.136 112.759C118.468 113.56 117.487 114 116.383 114H116.387Z" fill="url(#paint0_radial_13259_2431)"/>
<path d="M126.964 84.7793C126.751 84.1107 126.051 82.9429 123.788 82.6132L116.333 81.5233C113.906 81.1661 110.944 78.9954 109.858 76.7835L106.524 69.9738C105.51 67.9084 104.193 67.6016 103.498 67.6016C102.803 67.6016 101.48 67.9084 100.472 69.9738L97.137 76.7835C96.0511 79 93.0889 81.1707 90.6627 81.5233L83.2071 82.6132C80.9445 82.9429 80.2448 84.1153 80.0313 84.7793C79.8177 85.4479 79.6996 86.8081 81.3352 88.4155L86.7327 93.7185C88.4865 95.4404 89.6177 98.9529 89.2043 101.389L87.9322 108.872C87.6323 110.626 88.1048 111.634 88.5546 112.169C89.0544 112.769 89.7677 113.085 90.6127 113.085C91.2988 113.085 92.0439 112.875 92.8299 112.458L99.4995 108.923C100.531 108.373 101.989 108.062 103.502 108.062C105.015 108.062 106.469 108.378 107.505 108.923L114.175 112.458C114.961 112.875 115.706 113.085 116.392 113.085C117.237 113.085 117.946 112.769 118.45 112.169C118.9 111.634 119.372 110.626 119.072 108.872L117.8 101.389C117.387 98.9529 118.518 95.4404 120.272 93.7185L125.665 88.4155C127.3 86.8081 127.187 85.4479 126.969 84.7793H126.964Z" fill="url(#paint1_radial_13259_2431)"/>
<path d="M101.544 71.003C101.544 71.003 99.0862 76.3473 97.9958 79.8003C96.9054 83.2533 104.361 74.6667 104.411 71.6945C104.466 68.7224 102.657 68.498 101.544 71.0076V71.003Z" fill="white"/>
<path d="M97.1053 82.943C97.1053 83.4192 96.7237 83.8039 96.2512 83.8039C95.7786 83.8039 95.397 83.4192 95.397 82.943C95.397 82.4667 95.7786 82.082 96.2512 82.082C96.7237 82.082 97.1053 82.4667 97.1053 82.943Z" fill="white"/>
<path d="M99.2996 106.965C99.5268 107.423 96.5873 109.149 96.242 109.328C94.9698 109.982 92.1893 111.407 91.4851 110.637C90.7809 109.868 99.0725 106.507 99.2996 106.965Z" fill="#FFED1D"/>
<path d="M124.324 85.9007C123.72 87.4256 120.603 90.6496 119.631 92.0051C118.659 93.3607 124.979 88.8773 125.574 87.128C126.169 85.3786 124.933 84.3711 124.324 85.8961V85.9007Z" fill="#FFE000"/>
<path d="M101.34 106.551C101.34 106.844 101.103 107.082 100.813 107.082C100.522 107.082 100.286 106.844 100.286 106.551C100.286 106.258 100.522 106.02 100.813 106.02C101.103 106.02 101.34 106.258 101.34 106.551Z" fill="#FFED1D"/>
<path d="M110.717 107.918C111.171 108.106 111.708 108.444 111.853 108.518C113.33 109.278 114.765 109.621 116.333 110.13C116.96 110.331 117.882 111.155 117.041 111.705C115.892 112.456 114.334 111.508 113.302 110.972C112.394 110.505 111.785 110.088 110.767 109.232C109.749 108.376 109.536 107.428 110.717 107.913V107.918Z" fill="#FFC900"/>
<path d="M89.7042 70.6381C85.5834 71.0228 85.2744 71.3296 84.8973 75.4832C84.5157 71.3296 84.2113 71.0182 80.0905 70.6381C84.2113 70.2534 84.5202 69.9466 84.8973 65.793C85.2744 69.9466 85.5834 70.258 89.7042 70.6381Z" fill="#FFED1D"/>
<path d="M120.263 73.9942C117.859 74.2186 117.678 74.3972 117.455 76.8243C117.232 74.4018 117.055 74.2186 114.647 73.9942C117.055 73.7698 117.232 73.5912 117.455 71.1641C117.678 73.5912 117.855 73.7698 120.263 73.9942Z" fill="#FFED1D"/>
<path d="M88.4592 101.775C86.0558 102 85.874 102.178 85.6514 104.606C85.4288 102.183 85.2516 102 82.8436 101.775C85.2516 101.551 85.4288 101.372 85.6514 98.9453C85.874 101.372 86.0512 101.551 88.4592 101.775Z" fill="#FFED1D"/>
<path d="M98.5636 61.592C96.3601 61.7981 96.1966 61.9629 95.9921 64.184C95.7877 61.9629 95.6241 61.7981 93.4206 61.592C95.6241 61.3859 95.7877 61.2211 95.9921 59C96.1966 61.2211 96.3601 61.3859 98.5636 61.592Z" fill="#FFED1D"/>
<path d="M125.656 105.747C123.934 105.907 123.806 106.035 123.647 107.771C123.488 106.035 123.361 105.907 121.639 105.747C123.361 105.587 123.488 105.458 123.647 103.723C123.806 105.458 123.934 105.587 125.656 105.747Z" fill="#FFED1D"/>
</g>
<defs>
<filter id="filter0_f_13259_2431" x="0" y="-8" width="221" height="190" filterUnits="userSpaceOnUse" color-interpolation-filters="sRGB">
<feFlood flood-opacity="0" result="BackgroundImageFix"/>
<feBlend mode="normal" in="SourceGraphic" in2="BackgroundImageFix" result="shape"/>
<feGaussianBlur stdDeviation="27" result="effect1_foregroundBlur_13259_2431"/>
</filter>
<radialGradient id="paint0_radial_13259_2431" cx="0" cy="0" r="1" gradientUnits="userSpaceOnUse" gradientTransform="translate(103.171 87.3608) scale(23.7708 23.96)">
<stop stop-color="#AA9800"/>
<stop offset="0.28" stop-color="#AA9400"/>
<stop offset="0.54" stop-color="#AA8900"/>
<stop offset="0.79" stop-color="#AA7600"/>
<stop offset="1" stop-color="#AA6100"/>
</radialGradient>
<radialGradient id="paint1_radial_13259_2431" cx="0" cy="0" r="1" gradientUnits="userSpaceOnUse" gradientTransform="translate(103.184 87.4767) scale(22.8667 23.0487)">
<stop stop-color="#FFE400"/>
<stop offset="0.23" stop-color="#FFE000"/>
<stop offset="0.45" stop-color="#FFD400"/>
<stop offset="0.66" stop-color="#FFC200"/>
<stop offset="0.86" stop-color="#FFA700"/>
<stop offset="1" stop-color="#FF9200"/>
</radialGradient>
<clipPath id="clip1_13259_2431">
<rect width="49" height="55" fill="white" transform="translate(79 59)"/>
</clipPath>
</defs>
</svg>
