<svg width="260" height="260" viewBox="0 0 260 260" fill="none" xmlns="http://www.w3.org/2000/svg">
<g clip-path="url(#clip0_13261_191980)">
<path d="M168.389 166.875L163.908 169.697C163.908 169.697 172.063 176.46 172.063 177.35C172.063 178.239 162.683 187.097 162.035 186.514C161.387 185.931 149.362 179.252 149.534 173.342C149.706 167.429 164.863 152.469 164.863 152.469C164.863 152.469 188.649 165.614 202.064 188.82C215.194 211.55 210.304 214.505 210.304 214.505C210.304 214.505 204.805 211.531 202.796 213.443C201.67 212.743 200.237 212.794 199.161 213.567C199.161 213.567 195.888 211.808 194.404 213.73C192.92 215.652 185.261 215.548 185.261 215.548C185.261 215.548 183.025 211.72 180.19 213.511C178.696 212.355 176.383 212.554 176.078 213.426C175.203 212.469 172.53 212.469 171.225 214.707C165.827 214.01 160.491 212.901 155.26 211.387C155.784 208.794 160.532 191.394 159.78 184.526C162.634 186.869 163.833 186.592 163.833 186.592C163.833 186.592 173.233 179.444 173.291 177.799C173.349 176.154 165.414 170.022 165.414 170.022L168.392 166.875H168.389Z" fill="#353F6E"/>
<path d="M218.684 150.157C206.963 153.001 196.311 159.198 188.018 167.998C202.842 185.017 212.109 209.297 209.997 213.344C214.193 212.865 220.816 211.91 222.177 211.497C218.817 196.786 218.031 184.888 217.959 176.608C217.881 167.789 218.969 141.341 218.684 150.157Z" fill="#353F6E"/>
<path d="M195.086 168.618C195.086 168.618 215.752 167.116 214.019 167.729C213.12 166.723 207.94 171.717 207.94 171.717L202.85 176.444C203.609 177.591 204.145 178.874 204.428 180.223C204.6 181.839 213.676 193.443 213.942 194.257C214.207 195.071 218.024 198.304 218.024 198.304L221.41 211.143L212.571 211.4C212.571 211.4 204.873 188.595 199.328 180.356C193.781 172.12 193.619 171.583 193.619 171.583L195.084 168.618H195.086Z" fill="#6271B6"/>
<path d="M187.617 175.293C194.114 180.421 199.328 187.005 202.84 194.521C206.741 202.721 207.846 208.575 208.15 211.309C208.237 212.007 207.744 212.641 207.051 212.729C206.92 212.746 206.787 212.741 206.657 212.717C203.297 212.046 195.744 210.67 193.679 211.397C192.188 211.885 190.75 212.527 189.389 213.309C189.389 213.309 186.298 213.779 185.896 213.309C185.495 212.84 180.53 208.928 177.971 209.732C175.411 210.537 171.396 211.358 171.396 211.358C171.396 211.358 165.088 209.445 166.973 207.579C168.856 205.713 175.67 187.201 176.023 184.361C176.376 181.52 176.612 175.587 176.023 175.254C175.433 174.921 176.366 169.381 178.648 169.791C180.929 170.202 187.62 175.291 187.62 175.291L187.617 175.293Z" fill="#6271B6"/>
<path d="M164.116 167.911C164.116 167.911 162.441 168.446 162.269 169.355C162.098 170.264 167.311 174.186 168.377 174.789C169.443 175.392 171.602 177.324 171.404 177.457C171.205 177.591 165.228 183.292 164.191 183.829C163.154 184.364 160.86 182.279 159.794 180.461C158.728 178.643 155.987 174.519 156.768 171.277C157.549 168.035 160.326 166.084 161.525 165.948C162.724 165.814 166.862 166.149 167.062 166.56C167.263 166.971 164.114 167.909 164.114 167.909L164.116 167.911Z" fill="#6271B6"/>
<path d="M194.726 191.683C193.759 191.683 192.976 190.895 192.976 189.924C192.976 188.952 193.759 188.164 194.726 188.164C195.692 188.164 196.476 188.952 196.476 189.924C196.476 190.895 195.692 191.683 194.726 191.683Z" fill="#353F6E"/>
<path d="M179.607 191.699C178.641 191.699 177.857 190.911 177.857 189.939C177.857 188.967 178.641 188.18 179.607 188.18C180.574 188.18 181.357 188.967 181.357 189.939C181.357 190.911 180.574 191.699 179.607 191.699Z" fill="#353F6E"/>
<path d="M195.98 203.988C195.014 203.988 194.23 203.2 194.23 202.228C194.23 201.256 195.014 200.469 195.98 200.469C196.947 200.469 197.73 201.256 197.73 202.228C197.73 203.2 196.947 203.988 195.98 203.988Z" fill="#353F6E"/>
<path d="M178.797 203.988C177.831 203.988 177.047 203.2 177.047 202.228C177.047 201.256 177.831 200.469 178.797 200.469C179.764 200.469 180.547 201.256 180.547 202.228C180.547 203.2 179.764 203.988 178.797 203.988Z" fill="#353F6E"/>
<path d="M195.202 191.23C194.235 191.23 193.452 190.442 193.452 189.47C193.452 188.499 194.235 187.711 195.202 187.711C196.168 187.711 196.952 188.499 196.952 189.47C196.952 190.442 196.168 191.23 195.202 191.23Z" fill="#F3F3F3"/>
<path d="M180.083 191.238C179.117 191.238 178.333 190.45 178.333 189.478C178.333 188.506 179.117 187.719 180.083 187.719C181.05 187.719 181.833 188.506 181.833 189.478C181.833 190.45 181.05 191.238 180.083 191.238Z" fill="#F3F3F3"/>
<path d="M196.457 203.539C195.49 203.539 194.707 202.751 194.707 201.779C194.707 200.807 195.49 200.02 196.457 200.02C197.423 200.02 198.207 200.807 198.207 201.779C198.207 202.751 197.423 203.539 196.457 203.539Z" fill="#F3F3F3"/>
<path d="M179.273 203.539C178.307 203.539 177.524 202.751 177.524 201.779C177.524 200.807 178.307 200.02 179.273 200.02C180.24 200.02 181.023 200.807 181.023 201.779C181.023 202.751 180.24 203.539 179.273 203.539Z" fill="#F3F3F3"/>
<path d="M188.113 134.338V134.54C191.92 134.061 224.134 130.885 243.241 156.886C226.791 155.537 200.302 162.424 192.024 174.918C179.779 160.281 148.436 155.537 131.976 156.856C152.328 129.2 188.113 134.338 188.113 134.338Z" fill="#F3F3F3"/>
<path d="M129.799 101.181C130.56 87.7879 160.246 58.6859 165.059 54.1049C169.874 49.5214 177.922 37.8417 180.281 38.0021C182.764 38.2306 178.846 61.765 178.541 78.6016C178.237 95.4383 181.947 101.254 183.233 100.94C184.516 100.624 188.874 99.9828 188.874 99.9828C188.874 99.9828 193.242 100.615 194.516 100.94C195.789 101.266 199.529 95.448 199.197 78.6016C198.864 61.7577 194.972 38.233 197.474 38.0021C199.814 37.8198 207.875 49.4825 212.697 54.1024C217.521 58.7247 247.179 87.7588 247.94 101.181C248.539 111.799 244.457 114.861 235.495 119.128C226.532 123.396 223.726 124.676 224.362 127.012C225 129.345 230.774 130.312 231.098 136.033C231.422 141.754 230.051 150.853 214.323 157.73C198.596 164.608 193.392 166.549 188.872 166.549C184.352 166.549 179.148 164.637 163.42 157.73C147.692 150.823 146.969 139.727 147.245 134.016C147.52 128.305 152.688 129.347 153.324 127.014C153.96 124.681 151.163 123.398 142.201 119.131C133.238 114.863 129.194 111.804 129.794 101.183L129.799 101.181Z" fill="#6271B6"/>
<path d="M147.98 134.184C148.294 128.711 153.375 129.717 154.013 127.489C154.018 127.438 154.018 127.387 154.013 127.336L164.822 124.466L185.062 121.855C185.062 121.855 189.986 125.027 188.521 125.127C185.993 125.297 185.826 128.138 184.149 129.817C182.474 131.499 175.181 141.074 165.477 140.748C155.772 140.422 152.824 133.314 149.635 137.448C147.866 139.744 152.49 150.372 161.138 153.05C169.787 155.728 176.685 158.523 181.176 159.745C186.223 161.007 191.475 161.199 196.599 160.309C201.641 159.352 220.023 154.044 220.385 153.927C218.481 155.101 216.482 156.115 214.411 156.951C198.816 163.541 193.687 165.398 189.169 165.398C184.652 165.398 179.549 163.551 163.974 156.921C148.398 150.292 147.666 139.635 147.98 134.182V134.184Z" fill="#353F6E"/>
<path d="M222.099 131.721C222.099 131.721 218.474 140.559 200.947 139.048C198.758 138.858 198.419 136.557 197.827 134.958C196.87 132.369 195.176 131.546 193.539 129.825C191.949 128.153 190.822 125.465 188.536 125.086C185.406 124.566 185.174 120.415 185.256 117.516C185.512 108.667 196.901 101.09 196.901 101.09L222.097 131.721H222.099Z" fill="#353F6E"/>
<path d="M189.454 127.621C189.454 127.266 189.843 127.132 190.005 127.429C190.595 128.452 191.137 130.787 192.231 131.762C193.658 133.016 195.4 134.574 194.781 136.209C194.163 137.845 192.403 136.707 190.975 135.577C190.385 135.089 190.022 134.812 189.776 134.62C189.534 134.433 189.396 134.141 189.404 133.835L189.452 127.616L189.454 127.621Z" fill="#353F6E"/>
<path d="M188.255 127.402C188.255 127.047 187.876 126.914 187.704 127.21C187.115 128.233 186.573 130.578 185.478 131.543C184.059 132.797 182.319 134.355 182.928 135.99C183.537 137.626 185.307 136.498 186.735 135.368C187.325 134.88 187.687 134.593 187.934 134.411C188.176 134.224 188.313 133.932 188.306 133.626L188.258 127.397L188.255 127.402Z" fill="#353F6E"/>
<path d="M200.092 40.207C200.092 40.207 213.801 58.3074 220.216 64.7646C226.629 71.2217 239.826 88.107 242.528 92.7657C245.231 97.4245 248.665 108.339 238.721 114.597C243.688 102.438 234.163 98.8778 231.11 99.444C228.057 100.01 228.333 111 228.333 111L223.404 117.486L205.327 116.222L195.279 101.5L198.951 98.0564C202.702 95.1328 207.183 93.3004 211.899 92.7657C219.721 91.9249 222.631 92.1825 222.631 92.1825C222.631 92.1825 221.517 84.8553 213.325 86.1263C215.704 82.5685 216.55 63.8557 200.089 40.207H200.092Z" fill="#353F6E"/>
<path d="M174.241 53.8086C174.241 53.8086 172.233 67.6998 172.129 75.9942C172.025 84.2886 170.12 97.1446 173.707 100.542C177.294 103.937 171.529 105.325 171.529 105.325L149.399 119.109C149.399 119.109 143.851 118.152 141.207 116.382C138.563 114.613 134.28 111.655 133.492 108.088C137.079 111.762 140.151 114.526 142.636 111.493C145.118 108.46 143.397 94.0047 152.57 86.9351C151.037 90.1771 152.942 95.5455 156.536 94.9136C160.133 94.2817 165.784 85.7103 167.183 78.4123C168.583 71.1143 174.244 53.8086 174.244 53.8086H174.241Z" fill="#353F6E"/>
<path d="M229.882 106.365L239.396 97.9171C241.117 96.3666 241.259 93.7079 239.72 91.9751C238.175 90.2375 235.524 90.0869 233.795 91.6373C233.791 91.6422 233.788 91.6446 233.783 91.6495L224.412 99.973C226.74 101.609 228.621 103.806 229.882 106.365Z" fill="#F3F3F3"/>
<path d="M190.462 117.066V117.142C190.462 128.416 199.533 137.568 210.746 137.604C199.519 137.527 190.46 128.352 190.462 117.066Z" fill="#CCCCCC"/>
<path d="M231.166 116.839C231.166 116.36 231.166 115.881 231.098 115.422C231.127 115.891 231.166 116.36 231.166 116.839Z" fill="#CCCCCC"/>
<path d="M210.814 137.606C222.056 137.606 231.17 128.447 231.175 117.144V117.039C231.192 128.366 222.082 137.57 210.814 137.606Z" fill="#CCCCCC"/>
<path d="M231.166 116.838C231.166 116.359 231.166 115.88 231.098 115.421C230.624 109.27 227.436 103.654 222.411 100.115C219.017 97.7044 214.969 96.4043 210.814 96.3945C199.536 96.4358 190.426 105.661 190.462 117V117.069C190.462 128.357 199.521 137.529 210.746 137.606H210.814C222.08 137.57 231.19 128.367 231.175 117.039C231.175 116.945 231.166 116.896 231.166 116.838Z" fill="#F3F3F3"/>
<path d="M209.098 136.601C199.912 136.601 192.466 129.114 192.466 119.879C192.466 110.643 199.912 103.156 209.098 103.156C218.283 103.156 225.73 110.643 225.73 119.879C225.73 129.114 218.283 136.601 209.098 136.601Z" fill="#353F6E"/>
<path d="M228.074 113.817L196.952 106.624L201.375 103.912C201.375 103.912 207.089 101.494 207.403 101.499C207.718 101.503 212.554 100.923 214.401 101.608C216.247 102.293 221.176 102.327 222.672 103.943C224.168 105.56 228.255 113.295 228.255 113.295L228.074 113.82V113.817Z" fill="#F3F3F3"/>
<path d="M218.979 121.072L199.463 113.82L206.562 120.182L192.565 114.931L197.286 106.559L218.979 121.072Z" fill="#F3F3F3"/>
<path d="M228.92 105.355C228.92 105.355 237.655 97.4345 237.921 97.1477C238.477 96.285 238.53 95.1913 238.064 94.2776C237.503 93.4829 237.95 94.8511 237.539 95.7892C237.131 96.7273 226.817 102.484 226.817 102.484L228.92 105.355Z" fill="#353F6E"/>
<path d="M147.827 106.153L138.541 97.9174C136.861 96.401 136.719 93.8006 138.227 92.1116C139.735 90.4274 142.312 90.2865 143.992 91.7957L153.145 99.9175C150.88 101.517 149.053 103.66 147.827 106.156V106.153Z" fill="#F3F3F3"/>
<path d="M186.81 117.066V117.142C186.81 128.416 177.739 137.568 166.526 137.604C177.753 137.527 186.812 128.352 186.81 117.066Z" fill="#CCCCCC"/>
<path d="M146.107 116.839C146.107 116.36 146.107 115.881 146.174 115.422C146.136 115.891 146.107 116.36 146.107 116.839Z" fill="#CCCCCC"/>
<path d="M166.449 137.606C155.209 137.606 146.097 128.444 146.097 117.144V117.039C146.075 128.366 155.183 137.57 166.449 137.606Z" fill="#CCCCCC"/>
<path d="M146.107 116.844C146.107 116.365 146.107 115.887 146.174 115.427C146.648 109.276 149.836 103.66 154.861 100.122C158.255 97.7231 162.301 96.4375 166.451 96.4375C177.734 96.474 186.849 105.699 186.812 117.043V117.112C186.812 128.4 177.753 137.572 166.528 137.649H166.453C155.187 137.613 146.08 128.41 146.102 117.082C146.102 116.949 146.111 116.9 146.111 116.844H146.107Z" fill="#F3F3F3"/>
<path d="M164.979 136.601C155.793 136.601 148.347 129.114 148.347 119.879C148.347 110.643 155.793 103.156 164.979 103.156C174.165 103.156 181.611 110.643 181.611 119.879C181.611 129.114 174.165 136.601 164.979 136.601Z" fill="#353F6E"/>
<path d="M153.435 107.413L184.664 111.924L182.742 107.715C182.742 107.715 177.345 103.044 177.011 102.959C176.678 102.874 172.404 100.628 170.434 100.635C168.464 100.643 163.824 98.9829 161.868 99.9866C159.913 100.99 153.442 106.857 153.442 106.857L153.435 107.411V107.413Z" fill="#F3F3F3"/>
<path d="M174.887 119.871L155.383 112.609L162.48 118.981L148.485 113.73L153.203 105.348L174.887 119.871Z" fill="#F3F3F3"/>
<path d="M148.151 105.788C148.151 105.788 139.416 97.868 139.15 97.5812C138.594 96.7185 138.541 95.6248 139.008 94.7111C139.568 93.9164 139.121 95.2846 139.539 96.2324C139.958 97.1802 150.252 102.928 150.252 102.928L148.149 105.788H148.151Z" fill="#353F6E"/>
<path d="M173.166 212.495C174.106 212.334 175.073 212.565 175.839 213.136C177.229 211.858 179.37 211.892 180.719 213.212C181.521 212.609 182.568 212.441 183.516 212.762C185.029 213.202 185.988 214.492 185.657 215.632C185.326 216.772 183.83 217.345 182.317 216.905C181.729 216.731 181.202 216.4 180.784 215.948C179.443 217.37 177.207 217.428 175.793 216.077C175.749 216.035 175.706 215.992 175.665 215.948C175.114 216.385 174.456 216.667 173.763 216.762C172.088 216.991 170.604 216.218 170.442 215.032C170.28 213.846 171.479 212.725 173.163 212.497L173.166 212.495Z" fill="#6271B6"/>
<path d="M196.181 212.506C197.157 212.338 198.158 212.598 198.932 213.223C199.584 212.545 200.495 212.175 201.433 212.209C202.221 212.195 202.99 212.452 203.611 212.936C204.399 212.408 205.385 212.275 206.284 212.571C207.788 213.011 208.75 214.302 208.416 215.441C208.083 216.581 206.599 217.145 205.085 216.705C204.646 216.579 204.237 216.367 203.877 216.083C203.239 216.754 202.354 217.13 201.431 217.126C200.423 217.155 199.459 216.71 198.823 215.92C198.25 216.416 197.547 216.729 196.797 216.819C195.122 217.048 193.638 216.275 193.486 215.096C193.334 213.92 194.513 212.734 196.179 212.503L196.181 212.506Z" fill="#6271B6"/>
<path d="M171.237 144.879C171.237 144.879 171.237 150.745 171.604 151.71C170.009 151.351 166.531 148.456 165.743 146.303C167.418 145.321 171.237 144.879 171.237 144.879Z" fill="#4F5DA3"/>
<path d="M171.882 144.594C171.938 146.407 172.122 148.215 172.429 150.001C170.833 149.641 168.01 147.928 167.22 145.811C168.684 145.119 170.265 144.706 171.88 144.594H171.882Z" fill="#F3F3F3"/>
<path d="M156.539 146.036C159.004 148.082 163.045 147.307 167.357 146.153C167.925 145.616 168.629 145.246 169.393 145.088C170.222 144.884 171.08 144.816 171.928 144.889C172.663 144.802 173.383 144.629 174.079 144.376C179.332 141.475 188.287 141.492 188.287 141.492C188.287 141.492 196.058 141.492 202.224 144.403C208.138 147.215 216.206 149.098 219.989 146.034C221.19 144.93 222.111 143.555 222.677 142.024C222.909 141.438 222.174 140.996 221.853 141.518C220.545 143.635 218.652 144.529 216.09 144.989C209.081 146.24 200.522 140.43 188.304 140.43C176.085 140.43 166.855 144.187 160.517 144.989C157.926 145.322 156.036 143.638 154.755 141.518C154.433 140.996 153.696 141.438 153.931 142.024C154.467 143.553 155.362 144.928 156.539 146.034V146.036Z" fill="#353F6E"/>
<path d="M193.798 147.569C194.694 146.93 192.901 145.496 188.787 145.496C184.978 145.496 183.489 146.74 183.697 147.299C184.074 148.281 186.977 147.083 188.906 147.083C190.834 147.083 192.903 148.201 193.8 147.569H193.798Z" fill="#353F6E"/>
<path d="M152.802 176.25C152.802 176.25 150.414 178.139 151.861 181.633C151.395 184.081 151.211 190.723 152.802 192.122C154.395 193.52 155.19 194.64 157.65 193.102C159.026 193.843 161.269 194.781 162.209 194.29C163.149 193.802 164.452 195.889 167.493 194.426C170.533 192.963 170.533 179.327 170.026 178.768C169.518 178.209 163.077 172.965 152.802 176.25Z" fill="#353F6E"/>
<path d="M157.65 186.55C157.65 186.55 153.742 183.194 153.404 182.681C153.065 182.168 151.617 179.371 153.21 177.879C153.21 177.879 157.602 181.468 158.47 181.376C159.337 181.284 161.51 185.386 157.65 186.55Z" fill="#6271B6"/>
<path d="M154.851 185.275L152.753 183.457C152.753 183.457 152.367 190.59 153.092 191.336C153.817 192.082 155.274 193.015 156.174 192.874C157.073 192.733 159.485 189.914 159.316 186.93C158.206 187.676 157.14 188.544 155.722 186.067C154.515 187.722 153.575 190.658 153.72 191.054C153.865 191.45 152.529 189.737 154.854 185.272L154.851 185.275Z" fill="#6271B6"/>
<path d="M163.947 186.795C163.947 186.795 163.93 191.602 161.885 193.194C159.731 193.265 158.702 193.019 158.392 192.426C158.083 191.833 160.81 189.216 160.275 186.134C161.433 186.03 162.103 185.347 163.949 186.798L163.947 186.795Z" fill="#6271B6"/>
<path d="M167.759 186.95C167.759 186.95 165.225 185.669 164.766 186.717C164.766 187.625 164.815 191.891 163.222 193.103C163.944 193.337 165.032 194.221 166.961 193.64C168.89 193.057 167.756 186.95 167.756 186.95H167.759Z" fill="#6271B6"/>
<path d="M161.157 184.886C161.157 184.886 161.813 183.01 160.655 182.217C160.655 182.217 165.648 183.802 167.423 181.18C168.363 181.634 169.052 182.217 169.052 182.217V184.468C169.052 184.468 167.459 185.119 167.64 185.877C166.156 185.518 164.918 185.391 164.13 185.877C163.444 185.877 162.279 185.097 161.16 184.888L161.157 184.886Z" fill="#6271B6"/>
<path d="M184.158 177.551L201.414 174.285C201.414 174.285 205.723 165.811 208.16 163.645C209.748 162.236 217.528 162.673 219.506 166.542C223.146 173.66 219.462 182.487 217.956 184.001C216.45 185.515 190.07 192.249 188.867 191.637C187.663 191.024 182.416 181.077 184.156 177.551H184.158Z" fill="#353F6E"/>
<path d="M208.16 165.408L203.241 175.083C202.801 175.763 198.318 176.949 197.733 177.095C195.405 177.671 194.02 178.794 192.976 178.594C192.976 178.594 194.448 181.309 194.327 182.281C194.325 182.303 193.445 188.704 193.452 188.724C193.711 189.365 201.184 189.054 205.097 186.616C206.272 185.883 215.007 184.789 216.666 182.223C218.283 180.018 220.475 169.739 217.289 166.375C217.289 166.375 211.858 163.852 208.162 165.41L208.16 165.408Z" fill="#6271B6"/>
<path d="M203.376 173.719C203.376 173.719 207.974 174.618 207.481 177.206C206.987 179.794 206.85 180.186 206.85 180.186C206.85 180.186 205.675 174.992 202.61 175.592C199.545 176.193 203.376 173.719 203.376 173.719Z" fill="#353F6E"/>
<path d="M192.101 191.587C192.101 191.587 196.894 188.022 196.493 183.081C196.089 178.14 191.9 173.645 185.053 175.224C178.889 173.725 178.406 173.523 176.31 173.888C174.214 174.252 171.597 182.658 171.597 182.658C171.597 182.658 169.059 182.311 167.971 183.973C166.884 185.635 167.809 191.062 171.918 190.899C172.523 192.357 178.244 196.124 178.244 196.124C178.244 196.124 182.957 200.093 187.832 196.367C190.774 193.371 192.103 191.587 192.103 191.587H192.101Z" fill="#353F6E"/>
<path d="M191.013 191.09C191.013 191.09 195.685 187.391 195.39 183.287C195.096 179.182 192.275 175.996 186.957 176.239C188.461 178.507 188.408 179.236 188.408 179.236C188.408 179.236 184.729 175.347 182.258 175.563C180.03 175.294 176.941 174.511 176.431 175.807C177.746 177.291 179.626 179.559 179.626 179.559C179.626 179.559 180.646 178.64 180.97 179.099C181.294 179.559 175.517 185.095 172.295 184.23C172.16 183.77 172.457 183.365 172.457 183.365L171.652 183.083C171.652 183.083 168.295 183.581 169.209 186.767C170.122 189.953 170.524 189.899 176.487 189.467C176.675 190.223 174.5 190.818 173.692 190.845C173.854 191.263 177.117 194.869 180.46 196.245C183.803 197.623 189.807 193.465 191.016 191.088L191.013 191.09Z" fill="#6271B6"/>
<path d="M179.547 179.558L174.123 173.159C174.123 173.159 178.205 162.629 168.375 153.987C158.545 145.345 155.376 147.345 152.26 148.262C150.058 150.206 146.029 153.555 146.029 153.555C146.029 153.555 139.423 159.873 149.251 172.673C159.081 185.473 167.621 179.099 167.621 179.099L172.455 183.42C172.455 183.42 177.988 183.041 179.544 179.558H179.547Z" fill="#353F6E"/>
<path opacity="0.8" d="M154.258 168.453C149.393 162.416 147.327 155.992 149.644 154.104C151.961 152.217 157.783 155.58 162.649 161.617C167.514 167.653 169.58 174.077 167.263 175.965C164.946 177.853 159.124 174.49 154.258 168.453Z" fill="#FFDB01"/>
<path d="M174.551 176.022L172.296 173.268C172.296 173.268 177.56 163.926 165.581 153.61C165.581 153.61 160.694 147.94 153.79 149.262C151.642 150.694 150.486 151.773 150.486 151.773C150.486 151.773 157.416 150.842 164.747 159.914C172.078 168.986 169.54 175.752 169.54 175.752L171.595 173.949C171.595 173.949 171.213 176.603 168.834 177.917C169.453 178.544 170.526 179.558 170.526 179.558C170.526 179.558 173.714 177.648 174.548 176.019L174.551 176.022Z" fill="#6271B6"/>
<path d="M148.192 153.675C155.001 150.474 163.621 160.479 163.621 160.479C164.965 161.886 173.693 174.971 165.755 178.504C157.82 182.038 148.877 169.634 148.877 169.634C148.877 169.634 141.384 156.875 148.192 153.675ZM151.373 170.484C155.023 174.764 161.738 179.083 164.803 177.019C165.31 176.677 165.569 176.261 165.796 175.884C168.099 172.081 165.409 165.281 161.552 161.113C157.708 156.96 151.19 153.781 148.579 155.82C147.504 156.661 147.226 158.28 147.064 159.225C146.682 161.446 147.366 163.203 148.149 165.136C149.3 167.974 150.834 169.853 151.371 170.482L151.373 170.484Z" fill="#6271B6"/>
<g opacity="0.3" filter="url(#filter0_f_13261_191980)">
<ellipse cx="128" cy="160.5" rx="53" ry="38.5" fill="#FEB95A"/>
</g>
<g clip-path="url(#clip1_13261_191980)">
<path d="M116.496 220.598C115.043 220.598 113.502 220.168 111.906 219.324L100.307 213.176C98.7265 212.339 96.4589 211.862 94.0885 211.862C91.7181 211.862 89.4426 212.339 87.8623 213.176L76.2633 219.324C74.6672 220.168 73.1186 220.598 71.6726 220.598C69.7526 220.598 68.0539 219.834 66.8845 218.44C65.8889 217.253 64.8302 215.063 65.4544 211.408L67.6667 198.394C68.2988 194.675 66.5052 189.1 63.8188 186.464L54.4321 177.241C50.9793 173.841 51.2795 170.798 51.7694 169.285C52.2593 167.772 53.7921 165.128 58.5645 164.435L71.5304 162.54C75.2361 161.998 79.9373 158.55 81.5966 155.165L87.3961 143.322C89.5295 138.958 92.5003 138.305 94.0806 138.305C95.6608 138.305 98.6238 138.958 100.765 143.322L106.565 155.165C108.224 158.55 112.925 161.998 116.631 162.54L129.597 164.435C134.377 165.136 135.91 167.78 136.392 169.285C136.882 170.798 137.182 173.841 133.721 177.241L124.342 186.464C121.664 189.1 119.862 194.675 120.494 198.394L122.707 211.408C123.331 215.063 122.272 217.245 121.277 218.44C120.115 219.834 118.409 220.598 116.489 220.598H116.496Z" fill="url(#paint0_radial_13261_191980)"/>
<path d="M134.891 169.78C134.519 168.617 133.302 166.586 129.368 166.013L116.402 164.117C112.182 163.496 107.031 159.721 105.142 155.874L99.3428 144.032C97.5808 140.44 95.2895 139.906 94.0806 139.906C92.8717 139.906 90.5724 140.44 88.8184 144.032L83.0188 155.874C81.1304 159.729 75.9788 163.504 71.7596 164.117L58.7936 166.013C54.8588 166.586 53.642 168.625 53.2706 169.78C52.8993 170.943 52.6938 173.308 55.5383 176.103L64.925 185.326C67.9749 188.32 69.9423 194.429 69.2232 198.666L67.0109 211.679C66.4894 214.729 67.3111 216.482 68.0934 217.413C68.9625 218.457 70.203 219.006 71.6726 219.006C72.8657 219.006 74.1615 218.64 75.5285 217.915L87.1275 211.767C88.9211 210.811 91.4574 210.27 94.0885 210.27C96.7196 210.27 99.248 210.819 101.049 211.767L112.649 217.915C114.015 218.64 115.311 219.006 116.504 219.006C117.974 219.006 119.207 218.457 120.084 217.413C120.866 216.482 121.688 214.729 121.166 211.679L118.954 198.666C118.235 194.429 120.202 188.32 123.252 185.326L132.631 176.103C135.475 173.308 135.278 170.943 134.898 169.78H134.891Z" fill="url(#paint1_radial_13261_191980)"/>
<path d="M90.683 145.822C90.683 145.822 86.4085 155.117 84.5122 161.122C82.6159 167.127 95.5818 152.194 95.6687 147.025C95.7635 141.856 92.6188 141.466 90.683 145.83V145.822Z" fill="white"/>
<path d="M82.9635 166.587C82.9635 167.415 82.2998 168.084 81.4781 168.084C80.6564 168.084 79.9927 167.415 79.9927 166.587C79.9927 165.759 80.6564 165.09 81.4781 165.09C82.2998 165.09 82.9635 165.759 82.9635 166.587Z" fill="white"/>
<path d="M86.7799 208.363C87.175 209.16 82.0629 212.162 81.4624 212.473C79.25 213.612 74.4145 216.089 73.1898 214.751C71.9651 213.413 86.3848 207.567 86.7799 208.363Z" fill="#FFED1D"/>
<path d="M130.3 171.73C129.249 174.382 123.829 179.989 122.138 182.346C120.447 184.704 131.438 176.907 132.473 173.864C133.508 170.822 131.359 169.07 130.3 171.722V171.73Z" fill="#FFE000"/>
<path d="M90.3274 207.643C90.3274 208.152 89.9165 208.566 89.4109 208.566C88.9052 208.566 88.4943 208.152 88.4943 207.643C88.4943 207.133 88.9052 206.719 89.4109 206.719C89.9165 206.719 90.3274 207.133 90.3274 207.643Z" fill="#FFED1D"/>
<path d="M106.636 210.023C107.426 210.349 108.358 210.938 108.611 211.066C111.179 212.388 113.676 212.985 116.402 213.869C117.492 214.22 119.096 215.653 117.634 216.609C115.635 217.915 112.925 216.266 111.131 215.335C109.551 214.522 108.492 213.798 106.723 212.308C104.953 210.819 104.581 209.17 106.636 210.015V210.023Z" fill="#FFC900"/>
<path d="M70.0924 145.192C62.926 145.861 62.3887 146.394 61.7329 153.618C61.0692 146.394 60.5398 145.853 53.3734 145.192C60.5398 144.523 61.0771 143.989 61.7329 136.766C62.3887 143.989 62.926 144.531 70.0924 145.192Z" fill="#FFED1D"/>
<path d="M123.236 151.027C119.056 151.418 118.74 151.728 118.353 155.949C117.966 151.736 117.658 151.418 113.47 151.027C117.658 150.637 117.966 150.326 118.353 146.105C118.74 150.326 119.049 150.637 123.236 151.027Z" fill="#FFED1D"/>
<path d="M67.9275 199.34C63.7477 199.73 63.4317 200.041 63.0445 204.262C62.6574 200.049 62.3492 199.73 58.1616 199.34C62.3492 198.95 62.6574 198.639 63.0445 194.418C63.4317 198.639 63.7398 198.95 67.9275 199.34Z" fill="#FFED1D"/>
<path d="M85.4999 129.461C81.6678 129.819 81.3833 130.106 81.0278 133.969C80.6722 130.106 80.3878 129.819 76.5557 129.461C80.3878 129.102 80.6722 128.816 81.0278 124.953C81.3833 128.816 81.6678 129.102 85.4999 129.461Z" fill="#FFED1D"/>
<path d="M132.615 206.247C129.62 206.525 129.399 206.748 129.123 209.767C128.846 206.748 128.625 206.525 125.63 206.247C128.625 205.968 128.846 205.745 129.123 202.727C129.399 205.745 129.62 205.968 132.615 206.247Z" fill="#FFED1D"/>
</g>
</g>
<defs>
<filter id="filter0_f_13261_191980" x="-18.9104" y="28.0896" width="293.821" height="264.821" filterUnits="userSpaceOnUse" color-interpolation-filters="sRGB">
<feFlood flood-opacity="0" result="BackgroundImageFix"/>
<feBlend mode="normal" in="SourceGraphic" in2="BackgroundImageFix" result="shape"/>
<feGaussianBlur stdDeviation="46.9552" result="effect1_foregroundBlur_13261_191980"/>
</filter>
<radialGradient id="paint0_radial_13261_191980" cx="0" cy="0" r="1" gradientUnits="userSpaceOnUse" gradientTransform="translate(93.5117 174.271) scale(41.3393 41.6685)">
<stop stop-color="#AA9800"/>
<stop offset="0.28" stop-color="#AA9400"/>
<stop offset="0.54" stop-color="#AA8900"/>
<stop offset="0.79" stop-color="#AA7600"/>
<stop offset="1" stop-color="#AA6100"/>
</radialGradient>
<radialGradient id="paint1_radial_13261_191980" cx="0" cy="0" r="1" gradientUnits="userSpaceOnUse" gradientTransform="translate(93.5354 174.471) scale(39.767 40.0836)">
<stop stop-color="#FFE400"/>
<stop offset="0.23" stop-color="#FFE000"/>
<stop offset="0.45" stop-color="#FFD400"/>
<stop offset="0.66" stop-color="#FFC200"/>
<stop offset="0.86" stop-color="#FFA700"/>
<stop offset="1" stop-color="#FF9200"/>
</radialGradient>
<clipPath id="clip0_13261_191980">
<rect width="260" height="260" fill="white"/>
</clipPath>
<clipPath id="clip1_13261_191980">
<rect width="85.215" height="95.6495" fill="white" transform="translate(51.4771 124.953)"/>
</clipPath>
</defs>
</svg>
