<svg width="265" height="260" viewBox="0 0 265 260" fill="none" xmlns="http://www.w3.org/2000/svg">
<ellipse opacity="0.2" cx="130.5" cy="130.5" rx="123.5" ry="66.5" fill="url(#paint0_radial_13430_260502)"/>
<rect x="64" y="64" width="132" height="132" rx="66" fill="#233332"/>
<g clip-path="url(#clip0_13430_260502)">
<path d="M101.84 126.986L122.635 151.123L158.16 108.883" stroke="#6EBD9C" stroke-width="5.28" stroke-linecap="round" stroke-linejoin="round"/>
</g>
<g opacity="0.3">
<path d="M244.724 84.4972C246.139 84.4972 247.282 85.572 247.282 86.899C247.282 88.2247 246.139 89.3008 244.724 89.3008C243.31 89.3008 242.167 88.2247 242.167 86.899C242.167 85.572 243.31 84.4972 244.724 84.4972Z" fill="#D5DCFF"/>
<path d="M217.616 11.0004C218.185 11.0004 218.639 11.431 218.639 11.9612C218.639 12.4914 218.185 12.9219 217.616 12.9219C217.046 12.9219 216.593 12.4914 216.593 11.9612C216.593 11.431 217.046 11.0004 217.616 11.0004Z" fill="#D5DCFF"/>
<path d="M120.434 71.0434C121.004 71.0434 121.457 71.4739 121.457 72.0041C121.457 72.5343 121.004 72.9648 120.434 72.9648C119.864 72.9648 119.411 72.5343 119.411 72.0041C119.411 71.4739 119.864 71.0434 120.434 71.0434Z" fill="#D5DCFF"/>
<path d="M13.0229 27.8129C13.5927 27.8129 14.0459 28.2434 14.0459 28.7736C14.0459 29.3039 13.5927 29.7344 13.0229 29.7344C12.4531 29.7344 12 29.3039 12 28.7736C12 28.2434 12.4531 27.8129 13.0229 27.8129Z" fill="#D5DCFF"/>
<path d="M74.4006 11.9614C74.9703 11.9614 75.4236 12.3919 75.4236 12.9221C75.4236 13.4524 74.9703 13.8828 74.4006 13.8828C73.8308 13.8828 73.3777 13.4524 73.3777 12.9221C73.3777 12.3919 73.8308 11.9614 74.4006 11.9614Z" fill="#D5DCFF"/>
<path d="M37.3183 102.747C38.0304 102.747 38.597 103.177 38.597 103.707C38.597 104.237 38.0304 104.668 37.3183 104.668C36.6061 104.668 36.0396 104.237 36.0396 103.707C36.0396 103.177 36.6061 102.747 37.3183 102.747Z" fill="#D5DCFF"/>
</g>
<g opacity="0.3">
<path d="M262.206 222.726C263.751 222.726 265 223.9 265 225.349C265 226.797 263.751 227.973 262.206 227.973C260.661 227.973 259.413 226.797 259.413 225.349C259.413 223.9 260.661 222.726 262.206 222.726Z" fill="#D5DCFF"/>
<path d="M232.596 142.444C233.218 142.444 233.713 142.914 233.713 143.494C233.713 144.073 233.218 144.543 232.596 144.543C231.973 144.543 231.479 144.073 231.479 143.494C231.479 142.914 231.973 142.444 232.596 142.444Z" fill="#D5DCFF"/>
<path d="M126.443 208.034C127.066 208.034 127.561 208.504 127.561 209.083C127.561 209.663 127.066 210.133 126.443 210.133C125.821 210.133 125.326 209.663 125.326 209.083C125.326 208.504 125.821 208.034 126.443 208.034Z" fill="#D5DCFF"/>
<path d="M9.11731 160.811C9.73967 160.811 10.2348 161.282 10.2348 161.861C10.2348 162.44 9.73967 162.91 9.11731 162.91C8.49494 162.91 8 162.44 8 161.861C8 161.282 8.49494 160.811 9.11731 160.811Z" fill="#D5DCFF"/>
<path d="M76.1608 143.495C76.7831 143.495 77.2782 143.965 77.2782 144.544C77.2782 145.124 76.7831 145.594 76.1608 145.594C75.5384 145.594 75.0435 145.124 75.0435 144.544C75.0435 143.965 75.5384 143.495 76.1608 143.495Z" fill="#D5DCFF"/>
<path d="M35.6553 242.663C36.4332 242.663 37.052 243.133 37.052 243.712C37.052 244.292 36.4332 244.762 35.6553 244.762C34.8774 244.762 34.2585 244.292 34.2585 243.712C34.2585 243.133 34.8774 242.663 35.6553 242.663Z" fill="#D5DCFF"/>
</g>
<defs>
<radialGradient id="paint0_radial_13430_260502" cx="0" cy="0" r="1" gradientUnits="userSpaceOnUse" gradientTransform="translate(130.5 130.5) rotate(90) scale(66.5 123.5)">
<stop stop-color="#6EBD9C"/>
<stop offset="1" stop-color="#6EBD9C" stop-opacity="0"/>
</radialGradient>
<clipPath id="clip0_13430_260502">
<rect width="84.48" height="84.48" fill="white" transform="translate(87.76 87.7617)"/>
</clipPath>
</defs>
</svg>
